<?xml version="1.0" encoding="UTF-8"?>
<svg xmlns="http://www.w3.org/2000/svg" width="58" height="59" viewBox="0 0 58 59" fill="none">
  <path fill-rule="evenodd" clip-rule="evenodd" d="M37.1562 39.1628H11.1771C9.00692 39.1628 7.25 37.4058 7.25 35.2357V11.6732C7.25 9.50301 9.00692 7.74609 11.1771 7.74609H37.1562C39.3264 7.74609 41.0833 9.50301 41.0833 11.6732V35.2357C41.0833 37.4058 39.3264 39.1628 37.1562 39.1628Z" stroke="#231D36" stroke-width="2" stroke-linecap="round" stroke-linejoin="round"></path>
  <path d="M26.5834 29.4962H31.4167" stroke="#231D36" stroke-width="2" stroke-linecap="round" stroke-linejoin="round"></path>
  <path d="M16.9166 17.4128L21.75 22.2462L16.9166 27.0795" stroke="#231D36" stroke-width="2" stroke-linecap="round" stroke-linejoin="round"></path>
  <path d="M41.0833 19.8293H46.8229C48.9931 19.8293 50.75 21.5863 50.75 23.7564V47.3189C50.75 49.4891 48.9931 51.246 46.8229 51.246H18.4271C16.2569 51.246 14.5 49.4891 14.5 47.3189V39.1627" stroke="#231D36" stroke-width="2" stroke-linecap="round" stroke-linejoin="round"></path>
</svg>
