<?xml version="1.0" encoding="UTF-8"?>
<svg xmlns="http://www.w3.org/2000/svg" width="58" height="59" viewBox="0 0 58 59" fill="none">
  <path d="M21.7499 38.9211H9.42492C6.88742 38.9211 4.83325 36.8669 4.83325 34.3294V12.3378C4.83325 9.80026 6.88742 7.74609 9.42492 7.74609H46.1583C48.6958 7.74609 50.7499 9.80026 50.7499 12.3378V24.6628" stroke="#231D36" stroke-width="2" stroke-linecap="round" stroke-linejoin="round"></path>
  <path d="M14.4999 31.9127H12.0833" stroke="#231D36" stroke-width="2" stroke-linecap="round" stroke-linejoin="round"></path>
  <path d="M43.4999 14.9962H41.0833" stroke="#231D36" stroke-width="2" stroke-linecap="round" stroke-linejoin="round"></path>
  <path d="M44.7083 48.8295C40.0369 48.8295 36.25 45.0426 36.25 40.3712C36.25 35.6998 40.0369 31.9128 44.7083 31.9128C49.3822 31.9128 53.1667 35.6998 53.1667 40.3712C53.1667 45.0426 49.3822 48.8295 44.7083 48.8295" stroke="#231D36" stroke-width="2" stroke-linecap="round" stroke-linejoin="round"></path>
  <path d="M37.0475 36.7896C32.5718 37.0071 29 40.6756 29 45.2044C29 49.8758 32.7869 53.6627 37.4583 53.6627C40.8344 53.6627 43.7248 51.6714 45.0829 48.8101" stroke="#231D36" stroke-width="2" stroke-linecap="round" stroke-linejoin="round"></path>
  <path d="M31.8493 19.7594C34.0895 21.9996 34.0895 25.6343 31.8493 27.877C29.609 30.1172 25.9744 30.1172 23.7317 27.877C21.4915 25.6367 21.4915 22.0021 23.7317 19.7594C25.9744 17.5167 29.609 17.5167 31.8493 19.7594" stroke="#231D36" stroke-width="2" stroke-linecap="round" stroke-linejoin="round"></path>
</svg>
