<svg xmlns="http://www.w3.org/2000/svg" width="35" height="35" fill="none" xmlns:v="https://vecta.io/nano"><g clip-path="url(#A)" fill="#3e3465"><path d="M12.744 24.365l4.52 2.471c.077.042.162.063.247.063s.17-.021.247-.063l4.52-2.471c.165-.09.267-.263.267-.451V20.36l4.277-2.338c.165-.09.267-.263.267-.451v-3.882c0-.188-.102-.361-.267-.451l-4.52-2.472c-.154-.084-.339-.084-.493 0l-4.274 2.337-4.274-2.337c-.153-.084-.339-.084-.493 0l-4.521 2.472c-.165.09-.267.263-.267.451v3.881c0 .188.102.361.267.451l4.23 2.312v3.58c0 .188.102.361.267.451zm4.767-2.446l-3.429-1.875 3.45-1.886 3.429 1.875-3.45 1.886zm4.031-2.742l-3.493-1.91v-2.711l3.493 1.91v2.711zM13.505 20.9l3.493 1.91v2.711l-3.493-1.91V20.9zm4.521 4.62v-2.711l3.493-1.91v2.711l-3.493 1.91zm4.544-6.343v-2.711l3.493-1.91v2.711l-3.493 1.91zm-.514-7.373l3.45 1.886-3.45 1.886-3.45-1.886 3.45-1.886zm-9.041 0l3.45 1.886-.748.409c-.249.136-.341.448-.205.697s.448.34.697.204l.812-.444v2.688l-3.493 1.91v-2.688l.813-.445c.249-.136.341-.448.204-.697s-.448-.34-.697-.204l-.834.456-3.45-1.886 3.45-1.886zm-4.007 2.752l3.493 1.91v2.711l-3.493-1.91v-2.711zM35 17.569c0-1.824-1.448-3.316-3.256-3.387-.611-2.634-1.938-5.037-3.856-6.973a14.56 14.56 0 0 0-6.932-3.92C20.903 1.467 19.404 0 17.569 0c-1.825 0-3.316 1.449-3.387 3.256-2.634.611-5.037 1.938-6.973 3.856a14.56 14.56 0 0 0-3.92 6.932C1.466 14.098 0 15.596 0 17.431c0 1.824 1.448 3.316 3.256 3.387a14.56 14.56 0 0 0 3.856 6.973c1.917 1.935 4.306 3.284 6.932 3.92.054 1.822 1.553 3.289 3.388 3.289 1.825 0 3.316-1.449 3.387-3.256a14.53 14.53 0 0 0 4.217-1.71c.243-.147.321-.462.175-.705s-.462-.322-.705-.175a13.48 13.48 0 0 1-3.803 1.563c-.393-1.437-1.71-2.497-3.27-2.497-1.549 0-2.857 1.044-3.261 2.465a13.54 13.54 0 0 1-6.329-3.616 13.53 13.53 0 0 1-3.558-6.367c1.437-.393 2.498-1.71 2.498-3.27 0-1.549-1.044-2.857-2.465-3.261a13.54 13.54 0 0 1 3.616-6.329A13.54 13.54 0 0 1 14.3 4.284c.393 1.437 1.71 2.497 3.27 2.497 1.549 0 2.857-1.044 3.261-2.465a13.54 13.54 0 0 1 6.329 3.616c1.756 1.772 2.979 3.964 3.558 6.366-1.437.393-2.497 1.71-2.497 3.27 0 1.548 1.044 2.857 2.465 3.261a13.66 13.66 0 0 1-4.561 7.182c-.219.18-.251.504-.071.723a.51.51 0 0 0 .723.07 14.68 14.68 0 0 0 4.935-7.849c1.823-.054 3.29-1.552 3.29-3.388zM17.431 29.247c1.226 0 2.236.938 2.352 2.134l.011.229c0 1.303-1.06 2.363-2.363 2.363s-2.363-1.06-2.363-2.363 1.06-2.363 2.363-2.363zM5.753 17.431c0 1.303-1.06 2.363-2.363 2.363s-2.363-1.06-2.363-2.363 1.06-2.363 2.363-2.363 2.363 1.06 2.363 2.363zM17.569 5.753c-1.226 0-2.236-.938-2.352-2.134l-.012-.229c0-1.303 1.06-2.363 2.363-2.363s2.363 1.06 2.363 2.363-1.06 2.363-2.363 2.363zM31.61 19.932c-1.303 0-2.363-1.06-2.363-2.363s1.06-2.363 2.363-2.363 2.363 1.06 2.363 2.363-1.06 2.363-2.363 2.363z"/></g><defs><clipPath id="A"><path fill="#fff" d="M0 0h35v35H0z"/></clipPath></defs></svg>