<svg width="66" height="66" viewBox="0 0 66 66" fill="none" xmlns="http://www.w3.org/2000/svg">
<path d="M49.0838 35.1403C48.6399 35.1403 48.28 35.5001 48.28 35.944V56.0469C48.28 57.8196 46.8378 59.2619 45.065 59.2619H20.0951C18.3224 59.2619 16.8801 57.8196 16.8801 56.0469V51.9985H32.4104C34.0355 51.9985 35.3575 50.6765 35.3575 49.0514V38.2265C35.3575 36.6014 34.0355 35.2794 32.4104 35.2794H29.9784C29.5345 35.2794 29.1746 35.6393 29.1746 36.0831C29.1746 36.527 29.5345 36.8869 29.9784 36.8869H32.4104C33.1491 36.8869 33.75 37.4878 33.75 38.2265V49.0513C33.75 49.79 33.1491 50.3909 32.4104 50.3909H16.6103C15.6968 50.3909 14.8334 50.7421 14.1793 51.3797L11.6986 53.7976C11.6854 53.8104 11.6732 53.8226 11.6403 53.8087C11.6075 53.7948 11.6075 53.7776 11.6075 53.7594V38.2266C11.6075 37.4879 12.2084 36.887 12.9471 36.887L32.4104 36.8869C32.8543 36.8869 33.2142 36.527 33.2142 36.0831C33.2142 35.6393 32.8543 35.2794 32.4104 35.2794L16.8801 35.2795V15.1448C16.8801 14.7009 16.5203 14.3411 16.0764 14.3411C15.6325 14.3411 15.2726 14.7009 15.2726 15.1448V35.2795H12.9471C11.322 35.2795 10 36.6015 10 38.2266V53.7594C10 54.429 10.3987 55.0297 11.0156 55.2898C11.2248 55.378 11.4444 55.421 11.6622 55.421C12.0865 55.421 12.5036 55.2578 12.8206 54.9488L15.2726 52.5588V56.0469C15.2726 58.706 17.436 60.8694 20.0951 60.8694H45.065C47.7242 60.8694 49.8875 58.706 49.8875 56.0469V35.944C49.8875 35.5001 49.5277 35.1403 49.0838 35.1403Z" fill="#6579F4"/>
<path d="M33.9729 10.8226C34.4168 10.8226 34.7767 10.4627 34.7767 10.0188C34.7767 9.57495 34.4168 9.21509 33.9729 9.21509H28.6146C28.1707 9.21509 27.8108 9.57495 27.8108 10.0188C27.8108 10.4627 28.1707 10.8226 28.6146 10.8226H33.9729Z" fill="#6579F4"/>
<path d="M54.3561 22.2198C54.8 22.2198 55.1598 21.86 55.1598 21.4161V18.5705C55.1598 16.9454 53.8378 15.6234 52.2127 15.6234H49.8872V10.8225C49.8872 8.16338 47.7238 6 45.0647 6H20.0948C17.4357 6 15.2723 8.16338 15.2723 10.8225V15.5834C15.2723 16.0273 15.6322 16.3872 16.076 16.3872C16.5199 16.3872 16.8798 16.0273 16.8798 15.5834V10.8225C16.8798 9.04976 18.322 7.6075 20.0948 7.6075H45.0647C46.8375 7.6075 48.2797 9.04976 48.2797 10.8225V15.6234H32.7494C31.1243 15.6234 29.8023 16.9454 29.8023 18.5705V29.3954C29.8023 31.0205 31.1243 32.3425 32.7494 32.3425H48.2797V47.4463C48.2797 47.8902 48.6396 48.25 49.0835 48.25C49.5273 48.25 49.8872 47.8902 49.8872 47.4463V32.9028L52.3393 35.2928C52.6563 35.6017 53.0732 35.7649 53.4977 35.7649C53.7153 35.7649 53.9351 35.7219 54.1442 35.6337C54.7612 35.3735 55.1598 34.7727 55.1598 34.1032V20.4794C55.1598 20.0356 54.8 19.6757 54.3561 19.6757C53.9122 19.6757 53.5523 20.0356 53.5523 20.4794V34.1032C53.5523 34.1215 53.5523 34.1388 53.5195 34.1525C53.4865 34.1665 53.4743 34.1543 53.4613 34.1416L50.9806 31.7236C50.3265 31.086 49.4632 30.7349 48.5497 30.7349H32.7494C32.0107 30.7349 31.4098 30.134 31.4098 29.3953V18.5704C31.4098 17.8317 32.0107 17.2308 32.7494 17.2308H52.2127C52.9514 17.2308 53.5523 17.8317 53.5523 18.5704V21.416C53.5523 21.86 53.9122 22.2198 54.3561 22.2198Z" fill="#6579F4"/>
<path d="M42.8367 19.7212C42.194 19.1574 41.3654 18.8386 40.4838 18.8386C38.5063 18.8386 36.8973 20.4475 36.8973 22.4252C36.8973 23.357 37.2308 24.1806 37.8602 24.805L41.7097 28.649C42.0204 28.9592 42.4285 29.1143 42.8366 29.1143C43.2447 29.1143 43.6528 28.9592 43.9634 28.6491L47.8081 24.8102C47.8232 24.7951 47.837 24.7805 47.8534 24.7621C48.1311 24.4482 48.7767 23.5979 48.7759 22.483C48.7745 20.4736 47.1658 18.8387 45.1899 18.8387C44.3082 18.8385 43.4795 19.1573 42.8367 19.7212ZM47.1686 22.484C47.169 23.0512 46.7893 23.5364 46.6603 23.6846L42.8368 27.5024L38.9943 23.6655C38.6695 23.3433 38.5049 22.926 38.5049 22.4251C38.5049 21.3338 39.3928 20.446 40.4839 20.446C41.1657 20.446 41.7906 20.7938 42.1556 21.3763C42.3027 21.6108 42.5599 21.7533 42.8367 21.7533C43.1135 21.7533 43.3708 21.6109 43.5177 21.3763C43.8827 20.7938 44.5078 20.446 45.19 20.446C46.2617 20.446 47.1678 21.3793 47.1686 22.484Z" fill="#6579F4"/>
<path d="M25.0328 38.4946C24.151 38.4946 23.3222 38.8135 22.6796 39.3773C22.0369 38.8135 21.2083 38.4946 20.3267 38.4946C18.3492 38.4946 16.7403 40.1035 16.7402 42.0812C16.7402 43.0131 17.0738 43.8367 17.7032 44.461L21.5527 48.305C21.8634 48.6153 22.2715 48.7703 22.6797 48.7703C23.0878 48.7703 23.4958 48.6153 23.8065 48.305L27.6511 44.4661C27.9483 44.1504 28.5815 43.3105 28.619 42.1391C28.6175 40.1295 27.0088 38.4946 25.0328 38.4946ZM26.5025 43.3411L22.6796 47.1585L18.8371 43.3216C18.5123 42.9995 18.3477 42.5822 18.3477 42.0813C18.3477 40.99 19.2355 40.1021 20.3267 40.1021C21.0085 40.1021 21.6334 40.4499 21.9984 41.0324C22.1454 41.2669 22.4026 41.4095 22.6794 41.4095C22.9563 41.4095 23.2136 41.267 23.3605 41.0324C23.7255 40.4499 24.3506 40.1021 25.0327 40.1021C26.1044 40.1021 27.0105 41.0353 27.0111 42.1401C27.0117 42.7033 26.6374 43.1855 26.5025 43.3411Z" fill="#6579F4"/>
<path d="M36.6521 10.8226C37.096 10.8226 37.4558 10.4627 37.4558 10.0188C37.4558 9.57494 37.096 9.21509 36.6521 9.21509C36.2082 9.21509 35.8483 9.57494 35.8483 10.0188C35.8483 10.4627 36.2082 10.8226 36.6521 10.8226Z" fill="#6579F4"/>
</svg>
