<svg width="66" height="66" viewBox="0 0 66 66" fill="none" xmlns="http://www.w3.org/2000/svg">
<path d="M45.8763 8C36.9164 8 32.5 16.9091 32.5 16.9091C32.5 16.9091 28.0836 8 19.1237 8C11.8421 8 6.07594 14.1445 6.00141 21.4763C5.8496 36.6955 17.9713 47.5186 31.2579 56.6142C31.6242 56.8656 32.057 57 32.5 57C32.943 57 33.3758 56.8656 33.7421 56.6142C47.0273 47.5186 59.1491 36.6955 58.9986 21.4763C58.9241 14.1445 53.1579 8 45.8763 8V8Z" stroke="#6579F4" stroke-width="2" stroke-linecap="round" stroke-linejoin="round"/>
<path d="M4 32.8H19.6154L26.3077 19L33 42L39.6923 28.2L44.1538 37.4H62" stroke="#6579F4" stroke-width="2" stroke-linecap="round" stroke-linejoin="round"/>
</svg>
