<svg width="66" height="66" viewBox="0 0 66 66" fill="none" xmlns="http://www.w3.org/2000/svg">
<path d="M7.49682 33.7131H58.5032C59.8823 33.7131 61 35.0922 61 36.21V51.9042C61 53.2833 59.8823 54.401 58.5032 54.401H7.49682C6.11774 54.401 5 53.022 5 51.9042V36.21C5 34.8309 6.11768 33.7131 7.49682 33.7131V33.7131Z" stroke="#6579F4" stroke-width="2"/>
<path d="M22.2995 9.4585H43.7008C50.2995 9.4585 55.6498 14.9872 55.6498 21.5861V33.7136H10.1721V21.5861C10.1721 14.9873 15.5223 9.4585 22.2997 9.4585H22.2995Z" stroke="#6579F4" stroke-width="2" stroke-linecap="round" stroke-linejoin="round"/>
<path d="M25.5093 5H40.4902C41.0255 5 41.7388 5.71336 41.7388 6.24859V9.45878H24.2611V6.24859C24.2611 5.71336 24.7963 5 25.5097 5H25.5093Z" stroke="#6579F4" stroke-width="2"/>
<path d="M18.0199 42.2737C18.0199 44.5394 16.1835 46.3758 13.9183 46.3758C11.6526 46.3758 9.81622 44.5394 9.81622 42.2737C9.81622 40.0085 11.6526 38.1721 13.9183 38.1721C16.1835 38.1721 18.0199 40.0085 18.0199 42.2737Z" stroke="#6579F4" stroke-width="2"/>
<path d="M56.1848 42.2737C56.1848 44.5394 54.3481 46.3758 52.0827 46.3758C49.8171 46.3758 47.9807 44.5394 47.9807 42.2737C47.9807 40.0085 49.8171 38.1721 52.0827 38.1721C54.3479 38.1721 56.1848 40.0085 56.1848 42.2737Z" stroke="#6579F4" stroke-width="2"/>
<path d="M21.942 45.1272H44.0567" stroke="#6579F4" stroke-width="2" stroke-linecap="round" stroke-linejoin="round"/>
<path d="M21.942 49.9424H44.0567" stroke="#6579F4" stroke-width="2" stroke-linecap="round" stroke-linejoin="round"/>
<path d="M10.7066 54.4009H20.1588V57.7896C20.1588 59.573 18.5536 61.1783 16.7701 61.1783H14.0948C12.1328 61.1783 10.7061 59.5731 10.7061 57.7896V54.4009H10.7066Z" stroke="#6579F4" stroke-width="2"/>
<path d="M46.0195 54.4009H55.2936V57.7896C55.2936 59.573 53.8669 61.1783 52.0834 61.1783H49.4081C47.4461 61.1783 46.0193 59.5731 46.0193 57.7896L46.0195 54.4009Z" stroke="#6579F4" stroke-width="2"/>
</svg>
