<svg width="66" height="66" viewBox="0 0 66 66" fill="none" xmlns="http://www.w3.org/2000/svg">
<path d="M50.2 56.2L61.4808 44.9192C61.8128 44.5876 61.9996 44.1377 62 43.6684V28.175C62 27.0014 61.5338 25.8759 60.7039 25.0461C59.8741 24.2162 58.7486 23.75 57.575 23.75V23.75C56.4014 23.75 55.2759 24.2162 54.4461 25.0461C53.6162 25.8759 53.15 27.0014 53.15 28.175V41.45" stroke="#6579F4" stroke-width="2" stroke-linecap="round" stroke-linejoin="round"/>
<path d="M50.2 44.4L52.7311 41.8689C52.8641 41.7361 52.9695 41.5784 53.0414 41.4047C53.1133 41.2311 53.1502 41.045 53.15 40.857C53.1496 40.5918 53.0754 40.3318 52.9358 40.1063C52.7962 39.8807 52.5966 39.6984 52.3594 39.5797L51.0525 38.9278C49.9454 38.3742 48.6921 38.1828 47.4702 38.3808C46.2483 38.5788 45.1196 39.1562 44.244 40.0311L41.6037 42.6713C40.4972 43.7775 39.8753 45.2779 39.875 46.8426V56.2M14.8 56.2L3.5192 44.9192C3.18717 44.5876 3.00041 44.1377 3 43.6684V28.175C3 27.0014 3.4662 25.8759 4.29605 25.0461C5.1259 24.2162 6.25142 23.75 7.425 23.75V23.75C8.59858 23.75 9.7241 24.2162 10.5539 25.0461C11.3838 25.8759 11.85 27.0014 11.85 28.175V41.45" stroke="#6579F4" stroke-width="2" stroke-linecap="round" stroke-linejoin="round"/>
<path d="M14.8 44.4L12.2689 41.8689C12.1361 41.736 12.0307 41.5783 11.9588 41.4046C11.8869 41.231 11.85 41.045 11.85 40.857V40.857C11.85 40.3172 12.1568 39.8246 12.6406 39.5797L13.9474 38.9278C15.0546 38.3742 16.3079 38.1828 17.5298 38.3808C18.7517 38.5788 19.8804 39.1562 20.756 40.0311L23.3963 42.6713C24.5028 43.7775 25.1247 45.2779 25.125 46.8426V56.2M37.4176 32.6H27.5823V25.7176H20.7V15.8824H27.5823V9H37.4176V15.8824H44.3V25.7176H37.4176V32.6V32.6Z" stroke="#6579F4" stroke-width="2" stroke-linecap="round" stroke-linejoin="round"/>
</svg>
