<svg width="142" height="49" viewBox="0 0 142 49" fill="none" xmlns="http://www.w3.org/2000/svg">
<path d="M10.67 30.7989L10.66 32.3789H1.83V18.0489H10.66V19.6289H3.77V24.3889H9.35V25.9089H3.77V30.7989H10.67ZM17.343 24.9889C17.903 24.9889 18.3963 24.9222 18.823 24.7889C19.2563 24.6489 19.6163 24.4556 19.903 24.2089C20.1963 23.9556 20.4163 23.6556 20.563 23.3089C20.7096 22.9622 20.783 22.5789 20.783 22.1589C20.783 21.3056 20.503 20.6622 19.943 20.2289C19.383 19.7956 18.543 19.5789 17.423 19.5789H15.303V24.9889H17.343ZM23.963 32.3789H22.243C21.8896 32.3789 21.6296 32.2422 21.463 31.9689L17.743 26.8489C17.6296 26.6889 17.5063 26.5756 17.373 26.5089C17.2463 26.4356 17.0463 26.3989 16.773 26.3989H15.303V32.3789H13.373V18.0489H17.423C18.3296 18.0489 19.113 18.1422 19.773 18.3289C20.433 18.5089 20.9763 18.7722 21.403 19.1189C21.8363 19.4656 22.1563 19.8856 22.363 20.3789C22.5696 20.8656 22.673 21.4122 22.673 22.0189C22.673 22.5256 22.593 22.9989 22.433 23.4389C22.273 23.8789 22.0396 24.2756 21.733 24.6289C21.433 24.9756 21.063 25.2722 20.623 25.5189C20.1896 25.7656 19.6963 25.9522 19.143 26.0789C19.3896 26.2189 19.603 26.4222 19.783 26.6889L23.963 32.3789ZM35.8353 29.4189C35.942 29.4189 36.0353 29.4622 36.1153 29.5489L36.8853 30.3789C36.2986 31.0589 35.5853 31.5889 34.7453 31.9689C33.912 32.3489 32.902 32.5389 31.7153 32.5389C30.6886 32.5389 29.7553 32.3622 28.9153 32.0089C28.0753 31.6489 27.3586 31.1489 26.7653 30.5089C26.172 29.8622 25.712 29.0889 25.3853 28.1889C25.0586 27.2889 24.8953 26.2989 24.8953 25.2189C24.8953 24.1389 25.0653 23.1489 25.4053 22.2489C25.7453 21.3489 26.222 20.5756 26.8353 19.9289C27.4553 19.2822 28.1953 18.7822 29.0553 18.4289C29.9153 18.0689 30.8653 17.8889 31.9053 17.8889C32.9253 17.8889 33.8253 18.0522 34.6053 18.3789C35.3853 18.7056 36.072 19.1489 36.6653 19.7089L36.0253 20.5989C35.9853 20.6656 35.932 20.7222 35.8653 20.7689C35.8053 20.8089 35.722 20.8289 35.6153 20.8289C35.4953 20.8289 35.3486 20.7656 35.1753 20.6389C35.002 20.5056 34.7753 20.3589 34.4953 20.1989C34.2153 20.0389 33.8653 19.8956 33.4453 19.7689C33.0253 19.6356 32.5086 19.5689 31.8953 19.5689C31.1553 19.5689 30.4786 19.6989 29.8653 19.9589C29.252 20.2122 28.722 20.5822 28.2753 21.0689C27.8353 21.5556 27.492 22.1489 27.2453 22.8489C26.9986 23.5489 26.8753 24.3389 26.8753 25.2189C26.8753 26.1122 27.002 26.9089 27.2553 27.6089C27.5153 28.3089 27.8653 28.9022 28.3053 29.3889C28.752 29.8689 29.2753 30.2356 29.8753 30.4889C30.482 30.7422 31.1353 30.8689 31.8353 30.8689C32.262 30.8689 32.6453 30.8456 32.9853 30.7989C33.332 30.7456 33.6486 30.6656 33.9353 30.5589C34.2286 30.4522 34.4986 30.3189 34.7453 30.1589C34.9986 29.9922 35.2486 29.7956 35.4953 29.5689C35.6086 29.4689 35.722 29.4189 35.8353 29.4189ZM47.4847 31.0189V32.3789H39.8047V31.0189H42.8747V21.2489C42.8747 20.9556 42.8847 20.6589 42.9047 20.3589L40.3547 22.5489C40.268 22.6222 40.1814 22.6689 40.0947 22.6889C40.008 22.7022 39.928 22.7022 39.8547 22.6889C39.7814 22.6756 39.7114 22.6489 39.6447 22.6089C39.5847 22.5689 39.538 22.5256 39.5047 22.4789L38.9447 21.7089L43.2147 18.0189H44.6647V31.0189H47.4847ZM59.0863 31.0189V32.3789H51.4062V31.0189H54.4763V21.2489C54.4763 20.9556 54.4863 20.6589 54.5063 20.3589L51.9563 22.5489C51.8696 22.6222 51.7829 22.6689 51.6963 22.6889C51.6096 22.7022 51.5296 22.7022 51.4563 22.6889C51.3829 22.6756 51.3129 22.6489 51.2463 22.6089C51.1863 22.5689 51.1396 22.5256 51.1063 22.4789L50.5463 21.7089L54.8163 18.0189H56.2663V31.0189H59.0863ZM64.1278 23.4589C64.8745 23.2989 65.5611 23.2189 66.1878 23.2189C66.9345 23.2189 67.5945 23.3289 68.1678 23.5489C68.7411 23.7689 69.2178 24.0722 69.5978 24.4589C69.9845 24.8456 70.2745 25.3022 70.4678 25.8289C70.6678 26.3556 70.7678 26.9289 70.7678 27.5489C70.7678 28.3089 70.6345 28.9956 70.3678 29.6089C70.1078 30.2222 69.7445 30.7489 69.2778 31.1889C68.8178 31.6222 68.2745 31.9556 67.6478 32.1889C67.0211 32.4222 66.3445 32.5389 65.6178 32.5389C65.1978 32.5389 64.7945 32.4956 64.4078 32.4089C64.0211 32.3289 63.6578 32.2189 63.3178 32.0789C62.9845 31.9389 62.6745 31.7789 62.3878 31.5989C62.1011 31.4189 61.8478 31.2289 61.6278 31.0289L62.1778 30.2689C62.2978 30.0956 62.4545 30.0089 62.6478 30.0089C62.7811 30.0089 62.9311 30.0622 63.0978 30.1689C63.2645 30.2689 63.4678 30.3822 63.7078 30.5089C63.9478 30.6356 64.2278 30.7522 64.5478 30.8589C64.8745 30.9589 65.2611 31.0089 65.7078 31.0089C66.2078 31.0089 66.6578 30.9289 67.0578 30.7689C67.4578 30.6089 67.8011 30.3822 68.0878 30.0889C68.3745 29.7889 68.5945 29.4322 68.7478 29.0189C68.9011 28.6056 68.9778 28.1422 68.9778 27.6289C68.9778 27.1822 68.9111 26.7789 68.7778 26.4189C68.6511 26.0589 68.4545 25.7522 68.1878 25.4989C67.9278 25.2456 67.6011 25.0489 67.2078 24.9089C66.8145 24.7689 66.3545 24.6989 65.8278 24.6989C65.4678 24.6989 65.0911 24.7289 64.6978 24.7889C64.3111 24.8489 63.9145 24.9456 63.5078 25.0789L62.3878 24.7489L63.5378 18.0489H70.3278V18.8289C70.3278 19.0822 70.2478 19.2922 70.0878 19.4589C69.9345 19.6189 69.6678 19.6989 69.2878 19.6989H64.7878L64.1278 23.4589ZM75.7294 23.4589C76.476 23.2989 77.1627 23.2189 77.7894 23.2189C78.536 23.2189 79.196 23.3289 79.7694 23.5489C80.3427 23.7689 80.8194 24.0722 81.1994 24.4589C81.586 24.8456 81.876 25.3022 82.0694 25.8289C82.2694 26.3556 82.3694 26.9289 82.3694 27.5489C82.3694 28.3089 82.236 28.9956 81.9694 29.6089C81.7094 30.2222 81.346 30.7489 80.8794 31.1889C80.4194 31.6222 79.876 31.9556 79.2494 32.1889C78.6227 32.4222 77.946 32.5389 77.2194 32.5389C76.7994 32.5389 76.396 32.4956 76.0094 32.4089C75.6227 32.3289 75.2594 32.2189 74.9194 32.0789C74.586 31.9389 74.276 31.7789 73.9894 31.5989C73.7027 31.4189 73.4494 31.2289 73.2294 31.0289L73.7794 30.2689C73.8994 30.0956 74.056 30.0089 74.2494 30.0089C74.3827 30.0089 74.5327 30.0622 74.6994 30.1689C74.866 30.2689 75.0694 30.3822 75.3094 30.5089C75.5494 30.6356 75.8294 30.7522 76.1494 30.8589C76.476 30.9589 76.8627 31.0089 77.3094 31.0089C77.8094 31.0089 78.2594 30.9289 78.6594 30.7689C79.0594 30.6089 79.4027 30.3822 79.6894 30.0889C79.976 29.7889 80.196 29.4322 80.3494 29.0189C80.5027 28.6056 80.5794 28.1422 80.5794 27.6289C80.5794 27.1822 80.5127 26.7789 80.3794 26.4189C80.2527 26.0589 80.056 25.7522 79.7894 25.4989C79.5294 25.2456 79.2027 25.0489 78.8094 24.9089C78.416 24.7689 77.956 24.6989 77.4294 24.6989C77.0694 24.6989 76.6927 24.7289 76.2994 24.7889C75.9127 24.8489 75.516 24.9456 75.1094 25.0789L73.9894 24.7489L75.1394 18.0489H81.9294V18.8289C81.9294 19.0822 81.8494 19.2922 81.6894 19.4589C81.536 19.6189 81.2694 19.6989 80.8894 19.6989H76.3894L75.7294 23.4589Z" fill="black"/>
<g clip-path="url(#clip0_1205_11149)">
<path d="M117.998 0.378906L117.676 1.47276V33.2111L117.998 33.5324L132.73 24.824L117.998 0.378906Z" fill="#343434"/>
<path d="M117.998 0.378906L103.266 24.824L117.998 33.5324V18.1275V0.378906Z" fill="#8C8C8C"/>
<path d="M117.998 36.3217L117.816 36.543V47.8487L117.998 48.3785L132.739 27.6178L117.998 36.3217Z" fill="#3C3C3B"/>
<path d="M117.998 48.3785V36.3217L103.266 27.6178L117.998 48.3785Z" fill="#8C8C8C"/>
<path d="M117.996 33.5324L132.728 24.824L117.996 18.1274V33.5324Z" fill="#141414"/>
<path d="M103.266 24.824L117.998 33.5324V18.1274L103.266 24.824Z" fill="#393939"/>
</g>
<defs>
<clipPath id="clip0_1205_11149">
<rect width="48" height="48" fill="white" transform="translate(94 0.378906)"/>
</clipPath>
</defs>
</svg>
