<svg width="134" height="49" viewBox="0 0 134 49" fill="none" xmlns="http://www.w3.org/2000/svg">
<path d="M10.67 30.7989L10.66 32.3789H1.83V18.0489H10.66V19.6289H3.77V24.3889H9.35V25.9089H3.77V30.7989H10.67ZM15.313 32.3789H13.373V18.0489H15.313V32.3789ZM23.2084 25.4789C23.7618 25.4789 24.2484 25.4056 24.6684 25.2589C25.0951 25.1122 25.4518 24.9089 25.7384 24.6489C26.0318 24.3822 26.2518 24.0656 26.3984 23.6989C26.5451 23.3322 26.6184 22.9289 26.6184 22.4889C26.6184 21.5756 26.3351 20.8622 25.7684 20.3489C25.2084 19.8356 24.3551 19.5789 23.2084 19.5789H20.9084V25.4789H23.2084ZM23.2084 18.0489C24.1151 18.0489 24.9018 18.1556 25.5684 18.3689C26.2418 18.5756 26.7984 18.8722 27.2384 19.2589C27.6784 19.6456 28.0051 20.1122 28.2184 20.6589C28.4384 21.2056 28.5484 21.8156 28.5484 22.4889C28.5484 23.1556 28.4318 23.7656 28.1984 24.3189C27.9651 24.8722 27.6218 25.3489 27.1684 25.7489C26.7218 26.1489 26.1651 26.4622 25.4984 26.6889C24.8384 26.9089 24.0751 27.0189 23.2084 27.0189H20.9084V32.3789H18.9784V18.0489H23.2084ZM39.0302 30.6889C39.2235 30.6889 39.3768 30.7456 39.4902 30.8589C39.6035 30.9722 39.6602 31.1189 39.6602 31.2989V32.3789H30.1002V31.7689C30.1002 31.6422 30.1268 31.5122 30.1802 31.3789C30.2335 31.2456 30.3168 31.1222 30.4302 31.0089L35.0202 26.3989C35.4002 26.0122 35.7468 25.6422 36.0602 25.2889C36.3735 24.9289 36.6402 24.5689 36.8602 24.2089C37.0802 23.8489 37.2502 23.4856 37.3702 23.1189C37.4902 22.7456 37.5502 22.3489 37.5502 21.9289C37.5502 21.5089 37.4835 21.1422 37.3502 20.8289C37.2168 20.5089 37.0335 20.2456 36.8002 20.0389C36.5735 19.8322 36.3035 19.6789 35.9902 19.5789C35.6768 19.4722 35.3402 19.4189 34.9802 19.4189C34.6135 19.4189 34.2768 19.4722 33.9702 19.5789C33.6635 19.6856 33.3902 19.8356 33.1502 20.0289C32.9168 20.2156 32.7202 20.4389 32.5602 20.6989C32.4002 20.9589 32.2868 21.2456 32.2202 21.5589C32.1402 21.7922 32.0302 21.9489 31.8902 22.0289C31.7568 22.1022 31.5668 22.1222 31.3202 22.0889L30.3902 21.9289C30.4835 21.2756 30.6635 20.6989 30.9302 20.1989C31.2035 19.6922 31.5435 19.2689 31.9502 18.9289C32.3635 18.5889 32.8335 18.3322 33.3602 18.1589C33.8868 17.9789 34.4568 17.8889 35.0702 17.8889C35.6768 17.8889 36.2435 17.9789 36.7702 18.1589C37.2968 18.3389 37.7535 18.6022 38.1402 18.9489C38.5268 19.2889 38.8302 19.7056 39.0502 20.1989C39.2702 20.6922 39.3802 21.2522 39.3802 21.8789C39.3802 22.4122 39.3002 22.9089 39.1402 23.3689C38.9802 23.8222 38.7635 24.2556 38.4902 24.6689C38.2168 25.0822 37.9002 25.4856 37.5402 25.8789C37.1868 26.2722 36.8102 26.6689 36.4102 27.0689L32.6302 30.9289C32.8968 30.8556 33.1668 30.7989 33.4402 30.7589C33.7135 30.7122 33.9768 30.6889 34.2302 30.6889H39.0302ZM42.0617 21.9289C42.1551 21.2756 42.3351 20.6989 42.6017 20.1989C42.8684 19.6922 43.2051 19.2689 43.6117 18.9289C44.0251 18.5889 44.4951 18.3322 45.0217 18.1589C45.5551 17.9789 46.1284 17.8889 46.7417 17.8889C47.3484 17.8889 47.9084 17.9756 48.4217 18.1489C48.9351 18.3222 49.3751 18.5689 49.7417 18.8889C50.1151 19.2089 50.4051 19.5956 50.6117 20.0489C50.8184 20.5022 50.9217 21.0056 50.9217 21.5589C50.9217 22.0122 50.8617 22.4189 50.7417 22.7789C50.6284 23.1322 50.4617 23.4422 50.2417 23.7089C50.0284 23.9756 49.7684 24.2022 49.4617 24.3889C49.1551 24.5756 48.8117 24.7289 48.4317 24.8489C49.3651 25.0889 50.0651 25.5022 50.5317 26.0889C51.0051 26.6689 51.2417 27.3956 51.2417 28.2689C51.2417 28.9289 51.1151 29.5222 50.8617 30.0489C50.6151 30.5756 50.2751 31.0256 49.8417 31.3989C49.4084 31.7656 48.9017 32.0489 48.3217 32.2489C47.7484 32.4422 47.1317 32.5389 46.4717 32.5389C45.7117 32.5389 45.0617 32.4456 44.5217 32.2589C43.9817 32.0656 43.5251 31.8022 43.1517 31.4689C42.7784 31.1356 42.4717 30.7422 42.2317 30.2889C41.9917 29.8289 41.7884 29.3322 41.6217 28.7989L42.3917 28.4789C42.5917 28.3922 42.7851 28.3689 42.9717 28.4089C43.1651 28.4489 43.3051 28.5589 43.3917 28.7389C43.4784 28.9256 43.5851 29.1489 43.7117 29.4089C43.8451 29.6689 44.0251 29.9189 44.2517 30.1589C44.4784 30.3989 44.7651 30.6022 45.1117 30.7689C45.4651 30.9356 45.9117 31.0189 46.4517 31.0189C46.9517 31.0189 47.3884 30.9389 47.7617 30.7789C48.1417 30.6122 48.4551 30.3989 48.7017 30.1389C48.9551 29.8789 49.1451 29.5889 49.2717 29.2689C49.3984 28.9489 49.4617 28.6322 49.4617 28.3189C49.4617 27.9322 49.4117 27.5789 49.3117 27.2589C49.2117 26.9389 49.0251 26.6622 48.7517 26.4289C48.4784 26.1956 48.1017 26.0122 47.6217 25.8789C47.1484 25.7456 46.5384 25.6789 45.7917 25.6789V24.3889C46.4051 24.3822 46.9251 24.3156 47.3517 24.1889C47.7851 24.0622 48.1351 23.8889 48.4017 23.6689C48.6751 23.4489 48.8717 23.1856 48.9917 22.8789C49.1184 22.5722 49.1817 22.2322 49.1817 21.8589C49.1817 21.4456 49.1151 21.0856 48.9817 20.7789C48.8551 20.4722 48.6784 20.2189 48.4517 20.0189C48.2251 19.8189 47.9551 19.6689 47.6417 19.5689C47.3351 19.4689 47.0017 19.4189 46.6417 19.4189C46.2817 19.4189 45.9451 19.4722 45.6317 19.5789C45.3251 19.6856 45.0517 19.8356 44.8117 20.0289C44.5784 20.2156 44.3817 20.4389 44.2217 20.6989C44.0617 20.9589 43.9484 21.2456 43.8817 21.5589C43.7951 21.7922 43.6851 21.9489 43.5517 22.0289C43.4251 22.1022 43.2384 22.1222 42.9917 22.0889L42.0617 21.9289ZM63.3633 25.2189C63.3633 26.4722 63.2266 27.5589 62.9533 28.4789C62.6866 29.3922 62.3199 30.1489 61.8533 30.7489C61.3866 31.3489 60.8333 31.7956 60.1933 32.0889C59.5599 32.3822 58.8799 32.5289 58.1533 32.5289C57.4199 32.5289 56.7366 32.3822 56.1033 32.0889C55.4766 31.7956 54.9299 31.3489 54.4633 30.7489C53.9966 30.1489 53.6299 29.3922 53.3633 28.4789C53.0966 27.5589 52.9633 26.4722 52.9633 25.2189C52.9633 23.9656 53.0966 22.8789 53.3633 21.9589C53.6299 21.0389 53.9966 20.2789 54.4633 19.6789C54.9299 19.0722 55.4766 18.6222 56.1033 18.3289C56.7366 18.0356 57.4199 17.8889 58.1533 17.8889C58.8799 17.8889 59.5599 18.0356 60.1933 18.3289C60.8333 18.6222 61.3866 19.0722 61.8533 19.6789C62.3199 20.2789 62.6866 21.0389 62.9533 21.9589C63.2266 22.8789 63.3633 23.9656 63.3633 25.2189ZM61.5133 25.2189C61.5133 24.1256 61.4199 23.2089 61.2333 22.4689C61.0533 21.7222 60.8066 21.1222 60.4933 20.6689C60.1866 20.2156 59.8299 19.8922 59.4233 19.6989C59.0166 19.4989 58.5933 19.3989 58.1533 19.3989C57.7133 19.3989 57.2899 19.4989 56.8833 19.6989C56.4766 19.8922 56.1199 20.2156 55.8133 20.6689C55.5066 21.1222 55.2599 21.7222 55.0733 22.4689C54.8933 23.2089 54.8033 24.1256 54.8033 25.2189C54.8033 26.3122 54.8933 27.2289 55.0733 27.9689C55.2599 28.7089 55.5066 29.3056 55.8133 29.7589C56.1199 30.2122 56.4766 30.5389 56.8833 30.7389C57.2899 30.9322 57.7133 31.0289 58.1533 31.0289C58.5933 31.0289 59.0166 30.9322 59.4233 30.7389C59.8299 30.5389 60.1866 30.2122 60.4933 29.7589C60.8066 29.3056 61.0533 28.7089 61.2333 27.9689C61.4199 27.2289 61.5133 26.3122 61.5133 25.2189ZM66.7948 22.2589C66.7948 22.7122 66.8582 23.1189 66.9848 23.4789C67.1182 23.8322 67.3048 24.1322 67.5448 24.3789C67.7915 24.6256 68.0882 24.8122 68.4348 24.9389C68.7882 25.0656 69.1815 25.1289 69.6148 25.1289C70.0948 25.1289 70.5182 25.0522 70.8848 24.8989C71.2582 24.7389 71.5715 24.5289 71.8248 24.2689C72.0782 24.0089 72.2715 23.7089 72.4048 23.3689C72.5382 23.0289 72.6048 22.6756 72.6048 22.3089C72.6048 21.8622 72.5315 21.4589 72.3848 21.0989C72.2448 20.7322 72.0482 20.4222 71.7948 20.1689C71.5415 19.9156 71.2382 19.7222 70.8848 19.5889C70.5382 19.4489 70.1548 19.3789 69.7348 19.3789C69.2948 19.3789 68.8948 19.4522 68.5348 19.5989C68.1748 19.7389 67.8648 19.9356 67.6048 20.1889C67.3448 20.4422 67.1448 20.7456 67.0048 21.0989C66.8648 21.4522 66.7948 21.8389 66.7948 22.2589ZM70.9548 26.6689C71.1015 26.4756 71.2382 26.2922 71.3648 26.1189C71.4915 25.9456 71.6115 25.7722 71.7248 25.5989C71.3582 25.8922 70.9448 26.1156 70.4848 26.2689C70.0248 26.4222 69.5382 26.4989 69.0248 26.4989C68.4848 26.4989 67.9715 26.4089 67.4848 26.2289C67.0048 26.0489 66.5815 25.7856 66.2148 25.4389C65.8482 25.0856 65.5548 24.6556 65.3348 24.1489C65.1215 23.6356 65.0148 23.0489 65.0148 22.3889C65.0148 21.7622 65.1315 21.1756 65.3648 20.6289C65.5982 20.0822 65.9248 19.6056 66.3448 19.1989C66.7648 18.7922 67.2648 18.4722 67.8448 18.2389C68.4248 18.0056 69.0615 17.8889 69.7548 17.8889C70.4415 17.8889 71.0648 18.0022 71.6248 18.2289C72.1848 18.4556 72.6648 18.7722 73.0648 19.1789C73.4648 19.5856 73.7715 20.0722 73.9848 20.6389C74.2048 21.2056 74.3148 21.8322 74.3148 22.5189C74.3148 22.9322 74.2748 23.3256 74.1948 23.6989C74.1215 24.0656 74.0115 24.4289 73.8648 24.7889C73.7248 25.1422 73.5515 25.4956 73.3448 25.8489C73.1382 26.1956 72.9048 26.5522 72.6448 26.9189L69.1548 31.9589C69.0682 32.0856 68.9448 32.1889 68.7848 32.2689C68.6248 32.3422 68.4415 32.3789 68.2348 32.3789H66.5948L70.9548 26.6689Z" fill="black"/>
<g clip-path="url(#clip0_1205_11196)">
<path d="M109.998 0.378906L109.676 1.47276V33.2111L109.998 33.5324L124.73 24.824L109.998 0.378906Z" fill="#343434"/>
<path d="M109.998 0.378906L95.2656 24.824L109.998 33.5324V18.1275V0.378906Z" fill="#8C8C8C"/>
<path d="M109.998 36.3217L109.816 36.543V47.8487L109.998 48.3785L124.739 27.6178L109.998 36.3217Z" fill="#3C3C3B"/>
<path d="M109.998 48.3785V36.3217L95.2656 27.6178L109.998 48.3785Z" fill="#8C8C8C"/>
<path d="M109.996 33.5324L124.728 24.824L109.996 18.1274V33.5324Z" fill="#141414"/>
<path d="M95.2656 24.824L109.998 33.5324V18.1274L95.2656 24.824Z" fill="#393939"/>
</g>
<defs>
<clipPath id="clip0_1205_11196">
<rect width="48" height="48" fill="white" transform="translate(86 0.378906)"/>
</clipPath>
</defs>
</svg>
