<svg width="58" height="58" viewBox="0 0 58 58" fill="none" xmlns="http://www.w3.org/2000/svg">
<path d="M28.9965 15.4063C28.6292 15.4063 28.3319 15.7035 28.3367 16.0709C28.3367 16.4382 28.634 16.7355 29.0013 16.7355C29.3687 16.7355 29.6659 16.4382 29.6659 16.0709C29.6611 15.7035 29.3662 15.4063 28.9965 15.4063" stroke="#231D36" stroke-width="1.7" stroke-linecap="round" stroke-linejoin="round"/>
<path d="M16.7311 28.9975C16.7311 28.6301 16.4338 28.3329 16.0689 28.3377C15.7016 28.3377 15.4043 28.635 15.4043 29.0023C15.4043 29.3696 15.7016 29.6669 16.0689 29.6669C16.4363 29.6669 16.7311 29.3672 16.7311 28.9975" stroke="#231D36" stroke-width="1.7" stroke-linecap="round" stroke-linejoin="round"/>
<path d="M38.6124 19.3866C38.3538 19.128 37.9333 19.128 37.6772 19.389C37.4186 19.6476 37.4186 20.0681 37.6772 20.3267C37.9357 20.5852 38.3562 20.5852 38.6148 20.3267C38.8734 20.0657 38.8734 19.6476 38.6124 19.3866" stroke="#231D36" stroke-width="1.7" stroke-linecap="round" stroke-linejoin="round"/>
<path d="M20.3233 37.6734C20.0648 37.4149 19.6443 37.4149 19.3881 37.6759C19.1295 37.9344 19.1295 38.3549 19.3881 38.6135C19.6467 38.8721 20.0672 38.8721 20.3258 38.6135C20.5843 38.3549 20.5843 37.9344 20.3233 37.6734" stroke="#231D36" stroke-width="1.7" stroke-linecap="round" stroke-linejoin="round"/>
<path d="M20.327 20.3241C20.5855 20.0655 20.5855 19.645 20.3245 19.3888C20.066 19.1302 19.6455 19.1302 19.3869 19.3888C19.1283 19.6474 19.1283 20.0679 19.3869 20.3265C19.6455 20.5851 20.066 20.5851 20.327 20.3241" stroke="#231D36" stroke-width="1.7" stroke-linecap="round" stroke-linejoin="round"/>
<path fill-rule="evenodd" clip-rule="evenodd" d="M28.9989 50.7499C16.7827 50.7499 6.91782 40.6772 7.25857 28.3836C7.57274 17.035 17.034 7.57371 28.3827 7.25955C40.6762 6.9188 50.7489 16.7836 50.7489 28.9999V31.4165C50.7489 34.087 48.586 36.2499 45.9156 36.2499H40.93C37.7182 36.2499 35.4007 39.3239 36.2827 42.41L36.9038 44.5874C37.7883 47.6759 35.4683 50.7499 32.259 50.7499H28.9989Z" stroke="#231D36" stroke-width="1.7" stroke-linecap="round" stroke-linejoin="round"/>
</svg>
