<svg width="58" height="59" viewBox="0 0 58 59" fill="none" xmlns="http://www.w3.org/2000/svg">
<path d="M15.6784 38.0244C17.5682 39.9119 17.5682 42.9738 15.6784 44.8612C13.7886 46.7486 10.7267 46.7486 8.83925 44.8612C6.94942 42.9738 6.94942 39.9119 8.83925 38.0244C10.7267 36.137 13.7886 36.137 15.6784 38.0244" stroke="#231D36" stroke-width="1.7" stroke-linecap="round" stroke-linejoin="round"/>
<path d="M32.4206 9.03666C34.3104 10.9241 34.3104 13.986 32.4206 15.8734C30.5308 17.7608 27.4689 17.7608 25.5814 15.8734C23.6916 13.986 23.6916 10.9241 25.5814 9.03666C27.4689 7.14924 30.5332 7.14924 32.4206 9.03666" stroke="#231D36" stroke-width="1.7" stroke-linecap="round" stroke-linejoin="round"/>
<path d="M49.1628 38.0223C51.0526 39.9097 51.0526 42.9716 49.1628 44.859C47.273 46.7464 44.211 46.7464 42.3236 44.859C40.4338 42.9716 40.4338 39.9097 42.3236 38.0223C44.211 36.1348 47.273 36.1348 49.1628 38.0223" stroke="#231D36" stroke-width="1.7" stroke-linecap="round" stroke-linejoin="round"/>
<path fill-rule="evenodd" clip-rule="evenodd" d="M28.9961 24.5444L36.2511 31.7974L28.9981 39.0524L21.7432 31.7994L28.9961 24.5444Z" stroke="#231D36" stroke-width="1.7" stroke-linecap="round" stroke-linejoin="round"/>
<path d="M42.8258 45.2747C39.3168 48.8755 34.4279 51.1206 29.0001 51.1206C26.2306 51.1206 23.6085 50.5261 21.2305 49.4772" stroke="#231D36" stroke-width="1.7" stroke-linecap="round" stroke-linejoin="round"/>
<path d="M10.3724 36.9879C9.01905 32.157 9.52171 26.8138 12.2308 22.123C13.618 19.7184 15.4546 17.7392 17.5595 16.2046" stroke="#231D36" stroke-width="1.7" stroke-linecap="round" stroke-linejoin="round"/>
<path d="M33.7734 13.0676C38.6479 14.305 43.0389 17.4152 45.7529 22.1132C47.1279 24.4936 47.9254 27.0456 48.213 29.6121" stroke="#231D36" stroke-width="1.7" stroke-linecap="round" stroke-linejoin="round"/>
</svg>
