<svg width="178" height="45" viewBox="0 0 178 45" fill="none" xmlns="http://www.w3.org/2000/svg">
<g clip-path="url(#clip0_1205_11167)">
<path d="M50.4661 25.741C50.4635 25.8961 50.3997 26.0438 50.2885 26.1519C50.1773 26.26 50.0279 26.3197 49.8728 26.3179H38.9458C39.226 29.0208 41.2532 31.493 44.1209 31.493C46.0821 31.493 47.5325 30.7513 48.6202 29.1856C48.6709 29.1034 48.741 29.0348 48.8243 28.9859C48.9076 28.9371 49.0017 28.9094 49.0982 28.9054C49.1702 28.9034 49.2418 28.916 49.3087 28.9427C49.3756 28.9693 49.4364 29.0093 49.4873 29.0602C49.5383 29.1111 49.5782 29.1719 49.6048 29.2388C49.6315 29.3057 49.6441 29.3773 49.6421 29.4493C49.6425 29.5487 49.6138 29.6461 49.5597 29.7295C48.4554 31.6413 46.2634 32.5807 44.1209 32.5807C40.4456 32.5807 37.8086 29.2845 37.8086 25.774C37.8086 22.2635 40.4291 18.9673 44.1209 18.9673C47.8127 18.9673 50.4497 22.2306 50.4661 25.741ZM49.296 25.2301C49.0652 22.5272 46.9886 20.055 44.1209 20.055C41.2532 20.055 39.226 22.5272 38.9458 25.2301H49.296Z" fill="#3B3B3B"/>
<path d="M63.751 19.2309C63.8939 19.235 64.0298 19.2937 64.131 19.3948C64.2321 19.4959 64.2907 19.6318 64.2948 19.7748C64.2969 19.8467 64.2842 19.9184 64.2576 19.9853C64.231 20.0522 64.191 20.113 64.1401 20.1639C64.0892 20.2148 64.0284 20.2548 63.9615 20.2814C63.8946 20.308 63.8229 20.3207 63.751 20.3186H60.8173V31.839C60.816 31.9828 60.7583 32.1204 60.6566 32.2221C60.5549 32.3239 60.4173 32.3816 60.2734 32.3829C60.1305 32.3787 59.9946 32.3201 59.8935 32.219C59.7923 32.1179 59.7337 31.9819 59.7296 31.839V20.3186H56.9113C56.8393 20.3207 56.7677 20.308 56.7007 20.2814C56.6338 20.2548 56.5731 20.2148 56.5221 20.1639C56.4712 20.113 56.4312 20.0522 56.4046 19.9853C56.378 19.9184 56.3654 19.8467 56.3674 19.7748C56.3687 19.6309 56.4264 19.4933 56.5281 19.3916C56.6298 19.2899 56.7674 19.2322 56.9113 19.2309H59.7296V15.0282C59.7298 14.8889 59.7798 14.7543 59.8704 14.6486C59.961 14.5429 60.0864 14.4729 60.224 14.4513C60.3009 14.4411 60.3791 14.4476 60.4533 14.4704C60.5274 14.4932 60.5958 14.5317 60.6537 14.5834C60.7116 14.635 60.7576 14.6986 60.7887 14.7696C60.8198 14.8407 60.8352 14.9177 60.8338 14.9952V19.2309H63.751Z" fill="#3B3B3B"/>
<path d="M81.6317 24.8016V31.7731C81.6275 31.9161 81.5689 32.052 81.4678 32.1531C81.3667 32.2542 81.2307 32.3129 81.0878 32.317C81.0158 32.3191 80.9442 32.3064 80.8773 32.2798C80.8103 32.2532 80.7496 32.2132 80.6987 32.1623C80.6477 32.1114 80.6077 32.0506 80.5811 31.9837C80.5545 31.9168 80.5419 31.8451 80.5439 31.7731V24.8016C80.5439 22.4448 79.2089 20.1045 76.5884 20.1045C73.2263 20.1045 71.7759 23.0381 71.9737 26.0542C71.9737 26.1366 72.0067 26.4827 72.0067 26.5321V31.7567C72.0064 31.8959 71.9564 32.0305 71.8658 32.1363C71.7752 32.242 71.6498 32.3119 71.5122 32.3335C71.4353 32.3437 71.3571 32.3372 71.283 32.3144C71.2088 32.2916 71.1404 32.2531 71.0826 32.2015C71.0247 32.1498 70.9786 32.0863 70.9475 32.0152C70.9164 31.9441 70.901 31.8672 70.9024 31.7896V8.86431C70.9037 8.72047 70.9614 8.58288 71.0632 8.48116C71.1649 8.37944 71.3025 8.32172 71.4463 8.32043C71.5892 8.32458 71.7252 8.38321 71.8263 8.48432C71.9274 8.58544 71.986 8.72138 71.9902 8.86431V21.8185C72.9296 20.1374 74.6107 19.0002 76.572 19.0002C79.8023 19.0002 81.6317 21.8185 81.6317 24.8016Z" fill="#3B3B3B"/>
<path d="M101.259 25.741C101.257 25.8961 101.193 26.0438 101.081 26.1519C100.97 26.26 100.821 26.3197 100.666 26.3179H89.7388C90.0189 29.0208 92.0461 31.493 94.9139 31.493C96.8751 31.493 98.3255 30.7513 99.4132 29.1856C99.4639 29.1034 99.5339 29.0348 99.6173 28.9859C99.7006 28.9371 99.7946 28.9094 99.8912 28.9054C99.9631 28.9034 100.035 28.916 100.102 28.9427C100.169 28.9693 100.229 29.0093 100.28 29.0602C100.331 29.1111 100.371 29.1719 100.398 29.2388C100.424 29.3057 100.437 29.3773 100.435 29.4493C100.435 29.5487 100.407 29.6461 100.353 29.7295C99.2484 31.6413 97.0564 32.5807 94.9139 32.5807C91.2386 32.5807 88.6016 29.2845 88.6016 25.774C88.6016 22.2635 91.2221 18.9673 94.9139 18.9673C98.5727 18.9673 101.243 22.2306 101.259 25.741ZM100.072 25.2301C99.8417 22.5272 97.7651 20.055 94.8974 20.055C92.0296 20.055 90.0025 22.5272 89.7223 25.2301H100.072Z" fill="#3B3B3B"/>
<path d="M114.693 19.7419C114.704 19.8882 114.656 20.0327 114.56 20.1439C114.465 20.255 114.329 20.3238 114.183 20.3352C110.969 20.8132 109.518 23.4337 109.518 26.4827V31.7072C109.518 31.8465 109.468 31.9811 109.378 32.0868C109.287 32.1925 109.162 32.2625 109.024 32.284C108.947 32.2943 108.869 32.2878 108.795 32.265C108.721 32.2422 108.652 32.2036 108.594 32.152C108.536 32.1004 108.49 32.0368 108.459 31.9658C108.428 31.8947 108.413 31.8177 108.414 31.7402V19.8243C108.414 19.685 108.464 19.5504 108.555 19.4447C108.646 19.339 108.771 19.269 108.909 19.2474C108.985 19.2372 109.064 19.2437 109.138 19.2665C109.212 19.2893 109.28 19.3278 109.338 19.3795C109.396 19.4311 109.442 19.4946 109.473 19.5657C109.504 19.6368 109.52 19.7138 109.518 19.7913V22.2141C110.425 20.6813 112.221 19.231 114.1 19.231C114.38 19.231 114.693 19.4287 114.693 19.7419Z" fill="#3B3B3B"/>
<path d="M132.658 25.741C132.655 25.8961 132.591 26.0438 132.48 26.1519C132.369 26.26 132.219 26.3197 132.064 26.3179H121.137C121.417 29.0208 123.445 31.493 126.312 31.493C128.274 31.493 129.724 30.7513 130.812 29.1856C130.862 29.1034 130.932 29.0348 131.016 28.9859C131.099 28.9371 131.193 28.9094 131.29 28.9054C131.362 28.9034 131.433 28.916 131.5 28.9427C131.567 28.9693 131.628 29.0093 131.679 29.0602C131.73 29.1111 131.77 29.1719 131.796 29.2388C131.823 29.3057 131.836 29.3773 131.833 29.4493C131.834 29.5487 131.805 29.6461 131.751 29.7295C130.647 31.6413 128.455 32.5807 126.312 32.5807C122.637 32.5807 120 29.2845 120 25.774C120 22.2635 122.621 18.9673 126.312 18.9673C130.004 18.9673 132.641 22.2306 132.658 25.741ZM131.487 25.2301C131.257 22.5272 129.18 20.055 126.312 20.055C123.445 20.055 121.417 22.5272 121.137 25.2301H131.487Z" fill="#3B3B3B"/>
<path d="M150.324 19.8737V31.839C150.32 31.982 150.262 32.1179 150.16 32.219C150.059 32.3201 149.923 32.3788 149.78 32.3829C149.708 32.385 149.637 32.3723 149.57 32.3457C149.503 32.3191 149.442 32.2791 149.391 32.2282C149.34 32.1773 149.3 32.1165 149.274 32.0496C149.247 31.9827 149.235 31.911 149.237 31.839V29.5646C148.33 31.3611 146.731 32.6631 144.688 32.6631C141.441 32.6631 139.645 29.8448 139.645 26.8617V19.8572C139.646 19.7134 139.704 19.5758 139.805 19.4741C139.907 19.3724 140.045 19.3146 140.188 19.3134C140.331 19.3175 140.467 19.3761 140.568 19.4772C140.67 19.5784 140.728 19.7143 140.732 19.8572V26.8617C140.732 29.2185 142.067 31.5589 144.688 31.5589C148.363 31.5589 149.237 28.1143 149.237 24.3071V19.8408C149.238 19.7526 149.26 19.666 149.302 19.5882C149.343 19.5104 149.403 19.4437 149.475 19.3937C149.548 19.3437 149.632 19.3118 149.719 19.3007C149.807 19.2896 149.895 19.2996 149.978 19.3298C150.082 19.378 150.169 19.4548 150.231 19.5512C150.292 19.6475 150.325 19.7595 150.324 19.8737Z" fill="#3B3B3B"/>
<path d="M177.997 24.7522V31.7567C177.993 31.8996 177.934 32.0355 177.833 32.1367C177.732 32.2378 177.596 32.2964 177.453 32.3005C177.381 32.3026 177.31 32.2899 177.243 32.2633C177.176 32.2367 177.115 32.1967 177.064 32.1458C177.013 32.0949 176.973 32.0341 176.947 31.9672C176.92 31.9003 176.907 31.8286 176.909 31.7567V24.7522C176.909 22.3954 175.574 20.088 172.954 20.088C169.658 20.088 168.405 23.615 168.405 26.3508V31.7567C168.401 31.8996 168.342 32.0355 168.241 32.1367C168.14 32.2378 168.004 32.2964 167.861 32.3005C167.789 32.3026 167.718 32.2899 167.651 32.2633C167.584 32.2367 167.523 32.1967 167.472 32.1458C167.421 32.0949 167.381 32.0341 167.355 31.9672C167.328 31.9003 167.315 31.8286 167.317 31.7567V24.7522C167.317 22.3954 165.982 20.088 163.362 20.088C160.033 20.088 158.665 22.7085 158.78 26.2025C158.78 26.2849 158.813 26.4333 158.78 26.4827V31.7402C158.78 31.8794 158.73 32.014 158.639 32.1198C158.549 32.2255 158.423 32.2955 158.286 32.317C158.209 32.3272 158.131 32.3207 158.056 32.2979C157.982 32.2752 157.914 32.2366 157.856 32.185C157.798 32.1334 157.752 32.0698 157.721 31.9987C157.69 31.9277 157.674 31.8507 157.676 31.7732V19.8243C157.676 19.685 157.726 19.5504 157.817 19.4447C157.907 19.339 158.033 19.269 158.17 19.2475C158.247 19.2372 158.325 19.2438 158.4 19.2665C158.474 19.2893 158.542 19.3279 158.6 19.3795C158.658 19.4311 158.704 19.4947 158.735 19.5657C158.766 19.6368 158.781 19.7138 158.78 19.7913V21.7856C159.72 20.1045 161.401 19.0002 163.362 19.0002C165.587 19.0002 167.317 20.4176 168.026 22.4778C168.933 20.4341 170.696 19.0002 172.954 19.0002C176.168 19.0002 177.997 21.7856 177.997 24.7522Z" fill="#3B3B3B"/>
<path opacity="0.6" d="M13.6794 16.5775L0 22.7909L13.6794 30.8832L27.3752 22.7909L13.6794 16.5775Z" fill="black"/>
<path opacity="0.45" d="M0 22.7909L13.6794 30.8831V0.079834L0 22.7909Z" fill="black"/>
<path opacity="0.8" d="M13.6797 0.079834V30.8831L27.3755 22.7909L13.6797 0.079834Z" fill="black"/>
<path opacity="0.45" d="M0 25.3949L13.6794 44.6779V33.4707L0 25.3949Z" fill="black"/>
<path opacity="0.8" d="M13.6797 33.4707V44.6779L27.3755 25.3949L13.6797 33.4707Z" fill="black"/>
</g>
<defs>
<clipPath id="clip0_1205_11167">
<rect width="177.997" height="44.598" fill="white" transform="translate(0 0.079834)"/>
</clipPath>
</defs>
</svg>
