<svg width="124" height="43" viewBox="0 0 124 43" fill="none" xmlns="http://www.w3.org/2000/svg">
<path d="M11.9263 16.6789H7.28625V29.3789H5.35625V16.6789H0.70625V15.0489H11.9263V16.6789ZM18.0227 21.9889C18.5827 21.9889 19.076 21.9222 19.5027 21.7889C19.936 21.6489 20.296 21.4556 20.5827 21.2089C20.876 20.9556 21.096 20.6556 21.2427 20.3089C21.3893 19.9622 21.4627 19.5789 21.4627 19.1589C21.4627 18.3056 21.1827 17.6622 20.6227 17.2289C20.0627 16.7956 19.2227 16.5789 18.1027 16.5789H15.9827V21.9889H18.0227ZM24.6427 29.3789H22.9227C22.5693 29.3789 22.3093 29.2422 22.1427 28.9689L18.4227 23.8489C18.3093 23.6889 18.186 23.5756 18.0527 23.5089C17.926 23.4356 17.726 23.3989 17.4527 23.3989H15.9827V29.3789H14.0527V15.0489H18.1027C19.0093 15.0489 19.7927 15.1422 20.4527 15.3289C21.1127 15.5089 21.656 15.7722 22.0827 16.1189C22.516 16.4656 22.836 16.8856 23.0427 17.3789C23.2493 17.8656 23.3527 18.4122 23.3527 19.0189C23.3527 19.5256 23.2727 19.9989 23.1127 20.4389C22.9527 20.8789 22.7193 21.2756 22.4127 21.6289C22.1127 21.9756 21.7427 22.2722 21.3027 22.5189C20.8693 22.7656 20.376 22.9522 19.8227 23.0789C20.0693 23.2189 20.2827 23.4222 20.4627 23.6889L24.6427 29.3789ZM36.515 26.4189C36.6217 26.4189 36.715 26.4622 36.795 26.5489L37.565 27.3789C36.9783 28.0589 36.265 28.5889 35.425 28.9689C34.5917 29.3489 33.5817 29.5389 32.395 29.5389C31.3683 29.5389 30.435 29.3622 29.595 29.0089C28.755 28.6489 28.0383 28.1489 27.445 27.5089C26.8517 26.8622 26.3917 26.0889 26.065 25.1889C25.7383 24.2889 25.575 23.2989 25.575 22.2189C25.575 21.1389 25.745 20.1489 26.085 19.2489C26.425 18.3489 26.9017 17.5756 27.515 16.9289C28.135 16.2822 28.875 15.7822 29.735 15.4289C30.595 15.0689 31.545 14.8889 32.585 14.8889C33.605 14.8889 34.505 15.0522 35.285 15.3789C36.065 15.7056 36.7517 16.1489 37.345 16.7089L36.705 17.5989C36.665 17.6656 36.6117 17.7222 36.545 17.7689C36.485 17.8089 36.4017 17.8289 36.295 17.8289C36.175 17.8289 36.0283 17.7656 35.855 17.6389C35.6817 17.5056 35.455 17.3589 35.175 17.1989C34.895 17.0389 34.545 16.8956 34.125 16.7689C33.705 16.6356 33.1883 16.5689 32.575 16.5689C31.835 16.5689 31.1583 16.6989 30.545 16.9589C29.9317 17.2122 29.4017 17.5822 28.955 18.0689C28.515 18.5556 28.1717 19.1489 27.925 19.8489C27.6783 20.5489 27.555 21.3389 27.555 22.2189C27.555 23.1122 27.6817 23.9089 27.935 24.6089C28.195 25.3089 28.545 25.9022 28.985 26.3889C29.4317 26.8689 29.955 27.2356 30.555 27.4889C31.1617 27.7422 31.815 27.8689 32.515 27.8689C32.9417 27.8689 33.325 27.8456 33.665 27.7989C34.0117 27.7456 34.3283 27.6656 34.615 27.5589C34.9083 27.4522 35.1783 27.3189 35.425 27.1589C35.6783 26.9922 35.9283 26.7956 36.175 26.5689C36.2883 26.4689 36.4017 26.4189 36.515 26.4189ZM48.7944 15.0489V15.8489C48.7944 16.0756 48.7677 16.2622 48.7144 16.4089C48.6677 16.5556 48.621 16.6789 48.5744 16.7789L42.6344 28.7489C42.5477 28.9222 42.4277 29.0722 42.2744 29.1989C42.121 29.3189 41.9177 29.3789 41.6644 29.3789H40.3844L46.4044 17.5589C46.491 17.3922 46.581 17.2389 46.6744 17.0989C46.7677 16.9589 46.8677 16.8256 46.9744 16.6989H39.4944C39.381 16.6989 39.281 16.6556 39.1944 16.5689C39.1077 16.4756 39.0644 16.3722 39.0644 16.2589V15.0489H48.7944ZM59.4559 27.6889C59.6493 27.6889 59.8026 27.7456 59.9159 27.8589C60.0293 27.9722 60.0859 28.1189 60.0859 28.2989V29.3789H50.5259V28.7689C50.5259 28.6422 50.5526 28.5122 50.6059 28.3789C50.6593 28.2456 50.7426 28.1222 50.8559 28.0089L55.4459 23.3989C55.8259 23.0122 56.1726 22.6422 56.4859 22.2889C56.7993 21.9289 57.0659 21.5689 57.2859 21.2089C57.5059 20.8489 57.6759 20.4856 57.7959 20.1189C57.9159 19.7456 57.9759 19.3489 57.9759 18.9289C57.9759 18.5089 57.9093 18.1422 57.7759 17.8289C57.6426 17.5089 57.4593 17.2456 57.2259 17.0389C56.9993 16.8322 56.7293 16.6789 56.4159 16.5789C56.1026 16.4722 55.7659 16.4189 55.4059 16.4189C55.0393 16.4189 54.7026 16.4722 54.3959 16.5789C54.0893 16.6856 53.8159 16.8356 53.5759 17.0289C53.3426 17.2156 53.1459 17.4389 52.9859 17.6989C52.8259 17.9589 52.7126 18.2456 52.6459 18.5589C52.5659 18.7922 52.4559 18.9489 52.3159 19.0289C52.1826 19.1022 51.9926 19.1222 51.7459 19.0889L50.8159 18.9289C50.9093 18.2756 51.0893 17.6989 51.3559 17.1989C51.6293 16.6922 51.9693 16.2689 52.3759 15.9289C52.7893 15.5889 53.2593 15.3322 53.7859 15.1589C54.3126 14.9789 54.8826 14.8889 55.4959 14.8889C56.1026 14.8889 56.6693 14.9789 57.1959 15.1589C57.7226 15.3389 58.1793 15.6022 58.5659 15.9489C58.9526 16.2889 59.2559 16.7056 59.4759 17.1989C59.6959 17.6922 59.8059 18.2522 59.8059 18.8789C59.8059 19.4122 59.7259 19.9089 59.5659 20.3689C59.4059 20.8222 59.1893 21.2556 58.9159 21.6689C58.6426 22.0822 58.3259 22.4856 57.9659 22.8789C57.6126 23.2722 57.2359 23.6689 56.8359 24.0689L53.0559 27.9289C53.3226 27.8556 53.5926 27.7989 53.8659 27.7589C54.1393 27.7122 54.4026 27.6889 54.6559 27.6889H59.4559ZM71.3675 28.0189V29.3789H63.6875V28.0189H66.7575V18.2489C66.7575 17.9556 66.7675 17.6589 66.7875 17.3589L64.2375 19.5489C64.1508 19.6222 64.0642 19.6689 63.9775 19.6889C63.8908 19.7022 63.8108 19.7022 63.7375 19.6889C63.6642 19.6756 63.5942 19.6489 63.5275 19.6089C63.4675 19.5689 63.4208 19.5256 63.3875 19.4789L62.8275 18.7089L67.0975 15.0189H68.5475V28.0189H71.3675Z" fill="black"/>
<path d="M115.318 6.12301L83.4062 0.25293L100.2 42.5048L123.595 13.9975L115.318 6.12301ZM114.809 8.71073L119.693 13.3506L106.34 15.7686L114.809 8.71073ZM103.44 15.2861L89.3665 3.61484L112.364 7.84639L103.44 15.2861ZM102.432 17.3541L100.142 36.3219L87.7704 5.18444L102.432 17.3541ZM104.553 18.3563L119.337 15.6785L102.385 36.3378L104.553 18.3563Z" fill="#EB0029"/>
</svg>
