<svg width="58" height="58" viewBox="0 0 58 58" fill="none" xmlns="http://www.w3.org/2000/svg">
<path d="M26.5914 50.7712V23.7609C26.5911 22.4786 26.0815 21.2489 25.1746 20.3423L16.9207 12.0884L8.66676 20.3423C7.75989 21.2489 7.25027 22.4786 7.25 23.7609V50.7712" stroke="#231D36" stroke-width="1.7" stroke-linecap="round" stroke-linejoin="round"/>
<path d="M16.9198 29.012V48.3534" stroke="#231D36" stroke-width="1.7" stroke-linecap="round" stroke-linejoin="round"/>
<path d="M7.6875 21.7591H26.1513" stroke="#231D36" stroke-width="1.7" stroke-linecap="round" stroke-linejoin="round"/>
<path d="M16.9198 7.25293V12.0883" stroke="#231D36" stroke-width="1.7" stroke-linecap="round" stroke-linejoin="round"/>
<path d="M33.8438 50.7712V26.7588C33.844 25.9661 34.233 25.2239 34.8846 24.7724C35.5362 24.321 36.3677 24.2176 37.11 24.4959L49.1984 29.029C50.1419 29.3827 50.7671 30.2844 50.7675 31.292V50.7712" stroke="#231D36" stroke-width="1.7" stroke-linecap="round" stroke-linejoin="round"/>
<path d="M53.1855 50.7711H4.83203" stroke="#231D36" stroke-width="1.7" stroke-linecap="round" stroke-linejoin="round"/>
<path d="M39.8867 36.265H44.7221" stroke="#231D36" stroke-width="1.7" stroke-linecap="round" stroke-linejoin="round"/>
<path d="M39.8867 43.5182H44.7221" stroke="#231D36" stroke-width="1.7" stroke-linecap="round" stroke-linejoin="round"/>
</svg>
