<svg width="58" height="58" viewBox="0 0 58 58" fill="none" xmlns="http://www.w3.org/2000/svg">
<path fill-rule="evenodd" clip-rule="evenodd" d="M43.4987 41.0834H48.332C49.666 41.0834 50.7487 42.166 50.7487 43.5V48.3334C50.7487 49.6674 49.666 50.75 48.332 50.75H43.4987C42.1647 50.75 41.082 49.6674 41.082 48.3334V43.5C41.082 42.166 42.1647 41.0834 43.4987 41.0834Z" stroke="#231D36" stroke-width="1.7" stroke-linecap="round" stroke-linejoin="round"/>
<path fill-rule="evenodd" clip-rule="evenodd" d="M9.66667 7.25H14.5C15.834 7.25 16.9167 8.33267 16.9167 9.66667V14.5C16.9167 15.834 15.834 16.9167 14.5 16.9167H9.66667C8.33267 16.9167 7.25 15.834 7.25 14.5V9.66667C7.25 8.33267 8.33267 7.25 9.66667 7.25Z" stroke="#231D36" stroke-width="1.7" stroke-linecap="round" stroke-linejoin="round"/>
<path fill-rule="evenodd" clip-rule="evenodd" d="M26.5846 24.1666H31.418C32.752 24.1666 33.8346 25.2493 33.8346 26.5833V31.4166C33.8346 32.7506 32.752 33.8333 31.418 33.8333H26.5846C25.2506 33.8333 24.168 32.7506 24.168 31.4166V26.5833C24.168 25.2493 25.2506 24.1666 26.5846 24.1666Z" stroke="#231D36" stroke-width="1.7" stroke-linecap="round" stroke-linejoin="round"/>
<path d="M26.582 12.0834H45.9154C48.5858 12.0834 50.7487 14.2463 50.7487 16.9167V24.1667C50.7487 26.8371 48.5858 29 45.9154 29H41.082" stroke="#231D36" stroke-width="1.7" stroke-linecap="round" stroke-linejoin="round"/>
<path d="M31.4167 45.9167H12.0833C9.41292 45.9167 7.25 43.7537 7.25 41.0833V33.8333C7.25 31.1629 9.41292 29 12.0833 29H16.9167" stroke="#231D36" stroke-width="1.7" stroke-linecap="round" stroke-linejoin="round"/>
</svg>
