<svg width="58" height="58" viewBox="0 0 58 58" fill="none" xmlns="http://www.w3.org/2000/svg">
<path d="M16.9126 48.3414C13.5745 48.3414 10.8684 45.6353 10.8684 42.2972V35.0442C10.8684 33.4412 10.2316 31.9038 9.0981 30.7703C7.9646 29.6368 6.42724 29 4.82422 29C6.42724 29 7.9646 28.3632 9.0981 27.2297C10.2316 26.0962 10.8684 24.5589 10.8684 22.9558V15.7028C10.8684 12.3647 13.5745 9.65863 16.9126 9.65863" stroke="#231D36" stroke-width="1.5" stroke-linecap="round" stroke-linejoin="round"/>
<path d="M41.0898 9.65863C44.428 9.65863 47.134 12.3647 47.134 15.7028V22.9558C47.134 26.2939 49.8401 29 53.1782 29C49.8401 29 47.134 31.7061 47.134 35.0442V42.2972C47.134 45.6353 44.428 48.3414 41.0898 48.3414" stroke="#231D36" stroke-width="1.5" stroke-linecap="round" stroke-linejoin="round"/>
<path d="M20.9625 29.1982C20.9625 29.1315 20.9084 29.0773 20.8416 29.0773C20.7749 29.0773 20.7208 29.1315 20.7208 29.1982C20.7208 29.265 20.7749 29.3191 20.8416 29.3191C20.9084 29.3191 20.9625 29.265 20.9625 29.1982" stroke="#231D36" stroke-width="1.5" stroke-linecap="round" stroke-linejoin="round"/>
<path d="M29.1227 29.1765C29.1227 29.1097 29.0686 29.0556 29.0018 29.0556C28.935 29.0556 28.8809 29.1097 28.8809 29.1765C28.8809 29.2433 28.935 29.2974 29.0018 29.2974C29.0686 29.2974 29.1227 29.2433 29.1227 29.1765" stroke="#231D36" stroke-width="1.5" stroke-linecap="round" stroke-linejoin="round"/>
<path d="M36.3727 29.1765C36.3727 29.1097 36.3186 29.0556 36.2518 29.0556C36.185 29.0556 36.1309 29.1097 36.1309 29.1765C36.1309 29.2433 36.185 29.2974 36.2518 29.2974C36.3186 29.2974 36.3727 29.2433 36.3727 29.1765" stroke="#231D36" stroke-width="1.5" stroke-linecap="round" stroke-linejoin="round"/>
</svg>
