<svg width="58" height="58" viewBox="0 0 58 58" fill="none" xmlns="http://www.w3.org/2000/svg">
<path d="M38.6667 12.0833H29" stroke="#231D36" stroke-width="1.7" stroke-linecap="round" stroke-linejoin="round"/>
<path fill-rule="evenodd" clip-rule="evenodd" d="M48.3307 16.9167H41.0807C39.7467 16.9167 38.6641 15.834 38.6641 14.5V9.66667C38.6641 8.33267 39.7467 7.25 41.0807 7.25H48.3307C49.6647 7.25 50.7474 8.33267 50.7474 9.66667V14.5C50.7474 15.834 49.6647 16.9167 48.3307 16.9167Z" stroke="#231D36" stroke-width="1.7" stroke-linecap="round" stroke-linejoin="round"/>
<path d="M38.6667 29.0001H29" stroke="#231D36" stroke-width="1.7" stroke-linecap="round" stroke-linejoin="round"/>
<path fill-rule="evenodd" clip-rule="evenodd" d="M48.3307 33.8334H41.0807C39.7467 33.8334 38.6641 32.7507 38.6641 31.4167V26.5834C38.6641 25.2494 39.7467 24.1667 41.0807 24.1667H48.3307C49.6647 24.1667 50.7474 25.2494 50.7474 26.5834V31.4167C50.7474 32.7507 49.6647 33.8334 48.3307 33.8334Z" stroke="#231D36" stroke-width="1.7" stroke-linecap="round" stroke-linejoin="round"/>
<path d="M19.332 12.0833H28.9987" stroke="#231D36" stroke-width="1.7" stroke-linecap="round" stroke-linejoin="round"/>
<path fill-rule="evenodd" clip-rule="evenodd" d="M9.66536 4.83337H14.4987C17.1691 4.83337 19.332 6.99629 19.332 9.66671V14.5C19.332 17.1705 17.1691 19.3334 14.4987 19.3334H9.66536C6.99495 19.3334 4.83203 17.1705 4.83203 14.5V9.66671C4.83203 6.99629 6.99495 4.83337 9.66536 4.83337Z" stroke="#231D36" stroke-width="1.7" stroke-linecap="round" stroke-linejoin="round"/>
<path fill-rule="evenodd" clip-rule="evenodd" d="M48.3307 50.75H41.0807C39.7467 50.75 38.6641 49.6674 38.6641 48.3334V43.5C38.6641 42.166 39.7467 41.0834 41.0807 41.0834H48.3307C49.6647 41.0834 50.7474 42.166 50.7474 43.5V48.3334C50.7474 49.6674 49.6647 50.75 48.3307 50.75Z" stroke="#231D36" stroke-width="1.7" stroke-linecap="round" stroke-linejoin="round"/>
<path d="M38.6667 45.9167H31.4167C30.0827 45.9167 29 44.834 29 43.5V12.0834" stroke="#231D36" stroke-width="1.7" stroke-linecap="round" stroke-linejoin="round"/>
</svg>
