<svg width="58" height="58" viewBox="0 0 58 58" fill="none" xmlns="http://www.w3.org/2000/svg">
<rect x="7.24219" y="7.24097" width="43.5181" height="43.5181" rx="2" stroke="#231D36" stroke-width="1.7" stroke-linecap="round" stroke-linejoin="round"/>
<path d="M38.1328 25.7772C39.6163 25.7772 40.8188 26.9798 40.8188 28.4633V31.1493C40.8255 32.1531 41.3969 33.0676 42.296 33.5138V34.1569C41.3969 34.6031 40.8255 35.5176 40.8188 36.5214V39.2074C40.8188 40.6909 39.6163 41.8934 38.1328 41.8934" stroke="#231D36" stroke-width="1.7" stroke-linecap="round" stroke-linejoin="round"/>
<path d="M19.8664 41.8934C18.3829 41.8934 17.1803 40.6909 17.1803 39.2074V36.5214C17.1736 35.5176 16.6023 34.6031 15.7031 34.1569V33.5138C16.6023 33.0676 17.1736 32.1531 17.1803 31.1493V28.4633C17.1803 26.9798 18.3829 25.7772 19.8664 25.7772" stroke="#231D36" stroke-width="1.7" stroke-linecap="round" stroke-linejoin="round"/>
<path d="M50.7603 16.9116H7.24219" stroke="#231D36" stroke-width="1.7" stroke-linecap="round" stroke-linejoin="round"/>
<path fill-rule="evenodd" clip-rule="evenodd" d="M34.4216 36.2531C35.7568 36.2531 36.8393 35.1706 36.8393 33.8354C36.8393 32.5002 35.7568 31.4177 34.4216 31.4177C33.0863 31.4177 32.0039 32.5002 32.0039 33.8354C32.0039 35.1706 33.0863 36.2531 34.4216 36.2531Z" stroke="#231D36" stroke-width="1.7" stroke-linecap="round" stroke-linejoin="round"/>
<path d="M34.5407 33.8353C34.5407 33.7685 34.4865 33.7144 34.4198 33.7144C34.3877 33.7144 34.357 33.7272 34.3343 33.7498C34.3116 33.7725 34.2989 33.8032 34.2989 33.8353C34.2989 33.8785 34.3219 33.9184 34.3593 33.94C34.3967 33.9616 34.4428 33.9616 34.4802 33.94C34.5176 33.9184 34.5407 33.8785 34.5407 33.8353" stroke="#231D36" stroke-width="1.7" stroke-linecap="round" stroke-linejoin="round"/>
<path d="M23.7008 33.8353C23.7008 33.7685 23.6467 33.7144 23.5799 33.7144C23.5479 33.7144 23.5171 33.7272 23.4945 33.7498C23.4718 33.7725 23.459 33.8032 23.459 33.8353C23.459 33.9021 23.5132 33.9562 23.5799 33.9562C23.6467 33.9562 23.7008 33.9021 23.7008 33.8353" stroke="#231D36" stroke-width="1.7" stroke-linecap="round" stroke-linejoin="round"/>
<path d="M29.1227 33.8353C29.1227 33.7685 29.0686 33.7144 29.0018 33.7144C28.9697 33.7144 28.939 33.7272 28.9163 33.7498C28.8937 33.7725 28.8809 33.8032 28.8809 33.8353C28.8809 33.9021 28.935 33.9562 29.0018 33.9562C29.0686 33.9562 29.1227 33.9021 29.1227 33.8353" stroke="#231D36" stroke-width="1.7" stroke-linecap="round" stroke-linejoin="round"/>
</svg>
