<svg width="58" height="58" viewBox="0 0 58 58" fill="none" xmlns="http://www.w3.org/2000/svg">
<path d="M23.9509 17.7458H29.0015L32.9374 15.3475C33.5662 14.9645 34.3353 14.8888 35.0267 15.142C35.718 15.3952 36.2563 15.9497 36.489 16.6482L42.0569 33.3519L49.8902 43.7963C50.8792 45.1149 51.0383 46.8792 50.3011 48.3535C49.5639 49.8279 48.0571 50.7592 46.4087 50.7592H36.9073C34.2204 50.7608 31.6543 49.643 29.8259 47.6742L9.17654 25.4485C7.83552 24.0022 7.14138 22.0721 7.25404 20.1029C7.36671 18.1338 8.27647 16.2954 9.7737 15.0114L18.0494 7.92041C18.8803 7.20866 20.0494 7.04559 21.0434 7.50281C22.0373 7.96002 22.6742 8.95391 22.6744 10.048V17.7458H29.0015" stroke="#231D36" stroke-width="1.7" stroke-linecap="round" stroke-linejoin="round"/>
<path d="M7.24219 42.2973H12.0775" stroke="#231D36" stroke-width="1.7" stroke-linecap="round" stroke-linejoin="round"/>
<path d="M19.3306 50.7591H7.24219" stroke="#231D36" stroke-width="1.7" stroke-linecap="round" stroke-linejoin="round"/>
<path d="M49.6636 43.5063H37.5172C35.5046 43.5118 33.5813 42.6755 32.2128 41.1998L8.82422 16.0125" stroke="#231D36" stroke-width="1.7" stroke-linecap="round" stroke-linejoin="round"/>
<path d="M31.418 31.4179L40.859 29.7835" stroke="#231D36" stroke-width="1.7" stroke-linecap="round" stroke-linejoin="round"/>
<path d="M29 25.3736L38.8254 23.674" stroke="#231D36" stroke-width="1.7" stroke-linecap="round" stroke-linejoin="round"/>
</svg>
