<svg width="160" height="61" viewBox="0 0 160 61" fill="none" xmlns="http://www.w3.org/2000/svg">
<path d="M66.3739 26.7545H64.0195V42.127H66.3739V26.7545Z" fill="#262729"/>
<path d="M76.9209 20.2428H57.7305V22.5972H76.9209V20.2428Z" fill="#262729"/>
<path d="M70.6278 26.7545H68.2734V42.127H70.6278V26.7545Z" fill="#262729"/>
<path d="M135.672 42.143H138.047V32.8845L135.672 30.2438V42.143Z" fill="#262729"/>
<path d="M148.179 20.2428V37.4077L131.375 18.7316V42.143H133.745V24.9728L150.56 43.6542V20.2428H148.179Z" fill="#262729"/>
<path d="M115.993 20.2322C109.953 20.2322 105.043 25.1425 105.043 31.1822C105.043 37.222 109.953 42.1323 115.993 42.1323C122.033 42.1323 126.943 37.222 126.943 31.1822C126.943 25.1478 122.033 20.2322 115.993 20.2322ZM115.993 39.7726C111.258 39.7726 107.403 35.9229 107.403 31.1822C107.403 26.4416 111.252 22.5919 115.993 22.5919C120.728 22.5919 124.583 26.4416 124.583 31.1822C124.583 35.9176 120.728 39.7726 115.993 39.7726Z" fill="#262729"/>
<path d="M115.993 29.6073C115.123 29.6073 114.418 30.3126 114.418 31.1822C114.418 32.0518 115.123 32.7571 115.993 32.7571C116.863 32.7571 117.568 32.0518 117.568 31.1822C117.568 30.3126 116.863 29.6073 115.993 29.6073Z" fill="#262729"/>
<path d="M100.921 26.9614C100.921 23.2601 97.9302 20.2482 94.2554 20.2482H81.7305V42.1483H84.069V22.6238H94.2554C96.6151 22.6238 98.5347 24.5699 98.5347 26.9614C98.5347 29.3423 96.6416 31.2778 94.3032 31.3043L85.9938 31.299V42.1483H88.3323V33.6746H93.81L98.2855 42.143H101.006L96.3341 33.3405C99.0332 32.4444 100.921 29.8354 100.921 26.9614Z" fill="#262729"/>
<path d="M41.5405 15.9052L9.62891 10.0352L26.4225 52.287L49.818 23.7797L41.5405 15.9052ZM41.0315 18.493L45.9153 23.1328L32.5631 25.5508L41.0315 18.493ZM29.6625 25.0683L15.5891 13.3971L38.5869 17.6286L29.6625 25.0683ZM28.655 27.1363L26.3642 46.1041L13.993 14.9667L28.655 27.1363ZM30.7761 28.1386L45.56 25.4607L28.6073 46.12L30.7761 28.1386Z" fill="#EB0029"/>
</svg>
