<svg width="58" height="58" viewBox="0 0 58 58" fill="none" xmlns="http://www.w3.org/2000/svg">
<path d="M2.41797 50.75V50.75C2.41797 45.9191 6.33297 42.0041 11.1639 42.0041H19.9098C24.7407 42.0041 28.6557 45.9191 28.6557 50.75V50.75" stroke="#231D36" stroke-width="1.5" stroke-linecap="round" stroke-linejoin="round"/>
<path d="M20.9483 22.3798C23.9372 25.3687 23.9372 30.2147 20.9483 33.2036C17.9594 36.1925 13.1134 36.1925 10.1245 33.2036C7.13559 30.2147 7.13559 25.3687 10.1245 22.3798C13.1134 19.3909 17.9594 19.3909 20.9483 22.3798" stroke="#231D36" stroke-width="1.5" stroke-linecap="round" stroke-linejoin="round"/>
<path d="M43.7341 33.3694C50.2785 33.3694 55.5855 28.0624 55.5855 21.518C55.5855 14.9737 50.2809 9.66669 43.7341 9.66669C37.1874 9.66669 31.8828 14.9737 31.8828 21.518" stroke="#231D36" stroke-width="1.5" stroke-linecap="round" stroke-linejoin="round"/>
<path d="M43.7449 33.3814C41.9614 33.3814 40.2721 32.9875 38.7544 32.2843L31.4609 33.8333L32.9859 26.5253C32.2778 25.0028 31.8814 23.3063 31.8814 21.518" stroke="#231D36" stroke-width="1.5" stroke-linecap="round" stroke-linejoin="round"/>
<path d="M38.2157 21.6646C38.2628 21.7118 38.2628 21.7883 38.2157 21.8355C38.1685 21.8827 38.092 21.8827 38.0448 21.8355C37.9976 21.7883 37.9976 21.7118 38.0448 21.6646C38.092 21.6174 38.1685 21.6174 38.2157 21.6646" stroke="#231D36" stroke-width="1.5" stroke-linecap="round" stroke-linejoin="round"/>
<path d="M43.6532 21.6646C43.7003 21.7118 43.7003 21.7883 43.6532 21.8355C43.606 21.8827 43.5295 21.8827 43.4823 21.8355C43.4351 21.7883 43.4351 21.7118 43.4823 21.6646C43.5295 21.6174 43.606 21.6174 43.6532 21.6646" stroke="#231D36" stroke-width="1.5" stroke-linecap="round" stroke-linejoin="round"/>
<path d="M49.0907 21.6646C49.1378 21.7118 49.1378 21.7883 49.0907 21.8355C49.0435 21.8827 48.967 21.8827 48.9198 21.8355C48.8726 21.7883 48.8726 21.7118 48.9198 21.6646C48.967 21.6174 49.0435 21.6174 49.0907 21.6646" stroke="#231D36" stroke-width="1.5" stroke-linecap="round" stroke-linejoin="round"/>
</svg>
