<svg width="32" height="32" viewBox="0 0 32 32" fill="none" xmlns="http://www.w3.org/2000/svg">
<path d="M16 6C10.48 6 6 10.48 6 16C6 21.52 10.48 26 16 26C21.5 26 26 21.52 26 16C26 10.48 21.5 6 16 6ZM22.6 10.6C23.8 12.06 24.5 13.9 24.54 15.92C24.26 15.86 21.44 15.3 18.6 15.64C18.54 15.5 18.48 15.34 18.42 15.2C18.24 14.78 18.06 14.36 17.86 13.96C20.98 12.7 22.42 10.84 22.6 10.6ZM16 7.48C18.16 7.48 20.16 8.3 21.66 9.62C21.5 9.84 20.22 11.56 17.18 12.7C15.78 10.12 14.22 8.02 14 7.7C14.64 7.56 15.3 7.48 16 7.48ZM12.36 8.28C12.58 8.58 14.1 10.7 15.52 13.22C11.52 14.28 8 14.26 7.62 14.26C8.2 11.6 9.98 9.4 12.36 8.28ZM7.46 16.02C7.46 15.94 7.46 15.84 7.46 15.76C7.82 15.78 11.98 15.82 16.24 14.54C16.48 15.02 16.72 15.5 16.94 16C16.84 16.04 16.72 16.06 16.6 16.1C12.2 17.52 9.86 21.4 9.66 21.72C8.28 20.2 7.46 18.2 7.46 16.02ZM16 24.54C14.02 24.54 12.2 23.86 10.76 22.74C10.92 22.42 12.64 19.08 17.46 17.4C17.48 17.38 17.5 17.38 17.52 17.38C18.72 20.5 19.22 23.1 19.34 23.86C18.32 24.3 17.18 24.54 16 24.54ZM20.76 23.08C20.68 22.56 20.22 20.06 19.1 17C21.78 16.58 24.12 17.28 24.42 17.36C24.04 19.74 22.68 21.8 20.76 23.08Z" fill="white"/>
</svg>
