<svg width="32" height="32" viewBox="0 0 32 32" fill="none" xmlns="http://www.w3.org/2000/svg">
<path d="M7.3749 15.1354C12.7436 12.7963 16.3236 11.2543 18.1148 10.5092C23.2292 8.38198 24.2919 8.01245 24.9846 8.00012C25.1369 7.99756 25.4776 8.03532 25.6982 8.21436C25.8845 8.36554 25.9358 8.56976 25.9603 8.7131C25.9848 8.85643 26.0154 9.18295 25.9911 9.43808C25.714 12.3501 24.5147 19.4169 23.9046 22.6784C23.6465 24.0585 23.1382 24.5212 22.6461 24.5665C21.5766 24.6649 20.7645 23.8597 19.7287 23.1807C18.1078 22.1182 17.1921 21.4568 15.6188 20.42C13.8005 19.2218 14.9792 18.5633 16.0154 17.487C16.2866 17.2053 20.9987 12.9193 21.0899 12.5305C21.1013 12.4819 21.1119 12.3006 21.0042 12.2049C20.8965 12.1092 20.7376 12.1419 20.6229 12.168C20.4604 12.2049 17.871 13.9163 12.8549 17.3024C12.1199 17.8071 11.4542 18.053 10.8577 18.0401C10.2001 18.0259 8.93528 17.6683 7.99498 17.3626C6.84166 16.9877 5.92503 16.7895 6.00485 16.1528C6.04642 15.8212 6.5031 15.4821 7.3749 15.1354Z" fill="white"/>
</svg>
