<svg xmlns="http://www.w3.org/2000/svg" width="35" height="35" fill="#3e3465" xmlns:v="https://vecta.io/nano"><path d="M24.444 10.515a.5.5 0 0 0 .499-.499.5.5 0 0 0-.499-.499.5.5 0 0 0-.499.499.5.5 0 0 0 .499.499zm3.735.869a.5.5 0 0 0-.499.499.5.5 0 0 0 .499.499.5.5 0 0 0 .499-.499.5.5 0 0 0-.499-.499zm-.39-2.751c.119 0 .239-.046.33-.137.182-.182.182-.478 0-.66l-.37-.37.37-.37c.182-.182.182-.478 0-.66s-.478-.182-.66 0l-.37.37-.37-.37c-.182-.182-.478-.182-.66 0s-.182.478 0 .66l.37.37-.37.37c-.182.182-.182.478 0 .66.091.091.211.137.33.137s.239-.046.33-.137l.37-.37.37.37c.091.091.211.137.33.137zm-6.533 4.153V4.901a2.37 2.37 0 0 0-2.368-2.368H8.69a2.37 2.37 0 0 0-2.368 2.368v21.398a2.37 2.37 0 0 0 2.368 2.368h8.83a2.7 2.7 0 0 0 .966.682l1.369.564v2.021c0 .258.209.467.467.467s.467-.209.467-.467V29.6c0-.189-.114-.36-.289-.431l-1.294-.533c.815-.11 1.502-.624 1.834-1.348l.386.339c.087.071.192.106.296.106.135 0 .269-.058.361-.17.164-.199.135-.493-.064-.657-2.89-2.373-2.315-4.805-2.29-4.905.041-.154.001-.317-.106-.435l-2.416-2.645c-.659-.722-.601-1.852.13-2.519l.156-.142 4.396 4.815c.174.19.469.204.659.03s.204-.469.03-.659l-1.322-1.448v-4.611l4.667 6.498V32c0 .258.209.467.467.467s.467-.209.467-.467V20.733c0-.098-.031-.193-.088-.272l-5.512-7.675zm-5.188-9.319c-.111.273-.377.467-.69.467h-3.177c-.312 0-.579-.194-.69-.467h4.557zm-.148 14.967h-5.878c-.249 0-.452-.203-.452-.452v-.963c0-.249.203-.452.452-.452h6.037c-.276.586-.325 1.248-.159 1.867h0zm1.948-3.148c-.173-.19-.469-.204-.659-.03l-.414.378h-6.753c-.764 0-1.385.621-1.385 1.385v.963c0 .764.621 1.385 1.385 1.385h6.34c.047.061.084.126.136.183l2.259 2.474c-.097.675-.157 2.536 1.522 4.499-.108.689-.696 1.21-1.41 1.21H8.69c-.791 0-1.434-.643-1.434-1.435V4.901c0-.791.644-1.434 1.434-1.434h1.86c.134.793.82 1.4 1.65 1.4h3.177c.83 0 1.517-.607 1.65-1.4h1.86c.791 0 1.435.644 1.435 1.434v13.073l-2.455-2.689zm-1.746 11.048h-4.667c-.258 0-.467.209-.467.467s.209.467.467.467h4.667c.258 0 .467-.209.467-.467s-.209-.467-.467-.467zM19.389 9.1h-1.4v-.933c0-.258-.209-.467-.467-.467h-1.4c-.258 0-.467.209-.467.467v1.4h-3.733v-1.4c0-.258-.209-.467-.467-.467h-1.4c-.258 0-.467.209-.467.467V9.1h-1.4c-.258 0-.467.209-.467.467V11.9c0 .258.209.467.467.467h1.4v.933c0 .258.209.467.467.467h1.4c.258 0 .467-.209.467-.467v-1.4h3.733v1.4c0 .258.209.467.467.467h1.4c.258 0 .467-.209.467-.467v-.933h1.4c.258 0 .467-.209.467-.467V9.567c0-.258-.209-.467-.467-.467zM8.656 11.433v-1.4h.933v1.4h-.933zm2.333 1.4h-.467v-4.2h.467v4.2zm.933-1.867V10.5h3.733v.467h-3.733zm5.133 1.867h-.467v-4.2h.467v4.2zm1.867-1.4h-.933v-1.4h.933v1.4zm-7.934 12.6c-.258 0-.467.209-.467.467s.209.467.467.467h1.465a.87.87 0 0 0 .868-.868v-1.064a.87.87 0 0 0-.868-.868h-.999V21.7h1.4c.258 0 .467-.209.467-.467s-.209-.467-.467-.467h-1.867c-.258 0-.467.209-.467.467v1.4c0 .258.209.467.467.467h1.4v.933h-1.4 0zm3.268 0c-.258 0-.467.209-.467.467s.209.467.467.467h1.466a.87.87 0 0 0 .868-.868v-1.064a.87.87 0 0 0-.868-.868h-.999V21.7h1.4c.258 0 .467-.209.467-.467s-.209-.467-.467-.467h-1.867c-.258 0-.467.209-.467.467v1.4c0 .258.209.467.467.467h1.4v.933h-1.4 0z"/></svg>