<svg xmlns="http://www.w3.org/2000/svg" width="35" height="36" fill="#3e3465" xmlns:v="https://vecta.io/nano"><path d="M21.973 16.742a.51.51 0 0 0-.414-.349l-2.487-.361-1.112-2.254c-.086-.175-.265-.286-.46-.286s-.373.111-.46.286l-1.112 2.254-2.487.361a.51.51 0 0 0-.414.349c-.06.186-.01.389.13.526l1.8 1.754-.425 2.477a.51.51 0 0 0 .204.501c.158.114.367.13.54.039L17.5 20.87l2.224 1.17a.51.51 0 0 0 .744-.54l-.425-2.477 1.8-1.754c.14-.136.19-.34.13-.526zm-2.838 1.734a.51.51 0 0 0-.147.454l.295 1.719-1.544-.812a.52.52 0 0 0-.239-.059.52.52 0 0 0-.239.059l-1.544.812.295-1.719c.029-.166-.027-.336-.147-.454l-1.249-1.217 1.726-.251a.51.51 0 0 0 .386-.28l.772-1.564.772 1.564c.075.151.219.256.386.281l1.726.251-1.249 1.217zm11.041-2.666a.51.51 0 0 0-.414-.349l-1.313-.191-.587-1.19c-.086-.175-.265-.286-.46-.286s-.373.111-.46.286l-.587 1.19-1.313.191a.51.51 0 0 0-.414.349c-.06.186-.01.389.13.526l.951.926-.224 1.308a.51.51 0 0 0 .505.599.51.51 0 0 0 .239-.059l1.175-.618 1.175.618a.51.51 0 0 0 .744-.54l-.224-1.308.95-.927c.14-.136.19-.34.13-.526zm-1.989.906a.51.51 0 0 0-.147.454l.094.55-.494-.26a.52.52 0 0 0-.239-.059.52.52 0 0 0-.239.059l-.494.26.094-.55c.029-.166-.027-.336-.147-.454l-.399-.389.552-.08a.51.51 0 0 0 .386-.28l.247-.5.247.5a.51.51 0 0 0 .386.28l.552.08-.4.389zm-17.814 1.72a.51.51 0 0 0-.414-.349l-1.313-.191-.587-1.19c-.086-.175-.265-.286-.46-.286s-.373.111-.46.286l-.587 1.19-1.313.191a.51.51 0 0 0-.414.349c-.06.186-.01.389.13.526l.95.926-.224 1.308a.51.51 0 0 0 .204.501c.158.114.367.13.54.039l1.175-.617 1.175.617a.51.51 0 0 0 .744-.54l-.224-1.308.95-.926c.14-.136.19-.34.13-.526zm-1.989.906a.51.51 0 0 0-.147.454l.094.55-.494-.26c-.149-.078-.328-.078-.477 0l-.494.26.094-.55c.029-.166-.027-.336-.147-.454l-.399-.389.552-.08a.51.51 0 0 0 .386-.28l.247-.5.247.5c.075.151.219.256.386.28l.552.08-.399.389zm26.444-9.454c-.109-.097-.255-.143-.4-.126l-4.912.569a14.3 14.3 0 0 0-2.768-3.178c-.215-.184-.539-.158-.723.057s-.158.539.057.723c.873.745 1.638 1.596 2.287 2.531l-1.76.204c-1.043-1.293-2.366-2.366-3.845-3.113a11.57 11.57 0 0 0-5.265-1.25A11.72 11.72 0 0 0 6.95 12.947l-1.762.204A13.19 13.19 0 0 1 17.5 4.772a13.2 13.2 0 0 1 6.935 1.961c.241.149.557.074.706-.167a.51.51 0 0 0-.167-.705A14.22 14.22 0 0 0 17.5 3.746a14.14 14.14 0 0 0-8.461 2.782c-2.325 1.718-4.046 4.049-4.994 6.757l-3.592.416c-.259.03-.454.249-.454.509v11.518a.51.51 0 0 0 .172.383c.094.084.216.13.341.13a.51.51 0 0 0 .059-.003l4.913-.57a14.35 14.35 0 0 0 4.919 4.696 14.25 14.25 0 0 0 7.097 1.89 14.14 14.14 0 0 0 8.462-2.782c2.325-1.718 4.046-4.049 4.993-6.756l3.592-.416c.259-.03.454-.249.454-.509v-11.52a.51.51 0 0 0-.172-.383zM17.5 31.228c-4.39 0-8.395-2.114-10.87-5.693l1.76-.204a11.81 11.81 0 0 0 3.845 3.113c1.642.829 3.413 1.25 5.265 1.25a11.58 11.58 0 0 0 5.051-1.144c.255-.123.363-.429.241-.684a.51.51 0 0 0-.684-.24 10.56 10.56 0 0 1-4.607 1.043c-3.038 0-5.864-1.258-7.884-3.48l17.204-1.995a10.73 10.73 0 0 1-2.964 3.376c-.227.169-.275.49-.106.717a.51.51 0 0 0 .717.106 11.75 11.75 0 0 0 3.581-4.341l1.763-.204a13.19 13.19 0 0 1-12.312 8.38zm16.475-9.896l-32.949 3.82V14.667l9.161-1.062c.281-.033.483-.287.45-.568s-.287-.483-.568-.45l-1.886.219A10.69 10.69 0 0 1 17.5 7.331c3.038 0 5.863 1.258 7.883 3.48l-13.165 1.526c-.281.033-.483.287-.45.568s.287.483.568.45l21.639-2.509v10.486zM18.857 8.372h-2.713c-.283 0-.513.229-.513.513a.51.51 0 0 0 .513.513h2.713c.283 0 .513-.229.513-.513a.51.51 0 0 0-.513-.513zm1.378 1.545h-5.469c-.283 0-.513.23-.513.513s.229.513.513.513h5.469c.283 0 .513-.229.513-.513a.51.51 0 0 0-.513-.513zm-1.378 16.827h-2.713c-.283 0-.513.23-.513.513s.229.513.513.513h2.713c.283 0 .513-.23.513-.513s-.23-.513-.513-.513zm1.378-1.544h-5.469c-.283 0-.513.229-.513.513a.51.51 0 0 0 .513.513h5.469c.283 0 .513-.229.513-.513a.51.51 0 0 0-.513-.513z"/></svg>