<svg width="35" height="35" viewBox="0 0 35 35" fill="none" xmlns="http://www.w3.org/2000/svg">
<path d="M12.0312 28.4375H19.6875V29.5312H12.0312V28.4375Z" fill="#3E3465"/>
<path d="M31.7188 3.28125H30.625V2.73438C30.625 2.29925 30.4521 1.88195 30.1445 1.57428C29.8368 1.2666 29.4195 1.09375 28.9844 1.09375C28.5493 1.09375 28.132 1.2666 27.8243 1.57428C27.5166 1.88195 27.3438 2.29925 27.3438 2.73438V3.28125H25.1562V2.73438C25.1562 2.29925 24.9834 1.88195 24.6757 1.57428C24.368 1.2666 23.9507 1.09375 23.5156 1.09375C23.0805 1.09375 22.6632 1.2666 22.3555 1.57428C22.0479 1.88195 21.875 2.29925 21.875 2.73438V3.28125H19.6875V2.73438C19.6875 2.29925 19.5146 1.88195 19.207 1.57428C18.8993 1.2666 18.482 1.09375 18.0469 1.09375C17.6118 1.09375 17.1945 1.2666 16.8868 1.57428C16.5791 1.88195 16.4062 2.29925 16.4062 2.73438V3.28125H14.2188V2.73438C14.2188 2.29925 14.0459 1.88195 13.7382 1.57428C13.4305 1.2666 13.0132 1.09375 12.5781 1.09375C12.143 1.09375 11.7257 1.2666 11.418 1.57428C11.1104 1.88195 10.9375 2.29925 10.9375 2.73438V3.28125H9.84375C9.26379 3.2819 8.70777 3.51258 8.29767 3.92267C7.88758 4.33277 7.6569 4.88879 7.65625 5.46875H8.75C8.75034 5.17877 8.86569 4.90078 9.07073 4.69573C9.27578 4.49069 9.55377 4.37534 9.84375 4.375H10.9375V4.92188C10.9375 5.357 11.1104 5.7743 11.418 6.08197C11.7257 6.38965 12.143 6.5625 12.5781 6.5625C13.0132 6.5625 13.4305 6.38965 13.7382 6.08197C14.0459 5.7743 14.2188 5.357 14.2188 4.92188V4.375H16.4062V4.92188C16.4062 5.357 16.5791 5.7743 16.8868 6.08197C17.1945 6.38965 17.6118 6.5625 18.0469 6.5625C18.482 6.5625 18.8993 6.38965 19.207 6.08197C19.5146 5.7743 19.6875 5.357 19.6875 4.92188V4.375H21.875V4.92188C21.875 5.357 22.0479 5.7743 22.3555 6.08197C22.6632 6.38965 23.0805 6.5625 23.5156 6.5625C23.9507 6.5625 24.368 6.38965 24.6757 6.08197C24.9834 5.7743 25.1562 5.357 25.1562 4.92188V4.375H27.3438V4.92188C27.3438 5.357 27.5166 5.7743 27.8243 6.08197C28.132 6.38965 28.5493 6.5625 28.9844 6.5625C29.4195 6.5625 29.8368 6.38965 30.1445 6.08197C30.4521 5.7743 30.625 5.357 30.625 4.92188V4.375H31.7188C32.0087 4.37534 32.2867 4.49069 32.4918 4.69573C32.6968 4.90078 32.8122 5.17877 32.8125 5.46875V9.29688H8.75V6.5625H7.65625V15.3125H8.75V10.3906H32.8125V25.1562C32.8122 25.4462 32.6968 25.7242 32.4918 25.9293C32.2867 26.1343 32.0087 26.2497 31.7188 26.25V27.3438C32.1029 27.344 32.4803 27.2425 32.8125 27.0495V27.3438C32.8122 27.6337 32.6968 27.9117 32.4918 28.1168C32.2867 28.3218 32.0087 28.4372 31.7188 28.4375H29.5312V29.5312H31.7188C32.2987 29.5306 32.8547 29.2999 33.2648 28.8898C33.6749 28.4797 33.9056 27.9237 33.9062 27.3438V5.46875C33.9056 4.88879 33.6749 4.33277 33.2648 3.92267C32.8547 3.51258 32.2987 3.2819 31.7188 3.28125ZM13.125 4.92188C13.125 5.06692 13.0674 5.20602 12.9648 5.30857C12.8623 5.41113 12.7232 5.46875 12.5781 5.46875C12.4331 5.46875 12.294 5.41113 12.1914 5.30857C12.0889 5.20602 12.0312 5.06692 12.0312 4.92188V2.73438C12.0312 2.58933 12.0889 2.45024 12.1914 2.34768C12.294 2.24512 12.4331 2.1875 12.5781 2.1875C12.7232 2.1875 12.8623 2.24512 12.9648 2.34768C13.0674 2.45024 13.125 2.58933 13.125 2.73438V4.92188ZM18.5938 4.92188C18.5938 5.06692 18.5361 5.20602 18.4336 5.30857C18.331 5.41113 18.1919 5.46875 18.0469 5.46875C17.9018 5.46875 17.7627 5.41113 17.6602 5.30857C17.5576 5.20602 17.5 5.06692 17.5 4.92188V2.73438C17.5 2.58933 17.5576 2.45024 17.6602 2.34768C17.7627 2.24512 17.9018 2.1875 18.0469 2.1875C18.1919 2.1875 18.331 2.24512 18.4336 2.34768C18.5361 2.45024 18.5938 2.58933 18.5938 2.73438V4.92188ZM24.0625 4.92188C24.0625 5.06692 24.0049 5.20602 23.9023 5.30857C23.7998 5.41113 23.6607 5.46875 23.5156 5.46875C23.3706 5.46875 23.2315 5.41113 23.1289 5.30857C23.0264 5.20602 22.9688 5.06692 22.9688 4.92188V2.73438C22.9688 2.58933 23.0264 2.45024 23.1289 2.34768C23.2315 2.24512 23.3706 2.1875 23.5156 2.1875C23.6607 2.1875 23.7998 2.24512 23.9023 2.34768C24.0049 2.45024 24.0625 2.58933 24.0625 2.73438V4.92188ZM29.5312 4.92188C29.5312 5.06692 29.4736 5.20602 29.3711 5.30857C29.2685 5.41113 29.1294 5.46875 28.9844 5.46875C28.8393 5.46875 28.7002 5.41113 28.5977 5.30857C28.4951 5.20602 28.4375 5.06692 28.4375 4.92188V2.73438C28.4375 2.58933 28.4951 2.45024 28.5977 2.34768C28.7002 2.24512 28.8393 2.1875 28.9844 2.1875C29.1294 2.1875 29.2685 2.24512 29.3711 2.34768C29.4736 2.45024 29.5312 2.58933 29.5312 2.73438V4.92188Z" fill="#3E3465"/>
<path d="M15.8594 12.0312H16.9531V13.125H15.8594V12.0312Z" fill="#3E3465"/>
<path d="M11.4844 12.0312H12.5781V13.125H11.4844V12.0312Z" fill="#3E3465"/>
<path d="M24.6094 12.0312H25.7031V13.125H24.6094V12.0312Z" fill="#3E3465"/>
<path d="M28.9844 12.0312H30.0781V13.125H28.9844V12.0312Z" fill="#3E3465"/>
<path d="M20.2344 12.0312H21.3281V13.125H20.2344V12.0312Z" fill="#3E3465"/>
<path d="M15.8594 15.8594H16.9531V16.9531H15.8594V15.8594Z" fill="#3E3465"/>
<path d="M11.4844 15.8594H12.5781V16.9531H11.4844V15.8594Z" fill="#3E3465"/>
<path d="M24.6094 15.8594H25.7031V16.9531H24.6094V15.8594Z" fill="#3E3465"/>
<path d="M28.9844 15.8594H30.0781V16.9531H28.9844V15.8594Z" fill="#3E3465"/>
<path d="M20.2344 15.8594H21.3281V16.9531H20.2344V15.8594Z" fill="#3E3465"/>
<path d="M15.8594 19.6875H16.9531V20.7812H15.8594V19.6875Z" fill="#3E3465"/>
<path d="M11.4844 19.6875H12.5781V20.7812H11.4844V19.6875Z" fill="#3E3465"/>
<path d="M28.9844 19.6875H30.0781V20.7812H28.9844V19.6875Z" fill="#3E3465"/>
<path d="M30.0781 27.3438C30.2232 27.3438 30.3623 27.2861 30.4648 27.1836C30.5674 27.081 30.625 26.9419 30.625 26.7969V23.5156C30.625 23.3706 30.5674 23.2315 30.4648 23.1289C30.3623 23.0264 30.2232 22.9688 30.0781 22.9688H28.4375V20.7812C28.4378 20.3972 28.3369 20.0198 28.1449 19.6871C27.9529 19.3545 27.6767 19.0783 27.344 18.8863C27.0114 18.6944 26.634 18.5935 26.2499 18.5938C25.8658 18.5941 25.4886 18.6956 25.1562 18.888V18.5938C25.1562 18.0136 24.9258 17.4572 24.5155 17.047C24.1053 16.6367 23.5489 16.4062 22.9688 16.4062C22.3886 16.4062 21.8322 16.6367 21.422 17.047C21.0117 17.4572 20.7812 18.0136 20.7812 18.5938V19.6875H20.2344V20.7812H20.7812V22.9688H10.9375V18.5938C10.9375 18.0136 10.707 17.4572 10.2968 17.047C9.88656 16.6367 9.33016 16.4062 8.75 16.4062C8.16984 16.4062 7.61344 16.6367 7.2032 17.047C6.79297 17.4572 6.5625 18.0136 6.5625 18.5938V18.888C6.1277 18.6361 5.61935 18.5419 5.12314 18.621C4.62692 18.7002 4.17318 18.9481 3.83838 19.3228L4.65336 20.0522C4.80102 19.887 4.99534 19.7706 5.21062 19.7183C5.4259 19.6661 5.65198 19.6804 5.85894 19.7594C6.0659 19.8384 6.24398 19.9785 6.36962 20.1609C6.49525 20.3434 6.56251 20.5597 6.5625 20.7812V29.5312C6.5625 29.8213 6.44727 30.0995 6.24215 30.3046C6.03703 30.5098 5.75883 30.625 5.46875 30.625C5.17867 30.625 4.90047 30.5098 4.69535 30.3046C4.49023 30.0995 4.375 29.8213 4.375 29.5312V20.7812H3.28125V22.9688H1.64062C1.49558 22.9688 1.35648 23.0264 1.25393 23.1289C1.15137 23.2315 1.09375 23.3706 1.09375 23.5156V26.7969C1.09375 26.9419 1.15137 27.081 1.25393 27.1836C1.35648 27.2861 1.49558 27.3438 1.64062 27.3438H3.28125V29.5312C3.2809 29.9154 3.38178 30.2928 3.57372 30.6255C3.76565 30.9582 4.04187 31.2345 4.37456 31.4264C4.70724 31.6184 5.08464 31.7194 5.46875 31.7191C5.85286 31.7188 6.2301 31.6173 6.5625 31.4248V31.7188C6.5625 32.2989 6.79297 32.8553 7.2032 33.2655C7.61344 33.6758 8.16984 33.9062 8.75 33.9062C9.33016 33.9062 9.88656 33.6758 10.2968 33.2655C10.707 32.8553 10.9375 32.2989 10.9375 31.7188V27.3438H19.6875V26.25H10.9375V24.0625H20.7812V31.7188C20.7812 32.2989 21.0117 32.8553 21.422 33.2655C21.8322 33.6758 22.3886 33.9062 22.9688 33.9062C23.5489 33.9062 24.1053 33.6758 24.5155 33.2655C24.9258 32.8553 25.1562 32.2989 25.1562 31.7188V31.4248C25.4886 31.6173 25.8659 31.7188 26.25 31.7191C26.6341 31.7194 27.0115 31.6184 27.3442 31.4264C27.6769 31.2345 27.9531 30.9582 28.145 30.6255C28.337 30.2928 28.4378 29.9154 28.4375 29.5312V27.3438H30.0781ZM2.1875 26.25V24.0625H3.28125V26.25H2.1875ZM9.84375 31.7188C9.84375 32.0088 9.72852 32.287 9.5234 32.4921C9.31828 32.6973 9.04008 32.8125 8.75 32.8125C8.45992 32.8125 8.18172 32.6973 7.9766 32.4921C7.77148 32.287 7.65625 32.0088 7.65625 31.7188V18.5938C7.65625 18.3037 7.77148 18.0255 7.9766 17.8204C8.18172 17.6152 8.45992 17.5 8.75 17.5C9.04008 17.5 9.31828 17.6152 9.5234 17.8204C9.72852 18.0255 9.84375 18.3037 9.84375 18.5938V31.7188ZM24.0625 31.7188C24.0625 32.0088 23.9473 32.287 23.7421 32.4921C23.537 32.6973 23.2588 32.8125 22.9688 32.8125C22.6787 32.8125 22.4005 32.6973 22.1954 32.4921C21.9902 32.287 21.875 32.0088 21.875 31.7188V18.5938C21.875 18.3037 21.9902 18.0255 22.1954 17.8204C22.4005 17.6152 22.6787 17.5 22.9688 17.5C23.2588 17.5 23.537 17.6152 23.7421 17.8204C23.9473 18.0255 24.0625 18.3037 24.0625 18.5938V31.7188ZM27.3438 29.5312C27.3438 29.8213 27.2285 30.0995 27.0234 30.3046C26.8183 30.5098 26.5401 30.625 26.25 30.625C25.9599 30.625 25.6817 30.5098 25.4766 30.3046C25.2715 30.0995 25.1562 29.8213 25.1562 29.5312V20.7812C25.1562 20.4912 25.2715 20.213 25.4766 20.0079C25.6817 19.8027 25.9599 19.6875 26.25 19.6875C26.5401 19.6875 26.8183 19.8027 27.0234 20.0079C27.2285 20.213 27.3438 20.4912 27.3438 20.7812V29.5312ZM29.5312 24.0625V26.25H28.4375V24.0625H29.5312Z" fill="#3E3465"/>
</svg>
