<svg width="35" height="35" viewBox="0 0 35 35" fill="none" xmlns="http://www.w3.org/2000/svg">
<path d="M32.9492 13.7402H28.6426V3.89648C28.6426 2.76568 27.7226 1.8457 26.5918 1.8457H8.4082C7.2774 1.8457 6.35742 2.76568 6.35742 3.89648V10.0488H2.05078C0.91998 10.0488 0 10.9688 0 12.0996V24.6777C0 25.8085 0.91998 26.7285 2.05078 26.7285H8.12506L10.6592 29.2627C10.7927 29.3962 10.9676 29.4629 11.1426 29.4629C11.3175 29.4629 11.4925 29.3962 11.6259 29.2627L12.7148 28.1738V28.3691C12.7148 29.4999 13.6348 30.4199 14.7656 30.4199H20.8399L23.3741 32.9541C23.5076 33.0876 23.6825 33.1543 23.8574 33.1543C24.0324 33.1543 24.2074 33.0876 24.3408 32.9541L26.8749 30.4199H32.9492C34.08 30.4199 35 29.4999 35 28.3691V15.791C35 14.6602 34.08 13.7402 32.9492 13.7402ZM7.72461 3.89648C7.72461 3.51955 8.03127 3.21289 8.4082 3.21289H26.5918C26.9687 3.21289 27.2754 3.51955 27.2754 3.89648V16.4746C27.2754 16.8515 26.9687 17.1582 26.5918 17.1582H20.2344C20.0531 17.1582 19.8792 17.2303 19.751 17.3584L17.5 19.6094L15.249 17.3584C15.1208 17.2303 14.9469 17.1582 14.7656 17.1582H8.4082C8.03127 17.1582 7.72461 16.8515 7.72461 16.4746V3.89648ZM13.3936 25.5616L11.1426 27.8126L8.89157 25.5616C8.7634 25.4334 8.58949 25.3613 8.4082 25.3613H2.05078C1.67385 25.3613 1.36719 25.0547 1.36719 24.6777V12.0996C1.36719 11.7227 1.67385 11.416 2.05078 11.416H6.35742V16.4746C6.35742 17.6054 7.2774 18.5254 8.4082 18.5254H14.4825L17.0166 21.0595C17.1501 21.193 17.3251 21.2598 17.5 21.2598C17.6749 21.2598 17.8499 21.193 17.9834 21.0595L20.5175 18.5254H20.918V24.6777C20.918 25.0547 20.6113 25.3613 20.2344 25.3613H13.877C13.6957 25.3613 13.5218 25.4334 13.3936 25.5616ZM33.6328 28.3691C33.6328 28.7461 33.3262 29.0527 32.9492 29.0527H26.5918C26.4105 29.0527 26.2366 29.1248 26.1084 29.253L23.8574 31.504L21.6064 29.253C21.4782 29.1248 21.3043 29.0527 21.123 29.0527H14.7656C14.3887 29.0527 14.082 28.7461 14.082 28.3691V26.8066L14.1601 26.7285H20.2344C21.3652 26.7285 22.2852 25.8085 22.2852 24.6777V18.5254H26.5918C27.7226 18.5254 28.6426 17.6054 28.6426 16.4746V15.1074H32.9492C33.3262 15.1074 33.6328 15.4141 33.6328 15.791V28.3691Z" fill="#3E3465"/>
<path d="M23.8571 5.67383H11.1523C10.7748 5.67383 10.4688 5.97987 10.4688 6.35742C10.4688 6.73497 10.7748 7.04102 11.1523 7.04102H23.8571C24.2346 7.04102 24.5407 6.73497 24.5407 6.35742C24.5407 5.97987 24.2346 5.67383 23.8571 5.67383Z" fill="#3E3465"/>
<path d="M24.3407 9.70225C24.2136 9.5751 24.0372 9.50195 23.8574 9.50195C23.6776 9.50195 23.5013 9.5751 23.3741 9.70225C23.247 9.82939 23.1738 10.0058 23.1738 10.1855C23.1738 10.3653 23.247 10.5417 23.3741 10.6688C23.5013 10.796 23.6776 10.8691 23.8574 10.8691C24.0372 10.8691 24.2136 10.796 24.3407 10.6688C24.4679 10.5417 24.541 10.3653 24.541 10.1855C24.541 10.0058 24.4679 9.82939 24.3407 9.70225Z" fill="#3E3465"/>
<path d="M20.4627 9.50195H11.1523C10.7748 9.50195 10.4688 9.808 10.4688 10.1855C10.4688 10.5631 10.7748 10.8691 11.1523 10.8691H20.4627C20.8402 10.8691 21.1463 10.5631 21.1463 10.1855C21.1463 9.808 20.8402 9.50195 20.4627 9.50195Z" fill="#3E3465"/>
<path d="M23.8565 13.3301H14.4961C14.1185 13.3301 13.8125 13.6361 13.8125 14.0137C13.8125 14.3912 14.1185 14.6973 14.4961 14.6973H23.8565C24.234 14.6973 24.5401 14.3912 24.5401 14.0137C24.5401 13.6361 24.234 13.3301 23.8565 13.3301Z" fill="#3E3465"/>
<path d="M11.1998 13.3301H11.1426C10.765 13.3301 10.459 13.6361 10.459 14.0137C10.459 14.3912 10.765 14.6973 11.1426 14.6973H11.1998C11.5773 14.6973 11.8834 14.3912 11.8834 14.0137C11.8834 13.6361 11.5773 13.3301 11.1998 13.3301Z" fill="#3E3465"/>
</svg>
