<svg width="35" height="35" viewBox="0 0 35 35" fill="none" xmlns="http://www.w3.org/2000/svg">
<g clip-path="url(#clip0_1131_3251)">
<path d="M34.9325 19.1167C34.6183 15.9559 33.2062 12.976 30.9561 10.7259C29.0333 8.80313 26.6798 7.56752 24.2034 7.01811V5.28121C25.2148 5.02957 25.9666 4.11402 25.9666 3.02579C25.9666 1.74417 24.924 0.701538 23.6424 0.701538H18.7204C17.4388 0.701538 16.3962 1.74417 16.3962 3.02579C16.3962 4.11395 17.148 5.0295 18.1594 5.28121V7.02296C15.6906 7.5747 13.3448 8.8086 11.4275 10.726C11.0079 11.1456 10.621 11.5857 10.2668 12.0432C10.2496 12.0419 10.2325 12.0406 10.215 12.0406H5.34353C4.96604 12.0406 4.65993 12.3467 4.65993 12.7242C4.65993 13.1018 4.96604 13.4078 5.34353 13.4078H9.3366C8.83538 14.2469 8.43124 15.1282 8.12361 16.0353H0.683604C0.306118 16.0353 0 16.3414 0 16.7189C0 17.0965 0.306118 17.4025 0.683604 17.4025H7.73731C7.54029 18.2674 7.42723 19.1475 7.39804 20.0301H4.37507C3.99758 20.0301 3.69146 20.3362 3.69146 20.7137C3.69146 21.0913 3.99758 21.3973 4.37507 21.3973H7.41984C7.47754 22.2822 7.6198 23.1624 7.84669 24.0249H3.41802C3.04054 24.0249 2.73442 24.3309 2.73442 24.7085C2.73442 25.086 3.04054 25.3921 3.41802 25.3921H8.28296C8.95358 27.1661 10.0016 28.8288 11.4275 30.2547C13.6797 32.5069 16.6627 33.9194 19.8268 34.232C20.2784 34.2765 20.7303 34.2986 21.1816 34.2986C23.8492 34.2986 26.4828 33.5266 28.7175 32.0714C29.0339 31.8653 29.1234 31.4418 28.9174 31.1255C28.7113 30.8091 28.2878 30.7196 27.9715 30.9257C23.0798 34.111 16.5286 33.4223 12.3942 29.2879C7.54323 24.437 7.54323 16.5439 12.3942 11.6928C17.2452 6.84188 25.1383 6.84188 29.9893 11.6928C34.1182 15.8218 34.8107 22.3673 31.6358 27.2566C31.4302 27.5733 31.5203 27.9967 31.8368 28.2022C32.1536 28.4079 32.5769 28.3178 32.7825 28.0012C34.4788 25.3888 35.2423 22.2336 34.9325 19.1167ZM17.7634 3.02586C17.7634 2.49812 18.1927 2.06881 18.7204 2.06881H23.6424C24.1701 2.06881 24.5994 2.49812 24.5994 3.02586C24.5994 3.5536 24.1701 3.98291 23.6424 3.98291H23.5198H18.843H18.7204C18.1927 3.98291 17.7634 3.55353 17.7634 3.02586ZM19.5266 6.78794V5.35011H22.8361V6.78548C21.7372 6.65477 20.6254 6.65559 19.5266 6.78794Z" fill="#3E3465"/>
<path d="M30.4727 29.0874C30.2922 29.0874 30.1165 29.1605 29.9894 29.2877C29.8616 29.4148 29.7891 29.5912 29.7891 29.771C29.7891 29.9508 29.8616 30.1271 29.9894 30.2543C30.1165 30.3821 30.2923 30.4546 30.4727 30.4546C30.6524 30.4546 30.8281 30.3821 30.956 30.2543C31.0831 30.1271 31.1562 29.9508 31.1562 29.771C31.1562 29.5912 31.0832 29.4148 30.956 29.2877C30.8281 29.1605 30.6524 29.0874 30.4727 29.0874Z" fill="#3E3465"/>
<path d="M21.1926 9.88556C15.3452 9.88556 10.5879 14.6428 10.5879 20.4902C10.5879 26.3377 15.3452 31.0949 21.1926 31.0949C27.04 31.0949 31.7973 26.3377 31.7973 20.4902C31.7973 14.6428 27.04 9.88556 21.1926 9.88556ZM21.1926 29.7277C16.099 29.7277 11.9551 25.5838 11.9551 20.4902C11.9551 15.3967 16.099 11.2528 21.1926 11.2528C26.2862 11.2528 30.4301 15.3967 30.4301 20.4902C30.4301 25.5838 26.2862 29.7277 21.1926 29.7277Z" fill="#3E3465"/>
<path d="M25.5152 15.1993L22.1293 18.5851C21.8462 18.4451 21.5277 18.366 21.191 18.366C20.8543 18.366 20.5358 18.4451 20.2527 18.5851L18.7373 17.0698C18.4703 16.8028 18.0376 16.8028 17.7705 17.0698C17.5036 17.3367 17.5036 17.7696 17.7705 18.0365L19.2859 19.5519C19.1458 19.835 19.0668 20.1535 19.0668 20.4902C19.0668 21.6615 20.0196 22.6144 21.191 22.6144C22.3624 22.6144 23.3152 21.6615 23.3152 20.4902C23.3152 20.1535 23.2361 19.835 23.0961 19.5519L26.3826 16.2654L26.482 16.166C26.7489 15.8991 26.7489 15.4662 26.482 15.1993C26.215 14.9323 25.7823 14.9323 25.5152 15.1993ZM21.191 21.2473C20.7736 21.2473 20.434 20.9077 20.434 20.4903C20.434 20.0729 20.7736 19.7332 21.191 19.7332C21.6084 19.7332 21.948 20.0729 21.948 20.4903C21.948 20.9077 21.6084 21.2473 21.191 21.2473Z" fill="#3E3465"/>
<path d="M28.5005 19.8149H27.8672C27.4897 19.8149 27.1836 20.121 27.1836 20.4985C27.1836 20.8761 27.4897 21.1821 27.8672 21.1821H28.5005C28.878 21.1821 29.1841 20.8761 29.1841 20.4985C29.1841 20.121 28.878 19.8149 28.5005 19.8149Z" fill="#3E3465"/>
<path d="M14.5161 19.7983H13.8828C13.5053 19.7983 13.1992 20.1043 13.1992 20.4819C13.1992 20.8594 13.5053 21.1655 13.8828 21.1655H14.5161C14.8936 21.1655 15.1997 20.8594 15.1997 20.4819C15.1997 20.1043 14.8936 19.7983 14.5161 19.7983Z" fill="#3E3465"/>
<path d="M21.1992 14.4981C21.5767 14.4981 21.8828 14.192 21.8828 13.8145V13.1812C21.8828 12.8037 21.5767 12.4976 21.1992 12.4976C20.8217 12.4976 20.5156 12.8037 20.5156 13.1812V13.8145C20.5156 14.192 20.8217 14.4981 21.1992 14.4981Z" fill="#3E3465"/>
<path d="M21.1836 26.4824C20.8061 26.4824 20.5 26.7884 20.5 27.166V27.7992C20.5 28.1768 20.8061 28.4828 21.1836 28.4828C21.5611 28.4828 21.8672 28.1768 21.8672 27.7992V27.166C21.8672 26.7884 21.5611 26.4824 21.1836 26.4824Z" fill="#3E3465"/>
<path d="M0.683594 24.0246C0.503809 24.0246 0.327441 24.0977 0.200293 24.2249C0.0731445 24.352 0 24.5284 0 24.7082C0 24.8887 0.0730762 25.0643 0.200293 25.1915C0.32751 25.3186 0.503809 25.3918 0.683594 25.3918C0.863379 25.3918 1.03975 25.3186 1.16683 25.1915C1.29397 25.0643 1.36719 24.888 1.36719 24.7082C1.36719 24.5284 1.29404 24.352 1.16683 24.2249C1.03975 24.0977 0.863379 24.0246 0.683594 24.0246Z" fill="#3E3465"/>
</g>
<defs>
<clipPath id="clip0_1131_3251">
<rect width="35" height="35" fill="white"/>
</clipPath>
</defs>
</svg>
