<svg xmlns="http://www.w3.org/2000/svg" width="35" height="35" fill="#3e3465" xmlns:v="https://vecta.io/nano"><path d="M6.397 3.778c-1.275 0-2.313 1.037-2.313 2.312s1.037 2.312 2.313 2.312S8.711 7.365 8.711 6.09 7.673 3.778 6.397 3.778zm0 3.245c-.515 0-.934-.419-.934-.933s.419-.933.934-.933.936.419.936.933-.42.933-.936.933zm20.22-3.245h-6.113c-1.275 0-2.313 1.037-2.313 2.312s1.037 2.312 2.313 2.312h6.113c1.275 0 2.313-1.037 2.313-2.312s-1.037-2.312-2.313-2.312zm0 3.245h-6.113c-.515 0-.934-.419-.934-.933s.419-.933.934-.933h6.113c.515 0 .934.419.934.933s-.419.933-.934.933zM12.389 3.778c-1.275 0-2.313 1.037-2.313 2.312s1.037 2.312 2.313 2.312 2.315-1.037 2.315-2.312-1.038-2.312-2.315-2.312zm0 3.245c-.515 0-.934-.419-.934-.933s.419-.933.934-.933.936.419.936.933-.42.933-.936.933zm-1.125 8.183a.69.69 0 0 0-.831.51l-1.368 5.723a.69.69 0 0 0 .671.85.69.69 0 0 0 .67-.529l1.368-5.723a.69.69 0 0 0-.51-.831z"/><path d="M13.795 21.597c.131.117.295.175.458.175a.69.69 0 0 0 .515-.231l1.933-2.17c.319-.355.319-.911.002-1.264l-1.935-2.172a.69.69 0 0 0-.973-.056.69.69 0 0 0-.056.973l1.68 1.886-1.68 1.886a.69.69 0 0 0 .056.973zm-6.749-5.718a.69.69 0 0 0-.973.056l-1.933 2.17c-.319.355-.319.912-.002 1.264l1.935 2.172c.136.153.325.231.515.231a.68.68 0 0 0 .458-.175.69.69 0 0 0 .056-.973l-1.68-1.886 1.68-1.886a.69.69 0 0 0-.056-.973zm26.409 7.331h-.256a7.27 7.27 0 0 0-.52-1.254l.183-.183a1.53 1.53 0 0 0 .453-1.09c.001-.414-.16-.803-.452-1.095l-.356-.356V4.549c0-2.056-1.451-3.729-3.235-3.729H3.235C1.451.82 0 2.493 0 4.549v19.267c0 2.056 1.451 3.729 3.235 3.729H7.28a.69.69 0 0 0 .689-.689.69.69 0 0 0-.689-.689H3.235c-1.006 0-1.856-1.076-1.856-2.35V11.31h29.75v6.966a1.57 1.57 0 0 0-.239-.02 1.53 1.53 0 0 0-1.09.451l-.186.186c-.409-.216-.835-.392-1.274-.526v-.245a1.55 1.55 0 0 0-1.546-1.545h-1.247c-.851 0-1.544.693-1.544 1.545v.262c-.431.136-.847.31-1.245.521l-.178-.178a1.53 1.53 0 0 0-1.09-.453 1.54 1.54 0 0 0-1.095.451l-.881.881c-.292.292-.453.681-.452 1.095a1.53 1.53 0 0 0 .451 1.088l.19.191a7.28 7.28 0 0 0-.508 1.231h-.262c-.851 0-1.544.692-1.544 1.543v1.249c0 .056.003.11.009.164h-4.011a.69.69 0 0 0-.689.689.69.69 0 0 0 .689.689h5.546.264c.133.429.306.844.516 1.241l-.186.186a1.55 1.55 0 0 0 .001 2.182l.882.881a1.53 1.53 0 0 0 1.09.453h.002c.413 0 .801-.16 1.093-.452l.185-.184a7.26 7.26 0 0 0 1.246.516v.267c0 .852.692 1.545 1.544 1.545h1.249c.851 0 1.544-.693 1.544-1.545v-.265a7.27 7.27 0 0 0 1.251-.518l.184.183a1.53 1.53 0 0 0 1.09.453h.002c.413 0 .801-.16 1.093-.452l.879-.881a1.53 1.53 0 0 0 .453-1.09c.001-.414-.16-.803-.452-1.095l-.184-.184a7.28 7.28 0 0 0 .515-1.241h.261c.852 0 1.546-.692 1.546-1.543v-1.249c0-.851-.693-1.543-1.545-1.543zM1.379 9.931V4.549c0-1.274.85-2.35 1.856-2.35h26.038c1.006 0 1.856 1.076 1.856 2.35v5.382H1.379h0zm32.243 16.071a.17.17 0 0 1-.167.164h-.788a.69.69 0 0 0-.672.535c-.149.65-.405 1.266-.76 1.832a.69.69 0 0 0 .096.854l.558.558c.042.042.048.091.048.117a.16.16 0 0 1-.048.116l-.881.882c-.042.042-.092.048-.118.048a.16.16 0 0 1-.117-.049l-.56-.557a.69.69 0 0 0-.854-.095 5.89 5.89 0 0 1-1.839.761.69.69 0 0 0-.536.672v.794a.17.17 0 0 1-.165.166H25.57a.17.17 0 0 1-.165-.166v-.796a.69.69 0 0 0-.537-.672c-.646-.146-1.263-.402-1.836-.76-.113-.071-.24-.105-.366-.105a.69.69 0 0 0-.487.202l-.558.558c-.042.042-.092.048-.118.048a.16.16 0 0 1-.116-.048l-.883-.883a.17.17 0 0 1-.001-.232l.56-.558a.69.69 0 0 0 .096-.857c-.356-.564-.612-1.18-.761-1.83a.69.69 0 0 0-.672-.535h-.792c-.089 0-.165-.075-.165-.164v-1.249c0-.089.076-.164.165-.164h.79a.69.69 0 0 0 .672-.536c.147-.646.4-1.26.751-1.823a.69.69 0 0 0-.097-.852l-.564-.566c-.038-.038-.046-.083-.046-.114s.006-.076.048-.117l.881-.881c.042-.042.092-.048.118-.048h0c.031 0 .076.008.117.049l.556.554a.69.69 0 0 0 .856.094c.563-.357 1.18-.616 1.834-.769a.69.69 0 0 0 .532-.671v-.788c0-.09.075-.166.165-.166h1.247a.17.17 0 0 1 .167.166v.776a.69.69 0 0 0 .54.673 5.91 5.91 0 0 1 1.86.767.69.69 0 0 0 .853-.096l.562-.56a.16.16 0 0 1 .114-.047h0c.026 0 .076.006.118.048l.881.881c.042.042.048.091.048.117a.16.16 0 0 1-.049.116l-.558.559a.69.69 0 0 0-.095.855 5.9 5.9 0 0 1 .763 1.842.69.69 0 0 0 .672.536h.785a.17.17 0 0 1 .167.164v1.249zm-7.427-4.834a4.22 4.22 0 0 0-4.213 4.211c0 2.321 1.89 4.209 4.213 4.209s4.211-1.888 4.211-4.209a4.22 4.22 0 0 0-4.211-4.211zm0 7.041c-1.563 0-2.834-1.27-2.834-2.83a2.84 2.84 0 0 1 2.834-2.832c1.563 0 2.832 1.271 2.832 2.832s-1.271 2.83-2.832 2.83zm-15.842-2.042h-.014a.69.69 0 0 0-.689.689.69.69 0 0 0 .689.689h.014a.69.69 0 0 0 .689-.689.69.69 0 0 0-.689-.689z"/></svg>