<svg width="35" height="35" viewBox="0 0 35 35" fill="none" xmlns="http://www.w3.org/2000/svg">
<g clip-path="url(#clip0_1131_3452)">
<path d="M7.00116 5.83371H7.58462C7.90665 5.83371 8.16781 5.57256 8.16781 5.25052C8.16781 4.92821 7.90665 4.66706 7.58462 4.66706H7.00116C6.67912 4.66706 6.41797 4.92821 6.41797 5.25052C6.41797 5.57256 6.67912 5.83371 7.00116 5.83371Z" fill="#3E3465"/>
<path d="M9.91743 5.83369H17.5007C17.8227 5.83369 18.0839 5.57254 18.0839 5.25051C18.0839 4.92821 17.8227 4.66706 17.5007 4.66706H9.91743C9.5954 4.66706 9.33398 4.92821 9.33398 5.25051C9.33398 5.57254 9.5954 5.83369 9.91743 5.83369Z" fill="#3E3465"/>
<path d="M29.7047 18.6669H28.4371C28.4331 18.6669 28.4288 18.6669 28.4248 18.6669C28.1594 18.6674 27.8956 18.7067 27.6413 18.7836C27.6216 18.7881 27.6021 18.7937 27.5831 18.8004C27.2742 18.9075 26.9871 19.0699 26.7361 19.2795C26.8627 17.9377 27.5271 15.9895 30.0483 14.5008C30.3167 14.3334 30.4027 13.9822 30.2419 13.7096C30.0809 13.437 29.7322 13.3422 29.4555 13.4962C27.8894 14.347 26.6678 15.716 25.9999 17.3684C25.969 17.2674 25.9359 17.1689 25.8995 17.0768C25.6074 16.3083 25.126 15.626 24.4995 15.0936V5.25051C24.4995 4.28388 23.7161 3.50043 22.7497 3.50043H20.3091C20.0626 2.80376 19.4052 2.337 18.6664 2.3338H15.5414C15.0511 0.935922 13.7312 0 12.2498 0C10.7683 0 9.44841 0.935922 8.95815 2.3338H5.83316C5.0943 2.337 4.43689 2.80376 4.19069 3.50043H1.75008C0.783451 3.50043 0 4.28388 0 5.25051V33.2499C0 34.2166 0.783451 35 1.75008 35H22.7497C23.0224 35.0003 23.2912 34.9354 23.5337 34.8104C24.0664 34.9354 24.612 34.9992 25.1594 35H27.3399C31.5631 35 34.9995 31.3372 34.9995 26.8333V24.3075C34.9995 21.1986 32.6243 18.6669 29.7047 18.6669ZM24.8088 17.4944C24.9604 17.9521 25.0696 18.4226 25.1348 18.9003C25.0766 18.8752 25.0245 18.8418 24.9658 18.8226C24.6787 18.7195 24.3759 18.6669 24.071 18.6669C24.0662 18.6669 24.0627 18.6669 24.0581 18.6669H22.7946C22.6346 18.6669 22.4774 18.6779 22.3209 18.6925C22.3065 18.6885 22.2958 18.6792 22.2806 18.6763C20.35 18.2896 20.3767 16.0373 20.4496 15.2311C20.8218 15.1881 21.1962 15.1673 21.5708 15.1686H21.5831C23.0432 15.1817 24.3364 16.115 24.8088 17.4968V17.4944ZM18.8821 31.5001H3.4999V7.00033H4.19069C4.43689 7.69699 5.0943 8.16402 5.83316 8.16696H18.6664C19.4052 8.16402 20.0626 7.69699 20.3091 7.00033H20.9996V14.0089C19.4931 14.0626 19.3932 14.4821 19.3395 14.7219C19.1342 15.9219 19.2386 18.0469 20.6274 19.1687C18.6869 20.1414 17.4722 22.1372 17.4997 24.3075V26.8333C17.4949 28.4905 17.9756 30.1129 18.8821 31.5001ZM23.3329 5.25051V14.3788C22.9596 14.222 22.5673 14.1147 22.1663 14.0591V7.00033C22.1663 6.35599 21.644 5.83369 20.9996 5.83369H20.4165V4.66706H22.7497C23.0718 4.66706 23.3329 4.92821 23.3329 5.25051ZM5.83316 3.50043H9.39153C9.41129 3.49749 9.43052 3.49349 9.44974 3.48815C9.48633 3.48441 9.52211 3.4772 9.55709 3.46652C9.5942 3.45557 9.62999 3.44062 9.6639 3.42219C9.76083 3.37012 9.8404 3.29055 9.89247 3.19362C9.91143 3.15971 9.92665 3.12392 9.9376 3.08681C9.94641 3.06918 9.95415 3.05129 9.96083 3.0326C10.1827 1.94661 11.1384 1.16663 12.2468 1.16663C13.3555 1.16663 14.3109 1.94661 14.5328 3.0326C14.5398 3.0537 14.5481 3.07426 14.5574 3.09455C14.5665 3.12286 14.5774 3.15089 14.5902 3.17786C14.6097 3.21551 14.6338 3.25103 14.6613 3.28334C14.6781 3.3055 14.6962 3.32606 14.716 3.34529C14.7507 3.3752 14.7886 3.40083 14.8292 3.42166C14.9112 3.47747 15.0092 3.50524 15.108 3.50043H18.6664C18.9887 3.50043 19.2498 3.76158 19.2498 4.08388V6.41714C19.2498 6.73918 18.9887 7.00033 18.6664 7.00033H5.83316C5.51113 7.00033 5.24998 6.73918 5.24998 6.41714V4.08388C5.24998 3.76158 5.51113 3.50043 5.83316 3.50043ZM1.75008 33.8334C1.42778 33.8334 1.16663 33.5722 1.16663 33.2499V5.25051C1.16663 4.92821 1.42778 4.66706 1.75008 4.66706H4.08334V5.83369H3.4999C2.85556 5.83369 2.33326 6.35599 2.33326 7.00033V31.5001C2.33326 32.1445 2.85556 32.6668 3.4999 32.6668H19.8084C20.2357 33.1106 20.7137 33.502 21.233 33.8334H1.75008ZM33.8329 26.8333C33.8329 30.6926 30.9196 33.8334 27.3399 33.8334H25.1594C21.5796 33.8334 18.6664 30.694 18.6664 26.8333V24.3075C18.6664 21.8418 20.5185 19.8335 22.7946 19.8335H24.0808C24.2477 19.8351 24.413 19.8648 24.5703 19.9211C25.2485 20.1927 25.6859 20.8584 25.6662 21.5887V22.1668C25.6662 22.4891 25.9273 22.7503 26.2496 22.7503C26.5716 22.7503 26.8328 22.4891 26.8328 22.1668V21.5871C26.8112 20.8576 27.2451 20.1914 27.9215 19.9169L27.9495 19.9088C28.1004 19.8602 28.2576 19.8346 28.416 19.8325H29.7041C31.9808 19.8335 33.8329 21.8418 33.8329 24.3075V26.8333Z" fill="#3E3465"/>
<path d="M21.983 21.0301C21.8949 21.0587 19.834 21.7778 19.834 24.5001C19.834 24.8224 20.0951 25.0836 20.4174 25.0836C20.7395 25.0836 21.0006 24.8224 21.0006 24.5001C21.0006 22.6488 22.2909 22.1588 22.3569 22.1353C22.6621 22.0322 22.826 21.7009 22.7227 21.3957C22.6194 21.0904 22.2882 20.9267 21.983 21.0301Z" fill="#3E3465"/>
<path d="M7.58472 9.91704H5.83462C5.19028 9.91704 4.66797 10.4393 4.66797 11.0837V12.8338C4.66797 13.4781 5.19028 14.0004 5.83462 14.0004H7.58472C8.22906 14.0004 8.75137 13.4781 8.75137 12.8338V11.0837C8.75137 10.4393 8.22906 9.91704 7.58472 9.91704ZM5.83462 12.8338V11.0837H7.58472V12.8338H5.83462Z" fill="#3E3465"/>
<path d="M7.58472 15.167H5.83462C5.19028 15.167 4.66797 15.6893 4.66797 16.3337V18.0835C4.66797 18.7278 5.19028 19.2504 5.83462 19.2504H7.58472C8.22906 19.2504 8.75137 18.7278 8.75137 18.0835V16.3337C8.75137 15.6893 8.22906 15.167 7.58472 15.167ZM5.83462 18.0835V16.3337H7.58472V18.0835H5.83462Z" fill="#3E3465"/>
<path d="M7.58472 20.417H5.83462C5.19028 20.417 4.66797 20.9393 4.66797 21.5836V23.3335C4.66797 23.9778 5.19028 24.5001 5.83462 24.5001H7.58472C8.22906 24.5001 8.75137 23.9778 8.75137 23.3335V21.5836C8.75137 20.9393 8.22906 20.417 7.58472 20.417ZM5.83462 23.3335V21.5836H7.58472V23.3335H5.83462Z" fill="#3E3465"/>
<path d="M7.58472 25.6667H5.83462C5.19028 25.6667 4.66797 26.189 4.66797 26.8334V28.5835C4.66797 29.2278 5.19028 29.7501 5.83462 29.7501H7.58472C8.22906 29.7501 8.75137 29.2278 8.75137 28.5835V26.8334C8.75137 26.189 8.22906 25.6667 7.58472 25.6667ZM5.83462 28.5835V26.8334H7.58472V28.5835H5.83462Z" fill="#3E3465"/>
<path d="M10.5014 12.8337H18.6678C18.9901 12.8337 19.2513 12.5726 19.2513 12.2503C19.2513 11.9283 18.9901 11.6671 18.6678 11.6671H10.5014C10.1791 11.6671 9.91797 11.9283 9.91797 12.2503C9.91797 12.5726 10.1791 12.8337 10.5014 12.8337Z" fill="#3E3465"/>
<path d="M16.9178 16.9168H10.5014C10.1791 16.9168 9.91797 17.178 9.91797 17.5003C9.91797 17.8223 10.1791 18.0835 10.5014 18.0835H16.9178C17.2401 18.0835 17.5012 17.8223 17.5012 17.5003C17.5012 17.178 17.2401 16.9168 16.9178 16.9168Z" fill="#3E3465"/>
<path d="M15.7511 22.1668H10.5014C10.1791 22.1668 9.91797 22.428 9.91797 22.7503C9.91797 23.0723 10.1791 23.3334 10.5014 23.3334H15.7511C16.0734 23.3334 16.3346 23.0723 16.3346 22.7503C16.3346 22.428 16.0734 22.1668 15.7511 22.1668Z" fill="#3E3465"/>
<path d="M15.7511 27.4168H10.5014C10.1791 27.4168 9.91797 27.6779 9.91797 28.0002C9.91797 28.3223 10.1791 28.5834 10.5014 28.5834H15.7511C16.0734 28.5834 16.3346 28.3223 16.3346 28.0002C16.3346 27.6779 16.0734 27.4168 15.7511 27.4168Z" fill="#3E3465"/>
</g>
<defs>
<clipPath id="clip0_1131_3452">
<rect width="35" height="35" fill="white"/>
</clipPath>
</defs>
</svg>
