<svg xmlns="http://www.w3.org/2000/svg" width="35" height="36" fill="none" xmlns:v="https://vecta.io/nano"><g clip-path="url(#A)" fill="#3e3465"><path d="M33.566 8.154h-1.642V6.789c0-1.082-.88-1.962-1.961-1.962h-1.565c-1.082 0-1.961.88-1.961 1.962v5.616h-2.622v-1.508a1.99 1.99 0 0 0-1.984-1.985 1.97 1.97 0 0 0-1.153.371c-.32-.668-1.002-1.131-1.791-1.131-.746 0-1.396.413-1.735 1.023-.335-.258-.754-.413-1.209-.413-.69 0-1.299.355-1.654.891-.347-.298-.798-.478-1.29-.478-1.094 0-1.984.89-1.984 1.984v1.245H8.563v-1.446a.513.513 0 0 0-1.025 0V22.86a.94.94 0 0 1-.937.937H5.037a.94.94 0 0 1-.937-.937V6.789a.94.94 0 0 1 .937-.937h1.565a.94.94 0 0 1 .937.937v1.986a.512.512 0 1 0 1.025 0V6.789c0-1.082-.88-1.962-1.961-1.962H5.037c-1.082 0-1.961.88-1.961 1.962v1.364H1.434C.643 8.154 0 8.797 0 9.587v10.476c0 .791.643 1.434 1.434 1.434h1.642v1.364c0 1.082.88 1.962 1.961 1.962h1.565c1.082 0 1.961-.88 1.961-1.962v-5.616h1.756v.936c0 .481.168.95.474 1.322l1.591 1.935v9.223a.51.51 0 1 0 1.024 0v-9.406c0-.119-.041-.234-.117-.325l-1.708-2.076a1.06 1.06 0 0 1-.24-.671v-.936l9.69.059a.51.51 0 1 0 0-1.024h-2.331c-.481 0-.872-.391-.872-.872s.391-.872.872-.872h4.405a.55.55 0 0 1 .549.549v3.096a1.06 1.06 0 0 1-.24.671l-1.708 2.076c-.075.092-.117.207-.117.325v1.351a.512.512 0 1 0 1.025 0v-1.168l1.591-1.934a2.09 2.09 0 0 0 .474-1.322v-.936h1.756v5.616c0 1.082.88 1.961 1.962 1.961h1.565c1.082 0 1.961-.88 1.961-1.961v-1.364h1.642c.791 0 1.434-.643 1.434-1.434V9.587c0-.791-.643-1.434-1.434-1.434zM1.434 20.473a.41.41 0 0 1-.409-.409V9.587a.41.41 0 0 1 .409-.409h1.642v11.294H1.434zM21.83 9.938a.96.96 0 0 1 .96.96v1.908a.96.96 0 0 1-.311.706h-1.297a.96.96 0 0 1-.311-.706v-1.908a.96.96 0 0 1 .96-.96zm-3.904.2a.96.96 0 1 1 1.92 0v2.667a.96.96 0 0 1-.311.706h-.833c-.141 0-.279.016-.412.045-.228-.18-.364-.454-.364-.751v-2.667h0zm-2.944.61a.96.96 0 1 1 1.92 0v2.057a.96.96 0 1 1-1.92 0v-2.057zm-2.944.413a.96.96 0 1 1 1.92 0v1.644a.96.96 0 1 1-1.92 0v-1.644zM8.563 13.43h2.551c.262.789 1.007 1.359 1.883 1.359a1.98 1.98 0 0 0 1.472-.655 1.98 1.98 0 0 0 1.472.656 1.97 1.97 0 0 0 1.136-.36c-.173.286-.272.621-.272.978 0 .291.066.566.183.813H8.563v-2.79zm16.118 2.79v-1.136c0-.679-.432-1.258-1.036-1.479l.068-.176h2.724v2.79h-1.756zm9.294 3.843a.41.41 0 0 1-.409.409h-1.642v-1.481a.512.512 0 1 0-1.025 0v3.87a.94.94 0 0 1-.937.937h-1.565a.94.94 0 0 1-.937-.937V6.789a.94.94 0 0 1 .937-.937h1.565a.94.94 0 0 1 .937.937v10.019a.51.51 0 1 0 1.024 0v-7.63h1.642a.41.41 0 0 1 .409.409v10.476zm-11.871 4.213a.51.51 0 0 0-.512.512v5.872a.51.51 0 1 0 1.024 0v-5.872a.51.51 0 0 0-.512-.512z"/></g><defs><clipPath id="A"><path fill="#fff" transform="translate(0 .5)" d="M0 0h35v35H0z"/></clipPath></defs></svg>