<svg width="35" height="35" viewBox="0 0 35 35" fill="none" xmlns="http://www.w3.org/2000/svg">
<path d="M10.3906 16.9531C6.16875 16.9531 2.73438 20.3875 2.73438 24.6094C2.73438 28.8313 6.16875 32.2656 10.3906 32.2656C14.6125 32.2656 18.0469 28.8313 18.0469 24.6094C18.0469 20.3875 14.6125 16.9531 10.3906 16.9531ZM10.3906 31.1719C6.77195 31.1719 3.82812 28.2281 3.82812 24.6094C3.82812 20.9907 6.77195 18.0469 10.3906 18.0469C14.0093 18.0469 16.9531 20.9907 16.9531 24.6094C16.9531 28.2281 14.0093 31.1719 10.3906 31.1719Z" fill="#3E3465"/>
<path d="M10.3906 20.2344C7.97836 20.2344 6.01562 22.1971 6.01562 24.6094C6.01562 27.0216 7.97836 28.9844 10.3906 28.9844C12.8029 28.9844 14.7656 27.0216 14.7656 24.6094C14.7656 22.1971 12.8029 20.2344 10.3906 20.2344ZM10.3906 27.8906C8.58102 27.8906 7.10938 26.419 7.10938 24.6094C7.10938 22.7998 8.58102 21.3281 10.3906 21.3281C12.2002 21.3281 13.6719 22.7998 13.6719 24.6094C13.6719 26.419 12.2002 27.8906 10.3906 27.8906Z" fill="#3E3465"/>
<path d="M33.9062 25.4767L32.492 24.0625L33.3594 23.1952C33.7121 22.8424 33.9062 22.3737 33.9062 21.875C33.9062 21.3762 33.7121 20.907 33.3594 20.5548L32.492 19.6875L32.8125 19.367C33.1652 19.0143 33.3594 18.5456 33.3594 18.0469C33.3594 17.5481 33.1652 17.0789 32.8125 16.7267L31.3983 15.3125C30.6934 14.607 29.4629 14.607 28.758 15.3125L26.25 17.8205L17.1795 8.75L19.6875 6.24203C20.0402 5.88985 20.2344 5.42063 20.2344 4.92188C20.2344 4.42313 20.0402 3.95391 19.6875 3.60172L18.2733 2.1875C17.5684 1.48203 16.3379 1.48203 15.633 2.1875L15.3125 2.50797L14.4452 1.64063C13.7402 0.935159 12.5098 0.935159 11.8048 1.64063L10.9375 2.50797L9.52328 1.09375C8.81836 0.388284 7.58789 0.388284 6.88297 1.09375L4.375 3.60172C4.02227 3.95391 3.82812 4.42313 3.82812 4.92188C3.82812 5.42063 4.02227 5.88985 4.375 6.24203L5.78922 7.65625L4.92188 8.5236C4.56914 8.87578 4.375 9.345 4.375 9.84375C4.375 10.3425 4.56914 10.8117 4.92188 11.1639L5.78922 12.0313L5.46875 12.3517C5.11602 12.7039 4.92188 13.1731 4.92188 13.6719C4.92188 14.1706 5.11602 14.6398 5.46875 14.992L6.19445 15.7177C2.86234 17.2971 0.546875 20.6834 0.546875 24.6094C0.546875 30.0371 4.96289 34.4531 10.3906 34.4531C14.3166 34.4531 17.7029 32.1377 19.2823 28.8055L20.008 29.5312C20.3607 29.884 20.8294 30.0781 21.3281 30.0781C21.8269 30.0781 22.2961 29.884 22.6483 29.5312L22.9688 29.2108L23.8361 30.0781C24.1888 30.4309 24.6575 30.625 25.1562 30.625C25.655 30.625 26.1242 30.4309 26.4764 30.0781L27.3438 29.2108L28.758 30.625C29.1107 30.9777 29.5794 31.1719 30.0781 31.1719C30.5769 31.1719 31.0461 30.9777 31.3983 30.625L33.9062 28.117C34.259 27.7643 34.4531 27.2956 34.4531 26.7969C34.4531 26.2981 34.259 25.8289 33.9062 25.4767ZM25.4767 18.5937L21.875 22.1955L17.5115 17.832C17.3999 17.7144 17.2856 17.6006 17.168 17.4885L12.8045 13.125L16.4062 9.52328L25.4767 18.5937ZM20.1972 23.8733C20.1398 23.1022 20.0009 22.3541 19.7755 21.6426L21.1017 22.9687L20.1972 23.8733ZM12.0312 13.8983L13.3574 15.2245C12.6454 14.9991 11.8973 14.8602 11.1267 14.8028L12.0312 13.8983ZM5.14828 5.46875C5.00445 5.32492 4.92188 5.12531 4.92188 4.92188C4.92188 4.71844 5.00445 4.51883 5.14828 4.375L7.65625 1.86703C7.94391 1.57938 8.46234 1.57938 8.75 1.86703L10.1642 3.28125L6.5625 6.88297L5.14828 5.46875ZM5.69516 10.3906C5.55133 10.2468 5.46875 10.0472 5.46875 9.84375C5.46875 9.64031 5.55133 9.4407 5.69516 9.29688L12.5781 2.41391C12.8658 2.12625 13.3842 2.12625 13.6719 2.41391L14.5392 3.28125L6.5625 11.258L5.69516 10.3906ZM6.24203 14.2188C6.0982 14.0749 6.01562 13.8753 6.01562 13.6719C6.01562 13.4684 6.0982 13.2688 6.24203 13.125L16.4062 2.96078C16.6939 2.67313 17.2123 2.67313 17.5 2.96078L18.9142 4.375C19.058 4.51883 19.1406 4.71844 19.1406 4.92188C19.1406 5.12531 19.058 5.32492 18.9142 5.46875L9.57578 14.8066C8.785 14.8717 8.02211 15.0298 7.29477 15.2715L6.24203 14.2188ZM10.3906 33.3594C5.56609 33.3594 1.64062 29.4339 1.64062 24.6094C1.64062 19.7848 5.56609 15.8594 10.3906 15.8594C12.7132 15.8594 14.822 16.7754 16.3898 18.2569L16.7431 18.6102C18.2246 20.178 19.1406 22.2868 19.1406 24.6094C19.1406 29.4339 15.2152 33.3594 10.3906 33.3594ZM20.7812 28.758L19.728 27.7047C19.9697 26.9779 20.1277 26.2144 20.1928 25.4237L29.5312 16.0858C29.8189 15.7981 30.3373 15.7981 30.625 16.0858L32.0392 17.5C32.183 17.6438 32.2656 17.8434 32.2656 18.0469C32.2656 18.2503 32.183 18.4499 32.0392 18.5937L21.875 28.758C21.5873 29.0456 21.0689 29.0456 20.7812 28.758ZM25.7031 29.3048C25.4155 29.5925 24.897 29.5925 24.6094 29.3048L23.742 28.4375L31.7188 20.4608L32.5861 21.3281C32.7299 21.472 32.8125 21.6716 32.8125 21.875C32.8125 22.0784 32.7299 22.278 32.5861 22.4219L25.7031 29.3048ZM33.133 27.3437L30.625 29.8517C30.3373 30.1394 29.8189 30.1394 29.5312 29.8517L28.117 28.4375L31.7188 24.8358L33.133 26.25C33.2768 26.3938 33.3594 26.5934 33.3594 26.7969C33.3594 27.0003 33.2768 27.1999 33.133 27.3437Z" fill="#3E3465"/>
</svg>
