<svg xmlns="http://www.w3.org/2000/svg" xmlns:xlink="http://www.w3.org/1999/xlink" width="35" height="35" fill="none" xmlns:v="https://vecta.io/nano"><g fill="#3e3465"><path d="M15.875 2.734c.302 0 .547-.245.547-.547s-.245-.547-.547-.547h-.005c-.302 0-.544.245-.544.547a.55.55 0 0 0 .549.547zm1.625 0h1.641c.302 0 .547-.245.547-.547s-.244-.547-.547-.547H17.5c-.302 0-.547.245-.547.547s.245.547.547.547zM11.484 35h12.031c2.11 0 3.828-1.718 3.828-3.828V3.282c0-1.807-1.468-3.277-3.274-3.281L10.938 0c-1.81 0-3.281 1.472-3.281 3.281v27.891c0 2.11 1.718 3.828 3.828 3.828zm12.031-1.094H11.484a2.74 2.74 0 0 1-2.68-2.193c.691.679 1.637 1.099 2.68 1.099h12.031c1.042 0 1.989-.42 2.68-1.099a2.74 2.74 0 0 1-2.68 2.193zm2.734-6.562H8.75V4.376h17.5v22.968zm-17.5 1.094h8.75 8.75v.547a2.74 2.74 0 0 1-2.734 2.734H17.5h-6.016a2.74 2.74 0 0 1-2.734-2.734v-.547zm2.188-27.344h13.119c1.212.001 2.193.982 2.193 2.189H8.75v-.001a2.19 2.19 0 0 1 2.188-2.187h0z"/><path d="M15.859 30.078c0 .905.736 1.641 1.641 1.641s1.641-.736 1.641-1.641-.736-1.641-1.641-1.641-1.641.736-1.641 1.641zm1.641-.547c.302 0 .547.245.547.547s-.245.547-.547.547-.547-.245-.547-.547.245-.547.547-.547zm-5.433-18.386c.004.01.013.018.018.027a.53.53 0 0 0 .102.153h.001l6.193 6.175h-7.449c-.302 0-.547.245-.547.547s.244.547.547.547h8.773 4.351c.303 0 .547-.244.547-.547v-1.638c.001-1.625-1.184-2.973-2.734-3.235V9.845a.57.57 0 0 0-.042-.209c-.027-.066-.068-.127-.119-.178L17.881 5.63c-.214-.214-.559-.214-.773 0l-3.553 3.554-.001.001-1.367 1.368c-.019.019-.027.043-.043.063-.117.157-.148.356-.077.53h0zm1.875-.802l6.469 6.449a.59.59 0 0 0 .178.118.52.52 0 0 0 .209.043h2.711v.547H19.93l-6.583-6.562.594-.594zm9.49 5.516h-2.408l-6.309-6.29 2.779-2.78 3.281 3.281v.32h-.547c-.303 0-.547.245-.547.547s.244.547.547.547h.547v.546h-.547c-.303 0-.547.245-.547.547s.244.547.547.547h.547v.546c0 .302.245.547.547.547 1.017 0 1.865.7 2.11 1.641h0zm-12.5.547h2.733c.302 0 .547-.245.547-.547s-.245-.547-.547-.547h-2.733c-.302 0-.547.245-.547.547s.244.547.547.547zm.002-2.187h1.639c.302 0 .547-.245.547-.547s-.245-.547-.547-.547h-1.639c-.302 0-.547.245-.547.547s.245.547.547.547zm.004 7.109h4.921c.302 0 .547-.244.547-.547s-.244-.547-.547-.547h-4.921c-.302 0-.547.244-.547.547s.245.547.547.547z"/><use xlink:href="#B"/><path d="M18.049 22.422h-7.111c-.302 0-.547.244-.547.547s.245.547.547.547h7.111c.302 0 .547-.244.547-.547s-.245-.547-.547-.547z"/><use xlink:href="#B" y="2.188"/><path d="M14.217 24.61h-3.279c-.302 0-.547.244-.547.547s.245.547.547.547h3.279c.302 0 .547-.244.547-.547s-.244-.547-.547-.547h0z"/><use xlink:href="#B" y="4.376"/></g><defs ><path id="B" d="M24.057 20.234h-1.635c-.302 0-.547.244-.547.547s.244.547.547.547h1.635c.302 0 .547-.244.547-.547s-.245-.547-.547-.547z"/></defs></svg>