<svg xmlns="http://www.w3.org/2000/svg" xmlns:xlink="http://www.w3.org/1999/xlink" width="35" height="35" fill="none" xmlns:v="https://vecta.io/nano"><g clip-path="url(#A)" fill="#3e3465"><path d="M27.406 19.889a1.46 1.46 0 0 0 1.459-1.459v-2.707a1.46 1.46 0 0 0-1.459-1.459h-.847v-1.881c0-.284-.23-.514-.514-.514s-.514.23-.514.514V26.68a1.67 1.67 0 0 1-1.67 1.67H8.835a1.67 1.67 0 0 1-1.67-1.67V8.32a1.67 1.67 0 0 1 1.67-1.67H23.86a1.67 1.67 0 0 1 1.67 1.67v1.673c0 .284.23.514.514.514s.514-.23.514-.514V8.32a2.7 2.7 0 0 0-2.698-2.698h-.089l-1.384-4.284C22.129.537 21.391 0 20.55 0h-4.444c-.284 0-.514.23-.514.514s.23.514.514.514h4.444a.9.9 0 0 1 .858.625l1.282 3.968H10.005l1.282-3.968a.9.9 0 0 1 .858-.625h1.572c.284 0 .514-.23.514-.514S14.001 0 13.717 0h-1.572c-.841 0-1.579.537-1.837 1.337L8.924 5.621h-.089A2.7 2.7 0 0 0 6.137 8.32v18.36a2.7 2.7 0 0 0 2.698 2.698h.089l1.384 4.284c.258.8.997 1.337 1.837 1.337h8.405c.84 0 1.579-.537 1.837-1.337l1.384-4.284h.089a2.7 2.7 0 0 0 2.698-2.698v-.463h.847a1.46 1.46 0 0 0 1.458-1.458v-2.707a1.46 1.46 0 0 0-1.458-1.459h-.847v-.704h.847 0zm-.847-4.595h.847a.43.43 0 0 1 .43.43v2.707a.43.43 0 0 1-.43.43h-.847v-3.566zm-5.15 18.053a.9.9 0 0 1-.858.625h-8.405a.9.9 0 0 1-.858-.625l-1.282-3.968h12.686l-1.282 3.968zm5.997-11.725a.43.43 0 0 1 .43.43v2.707a.43.43 0 0 1-.43.43h-.847v-3.566h.847zm-4.133-10.42l-1.327-.521c-.206-.081-.436-.052-.615.077l-1.055.76-.386-1.029a.64.64 0 0 0-.606-.42.64.64 0 0 0-.606.421l-.784 2.103-.524-2.306c-.062-.274-.292-.475-.571-.501s-.542.129-.654.387l-.487 1.123-.124-.391c-.085-.268-.331-.45-.613-.452s-.53.177-.619.444l-1.09 3.306-.454-4.916c-.027-.296-.251-.534-.544-.58a.65.65 0 0 0-.696.386l-1.149 2.703-.358-.451c-.177-.222-.5-.259-.723-.083s-.26.5-.083.723l.757.954a.65.65 0 0 0 1.102-.149l.808-1.9.484 5.234a.64.64 0 0 0 .571.583c.025.003.051.004.076.004a.64.64 0 0 0 .612-.445l1.295-3.926.076.238a.64.64 0 0 0 .584.451.64.64 0 0 0 .627-.389l.429-.988.549 2.416c.064.281.3.483.588.502s.549-.149.65-.42l.874-2.344.203.541c.071.19.224.333.418.392a.64.64 0 0 0 .566-.094l1.291-.93 1.133.445c.265.104.563-.026.667-.291s-.026-.563-.291-.667h0zm-.853 5.087c-.77-.159-1.386.164-1.809.635-.424-.472-1.039-.794-1.809-.635-.497.094-1.42.605-1.402 1.884a2.64 2.64 0 0 0 .25 1.074c.32.696 1.053 1.241 2.512 2.326l.026.019a.74.74 0 0 0 .882 0c1.421-1.057 2.178-1.641 2.502-2.345a2.65 2.65 0 0 0 .25-1.074c.018-1.279-.905-1.79-1.402-1.884h0zm.217 2.527c-.208.452-.868.971-2.008 1.821-1.184-.881-1.842-1.381-2.044-1.821a1.63 1.63 0 0 1-.156-.659c-.002-.122.017-.735.568-.858.606-.127.953.384 1.107.7a.56.56 0 0 0 .507.318h0a.56.56 0 0 0 .508-.318c.153-.316.499-.827 1.096-.702.037.007.589.116.578.86a1.63 1.63 0 0 1-.156.659h0zm-13.766-.133c0 .284.23.515.514.515h6.07c.284 0 .514-.23.514-.515s-.23-.514-.514-.514h-6.07c-.284 0-.514.23-.514.514zm.515 2.883h6.07c.284 0 .514-.23.514-.514s-.23-.514-.514-.514h-6.07c-.284 0-.514.23-.514.514s.23.514.514.514z"/><use xlink:href="#B"/><path d="M23.308 25.273H9.386c-.284 0-.514.23-.514.514s.23.514.514.514h13.923c.284 0 .514-.23.514-.514s-.23-.514-.514-.514z"/></g><defs><clipPath id="A"><path fill="#fff" d="M0 0h35v35H0z"/></clipPath><path id="B" d="M23.308 22.905H9.386c-.284 0-.514.23-.514.514s.23.514.514.514h13.923c.284 0 .514-.23.514-.514s-.23-.514-.514-.514z"/></defs></svg>