<svg xmlns="http://www.w3.org/2000/svg" width="35" height="36" fill="none" xmlns:v="https://vecta.io/nano"><g clip-path="url(#A)"><path d="M.663 18.099l2.789 1.1c.369.145.77.069 1.058-.172l2.209 1.393.379.266c-.481.761-.357 1.8.373 2.419a1.86 1.86 0 0 0 1.411.431c.029.525.268.992.657 1.322a1.85 1.85 0 0 0 1.411.432c.03.525.268.992.657 1.321s.885.489 1.412.432c.027.494.249.977.656 1.321a1.87 1.87 0 0 0 2.632-.216l.443-.52.747.551c1.291.953 3.117.172 3.285-1.412 1.331.484 2.745-.449 2.766-1.882 1.255.236 2.369-.676 2.439-1.885 1.628.435 3.101-1.21 2.382-2.819l1.996-1.282c.286.339.761.466 1.184.299l2.789-1.1a1.05 1.05 0 0 0 .59-1.358l-1.275-3.232c-.104-.264-.402-.393-.665-.289s-.393.402-.289.665l1.275 3.232c.004.011-.001.023-.012.028l-2.789 1.1c-.011.004-.024-.001-.028-.012l-3.505-8.886c.004-.024.01-.027.012-.028l2.79-1.1c.024.004.027.01.028.012l1.351 3.426c.104.264.402.393.665.289s.393-.402.289-.665l-1.352-3.426a1.05 1.05 0 0 0-1.358-.59l-2.79 1.1c-.498.197-.762.731-.628 1.238l-1.495.552a2.91 2.91 0 0 1-1.461.144l-1.512-.24c-.28-.044-.542.147-.587.426s.146.542.426.587l1.512.24a3.94 3.94 0 0 0 1.976-.195l1.509-.557 2.918 7.397-2.2 1.413-.037-.027-4.241-3.13c-.11-.081-.247-.118-.404-.091-2.124.361-4.027-.394-5.427-1.856a1.16 1.16 0 0 0-1.618-.056c-1.358 1.22-3.256 2.409-4.584 1.147-.132-.125-.133-.357.067-.486 1.691-1.088 3.444-2.616 4.854-4.042a1.56 1.56 0 0 1 1.351-.442l1.946.309c.28.044.542-.146.587-.426s-.146-.542-.426-.587l-1.946-.309a2.59 2.59 0 0 0-2.241.734l-.574.566a7.32 7.32 0 0 0-2.037-.411l-2.677-.106a2.39 2.39 0 0 1-1.069-.179l-.904-.378a1.05 1.05 0 0 0-.629-1.235l-2.789-1.1a1.05 1.05 0 0 0-1.358.59L.073 16.741c-.212.538.051 1.146.59 1.358zm8.659 4.127c-.3.354-.833.398-1.188.098a.84.84 0 0 1-.099-1.187l1.268-1.489c.293-.346.828-.403 1.188-.098a.84.84 0 0 1 .098 1.188l-1.267 1.488zm2.067 1.753a.84.84 0 1 1-1.286-1.089l1.268-1.488c.315-.372.899-.404 1.25-.039.296.315.315.799.035 1.129l-1.267 1.488zm2.068 1.753a.84.84 0 0 1-1.286-1.089l1.268-1.489c.301-.355.836-.396 1.188-.098s.398.833.098 1.188l-1.267 1.488zm3.342.257l-1.274 1.496c-.3.354-.833.398-1.188.098s-.398-.833-.099-1.187l1.268-1.489c.302-.356.834-.398 1.188-.098.348.295.401.82.105 1.179zm-8.813-15.43l.876.367c.481.201 1.01.29 1.53.256.392-.025.523-.007 2.553.107a6.3 6.3 0 0 1 1.232.193c-1.003.906-2.13 1.814-3.258 2.539a1.33 1.33 0 0 0-.204 2.082c.857.814 2.772 1.749 5.975-1.128.057-.052.142-.051.192.002 1.552 1.62 3.751 2.524 6.127 2.191.269.189-.252-.193 4.076 3.002h0c.463.342.593 1.014.23 1.478a1.02 1.02 0 0 1-1.417.194c-.607-.448-.159-.107-2.295-1.753-.224-.173-.546-.131-.719.093s-.131.546.093.719l1.772 1.365a1.03 1.03 0 0 1-.093 1.344c-.355.355-.94.388-1.361.078-.406-.3-.069-.043-1.933-1.478-.224-.173-.546-.131-.719.094s-.131.546.093.719l1.571 1.21a1.03 1.03 0 0 1-.042 1.303c-.349.395-.966.45-1.406.125l-1.714-1.306c-.224-.173-.546-.132-.719.092s-.132.546.092.719l1.089.843c.248.394.199.911-.127 1.252-.356.372-.948.413-1.378.096l-.689-.509.158-.186c.316-.372.479-.854.437-1.361-.042-.514-.287-.96-.654-1.272-.382-.324-.881-.49-1.411-.432-.028-.495-.255-.981-.656-1.321-.38-.323-.864-.478-1.361-.437l-.05.005-.003-.049c-.033-.396-.187-.764-.441-1.06a1.87 1.87 0 0 0-1.623-.643c-.029-.515-.262-.987-.657-1.322a1.87 1.87 0 0 0-2.632.216l-.773.907-.452-.318-.021-.014-2.275-1.435 2.985-7.566zm-6.959 6.559l3.505-8.886c.003-.008.011-.014.02-.014L7.35 9.32c.011.004.016.017.012.028l-3.506 8.886c-.005.011-.017.016-.028.012l-2.789-1.101c-.011-.004-.017-.017-.012-.028z" fill="#3e3465"/></g><defs><clipPath id="A"><path fill="#fff" transform="translate(0 .5)" d="M0 0h35v35H0z"/></clipPath></defs></svg>