<svg width="35" height="35" viewBox="0 0 35 35" fill="none" xmlns="http://www.w3.org/2000/svg">
<g clip-path="url(#clip0_1131_3277)">
<path d="M29.0352 24.256V18.059C29.0352 17.6816 28.7291 17.3754 28.3516 17.3754C27.9742 17.3754 27.668 17.6816 27.668 18.059V23.8104C27.325 23.7453 26.9715 23.7098 26.6097 23.7098C26.334 23.7098 26.0632 23.7306 25.7979 23.7688V4.59737H27.5574C27.6174 4.59737 27.668 4.64639 27.668 4.70429V11.9204C27.668 12.2979 27.9742 12.604 28.3516 12.604C28.7291 12.604 29.0352 12.2979 29.0352 11.9204V4.70429C29.0352 3.89143 28.3723 3.23019 27.5574 3.23019H25.7979V1.47417C25.7979 0.661309 25.135 0 24.3201 0H4.21039C3.39657 0 2.73438 0.661309 2.73438 1.47417V28.666C2.73438 29.4789 3.39657 30.1401 4.21039 30.1401H5.97181V31.8942C5.97181 32.7081 6.63394 33.3703 7.44775 33.3703H22.6401C23.6618 34.3772 25.0641 35 26.6097 35C29.7291 35 32.2669 32.4671 32.2669 29.3539C32.2669 27.1074 30.9442 25.1638 29.0352 24.256ZM4.10156 28.6661V1.47417C4.10156 1.41716 4.15242 1.36719 4.21039 1.36719H24.3201C24.379 1.36719 24.4308 1.41716 24.4308 1.47417V24.1461C22.5619 24.9279 21.1994 26.6831 20.9843 28.773H4.21039C4.15242 28.773 4.10156 28.723 4.10156 28.6661ZM7.33899 31.8942V30.1402H21.0106C21.1038 30.8051 21.3129 31.4331 21.6177 32.0032H7.44769C7.38876 32.0032 7.33899 31.9534 7.33899 31.8942ZM26.6097 33.6328C24.2453 33.6328 22.3217 31.7134 22.3217 29.3539C22.3217 26.9956 24.2453 25.077 26.6097 25.077C28.9752 25.077 30.8997 26.9956 30.8997 29.3539C30.8997 31.7134 28.9751 33.6328 26.6097 33.6328Z" fill="#3E3465"/>
<path d="M28.5899 27.6328C28.3009 27.3901 27.8696 27.4277 27.6268 27.7169L26.0563 29.5878L25.5122 29.1268C25.2242 28.8828 24.7928 28.9185 24.5487 29.2065C24.3047 29.4946 24.3404 29.9259 24.6285 30.17L25.6966 31.0749C25.8204 31.1799 25.9772 31.2369 26.1384 31.2369C26.1577 31.2369 26.177 31.236 26.1964 31.2344C26.3776 31.219 26.5452 31.1321 26.6621 30.9928L28.674 28.5959C28.9167 28.3068 28.879 27.8756 28.5899 27.6328Z" fill="#3E3465"/>
<path d="M9.70903 15.6877H6.29688C5.91939 15.6877 5.61328 15.9938 5.61328 16.3713V19.7758C5.61328 20.1533 5.91939 20.4594 6.29688 20.4594H9.70903C10.0865 20.4594 10.3926 20.1533 10.3926 19.7758V16.3713C10.3926 15.9938 10.0865 15.6877 9.70903 15.6877ZM9.02544 19.0923H6.98047V17.0549H9.02544V19.0923Z" fill="#3E3465"/>
<path d="M7.56055 8.88749H8.58409C8.71322 9.07254 8.85869 9.24795 9.02166 9.41057L13.9506 14.3284C14.084 14.4615 14.2587 14.5281 14.4334 14.5281C14.6081 14.5281 14.7828 14.4615 14.9162 14.3284L19.8451 9.41057C20.0081 9.24795 20.1536 9.07254 20.2827 8.88749H20.9722C21.3497 8.88749 21.6558 8.58137 21.6558 8.20389C21.6558 7.82641 21.3497 7.5203 20.9722 7.5203H20.8783C20.9359 7.25397 20.9664 6.97958 20.9664 6.70019C20.9664 5.67391 20.5682 4.71134 19.8451 3.98988C18.3537 2.50176 15.9301 2.49657 14.4334 3.97327C12.9354 2.49663 10.5127 2.50217 9.02173 3.98988C9.02166 3.98988 9.02166 3.98988 9.02166 3.98988C8.29862 4.71134 7.90043 5.67391 7.90043 6.70019C7.90043 6.97958 7.93099 7.25397 7.98848 7.5203H7.56055C7.18307 7.5203 6.87695 7.82641 6.87695 8.20389C6.87695 8.58137 7.183 8.88749 7.56055 8.88749ZM14.4334 12.8789L10.4331 8.88742H11.266C11.4617 8.88742 11.6481 8.80347 11.7778 8.65691L12.5158 7.82306L13.7012 9.565C13.8285 9.75203 14.0401 9.864 14.2664 9.864H14.2666C14.4929 9.86393 14.7045 9.75182 14.8318 9.56466L16.0157 7.82286L16.7553 8.65725C16.885 8.80368 17.0712 8.88742 17.2668 8.88742H18.4337L14.4334 12.8789ZM9.26762 6.70019C9.26762 6.03963 9.52321 5.42078 9.98737 4.95771C10.9515 3.99576 12.5204 3.99569 13.4855 4.95874L13.9515 5.42187C14.2181 5.68676 14.6486 5.68676 14.9153 5.42187L15.3824 4.95771C16.3465 3.99576 17.9154 3.99583 18.8794 4.95771C19.3436 5.42078 19.5992 6.03963 19.5992 6.70019C19.5992 6.98436 19.5516 7.26067 19.4608 7.5203H17.5744L16.4559 6.25845C16.316 6.10061 16.1109 6.01626 15.9005 6.02965C15.69 6.04319 15.4975 6.15311 15.3789 6.32756L14.2661 7.96484L13.1517 6.32722C13.0331 6.15284 12.8405 6.04298 12.6299 6.02959C12.4201 6.01639 12.2145 6.10068 12.0747 6.25873L10.9581 7.52023H9.40598C9.3152 7.26067 9.26762 6.98436 9.26762 6.70019Z" fill="#3E3465"/>
<path d="M9.70903 22.4968H6.29688C5.91939 22.4968 5.61328 22.8029 5.61328 23.1804V26.585C5.61328 26.9625 5.91939 27.2686 6.29688 27.2686H9.70903C10.0865 27.2686 10.3926 26.9625 10.3926 26.585V23.1804C10.3926 22.8029 10.0865 22.4968 9.70903 22.4968ZM9.02544 25.9013H6.98047V23.8639H9.02544V25.9013Z" fill="#3E3465"/>
<path d="M12.6602 16.0229C12.2827 16.0229 11.9766 16.3291 11.9766 16.7065C11.9766 17.084 12.2827 17.3901 12.6602 17.3901H21.2924C21.6699 17.3901 21.976 17.084 21.976 16.7065C21.976 16.3291 21.6699 16.0229 21.2924 16.0229H12.6602Z" fill="#3E3465"/>
<path d="M21.2925 18.7571H12.6602C12.2827 18.7571 11.9766 19.0632 11.9766 19.4407C11.9766 19.8182 12.2827 20.1243 12.6602 20.1243H21.2924C21.6699 20.1243 21.976 19.8182 21.976 19.4407C21.976 19.0632 21.67 18.7571 21.2925 18.7571Z" fill="#3E3465"/>
<path d="M21.2925 22.832H12.6602C12.2827 22.832 11.9766 23.1381 11.9766 23.5156C11.9766 23.8931 12.2827 24.1992 12.6602 24.1992H21.2924C21.6699 24.1992 21.976 23.8931 21.976 23.5156C21.976 23.1381 21.67 22.832 21.2925 22.832Z" fill="#3E3465"/>
<path d="M18.6474 25.5662H12.6602C12.2827 25.5662 11.9766 25.8723 11.9766 26.2498C11.9766 26.6272 12.2827 26.9333 12.6602 26.9333H18.6474C19.0249 26.9333 19.331 26.6272 19.331 26.2498C19.331 25.8723 19.025 25.5662 18.6474 25.5662Z" fill="#3E3465"/>
<path d="M28.3516 14.3061C27.9741 14.3061 27.668 14.6122 27.668 14.9897V14.9936C27.668 15.3711 27.9741 15.6753 28.3516 15.6753C28.729 15.6753 29.0352 15.3672 29.0352 14.9898C29.0352 14.6123 28.7291 14.3061 28.3516 14.3061Z" fill="#3E3465"/>
</g>
<defs>
<clipPath id="clip0_1131_3277">
<rect width="35" height="35" fill="white"/>
</clipPath>
</defs>
</svg>
