<svg xmlns="http://www.w3.org/2000/svg" width="35" height="35" fill="#3e3465" xmlns:v="https://vecta.io/nano"><path d="M27.688 11.083a2.92 2.92 0 0 0 1.457-.392c.443-.256.811-.623 1.068-1.066a.59.59 0 0 0 0-.584 2.92 2.92 0 0 0-1.067-1.067c-.443-.256-.946-.391-1.458-.391s-1.015.135-1.458.391a2.92 2.92 0 0 0-1.067 1.067.59.59 0 0 0 0 .584c.257.442.625.81 1.068 1.066s.946.391 1.457.392h0zm0-2.333c.246.001.489.053.714.153s.425.247.59.43a1.75 1.75 0 0 1-2.606 0c.164-.183.365-.33.59-.43a1.76 1.76 0 0 1 .714-.153h0zm3.787 21.202l-1.349-1c2.535-1.511 4.29-4.683 4.29-7.952 0-2.963-1.168-6.514-3.776-7.768-1.079-.518-2.738-.787-4.918.407-.104-1.042-.421-1.913-.719-2.73-.563-1.545-1.008-2.765.017-4.815l-1.043-.522c-1.25 2.5-.65 4.145-.07 5.736.337.925.681 1.869.678 3.059l-.086.063c-1.601-1.191-2.968-1.61-4.083-1.636V9.333c-.001-.126-.042-.249-.117-.35l-3.383-4.511V1.167a.58.58 0 0 0-.171-.412c-.11-.109-.258-.171-.412-.171h-10.5a.58.58 0 0 0-.412.171c-.109.11-.171.258-.171.412v3.306l-3.384 4.51c-.075.101-.116.224-.117.35v12.625a2.37 2.37 0 0 0-1.061 1.413c-.246.85-.186 2.085 1.503 3.145a7.87 7.87 0 0 0 1.232.616c-1.729.94-1.936 2.093-1.93 2.615.013 1.068.847 1.998 2.126 2.369a2.1 2.1 0 0 0 .585.08c1.051 0 2.349-.711 3.868-2.122l1.224-1.237a3.28 3.28 0 0 0 .538 1.447c.708 1.049 2.06 1.801 4.519 2.513 2.364.685 6.83 1.334 10.621 1.544a45.04 45.04 0 0 0 2.476.073 23.23 23.23 0 0 0 2.771-.142c1.791-.221 2.733-.693 2.962-1.484s-.314-1.692-1.709-2.837zm-7.041-14.208c-.082.383-.19.759-.322 1.128a1.76 1.76 0 0 1-1.129-.831l-1.01.584a2.92 2.92 0 0 0 2.526 1.458c.512 0 1.015-.135 1.458-.391a2.92 2.92 0 0 0 1.068-1.067l-1.01-.584a1.75 1.75 0 0 1-.609.62 8.65 8.65 0 0 0 .322-1.666c1.643-1.066 3.153-1.314 4.406-.712 1.834.882 3.115 3.643 3.115 6.716 0 3.044-1.804 6.089-4.239 7.225a47.99 47.99 0 0 0-1.932-1.138c-3.315-1.85-7.437-3.69-9.801-4.374a21.28 21.28 0 0 0-1.414-.362A8.22 8.22 0 0 1 15.75 21c0-3.073 1.281-5.835 3.115-6.716 1.47-.707 3.293-.244 5.271 1.338a.58.58 0 0 0 .299.122h0zM2.916 9.917h9.333v3.5H2.916v-3.5zm10.5 0h5.833v2.999c-.307.073-.606.18-.891.316-2.608 1.254-3.776 4.805-3.776 7.768a9.31 9.31 0 0 0 .072 1.148c-.411-.05-.826-.061-1.239-.034V9.917zM14 8.75l2.333-3.111 2.333 3.111H14zm-7.583-7h9.333v2.333H6.416V1.75zm-.292 3.5h9.042l-2.625 3.5H3.5l2.625-3.5zm-3.208 9.333h9.333v7.782l-.135.055a3.29 3.29 0 0 0-1.229.933 21.2 21.2 0 0 0-.373-1.698c-.633-2.394-1.531-3.775-2.671-4.106-1.279-.371-2.482-.031-3.063.865-.284.438-.726 1.523.232 3.242-.452-.086-.911-.132-1.371-.139h-.022a4.85 4.85 0 0 0-.702.048v-6.982zm1.028 16.413c-.774-.224-1.278-.72-1.284-1.262-.007-.618.671-1.495 2.597-2.104a.59.59 0 0 0 .297-.214c.074-.101.112-.224.111-.349s-.043-.247-.119-.346a.59.59 0 0 0-.302-.207c-2.639-.765-3.762-1.686-3.434-2.817.195-.673.785-1.009 1.787-1.009.681 0 1.554.155 2.622.465a.58.58 0 0 0 .366-.014c.117-.044.218-.124.286-.229s.101-.229.093-.354a.59.59 0 0 0-.136-.34c-1.302-1.544-1.406-2.648-1.069-3.166.296-.455.986-.604 1.76-.38 1.263.366 2.171 3.858 2.429 6.288l-.586 2.023c-1.517 1.916-4.152 4.381-5.415 4.015h0zm28.12 1.469c-.082.281-1.547 1.016-7.024.713-.919-.051-1.878-.128-2.835-.225l.57-1.965-1.12-.325-.626 2.161c-2.494-.296-4.859-.714-6.349-1.146-2.146-.622-3.342-1.253-3.877-2.046-.489-.724-.497-1.722-.029-3.338s1.009-2.455 1.809-2.805c.34-.149.75-.224 1.251-.224.79 0 1.805.188 3.119.568.176.051.362.109.557.173l-1.458 5.032 1.12.325 1.44-4.968c2.294.862 5.336 2.281 7.898 3.711a45.95 45.95 0 0 1 1.675.979l-.603 2.081 1.12.325.507-1.75c2.428 1.621 2.917 2.507 2.854 2.724z"/></svg>