<svg width="35" height="35" viewBox="0 0 35 35" fill="none" xmlns="http://www.w3.org/2000/svg">
<g clip-path="url(#clip0_1131_3227)">
<path d="M34.9666 34.3053L29.8396 20.7995C29.797 20.6873 29.7164 20.5937 29.612 20.5348L24.151 17.4583L25.7454 14.9303C26.7239 13.3776 27.2411 11.5833 27.2411 9.74125C27.2411 4.36992 22.8713 6.10352e-05 17.5 6.10352e-05C12.1286 6.10352e-05 7.75876 4.36992 7.75876 9.74125C7.75876 11.5837 8.27624 13.3782 9.25528 14.9305C9.28146 14.9721 10.8492 17.4584 10.8492 17.4584L5.38806 20.5348C5.28354 20.5937 5.20294 20.6873 5.16035 20.7995L0.0334079 34.3053C-0.0432228 34.507 0.0148142 34.7352 0.178398 34.876C0.342187 35.0168 0.576317 35.04 0.764374 34.9339L9.00631 30.2906L17.2483 34.9339C17.4045 35.0219 17.5954 35.0219 17.7516 34.9339L25.9935 30.2906L34.2355 34.9339C34.3141 34.9782 34.4008 35 34.4871 35C34.6071 35 34.7262 34.9579 34.8215 34.876C34.9852 34.7352 35.0432 34.507 34.9666 34.3053ZM18.0127 26.572C18.3335 26.4588 18.6115 26.2408 18.8003 25.942C18.8263 25.901 23.1909 18.9807 23.1909 18.9807L25.4139 29.4402L18.0127 33.6098V26.572ZM10.1226 14.3834C9.24701 12.995 8.78421 11.3898 8.78421 9.74118C8.78421 4.93526 12.6941 1.02538 17.5 1.02538C22.306 1.02538 26.2158 4.93526 26.2158 9.74118C26.2158 11.3895 25.7532 12.9948 24.8781 14.3834C24.8097 14.4919 18.0543 25.2046 17.9364 25.3896C17.9353 25.3912 17.9344 25.3928 17.9334 25.3944C17.8383 25.5448 17.6763 25.6347 17.5 25.6347C17.3236 25.6347 17.1609 25.5444 17.0657 25.3947C16.9972 25.2861 10.2283 14.5522 10.1249 14.3871C10.1242 14.3859 10.1234 14.3847 10.1226 14.3834ZM6.05306 21.337L10.8325 18.6446L9.99985 22.5618C9.94099 22.8388 10.1178 23.111 10.3947 23.1699C10.4306 23.1776 10.4665 23.1813 10.5018 23.1813C10.7387 23.1813 10.9515 23.0161 11.0027 22.7751L11.8092 18.981L16.1993 25.9433C16.3887 26.2413 16.667 26.4589 16.9872 26.572V33.61L9.58614 29.4403L10.5765 24.781C10.6353 24.504 10.4585 24.2318 10.1816 24.1728C9.90435 24.1136 9.63235 24.2908 9.57349 24.5677L8.55296 29.369L1.49445 33.3457L6.05306 21.337ZM26.447 29.369L24.1677 18.6445L28.9469 21.337L33.5056 33.3457L26.447 29.369Z" fill="#3E3465"/>
<path d="M23.1406 9.74121C23.1406 6.63154 20.6106 4.10156 17.501 4.10156C14.3913 4.10156 11.8613 6.63154 11.8613 9.74121C11.8613 12.8509 14.3913 15.3809 17.501 15.3809C20.6106 15.3809 23.1406 12.8509 23.1406 9.74121ZM12.8867 9.74121C12.8867 7.19687 14.9566 5.12695 17.501 5.12695C20.0453 5.12695 22.1152 7.19687 22.1152 9.74121C22.1152 12.2855 20.0453 14.3555 17.501 14.3555C14.9566 14.3555 12.8867 12.2855 12.8867 9.74121Z" fill="#3E3465"/>
<path d="M21.0898 9.74121C21.0898 7.76234 19.4798 6.15234 17.501 6.15234C15.5221 6.15234 13.9121 7.76234 13.9121 9.74121C13.9121 11.7201 15.5221 13.3301 17.501 13.3301C19.4798 13.3301 21.0898 11.7201 21.0898 9.74121ZM14.9375 9.74121C14.9375 8.32767 16.0874 7.17773 17.501 7.17773C18.9145 7.17773 20.0645 8.32767 20.0645 9.74121C20.0645 11.1547 18.9145 12.3047 17.501 12.3047C16.0874 12.3047 14.9375 11.1547 14.9375 9.74121Z" fill="#3E3465"/>
</g>
<defs>
<clipPath id="clip0_1131_3227">
<rect width="35" height="35" fill="white"/>
</clipPath>
</defs>
</svg>
