<svg width="35" height="35" viewBox="0 0 35 35" fill="none" xmlns="http://www.w3.org/2000/svg">
<g clip-path="url(#clip0_1131_3236)">
<path d="M27.5749 14.1674C27.6959 14.4624 28.0314 14.6055 28.3281 14.4888C28.6248 14.3721 28.7728 14.0388 28.6605 13.7404C26.417 8.03016 20.8438 4.88366 15.0968 6.08358C14.7814 6.14962 14.5793 6.45884 14.6453 6.77424C14.7114 7.08964 15.0206 7.29179 15.336 7.22574C19.5692 6.33966 25.2042 8.13399 27.5749 14.1674Z" fill="#3E3465"/>
<path d="M11.6673 32.0833C12.956 32.0833 14.0007 31.0387 14.0007 29.75C14.0007 12.8333 14.0007 20.9732 14.0007 18.6667V6.41667C14.0007 5.77233 13.4783 5.25 12.834 5.25C10.2498 5.25 9.33398 7.69242 9.33398 14.5833V29.75C9.33398 31.0387 10.3787 32.0833 11.6673 32.0833ZM11.6673 30.9167C11.023 30.9167 10.5007 30.3943 10.5007 29.75V19.25H12.834V29.75C12.834 30.3943 12.3117 30.9167 11.6673 30.9167ZM12.834 6.41667C12.834 19.2243 12.8451 17.2853 12.8077 18.0833H10.5007V14.5833C10.5007 6.41667 11.959 6.41667 12.834 6.41667Z" fill="#3E3465"/>
<path d="M33.4609 29.2454C33.1826 29.0858 32.8276 29.1809 32.6664 29.4583C31.1024 32.166 28.2129 33.8339 25.086 33.8339C21.9591 33.8339 19.0696 32.166 17.5056 29.4583C17.3397 29.1902 16.9907 29.1024 16.7177 29.2601C16.4447 29.4178 16.3464 29.764 16.4958 30.0416C17.3567 31.5229 18.5854 32.7568 20.0629 33.6239C15.3776 34.3798 10.5965 33.0443 6.98109 29.9699C7.01492 29.6135 7.00267 31.2328 7.00267 16.0866C8.06489 15.6241 8.75125 14.5752 8.74975 13.4167V7C8.74924 6.47772 8.51547 5.98296 8.11232 5.65092C7.70917 5.31887 7.17879 5.18425 6.66609 5.28383C9.93205 2.38246 14.2251 0.911994 18.5841 1.20167C22.943 1.49135 27.0038 3.51697 29.8571 6.825C33.0048 10.4595 34.3852 15.2993 33.6283 20.0474C31.8373 17.0079 28.5667 15.1484 25.0388 15.1636C21.5109 15.1789 18.2565 17.0666 16.4918 20.1215C16.3423 20.3992 16.4406 20.7453 16.7136 20.903C16.9867 21.0608 17.3356 20.973 17.5015 20.7048C19.1978 17.7645 22.4416 16.0706 25.8238 16.3588C29.2061 16.6471 32.1164 18.8656 33.2906 22.0506C33.3796 22.287 33.6108 22.4393 33.8632 22.4277C34.1156 22.4162 34.3319 22.2434 34.3989 21.9998C36.442 14.3179 33.048 6.22437 26.1369 2.29729C19.2257 -1.6298 10.5356 -0.402723 4.982 5.28442C4.947 5.278 4.91142 5.26692 4.87584 5.26283C4.74837 5.24546 4.61923 5.24409 4.49142 5.25875C4.12013 5.29649 3.77093 5.45299 3.49567 5.705C2.98332 5.24549 2.24888 5.12972 1.62002 5.40932C0.991157 5.68893 0.585131 6.31178 0.583086 7V12.957C-0.613179 17.4365 0.0161736 22.2076 2.33309 26.2237V29.75C2.33376 30.6932 2.90225 31.5433 3.77372 31.9041C4.64518 32.265 5.6482 32.0657 6.3155 31.3991C6.3969 31.3138 6.47196 31.2228 6.54009 31.1266C10.8267 34.5937 16.5014 35.8269 21.8403 34.4516C26.3318 36.0041 31.2934 34.155 33.6733 30.0416C33.8341 29.7631 33.7391 29.4069 33.4609 29.2454ZM1.74975 7C1.74975 6.67783 2.01092 6.41667 2.33309 6.41667C2.65525 6.41667 2.91642 6.67783 2.91642 7V11.6667C2.91642 11.9888 3.17759 12.25 3.49975 12.25C3.82192 12.25 4.08309 11.9888 4.08309 11.6667V7C4.08758 6.69543 4.32158 6.44354 4.625 6.41667H4.72125C5.02039 6.4479 5.24811 6.69924 5.24975 7V11.6667C5.24975 11.9888 5.51092 12.25 5.83309 12.25C6.15525 12.25 6.41642 11.9888 6.41642 11.6667V7C6.41841 6.77503 6.54959 6.57125 6.75356 6.47631C6.95753 6.38136 7.19791 6.41218 7.37134 6.5555C7.38543 6.56947 7.40022 6.58271 7.41567 6.59517C7.52385 6.70197 7.58423 6.84799 7.58309 7V13.4167C7.58309 14.3832 6.79958 15.1667 5.83309 15.1667H3.49975C2.53325 15.1667 1.74975 14.3832 1.74975 13.4167V7ZM1.30992 15.3335C1.5901 15.6586 1.93977 15.9166 2.33309 16.0883V23.5608C1.28674 20.9529 0.934221 18.1183 1.30992 15.3335ZM4.66642 30.9166C4.02209 30.9166 3.49975 30.3943 3.49975 29.75V16.3333H5.83309V29.75C5.83309 30.3943 5.31075 30.9166 4.66642 30.9166Z" fill="#3E3465"/>
<path d="M20.2896 22.3854C20.1929 22.2646 20.0522 22.1871 19.8983 22.17C19.7445 22.1529 19.5902 22.1977 19.4694 22.2944L17.5006 23.8694V22.75C17.5006 22.4279 17.2395 22.1667 16.9173 22.1667C16.5952 22.1667 16.334 22.4279 16.334 22.75V27.4167C16.334 27.7389 16.5952 28 16.9173 28C17.2395 28 17.5006 27.7389 17.5006 27.4167V26.2973L19.4694 27.8723C19.6322 28.0025 19.852 28.036 20.0462 27.9602C20.2404 27.8844 20.3794 27.7107 20.4108 27.5046C20.4422 27.2985 20.3613 27.0914 20.1986 26.9611L17.8506 25.0834L20.198 23.2056C20.3189 23.109 20.3965 22.9683 20.4137 22.8145C20.4309 22.6607 20.3862 22.5063 20.2896 22.3854Z" fill="#3E3465"/>
<path d="M22.75 23.3334H23.3333C23.6555 23.3334 23.9167 23.5945 23.9167 23.9167C23.9167 24.2389 24.1778 24.5 24.5 24.5C24.8222 24.5 25.0833 24.2389 25.0833 23.9167C25.0833 22.9502 24.2998 22.1667 23.3333 22.1667H22.75C21.7835 22.1667 21 22.9502 21 23.9167V26.25C21 27.2165 21.7835 28 22.75 28H23.3333C24.2998 28 25.0833 27.2165 25.0833 26.25C25.0833 25.9279 24.8222 25.6667 24.5 25.6667C24.1778 25.6667 23.9167 25.9279 23.9167 26.25C23.9167 26.5722 23.6555 26.8333 23.3333 26.8333H22.75C22.4278 26.8333 22.1667 26.5722 22.1667 26.25V23.9167C22.1667 23.5945 22.4278 23.3334 22.75 23.3334Z" fill="#3E3465"/>
<path d="M27.9995 22.1667C27.7562 22.1665 27.5383 22.3174 27.4529 22.5453L25.7029 27.2119C25.63 27.4072 25.6667 27.6266 25.7994 27.7874C25.932 27.9482 26.1404 28.026 26.346 27.9915C26.5516 27.9571 26.7231 27.8155 26.7961 27.6203L27.0912 26.8334H28.9077L29.2029 27.6214C29.3157 27.9233 29.6518 28.0766 29.9537 27.9639C30.2555 27.8511 30.4088 27.515 30.2961 27.2131L28.5461 22.5464C28.4611 22.3181 28.2431 22.1667 27.9995 22.1667ZM27.5287 25.6667L27.9995 24.4114L28.4702 25.6667H27.5287Z" fill="#3E3465"/>
<path d="M34.416 26.8333H32.0827V22.75C32.0827 22.4279 31.8215 22.1667 31.4993 22.1667C31.1772 22.1667 30.916 22.4279 30.916 22.75V27.4167C30.916 27.7388 31.1772 28 31.4993 28H34.416C34.7382 28 34.9993 27.7388 34.9993 27.4167C34.9993 27.0945 34.7382 26.8333 34.416 26.8333Z" fill="#3E3465"/>
</g>
<defs>
<clipPath id="clip0_1131_3236">
<rect width="35" height="35" fill="white"/>
</clipPath>
</defs>
</svg>
