<svg xmlns="http://www.w3.org/2000/svg" xmlns:xlink="http://www.w3.org/1999/xlink" width="35" height="35" fill="none" xmlns:v="https://vecta.io/nano"><g clip-path="url(#A)" fill="#3e3465"><use xlink:href="#B"/><path d="M19.833 19.833c0-.322-.261-.583-.583-.583s-.583.261-.583.583c0 1.289 1.045 2.333 2.333 2.333v.583c0 .322.261.583.583.583s.583-.261.583-.583v-.583c1.289 0 2.333-1.045 2.333-2.333S23.455 17.5 22.166 17.5v-2.333c.644 0 1.167.522 1.167 1.167 0 .322.261.583.583.583s.583-.261.583-.583c0-1.289-1.045-2.333-2.333-2.333v-.583c0-.322-.261-.583-.583-.583s-.583.261-.583.583V14c-1.289 0-2.333 1.045-2.333 2.333s1.045 2.333 2.333 2.333V21c-.644 0-1.167-.522-1.167-1.167zm0-3.5c0-.644.522-1.167 1.167-1.167V17.5c-.644 0-1.167-.522-1.167-1.167zm2.333 2.333c.644 0 1.167.522 1.167 1.167S22.81 21 22.166 21v-2.333zM34.512 19.7c-1.437-6.108-4.633-9.647-6.941-11.496 2.894.218 3.826 1.422 3.853 1.458.183.261.541.327.805.148s.336-.536.161-.802c-.042-.063-.852-1.22-3.208-1.75.602-.495.959-1.229.976-2.008-.078-1.293-.978-2.389-2.231-2.717a10.77 10.77 0 0 0 .078-1.27c-.001-.391-.197-.756-.523-.971a1.17 1.17 0 0 0-1.099-.101 3.33 3.33 0 0 0-.812.521 1.5 1.5 0 0 1-1.091.455c-.41.003-.803-.161-1.089-.455-1.028-.949-2.613-.949-3.641 0a1.5 1.5 0 0 1-1.092.455A1.5 1.5 0 0 1 17.57.712a3.34 3.34 0 0 0-.81-.52c-.36-.152-.772-.113-1.097.102a1.17 1.17 0 0 0-.523.97c0 1.451.287 4.04 2.104 5.778-.955.581-1.847 1.259-2.661 2.025v-4.4c0-1.33-1.881-2.333-4.375-2.333S5.833 3.337 5.833 4.667v5.877c-2.046.204-3.5 1.123-3.5 2.29V27.67C.924 28.049 0 28.817 0 29.75v2.917C0 33.997 1.881 35 4.375 35c2.23 0 3.967-.803 4.309-1.925 1.007.533 2.135.794 3.274.758 2.494 0 4.375-1.003 4.375-2.333v-7.583c0-1.33-1.881-2.333-4.375-2.333a8.67 8.67 0 0 0-.875.044v-8.794c0-1.277-1.737-2.25-4.083-2.326V6.282A6.65 6.65 0 0 0 10.208 7c1.113.033 2.216-.214 3.208-.718v3.978a18.81 18.81 0 0 0-1.152 1.418c-.175.26-.113.611.139.796s.606.138.801-.107a17.7 17.7 0 0 1 1.203-1.458 15.34 15.34 0 0 1 3.885-3.118 3.66 3.66 0 0 0 .9.299L17.69 9.493c-.235.22-.248.589-.028.825s.589.248.825.028L20.82 8.17h.186v1.75c0 .322.261.583.583.583s.583-.261.583-.583V8.167h.186l2.333 2.176c.152.142.369.193.569.132a.58.58 0 0 0 .398-.426c.047-.203-.018-.416-.17-.558l-1.514-1.409a3.66 3.66 0 0 0 .894-.3c1.542.834 6.61 4.13 8.508 12.186.825 3.507.528 6.19-.884 7.972-1.806 2.278-4.94 2.395-5.549 2.395h-8.277c-.322 0-.583.261-.583.583s.261.583.583.583h8.278c.992 0 4.378-.205 6.463-2.837 1.644-2.076 2.016-5.092 1.105-8.963zM4.375 28.583c1.929 0 3.208.7 3.208 1.167s-1.279 1.167-3.208 1.167-3.208-.7-3.208-1.167 1.279-1.167 3.208-1.167zm0 5.25c-1.929 0-3.208-.7-3.208-1.167v-1.301a6.65 6.65 0 0 0 3.208.718c1.113.033 2.216-.214 3.208-.718v1.301c0 .467-1.279 1.167-3.208 1.167zm7.583-1.167c-1.929 0-3.208-.7-3.208-1.167v-5.968a6.64 6.64 0 0 0 3.208.718c1.113.033 2.216-.214 3.208-.718V31.5c0 .467-1.279 1.167-3.208 1.167zm3.208-8.75c0 .467-1.279 1.167-3.208 1.167s-3.208-.7-3.208-1.167 1.279-1.167 3.208-1.167 3.208.7 3.208 1.167zm-7.583 0v4.218a6.65 6.65 0 0 0-3.208-.718 8.53 8.53 0 0 0-.875.044V14.449a6.65 6.65 0 0 0 3.208.718c1.113.033 2.216-.214 3.208-.718v7.389c-1.409.379-2.333 1.146-2.333 2.08zm2.333-11.083C9.917 13.3 8.637 14 6.708 14S3.5 13.3 3.5 12.833s1.279-1.167 3.208-1.167 3.208.7 3.208 1.167zm.292-7C8.279 5.833 7 5.133 7 4.667S8.279 3.5 10.208 3.5s3.208.7 3.208 1.167-1.279 1.167-3.208 1.167zm18.783-.583c0 .956-1.036 1.741-2.333 1.75a3.01 3.01 0 0 1-.645-.074A6.91 6.91 0 0 0 27.717 3.7a1.79 1.79 0 0 1 1.275 1.55zM16.84 1.622c.493.462 1.144.716 1.819.712.675.005 1.327-.25 1.82-.712.288-.291.681-.455 1.091-.455s.803.164 1.091.455a2.63 2.63 0 0 0 1.82.712c.676.005 1.328-.25 1.821-.712.162-.143.342-.264.535-.359 0 1.083-.201 3.761-2.081 5.23a2.5 2.5 0 0 1-1.464.501c.505-.867.905-1.792 1.191-2.754.056-.201 0-.416-.146-.565s-.36-.208-.562-.156-.361.208-.417.409A10.7 10.7 0 0 1 21.886 7h-.6a10.8 10.8 0 0 1-1.472-3.074c-.086-.31-.408-.492-.719-.405s-.492.408-.405.719c.286.963.686 1.888 1.192 2.756a2.51 2.51 0 0 1-1.495-.503c-1.88-1.468-2.081-4.146-2.081-5.225a2.28 2.28 0 0 1 .533.355z"/><use xlink:href="#B"/></g><defs><clipPath id="A"><path fill="#fff" d="M0 0h35v35H0z"/></clipPath><path id="B" d="M31.579 27.214a5.6 5.6 0 0 0 1.071-3.27c.007-.154-.047-.306-.151-.42s-.249-.183-.404-.19a.59.59 0 0 0-.611.555c.004.932-.282 1.841-.821 2.602-1.138 1.437-3.298 1.51-3.719 1.51-.322 0-.583.261-.583.583s.261.583.583.583c.516 0 3.162-.094 4.634-1.952z"/></defs></svg>