<svg width="36" height="35" viewBox="0 0 36 35" fill="none" xmlns="http://www.w3.org/2000/svg">
<g clip-path="url(#clip0_1131_3267)">
<path d="M26.0261 18.9742C31.0121 18.9742 35.0685 15.2475 35.0685 10.6665C35.0685 6.08573 31.0121 2.35874 26.0261 2.35874C22.9465 2.35874 20.2221 3.78077 18.5884 5.94714C17.8098 5.51049 16.9847 5.17177 16.1299 4.93472V4.2637C16.1299 2.68702 14.847 1.40411 13.2703 1.40411H13.236C11.6594 1.40411 10.3764 2.68702 10.3764 4.2637V4.87854C5.57283 6.11436 2.01252 10.4821 2.01252 15.6662V25.7898C0.777237 26.5459 0 27.8976 0 29.345C0 29.7234 0.306614 30.03 0.684932 30.03H9.86569V30.3411C9.86569 32.2089 11.3854 33.7286 13.2532 33.7286C15.1209 33.7286 16.6406 32.2089 16.6406 30.3411V30.03H25.8214C26.1997 30.03 26.5063 29.7234 26.5063 29.345C26.5063 27.8162 25.6312 26.3942 24.2864 25.6716V18.8196C24.8566 18.9218 25.438 18.9742 26.0261 18.9742ZM26.0261 3.7286C30.2566 3.7286 33.6986 6.84103 33.6986 10.6665C33.6986 14.4919 30.2566 17.6043 26.0261 17.6043C25.1183 17.6043 24.23 17.4623 23.3853 17.1822C23.2483 17.1367 23.1007 17.1356 22.9631 17.1792L20.5889 17.9305V15.8551C20.5889 15.671 20.515 15.495 20.3837 15.366C19.0745 14.0815 18.3535 12.4125 18.3535 10.6665C18.3535 6.84103 21.7953 3.7286 26.0261 3.7286ZM11.7463 4.52885V4.2637C11.7463 3.44232 12.4147 2.77398 13.236 2.77398H13.2703C14.0917 2.77398 14.76 3.44232 14.76 4.2637V4.52885H11.7463ZM15.2708 30.3409C15.2708 31.4536 14.3656 32.3587 13.2532 32.3587C12.1407 32.3587 11.2356 31.4536 11.2356 30.3409V30.03H15.271V30.3409H15.2708ZM25.0479 28.6601H1.45789C1.65293 27.9128 2.15914 27.2605 2.86146 26.8817H10.0912C10.4696 26.8817 10.7762 26.5751 10.7762 26.1968C10.7762 25.8184 10.4696 25.5118 10.0912 25.5118H3.38238V15.6662C3.38238 10.2807 7.76381 5.89898 13.1493 5.89871C14.806 5.89871 16.4202 6.31502 17.8569 7.1067C17.2972 8.18627 16.9836 9.3932 16.9836 10.6665C16.9836 12.6894 17.7753 14.6206 19.219 16.1355V18.8653C19.219 19.0836 19.3231 19.2889 19.4991 19.4181C19.6182 19.505 19.7603 19.5503 19.9039 19.5503C19.9732 19.5503 20.0431 19.5398 20.1105 19.5184L22.9166 18.6307V26.1069C22.9166 26.3875 23.0875 26.6398 23.3484 26.7434C24.1971 27.0808 24.8248 27.8088 25.0479 28.6601Z" fill="#3E3465"/>
<path d="M22.4857 11.3848C22.6666 11.3848 22.8426 11.3121 22.97 11.1842C23.0981 11.0568 23.1706 10.8808 23.1706 10.6999C23.1706 10.5199 23.0981 10.343 22.97 10.2156C22.8426 10.0883 22.6666 10.015 22.4857 10.015C22.3057 10.015 22.1288 10.0883 22.0014 10.2156C21.8741 10.343 21.8008 10.5199 21.8008 10.6999C21.8008 10.8808 21.8741 11.0568 22.0014 11.1842C22.1288 11.3121 22.3057 11.3848 22.4857 11.3848Z" fill="#3E3465"/>
<path d="M26.0267 11.3848C26.2068 11.3848 26.3836 11.3121 26.511 11.1842C26.6384 11.0568 26.7117 10.8808 26.7117 10.6999C26.7117 10.5199 26.6384 10.343 26.511 10.2156C26.3836 10.0883 26.2068 10.015 26.0267 10.015C25.8467 10.015 25.6698 10.0883 25.5425 10.2156C25.4151 10.343 25.3418 10.5199 25.3418 10.6999C25.3418 10.8808 25.4151 11.0568 25.5425 11.1842C25.6698 11.3121 25.8467 11.3848 26.0267 11.3848Z" fill="#3E3465"/>
<path d="M29.5658 11.3848C29.7459 11.3848 29.9224 11.3121 30.0498 11.1842C30.1774 11.0568 30.2507 10.88 30.2507 10.6999C30.2507 10.5199 30.1774 10.343 30.0498 10.2156C29.9224 10.0883 29.7459 10.015 29.5658 10.015C29.3849 10.015 29.2089 10.0883 29.0815 10.2156C28.9534 10.343 28.8809 10.5199 28.8809 10.6999C28.8809 10.88 28.9534 11.0568 29.0815 11.1842C29.2089 11.3121 29.3849 11.3848 29.5658 11.3848Z" fill="#3E3465"/>
<path d="M13.0131 25.5116C12.833 25.5116 12.6561 25.5849 12.5288 25.7122C12.4014 25.8396 12.3281 26.0164 12.3281 26.1965C12.3281 26.3774 12.4014 26.5539 12.5288 26.6813C12.6561 26.8087 12.833 26.8814 13.0131 26.8814C13.1931 26.8814 13.37 26.8087 13.4973 26.6813C13.6247 26.5534 13.698 26.3774 13.698 26.1965C13.698 26.0164 13.6247 25.8396 13.4973 25.7122C13.37 25.5849 13.1931 25.5116 13.0131 25.5116Z" fill="#3E3465"/>
</g>
<defs>
<clipPath id="clip0_1131_3267">
<rect width="35.0685" height="35" fill="white"/>
</clipPath>
</defs>
</svg>
