<svg xmlns="http://www.w3.org/2000/svg" width="35" height="35" fill="none" xmlns:v="https://vecta.io/nano"><path d="M33.057 9.354L17.745 1.698c-.076-.038-.16-.058-.244-.058s-.169.02-.244.058L1.943 9.354c-.091.045-.167.115-.221.202s-.082.186-.082.288v15.312c-.001.102.027.202.081.289s.13.157.222.203l15.313 7.656c.076.038.16.058.244.058s.169-.02.244-.058l15.313-7.656c.091-.046.168-.116.221-.203a.55.55 0 0 0 .081-.289V9.844c0-.102-.028-.201-.082-.288s-.13-.156-.221-.202zM17.5 16.888l-4.275-2.138 13.664-7.259 4.703 2.352L17.5 16.888zm-8.65-4.325l13.664-7.259 3.172 1.586-13.663 7.26-3.174-1.587zm-.647.9l3.281 1.641v4.357l-1.254-1.254c-.102-.103-.242-.16-.387-.16H8.203v-4.584zM17.5 2.799l3.813 1.904-13.664 7.26L3.41 9.844 17.5 2.799zm-14.766 7.93l4.375 2.188v5.678c0 .145.058.284.16.387s.242.16.387.16h1.961l2.027 2.027c.076.076.174.128.28.15s.216.01.316-.031.185-.111.245-.201.092-.196.092-.304V15.65l4.375 2.188v14.09L2.734 24.818v-14.09zm15.313 21.199v-14.09l14.219-7.109v14.09l-14.219 7.109z" fill="#3e3465"/></svg>