<svg width="35" height="35" viewBox="0 0 35 35" fill="none" xmlns="http://www.w3.org/2000/svg">
<g clip-path="url(#clip0_1131_3476)">
<path d="M32.4726 0H31.5513C31.268 0 31.0381 0.229645 31.0381 0.513229C31.0381 0.796814 31.2677 1.02646 31.5513 1.02646H32.4726C33.0483 1.02646 33.5169 1.49483 33.5169 2.07081V17.8794C33.5169 18.4552 33.0483 18.9235 32.4726 18.9235H12.9397C12.364 18.9235 11.8956 18.4552 11.8956 17.8794V13.3213C11.8956 13.0377 11.6657 12.808 11.3824 12.808C11.0988 12.808 10.8691 13.0377 10.8691 13.3213V17.8794C10.8691 19.0213 11.7979 19.95 12.9397 19.95H17.1382C17.2597 20.9161 18.0856 21.6659 19.084 21.6659H22.1215V28.0356L16.0332 34.1239C15.8329 34.3244 15.8329 34.6491 16.0332 34.8497C16.2337 35.0502 16.5587 35.0502 16.759 34.8497L20.0635 31.5452L22.2718 33.7535C22.3719 33.8536 22.5033 33.9038 22.6347 33.9038C22.7661 33.9038 22.8974 33.8536 22.9976 33.7535L25.2059 31.5452L28.5104 34.8497C28.6105 34.9498 28.7419 35 28.8733 35C29.0047 35 29.136 34.9498 29.2362 34.8497C29.4367 34.6491 29.4367 34.3244 29.2362 34.1239L23.1479 28.0356V21.6659H25.6404C26.6388 21.6659 27.4647 20.9161 27.5862 19.95H32.4726C33.6144 19.95 34.5434 19.0213 34.5434 17.8794V2.07054C34.5431 0.928993 33.6144 0 32.4726 0V0ZM22.1215 29.4872V32.1516L20.7895 30.8194L22.1215 29.4872ZM24.4801 30.8194L23.1479 32.1516V29.4872L24.4801 30.8194ZM25.6401 20.6395H19.084C18.6533 20.6395 18.2896 20.3468 18.1815 19.95H26.5429C26.4345 20.3468 26.0708 20.6395 25.6401 20.6395Z" fill="#3E3465"/>
<path d="M20.5053 6.7852C20.2255 6.94675 20.0586 7.23594 20.0586 7.55905V12.3909C20.0586 12.714 20.2255 13.0032 20.5053 13.1648C20.6453 13.2457 20.7985 13.286 20.9521 13.286C21.1056 13.286 21.2589 13.2457 21.3988 13.1648L25.5834 10.7487C25.863 10.5874 26.0302 10.298 26.0302 9.97513C26.0302 9.65202 25.863 9.36283 25.5834 9.20128L21.3988 6.78547C21.119 6.62391 20.7849 6.62391 20.5053 6.7852ZM25.0702 10.0902H25.0699H25.0702ZM21.0851 12.1608V7.78923L24.8707 9.97513L21.0851 12.1608Z" fill="#3E3465"/>
<path d="M9.62559 32.3588V18.6808C9.62559 18.6789 9.62585 18.6771 9.62585 18.6749V11.6614H17.2172C18.1817 11.6614 18.9663 10.8763 18.9663 9.91157V8.64105C18.9663 8.35773 18.7366 8.12782 18.453 8.12782H11.8948V2.07054C11.8948 1.49483 12.3632 1.02646 12.9389 1.02646H29.4813C29.7649 1.02646 29.9945 0.796547 29.9945 0.513229C29.9945 0.229645 29.7649 0 29.4813 0H12.9389C11.7971 0 10.8683 0.928993 10.8683 2.07054V8.12809H7.61993V7.38922C8.42022 6.82766 8.94466 5.89893 8.94466 4.84924V1.86226C8.94466 0.835533 8.1094 0.000267029 7.08267 0.000267029H4.60278C3.57605 0.000267029 2.74078 0.835533 2.74078 1.86226V4.84924C2.74078 5.9259 3.29246 6.87572 4.12746 7.43221V8.12809H3.02998C1.58535 8.12809 0.410156 9.30302 0.410156 10.7471V16.6306C0.410156 18.0407 1.55758 19.1882 2.96802 19.1882H3.01983V20.6234C3.01983 20.907 3.24947 21.1367 3.53306 21.1367C3.81638 21.1367 4.04629 20.907 4.04629 20.6234V19.1882H8.59939V32.0694H6.83594V22.8312C6.83594 22.5476 6.60629 22.318 6.32271 22.318C6.03939 22.318 5.80948 22.5476 5.80948 22.8312V32.0691H4.04602V23.0379C4.04602 22.7543 3.81638 22.5247 3.53279 22.5247C3.24947 22.5247 3.01956 22.7543 3.01956 23.0379V34.0678C3.01956 34.5044 3.37498 34.8595 3.81157 34.8595H10.2803C10.5637 34.8595 10.7936 34.6299 10.7936 34.3463C10.7936 33.4934 10.3217 32.7487 9.62559 32.3588ZM3.76724 1.86226C3.76724 1.40163 4.14215 1.02673 4.60278 1.02673H7.0824C7.5433 1.02673 7.9182 1.40163 7.9182 1.86226V2.61608C7.672 2.49218 7.39483 2.42142 7.1019 2.41848V2.39658C7.1019 2.11327 6.87225 1.88335 6.58867 1.88335C6.30535 1.88335 6.07544 2.11327 6.07544 2.39658V2.41795H4.60278C4.30263 2.41795 4.01878 2.48924 3.76724 2.61608V1.86226ZM3.76724 4.27994C3.76724 3.81905 4.14215 3.4444 4.60278 3.4444H7.0824C7.5433 3.4444 7.9182 3.81905 7.9182 4.27994V4.84924C7.9182 5.99373 6.98707 6.92486 5.84259 6.92486C4.69837 6.92486 3.76724 5.99373 3.76724 4.84924V4.27994ZM5.84259 7.95105C6.10161 7.95105 6.35288 7.91874 6.59347 7.85866V8.61435C6.59321 8.62076 6.59294 8.62717 6.59294 8.63384C6.58733 9.0245 6.26476 9.34227 5.87357 9.34227C5.48264 9.34227 5.16006 9.0245 5.15446 8.63384C5.15446 8.62717 5.15419 8.62076 5.15392 8.61435V7.87308C5.37556 7.92354 5.606 7.95105 5.84259 7.95105ZM1.43661 16.6303V10.7471C1.43661 9.86885 2.15145 9.15428 3.02998 9.15428H4.21158C4.43829 9.85683 5.10078 10.3687 5.87357 10.3687C6.64635 10.3687 7.30884 9.85683 7.53555 9.15428H17.9398V9.91157C17.9398 10.3102 17.6156 10.6347 17.2172 10.6347H9.30462C8.91582 10.6347 8.59939 10.9511 8.59939 11.3399V18.1614H4.04602V12.3837C4.04602 12.1004 3.81638 11.8705 3.53279 11.8705C3.24947 11.8705 3.01956 12.1001 3.01956 12.3837V18.1617H2.96802C2.12341 18.1617 1.43661 17.4749 1.43661 16.6303ZM6.60175 33.8331H4.04602V33.0955H5.72643C6.23352 33.0955 6.67091 33.3986 6.86718 33.8331H6.60175ZM7.94464 33.8331C7.88296 33.5666 7.77454 33.3177 7.62821 33.0958H8.51662C9.02317 33.0958 9.46056 33.3986 9.65683 33.8331H7.94464Z" fill="#3E3465"/>
</g>
<defs>
<clipPath id="clip0_1131_3476">
<rect width="35" height="35" fill="white"/>
</clipPath>
</defs>
</svg>
