<svg xmlns="http://www.w3.org/2000/svg" width="35" height="36" fill="none" xmlns:v="https://vecta.io/nano"><g clip-path="url(#A)" fill="#3e3465"><path d="M8.881 3.881a2.17 2.17 0 0 0-2.168 2.168 2.17 2.17 0 0 0 2.168 2.168 2.17 2.17 0 0 0 2.168-2.168 2.17 2.17 0 0 0-2.168-2.168zm0 3.31c-.63 0-1.142-.512-1.142-1.142s.512-1.142 1.142-1.142 1.142.512 1.142 1.142-.512 1.142-1.142 1.142zm2.167 8.567v-1.982c0-.283-.23-.513-.513-.513H5.313c-.283 0-.513.229-.513.513v1.982c0 .283.229.513.513.513h5.222c.283 0 .513-.23.513-.513zm-1.025-.513H5.826v-.956h4.197v.956h0zM32.66 4.756h-3.254c-.567 0-1.061.315-1.317.78h-13.66v-.325c0-.242-.17-.452-.407-.502l-1.249-.263.691-1.086a.51.51 0 0 0-.067-.643l-1.185-1.185c-.171-.171-.439-.199-.643-.067l-1.069.698-.28-1.256C10.17.67 9.961.5 9.718.5H8.043c-.242 0-.452.17-.502.407l-.263 1.249-1.086-.691c-.203-.132-.471-.104-.643.067L4.365 2.717c-.171.172-.199.44-.067.643l.698 1.069-1.256.279c-.237.05-.407.259-.407.502v.325h-.014A2.47 2.47 0 0 0 .852 8.003v15.948a2.47 2.47 0 0 0 2.467 2.467h1.942a3.68 3.68 0 0 0 3.62 3.143c.532 0 1.036-.115 1.492-.32l-1.16 4.537c-.46 1.801 2.41 2.413 2.852.684l2.056-8.044h1.669v7.702c0 .751.63 1.38 1.38 1.38s1.38-.63 1.38-1.38v-7.702h1.669l2.056 8.044c.442 1.729 3.313 1.119 2.852-.683l-1.881-7.36h7.776a2.47 2.47 0 0 0 2.467-2.467V12.873c0-.283-.23-.513-.513-.513s-.513.229-.513.513v11.078c0 .795-.647 1.441-1.441 1.441H12.5a3.66 3.66 0 0 0-3.62-3.142 3.68 3.68 0 0 0-3.619 3.143H3.318c-.795 0-1.441-.647-1.441-1.441V9.06h2.34a.51.51 0 0 0 .148.32l1.185 1.185c.171.171.439.199.643.067l1.069-.698.279 1.256c.05.237.259.407.502.407h1.676c.242 0 .452-.17.502-.407l.263-1.249 1.086.691c.203.133.471.104.643-.067l1.185-1.185a.51.51 0 0 0 .148-.32h14.176l-4.779 4.78-2.455-2.454c-.382-.384-1.017-.383-1.4-.001l-1.594 1.594c-.2.2-.2.525 0 .725s.525.2.725 0l1.568-1.568 2.456 2.455c.382.382 1.017.383 1.399 0l6.977-6.977a.51.51 0 0 0 .111-.559c-.08-.192-.266-.317-.474-.317h-.848c-.617 0-.616-.956 0-.956h3.254c.256 0 .465.208.465.464V9.5a.48.48 0 0 1-.478.478.48.48 0 0 1-.478-.478v-.847c0-.207-.125-.394-.316-.474a.51.51 0 0 0-.559.111l-8.353 8.352-2.456-2.455a.99.99 0 0 0-1.399 0l-4.208 4.208c-.431.431-1.113-.239-.676-.677l2.306-2.306c.2-.2.2-.525 0-.725s-.525-.2-.725 0l-2.306 2.306a1.52 1.52 0 0 0 .044 2.167c.584.542 1.519.524 2.082-.041l4.182-4.182 2.456 2.455a1 1 0 0 0 1.399.001l7.544-7.544c.158.661.754 1.155 1.463 1.155A1.52 1.52 0 0 0 34.15 9.5V6.245a1.49 1.49 0 0 0-1.49-1.489zM11.072 34.208c-.114.445-.994.33-.865-.176l1.479-5.786a3.64 3.64 0 0 0 .814-1.828h.563l-1.991 7.79zm6.454-.088c0 .457-.71.457-.71 0v-7.702h.71v7.702zm6.609-.088c.129.504-.751.62-.865.176l-1.991-7.79h.91l1.946 7.614zM8.287 23.342a2.69 2.69 0 0 1 .594-.067c1.45 0 2.63 1.179 2.63 2.629v.001.001c-.001 1.45-1.18 2.629-2.63 2.629a2.65 2.65 0 0 1-2.63-2.63c0-1.233.838-2.287 2.036-2.563zm-6.41-15.34c0-.795.647-1.441 1.441-1.441h.014v.325c0 .242.17.452.407.502l1.249.263-.233.384H1.877v-.032zm9.904 1.542l-.958-.625c-.348-.227-1.201.131-1.285.533l-.236 1.119h-.843l-.235-1.119c-.085-.406-.942-.757-1.285-.533l-.958.625-.596-.596.625-.958c.227-.348-.131-1.201-.532-1.285L4.357 6.47v-.843l1.119-.236c.406-.085.756-.942.532-1.285l-.625-.958.596-.596.958.625c.348.227 1.201-.131 1.285-.532l.236-1.119h.843l.236 1.119c.085.406.941.756 1.285.532l.958-.625.597.596-.625.958c-.227.348.131 1.201.533 1.285l1.119.236v.843l-1.119.235c-.406.085-.757.942-.533 1.285l.625.958-.597.596zm17.276-1.823l-.312.312h-15.74l-.239-.367 1.256-.279c.237-.05.407-.259.407-.502V6.56h13.504c.115.566.562 1.028 1.124 1.161zm.798 14.245h-9.717c-.283 0-.513.229-.513.513s.23.513.513.513h9.717c.283 0 .513-.229.513-.513s-.23-.513-.513-.513zm0-2.249h-5.761c-.283 0-.513.23-.513.513s.229.513.513.513h5.761c.283 0 .513-.23.513-.513s-.229-.513-.513-.513zM5.313 17.193c-.283 0-.513.23-.513.513s.229.513.513.513H8.88c.283 0 .513-.23.513-.513s-.229-.513-.513-.513H5.313zm3.567 9.916c.283 0 .513-.23.513-.513v-1.383c0-.283-.229-.513-.513-.513a.51.51 0 0 0-.513.513v1.383c0 .283.229.513.513.513z"/></g><defs><clipPath id="A"><path fill="#fff" transform="translate(0 .5)" d="M0 0h35v35H0z"/></clipPath></defs></svg>