<svg xmlns="http://www.w3.org/2000/svg" width="35" height="36" fill="none" xmlns:v="https://vecta.io/nano"><g clip-path="url(#A)" fill="#3e3465"><path d="M32.248 18.266c-.194-.206-.519-.216-.725-.022s-.216.519-.022.725a9.06 9.06 0 0 1 2.473 6.234 9.11 9.11 0 0 1-9.095 9.095c-5.015 0-9.094-4.08-9.094-9.094s4.08-9.094 9.094-9.094a9.04 9.04 0 0 1 5.151 1.599c.233.161.553.102.713-.131s.102-.552-.131-.713a10.06 10.06 0 0 0-5.732-1.78 10.07 10.07 0 0 0-2.422.294c-.376-.393-.896-.62-1.453-.62h-.201a2 2 0 0 0 .26-.986v-1.887c0-1.109-.902-2.012-2.012-2.012h-2.181l-4.069-7.048a2.62 2.62 0 0 0-2.291-1.322c-.956 0-1.812.494-2.29 1.322L4.15 9.873H2.836c-1.109 0-2.012.902-2.012 2.012v1.887c0 1.109.902 2.012 2.012 2.012h.201a2 2 0 0 0-.259.986v1.887a2 2 0 0 0 .259.986H2.012c-1.11 0-2.012.902-2.012 2.011v1.887c0 .985.711 1.805 1.646 1.978a2 2 0 0 0-.279 1.02v1.887a2 2 0 0 0 .327 1.098c-.786.273-1.353 1.022-1.353 1.9v1.887c0 1.109.902 2.012 2.012 2.012h16.215a2.02 2.02 0 0 0 1.779-1.073 10.06 10.06 0 0 0 4.532 1.074c5.58 0 10.12-4.54 10.12-10.12a10.08 10.08 0 0 0-2.752-6.937zM2.393 28.426v-1.887a.99.99 0 0 1 .986-.986h11.389a10.05 10.05 0 0 0 .911 3.86h-12.3a.99.99 0 0 1-.986-.986zm18.761-12.631c-1.941.771-3.588 2.127-4.724 3.848h-2.425v-3.86h5.047 1.954a1.03 1.03 0 0 1 .148.011zm-1.116-3.91v1.887a.99.99 0 0 1-.986.987h-5.047v-.462h.839a2.62 2.62 0 0 0 2.291-1.323c.372-.645.453-1.387.245-2.075h1.672a.99.99 0 0 1 .986.986zM1.85 13.772v-1.887a.99.99 0 0 1 .986-.986h.805a2.61 2.61 0 0 0-.047 1.327.51.51 0 0 0 .613.387c.276-.063.45-.337.387-.613a1.58 1.58 0 0 1 .181-1.158l4.333-7.505a1.6 1.6 0 0 1 1.401-.809h0c.586 0 1.11.303 1.403.81l4.333 7.504a1.6 1.6 0 0 1 0 1.619c-.293.507-.817.81-1.403.81h-1.351c-.283 0-.513.229-.513.513v7.909a.83.83 0 0 1-.829.829H8.872a.83.83 0 0 1-.829-.829v-7.908c0-.283-.23-.513-.513-.513H6.178a1.63 1.63 0 0 1-.558-.096.51.51 0 1 0-.35.964 2.65 2.65 0 0 0 .909.158h.839v.462H4.79 2.836a.99.99 0 0 1-.986-.987zm1.954 4.885V16.77a.99.99 0 0 1 .986-.986h2.227v3.86H4.79a.99.99 0 0 1-.986-.986zm-2.778 4.884v-1.887c0-.544.442-.986.986-.986H4.79h2.227v1.024a1.86 1.86 0 0 0 1.855 1.855h3.279a1.86 1.86 0 0 0 1.855-1.855v-1.024h1.831a10.06 10.06 0 0 0-1.052 3.859H3.379 2.012a.99.99 0 0 1-.986-.986zM18.57 34.297H2.354a.99.99 0 0 1-.986-.986v-1.887a.99.99 0 0 1 .986-.986h1.025 12.844a10.2 10.2 0 0 0 3.233 3.305.99.99 0 0 1-.886.555zm7.323-9.626l-.553-.166v-2.272c.55.081.879.313.904.331.225.168.545.124.715-.101s.127-.547-.098-.718c-.033-.025-.6-.445-1.521-.544v-.443c0-.283-.229-.513-.513-.513s-.513.23-.513.513v.476l-.303.063c-.864.215-1.51.874-1.644 1.68-.113.68.164 1.327.724 1.689.308.199.693.381 1.223.575v2.878c-.532-.022-.884-.112-1.463-.424-.249-.134-.56-.041-.695.208s-.041.56.208.695c.765.412 1.261.523 1.95.547v.503c0 .283.229.513.513.513s.513-.23.513-.513v-.537c1.351-.202 2.174-1.161 2.306-2.106.149-1.064-.54-1.981-1.753-2.334zm-2.245-.866c-.309-.199-.291-.527-.269-.659.053-.32.312-.713.879-.853l.056-.013v1.861c-.254-.106-.483-.218-.667-.336zm2.983 3.058c-.072.515-.529 1.037-1.29 1.205v-2.491l.266.079c.729.212 1.102.652 1.024 1.207zm-1.75-8.66a7.01 7.01 0 0 0-7 7 7.01 7.01 0 0 0 7 7 7.01 7.01 0 0 0 7-7 7.01 7.01 0 0 0-7-7zm0 12.974c-3.294 0-5.974-2.68-5.974-5.974s2.68-5.974 5.974-5.974 5.974 2.68 5.974 5.974-2.68 5.974-5.974 5.974zm.105-19.419l.039.146c.181.677.8 1.133 1.479 1.133a1.51 1.51 0 0 0 .292-.029l1.613-.316c.414-.081.78-.333 1.004-.691s.289-.797.18-1.205l-.097-.364c-.109-.408-.386-.755-.758-.954a1.53 1.53 0 0 0-1.215-.097l-1.555.533c-.757.26-1.188 1.069-.981 1.842zm1.314-.872l1.555-.533a.5.5 0 0 1 .65.346l.097.364a.5.5 0 0 1-.39.625l-1.613.316c-.26.051-.515-.109-.583-.364l-.039-.146c-.068-.255.074-.521.323-.607zm-3.625-3.132c.296.296.689.446 1.082.446.358 0 .716-.124 1.004-.375L26 6.745a1.53 1.53 0 0 0 .523-1.1c.014-.422-.148-.835-.447-1.134l-.266-.266a1.53 1.53 0 0 0-2.234.076l-1.08 1.239c-.526.604-.495 1.52.072 2.086l.107.107zm.594-1.519l1.08-1.239a.5.5 0 0 1 .362-.172.51.51 0 0 1 .373.147l.266.266a.5.5 0 0 1-.025.736l-1.239 1.08c-.199.173-.501.163-.687-.024l-.107-.107c-.187-.187-.197-.488-.024-.687zm-4.852-.94l.146.039a1.52 1.52 0 0 0 .393.052c.639 0 1.233-.404 1.449-1.033l.533-1.555c.137-.399.102-.842-.097-1.215s-.546-.649-.954-.758l-.364-.097c-.408-.109-.847-.044-1.205.18s-.61.589-.691 1.004l-.316 1.613c-.154.786.332 1.563 1.105 1.771zm-.099-1.574l.316-1.613a.5.5 0 0 1 .493-.407.51.51 0 0 1 .132.017l.364.097a.5.5 0 0 1 .314.25.5.5 0 0 1 .032.4l-.533 1.555c-.085.249-.352.391-.607.323l-.146-.039c-.255-.068-.415-.325-.364-.583z"/></g><defs><clipPath id="A"><path fill="#fff" transform="translate(0 .5)" d="M0 0h35v35H0z"/></clipPath></defs></svg>