<svg xmlns="http://www.w3.org/2000/svg" xmlns:xlink="http://www.w3.org/1999/xlink" width="35" height="35" fill="none" xmlns:v="https://vecta.io/nano"><g fill="#3e3465"><use xlink:href="#B"/><use xlink:href="#B" x="-2.187"/><use xlink:href="#B" x="4.375"/><use xlink:href="#B" x="2.188"/><use xlink:href="#B" x="-4.375"/><use xlink:href="#B" x="6.563"/><use xlink:href="#B" x="-6.562"/><use xlink:href="#C"/><use xlink:href="#C" x="8.75"/><use xlink:href="#C" x="13.125"/><use xlink:href="#C" x="10.937"/><use xlink:href="#C" x="6.562"/><use xlink:href="#C" x="2.187"/><use xlink:href="#C" x="4.375"/><use xlink:href="#D"/><use xlink:href="#D" x="-10.938"/><use xlink:href="#D" x="-8.75"/><use xlink:href="#D" x="-6.563"/><use xlink:href="#D" x="-13.125"/><use xlink:href="#D" x="-2.188"/><use xlink:href="#D" x="-4.375"/><use xlink:href="#D" x="-10.938" y="2.188"/><use xlink:href="#D" x="-8.75" y="2.188"/><use xlink:href="#D" x="-2.188" y="2.188"/><use xlink:href="#D" x="-13.125" y="2.188"/><use xlink:href="#D" x="-4.375" y="2.188"/><use xlink:href="#D" y="2.188"/><use xlink:href="#D" x="-6.563" y="2.188"/><path d="M31.172 27.785c.373-.133.697-.389.893-.749a1.63 1.63 0 0 0-.655-2.226l-4.613-2.516V2.734h-1.094v-.547c0-.905-.736-1.641-1.641-1.641H10.938c-.905 0-1.641.736-1.641 1.641v.547H8.204v19.56L3.591 24.81a1.63 1.63 0 0 0-.789.978c-.124.421-.076.864.134 1.248.196.36.52.616.894.75v5.575H2.735v1.094h29.531v-1.094h-1.094v-5.575zm-4.922 5.575h-3.281v-3.828c0-.302.245-.547.547-.547h2.188c.302 0 .547.245.547.547v3.828zm-.547-5.469h-2.187c-.904 0-1.641.736-1.641 1.641v3.828h-2.734v-5.575c.08-.029.163-.053.238-.094l5.23-2.854 5.229 2.852c.076.041.159.066.24.095v5.575h-2.734v-3.828c0-.904-.736-1.641-1.641-1.641zm-2.734-9.297H12.032c-.302 0-.547-.245-.547-.547s.245-.547.547-.547h10.938c.302 0 .547.245.547.547s-.245.547-.547.547zm-10.391 1.094h9.844v2.606l-4.614 2.516c-.113.062-.214.138-.308.223a1.64 1.64 0 0 0-.308-.223l-4.614-2.516v-2.606zm4.376 8.097a1.62 1.62 0 0 0 .546-.326c.159.144.344.253.546.326v5.575h-1.093v-5.575zm14.195-1.689c.042.141.026.289-.044.417a.56.56 0 0 1-.743.217l-5.753-3.138-5.755 3.139c-.251.138-.601.036-.74-.219-.07-.127-.085-.276-.044-.415a.54.54 0 0 1 .263-.326l6.278-3.424 6.278 3.424c.13.071.22.184.262.325zM10.391 2.188c0-.302.245-.547.547-.547h13.125c.302 0 .547.245.547.547v.547H10.391v-.547zm15.313 1.641v1.641H9.298V3.828h16.406zM9.298 6.563h16.406v15.135l-1.094-.597-1.093.596v-2.11c.635-.226 1.094-.828 1.094-1.54 0-.904-.736-1.641-1.641-1.641H12.032c-.905 0-1.641.736-1.641 1.641 0 .712.459 1.314 1.094 1.54v2.11l-1.093-.596-1.094.597V6.563zM3.851 26.096c.042-.143.133-.255.263-.326l6.278-3.424 6.278 3.424c.13.071.221.184.262.325s.026.289-.044.417a.56.56 0 0 1-.743.217l-5.753-3.138-5.755 3.139c-.251.138-.601.036-.74-.219a.54.54 0 0 1-.045-.415zm1.072 1.688c.08-.029.163-.053.238-.094l5.23-2.854 5.229 2.852c.076.041.159.066.24.095v5.575h-2.734v-3.828c0-.904-.736-1.641-1.641-1.641H9.298c-.905 0-1.641.736-1.641 1.641v3.828H4.923v-5.575zm7.109 5.575H8.751v-3.828c0-.302.245-.547.547-.547h2.188c.302 0 .547.245.547.547v3.828z"/><use xlink:href="#D" x="9.843" y="21.328"/><path d="M.547 33.359h1.094v1.094H.547v-1.094z"/></g><defs ><path id="B" d="M16.953 7.656h1.094V8.75h-1.094V7.656z"/><path id="C" d="M10.391 9.844h1.094v1.094h-1.094V9.844z"/><path id="D" d="M23.516 12.031h1.094v1.094h-1.094v-1.094z"/></defs></svg>