<svg width="35" height="35" viewBox="0 0 35 35" fill="none" xmlns="http://www.w3.org/2000/svg">
<g clip-path="url(#clip0_1131_3428)">
<path d="M4.22427 5.80486C3.9589 5.84342 3.74261 6.0258 3.65975 6.28071C3.5769 6.53569 3.64465 6.81036 3.83667 6.9976L5.25636 8.38133L4.92119 10.3352C4.8758 10.5995 4.98237 10.8615 5.19928 11.0191C5.41611 11.1767 5.69837 11.1971 5.93578 11.0724L7.6905 10.1499L9.44528 11.0724C9.69589 11.196 9.94137 11.1783 10.1817 11.0191C10.3986 10.8615 10.5052 10.5995 10.4598 10.3352L10.1247 8.38133L11.5443 6.99766C11.7363 6.8105 11.8042 6.5359 11.7213 6.28085C11.6384 6.0258 11.4221 5.84335 11.1567 5.80486L9.19495 5.5198L8.31763 3.74205C8.19896 3.50163 7.95867 3.35226 7.69057 3.35226C7.42246 3.35226 7.18211 3.50163 7.06351 3.74205L6.18604 5.51974L4.22427 5.80486ZM7.02946 6.12704L7.69043 4.78774L8.35153 6.12731C8.45346 6.33355 8.65026 6.47642 8.87797 6.50958L10.356 6.72436L9.28642 7.76691C9.12153 7.92763 9.04641 8.15909 9.08537 8.38584L9.33776 9.85789L8.01589 9.16288C7.91397 9.10929 7.80227 9.08256 7.6905 9.08256C7.57873 9.08256 7.4669 9.10929 7.36511 9.16288L6.04317 9.85789L6.29569 8.3855C6.33445 8.15875 6.25926 7.92749 6.09451 7.76691L5.02489 6.72436L6.50289 6.50958C6.73066 6.47649 6.9274 6.33362 7.02946 6.12704Z" fill="#3E3465"/>
<path d="M21.5259 6.28085C21.443 6.0258 21.2267 5.84335 20.9613 5.80486L18.9995 5.5198L18.1222 3.74205C18.0035 3.50163 17.7633 3.35226 17.4952 3.35226C17.227 3.35226 16.9867 3.50163 16.8681 3.74205L15.9908 5.5198L14.029 5.80486C13.7636 5.84342 13.5473 6.0258 13.4644 6.28085C13.3816 6.53583 13.4494 6.8105 13.6414 6.9976L15.061 8.38133L14.7259 10.3352C14.6805 10.5995 14.7871 10.8615 15.004 11.0192C15.2208 11.1767 15.5031 11.1972 15.7405 11.0725L17.4952 10.15L19.25 11.0725C19.5006 11.1961 19.7461 11.1783 19.9864 11.0192C20.2033 10.8615 20.3099 10.5995 20.2645 10.3353L19.9294 8.3814L21.349 6.99773C21.5409 6.8105 21.6087 6.53583 21.5259 6.28085ZM19.0911 7.76691C18.9262 7.92763 18.8511 8.15909 18.89 8.38584L19.1424 9.85789L17.8205 9.16288C17.7186 9.10929 17.6069 9.08256 17.4951 9.08256C17.3833 9.08256 17.2716 9.10929 17.1697 9.16288L15.8478 9.85789L16.1001 8.38604C16.1391 8.15916 16.0641 7.92769 15.8991 7.76691L14.8296 6.72436L16.3075 6.50958C16.5353 6.47649 16.732 6.33362 16.8341 6.12704L17.4951 4.78774L18.1562 6.12731C18.2582 6.33362 18.4549 6.47649 18.6826 6.50958L20.1606 6.72436L19.0911 7.76691Z" fill="#3E3465"/>
<path d="M31.3305 6.28071C31.2476 6.02573 31.0313 5.84335 30.766 5.80486L28.8042 5.5198L27.9269 3.74205C27.8082 3.50163 27.5679 3.35226 27.2998 3.35226C27.0317 3.35226 26.7914 3.50163 26.6728 3.74205L25.7955 5.5198L23.8337 5.80486C23.5682 5.84342 23.352 6.0258 23.2691 6.28085C23.1863 6.53583 23.2541 6.8105 23.4461 6.9976L24.8657 8.38133L24.5306 10.3352C24.4852 10.5995 24.5918 10.8615 24.8087 11.0192C25.0256 11.1767 25.3077 11.1972 25.5452 11.0725L27.2999 10.15L29.0547 11.0725C29.3053 11.1961 29.5508 11.1783 29.7911 11.0192C30.008 10.8615 30.1146 10.5995 30.0692 10.3352L29.734 8.3814L31.1537 6.9976C31.3456 6.81036 31.4134 6.53569 31.3305 6.28071ZM28.8958 7.76691C28.7311 7.92749 28.6558 8.15868 28.6946 8.38584L28.9471 9.85789L27.6252 9.16288C27.4213 9.05569 27.1782 9.05576 26.9743 9.16288L25.6524 9.85789L25.9048 8.38604C25.9437 8.15916 25.8687 7.92769 25.7037 7.76691L24.6342 6.72436L26.1122 6.50958C26.3399 6.47649 26.5367 6.33355 26.6387 6.12704L27.2997 4.78774L27.9608 6.12731C28.0628 6.33362 28.2595 6.47649 28.4872 6.50958L29.9652 6.72436L28.8958 7.76691Z" fill="#3E3465"/>
<path d="M3.16306 14.5006H4.93739L7.31227 17.6706C7.51194 17.9372 7.93208 17.9384 8.13265 17.6706L10.5075 14.5006H31.8272C33.5714 14.5006 34.9903 13.0817 34.9903 11.3375V3.16791C34.9903 1.42379 33.5714 0.00485962 31.8272 0.00485962H8.88426C8.22309 0.00485962 8.22309 1.02998 8.88426 1.02998H31.8273C33.0062 1.02998 33.9653 1.98906 33.9653 3.16798V11.3376C33.9653 12.5165 33.0062 13.4756 31.8273 13.4756H10.2511C10.0896 13.4756 9.93768 13.5516 9.84095 13.6809L7.72249 16.5086L5.60403 13.6809C5.50724 13.5517 5.35527 13.4756 5.19388 13.4756H3.16306C1.9842 13.4756 1.02505 12.5165 1.02505 11.3376V3.16791C1.02505 1.98906 1.98413 1.02991 3.16306 1.02991H6.28728C6.94846 1.02991 6.94846 0.00479126 6.28728 0.00479126H3.16306C1.41894 0.00479126 0 1.42379 0 3.16791V11.3375C0 13.0817 1.41894 14.5006 3.16306 14.5006Z" fill="#3E3465"/>
<path d="M7.68831 19.6185C3.44894 19.6185 0 23.0675 0 27.3069C0 31.5463 3.44894 34.9952 7.68831 34.9952C11.9277 34.9952 15.3766 31.5463 15.3766 27.3069C15.3766 23.0675 11.9277 19.6185 7.68831 19.6185ZM3.51511 32.4972C3.78745 30.4106 5.56685 28.8445 7.68141 28.8445C8.74036 28.8445 9.75194 29.2396 10.5297 29.9569C11.2599 30.6302 11.724 31.5302 11.8494 32.5069C10.7084 33.4218 9.26119 33.97 7.68824 33.97C6.10982 33.9701 4.65801 33.418 3.51511 32.4972ZM5.59706 25.7351C5.59706 24.5857 6.53215 23.6506 7.68147 23.6506C8.8308 23.6506 9.76589 24.5857 9.76589 25.7351C9.76589 26.8844 8.8308 27.8195 7.68147 27.8195C6.53215 27.8195 5.59706 26.8844 5.59706 25.7351ZM12.7242 31.6656C12.4679 30.7275 11.9526 29.8746 11.2247 29.2033C10.7442 28.7602 10.192 28.4163 9.59663 28.182C10.3229 27.6123 10.7909 26.7276 10.7909 25.7351C10.7909 24.0205 9.39593 22.6255 7.68134 22.6255C5.96675 22.6255 4.57181 24.0205 4.57181 25.7351C4.57181 26.7275 5.03973 27.6122 5.76591 28.1819C4.25674 28.7755 3.08219 30.0517 2.64195 31.6534C1.63481 30.4858 1.02498 28.9663 1.02498 27.3069C1.02498 23.6328 4.01406 20.6437 7.68817 20.6437C11.3623 20.6437 14.3514 23.6328 14.3514 27.3069C14.3515 28.9719 13.7376 30.4964 12.7242 31.6656Z" fill="#3E3465"/>
<path d="M19.1361 23.8898H33.2142C35.5017 23.8898 35.5084 20.3361 33.2142 20.3361H19.1361C16.8486 20.3362 16.8419 23.8898 19.1361 23.8898ZM19.1361 21.3612H33.2142C34.1814 21.3612 34.183 22.8647 33.2142 22.8647H19.1361C18.1689 22.8647 18.1673 21.3612 19.1361 21.3612Z" fill="#3E3465"/>
<path d="M19.1693 29.0837H33.2474C35.5349 29.0837 35.5416 25.53 33.2474 25.53H32.3932C31.732 25.53 31.732 26.5551 32.3932 26.5551H33.2475C34.2147 26.5551 34.2163 28.0586 33.2475 28.0586H19.1693C18.2021 28.0586 18.2005 26.5551 19.1693 26.5551H29.7962C30.4574 26.5551 30.4574 25.53 29.7962 25.53H19.1693C16.8819 25.53 16.8751 29.0837 19.1693 29.0837Z" fill="#3E3465"/>
<path d="M33.2826 30.7239H19.2045C16.917 30.7239 16.9102 34.2776 19.2045 34.2776H20.913C21.5741 34.2776 21.5741 33.2525 20.913 33.2525H19.2045C18.2372 33.2525 18.2357 31.749 19.2045 31.749H33.2826C34.2498 31.749 34.2514 33.2525 33.2826 33.2525H23.4416C22.7804 33.2525 22.7804 34.2776 23.4416 34.2776H33.2826C35.5701 34.2776 35.5769 30.7239 33.2826 30.7239Z" fill="#3E3465"/>
</g>
<defs>
<clipPath id="clip0_1131_3428">
<rect width="35" height="35" fill="white"/>
</clipPath>
</defs>
</svg>
