<svg xmlns="http://www.w3.org/2000/svg" xmlns:xlink="http://www.w3.org/1999/xlink" width="35" height="36" fill="none" xmlns:v="https://vecta.io/nano"><g clip-path="url(#A)" fill="#3e3465"><path d="M17.956 19.601c-.065-.014-.131-.017-.197-.007-.657-.076-1.153-.633-1.154-1.294 0-.317-.257-.574-.574-.574s-.574.257-.574.574a2.46 2.46 0 0 0 1.806 2.365v.574c0 .317.257.574.574.574s.574-.257.574-.574V20.7a2.45 2.45 0 0 0-.502-4.851c-.72 0-1.303-.584-1.303-1.303s.584-1.303 1.303-1.303 1.303.584 1.303 1.303c0 .317.257.574.574.574s.574-.257.574-.574c-.002-1.16-.814-2.16-1.949-2.4v-.522c0-.317-.257-.574-.574-.574s-.574.257-.574.574v.557a2.45 2.45 0 0 0 .646 4.816c.71 0 1.29.569 1.303 1.279s-.545 1.3-1.255 1.326zm-8.372-3.134c0 4.598 3.727 8.325 8.325 8.325s8.325-3.727 8.325-8.325-3.727-8.325-8.325-8.325c-4.596.005-8.32 3.729-8.325 8.325zm8.325-7.177a7.18 7.18 0 0 1 7.177 7.177 7.18 7.18 0 0 1-7.177 7.177 7.18 7.18 0 0 1-7.177-7.177c.005-3.962 3.215-7.172 7.177-7.177zm11.156 16.918l-4.497 2.125c-.621-1.155-1.812-1.89-3.123-1.927l-4.152-.114a4.39 4.39 0 0 1-1.887-.487l-.422-.219a7.45 7.45 0 0 0-6.902.007l.026-.957c.009-.317-.241-.581-.558-.59l-4.552-.125c-.317-.009-.581.241-.59.558l-.275 9.99c-.009.317.241.581.558.59l4.552.125h.016c.311 0 .566-.248.574-.558l.013-.478 1.183-.633a2.03 2.03 0 0 1 1.514-.166l7.062 1.982.037.009a7.57 7.57 0 0 0 1.552.16 7.66 7.66 0 0 0 3.2-.698c.025-.011.049-.024.071-.039l10.24-6.623c.255-.165.337-.5.188-.765a2.9 2.9 0 0 0-3.83-1.167zM3.297 33.927l.243-8.842 3.405.094-.243 8.843-3.405-.094zm18.581-.15a6.51 6.51 0 0 1-3.98.444l-7.043-1.977c-.793-.224-1.641-.131-2.367.259l-.604.324.162-5.879a6.31 6.31 0 0 1 6.411-.342l.422.219a5.56 5.56 0 0 0 2.383.616l4.152.114a2.52 2.52 0 0 1 2.393 2.006l-6.184-.171c-.317-.009-.581.241-.59.558s.241.581.558.59l6.825.188h.016c.311 0 .565-.248.573-.558a3.65 3.65 0 0 0-.055-.745l4.613-2.18a1.76 1.76 0 0 1 1.997.271l-9.681 6.263zM18.484 6.528V1.074c0-.317-.257-.574-.574-.574s-.574.257-.574.574v5.454c0 .317.257.574.574.574s.574-.257.574-.574z"/><use xlink:href="#B"/><path d="M14.178 6.528V3.945c0-.317-.257-.574-.574-.574s-.574.257-.574.574v2.583c0 .317.257.574.574.574s.574-.257.574-.574z"/></g><defs><clipPath id="A"><path fill="#fff" transform="translate(0 .5)" d="M0 0h35v35H0z"/></clipPath><path id="B" d="M22.789 6.528V3.945c0-.317-.257-.574-.574-.574s-.574.257-.574.574v2.583c0 .317.257.574.574.574s.574-.257.574-.574z"/></defs></svg>