<svg xmlns="http://www.w3.org/2000/svg" width="35" height="36" fill="none" xmlns:v="https://vecta.io/nano"><g clip-path="url(#A)" fill="#3e3465"><path d="M7.508 34.421l-1.029-1.45c-.218-.308-.645-.38-.953-.162s-.38.645-.162.953l1.029 1.45a.68.68 0 0 0 .953.162c.308-.219.38-.645.162-.953zm7.887.255l-1.12-5.338c-.545-2.596-2.057-4.84-4.258-6.32L7.626 21.41c-.959-.645-2.248-.506-3.049.311v-8.237c0-1.081-.737-2-1.793-2.234a2.28 2.28 0 0 0-1.928.449C.312 12.135 0 12.786 0 13.484v10.599a6.62 6.62 0 0 0 1.229 3.853l1.219 1.717a.68.68 0 0 0 .953.162c.308-.219.38-.645.162-.953l-1.219-1.717a5.26 5.26 0 0 1-.976-3.062V13.484a.92.92 0 0 1 .345-.719c.219-.176.502-.242.776-.181.425.094.722.464.722.899v8.409c0 1.19.437 2.325 1.232 3.207l.106.12 1.49 1.582.704.749 1.062 1.13c.258.275.691.289.966.03s.289-.691.03-.966l-1.726-1.837-1.567-1.668c-.379-.452-.374-1.09.011-1.525.341-.385.919-.459 1.346-.172l2.391 1.608c1.904 1.28 3.211 3.221 3.682 5.466l1.12 5.338c.068.322.352.543.668.543a.69.69 0 0 0 .141-.015c.37-.078.606-.44.529-.809zm-10.33-3.697l-.004-.006c-.219-.307-.646-.379-.954-.159a.68.68 0 0 0-.159.953l.004.006c.133.187.344.287.557.287a.68.68 0 0 0 .396-.127c.307-.219.379-.646.159-.953zm29.078-19.28a2.28 2.28 0 0 0-1.928-.449c-1.055.234-1.793 1.153-1.793 2.234v8.237c-.801-.817-2.09-.956-3.049-.311l-2.391 1.608c-2.201 1.48-3.713 3.724-4.258 6.32l-1.12 5.338c-.078.369.159.732.529.809a.69.69 0 0 0 .141.015c.317 0 .601-.221.668-.543l1.12-5.338c.471-2.245 1.779-4.186 3.683-5.466l2.391-1.608c.426-.287 1.005-.213 1.346.172.385.434.39 1.071.024 1.51l-3.307 3.519c-.258.275-.245.708.03.966s.708.245.966-.03l3.257-3.461.106-.12a4.78 4.78 0 0 0 1.232-3.207v-8.409c0-.435.297-.805.722-.899.274-.061.557.005.776.181a.92.92 0 0 1 .345.719v10.599a5.26 5.26 0 0 1-.976 3.062l-5.165 7.275c-.218.308-.146.735.162.953a.68.68 0 0 0 .953-.162l5.165-7.275A6.62 6.62 0 0 0 35 24.083V13.484a2.28 2.28 0 0 0-.856-1.785zm-7.984 1.903l-1.216-.29v-.218a3.06 3.06 0 0 0 1.309-2.507V9.005c0-1.687-1.372-3.059-3.059-3.059-.757 0-1.45.277-1.985.734a4 4 0 0 0-7.398.005 3.05 3.05 0 0 0-1.992-.74c-1.687 0-3.059 1.372-3.059 3.059v.105 1.476c0 1.036.518 1.953 1.309 2.507v.218l-1.216.29a3.2 3.2 0 0 0-2.466 3.125v1.277c0 .378.306.684.684.684h3.141l-.008.25v2.458c0 .378.306.684.684.684h4.109c.377 0 .684-.306.684-.684s-.306-.684-.684-.684h-.706v-1.413c0-.378-.306-.684-.684-.684s-.684.306-.684.684v1.413H11.57v-1.774a2.83 2.83 0 0 1 2.178-2.761l1.876-.45 1.255 2.856c.109.248.355.409.626.409h0c.271 0 .517-.16.626-.408l1.254-2.852 1.87.447a2.83 2.83 0 0 1 2.18 2.761v1.772h-1.352v-1.413c0-.378-.306-.684-.684-.684s-.684.306-.684.684v1.413h-.775c-.378 0-.684.306-.684.684s.306.684.684.684h4.177c.378 0 .684-.306.684-.684v-2.456l-.008-.252h3.15c.377 0 .684-.306.684-.684v-1.277a3.2 3.2 0 0 0-2.466-3.125zm-2.967-6.289c.896 0 1.631.699 1.689 1.581h-.95c-.799 0-1.585-.192-2.292-.559.26-.601.859-1.022 1.554-1.022zM21.5 10.486l.003-.1v-.609a6.35 6.35 0 0 0 2.428.483h.954v.326c0 .933-.759 1.692-1.692 1.692s-1.692-.759-1.692-1.692v-.1zm-6.616-2.302a2.63 2.63 0 0 1 2.626-2.626 2.63 2.63 0 0 1 2.593 2.208l-1.151-.676c-.288-.169-.656-.106-.87.15-.562.671-1.387 1.056-2.263 1.056h-.934v-.113zm-3.066-.871c.695 0 1.294.421 1.554 1.022-.707.366-1.493.559-2.292.559h-.95c.058-.881.793-1.581 1.689-1.581zm-1.692 2.948h.954a6.35 6.35 0 0 0 2.431-.484v.81c0 .933-.759 1.692-1.692 1.692s-1.692-.759-1.692-1.692v-.326zm3.302 4.586a4.19 4.19 0 0 0-2.905 2.473H7.752v-.593a1.84 1.84 0 0 1 1.417-1.795l1.741-.416c.308-.073.525-.348.525-.665v-.23c.126.016.254.025.384.025a3.07 3.07 0 0 0 .381-.025v.195l-.001.03c0 .224.11.444.313.575a.68.68 0 0 0 .243.098l1.02.244-.346.083zm1.907-1.061c-.176-.077-.359-.139-.547-.185l-1.221-.293v-.213a3.11 3.11 0 0 0 .593-.541 4.03 4.03 0 0 0 1.176 1.179v.053zm2.969 1.004l-.8 1.819-.802-1.824v-.488c.261.054.531.082.808.082a4 4 0 0 0 .794-.08v.49zm-.794-1.778a2.63 2.63 0 0 1-2.626-2.626v-.722h.934a4.31 4.31 0 0 0 2.905-1.122l1.41.828v1.116a2.63 2.63 0 0 1-2.623 2.526zm2.161.775v-.046c.473-.306.878-.709 1.186-1.182a3.08 3.08 0 0 0 .587.536v.213l-1.221.293c-.19.046-.375.108-.552.187zm7.587 3.532h-2.78a4.19 4.19 0 0 0-2.907-2.472l-.343-.082 1.025-.246a.68.68 0 0 0 .246-.098c.202-.131.312-.351.312-.575v-.226a3.07 3.07 0 0 0 .381.025c.13 0 .258-.009.384-.025v.23c0 .316.217.591.525.665l1.741.416a1.84 1.84 0 0 1 1.417 1.795v.593zm-9.275 3.592a.69.69 0 0 0-.483-.2c-.18 0-.356.072-.483.2a.69.69 0 0 0-.2.484.69.69 0 0 0 .684.684.69.69 0 0 0 .684-.684.69.69 0 0 0-.2-.484zM17.5.5c-.378 0-.684.306-.684.684v1.023c0 .378.306.684.684.684s.684-.306.684-.684V1.184c0-.378-.306-.684-.684-.684zm-2.518 2.23l-.717-.716c-.267-.267-.7-.267-.967 0s-.267.7.001.967l.717.716a.68.68 0 0 0 .967 0c.267-.267.267-.7 0-.967zm6.703-.699c-.267-.267-.7-.267-.967 0l-.712.712c-.267.267-.267.7.001.967a.68.68 0 0 0 .967 0l.712-.712c.267-.267.267-.7-.001-.967z"/></g><defs><clipPath id="A"><path fill="#fff" transform="translate(0 .5)" d="M0 0h35v35H0z"/></clipPath></defs></svg>