<svg width="35" height="35" viewBox="0 0 35 35" fill="none" xmlns="http://www.w3.org/2000/svg">
<g clip-path="url(#clip0_1131_3469)">
<path d="M35 13.1496V10.718C35 10.0611 34.4654 9.52652 33.8085 9.52652C33.3877 9.52652 32.9922 9.36283 32.6947 9.0659C32.3973 8.76789 32.2333 8.37215 32.2333 7.95158V3.67004C32.2333 3.00327 31.691 2.46094 31.0242 2.46094H29.566C28.8992 2.46094 28.3569 3.00354 28.3569 3.67004V6.17611C28.3569 7.73075 27.117 9.01623 25.5934 9.04186C24.8358 9.05361 24.1159 8.76816 23.5744 8.23544C23.0326 7.70245 22.7343 6.99055 22.7343 6.23085V3.67004C22.7343 3.00327 22.1917 2.46094 21.5249 2.46094H20.0669C19.4002 2.46094 18.8576 3.00354 18.8576 3.67004V5.21507C18.8576 5.49839 19.0872 5.72777 19.3703 5.72777C19.6536 5.72777 19.883 5.49839 19.883 5.21507V3.67004C19.883 3.56884 19.9655 3.48633 20.0669 3.48633H21.5249C21.6264 3.48633 21.7089 3.56884 21.7089 3.67004V6.23085C21.7089 7.26772 22.1161 8.23917 22.8553 8.96629C23.5944 9.69341 24.5728 10.0822 25.6105 10.0673C27.6904 10.032 29.3822 8.28644 29.3822 6.17611V3.67004C29.3822 3.56884 29.4648 3.48633 29.566 3.48633H31.0242C31.1254 3.48633 31.2079 3.56884 31.2079 3.67004V7.95158C31.2079 8.64559 31.4782 9.29874 31.9698 9.79088C32.4614 10.2817 33.1142 10.5519 33.8085 10.5519C33.9001 10.5519 33.9746 10.6264 33.9746 10.718V12.8363L25.5453 16.8805L17.1165 12.8366V10.718C17.1165 10.6614 17.143 10.6229 17.1662 10.5997C17.1841 10.5818 17.2228 10.5519 17.2826 10.5519C18.7166 10.5519 19.883 9.38553 19.883 7.95158V7.26585C19.883 6.9828 19.6536 6.75316 19.3703 6.75316C19.0872 6.75316 18.8576 6.9828 18.8576 7.26585V7.95158C18.8576 8.81996 18.151 9.52652 17.2826 9.52652C16.9633 9.52652 16.6637 9.65069 16.4402 9.87553C16.2151 10.1006 16.0912 10.4 16.0912 10.718V13.1416C16.0909 13.153 16.0909 13.1645 16.0912 13.176V21.695L13.4545 23.2753C13.0831 23.0622 12.658 22.9474 12.2267 22.9474H9.16763V14.0906H12.2267C13.5856 14.0906 14.6911 12.9851 14.6911 11.6262C14.6911 10.2673 13.5856 9.16176 12.2267 9.16176H11.6897V8.6018C11.6897 7.49229 10.7869 6.58974 9.67739 6.58974H9.16763V5.58491C9.16763 5.00065 8.69232 4.52534 8.10806 4.52534H6.58306C5.9988 4.52534 5.52349 5.00065 5.52349 5.58491V6.58974H5.01373C3.90423 6.58974 3.0014 7.49229 3.0014 8.6018V9.16176H2.46441C2.2393 9.16176 2.01633 9.1922 1.80138 9.25201C1.52874 9.32812 1.36906 9.6109 1.44516 9.8838C1.52126 10.1564 1.80378 10.3156 2.07695 10.2398C2.20219 10.2048 2.3325 10.1871 2.46441 10.1871H12.2267C13.0203 10.1871 13.6657 10.8326 13.6657 11.6262C13.6657 12.4195 13.0203 13.0649 12.2267 13.0649H2.46441C1.6708 13.0649 1.02539 12.4195 1.02539 11.6262C1.02539 11.5447 1.03233 11.4627 1.04568 11.3832C1.09295 11.1039 0.904961 10.8392 0.625916 10.792C0.34687 10.7444 0.0819779 10.9327 0.0347137 11.212C0.0117493 11.3482 0 11.4876 0 11.6262C0 12.9851 1.1055 14.0906 2.46441 14.0906H5.52349V22.9474H2.46441C1.1055 22.9474 0 24.0529 0 25.4118C0 26.0692 0.256081 26.6882 0.722046 27.155C1.18801 27.6201 1.80698 27.8762 2.46441 27.8762H3.00167V28.4359C3.00167 29.5457 3.90423 30.4485 5.01347 30.4485H5.52349V31.4533C5.52349 32.0376 5.9988 32.5129 6.58306 32.5129H8.10806C8.69232 32.5129 9.16763 32.0376 9.16763 31.4533V30.4485H9.18793C9.29394 30.5876 9.41063 30.7198 9.538 30.844C10.2267 31.5166 11.1199 31.8589 12.0302 31.8589H30.5142C31.5935 31.8589 32.4718 30.9807 32.4718 29.9011V26.8644H32.7455C33.9888 26.8644 35 25.8529 35 24.6099V13.1672C35 13.1613 35 13.1554 35 13.1496ZM6.54888 5.58491C6.54888 5.56622 6.5641 5.55073 6.58306 5.55073H8.10806C8.12702 5.55073 8.14224 5.56622 8.14224 5.58491V6.58974H6.54888V5.58491ZM4.02679 9.16176V8.6018C4.02679 8.05759 4.46953 7.61513 5.01373 7.61513H6.02551H6.03619H6.0466H8.64426H8.65494H8.66562H9.67739C10.2216 7.61513 10.6643 8.05759 10.6643 8.6018V9.16176H4.02679ZM21.5006 20.5372C21.7297 20.5372 21.9359 20.6819 22.0141 20.8971C22.6093 22.5394 24.1829 23.6427 25.9293 23.6427C27.7131 23.6427 29.2976 22.5081 29.872 20.8194C29.9294 20.6507 30.088 20.5372 30.2664 20.5372H30.5849C31.06 20.5372 31.4464 20.9236 31.4464 21.3986V27.8575H24.3482L22.6665 25.4478C22.5047 25.2158 22.1848 25.1589 21.9527 25.321C21.7207 25.4828 21.6638 25.8025 21.8256 26.0348L23.0977 27.8575H21.8675L18.7006 23.3188L19.5681 22.7987L20.6525 24.353C20.7524 24.4959 20.9116 24.5725 21.0736 24.5725C21.1749 24.5725 21.2771 24.5426 21.3663 24.4801C21.5986 24.318 21.6555 23.9984 21.4937 23.7664L20.4023 22.2021C20.6923 21.8753 20.8608 21.4475 20.8608 21.001V20.5372H21.5006ZM19.4223 27.8575L16.9764 24.3522L17.8188 23.8473L20.617 27.8575H19.4223ZM16.9414 27.8575L15.2271 25.4008L16.0946 24.8809L18.1718 27.8578H16.9414V27.8575ZM12.1931 25.2267C12.2192 25.2743 12.2491 25.3202 12.2825 25.3637C12.6241 25.8081 13.1416 26.046 13.6684 26.046C13.893 26.046 14.1194 26.0027 14.3346 25.9135L15.6911 27.8575H9.52412C9.65015 27.1368 10.0854 26.4901 10.7225 26.1085L12.1931 25.2267ZM19.8354 20.6467V21.0013C19.8354 21.2707 19.6934 21.5241 19.4643 21.6654C19.4552 21.6707 19.4461 21.6761 19.4373 21.6819L17.716 22.7135C17.7072 22.7185 17.6984 22.7239 17.6896 22.7295L15.9835 23.7519C15.9803 23.7538 15.9769 23.756 15.9737 23.7581L14.0382 24.9181C13.7239 25.1066 13.3189 25.0294 13.0954 24.7389C13.0927 24.7354 13.0844 24.7245 13.0879 24.7066C13.0908 24.6908 13.1002 24.6836 13.105 24.6804L13.6922 24.3285C13.6988 24.3247 13.7058 24.3204 13.7125 24.3162L19.8125 20.6598C19.8202 20.6552 19.8277 20.6509 19.8354 20.6467ZM6.54888 14.0906H8.14224V22.9474H6.54888V14.0906ZM4.02706 28.4362V27.8762H6.92352C7.20657 27.8762 7.43622 27.6468 7.43622 27.3635C7.43622 27.0805 7.20657 26.8508 6.92352 26.8508H2.46441C2.08042 26.8508 1.71886 26.7013 1.44703 26.43C1.17519 26.1573 1.02539 25.7958 1.02539 25.4118C1.02539 24.6185 1.6708 23.9728 2.46441 23.9728H12.2267C12.2475 23.9728 12.2681 23.9733 12.2887 23.9741L10.1954 25.2289C9.12571 25.87 8.46134 27.0428 8.46134 28.2901C8.46134 28.6308 8.50941 28.9606 8.59886 29.2728C8.59993 29.2768 8.60126 29.2808 8.60233 29.2848C8.60313 29.2875 8.60394 29.2901 8.60474 29.2928C8.61729 29.3366 8.63091 29.3798 8.64532 29.4231H5.01347C4.46953 29.4231 4.02706 28.9804 4.02706 28.4362ZM8.14224 31.4533C8.14224 31.472 8.12675 31.4875 8.10806 31.4875H6.58306C6.56437 31.4875 6.54888 31.472 6.54888 31.4533V30.4485H8.14224V31.4533ZM31.4464 29.9011C31.4464 30.4154 31.0282 30.8335 30.5139 30.8335C18.6877 30.8335 12.0168 30.8341 11.9624 30.8327C10.7938 30.802 9.81918 29.9793 9.55643 28.8829H16.6613C16.6658 28.8832 16.6701 28.8832 16.6746 28.8832C16.6792 28.8832 16.6837 28.8832 16.6882 28.8829H19.142C19.1465 28.8832 19.1508 28.8832 19.1553 28.8832C19.1599 28.8832 19.1644 28.8832 19.1689 28.8829H21.5871C21.5917 28.8832 21.5962 28.8832 21.6005 28.8832C21.605 28.8832 21.6096 28.8832 21.6141 28.8829H24.0678C24.0724 28.8832 24.0767 28.8832 24.0812 28.8832C24.0857 28.8832 24.0903 28.8832 24.0948 28.8829H31.4464V29.9011ZM32.7455 25.839H32.4718V21.3986C32.4718 20.3583 31.6253 19.5118 30.5849 19.5118H30.2664C29.6487 19.5118 29.1003 19.9046 28.9011 20.4891C28.4682 21.762 27.2738 22.6171 25.9293 22.6171C24.6126 22.6171 23.4267 21.7855 22.9778 20.5479C22.7533 19.9281 22.1597 19.5118 21.5004 19.5118C20.3575 19.5412 19.922 19.3996 19.2854 19.7804L17.1163 21.0803V13.9739L25.3234 17.9115C25.3936 17.9451 25.4695 17.962 25.5453 17.962C25.6211 17.962 25.697 17.9451 25.7669 17.9115L33.9743 13.9736V24.6099C33.9746 25.2876 33.4232 25.839 32.7455 25.839Z" fill="#3E3465"/>
<path d="M25.0115 11.4943H24.667C24.3837 11.4943 24.1543 11.7236 24.1543 12.007C24.1543 12.29 24.3837 12.5196 24.667 12.5196H24.7754V14.293H24.7129C24.4296 14.293 24.2002 14.5224 24.2002 14.8057C24.2002 15.089 24.4296 15.3184 24.7129 15.3184H25.8633C26.1466 15.3184 26.376 15.089 26.376 14.8057C26.376 14.5224 26.1466 14.293 25.8633 14.293H25.8008V12.2836C25.8008 11.8483 25.4467 11.4943 25.0115 11.4943Z" fill="#3E3465"/>
</g>
<defs>
<clipPath id="clip0_1131_3469">
<rect width="35" height="35" fill="white"/>
</clipPath>
</defs>
</svg>
