<svg xmlns="http://www.w3.org/2000/svg" width="35" height="35" fill="#3e3465" xmlns:v="https://vecta.io/nano"><path d="M18.58 14.096a.54.54 0 0 0-.552-.423c-.262.009-.48.203-.521.462l-1.255 7.945-1.507-5.276c-.067-.236-.283-.397-.526-.397a.55.55 0 0 0-.532.42l-1.951 8.193-.801-9.207c-.021-.244-.202-.444-.442-.49a.55.55 0 0 0-.592.293l-2.583 5.166H4.922v1.094h2.734c.207 0 .396-.117.489-.302l1.868-3.737.926 10.649c.023.267.237.479.505.498l.04.002c.251 0 .473-.172.532-.421l2.25-9.452 1.613 5.648c.071.247.308.419.559.395.256-.015.467-.207.507-.46l1.201-7.607 1.007 4.364c.057.249.278.424.533.424h2.734v-1.094h-2.299l-1.543-6.686zM32.813.539H21.875c-.904 0-1.641.736-1.641 1.641v7.78a13.05 13.05 0 0 0-6.562-1.757C6.435 8.203.547 14.091.547 21.328s5.888 13.125 13.125 13.125 13.125-5.888 13.125-13.125a13.15 13.15 0 0 0-1.447-5.983l2.767-2.767h4.695c.904 0 1.641-.736 1.641-1.641V2.179c0-.905-.736-1.641-1.641-1.641h0zm-7.109 20.789c0 6.634-5.397 12.031-12.031 12.031A12.05 12.05 0 0 1 1.641 21.328c0-6.634 5.397-12.031 12.031-12.031a11.96 11.96 0 0 1 6.598 1.976c.155.744.816 1.305 1.606 1.305h1.657l-1.057 2.265c-2.058-2.803-5.278-4.452-8.803-4.452-6.031 0-10.938 4.907-10.938 10.938s4.907 10.938 10.938 10.938 10.938-4.907 10.938-10.938c0-1.513-.305-2.971-.9-4.342l.829-.829c.764 1.607 1.165 3.379 1.165 5.171h0zm-2.187 0a9.86 9.86 0 0 1-9.844 9.844 9.86 9.86 0 0 1-9.844-9.844 9.86 9.86 0 0 1 9.844-9.844 9.77 9.77 0 0 1 8.267 4.507l-1.106 2.371c-.112.241-.036.527.182.679a.55.55 0 0 0 .7-.062l1.149-1.149a9.77 9.77 0 0 1 .651 3.497zm9.844-10.391a.55.55 0 0 1-.547.547h-4.922c-.145 0-.284.057-.387.16l-4.367 4.368 1.749-3.75a.55.55 0 0 0-.034-.525c-.1-.158-.275-.253-.462-.253h-2.516a.55.55 0 0 1-.547-.547V2.179a.55.55 0 0 1 .547-.547h10.938a.55.55 0 0 1 .547.547v8.758zm-5.594-7.685l-.423.332-.423-.332c-.982-.771-2.373-.667-3.239.239a2.58 2.58 0 0 0-.712 1.874 2.57 2.57 0 0 0 .817 1.822l3.184 2.962a.55.55 0 0 0 .372.147c.133 0 .267-.049.372-.147l3.184-2.962c.506-.47.796-1.117.817-1.822a2.58 2.58 0 0 0-.712-1.875 2.41 2.41 0 0 0-3.239-.238h0zm2.39 3.134l-2.813 2.615-2.812-2.615c-.29-.27-.456-.644-.468-1.053s.134-.797.409-1.086c.266-.278.612-.421.96-.421.284 0 .569.095.813.286l.761.597a.55.55 0 0 0 .675 0l.761-.597a1.3 1.3 0 0 1 1.773.134 1.49 1.49 0 0 1 .409 1.086c-.013.411-.178.784-.468 1.053h0z"/></svg>