<svg width="35" height="35" viewBox="0 0 35 35" fill="none" xmlns="http://www.w3.org/2000/svg">
<path d="M28.4379 9.43579H18.8594C18.5575 9.43579 18.3125 9.19079 18.3125 8.88892C18.3125 8.58704 18.5575 8.34204 18.8594 8.34204H28.4379C28.7398 8.34204 28.9848 8.58704 28.9848 8.88892C28.9848 9.19079 28.7398 9.43579 28.4379 9.43579Z" fill="#3E3465"/>
<path d="M28.4379 11.6233H18.8594C18.5575 11.6233 18.3125 11.3783 18.3125 11.0764C18.3125 10.7745 18.5575 10.5295 18.8594 10.5295H28.4379C28.7398 10.5295 28.9848 10.7745 28.9848 11.0764C28.9848 11.3783 28.7398 11.6233 28.4379 11.6233Z" fill="#3E3465"/>
<path d="M28.4379 15.9983H22.1406C21.8388 15.9983 21.5938 15.7533 21.5938 15.4514C21.5938 15.1495 21.8388 14.9045 22.1406 14.9045H28.4379C28.7398 14.9045 28.9848 15.1495 28.9848 15.4514C28.9848 15.7533 28.7398 15.9983 28.4379 15.9983Z" fill="#3E3465"/>
<path d="M28.4379 18.1858H22.1406C21.8388 18.1858 21.5938 17.9408 21.5938 17.6389C21.5938 17.337 21.8388 17.092 22.1406 17.092H28.4379C28.7398 17.092 28.9848 17.337 28.9848 17.6389C28.9848 17.9408 28.7398 18.1858 28.4379 18.1858Z" fill="#3E3465"/>
<path d="M28.4379 13.8108H22.1406C21.8388 13.8108 21.5938 13.5658 21.5938 13.2639C21.5938 12.962 21.8388 12.717 22.1406 12.717H28.4379C28.7398 12.717 28.9848 12.962 28.9848 13.2639C28.9848 13.5658 28.7398 13.8108 28.4379 13.8108Z" fill="#3E3465"/>
<path d="M6.5625 23.5156C6.26063 23.5156 6.01562 23.2706 6.01562 22.9688V18.9678C6.01562 18.666 6.26063 18.421 6.5625 18.421C6.86437 18.421 7.10938 18.666 7.10938 18.9678V22.9688C7.10938 23.2706 6.86437 23.5156 6.5625 23.5156Z" fill="#3E3465"/>
<path d="M14.2188 23.5156C13.9169 23.5156 13.6719 23.2706 13.6719 22.9687V18.5642C13.6719 18.2623 13.9169 18.0173 14.2188 18.0173C14.5206 18.0173 14.7656 18.2623 14.7656 18.5642V22.9687C14.7656 23.2706 14.5206 23.5156 14.2188 23.5156Z" fill="#3E3465"/>
<path d="M8.75 23.5156C8.44813 23.5156 8.20312 23.2706 8.20312 22.9687V19.5612C8.20312 19.2593 8.44813 19.0143 8.75 19.0143C9.05187 19.0143 9.29688 19.2593 9.29688 19.5612V22.9687C9.29688 23.2706 9.05187 23.5156 8.75 23.5156Z" fill="#3E3465"/>
<path d="M11.4847 16.922C9.75164 16.922 8.28711 15.4574 8.28711 13.7244C8.28711 11.9913 9.75164 10.5268 11.4847 10.5268C13.2177 10.5268 14.6823 11.9913 14.6823 13.7244C14.6823 15.4574 13.2177 16.922 11.4847 16.922ZM11.4847 11.6205C10.3445 11.6205 9.38086 12.5841 9.38086 13.7244C9.38086 14.8646 10.3445 15.8282 11.4847 15.8282C12.6249 15.8282 13.5885 14.8646 13.5885 13.7244C13.5885 12.5841 12.6249 11.6205 11.4847 11.6205Z" fill="#3E3465"/>
<path d="M6.5625 19.5147C6.26063 19.5147 6.01562 19.2697 6.01562 18.9678C6.01562 17.7543 6.79602 16.7027 7.95758 16.3505C8.24633 16.2635 8.55203 16.4265 8.63953 16.7152C8.72703 17.0045 8.56352 17.3097 8.27477 17.3972C7.5775 17.6088 7.10938 18.2399 7.10938 18.9678C7.10938 19.2697 6.86438 19.5147 6.5625 19.5147Z" fill="#3E3465"/>
<path d="M14.2192 19.1111C14.0136 19.1111 13.8161 18.9946 13.7232 18.7955C13.5957 18.5216 13.7139 18.1962 13.9873 18.0688L19.1006 15.6844C19.3746 15.5564 19.7 15.6745 19.8274 15.9485C19.9548 16.2225 19.8367 16.5479 19.5633 16.6753L14.45 19.0597C14.3756 19.0947 14.2968 19.1111 14.2192 19.1111Z" fill="#3E3465"/>
<path d="M19.3328 16.7267C19.1272 16.7267 18.9298 16.6102 18.8368 16.4106C18.7094 16.1372 18.8275 15.8118 19.1015 15.6838C19.2847 15.5985 19.381 15.4727 19.3963 15.2994C19.4149 15.0833 19.3 14.8373 19.1229 14.7131C18.9812 14.613 18.8232 14.6065 18.6394 14.6918C18.366 14.8192 18.0406 14.7016 17.9126 14.4276C17.7852 14.1542 17.9033 13.8283 18.1768 13.7009C18.7138 13.4504 19.2869 13.493 19.7501 13.8173C20.2505 14.1673 20.5387 14.7864 20.4857 15.3945C20.4364 15.9578 20.1001 16.4243 19.5631 16.6748C19.4893 16.7103 19.4105 16.7267 19.3328 16.7267Z" fill="#3E3465"/>
<path d="M13.3207 17.1161C13.1151 17.1161 12.9177 16.9996 12.8247 16.8005C12.6973 16.5265 12.8154 16.2011 13.0889 16.0737L18.1759 13.7014C18.4494 13.574 18.7753 13.6921 18.9027 13.9655C19.0301 14.2395 18.912 14.5649 18.6386 14.6923L13.5515 17.0647C13.4772 17.1002 13.3984 17.1161 13.3207 17.1161Z" fill="#3E3465"/>
<path d="M8.11501 17.4212C7.88368 17.4212 7.66821 17.273 7.59439 17.0401C7.50251 16.7524 7.66165 16.4445 7.94931 16.3532C9.71353 15.7899 11.6068 15.6794 13.4235 16.0327C13.7199 16.0901 13.9135 16.3772 13.8561 16.6737C13.7987 16.9701 13.511 17.1637 13.2152 17.1062C11.5773 16.789 9.87157 16.8886 8.28126 17.395C8.22603 17.4125 8.17025 17.4212 8.11501 17.4212Z" fill="#3E3465"/>
<path d="M30.625 24.6094C30.3231 24.6094 30.0781 24.3644 30.0781 24.0625V6.5625C30.0781 6.26063 30.3231 6.01562 30.625 6.01562C30.9269 6.01562 31.1719 6.26063 31.1719 6.5625V24.0625C31.1719 24.3644 30.9269 24.6094 30.625 24.6094Z" fill="#3E3465"/>
<path d="M29.5312 25.7031C29.2294 25.7031 28.9844 25.4581 28.9844 25.1562C28.9844 24.8544 29.2294 24.6094 29.5312 24.6094C29.8326 24.6094 30.0781 24.3638 30.0781 24.0625C30.0781 23.7606 30.3231 23.5156 30.625 23.5156C30.9269 23.5156 31.1719 23.7606 31.1719 24.0625C31.1719 24.967 30.4358 25.7031 29.5312 25.7031Z" fill="#3E3465"/>
<path d="M4.375 24.6094C4.07313 24.6094 3.82812 24.3644 3.82812 24.0625V12.0312C3.82812 11.7294 4.07313 11.4844 4.375 11.4844C4.67687 11.4844 4.92188 11.7294 4.92188 12.0312V24.0625C4.92188 24.3644 4.67687 24.6094 4.375 24.6094Z" fill="#3E3465"/>
<path d="M5.46875 25.7031C4.56422 25.7031 3.82812 24.967 3.82812 24.0625C3.82812 23.7606 4.07313 23.5156 4.375 23.5156C4.67687 23.5156 4.92188 23.7606 4.92188 24.0625C4.92188 24.3638 5.16742 24.6094 5.46875 24.6094C5.77062 24.6094 6.01562 24.8544 6.01562 25.1562C6.01562 25.4581 5.77062 25.7031 5.46875 25.7031Z" fill="#3E3465"/>
<path d="M29.5312 6.01562H5.46875C5.16688 6.01562 4.92188 5.77062 4.92188 5.46875C4.92188 5.16688 5.16688 4.92188 5.46875 4.92188H29.5312C29.8331 4.92188 30.0781 5.16688 30.0781 5.46875C30.0781 5.77062 29.8331 6.01562 29.5312 6.01562Z" fill="#3E3465"/>
<path d="M30.625 7.10938C30.3231 7.10938 30.0781 6.86437 30.0781 6.5625C30.0781 6.26117 29.8326 6.01562 29.5312 6.01562C29.2294 6.01562 28.9844 5.77062 28.9844 5.46875C28.9844 5.16688 29.2294 4.92188 29.5312 4.92188C30.4358 4.92188 31.1719 5.65797 31.1719 6.5625C31.1719 6.86437 30.9269 7.10938 30.625 7.10938Z" fill="#3E3465"/>
<path d="M4.375 10.3906C4.23281 10.3906 4.09062 10.3305 3.98672 10.232C3.88828 10.1281 3.82812 9.99141 3.82812 9.84375C3.82812 9.70156 3.88828 9.55937 3.98672 9.45547C4.19453 9.25313 4.56094 9.25313 4.76328 9.45547C4.86172 9.55937 4.92188 9.70156 4.92188 9.84375C4.92188 9.99141 4.86172 10.1281 4.76328 10.232C4.65938 10.3305 4.51719 10.3906 4.375 10.3906Z" fill="#3E3465"/>
<path d="M4.375 8.20312C4.07313 8.20312 3.82812 7.95812 3.82812 7.65625V6.5625C3.82812 6.26063 4.07313 6.01562 4.375 6.01562C4.67687 6.01562 4.92188 6.26063 4.92188 6.5625V7.65625C4.92188 7.95812 4.67687 8.20312 4.375 8.20312Z" fill="#3E3465"/>
<path d="M4.375 7.10938C4.07313 7.10938 3.82812 6.86437 3.82812 6.5625C3.82812 5.65797 4.56422 4.92188 5.46875 4.92188C5.77062 4.92188 6.01562 5.16688 6.01562 5.46875C6.01562 5.77062 5.77062 6.01562 5.46875 6.01562C5.16742 6.01562 4.92188 6.26117 4.92188 6.5625C4.92188 6.86437 4.67687 7.10938 4.375 7.10938Z" fill="#3E3465"/>
<path d="M26.25 25.7031C26.1023 25.7031 25.9656 25.643 25.8617 25.5445C25.7633 25.4406 25.7031 25.2984 25.7031 25.1562C25.7031 25.0141 25.7633 24.8719 25.8617 24.768C26.0641 24.5656 26.4359 24.5656 26.6383 24.768C26.7367 24.8719 26.7969 25.0141 26.7969 25.1562C26.7969 25.2984 26.7367 25.4406 26.6383 25.5445C26.5344 25.643 26.3922 25.7031 26.25 25.7031Z" fill="#3E3465"/>
<path d="M29.5312 25.7031H28.4375C28.1356 25.7031 27.8906 25.4581 27.8906 25.1562C27.8906 24.8544 28.1356 24.6094 28.4375 24.6094H29.5312C29.8331 24.6094 30.0781 24.8544 30.0781 25.1562C30.0781 25.4581 29.8331 25.7031 29.5312 25.7031Z" fill="#3E3465"/>
<path d="M24.0625 25.7031H5.46875C5.16688 25.7031 4.92188 25.4581 4.92188 25.1562C4.92188 24.8544 5.16688 24.6094 5.46875 24.6094H24.0625C24.3644 24.6094 24.6094 24.8544 24.6094 25.1562C24.6094 25.4581 24.3644 25.7031 24.0625 25.7031Z" fill="#3E3465"/>
<path d="M30.625 23.5156H4.375C4.07313 23.5156 3.82812 23.2706 3.82812 22.9688C3.82812 22.6669 4.07313 22.4219 4.375 22.4219H30.625C30.9269 22.4219 31.1719 22.6669 31.1719 22.9688C31.1719 23.2706 30.9269 23.5156 30.625 23.5156Z" fill="#3E3465"/>
<path d="M20.7812 27.8906C20.4794 27.8906 20.2344 27.6456 20.2344 27.3438V25.1562C20.2344 24.8544 20.4794 24.6094 20.7812 24.6094C21.0831 24.6094 21.3281 24.8544 21.3281 25.1562V27.3438C21.3281 27.6456 21.0831 27.8906 20.7812 27.8906Z" fill="#3E3465"/>
<path d="M14.2188 27.8906C13.9169 27.8906 13.6719 27.6456 13.6719 27.3438V25.1562C13.6719 24.8544 13.9169 24.6094 14.2188 24.6094C14.5206 24.6094 14.7656 24.8544 14.7656 25.1562V27.3438C14.7656 27.6456 14.5206 27.8906 14.2188 27.8906Z" fill="#3E3465"/>
<path d="M27.3436 30.0781C27.2867 30.0781 27.2282 30.0688 27.1708 30.0497L20.6083 27.8622C20.3218 27.7665 20.167 27.457 20.2627 27.1704C20.3578 26.8844 20.6668 26.728 20.9545 26.8248L27.517 29.0123C27.8035 29.108 27.9583 29.4175 27.8626 29.7041C27.786 29.9332 27.5728 30.0781 27.3436 30.0781Z" fill="#3E3465"/>
<path d="M7.65668 30.0781C7.42753 30.0781 7.21425 29.9332 7.13769 29.7041C7.04199 29.4175 7.19675 29.108 7.48332 29.0123L14.0458 26.8248C14.3329 26.728 14.6419 26.8844 14.7376 27.1704C14.8333 27.457 14.6786 27.7665 14.392 27.8622L7.82949 30.0497C7.77207 30.0694 7.71355 30.0781 7.65668 30.0781Z" fill="#3E3465"/>
<path d="M20.7812 27.8906H14.2188C13.9169 27.8906 13.6719 27.6456 13.6719 27.3438C13.6719 27.0419 13.9169 26.7969 14.2188 26.7969H20.7812C21.0831 26.7969 21.3281 27.0419 21.3281 27.3438C21.3281 27.6456 21.0831 27.8906 20.7812 27.8906Z" fill="#3E3465"/>
</svg>
