<svg xmlns="http://www.w3.org/2000/svg" width="35" height="35" fill="none" xmlns:v="https://vecta.io/nano"><g clip-path="url(#A)" fill="#3e3465"><path d="M22.244 19.364l-3.294-1.521c-2.002-.925-4.534.054-6.363 2.225l-2.875-1.571c-.638-.297-1.536.247-1.963 1.167-.207.426-.282.905-.215 1.374a1.12 1.12 0 0 0 .176.501c.098.15.231.275.388.363l2.662 1.458c-1.102 3.323-.275 6.648 2.072 7.729l3.294 1.52a3.9 3.9 0 0 0 1.646.356 5.27 5.27 0 0 0 2.674-.802c1.525-.959 2.728-2.354 3.453-4.003 1.687-3.646.944-7.596-1.656-8.795zM8.64 20.954a.41.41 0 0 1-.028-.1 1.32 1.32 0 0 1 .129-.729 1.16 1.16 0 0 1 .552-.613l2.629 1.439c-.282.426-.532.873-.747 1.337l-.018.042-2.518-1.376zm3.528 1.796c1.434-3.104 4.269-4.858 6.323-3.912l.807.373a5.95 5.95 0 0 0-1.375.599c-1.525.959-2.728 2.353-3.453 4.002-.785 1.622-1.066 3.442-.808 5.225a5.96 5.96 0 0 0 .438 1.434l-.802-.372c-2.058-.951-2.562-4.248-1.129-7.35zm10.739 4.958a7.93 7.93 0 0 1-3.019 3.52c-.476.332-1.027.542-1.603.61s-1.161-.007-1.701-.219a3.53 3.53 0 0 1-1.844-2.771 7.92 7.92 0 0 1 .722-4.581 7.92 7.92 0 0 1 3.019-3.52c.634-.4 1.365-.623 2.115-.645a2.82 2.82 0 0 1 1.186.254c2.055.949 2.559 4.246 1.125 7.353zM9.085 25.889A3.28 3.28 0 0 1 6.321 26c-1.187-.548-1.91-1.95-1.932-3.751-.002-.144-.06-.281-.163-.382a.55.55 0 0 0-.384-.158h-.007c-.072.001-.143.016-.209.044s-.126.069-.176.121a.54.54 0 0 0-.116.179.56.56 0 0 0-.039.21 6.48 6.48 0 0 0 .548 2.592l-.817-.376a3.53 3.53 0 0 1-1.845-2.771 7.93 7.93 0 0 1 .723-4.581c.633-1.448 1.684-2.674 3.019-3.52a3.53 3.53 0 0 1 1.603-.609 3.54 3.54 0 0 1 1.701.217l.034.015.793.365c-1.083.386-2.074.994-2.909 1.785s-1.495 1.748-1.938 2.809a10.05 10.05 0 0 0-.716 2.145.54.54 0 0 0 .077.411.55.55 0 0 0 .459.249c.125 0 .247-.043.344-.122a.55.55 0 0 0 .19-.311 9 9 0 0 1 .639-1.913c1.434-3.103 4.269-4.862 6.323-3.911a3.58 3.58 0 0 1 1.87 2.927.53.53 0 0 0 .071.201.55.55 0 0 0 .143.159c.057.043.123.074.193.092a.53.53 0 0 0 .213.011c.071-.011.139-.034.201-.071a.55.55 0 0 0 .159-.143.56.56 0 0 0 .092-.192c.018-.069.022-.142.011-.213a4.69 4.69 0 0 0-2.494-3.763l-3.293-1.522-.036-.015a4.59 4.59 0 0 0-2.199-.304c-.746.08-1.463.342-2.085.763a9.02 9.02 0 0 0-3.453 4.002c-1.687 3.657-.944 7.605 1.656 8.806l3.294 1.52a3.89 3.89 0 0 0 1.64.351 4.99 4.99 0 0 0 2.03-.457.55.55 0 0 0 .288-.304c.052-.135.048-.286-.012-.419a.55.55 0 0 0-.304-.288c-.135-.052-.286-.048-.419.012zm16.625-3.604c-.145.002-.284.061-.385.165a.55.55 0 0 0-.155.389c.002.145.061.284.165.385a.55.55 0 0 0 .389.155h.017a3.98 3.98 0 0 0 3.435-2.151 3.97 3.97 0 0 0 .436-2.055 3.98 3.98 0 0 0-2.264-3.362 3.98 3.98 0 0 0-4.036.369c-.577.417-1.033.983-1.317 1.637a.55.55 0 0 0-.008.419c.053.135.157.243.29.301s.284.061.418.008.244-.158.302-.29c.206-.474.536-.884.955-1.187a2.88 2.88 0 0 1 2.926-.269 2.89 2.89 0 0 1 1.155.993 2.88 2.88 0 0 1 .171 2.933 2.88 2.88 0 0 1-1.031 1.121 2.89 2.89 0 0 1-1.458.439l-.003-.001zm8.364-17.539a5.85 5.85 0 0 0-4.95-2.711h-6.909c-.986 0-1.957.249-2.822.723s-1.597 1.158-2.128 1.989a5.88 5.88 0 0 0-.911 2.767c-.067.984.116 1.969.53 2.864l1.844 3.981c-.419.575-.766 1.199-1.032 1.859a.55.55 0 0 0 .011.413c.057.131.164.234.297.287s.281.052.413-.003.238-.159.294-.291c.263-.653.616-1.266 1.048-1.822.006-.007.012-.014.017-.022.484-.617 1.063-1.153 1.715-1.589h0a7.48 7.48 0 0 1 2.753-1.114 7.47 7.47 0 0 1 2.957.045c.973.212 1.893.617 2.707 1.19s1.505 1.304 2.032 2.148a7.46 7.46 0 0 1 1.039 2.769c.158.983.118 1.988-.118 2.955a7.46 7.46 0 0 1-1.256 2.677 7.45 7.45 0 0 1-2.197 1.979h-3.742a.55.55 0 0 0-.387.16c-.103.102-.16.242-.16.387a.55.55 0 0 0 .16.387c.102.103.242.16.387.16h3.886a.55.55 0 0 0 .268-.073 8.53 8.53 0 0 0 4.169-5.601c.261-1.175.27-2.392.027-3.57a8.53 8.53 0 0 0-1.437-3.268l1.874-4.046a5.85 5.85 0 0 0-.38-5.631zm-.613 5.171l-1.655 3.573a8.61 8.61 0 0 0-1.067-.938l1.485-3.208c.241-.521.347-1.093.309-1.666s-.221-1.126-.53-1.609-.735-.881-1.238-1.157a3.4 3.4 0 0 0-1.641-.419h-.685a.55.55 0 0 0-.387.16c-.103.102-.16.242-.16.387a.55.55 0 0 0 .16.387c.102.103.242.16.387.16h.683a2.32 2.32 0 0 1 2.318 2.165 2.32 2.32 0 0 1-.21 1.133l-1.415 3.059a8.56 8.56 0 0 0-4.147-1.095c-1.453-.007-2.883.357-4.157 1.058l-1.4-3.022c-.164-.354-.236-.743-.21-1.133s.15-.766.36-1.094a2.32 2.32 0 0 1 1.958-1.072h4.587a.55.55 0 0 0 .387-.16c.103-.102.16-.242.16-.387a.55.55 0 0 0-.16-.387c-.102-.103-.242-.16-.387-.16h-4.591a3.42 3.42 0 0 0-1.641.42c-.503.275-.929.674-1.237 1.157a3.43 3.43 0 0 0-.53 1.609 3.42 3.42 0 0 0 .309 1.666l1.463 3.157a8.49 8.49 0 0 0-1.071.931L17.88 9.916a4.78 4.78 0 0 1 4.336-6.79h6.909a4.78 4.78 0 0 1 4.337 6.788v.001z"/></g><defs><clipPath id="A"><path fill="#fff" d="M0 0h35v35H0z"/></clipPath></defs></svg>