<svg xmlns="http://www.w3.org/2000/svg" width="35" height="35" fill="none" xmlns:v="https://vecta.io/nano"><g clip-path="url(#A)" fill="#3e3465"><path d="M17.517 13.122a3.43 3.43 0 0 1-3.423-3.423 3.43 3.43 0 0 1 3.423-3.423 3.43 3.43 0 0 1 3.423 3.423 3.43 3.43 0 0 1-3.423 3.423zm0-5.705c-1.258 0-2.282 1.023-2.282 2.282s1.024 2.282 2.282 2.282 2.282-1.024 2.282-2.282-1.024-2.282-2.282-2.282zM21.6 17.31a.57.57 0 0 1-.361-1.012c.053-.043.097-.095.132-.155l5.447-9.744a.57.57 0 1 0-.984-.577l-4.776 8.544c-.154.274-.502.372-.777.219a.57.57 0 0 1-.22-.777l4.78-8.55c.476-.823 1.524-1.105 2.342-.633a1.7 1.7 0 0 1 .798 1.04 1.7 1.7 0 0 1-.171 1.299l-5.447 9.744c-.108.187-.242.344-.402.475a.57.57 0 0 1-.361.129h0zM5.494 35a1.71 1.71 0 0 1-1.193-.484 1.7 1.7 0 0 1-.03-2.42l6.228-6.567a.57.57 0 1 1 .828.785l-6.234 6.573c-.225.23-.221.593.005.812a.57.57 0 0 0 .807-.01l6.29-6.633a.571.571 0 1 1 .828.786L6.727 34.48a1.72 1.72 0 0 1-1.233.52h0zm8.126-17.693a.57.57 0 0 1-.362-.13 1.71 1.71 0 0 1-.393-.464L7.41 6.955c-.468-.81-.187-1.859.63-2.332s1.867-.191 2.338.627l4.784 8.557a.571.571 0 1 1-.996.557l-4.78-8.55c-.153-.265-.503-.358-.776-.202a.57.57 0 0 0-.209.78l5.455 9.758c.031.053.074.105.126.147a.57.57 0 0 1-.362 1.011zm12.455 17.494c-.093 0-.187-.007-.283-.023a1.7 1.7 0 0 1-1.407-1.969l.923-5.539-1.94-.863a.571.571 0 1 1 .464-1.043l2.344 1.042a.57.57 0 0 1 .331.615l-.995 5.975a.57.57 0 0 0 .098.426c.088.124.22.206.371.231a.57.57 0 0 0 .656-.469l1.141-6.845a.57.57 0 0 0-.331-.615l-3.514-1.562a.571.571 0 1 1 .464-1.043l3.514 1.562a1.71 1.71 0 0 1 .993 1.845l-1.141 6.846c-.139.829-.848 1.43-1.687 1.43h0z"/><path d="M13.823 28.745a.57.57 0 0 1-.388-.153l-3.342-3.108a.57.57 0 0 1 .006-.841l3.402-3.08-.544-5.834c-.003-1.147.888-2.037 1.982-2.037h5.159c1.094 0 1.984.89 1.984 1.985l-.003.059-.527 5.082 3.003 1.264a.57.57 0 0 1 .317.714l-1.327 3.796a.57.57 0 0 1-.774.331l-5.014-2.27-3.51 3.903a.57.57 0 0 1-.399.188l-.026.001h0zm-2.498-3.673l2.462 2.29 3.402-3.782a.57.57 0 0 1 .659-.138l4.826 2.185.944-2.701-2.899-1.22a.57.57 0 0 1-.346-.585l.567-5.469c-.014-.453-.387-.818-.843-.818h-5.159c-.465 0-.843.378-.843.844l.568 6.065a.57.57 0 0 1-.185.476l-3.153 2.854zM28.928 5.705H6.107a.571.571 0 1 1 0-1.141h22.82a.571.571 0 1 1 0 1.141z"/><path d="M6.106 10.269H4.395a.57.57 0 0 1-.571-.57V.571A.57.57 0 0 1 4.395 0h1.711a.57.57 0 0 1 .571.571v9.128a.57.57 0 0 1-.571.57zM4.965 9.128h.571V1.141h-.571v7.987z"/><path d="M4.395 10.269H2.684a.57.57 0 0 1-.571-.57V.571A.57.57 0 0 1 2.684 0h1.712a.57.57 0 0 1 .57.571v9.128a.57.57 0 0 1-.57.57zM3.254 9.128h.571V1.141h-.571v7.987zm29.096 1.141h-1.712a.57.57 0 0 1-.57-.57V.571a.57.57 0 0 1 .57-.571h1.712a.57.57 0 0 1 .571.571v9.128a.57.57 0 0 1-.571.57zm-1.141-1.141h.571V1.141h-.571v7.987z"/><path d="M30.639 10.269h-1.712a.57.57 0 0 1-.57-.57V.571a.57.57 0 0 1 .57-.571h1.712a.57.57 0 0 1 .571.571v9.128a.57.57 0 0 1-.571.57h0zm-1.141-1.141h.571V1.141h-.571v7.987zM2.685 5.705H.973a.571.571 0 1 1 0-1.141h1.712a.571.571 0 1 1 0 1.141zm31.376 0H32.35a.571.571 0 1 1 0-1.141h1.712a.571.571 0 1 1 0 1.141h0z"/></g><defs><clipPath id="A"><path fill="#fff" d="M0 0h35v35H0z"/></clipPath></defs></svg>