<svg xmlns="http://www.w3.org/2000/svg" width="35" height="35" fill="#3e3465" xmlns:v="https://vecta.io/nano"><path d="M33.108 26.685a2.31 2.31 0 0 0-1.645-.681h-.055c-.593 0-1.12.293-1.442.741l-3.463-3.463-.705-5.286c-.311-2.33-2.318-4.087-4.67-4.087-.646 0-1.172.526-1.172 1.172v1.209a2.46 2.46 0 0 1-2.457 2.457 2.46 2.46 0 0 1-2.457-2.457v-1.209c0-.646-.526-1.172-1.173-1.172-2.351 0-4.358 1.757-4.668 4.087l-.705 5.286-3.462 3.462c-.056-.078-.119-.151-.188-.22-.336-.335-.781-.52-1.256-.52-1.313 0-2.381 1.069-2.381 2.381 0 1.289 1.03 2.342 2.31 2.379a2.67 2.67 0 0 0-.496 1.552A2.69 2.69 0 0 0 5.707 35h23.585c1.48 0 2.683-1.204 2.683-2.684a2.67 2.67 0 0 0-.496-1.551 2.39 2.39 0 0 0 2.31-2.388v-.046a2.31 2.31 0 0 0-.682-1.645zm-10.709-2.137l.195-1.662.181.904a4.18 4.18 0 0 0 1.147 2.144l3.698 3.698h-4.236l-.887-3.549a4.25 4.25 0 0 1-.098-1.535zm-8.528-9.505c.021 0 .038.017.038.038v1.209c0 1.98 1.611 3.591 3.591 3.591s3.591-1.611 3.591-3.591v-1.209c0-.021.017-.038.039-.038a3.55 3.55 0 0 1 1.221.217l-1.077 9.156a5.38 5.38 0 0 0 .124 1.942l.819 3.274h-9.433l.819-3.274a5.38 5.38 0 0 0 .124-1.942l-1.077-9.155a3.55 3.55 0 0 1 1.222-.217zm-1.467 7.844l.196 1.662a4.25 4.25 0 0 1-.098 1.535l-.887 3.549H7.378l3.698-3.698a4.18 4.18 0 0 0 1.147-2.144l.181-.904zM3.59 29.633a1.25 1.25 0 0 1-1.247-1.247 1.25 1.25 0 0 1 1.247-1.247.64.64 0 0 1 .643.643.57.57 0 0 0 .35.524c.212.088.456.039.618-.123l4.233-4.233c.088-.088.145-.203.161-.326l.73-5.476a3.57 3.57 0 0 1 1.255-2.268l.396 3.368-.864 4.322a3.05 3.05 0 0 1-.837 1.564l-4.5 4.5h-.068H3.59h0zm11.528 4.233H5.707a1.55 1.55 0 0 1 0-3.1h3.969v.277c0 .839.572 1.552 1.391 1.734l4.052.9v.188h0zm0-1.349l-3.806-.846a.64.64 0 0 1-.503-.627v-.277h4.309v1.75zm14.174 1.349h-13.04v-3.099h13.04a1.55 1.55 0 1 1 0 3.1zm3.364-5.489c0 .693-.559 1.256-1.246 1.256h-2.185l-4.5-4.5a3.05 3.05 0 0 1-.837-1.564l-.864-4.322.396-3.368a3.57 3.57 0 0 1 1.255 2.268l.73 5.476a.57.57 0 0 0 .161.326l4.233 4.233c.162.162.406.211.618.123s.35-.294.35-.524c0-.354.288-.642.642-.643h.054c.319 0 .619.124.844.349s.349.525.349.844v.045h0zM19.816 2.941a2.38 2.38 0 0 0 .066-.56C19.882 1.068 18.814 0 17.501 0S15.12 1.068 15.12 2.381c0 .191.023.378.067.56-1.825.869-3.09 2.731-3.09 4.883v.556c0 .312.252.565.564.567l.646-.024v.716a4.2 4.2 0 0 0 4.195 4.195 4.2 4.2 0 0 0 4.196-4.195v-.706a3.33 3.33 0 0 0 .642.063c.313 0 .567-.254.567-.567v-.605c0-2.152-1.265-4.014-3.09-4.883zm-2.315-1.807a1.25 1.25 0 0 1 1.247 1.247c0 .061-.006.122-.014.181a5.39 5.39 0 0 0-1.233-.144 5.4 5.4 0 0 0-1.233.143c-.009-.06-.014-.12-.014-.181a1.25 1.25 0 0 1 1.247-1.247zm3.062 8.504c0 1.688-1.373 3.062-3.062 3.062s-3.061-1.373-3.061-3.062v-.832c1.274-.175 3.052-.57 4.73-1.46.291.336.767.807 1.394 1.16v1.133h0zm-.776-3.34c-.168-.25-.501-.325-.759-.172-2.163 1.278-4.692 1.588-5.797 1.662a4.28 4.28 0 0 1 4.271-4.236c2.343 0 4.251 1.896 4.271 4.234-1.178-.31-1.976-1.475-1.986-1.488z"/></svg>