<svg width="35" height="35" viewBox="0 0 35 35" fill="none" xmlns="http://www.w3.org/2000/svg">
<path fill-rule="evenodd" clip-rule="evenodd" d="M7.11978 0.11961C7.08588 0.185361 7.0189 0.546787 6.97085 0.922703C6.9228 1.29862 6.86348 1.66189 6.83901 1.7299C6.81215 1.80488 6.6194 1.91485 6.35025 2.0089C6.10583 2.09433 5.71174 2.26288 5.47443 2.38344L5.04295 2.60271L4.3581 2.15571C3.40518 1.53374 3.4328 1.52895 2.48091 2.48091C1.52909 3.43266 1.52683 3.4438 2.12188 4.21484C2.80789 5.10378 2.76804 4.96462 2.50176 5.5423C2.3734 5.82089 2.21449 6.21799 2.14874 6.42475C2.08292 6.6315 2.02455 6.80743 2.01908 6.81563C2.01354 6.8239 1.68773 6.87762 1.295 6.9351C0.342152 7.0744 0.298956 7.0865 0.138611 7.25867C0.0114825 7.39509 0 7.49693 0 8.49119C0 9.53897 0.00533116 9.58032 0.161302 9.73629C0.285765 9.86076 0.430185 9.90853 0.793525 9.94544C1.0525 9.97176 1.43074 10.0131 1.63394 10.0373L2.00336 10.0814L2.13097 10.4573C2.20116 10.6641 2.36964 11.07 2.50545 11.3595L2.75225 11.8858L2.23048 12.5502C1.50681 13.4718 1.50168 13.4383 2.51816 14.4422C2.9832 14.9015 3.38304 15.2416 3.45795 15.2414C3.62137 15.2411 3.86202 15.0886 4.5086 14.5754L5.01875 14.1705L5.568 14.4228C5.87003 14.5616 6.27568 14.7272 6.46945 14.7909C6.86976 14.9224 6.85377 14.8881 6.97509 15.8757C7.03209 16.3394 7.09791 16.5957 7.19018 16.713C7.32223 16.8808 7.33146 16.882 8.46959 16.882C9.92945 16.882 9.84845 16.9527 10.0468 15.5047L10.1278 14.9133L10.6513 14.7278C10.9394 14.6257 11.3458 14.4561 11.5546 14.3509L11.9343 14.1596L12.2723 14.4158C12.968 14.9431 13.3486 15.1733 13.5248 15.1733C13.6641 15.1733 13.8678 15.0107 14.4022 14.4728C15.1802 13.6897 15.3317 13.4621 15.2384 13.2167C15.2046 13.1279 14.9597 12.7798 14.6941 12.4431L14.2112 11.8308L14.41 11.4345C14.5194 11.2166 14.6792 10.8383 14.7651 10.594C14.8511 10.3497 14.955 10.1156 14.9961 10.074C15.0372 10.0324 15.4196 9.95057 15.8459 9.8922C16.9743 9.73773 16.9504 9.77067 16.9504 8.37268C16.9504 6.96668 16.9842 7.01097 15.7879 6.84694L14.9525 6.73232L14.8351 6.3564C14.7705 6.14965 14.6062 5.74051 14.4699 5.44723L14.2221 4.91391L14.6988 4.27123C15.3328 3.4166 15.344 3.34107 14.9135 2.83051C14.7261 2.60824 14.3713 2.22898 14.125 1.98778C13.5261 1.40128 13.4659 1.40435 12.6112 2.06487L11.9439 2.58056L11.3849 2.32227C11.0774 2.18018 10.6891 2.02496 10.522 1.97732C10.3548 1.92968 10.1975 1.87281 10.1724 1.85094C10.1471 1.82914 10.075 1.45773 10.012 1.02564C9.94899 0.593537 9.86855 0.186044 9.83321 0.12002C9.77546 0.0120293 9.6391 0 8.4752 0C7.31205 0 7.17514 0.0120977 7.11978 0.11961ZM8.97503 1.86092C9.11713 2.80673 9.16805 2.8681 10.013 3.11163C10.3514 3.20916 10.8854 3.42555 11.1998 3.59239C11.5141 3.7593 11.8563 3.89586 11.96 3.89586C12.0895 3.89586 12.3462 3.74303 12.7781 3.40874L13.4076 2.92162L13.7095 3.21791C13.8755 3.38092 14.0114 3.5347 14.0114 3.55972C14.0114 3.58467 13.7961 3.88335 13.533 4.22338C13.0079 4.90188 12.957 5.08423 13.1953 5.4337C13.4899 5.86586 13.7477 6.4512 13.9092 7.05458C14.0015 7.39939 14.1202 7.72473 14.173 7.7775C14.2262 7.83074 14.6149 7.92499 15.0458 7.98917L15.8226 8.10482L15.8428 8.52106C15.8661 9.0023 15.9298 8.96136 14.9449 9.09758C14.5972 9.1457 14.2814 9.22901 14.2013 9.29388C14.1173 9.36195 13.9974 9.63534 13.8991 9.98324C13.8094 10.3004 13.5808 10.8774 13.391 11.2655C13.1359 11.787 13.0564 12.0188 13.0861 12.154C13.1082 12.2547 13.3255 12.5901 13.5689 12.8993C13.8123 13.2085 14.0114 13.4866 14.0114 13.5172C14.0114 13.5478 13.8766 13.7051 13.7118 13.8669L13.4123 14.1608L12.7484 13.6419C12.3833 13.3564 12.0433 13.1229 11.9929 13.1229C11.9425 13.1229 11.5533 13.3036 11.128 13.5245C10.6829 13.7557 10.1808 13.9614 9.94469 14.0093C9.14057 14.1725 9.09471 14.2334 8.95364 15.3271L8.86772 15.9935H8.43221C8.19272 15.9935 7.99676 15.9779 7.99676 15.9589C7.99676 15.6843 7.76062 14.4867 7.68318 14.3685C7.56329 14.1856 7.46152 14.1375 6.77688 13.9409C6.50061 13.8615 6.00994 13.6604 5.68638 13.4939C5.36002 13.326 5.00556 13.1921 4.89005 13.1933C4.73887 13.1948 4.51352 13.3253 4.06714 13.6699L3.45248 14.1444L3.13131 13.828L2.81014 13.5117L3.28462 12.8985C3.56307 12.5388 3.75916 12.219 3.75916 12.1249C3.75916 12.0366 3.60709 11.6791 3.42125 11.3305C3.23541 10.9818 3.0169 10.4505 2.9357 10.1497C2.8545 9.849 2.7284 9.53808 2.65561 9.4588C2.57188 9.36769 2.26001 9.24255 1.80836 9.1189L1.09357 8.92315V8.49543C1.09357 8.00653 0.993444 8.069 2.04293 7.90319C2.39595 7.84742 2.72601 7.76055 2.77645 7.71018C2.82682 7.65973 2.92948 7.37301 3.00453 7.0729C3.07957 6.77278 3.29542 6.21861 3.48426 5.84133C3.67304 5.46397 3.82751 5.06332 3.82751 4.95081C3.82751 4.80393 3.69881 4.57736 3.37067 4.14663L2.91383 3.54687L3.23076 3.22994L3.54776 2.91294L4.11478 3.34791C4.89388 3.94555 4.96127 3.96557 5.37362 3.72294C5.92683 3.39746 6.30015 3.2339 6.92574 3.04314C7.25347 2.94315 7.57929 2.79948 7.64976 2.72389C7.72015 2.64823 7.79807 2.4427 7.82281 2.26718C7.84756 2.0916 7.89998 1.75573 7.93928 1.52075L8.01077 1.09357H8.43528H8.85973L8.97503 1.86092ZM7.50383 4.40786C6.04261 4.77762 4.84904 5.97604 4.47053 7.4536C4.30321 8.1066 4.36425 9.24549 4.59923 9.85563C5.67367 12.6455 9.13285 13.462 11.2833 11.4334C11.7993 10.9465 12.1712 10.3931 12.3785 9.80314C13.1308 7.66288 11.9879 5.28955 9.84059 4.53314C9.20755 4.31012 8.12054 4.25182 7.50383 4.40786ZM9.18999 5.50416C10.8929 5.94768 11.8815 7.58694 11.4487 9.2489C11.3022 9.81155 11.1064 10.1585 10.6879 10.5972C9.22847 12.1273 6.69855 11.7576 5.7699 9.87866C5.45386 9.2392 5.34655 8.62256 5.44805 8.02991C5.75623 6.23057 7.48886 5.06106 9.18999 5.50416ZM22.5168 7.752C22.3871 7.8468 22.3833 8.02895 22.3499 15.8L22.3157 23.7511L11.706 23.7684L1.09624 23.7856L1.07785 17.2995C1.06002 11.031 1.05503 10.8085 0.929196 10.6695C0.75525 10.4773 0.325612 10.4734 0.136697 10.6623C0.00129862 10.7977 0 10.8902 0 20.5076V30.2162L0.167795 30.3839L0.335522 30.5517H3.2093H6.08301V30.8963C6.08301 31.4516 6.27835 32.2559 6.54702 32.8072C6.87038 33.4707 7.63055 34.2479 8.2707 34.5695C8.91693 34.8942 9.36448 34.9927 10.1984 34.9935C11.1095 34.9946 11.7323 34.8151 12.432 34.35C13.5177 33.6282 14.1551 32.5021 14.2614 31.1178L14.305 30.5517H18.7979H23.2909L23.3218 31.2181C23.3424 31.6629 23.4016 32.0194 23.4998 32.29C23.9532 33.5393 24.9848 34.5161 26.2411 34.8853C26.8072 35.0516 28.0453 35.0341 28.5889 34.852C30.2221 34.3048 31.3187 32.885 31.4219 31.1839L31.4603 30.5517H33.0596H34.6588L34.8266 30.3839L34.9944 30.2162V24.3754C34.9944 18.9002 34.9865 18.5094 34.8689 18.1314C34.7628 17.7905 33.0593 14.8812 31.1758 11.8243C30.7555 11.1421 30.3675 10.7658 29.8136 10.5034L29.3556 10.2864L26.3654 10.2666L23.3751 10.2469V9.0876C23.3751 8.01952 23.3644 7.91768 23.2384 7.79172C23.0774 7.63069 22.7103 7.61052 22.5168 7.752ZM16.2788 10.8889C16.1314 11.0457 16.1302 11.0696 16.1302 13.7253C16.1302 16.3125 16.1349 16.4083 16.2669 16.5403C16.3987 16.6721 16.4947 16.677 18.9325 16.677C21.3703 16.677 21.4663 16.6721 21.5981 16.5403C21.7301 16.4083 21.7348 16.3125 21.7348 13.7168C21.7348 11.1072 21.7308 11.0255 21.5954 10.8803C21.4569 10.7317 21.4403 10.7307 18.9417 10.7307H16.4275L16.2788 10.8889ZM29.3719 11.4664C29.5311 11.5515 29.7545 11.7207 29.8682 11.8423C30.0652 12.0532 33.4033 17.5265 33.7399 18.1906C33.9006 18.5077 33.9008 18.5112 33.9008 21.1466V23.7852H28.638H23.3751V17.5279V11.2706L26.2287 11.2911C29.0429 11.3114 29.0862 11.3138 29.3719 11.4664ZM20.6754 13.7038V15.6176L18.9154 15.6359L17.1554 15.6541V13.7038V11.7536L18.9154 11.7718L20.6754 11.7901V13.7038ZM25.5838 13.1917C25.5017 13.2248 25.4017 13.3131 25.3617 13.3879C25.314 13.4771 25.2889 14.3871 25.2889 16.0284V18.5329L25.4887 18.7327L25.6885 18.9325H28.5333H31.3781L31.5459 18.7647C31.6381 18.6724 31.7136 18.5286 31.7136 18.445C31.7136 18.2108 29.0237 13.8934 28.6693 13.559C28.4784 13.3788 28.2606 13.2496 28.0642 13.2002C27.706 13.11 25.8027 13.1035 25.5838 13.1917ZM28.7521 15.4809C29.1463 16.12 29.6353 16.912 29.8389 17.2409L30.209 17.8389H28.2958H26.3825V16.0597V14.2806L27.209 14.2998L28.0355 14.319L28.7521 15.4809ZM9.73315 17.5044C9.60978 17.6407 9.60295 17.7888 9.60295 20.3336C9.60295 22.8785 9.60978 23.0266 9.73315 23.1629C9.86117 23.3043 9.90717 23.3068 12.45 23.3068C14.9455 23.3068 15.0414 23.302 15.1733 23.1701C15.3054 23.0381 15.31 22.9423 15.31 20.3336C15.31 17.725 15.3054 17.6292 15.1733 17.4972C15.0414 17.3653 14.9455 17.3605 12.45 17.3605C9.90717 17.3605 9.86117 17.3629 9.73315 17.5044ZM16.2669 17.4972C16.1349 17.6292 16.1302 17.725 16.1302 20.3336C16.1302 22.9423 16.1349 23.0381 16.2669 23.1701C16.3987 23.3019 16.4947 23.3068 18.9325 23.3068C21.3703 23.3068 21.4663 23.3019 21.5981 23.1701C21.7301 23.0381 21.7348 22.9423 21.7348 20.3336C21.7348 17.725 21.7301 17.6292 21.5981 17.4972C21.4663 17.3654 21.3703 17.3605 18.9325 17.3605C16.4947 17.3605 16.3987 17.3654 16.2669 17.4972ZM14.2848 20.3336V22.2816H12.4736H10.6623V20.3336V18.3857H12.4736H14.2848V20.3336ZM20.6754 20.3336V22.2474L18.9154 22.2656L17.1554 22.2839V20.3336V18.3834L18.9154 18.4016L20.6754 18.4199V20.3336ZM33.9008 27.1685V29.4582L32.5167 29.4579L31.1327 29.4577L30.8948 28.9965C30.4361 28.1072 29.4705 27.3442 28.3988 27.0241C27.8503 26.8603 26.7721 26.8613 26.2116 27.026C25.1482 27.3386 24.1751 28.1089 23.7119 29.0047L23.4777 29.4577L18.7141 29.4579L13.9505 29.4582L13.7073 28.9952C13.4227 28.4536 12.9094 27.9032 12.3469 27.5364C10.6858 26.4533 8.42619 26.7517 7.08745 28.2311C6.88562 28.4541 6.63089 28.8198 6.52139 29.0437L6.32223 29.4508L3.7079 29.4545L1.09357 29.4582V27.1685V24.8788H17.4972H33.9008V27.1685ZM10.8128 27.9623C13.1698 28.4581 13.9885 31.3354 12.2633 33.0607C12.0384 33.2855 11.7163 33.5131 11.4329 33.6473C10.9953 33.8546 10.9269 33.8666 10.1839 33.8666C9.4413 33.8666 9.37241 33.8545 8.93594 33.6478C8.29742 33.3453 7.77941 32.8371 7.46856 32.2081C7.25067 31.7674 7.21431 31.6227 7.18922 31.0972C7.16626 30.6176 7.19004 30.3951 7.3046 30.0181C7.75467 28.5363 9.28328 27.6406 10.8128 27.9623ZM28.0447 27.9883C28.6307 28.1409 28.966 28.3381 29.4275 28.8012C29.9157 29.291 30.1735 29.7917 30.285 30.4668C30.496 31.7447 29.8044 33.0461 28.6019 33.6338C28.1404 33.8592 28.0995 33.8666 27.3052 33.8666C26.5206 33.8666 26.4657 33.8571 26.0407 33.6479C25.1537 33.2112 24.5712 32.4743 24.359 31.5201C24.146 30.5629 24.417 29.612 25.119 28.8538C25.8757 28.0364 26.9779 27.7104 28.0447 27.9883Z" fill="#3E3465"/>
</svg>
