<svg width="29" height="35" viewBox="0 0 29 35" fill="none" xmlns="http://www.w3.org/2000/svg">
<path fill-rule="evenodd" clip-rule="evenodd" d="M2.70988 0.0322143C1.86346 0.0939514 1.50625 0.245067 0.916949 0.790655C0.477239 1.19779 0.163379 1.7899 0.0653543 2.39728C-0.0211629 2.93331 -0.0220766 28.9195 0.0643797 29.5214C0.217627 30.588 0.983314 31.4926 1.99832 31.8061C2.37228 31.9216 2.57916 31.9264 7.16561 31.9264C10.0634 31.9264 12.2351 31.9521 12.6845 31.9916C14.654 32.1651 16.2655 32.7244 17.9919 33.8337C19.0772 34.531 19.9444 34.8385 21.1899 34.9676C24.2576 35.2854 27.2264 33.235 28.0971 30.1972C28.3388 29.3536 28.4057 28.642 28.3223 27.7992C28.2031 26.5932 27.8779 25.7007 27.1461 24.5711C26.3856 23.3972 25.8284 22.0364 25.4957 20.5409C25.369 19.9713 25.3665 19.8286 25.3306 11.1342C25.3012 4.02747 25.2783 2.25846 25.2131 2.06242C24.9812 1.36504 24.5727 0.834188 23.9632 0.438194C23.2513 -0.0242868 24.1146 0.0105394 13.1212 0.00091957C7.69634 -0.00382944 3.01126 0.0102958 2.70988 0.0322143ZM23.1219 1.35962C23.4685 1.51092 23.7269 1.76621 23.9431 2.17067L24.0804 2.42772L24.0967 10.9985C24.1144 20.3321 24.1239 20.0441 23.7779 20.6344C23.5834 20.9665 23.1594 21.3489 22.7635 21.5495C22.4971 21.6845 22.3163 21.7223 21.7381 21.7638C20.8264 21.8293 20.582 21.8652 20.0355 22.0142C17.6447 22.6656 15.8301 24.5772 15.2787 27.0252C15.2411 27.1926 15.1883 27.6858 15.1614 28.1211C15.1268 28.6841 15.0754 29.0109 14.9837 29.2532C14.8099 29.7121 14.3036 30.2647 13.8434 30.4975L13.4865 30.6782L8.04856 30.6947C4.397 30.7058 2.53271 30.6903 2.37362 30.6474C1.99071 30.5443 1.63581 30.2349 1.4313 29.8259L1.24865 29.4605L1.23282 16.1572C1.22168 6.81764 1.23653 2.75888 1.28268 2.53488C1.37005 2.11039 1.66833 1.68128 2.03114 1.45795C2.26871 1.31177 2.41764 1.2697 2.7922 1.24309C3.04828 1.22489 7.65524 1.21222 13.0298 1.21496L22.8018 1.21983L23.1219 1.35962ZM7.15587 5.74564L5.50827 7.38928L4.71792 6.59181C4.28321 6.15326 3.85141 5.76098 3.75832 5.72013C3.35575 5.54338 2.92298 5.819 2.92298 6.25214C2.92298 6.4877 2.96231 6.53799 3.85147 7.43817C4.99586 8.59675 5.21967 8.71864 5.87589 8.54086C6.079 8.48582 6.41009 8.18535 7.86968 6.73148C9.24074 5.36578 9.62773 4.94628 9.6561 4.79504C9.72478 4.42888 9.43886 4.10565 9.04445 4.10339C8.80986 4.10212 8.75988 4.14559 7.15587 5.74564ZM12.3312 5.74594C12.22 5.80196 12.1178 5.92306 12.0666 6.05926C11.9935 6.25348 11.9956 6.3076 12.083 6.49184C12.2718 6.88954 12.0514 6.87231 16.9407 6.87231H21.381L21.5587 6.67346C21.8015 6.40173 21.8014 6.10601 21.5584 5.86302C21.3449 5.64956 21.7999 5.6674 16.3785 5.65991C13.0557 5.65535 12.4869 5.66746 12.3312 5.74594ZM8.73747 10.7325C8.63701 10.796 7.87053 11.5351 7.03422 12.3751L5.51362 13.9024L4.65503 13.051C3.80441 12.2077 3.74151 12.1655 3.37961 12.1959C3.31264 12.2015 3.18253 12.2873 3.09041 12.3866C2.91117 12.5797 2.87208 12.8433 2.99007 13.0637C3.1155 13.2981 4.74027 14.8715 4.98661 14.9971C5.29048 15.1521 5.67491 15.1555 6.00405 15.006C6.1696 14.9308 6.76225 14.3866 7.75863 13.3947C9.46243 11.6986 9.68118 11.455 9.68118 11.2531C9.68118 10.9094 9.39515 10.6164 9.06016 10.617C8.98314 10.6171 8.83793 10.6691 8.73747 10.7325ZM12.2261 12.3672C12.0114 12.5965 11.9737 12.7619 12.0786 13.0131C12.2546 13.4343 12.0547 13.4174 16.8586 13.4174C19.4045 13.4174 21.2422 13.3939 21.3308 13.3602C21.7625 13.1961 21.8781 12.6974 21.5584 12.3777L21.3804 12.1997H16.8817H12.3829L12.2261 12.3672ZM8.73747 17.2472C8.63701 17.3106 7.87053 18.0498 7.03422 18.8897L5.51362 20.417L4.65503 19.5657C3.8217 18.7395 3.78876 18.7144 3.53767 18.7144C3.06983 18.7144 2.77734 19.1809 2.99275 19.5835C3.13632 19.8516 4.75049 21.3997 5.00889 21.517C5.34187 21.6682 5.74249 21.6681 6.05507 21.5168C6.3072 21.3947 9.47095 18.2685 9.61104 18.003C9.73641 17.7653 9.69373 17.5579 9.47418 17.3384C9.23441 17.0986 9.01565 17.0715 8.73747 17.2472ZM12.2332 18.8839C11.9223 19.1617 11.9862 19.6474 12.3589 19.8401C12.5127 19.9197 13.1284 19.9321 16.9099 19.9321C20.9305 19.9321 21.2952 19.9237 21.4336 19.8283C21.6684 19.6666 21.7323 19.5548 21.7344 19.3033C21.7359 19.1254 21.6943 19.0283 21.5584 18.8924L21.3804 18.7144H16.9017H12.4229L12.2332 18.8839ZM22.2695 23.0441C23.0272 23.1147 23.5472 23.2676 24.2376 23.6226C25.2478 24.1421 26.0318 24.9448 26.5503 25.9901C26.9863 26.869 27.1073 27.3886 27.1108 28.3951C27.1141 29.3793 26.9963 29.8999 26.5802 30.7391C26.1 31.7079 25.3938 32.4856 24.5152 33.0135C22.9587 33.9485 20.9918 34.022 19.3564 33.2059C18.7288 32.8927 18.4027 32.6541 17.926 32.1588C17.3819 31.5937 17.197 31.3299 16.8886 30.6789C16.3621 29.5675 16.2318 28.2456 16.5336 27.0775C16.7997 26.0476 17.2906 25.2274 18.1025 24.4561C19.0176 23.5869 20.1224 23.1188 21.5537 22.994C21.6039 22.9896 21.9261 23.0122 22.2695 23.0441ZM8.73747 23.7606C8.63701 23.8269 7.87017 24.5678 7.03337 25.4073L5.51198 26.9336L4.71975 26.1488C4.28406 25.7171 3.86773 25.3336 3.7946 25.2965C3.25614 25.0234 2.72449 25.5878 3.00931 26.1301C3.15172 26.4012 4.76413 27.9557 5.00907 28.0581C5.29566 28.1778 5.72623 28.1775 6.01483 28.0572C6.26793 27.9517 9.44294 24.8337 9.59972 24.5367C9.87717 24.0109 9.23478 23.4328 8.73747 23.7606ZM24.2558 26.2997C24.1514 26.3512 23.5602 26.9054 22.9422 27.5312C22.3241 28.157 21.6224 28.858 21.3827 29.089L20.9469 29.5089L20.1322 28.7019C19.6841 28.258 19.2794 27.8708 19.2331 27.8415C19.051 27.7261 18.748 27.7818 18.5657 27.9642C18.4248 28.1051 18.3877 28.1961 18.3877 28.401C18.3877 28.6528 18.4124 28.6849 19.2857 29.5697C19.8245 30.1155 20.2812 30.5247 20.4273 30.5927C20.7254 30.7314 21.1765 30.7406 21.4795 30.6144C21.818 30.4734 25.0071 27.2776 25.0916 26.9947C25.176 26.7121 25.0856 26.4824 24.8278 26.3252C24.5897 26.1801 24.5059 26.1763 24.2558 26.2997Z" fill="#3E3465"/>
</svg>
