<svg width="25" height="36" viewBox="0 0 25 36" fill="none" xmlns="http://www.w3.org/2000/svg">
<path fill-rule="evenodd" clip-rule="evenodd" d="M2.43581 0.316932C1.67556 0.59163 1.0888 1.12045 0.724408 1.85934L0.5 2.31441V17.6993V33.0842L0.727217 33.5457C1.01737 34.1351 1.55321 34.671 2.14264 34.9611L2.60416 35.1884H10.2981H17.992L18.4799 34.9481C19.3467 34.5215 19.9487 33.7277 20.1298 32.7728C20.174 32.5399 20.2015 30.6328 20.2015 27.8039V23.2129H21.9822C23.718 23.2129 23.7688 23.2089 23.9998 23.0532C24.3386 22.8249 24.5404 22.4886 24.5908 22.0681C24.6149 21.8672 24.6249 19.9328 24.613 17.7695C24.5888 13.3672 24.6057 13.5153 24.0778 13.1124L23.83 12.9232L22.0158 12.9023L20.2015 12.8814V7.94258C20.2015 4.87701 20.1743 2.86043 20.1298 2.62577C19.9487 1.67089 19.3467 0.877214 18.4799 0.450453L17.9921 0.210242L10.405 0.194579C3.01842 0.179338 2.80771 0.182569 2.43581 0.316932ZM18.0134 1.46903C18.1981 1.56266 18.4639 1.76621 18.6041 1.92143C18.9709 2.3274 19.0777 2.76027 19.0777 3.84024V4.74054H10.2894H1.50102L1.53242 3.70454C1.56093 2.76161 1.58004 2.63701 1.74523 2.31736C1.95468 1.91223 2.20922 1.65614 2.60712 1.45042C2.88582 1.30629 2.94706 1.3051 10.2828 1.30201L17.6776 1.29892L18.0134 1.46903ZM8.04305 2.71019C7.6814 2.84582 7.63736 3.36298 7.97225 3.54222C8.06188 3.5902 8.8911 3.61674 10.2981 3.61674C12.4578 3.61674 12.6988 3.59413 12.8431 3.37794C12.9431 3.22819 12.8952 2.9346 12.7491 2.80234C12.6112 2.67746 12.4558 2.66763 10.4137 2.65506C9.12548 2.64712 8.15087 2.66981 8.04305 2.71019ZM19.0777 9.37479V12.8852L14.2434 12.9042L9.40909 12.9232L9.15118 13.12C8.6237 13.5223 8.64983 13.2843 8.62778 17.8945C8.61471 20.6358 8.63304 22.1157 8.68235 22.2987C8.72316 22.4504 8.83849 22.6718 8.93865 22.7908C9.24537 23.1553 9.43466 23.2129 10.3256 23.2129C10.7694 23.2129 11.148 23.2379 11.1669 23.2683C11.1857 23.2988 11.3163 24.002 11.4571 24.8311C11.5979 25.6601 11.7276 26.3831 11.7452 26.4375C11.7654 26.4999 12.378 25.9201 13.3978 24.8737L15.0182 23.2108L17.0304 23.2294L19.0426 23.248L19.0609 26.1804L19.0793 29.1128H10.2989H1.51844V17.4886V5.86433H10.2981H19.0777V9.37479ZM23.6275 17.91C23.6382 20.0347 23.6297 21.8441 23.6086 21.9311L23.5702 22.0891H19.1178H14.6655L13.5703 23.2244C12.9679 23.8488 12.4634 24.3466 12.449 24.3307C12.4347 24.3147 12.3508 23.8749 12.2628 23.3534C12.0252 21.948 12.1892 22.096 10.8448 22.0733L9.70107 22.054L9.68281 18.1207C9.67277 15.9574 9.67979 14.1478 9.69833 14.0993C9.72509 14.0293 11.1568 14.0149 16.67 14.0291L23.608 14.047L23.6275 17.91ZM15.6361 15.5219C15.6361 15.5219 15.6688 15.4868 15.2824 15.4868C14.4936 15.4868 14.4045 15.5724 13.9095 16.805L13.7046 17.3155L13.4054 17.271C13.0483 17.218 12.8969 17.3152 12.8969 17.5975C12.8969 17.8259 13.0583 18.0154 13.253 18.0154C13.4159 18.0154 13.4146 17.9957 13.2778 18.3753C13.0264 19.0724 13.1944 19.8545 13.6679 20.1916C13.8392 20.3136 13.8802 20.3934 13.8802 20.6049C13.8802 20.9479 13.9803 21.0356 14.3718 21.0356C14.7647 21.0356 14.8635 20.948 14.8635 20.6001V20.3332H16.5725H18.2816L18.346 20.6668C18.4087 20.9911 18.4181 21.0011 18.6848 21.0229C19.1844 21.0638 19.2884 21.0021 19.2884 20.6655C19.2884 20.4084 19.3226 20.3411 19.5417 20.1662C20.02 19.7846 20.199 18.9859 19.9588 18.3052C19.8635 18.035 19.8652 18.0154 19.983 18.0154C20.2772 18.0154 20.4653 17.5027 20.2397 17.3155C20.181 17.2668 19.9973 17.2407 19.8097 17.2542L19.482 17.2779L19.1563 16.5053C18.7809 15.6152 18.6325 15.4891 17.9539 15.4842C17.5966 15.4816 17.5325 15.5219 17.5325 15.5219H17.2842L16.6007 15.5019L15.9172 15.4818L15.6361 15.5219ZM18.706 16.6809L19.005 17.3481L16.6425 17.3666C15.3432 17.3768 14.2646 17.3696 14.2456 17.3506C14.2078 17.3128 14.6033 16.3896 14.7662 16.1353L14.8683 15.9761L16.6377 15.9949L18.407 16.0136L18.706 16.6809ZM14.8244 18.4524C14.9715 18.6625 14.962 18.8299 14.7933 18.9987C14.5073 19.2847 14.0909 19.0929 14.0909 18.6752C14.0909 18.2953 14.605 18.1391 14.8244 18.4524ZM18.9674 18.4067C19.2107 18.65 19.0192 19.1392 18.6805 19.1392C18.4738 19.1392 18.2349 18.9067 18.2349 18.7057C18.2349 18.3563 18.7192 18.1586 18.9674 18.4067ZM19.0777 31.3476C19.0777 32.6742 18.9903 33.056 18.5861 33.4945C18.4367 33.6566 18.1746 33.859 18.0036 33.9444L17.6927 34.0997H10.3052C2.92943 34.0997 2.91714 34.0995 2.62187 33.9515C2.21379 33.7469 1.95869 33.494 1.74446 33.0812C1.57512 32.755 1.56002 32.6491 1.53207 31.5905C1.51556 30.9637 1.52055 30.4027 1.54316 30.3438C1.57969 30.2485 2.55584 30.2366 10.331 30.2366H19.0777V31.3476ZM9.92267 31.0416C9.21383 31.294 8.9083 32.0358 9.24291 32.6918C9.43649 33.0712 9.75094 33.2758 10.1974 33.3128C11.2322 33.3986 11.8513 32.2253 11.2047 31.4033C10.9179 31.0387 10.3671 30.8833 9.92267 31.0416Z" fill="#3E3465"/>
</svg>
