<svg width="32" height="36" viewBox="0 0 32 36" fill="none" xmlns="http://www.w3.org/2000/svg">
<path fill-rule="evenodd" clip-rule="evenodd" d="M1.99225 0.305215C1.34887 0.528505 1.01188 0.826612 0.663052 1.48101L0.5 1.78692V17.702V33.617L0.688242 33.9741C0.938502 34.4488 1.29473 34.7937 1.76047 35.0121L2.14284 35.1914H10.8704H19.5981L19.9804 35.0121C20.4462 34.7937 20.8024 34.4488 21.0527 33.9741L21.2409 33.617L21.2595 27.8499L21.2781 22.0829H20.729H20.1799V25.9162V29.7495H10.8704H1.561V17.702V5.65445H10.8704H20.1799V8.94014V12.2258H20.7292H21.2784L21.2597 7.00637L21.2409 1.78692L21.0527 1.42981C20.8024 0.955096 20.4462 0.610236 19.9804 0.391875L19.5981 0.212531L10.9731 0.19713C2.81353 0.182549 2.32896 0.188368 1.99225 0.305215ZM19.5608 1.40886C19.7067 1.48334 19.898 1.64502 19.9859 1.76824C20.1375 1.98078 20.1468 2.0582 20.167 3.27575L20.1882 4.55922H10.8704H1.55272L1.57394 3.27575C1.59413 2.05881 1.60351 1.98071 1.75472 1.76865C1.84248 1.64564 2.0273 1.48526 2.16543 1.41229C2.40994 1.28312 2.64117 1.27949 10.8561 1.27655C19.1313 1.2736 19.3006 1.27614 19.5608 1.40886ZM8.30043 2.53681C8.19446 2.64271 8.13238 2.78303 8.13238 2.91638C8.13238 3.04972 8.19446 3.19005 8.30043 3.29594L8.46841 3.46399H10.8704H13.2725L13.4405 3.29594C13.5464 3.19005 13.6085 3.04972 13.6085 2.91638C13.6085 2.78303 13.5464 2.64271 13.4405 2.53681L13.2725 2.36876H10.8704H8.46841L8.30043 2.53681ZM9.53564 9.61712C9.02786 9.8515 8.79424 10.2385 8.70977 10.985L8.6611 11.4154L8.31117 11.569L7.96125 11.7226L7.51631 11.4018C6.92968 10.9789 6.8181 10.9252 6.52554 10.9252C6.12475 10.9252 5.81624 11.1389 4.97846 11.9965C4.3181 12.6725 4.17326 12.8589 4.10905 13.1157C3.98618 13.6065 4.1044 13.9735 4.5785 14.5739L4.83806 14.9025L4.7169 15.1879C4.59575 15.4732 4.59554 15.4732 4.08386 15.5524C3.50524 15.6418 3.24923 15.7551 2.99069 16.0359C2.71154 16.3391 2.65623 16.6139 2.65664 17.6951C2.65705 18.8524 2.70921 19.0998 3.01492 19.3957C3.30112 19.6727 3.61606 19.8019 4.15348 19.8626L4.58384 19.9113L4.73792 20.2612L4.89194 20.6112L4.63771 20.9534C4.26957 21.449 4.16217 21.6946 4.16217 22.0408C4.16217 22.5265 4.26013 22.6868 5.03842 23.474C5.87176 24.3169 6.12756 24.4787 6.62712 24.4787C7.01956 24.4787 7.2655 24.3718 7.74336 23.9936C8.0245 23.7712 8.09842 23.7422 8.24429 23.7977C8.63385 23.9458 8.66028 23.9814 8.70997 24.4249C8.7941 25.1752 9.11363 25.6654 9.6314 25.8384C9.76509 25.8831 10.304 25.9156 10.8978 25.9147C11.756 25.9134 11.9779 25.8917 12.2053 25.7868C12.713 25.5524 12.9467 25.1655 13.0311 24.4189L13.0798 23.9886L13.4297 23.8344L13.7797 23.6803L14.1432 23.9478C14.8016 24.4324 15.293 24.5319 15.7846 24.2803C15.9242 24.2087 16.3797 23.8006 16.7965 23.3733C17.4409 22.7128 17.5667 22.5475 17.6362 22.2705C17.7581 21.7848 17.6436 21.4374 17.1605 20.827C16.8994 20.4972 16.8985 20.4938 17.0014 20.2476C17.13 19.9397 17.1677 19.9167 17.6406 19.8581C18.3438 19.7709 18.7269 19.5316 18.9553 19.0368C19.141 18.6344 19.141 16.7696 18.9553 16.3672C18.7206 15.8588 18.334 15.6258 17.5847 15.5409L17.1517 15.492L16.998 15.1439L16.8444 14.7958L17.0983 14.4521C17.238 14.2629 17.4032 14.0097 17.4655 13.8892C17.5939 13.6407 17.6137 13.1499 17.5068 12.8635C17.4118 12.6091 16.0404 11.2257 15.7162 11.0572C15.1906 10.7841 14.6468 10.8996 13.9484 11.4326L13.638 11.6694L13.3592 11.5447C13.0858 11.4222 13.0794 11.4114 13.0314 10.9872C12.9703 10.4477 12.8415 10.1329 12.5642 9.84644C12.2668 9.53923 12.0205 9.48837 10.8362 9.48967C9.98413 9.49056 9.7629 9.51226 9.53564 9.61712ZM11.9043 10.8568C11.9302 10.9886 11.9886 11.3655 12.034 11.6946L12.1165 12.2928L12.4005 12.3685C12.5566 12.4102 12.9121 12.5492 13.1903 12.6773C13.4686 12.8055 13.7304 12.91 13.7722 12.9096C13.8139 12.9091 14.1064 12.7089 14.4221 12.4647C14.7378 12.2203 15.0496 12.0205 15.1149 12.0205C15.2731 12.0205 16.4835 13.1647 16.4835 13.3143C16.4835 13.3788 16.2833 13.7065 16.0386 14.0424C15.7938 14.3784 15.5936 14.6726 15.5936 14.6964C15.5936 14.7201 15.7141 14.998 15.8613 15.3138C16.0086 15.6296 16.163 16.0158 16.2044 16.1719L16.2796 16.4559L16.8778 16.5384C17.2069 16.5838 17.5839 16.6422 17.7156 16.6682L17.9552 16.7156V17.702V18.6884L17.7156 18.7357C17.5839 18.7617 17.2079 18.82 16.88 18.8652L16.284 18.9474L16.1803 19.3001C16.1233 19.4941 15.9724 19.8685 15.8451 20.132L15.6136 20.6112L16.0426 21.1693C16.6992 22.0235 16.7034 21.8925 15.9947 22.6527C15.6519 23.0203 15.3218 23.315 15.2529 23.315C15.1845 23.315 14.8569 23.1148 14.5248 22.8701C14.1928 22.6254 13.9012 22.4251 13.877 22.4251C13.8527 22.4251 13.5744 22.5456 13.2586 22.6929C12.9428 22.8402 12.5566 22.9945 12.4005 23.0359L12.1165 23.1112L12.034 23.7094C11.9886 24.0384 11.9302 24.4154 11.9042 24.5471L11.8568 24.7867H10.8704H9.88406L9.83669 24.5471C9.81068 24.4154 9.75249 24.0398 9.70732 23.7124L9.62524 23.1173L9.17565 22.9721C8.92833 22.8922 8.57807 22.7519 8.39728 22.6602C8.21643 22.5686 8.02895 22.4939 7.98062 22.4943C7.93229 22.4948 7.63453 22.695 7.31876 22.9393C7.00306 23.1836 6.69345 23.3835 6.63075 23.3835C6.47468 23.3835 5.2574 22.2372 5.2574 22.0903C5.2574 22.0254 5.45762 21.6974 5.70234 21.3615C5.94705 21.0256 6.14727 20.7262 6.14727 20.6961C6.14727 20.6661 6.05678 20.4622 5.94616 20.2431C5.83561 20.0241 5.67982 19.6428 5.60007 19.3959L5.45509 18.9472L4.85997 18.8651C4.53263 18.8199 4.15704 18.7617 4.02527 18.7357L3.78569 18.6884V17.702V16.7156L4.02527 16.6682C4.15704 16.6422 4.53263 16.584 4.85997 16.5388L5.45509 16.4568L5.60034 16.0072C5.68023 15.7599 5.82055 15.4096 5.91221 15.2288C6.00387 15.048 6.07882 14.8618 6.07882 14.815C6.07882 14.7682 5.899 14.4977 5.6792 14.2137C5.03904 13.3867 5.03363 13.5068 5.74512 12.7487C6.08567 12.3859 6.41622 12.0889 6.47961 12.0889C6.54299 12.0889 6.86971 12.2891 7.20568 12.5339C7.54157 12.7786 7.84221 12.9788 7.8737 12.9788C7.90518 12.9788 8.1102 12.8883 8.32931 12.7777C8.54836 12.6671 8.93258 12.5104 9.18298 12.4295C9.43344 12.3486 9.63832 12.2541 9.63832 12.2195C9.63832 12.1006 9.84573 10.7541 9.87749 10.6666C9.90172 10.6 10.1412 10.5837 10.8832 10.5982L11.857 10.6172L11.9043 10.8568ZM20.3479 13.4891C20.242 13.595 20.1799 13.7353 20.1799 13.8687C20.1799 14.002 20.242 14.1423 20.3479 14.2482L20.5159 14.4163H24.0132H27.5105L27.6784 14.2482C27.7844 14.1423 27.8465 14.002 27.8465 13.8687C27.8465 13.7353 27.7844 13.595 27.6784 13.4891L27.5105 13.3211H24.0132H20.5159L20.3479 13.4891ZM10.3228 14.349C8.85858 14.6036 7.74069 15.7467 7.51152 17.2239C7.32759 18.409 7.88266 19.7348 8.85393 20.4303C10.1099 21.3296 11.7197 21.3106 12.9426 20.3819C14.9587 18.8507 14.585 15.6741 12.2641 14.6137C11.6315 14.3248 10.9764 14.2354 10.3228 14.349ZM11.8727 15.6525C12.6826 16.0427 13.1545 16.8011 13.1545 17.712C13.1545 18.1635 13.1242 18.2983 12.936 18.6806C12.5257 19.514 11.7787 19.9861 10.8704 19.9861C9.96216 19.9861 9.21522 19.514 8.80492 18.6806C8.39516 17.8482 8.54281 16.8567 9.18188 16.1493C9.85942 15.3993 10.935 15.2007 11.8727 15.6525ZM21.4432 16.7748C21.3372 16.8807 21.2751 17.021 21.2751 17.1544C21.2751 17.2877 21.3372 17.428 21.4432 17.5339L21.6112 17.702H26.2037H30.7962L30.9641 17.5339C31.1865 17.3117 31.1865 16.9971 30.9641 16.7748L30.7962 16.6067H26.2037H21.6112L21.4432 16.7748ZM20.3479 20.0605C20.242 20.1664 20.1799 20.3067 20.1799 20.44C20.1799 20.5734 20.242 20.7137 20.3479 20.8196L20.5159 20.9877H24.0132H27.5105L27.6784 20.8196C27.7844 20.7137 27.8465 20.5734 27.8465 20.44C27.8465 20.3067 27.7844 20.1664 27.6784 20.0605L27.5105 19.8924H24.0132H20.5159L20.3479 20.0605ZM20.167 32.1282C20.1468 33.3457 20.1375 33.4232 19.9859 33.6357C19.898 33.7589 19.7067 33.9206 19.5608 33.9951C19.3008 34.1277 19.1283 34.1304 10.8704 34.1304C2.61263 34.1304 2.44013 34.1277 2.18008 33.9951C2.03421 33.9206 1.84289 33.7589 1.755 33.6357C1.60344 33.4232 1.59413 33.3457 1.57394 32.1282L1.55272 30.8447H10.8704H20.1882L20.167 32.1282ZM7.75281 32.108C7.64685 32.2139 7.58476 32.3542 7.58476 32.4876C7.58476 32.6209 7.64685 32.7612 7.75281 32.8671L7.92079 33.0352H10.8704H13.8201L13.9881 32.8671C14.094 32.7612 14.1561 32.6209 14.1561 32.4876C14.1561 32.3542 14.094 32.2139 13.9881 32.108L13.8201 31.9399H10.8704H7.92079L7.75281 32.108Z" fill="#3E3465"/>
</svg>
