<svg width="36" height="36" viewBox="0 0 36 36" fill="none" xmlns="http://www.w3.org/2000/svg">
<path fill-rule="evenodd" clip-rule="evenodd" d="M14.0599 1.02385C13.9534 1.13022 13.8919 1.26977 13.8919 1.40487C13.8919 1.58813 14.0666 1.79971 15.1403 2.91718C15.8269 3.63174 16.596 4.44167 16.8494 4.71707L17.31 5.21779L16.4389 5.24728C15.6605 5.27361 15.53 5.29626 15.2113 5.46036C14.7003 5.72352 14.4238 5.99105 14.1695 6.46804C13.9902 6.80453 13.9394 6.99203 13.9095 7.42811L13.8724 7.97009H10.7388C8.67765 7.97009 7.48131 7.99643 7.24285 8.04705C6.11771 8.28599 5.1783 9.2254 4.93936 10.3505C4.88511 10.606 4.8624 12.8295 4.8624 17.876V25.039L4.40067 25.17C3.37376 25.4614 2.28317 26.2037 1.64365 27.0467C1.24382 27.5736 0.828666 28.4052 0.649102 29.039C0.496489 29.5775 0.473436 31.1505 0.610932 31.6384C1.03012 33.1257 1.80043 34.2151 2.9753 34.9821C3.51085 35.3316 3.96137 35.5283 4.69139 35.7312C5.06789 35.8359 6.16765 35.8453 17.9963 35.8453C29.8249 35.8453 30.9246 35.8359 31.3011 35.7312C32.0312 35.5283 32.4817 35.3316 33.0172 34.9821C34.1921 34.2151 34.9624 33.1257 35.3816 31.6384C35.5191 31.1505 35.496 29.5775 35.3434 29.039C34.8236 27.2044 33.4521 25.756 31.7297 25.2224L31.1322 25.0373L31.1311 17.8751C31.1304 12.8329 31.1073 10.6058 31.0532 10.3505C30.8142 9.2254 29.8748 8.28599 28.7497 8.04705C28.5112 7.99643 27.3149 7.97009 25.2537 7.97009H22.1202L22.083 7.42811C22.0013 6.23546 21.1679 5.36336 20.0063 5.25487L19.5606 5.21328L20.8306 3.93683C21.9955 2.76614 22.1006 2.64055 22.1006 2.41994C22.1006 2.10788 21.8705 1.882 21.5526 1.882C21.3428 1.882 21.1864 2.01628 19.8771 3.32036L18.433 4.75879L16.9321 3.20202C16.1065 2.34579 15.2602 1.46767 15.0515 1.25062C14.6096 0.791206 14.3515 0.732172 14.0599 1.02385ZM20.3214 6.45525C20.4515 6.52509 20.6498 6.69549 20.7619 6.83401C20.93 7.04176 20.9707 7.16338 20.9939 7.52799L21.022 7.97009H17.9963H14.9705L14.9987 7.52799C15.0219 7.16338 15.0625 7.04176 15.2306 6.83401C15.6373 6.33157 15.6549 6.32836 17.9963 6.32836C19.8999 6.32836 20.1058 6.33958 20.3214 6.45525ZM28.7336 9.17286C29.0049 9.25338 29.1904 9.37336 29.4586 9.64158C30.074 10.257 30.0356 9.7117 30.0356 17.8329V24.9347H17.9963H5.95689V17.8329C5.95689 9.71047 5.91831 10.2571 6.53478 9.64069C6.78822 9.38725 6.9959 9.24866 7.23026 9.1767C7.52078 9.08749 8.92398 9.07347 17.9667 9.06937C27.2646 9.06506 28.4078 9.07607 28.7336 9.17286ZM14.0599 12.516L13.8919 12.6838V16.9996V21.3154L14.0599 21.4833C14.1608 21.5842 14.304 21.65 14.419 21.648C14.5415 21.646 15.9365 20.8781 18.3026 19.5104C22.2641 17.2203 22.2165 17.2545 22.061 16.8115C22.0061 16.6549 21.3764 16.2658 18.3026 14.4889C15.9365 13.1211 14.5415 12.3532 14.419 12.3512C14.304 12.3493 14.1608 12.415 14.0599 12.516ZM18.0855 15.6285C19.3532 16.3605 20.3905 16.9775 20.3905 16.9996C20.3905 17.0318 17.5218 18.7095 15.3835 19.9279L14.9864 20.1542V16.9996V13.845L15.3835 14.0713C15.6019 14.1957 16.8178 14.8965 18.0855 15.6285ZM30.9547 26.132C33.2826 26.6252 34.8069 28.9842 34.3107 31.3262C33.9656 32.9553 32.5838 34.3371 30.9547 34.6822C30.2413 34.8333 5.7512 34.8333 5.0378 34.6822C3.79063 34.418 2.63143 33.5209 2.07153 32.3865C1.41853 31.0635 1.41853 29.7507 2.07153 28.4277C2.62417 27.308 3.7872 26.3994 5.00633 26.1349C5.68081 25.9886 30.2648 25.9858 30.9547 26.132ZM5.86215 26.9621C5.38557 27.1085 4.84215 27.6635 4.69707 28.152C4.63749 28.3525 4.58878 28.6286 4.58878 28.7654C4.58878 29.7907 5.47881 30.6807 6.50414 30.6807C7.52947 30.6807 8.41949 29.7907 8.41949 28.7654C8.41949 27.7247 7.51578 26.8369 6.47458 26.8548C6.32156 26.8574 6.04596 26.9057 5.86215 26.9621ZM7.07922 28.2144C7.25885 28.3941 7.2908 28.4772 7.2908 28.7654C7.2908 29.0575 7.25967 29.1359 7.06718 29.3284C6.87469 29.5209 6.79623 29.552 6.50414 29.552C6.21204 29.552 6.13358 29.5209 5.94109 29.3284C5.74935 29.1367 5.71747 29.0569 5.71747 28.7695C5.71747 28.4179 5.89184 28.14 6.19631 28.0063C6.45208 27.894 6.85335 27.9885 7.07922 28.2144ZM10.5028 29.0017L10.3348 29.1696L10.337 31.2762C10.3394 33.5444 10.3401 33.5495 10.704 33.6879C10.8088 33.7277 11.4437 33.759 12.1476 33.759C13.4164 33.759 13.703 33.7158 13.8671 33.4998C14.0015 33.3227 13.9787 32.9836 13.8209 32.8142C13.6883 32.6719 13.6256 32.6645 12.5554 32.6645H11.4293V30.984C11.4293 29.2792 11.4074 29.1101 11.1617 28.9215C10.9818 28.7834 10.6849 28.8195 10.5028 29.0017ZM14.9491 29.0017L14.7812 29.1696V31.2804C14.7812 33.31 14.7865 33.3969 14.9207 33.5408C15.1408 33.7771 15.4947 33.7644 15.7218 33.512C15.874 33.3427 15.8757 33.3194 15.8757 31.3222C15.8757 29.2681 15.8585 29.1138 15.608 28.9215C15.4282 28.7834 15.1312 28.8195 14.9491 29.0017ZM17.0523 28.9725C16.9705 29.0488 16.8858 29.1814 16.8643 29.2673C16.838 29.3722 17.0877 30.1011 17.6266 31.4923C18.3347 33.3203 18.4507 33.573 18.622 33.6616C18.8407 33.7747 19.0976 33.7352 19.2518 33.5647C19.3083 33.5022 19.8185 32.58 20.3856 31.5153C21.5083 29.4073 21.566 29.2349 21.2363 28.9756C21.0142 28.8009 20.7332 28.7934 20.5573 28.9575C20.4843 29.0256 20.1021 29.6874 19.7078 30.4282C19.3136 31.1691 18.9732 31.7752 18.9515 31.7752C18.9297 31.7752 18.6836 31.1826 18.4045 30.4584C18.1254 29.7342 17.8284 29.0724 17.7445 28.9877C17.554 28.7954 17.2496 28.7887 17.0523 28.9725ZM22.7787 28.9215C22.5282 29.1138 22.511 29.2681 22.511 31.3222V33.3409L22.676 33.5328L22.841 33.7248L23.8795 33.7483C24.4508 33.7612 25.0231 33.7521 25.1513 33.7281C25.6263 33.6389 25.8256 33.1197 25.5017 32.8155C25.3623 32.6845 25.2554 32.6669 24.4927 32.6496L23.6397 32.6303L23.6194 32.2439L23.5991 31.8574L24.224 31.8334C24.783 31.8119 24.8628 31.7924 24.9797 31.6479C25.1612 31.4237 25.1486 31.0825 24.9521 30.8978C24.8146 30.7687 24.7155 30.7491 24.1997 30.7491H23.6055V30.3387V29.9283H24.4637C25.2836 29.9283 25.3293 29.9208 25.4897 29.7603C25.5956 29.6545 25.6577 29.5143 25.6577 29.381C25.6577 29.2478 25.5956 29.1075 25.4897 29.0017C25.3239 28.8358 25.3072 28.8338 24.1045 28.836C23.2557 28.8375 22.8544 28.8633 22.7787 28.9215Z" fill="#3E3465"/>
</svg>
