<svg width="34" height="34" viewBox="0 0 34 34" fill="none" xmlns="http://www.w3.org/2000/svg">
<path fill-rule="evenodd" clip-rule="evenodd" d="M13.2035 2.18174C10.0587 3.80538 0.240973 9.03807 0.137947 9.14556C0.00859211 9.28049 0 9.73192 0 16.4206C0 23.1087 0.00859211 23.5609 0.137947 23.6973C0.345813 23.9166 13.536 30.8594 13.7448 30.8594C13.8443 30.8594 14.685 30.4565 15.6131 29.9642C17.3677 29.0332 17.5228 28.9098 17.4394 28.5101C17.42 28.4172 17.3352 28.2841 17.2508 28.2142C16.9689 27.9805 16.653 28.0648 15.4894 28.6845L14.3859 29.2723L14.3657 23.049C14.3542 19.4876 14.3755 16.7983 14.4157 16.7615C14.4541 16.7263 17.1236 15.3031 20.3478 13.599L26.2099 10.5006L26.2493 13.061C26.2848 15.3658 26.3023 15.634 26.4256 15.7467C26.6231 15.9275 27.0795 15.9089 27.2955 15.7112C27.4708 15.5507 27.4712 15.5445 27.4941 12.5063C27.5097 10.455 27.4896 9.40127 27.4325 9.27515C27.366 9.12809 25.9159 8.33064 20.6698 5.55623C16.9969 3.61378 13.9031 2.01403 13.7947 2.0014C13.6838 1.9884 13.4251 2.06731 13.2035 2.18174ZM17.525 5.23467L17.7475 5.35813L17.2885 5.61073C15.1644 6.77955 5.96119 11.588 5.88189 11.5702C5.73259 11.5368 1.97067 9.53887 1.97067 9.49296C1.97067 9.47145 4.61948 8.0537 7.85689 6.34242L13.7431 3.23101L15.5228 4.17111C16.5016 4.68817 17.4026 5.16674 17.525 5.23467ZM20.0917 6.60224C20.2589 6.70591 20.0139 6.84402 14.3604 9.83241L8.4544 12.9543L7.85508 12.648C7.52543 12.4795 7.2638 12.318 7.27358 12.289C7.28343 12.2601 9.93248 10.8406 13.1604 9.13466L19.0293 6.03285L19.4732 6.26344C19.7173 6.39021 19.9957 6.54268 20.0917 6.60224ZM23.5776 8.42514C24.6542 8.99099 25.5354 9.47015 25.5358 9.49C25.537 9.55028 13.7776 15.7362 13.701 15.7156C13.5399 15.6723 9.77483 13.6546 9.77853 13.6135C9.78326 13.5603 21.4492 7.40085 21.5502 7.39818C21.5887 7.39717 22.501 7.85928 23.5776 8.42514ZM3.56691 11.7102L5.28139 12.6141V14.5494C5.28139 16.4569 5.28391 16.4872 5.45875 16.6581C5.6935 16.8876 8.2813 18.2255 8.49035 18.2255C8.58005 18.2255 8.73723 18.1634 8.83955 18.0876C9.02306 17.9516 9.02621 17.9266 9.06507 16.2938L9.10449 14.6379L11.0949 15.6904L13.0852 16.7431V23.013V29.2829L12.829 29.1397C12.595 29.009 4.09891 24.5157 2.10995 23.4709L1.26391 23.0264L1.26257 16.7564L1.26123 10.4864L1.55683 10.6464C1.71945 10.7343 2.6239 11.213 3.56691 11.7102ZM7.21264 13.6315L7.76443 13.936L7.78595 15.2505C7.7977 15.9734 7.78461 16.565 7.75678 16.565C7.72888 16.565 7.44432 16.4286 7.12436 16.2619L6.54262 15.9587V14.6375C6.54262 13.9108 6.56926 13.3187 6.60174 13.3215C6.63421 13.3245 6.90916 13.4639 7.21264 13.6315ZM24.7713 17.0701C23.624 17.2185 22.1275 17.7409 21.2298 18.3065C20.6189 18.6912 19.5959 19.6333 19.1559 20.2163C17.4483 22.4785 17.1968 25.402 18.5042 27.7912C18.919 28.5493 19.2892 29.0306 19.9347 29.6511C22.4673 32.0854 26.1401 32.6797 29.4418 31.1894C31.633 30.2003 33.1611 28.4922 33.7981 26.3198C33.9764 25.712 34.0015 25.4856 33.9999 24.5063C33.9983 23.5358 33.971 23.2943 33.7945 22.6866C33.4099 21.3623 32.7367 20.2717 31.6943 19.2841C30.9572 18.5859 30.3343 18.1731 29.3852 17.754C28.0457 17.1623 26.1874 16.8868 24.7713 17.0701ZM27.5953 18.3709C31.3996 19.2584 33.6905 23.0807 32.4386 26.4518C31.347 29.3912 27.9488 31.2794 24.6879 30.7585C22.9492 30.4809 21.4464 29.6519 20.3914 28.3886C19.8319 27.7187 19.3724 26.8749 19.142 26.0946C18.9916 25.5851 18.9618 25.3094 18.9665 24.4702C18.9713 23.5912 18.9994 23.3769 19.1821 22.8255C19.6066 21.5444 20.4159 20.391 21.4255 19.6283C22.3299 18.945 23.6737 18.3989 24.8698 18.2284C25.5749 18.1279 26.8365 18.1938 27.5953 18.3709ZM25.4181 19.4856L25.2245 19.6628V22.1961V24.7295L25.4181 24.9066L25.6115 25.0839H28.3776H31.1437L31.3372 24.9066C31.5932 24.6722 31.5932 24.3404 31.3372 24.106L31.1437 23.9288H28.8147H26.4858V21.7958V19.6628L26.2923 19.4856C26.1703 19.3738 26.0087 19.3084 25.8552 19.3084C25.7016 19.3084 25.54 19.3738 25.4181 19.4856Z" fill="#3E3465"/>
</svg>
