<svg width="34" height="34" viewBox="0 0 34 34" fill="none" xmlns="http://www.w3.org/2000/svg">
<g clip-path="url(#clip0)">
<path fill-rule="evenodd" clip-rule="evenodd" d="M3.48617 0.454248C2.15884 1.14647 2.01753 1.54544 2.0085 4.63067L2 7.48614H4.25781H6.51562V19.9203C6.51562 32.1776 6.52359 32.3633 7.07238 32.9524C7.37864 33.281 7.92423 33.6622 8.28495 33.7992C9.14452 34.1262 28.5899 34.1262 29.4494 33.7992C30.8216 33.2775 31.2188 32.5176 31.2188 30.4125V28.4705H29.8906H28.5625V15.5792C28.5625 1.42883 28.5452 1.26228 27.0028 0.464608C25.817 -0.148455 4.65997 -0.157752 3.48617 0.454248ZM5.97933 1.80814C6.23672 2.05331 6.40778 2.87037 6.47339 4.17034L6.5738 6.15801H4.81802H3.0625L3.06648 4.23223C3.071 2.17576 3.16291 1.89765 3.99219 1.43069C4.58825 1.0952 5.39017 1.2474 5.97933 1.80814ZM26.893 1.71809C27.3353 2.16036 27.3672 3.07225 27.3672 15.265V28.3377L19.1992 28.4078L11.0312 28.4782V29.7851C11.0312 31.5082 10.6623 32.4063 9.82319 32.7253C9.20534 32.9601 8.4167 32.7766 7.84375 32.2642C7.7707 32.1988 7.65117 25.372 7.57812 17.093C7.50508 8.81426 7.34119 1.82726 7.21395 1.56642C6.99375 1.11459 7.44744 1.09573 16.701 1.16798C25.6151 1.23758 26.4582 1.28326 26.893 1.71809ZM14.7829 3.05684L13.0896 3.62528L13.2436 5.46181C13.4362 7.7592 14.3927 9.79522 15.8765 11.0652C16.4782 11.5802 17.0918 12.0018 17.2397 12.0018C17.3879 12.0018 18.1357 11.355 18.9012 10.5642C20.4607 8.95425 21.125 7.28214 21.125 4.96669V3.60642L19.3132 3.02284C17.1489 2.32584 16.9558 2.32717 14.7829 3.05684ZM18.6743 3.95811L20.122 4.41445L19.9549 5.83714C19.756 7.52837 19.0866 8.9245 17.9619 9.99284L17.1406 10.773L16.343 10.009C15.2597 8.97125 14.5309 7.35439 14.4328 5.77312L14.3516 4.45881L15.5469 3.99476C17.0471 3.41225 16.9467 3.41358 18.6743 3.95811ZM17.6719 5.98801C17.6719 6.18697 17.3885 6.76709 17.0421 7.27762C16.5762 7.964 16.4787 8.32472 16.6675 8.66233C16.9077 9.09105 16.9555 9.08945 17.4575 8.63497C18.6882 7.5212 19.1578 5.62676 18.2031 5.62676C17.9109 5.62676 17.6719 5.78933 17.6719 5.98801ZM13.1562 13.5955C13.1562 14.1031 13.3334 14.1268 17.1406 14.1268C20.9478 14.1268 21.125 14.1031 21.125 13.5955C21.125 13.0879 20.9478 13.0643 17.1406 13.0643C13.3334 13.0643 13.1562 13.0879 13.1562 13.5955ZM8.64062 16.5174C8.64062 17.0115 8.8178 17.0486 11.1641 17.0486C13.5103 17.0486 13.6875 17.0115 13.6875 16.5174C13.6875 16.0233 13.5103 15.9861 11.1641 15.9861C8.8178 15.9861 8.64062 16.0233 8.64062 16.5174ZM15.0156 16.5174C15.0156 17.0319 15.1928 17.0486 20.5938 17.0486C25.9947 17.0486 26.1719 17.0319 26.1719 16.5174C26.1719 16.0029 25.9947 15.9861 20.5938 15.9861C15.1928 15.9861 15.0156 16.0029 15.0156 16.5174ZM8.68844 18.7088L8.77344 19.3065H14.6172H20.4609L20.5459 18.7088L20.6307 18.1111H14.6172H8.6037L8.68844 18.7088ZM21.7041 18.7088C21.7832 19.2661 21.9373 19.3118 23.9805 19.3835C26.1705 19.4608 26.1719 19.4602 26.1719 18.7858C26.1719 18.1157 26.1562 18.1111 23.8955 18.1111C21.6868 18.1111 21.6217 18.1289 21.7041 18.7088ZM8.64062 21.033C8.64062 21.5271 8.8178 21.5643 11.1641 21.5643C13.5103 21.5643 13.6875 21.5271 13.6875 21.033C13.6875 20.539 13.5103 20.5018 11.1641 20.5018C8.8178 20.5018 8.64062 20.539 8.64062 21.033ZM15.0156 21.033C15.0156 21.5475 15.1928 21.5643 20.5938 21.5643C25.9947 21.5643 26.1719 21.5475 26.1719 21.033C26.1719 20.5185 25.9947 20.5018 20.5938 20.5018C15.1928 20.5018 15.0156 20.5185 15.0156 21.033ZM8.64062 23.2908C8.64062 23.9437 8.70836 23.9807 9.76953 23.9036C10.6942 23.837 10.8984 23.7259 10.8984 23.2908C10.8984 22.8557 10.6942 22.7447 9.76953 22.678C8.70836 22.601 8.64062 22.6379 8.64062 23.2908ZM12.0938 23.2908V23.9549H19.1328H26.1719V23.2908V22.6268H19.1328H12.0938V23.2908ZM8.64062 25.5486C8.64062 26.0592 8.8178 26.0799 13.1562 26.0799C17.4947 26.0799 17.6719 26.0592 17.6719 25.5486C17.6719 25.0381 17.4947 25.0174 13.1562 25.0174C8.8178 25.0174 8.64062 25.0381 8.64062 25.5486ZM19 25.5486C19 26.0536 19.1772 26.0799 22.5859 26.0799C25.9947 26.0799 26.1719 26.0536 26.1719 25.5486C26.1719 25.0437 25.9947 25.0174 22.5859 25.0174C19.1772 25.0174 19 25.0437 19 25.5486ZM30.1523 30.6619C30.1438 32.983 30.13 32.9861 20.0516 32.9861C12.0103 32.9861 11.5179 32.9588 11.7139 32.5213C11.8287 32.2655 11.9724 31.4885 12.0337 30.7947L12.145 29.533H21.1508H30.1562L30.1523 30.6619Z" fill="#3E3465"/>
</g>
<defs>
<clipPath id="clip0">
<rect width="34" height="34" fill="white"/>
</clipPath>
</defs>
</svg>
