<svg width="35" height="35" viewBox="0 0 35 35" fill="none" xmlns="http://www.w3.org/2000/svg">
<g clip-path="url(#clip0)">
<path fill-rule="evenodd" clip-rule="evenodd" d="M25.3161 0.709414C25.2328 0.77489 25.2073 0.862275 25.1737 1.19727C25.1585 1.34875 25.141 1.48959 25.1347 1.51025C25.1236 1.54718 24.745 1.71056 24.6705 1.71056C24.6495 1.71056 24.5709 1.6569 24.4959 1.5913C24.142 1.28207 24.0536 1.2338 23.9076 1.27043C23.8701 1.27984 23.6718 1.45439 23.4438 1.67864C22.9142 2.19947 22.9153 2.19373 23.2609 2.62184L23.4781 2.89096L23.401 3.07071C23.3587 3.16956 23.3173 3.27438 23.309 3.30365C23.2924 3.36224 23.2429 3.37255 22.8321 3.40313C22.7082 3.41234 22.5759 3.43553 22.5381 3.45463C22.409 3.51998 22.4008 3.55794 22.3857 4.16623C22.3665 4.9363 22.3491 4.9099 22.9194 4.97621C23.1001 4.99721 23.2586 5.021 23.2716 5.02904C23.2847 5.03708 23.2956 5.06272 23.296 5.086C23.2964 5.10929 23.3298 5.20604 23.3703 5.30101C23.4108 5.39595 23.4358 5.48757 23.426 5.50457C23.4161 5.52157 23.3629 5.58625 23.3078 5.64832C23.0303 5.96105 22.972 6.04789 22.9707 6.15032C22.9692 6.27116 22.9524 6.2503 23.5161 6.82674C23.7868 7.10349 23.8086 7.11892 23.9286 7.11892C24.0267 7.11892 24.1209 7.06065 24.4042 6.82471L24.5992 6.66226L24.7422 6.72508C24.8209 6.75964 24.9275 6.80128 24.9791 6.81763C25.0308 6.834 25.0734 6.86059 25.0738 6.87674C25.0743 6.89287 25.0897 7.06208 25.1081 7.25272C25.1389 7.57229 25.1467 7.60459 25.2079 7.66586L25.2744 7.73237L25.8737 7.73988C26.5305 7.74811 26.5654 7.74158 26.6225 7.59968C26.6375 7.5625 26.6665 7.38688 26.6869 7.20943C26.7073 7.03198 26.7294 6.88137 26.736 6.87474C26.7524 6.85841 27.1585 6.69421 27.1838 6.69369C27.1949 6.69346 27.2827 6.75803 27.379 6.83723C27.7628 7.15295 27.7485 7.14396 27.868 7.14396C27.9726 7.14396 27.993 7.13186 28.1728 6.96323C28.2788 6.86382 28.4698 6.67636 28.5972 6.54663C28.8217 6.31795 28.8288 6.30724 28.8287 6.19529C28.8287 6.09493 28.8132 6.06053 28.7098 5.93241C28.6444 5.85133 28.5744 5.76119 28.5543 5.7321C28.5342 5.703 28.4872 5.64321 28.4499 5.59922L28.3821 5.51925L28.4674 5.32379C28.5143 5.2163 28.5529 5.11502 28.553 5.09872C28.5535 5.05686 28.6006 5.04689 28.954 5.01401C29.4819 4.96489 29.4798 4.96829 29.4798 4.19059V3.63934L29.4096 3.56077C29.3413 3.48433 29.3295 3.48107 28.9717 3.43966C28.7695 3.41625 28.6003 3.39228 28.5957 3.38637C28.5861 3.37403 28.4874 3.11348 28.4479 2.99637C28.4224 2.92073 28.4287 2.90894 28.6063 2.69976C28.8564 2.40508 28.8786 2.36753 28.8787 2.2372C28.8788 2.12578 28.8771 2.1236 28.4551 1.70165L28.0315 1.27794L27.919 1.29061C27.8238 1.30135 27.7654 1.33653 27.5366 1.52092C27.2337 1.76494 27.2643 1.75924 26.9725 1.62628L26.7846 1.54065L26.7541 1.19589C26.7205 0.816104 26.6878 0.726916 26.5666 0.6847C26.5246 0.670028 26.253 0.658936 25.9365 0.658936C25.4167 0.658936 25.376 0.662241 25.3161 0.709414ZM26.198 1.2679C26.2102 1.29985 26.2281 1.44352 26.2379 1.58714C26.2625 1.94908 26.2895 1.98954 26.5621 2.07269C26.6772 2.10782 26.8674 2.1872 26.9847 2.24907C27.3078 2.41948 27.3388 2.41217 27.7436 2.07012C27.8146 2.01007 27.8825 1.96095 27.8944 1.96095C27.9063 1.96095 27.9864 2.02895 28.0724 2.11206L28.2288 2.26319L28.1388 2.38122C28.0893 2.44615 28.0126 2.53872 27.9684 2.58691C27.7639 2.80983 27.754 2.89837 27.9022 3.178C27.9572 3.28179 28.0255 3.44759 28.0541 3.54645C28.1569 3.9017 28.1633 3.90668 28.5844 3.95373C28.7532 3.97258 28.8998 3.98825 28.9101 3.98856C28.9391 3.98938 28.9325 4.43459 28.9033 4.4527C28.8891 4.46141 28.7357 4.48137 28.5622 4.49702C28.1869 4.53087 28.1362 4.56187 28.0671 4.79963C28.0169 4.97238 27.8937 5.2478 27.821 5.34988C27.79 5.39343 27.7684 5.46471 27.767 5.52778C27.7645 5.63775 27.7744 5.6537 28.0807 6.03747L28.1869 6.17043L28.0218 6.33543L27.8568 6.50046L27.6336 6.31217C27.5109 6.20861 27.3867 6.11116 27.3576 6.09559C27.2626 6.04476 27.1538 6.06549 26.9316 6.17669C26.8114 6.23688 26.6454 6.30496 26.5628 6.32802C26.2281 6.42144 26.217 6.43551 26.1756 6.81955C26.1306 7.23635 26.1608 7.19706 25.8923 7.1887L25.6614 7.18151L25.644 7.01876C25.6345 6.92925 25.6193 6.77779 25.6102 6.68219C25.5895 6.46258 25.5279 6.39663 25.2815 6.33002C25.1875 6.30463 25.0066 6.22949 24.8795 6.16307C24.5571 5.99458 24.5365 5.99706 24.2379 6.24041C23.9314 6.49025 23.9669 6.48499 23.7949 6.30591C23.7129 6.22053 23.6458 6.14161 23.6458 6.13054C23.6458 6.11947 23.7057 6.04155 23.7788 5.9574C24.1159 5.56932 24.1186 5.55753 23.9516 5.21207C23.8827 5.06963 23.8067 4.87755 23.7828 4.78524C23.7146 4.52256 23.6502 4.4846 23.2155 4.45057C22.9119 4.42683 22.9068 4.42152 22.9347 4.16187L22.9573 3.95152L23.2327 3.92145C23.7317 3.86697 23.705 3.88439 23.8201 3.53876C23.8636 3.40813 23.9449 3.21839 24.0009 3.11711C24.1388 2.86722 24.1297 2.80608 23.9155 2.54505C23.6608 2.23475 23.6641 2.25615 23.8437 2.07655C24.0223 1.898 23.9867 1.89124 24.3221 2.16752C24.5792 2.37939 24.6479 2.38751 24.9271 2.23888C25.028 2.18517 25.1895 2.11654 25.2858 2.08634C25.6372 1.97632 25.6432 1.96883 25.6892 1.57796C25.7074 1.42367 25.7227 1.27772 25.7232 1.2536C25.7239 1.21517 25.7518 1.20979 25.95 1.20979C26.1633 1.20979 26.1772 1.21304 26.198 1.2679ZM25.4862 2.53939C24.877 2.68847 24.4037 3.16263 24.2451 3.78266C24.1861 4.01352 24.1815 4.38457 24.2348 4.61084C24.4563 5.55042 25.3938 6.11997 26.3439 5.8922C27.4119 5.63615 27.9717 4.45347 27.5023 3.44489C27.3379 3.09167 27.0669 2.82496 26.6926 2.64808C26.3455 2.48408 25.8826 2.44239 25.4862 2.53939ZM16.7478 2.96134C16.6382 3.00669 16.5886 3.10401 16.4732 3.50025C16.4092 3.72027 16.3452 3.90743 16.3311 3.91619C16.3043 3.93269 15.7311 3.99617 15.7217 3.98365C15.7188 3.97974 15.6333 3.81491 15.5317 3.61736C15.3316 3.22833 15.2734 3.14888 15.1697 3.12284C15.0933 3.10366 14.2573 3.34023 14.1319 3.4165C14.0274 3.48002 14.0174 3.57927 14.0674 4.05706C14.0911 4.28361 14.1067 4.4719 14.1021 4.47548C14.0604 4.50811 13.5864 4.75276 13.5649 4.75276C13.5495 4.75276 13.4499 4.67952 13.3437 4.59001C12.9161 4.22988 12.8569 4.18939 12.759 4.18952C12.6502 4.18967 12.6083 4.21508 12.2991 4.46792C11.8799 4.8107 11.8507 4.84157 11.8354 4.95798C11.8227 5.05435 11.8393 5.09539 12.0371 5.45542L12.2527 5.8478L12.1974 5.92625C12.167 5.96939 12.1162 6.0254 12.0846 6.05072C12.053 6.07603 12.0098 6.13009 11.9888 6.17083C11.9353 6.27416 11.8729 6.34272 11.8322 6.34272C11.8133 6.34272 11.7623 6.32767 11.7189 6.30929C11.5287 6.22869 11.0403 6.06729 10.9865 6.06729C10.9203 6.06729 10.7897 6.13925 10.7633 6.19023C10.7497 6.21647 10.6627 6.37787 10.57 6.54886C10.3474 6.95942 10.317 7.04723 10.3542 7.1714C10.3737 7.23657 10.414 7.28898 10.4794 7.33433C10.5325 7.37108 10.5759 7.40899 10.5759 7.41858C10.5759 7.42814 10.6768 7.51393 10.8002 7.60922C10.9236 7.7045 11.03 7.79594 11.0368 7.81244C11.0435 7.82894 11.022 7.92471 10.989 8.02527C10.956 8.12582 10.9169 8.2552 10.9021 8.31279C10.8715 8.43235 10.916 8.42053 10.3004 8.47271C9.9569 8.50185 9.88963 8.5283 9.83825 8.65449C9.82045 8.69818 9.78637 8.94419 9.76251 9.20121C9.70279 9.84463 9.66709 9.79575 10.338 9.98848C10.517 10.0399 10.6776 10.0927 10.6948 10.1058C10.7128 10.1196 10.7269 10.1893 10.7279 10.2706C10.7289 10.3481 10.7388 10.4735 10.7498 10.5492C10.7617 10.6306 10.7603 10.699 10.7464 10.7165C10.7334 10.7328 10.5855 10.8157 10.4177 10.9008C10.0122 11.1066 9.96361 11.1377 9.92916 11.2133C9.88181 11.3172 9.89373 11.3898 10.0326 11.8439C10.1671 12.2835 10.222 12.3877 10.3339 12.4158C10.3669 12.4241 10.5785 12.4091 10.8041 12.3825C11.0297 12.3558 11.2256 12.3384 11.2394 12.3438C11.2531 12.3491 11.3278 12.4743 11.4051 12.6219L11.5459 12.8903L11.4302 13.0319C11.3666 13.1098 11.2432 13.2592 11.1562 13.364C10.8971 13.6756 10.9019 13.7208 11.2394 14.1372C11.5981 14.5799 11.6266 14.6055 11.7614 14.6055C11.8577 14.6055 11.9346 14.5734 12.2409 14.4052C12.4415 14.295 12.6112 14.2049 12.618 14.2049C12.6273 14.2049 12.8708 14.4013 13.1001 14.5937C13.1044 14.5974 13.0497 14.7834 12.9784 15.0071C12.8018 15.5619 12.8118 15.6063 13.1548 15.7885C13.2443 15.836 13.4133 15.926 13.5304 15.9884C13.7992 16.1318 13.832 16.1412 13.9503 16.1093C14.0285 16.0883 14.0759 16.0463 14.1957 15.8919C14.4246 15.5968 14.5877 15.4067 14.6117 15.4067C14.6685 15.4067 15.1488 15.5623 15.1748 15.5892C15.1919 15.6068 15.2171 15.7879 15.2349 16.0202C15.2666 16.4344 15.2928 16.5315 15.39 16.5938C15.4481 16.631 16.107 16.7089 16.3632 16.7088C16.5957 16.7087 16.5954 16.7092 16.7987 15.9852C16.8312 15.8696 16.8668 15.7663 16.8779 15.7557C16.8989 15.7355 17.4825 15.6693 17.4973 15.6854C17.5019 15.6905 17.593 15.8618 17.6997 16.0661C17.8063 16.2703 17.9162 16.4585 17.9438 16.4842C18.0413 16.5751 18.1155 16.569 18.5566 16.4339C18.7874 16.3632 19.0066 16.2936 19.0438 16.2792C19.1978 16.2196 19.2157 16.0989 19.1515 15.557C19.1311 15.3848 19.1142 15.2307 19.1141 15.2145C19.1139 15.1843 19.6349 14.8998 19.6683 14.9118C19.6926 14.9206 19.9965 15.1684 20.1293 15.2878C20.1867 15.3394 20.2465 15.3817 20.2622 15.3817C20.2779 15.3817 20.2907 15.3902 20.2907 15.4007C20.2907 15.4112 20.3141 15.4343 20.3427 15.4522C20.3831 15.4774 20.4236 15.4786 20.5249 15.4576C20.6305 15.4356 20.6826 15.4044 20.7991 15.2934C20.8782 15.218 20.9512 15.1563 20.9613 15.1563C20.9715 15.1563 20.9938 15.1338 21.011 15.1063C21.0282 15.0787 21.0586 15.0562 21.0786 15.0562C21.0985 15.0562 21.1773 14.9922 21.2536 14.914C21.4482 14.7148 21.4424 14.6694 21.1576 14.1585C21.0664 13.9948 20.9918 13.8482 20.9918 13.8325C20.9918 13.8169 21.0727 13.7055 21.1715 13.5851C21.317 13.4078 21.3636 13.3666 21.4157 13.3691C21.4512 13.3708 21.6435 13.425 21.8432 13.4896C22.2369 13.617 22.3224 13.6217 22.419 13.5214C22.4486 13.4907 22.5672 13.291 22.6826 13.0778C22.8611 12.7481 22.8927 12.672 22.8936 12.5696C22.8946 12.4583 22.8862 12.4415 22.7822 12.3469C22.7204 12.2906 22.6373 12.2208 22.5977 12.1919C22.558 12.1629 22.466 12.0907 22.3932 12.0314C22.3204 11.9721 22.2392 11.9085 22.2127 11.8899C22.1658 11.8571 22.1665 11.8505 22.2417 11.6156C22.2841 11.4832 22.3188 11.3595 22.3188 11.3407C22.3188 11.2671 22.4042 11.2441 22.8127 11.2074C23.2774 11.1658 23.3462 11.1403 23.392 10.9932C23.4058 10.9487 23.4363 10.7127 23.4598 10.4687C23.507 9.97829 23.4984 9.91509 23.3756 9.84285C23.3383 9.82092 23.1342 9.75176 22.922 9.68916C22.7098 9.62657 22.5269 9.56069 22.5155 9.54274C22.5042 9.52479 22.494 9.44814 22.493 9.3724C22.4919 9.29666 22.4819 9.1785 22.4706 9.10982C22.4593 9.04111 22.4545 8.97351 22.4599 8.95959C22.4653 8.94564 22.6351 8.85082 22.8372 8.74889C23.2523 8.53951 23.3203 8.4826 23.3203 8.34509C23.3203 8.25928 23.0944 7.46435 23.0413 7.36329C23.0287 7.33936 22.9826 7.30125 22.9389 7.27864C22.865 7.24043 22.83 7.24068 22.4412 7.28197C22.2112 7.30638 22.0064 7.32 21.9861 7.31219C21.9477 7.29747 21.6929 6.83498 21.6929 6.78004C21.6929 6.76289 21.8057 6.61717 21.9436 6.45619C22.0815 6.29522 22.2121 6.12924 22.2338 6.08732C22.3115 5.93699 22.269 5.86082 21.7975 5.30577C21.6079 5.0826 21.5906 5.06762 21.503 5.05117C21.4047 5.03274 21.3138 5.0719 20.8912 5.31463C20.7468 5.39756 20.6194 5.46561 20.608 5.46589C20.5966 5.46614 20.5052 5.39596 20.405 5.30987C20.3048 5.22381 20.1993 5.13435 20.1706 5.11106L20.1184 5.06875L20.1763 4.88572C20.2082 4.78506 20.2637 4.61254 20.2997 4.50237C20.3824 4.24926 20.3852 4.11723 20.3095 4.0364C20.2282 3.94967 19.4367 3.53838 19.351 3.53838C19.2572 3.53838 19.1467 3.61683 19.0388 3.76008C18.9906 3.82405 18.9362 3.89221 18.9178 3.91154C18.8995 3.93084 18.8421 4.0041 18.7902 4.07431C18.635 4.28436 18.6435 4.28153 18.3933 4.20634C18.2732 4.17026 18.1444 4.13365 18.107 4.12502C18.0222 4.10541 18.0206 4.09953 17.9884 3.68862C17.9472 3.1628 17.9382 3.12978 17.819 3.06628C17.7796 3.0453 16.8091 2.92424 16.7989 2.93903C16.7984 2.93991 16.7753 2.94995 16.7478 2.96134ZM26.1507 3.03781C26.422 3.08927 26.7098 3.26651 26.8725 3.48237C27.2352 3.96347 27.1907 4.60556 26.7652 5.02991C26.5831 5.2116 26.4022 5.30501 26.1277 5.35907C25.9413 5.3958 25.9074 5.3958 25.721 5.35907C25.3111 5.27832 25.0441 5.07932 24.8675 4.72292C24.7711 4.52846 24.7613 4.49061 24.752 4.27703C24.7359 3.90971 24.853 3.60882 25.1045 3.37115C25.4101 3.08251 25.7743 2.96643 26.1507 3.03781ZM17.3889 3.56545C17.4209 3.5821 17.4354 3.66626 17.4608 3.98175C17.4927 4.37901 17.5289 4.5212 17.6086 4.56282C17.6309 4.57446 17.7713 4.61435 17.9205 4.65145C18.0698 4.68859 18.2985 4.75754 18.4288 4.80472C18.6814 4.89618 18.7523 4.90625 18.8436 4.86361C18.8752 4.84886 19.0171 4.69112 19.1589 4.51307C19.3006 4.33504 19.4302 4.18949 19.4468 4.18962C19.5124 4.19014 19.7399 4.34185 19.7399 4.38504C19.7399 4.40948 19.6946 4.5698 19.6393 4.74134C19.5119 5.13655 19.495 5.24512 19.5483 5.32642C19.5706 5.36035 19.6932 5.46594 19.8208 5.56104C19.9484 5.65616 20.1364 5.81177 20.2386 5.90689C20.419 6.07485 20.428 6.07976 20.5516 6.07806C20.6779 6.07633 20.7549 6.0396 21.2981 5.72231L21.3719 5.67919L21.4818 5.80439C21.5422 5.87324 21.5919 5.94455 21.5922 5.96286C21.5925 5.98113 21.5223 6.08036 21.4362 6.18332C21.0632 6.62946 21.0356 6.67103 21.0485 6.76702C21.0551 6.81602 21.1172 6.95226 21.1867 7.06977C21.2561 7.18727 21.3704 7.40133 21.4408 7.54545C21.5112 7.68957 21.5923 7.82721 21.6211 7.8513C21.6859 7.90563 21.8392 7.90731 22.2687 7.85844C22.5511 7.82629 22.5847 7.82666 22.612 7.86232C22.6564 7.92038 22.7072 8.16814 22.6798 8.19313C22.6671 8.20462 22.4948 8.29721 22.2968 8.39887C21.8388 8.63396 21.8417 8.62943 21.9004 9.02807C21.9233 9.18303 21.9494 9.43374 21.9586 9.58523C21.9754 9.86504 22.0091 9.97861 22.0875 10.0197C22.1114 10.0323 22.3 10.0901 22.5066 10.1482C22.7132 10.2064 22.8914 10.2625 22.9026 10.273C22.9246 10.2936 22.8998 10.5755 22.8721 10.6205C22.8627 10.6357 22.6697 10.6647 22.4364 10.6861C22.2061 10.7072 21.9958 10.7382 21.969 10.7549C21.8996 10.7983 21.8586 10.8969 21.7705 11.2334C21.7278 11.3963 21.6647 11.6 21.6303 11.6861C21.5956 11.7727 21.5677 11.8934 21.5677 11.9564C21.5677 12.0812 21.5873 12.104 21.9426 12.3896C22.0282 12.4584 22.1363 12.5467 22.1829 12.5856L22.2674 12.6565L22.1935 12.8029C22.1529 12.8834 22.1089 12.9559 22.0959 12.964C22.0828 12.9721 21.9839 12.9499 21.8762 12.9147C21.3295 12.736 21.2636 12.7207 21.1693 12.75C21.1025 12.7708 21.0507 12.8181 20.9675 12.9343C20.906 13.0203 20.7596 13.2012 20.642 13.3363C20.3864 13.6303 20.3341 13.7164 20.3522 13.8132C20.3596 13.8525 20.4502 14.0362 20.5535 14.2213C20.6568 14.4064 20.7414 14.5782 20.7414 14.6031C20.7414 14.6294 20.6944 14.678 20.6287 14.7195C20.5668 14.7587 20.5161 14.7998 20.5161 14.8108C20.5161 14.8631 20.4376 14.8106 20.1478 14.564C19.86 14.3191 19.8241 14.2961 19.7132 14.2855C19.6047 14.275 19.5754 14.2845 19.429 14.377C19.2589 14.4844 18.783 14.7307 18.7455 14.7307C18.7336 14.7307 18.687 14.7617 18.6418 14.7995C18.5324 14.8912 18.5243 14.9783 18.5821 15.4397C18.6348 15.8599 18.6499 15.8183 18.4168 15.8944C18.3429 15.9185 18.274 15.9284 18.2628 15.9165C18.2516 15.9047 18.1779 15.771 18.0991 15.6196C17.8015 15.0472 17.8079 15.0522 17.4573 15.1179C17.3425 15.1394 17.0876 15.1659 16.8909 15.1768C16.4349 15.2022 16.4503 15.1889 16.31 15.6821C16.2532 15.8818 16.2005 16.0664 16.1929 16.0922C16.1806 16.134 16.1597 16.1378 16.0047 16.1267C15.9088 16.1198 15.8212 16.1044 15.8101 16.0922C15.7989 16.0801 15.7762 15.8903 15.7595 15.6703C15.7286 15.2622 15.7003 15.1554 15.6105 15.1073C15.5843 15.0933 15.4689 15.0598 15.3541 15.0329C15.2393 15.006 15.0131 14.9382 14.8514 14.8824C14.5427 14.7756 14.4537 14.7629 14.3658 14.8129C14.3365 14.8297 14.1983 14.987 14.0587 15.1626C13.9192 15.3382 13.7967 15.4815 13.7866 15.4811C13.7765 15.4807 13.7006 15.4436 13.618 15.3987C13.5235 15.3472 13.4709 15.3034 13.4762 15.2805C13.4808 15.2604 13.5343 15.0888 13.5951 14.8992C13.7516 14.4109 13.7454 14.3584 13.5116 14.1923C13.434 14.1373 13.242 13.9811 13.0849 13.8453C12.709 13.5205 12.7087 13.5205 12.3126 13.7307C12.1492 13.8174 11.9831 13.9079 11.9434 13.9319C11.9038 13.9558 11.8561 13.9696 11.8376 13.9625C11.8007 13.9483 11.6275 13.7172 11.6275 13.6822C11.6275 13.6702 11.6866 13.5927 11.7589 13.51C12.2325 12.9685 12.243 12.9421 12.0864 12.6885C12.0359 12.6067 11.9145 12.3826 11.8168 12.1904C11.5779 11.7209 11.6079 11.7367 11.074 11.7973C10.8482 11.823 10.6516 11.8396 10.637 11.8343C10.5915 11.8176 10.5015 11.506 10.5346 11.4797C10.5504 11.4671 10.676 11.3978 10.8137 11.3257C11.2904 11.0759 11.2974 11.0714 11.3296 10.9936C11.3551 10.932 11.3532 10.8607 11.3191 10.6023C11.2962 10.4285 11.2698 10.1682 11.2606 10.0238C11.2383 9.67244 11.2325 9.66695 10.7386 9.52594C10.532 9.46694 10.3481 9.41391 10.3297 9.40808C10.3041 9.39989 10.3004 9.35885 10.3138 9.22845C10.3233 9.13548 10.3396 9.0502 10.35 9.03893C10.3604 9.02767 10.5509 9.00253 10.7732 8.98305C11.0134 8.96202 11.2064 8.93267 11.2487 8.91081C11.3312 8.86814 11.3513 8.8232 11.4392 8.48353C11.4749 8.34581 11.5447 8.12249 11.5942 7.98723C11.7106 7.66984 11.6964 7.60059 11.4814 7.43708C11.4017 7.37649 11.3147 7.30899 11.288 7.28705C11.1317 7.15885 11.0273 7.07813 10.9871 7.05434C10.9429 7.0283 10.943 7.02342 10.9902 6.91558C11.0171 6.85408 11.0636 6.77281 11.0936 6.73492L11.1481 6.66607L11.2939 6.72706C11.5563 6.83686 11.9522 6.94783 12.0235 6.93155C12.1186 6.90987 12.1491 6.88115 12.3163 6.6557C12.398 6.54553 12.4708 6.44976 12.4781 6.44287C12.5436 6.38083 12.8279 6.04275 12.8505 6.00009C12.8664 5.96999 12.8794 5.92174 12.8794 5.89282C12.8794 5.8321 12.7732 5.61359 12.6904 5.50392C12.6591 5.46261 12.597 5.34648 12.5522 5.24587L12.4708 5.06294L12.5937 4.9528C12.6613 4.8922 12.7286 4.84212 12.7432 4.84152C12.7578 4.8409 12.8987 4.95119 13.0562 5.08658C13.2137 5.22199 13.3672 5.34593 13.3973 5.362C13.5062 5.42024 13.6286 5.39706 13.8031 5.28511C13.8941 5.22674 14.115 5.10561 14.2939 5.01594C14.7187 4.80316 14.7035 4.83481 14.6466 4.28103C14.6227 4.04822 14.6124 3.84912 14.6238 3.83855C14.6571 3.80778 14.932 3.73541 14.957 3.75086C14.9695 3.7586 15.0619 3.92365 15.1622 4.11763C15.2626 4.3116 15.3718 4.49161 15.4049 4.51762C15.4742 4.57213 15.6226 4.57919 15.8427 4.53851C15.9215 4.52393 16.1376 4.5036 16.323 4.49334C16.7808 4.46795 16.7658 4.48084 16.9115 3.9865C16.9739 3.77445 17.032 3.58308 17.0406 3.56117C17.0531 3.52912 17.0846 3.52364 17.2024 3.53298C17.2829 3.53939 17.3668 3.55398 17.3889 3.56545ZM16.2721 5.30802C15.7957 5.34848 15.345 5.45144 14.9249 5.61577C13.8049 6.05392 12.9065 6.93836 12.4241 8.07765C11.9997 9.0798 11.9684 10.3365 12.3418 11.3755C12.6114 12.1256 13.1532 12.8817 13.7808 13.3835C14.871 14.2553 16.3555 14.571 17.7493 14.2273C19.3498 13.8326 20.6063 12.5652 21.0131 10.935C21.1136 10.5321 21.1295 10.3741 21.1277 9.79806C21.1259 9.19307 21.1038 9.03215 20.9508 8.51022C20.8251 8.08155 20.5415 7.51576 20.2803 7.17238C20.224 7.09849 20.1608 7.01218 20.1397 6.98055C20.0886 6.90396 19.7826 6.58356 19.6262 6.44287C18.7424 5.64754 17.4446 5.20844 16.2721 5.30802ZM17.2676 5.90469C18.9043 6.19719 20.1705 7.42449 20.5203 9.05729C20.5844 9.35673 20.6087 9.99419 20.5678 10.3051C20.514 10.7144 20.4033 11.1117 20.2451 11.4631C19.7013 12.6712 18.6251 13.5135 17.314 13.7571C16.9084 13.8325 16.3624 13.8327 15.9394 13.7576C15.2682 13.6385 14.6632 13.3644 14.1313 12.9387C13.9527 12.7957 13.5592 12.3969 13.4419 12.2401C13.072 11.7453 12.8241 11.1875 12.6986 10.5675C12.6173 10.1662 12.6182 9.4557 12.7004 9.07193C13.0335 7.51681 14.1514 6.33984 15.6461 5.97049C15.8201 5.92748 15.9452 5.90557 16.2971 5.85637C16.444 5.83583 17.0517 5.86608 17.2676 5.90469ZM6.88856 14.3072C6.75473 14.3387 6.60826 14.4181 6.49478 14.5207C6.40254 14.604 6.20134 14.9194 4.68387 17.3597C4.42267 17.7798 4.14196 18.2305 4.06004 18.3613C3.97811 18.4921 3.69092 18.9541 3.42183 19.3879C3.15275 19.8217 2.8918 20.2408 2.84197 20.3193C2.79215 20.3978 2.6971 20.5499 2.63078 20.6573C2.56442 20.7648 2.29183 21.2019 2.02497 21.6288C1.75814 22.0557 1.4848 22.4952 1.41757 22.6053C1.35034 22.7155 1.20179 22.9577 1.08744 23.1435C0.97309 23.3293 0.864099 23.5251 0.84522 23.5786C0.777867 23.7695 0.811794 24.1043 0.919659 24.3129C1.00028 24.4688 1.18637 24.6042 2.10237 25.1735C2.62457 25.4981 3.55887 26.0796 4.17857 26.4658C5.71329 27.4223 5.8705 27.5149 6.02038 27.5508C6.38514 27.6383 6.78893 27.4757 6.98764 27.1611C7.02632 27.0999 7.07337 27.0498 7.09217 27.0498C7.111 27.0497 7.20114 27.1155 7.29248 27.1959C7.38384 27.2763 7.48555 27.3636 7.5185 27.3899C7.55145 27.4163 7.61342 27.4675 7.65621 27.5037C7.699 27.5399 7.84104 27.649 7.97187 27.7461C8.38713 28.0542 8.42506 28.0869 8.41237 28.1264C8.40573 28.147 8.37571 28.2315 8.34566 28.3142C8.2685 28.5263 8.24892 29.0096 8.30913 29.2167C8.3851 29.478 8.49099 29.6515 8.69735 29.8527C8.91298 30.0629 9.12356 30.1884 9.4992 30.3305L9.73707 30.4204L9.75424 30.7069C9.78201 31.17 9.90918 31.5051 10.1541 31.7607C10.3331 31.9475 10.4811 32.0428 10.7172 32.1234C10.8985 32.1852 10.9465 32.1906 11.3317 32.1922L11.7495 32.1939L11.7779 32.3571C11.8907 33.0051 12.2398 33.4333 12.7917 33.601C12.91 33.6369 13.014 33.6455 13.28 33.6417C13.4659 33.639 13.6517 33.6335 13.6929 33.6296C13.7633 33.6228 13.7737 33.6342 13.8681 33.8204C13.9398 33.9617 14.0259 34.0773 14.1688 34.2243C14.4839 34.5483 14.759 34.6564 15.2025 34.6306C15.5913 34.608 16.0628 34.408 16.3508 34.1436C16.4156 34.0841 16.477 34.0355 16.4873 34.0355C16.4976 34.0355 16.5605 34.0771 16.6269 34.128C17.1486 34.5274 17.7032 34.7325 18.1853 34.7044C18.584 34.6812 18.8985 34.5455 19.1601 34.2839L19.2621 34.1819L19.5448 34.211C20.2987 34.2886 21.0665 34.0212 21.625 33.4867L21.7449 33.372L22.1257 33.3689C22.4272 33.3664 22.5476 33.3548 22.7029 33.313C23.2877 33.1557 23.6616 32.7974 23.8952 32.1701L23.9605 31.9949L24.16 31.9758C24.9503 31.9003 25.5153 31.483 25.7103 30.8306C25.7329 30.7548 25.7582 30.5567 25.7664 30.3902L25.7813 30.0877L27.5814 29.1884C28.5714 28.6938 29.3913 28.2857 29.4034 28.2815C29.4156 28.2773 29.4951 28.3787 29.5803 28.5068C29.8335 28.888 30.0517 29.0138 30.4335 28.9987C30.6144 28.9916 30.6722 28.978 30.7966 28.9138C30.9233 28.8484 31.7553 28.3352 32.9976 27.5562C33.1767 27.444 33.4414 27.28 33.586 27.1917C33.9936 26.9431 35.0756 26.2673 35.325 26.1056C35.6949 25.8658 35.8276 25.6302 35.8088 25.2469C35.7964 24.994 35.7933 24.9873 35.3948 24.3455C35.0662 23.8164 34.9734 23.6669 34.7887 23.369C34.7161 23.252 34.6312 23.1168 34.6 23.0686C34.5688 23.0204 34.4111 22.7668 34.2494 22.5052C34.0878 22.2435 33.9021 21.945 33.8369 21.8417C33.7717 21.7384 33.4108 21.1581 33.0349 20.5522C32.659 19.9462 32.2955 19.3603 32.2272 19.2502C32.1588 19.14 32.0773 19.0104 32.046 18.9622C32.0147 18.914 31.7553 18.4971 31.4696 18.0358C31.1838 17.5744 30.8967 17.1125 30.8315 17.0092C30.6171 16.6695 30.4014 16.3225 30.3344 16.2095C30.1139 15.8376 29.7496 15.6607 29.3502 15.7315C29.1599 15.7653 29.1206 15.7875 27.8174 16.6013C27.5405 16.7743 27.2463 16.9579 27.1637 17.0095C27.0811 17.0611 26.591 17.3654 26.0746 17.6858C25.0941 18.2941 24.8722 18.4325 24.59 18.6113C24.3965 18.7339 24.2503 18.8883 24.1666 19.0583C24.1181 19.1567 24.1091 19.2145 24.1093 19.4254C24.1096 19.6379 24.1186 19.694 24.1689 19.7957C24.2015 19.8617 24.2239 19.9187 24.2187 19.9224C24.1611 19.9637 23.8444 20.139 23.8274 20.139C23.8079 20.139 23.3955 19.9921 22.9823 19.8379C22.9135 19.8123 22.5247 19.6721 22.1185 19.5266C21.7123 19.381 21.3066 19.2349 21.2171 19.2019C21.1276 19.1689 20.7727 19.0404 20.4284 18.9165C20.0841 18.7925 19.5433 18.5972 19.2266 18.4824L18.6507 18.2737L18.3377 18.2748L18.0247 18.2759L17.6617 18.4169C17.2589 18.5734 16.7636 18.7691 16.4265 18.9048C16.1683 19.0088 16.1848 19.0092 15.4959 18.8782C15.248 18.8311 14.6452 18.7178 14.1563 18.6264C13.3302 18.4719 12.6871 18.3496 12.5649 18.3236C12.5165 18.3133 12.5135 18.2957 12.5148 18.0303C12.5162 17.7757 12.5099 17.7342 12.4508 17.6101C12.4148 17.5344 12.3415 17.4267 12.288 17.3708C12.2346 17.3149 11.9486 17.1192 11.6525 16.9359C11.3564 16.7526 11.0297 16.5494 10.9264 16.4844C10.8231 16.4194 10.6654 16.3207 10.5759 16.2652C9.55451 15.6315 8.82673 15.1787 8.67294 15.0813C8.49732 14.9701 8.29964 14.8475 7.72482 14.493C7.59579 14.4135 7.43908 14.333 7.37656 14.3142C7.25049 14.2763 7.03318 14.2731 6.88856 14.3072ZM7.26574 14.8768C7.31672 14.9021 7.4542 14.9829 7.57126 15.0563C7.68831 15.1296 7.90239 15.2626 8.04698 15.3518C8.26364 15.4853 9.82493 16.457 10.3881 16.8087C10.4707 16.8603 10.7974 17.0631 11.1142 17.2594C11.4309 17.4557 11.7327 17.6436 11.7849 17.6768C11.9752 17.7982 12.0267 17.9874 11.92 18.1735C11.8728 18.2558 11.3373 19.1194 10.9264 19.776C10.8746 19.8586 10.5871 20.3206 10.2873 20.8026C9.9876 21.2846 9.70369 21.7409 9.65645 21.8166C9.32784 22.3434 8.16171 24.2199 7.83589 24.7462C7.61848 25.0973 7.41539 25.4241 7.38457 25.4723C7.243 25.6937 7.02164 26.0461 6.95985 26.1483C6.92239 26.2103 6.83901 26.3464 6.77454 26.4506C6.71009 26.5549 6.61792 26.7043 6.56972 26.7824C6.46441 26.9532 6.31962 27.0397 6.18226 27.0139C6.11085 27.0005 5.8156 26.831 5.39292 26.5607C5.34473 26.5299 5.00108 26.3161 4.62926 26.0856C4.25744 25.8552 3.86872 25.6132 3.76544 25.5479C3.66215 25.4826 3.10152 25.133 2.51958 24.771C1.69597 24.2588 1.44977 24.0939 1.40856 24.0272C1.32398 23.8904 1.35215 23.7772 1.55052 23.4567C1.64427 23.3052 2.01546 22.708 2.37541 22.1296C2.73536 21.5512 3.23625 20.7456 3.48851 20.3393C3.74077 19.9331 3.97671 19.5539 4.01279 19.4966C4.15022 19.2786 4.77889 18.2697 4.87135 18.1188C4.93232 18.0193 5.4422 17.1991 5.63119 16.8965C5.70861 16.7726 6.01623 16.2794 6.31481 15.8005C6.67769 15.2185 6.88258 14.9135 6.93278 14.8805C7.0269 14.8187 7.14591 14.8174 7.26574 14.8768ZM29.6371 16.2924C29.7514 16.3411 29.7891 16.3903 30.1105 16.909C30.4888 17.5199 31.7419 19.5365 31.8562 19.7187C31.9056 19.7973 32.0114 19.9663 32.0913 20.0943C32.1712 20.2222 32.4233 20.6254 32.6516 20.9904C32.8798 21.3553 33.0848 21.6859 33.1072 21.725C33.1563 21.8108 33.3938 22.1953 33.4732 22.3174C33.5045 22.3656 33.6626 22.6191 33.8246 22.8808C33.9865 23.1424 34.1859 23.4635 34.2678 23.5944C34.3999 23.8053 34.8099 24.4633 35.0947 24.9214C35.2582 25.1843 35.2707 25.2166 35.257 25.3384C35.2423 25.4682 35.1854 25.5383 35.0022 25.6519C34.9325 25.6951 34.8023 25.7756 34.7128 25.8307C34.52 25.9494 34.2365 26.1264 33.9679 26.2956C33.8611 26.3628 33.4414 26.6236 33.0352 26.8751C32.629 27.1266 32.2121 27.3857 32.1088 27.451C31.7053 27.7058 30.591 28.396 30.5393 28.4232C30.456 28.4669 30.3356 28.4576 30.2321 28.3995C30.1382 28.3467 29.9897 28.1248 29.3773 27.1221C29.2712 26.9484 29.1452 26.7456 29.0971 26.6714C29.0491 26.5972 28.9059 26.3674 28.7789 26.1608C28.6519 25.9543 28.5339 25.7739 28.5168 25.7601C28.4996 25.7463 28.4609 25.69 28.4308 25.635C28.4008 25.5799 28.3526 25.4954 28.3239 25.4472C28.2951 25.399 28.2321 25.292 28.1839 25.2094C28.1356 25.1267 28.0707 25.0197 28.0396 24.9715C28.0085 24.9233 27.6926 24.4163 27.3377 23.8448C26.9827 23.2733 26.6519 22.7413 26.6025 22.6626C26.4011 22.3418 26.1991 22.0177 25.7539 21.3008C25.4965 20.8863 25.2182 20.4388 25.1356 20.3064C24.6231 19.4849 24.6059 19.4453 24.6868 19.2749C24.7276 19.1889 24.7729 19.1535 25.1106 18.9441C25.3722 18.7818 27.1412 17.6837 27.3515 17.553C27.5468 17.4317 27.8462 17.2444 28.1027 17.0833C28.8171 16.6342 29.328 16.3212 29.3921 16.293C29.4891 16.2504 29.5382 16.2503 29.6371 16.2924ZM18.8299 18.9347C19.0205 19.0022 19.5089 19.1775 19.9151 19.3243C21.5276 19.9071 21.9102 20.0451 22.6568 20.3131C23.0837 20.4664 23.4893 20.6147 23.5582 20.6427C23.6271 20.6707 23.7413 20.6999 23.8121 20.7075C23.9524 20.7226 23.9548 20.7217 24.2843 20.5308C24.3945 20.467 24.4974 20.4148 24.513 20.4146C24.5463 20.4144 24.5414 20.4069 25.4238 21.8291C26.1108 22.9365 26.297 23.236 26.4281 23.4441C26.5445 23.6289 27.435 25.0636 27.6061 25.3421C27.6933 25.484 27.8013 25.6456 27.846 25.7013C27.8908 25.757 27.9274 25.8175 27.9274 25.8358C27.9274 25.8541 27.9668 25.9207 28.015 25.9839C28.0632 26.047 28.1028 26.107 28.1029 26.1172C28.1031 26.1343 28.6582 27.0371 28.987 27.5554C29.0874 27.7136 29.1172 27.7796 29.0959 27.7968C29.0424 27.8401 25.649 29.5285 25.6154 29.5285C25.5973 29.5285 25.0707 29.0074 24.4453 28.3705C23.8198 27.7336 22.8853 26.7843 22.3686 26.261C21.8519 25.7377 21.0915 24.9659 20.6787 24.5458C19.2167 23.0583 18.1493 21.9882 18.0999 21.9605C18.0489 21.9319 17.1785 21.8713 16.7772 21.8683C16.5653 21.8668 16.5531 21.8697 16.483 21.9399C16.4227 22.0002 16.4096 22.0344 16.4089 22.1339C16.4056 22.581 16.1265 23.105 15.623 23.6093C14.7361 24.4979 13.7278 24.8636 13.2999 24.4518C13.2488 24.4027 13.2005 24.3324 13.1924 24.2955C13.1843 24.2586 13.1998 24.128 13.2269 24.0053C13.2743 23.7907 13.5149 22.7192 13.6946 21.923C13.742 21.713 13.8202 21.366 13.8685 21.1519C14.0117 20.5166 14.0868 20.4216 14.6076 20.2164C14.7932 20.1433 14.9788 20.0692 15.0201 20.0517C15.1045 20.016 15.1998 19.9787 15.9466 19.6888C16.2358 19.5766 16.6301 19.422 16.8229 19.3453C17.2943 19.1578 17.8384 18.9464 18.0373 18.8735C18.291 18.7805 18.4233 18.7907 18.8299 18.9347ZM13.0883 18.9879C14.9106 19.3294 15.0534 19.3572 15.085 19.3767C15.1166 19.3963 15.1136 19.438 15.0806 19.438C15.0657 19.438 14.8232 19.5291 14.5418 19.6405C13.9812 19.8624 13.8032 19.9709 13.6442 20.1876C13.4864 20.4026 13.4348 20.5611 13.2319 21.456C12.5546 24.4426 12.5883 24.258 12.6753 24.5044C12.7702 24.7728 12.9992 24.9902 13.3027 25.0997C13.4467 25.1517 13.5108 25.1591 13.8058 25.158C14.1526 25.1568 14.2718 25.1354 14.5502 25.0247C14.955 24.8637 15.2813 24.6559 15.7621 24.2529C16.2923 23.8085 16.7155 23.2159 16.8606 22.7145C16.9528 22.3961 16.9404 22.4107 17.1051 22.4268C17.184 22.4346 17.3818 22.4481 17.5447 22.4569L17.8408 22.4728L18.7463 23.3904C19.2443 23.8951 20.0468 24.708 20.5296 25.1968C21.0125 25.6857 21.7618 26.4463 22.1948 26.887C22.6279 27.3276 23.293 28.0037 23.6731 28.3893C24.2848 29.0101 24.9568 29.7688 25.1602 30.0685C25.2172 30.1526 25.225 30.1879 25.2209 30.3432C25.2091 30.7889 24.9964 31.1242 24.6204 31.29C24.4377 31.3705 24.1578 31.4315 23.9708 31.4315H23.8174L23.6127 31.2345C23.5001 31.1261 23.3022 30.9374 23.1729 30.8151C23.0436 30.6928 22.7225 30.378 22.4593 30.1155C22.1961 29.8531 21.8044 29.4672 21.5887 29.2579L21.1966 28.8775H21.0672C20.9576 28.8775 20.9267 28.8887 20.8647 28.9507C20.8041 29.0112 20.7915 29.0447 20.7915 29.1438V29.2637L21.1483 29.6153C21.8941 30.3503 22.1362 30.5802 22.1644 30.5802C22.1805 30.5802 22.1936 30.5898 22.1936 30.6017C22.1936 30.6269 22.42 30.8702 22.4565 30.8842C22.4703 30.8895 22.6916 31.1078 22.9482 31.3692L23.4149 31.8446L23.3713 31.9698C23.253 32.3087 23.0511 32.5602 22.793 32.6898C22.6037 32.7848 22.3013 32.8411 22.075 32.8235C21.6965 32.7939 21.7199 32.8056 21.3721 32.4719C21.1973 32.3043 20.998 32.1172 20.9292 32.056C20.8603 31.9948 20.7876 31.9222 20.7675 31.8947C20.7475 31.8672 20.702 31.8165 20.6666 31.782C20.6311 31.7476 20.2665 31.3927 19.8564 30.9933C19.395 30.5439 19.0738 30.2504 19.0136 30.223C18.9234 30.1821 18.9091 30.1818 18.8168 30.2187C18.7137 30.2599 18.6382 30.3699 18.6382 30.4788C18.6382 30.5582 18.7079 30.6791 18.7964 30.753C18.8392 30.7888 19.1507 31.089 19.4886 31.4201C19.8265 31.7512 20.2325 32.1467 20.3909 32.299C21.1747 33.0527 21.1976 33.0771 21.1701 33.1284C21.1403 33.184 20.8623 33.3756 20.6788 33.4668C20.3428 33.6338 19.9509 33.6988 19.5462 33.6547C19.2965 33.6274 19.2751 33.6206 19.2118 33.5488C19.1747 33.5066 19.1064 33.4323 19.0602 33.3836C19.014 33.3349 18.8297 33.1385 18.6507 32.947C17.7318 31.9642 17.7514 31.9823 17.6057 31.9823C17.4195 31.9823 17.2852 32.1872 17.3567 32.3619C17.3816 32.4226 18.1456 33.2431 18.5568 33.6508C18.6566 33.7498 18.7383 33.8506 18.7383 33.8748C18.7383 33.9289 18.6678 34.0105 18.621 34.0105C18.6021 34.0105 18.5807 34.0258 18.5735 34.0444C18.5571 34.0871 18.4261 34.1273 18.2 34.1592C18.045 34.1811 18.0014 34.1771 17.8235 34.1252C17.6081 34.0624 17.3511 33.9406 17.1484 33.8052C16.8833 33.6281 16.7853 33.5487 16.7854 33.5111C16.7854 33.4897 16.8034 33.3876 16.8254 33.2843C16.9553 32.6739 16.652 32.017 16.1217 31.7601C16.0256 31.7135 15.8456 31.6506 15.7215 31.6202L15.4959 31.565L15.4789 31.2666C15.4696 31.1025 15.4444 30.9034 15.4229 30.8241C15.2435 30.1635 14.709 29.8183 13.8853 29.8312C13.7431 29.8335 13.6178 29.8255 13.6068 29.8134C13.5957 29.8013 13.562 29.7136 13.5319 29.6183C13.4167 29.2552 13.2388 28.9901 12.992 28.814C12.7024 28.6073 12.4802 28.5441 12.0333 28.5414L11.7255 28.5395L11.6552 28.3392C11.4212 27.673 11.0602 27.2554 10.5783 27.0935C10.3682 27.023 10.0296 27.0091 9.77375 27.0606C9.50501 27.1147 9.16667 27.2743 8.92921 27.459C8.82915 27.5369 8.74007 27.6006 8.7312 27.6006C8.72237 27.6006 8.65211 27.5533 8.57509 27.4956C8.13735 27.1675 8.01373 27.0708 7.81393 26.9001C7.69264 26.7965 7.54945 26.6779 7.49572 26.6366C7.44198 26.5953 7.39756 26.5487 7.39701 26.5332C7.39619 26.5105 7.88696 25.7036 8.14886 25.297C8.17991 25.2488 8.32083 25.0235 8.46204 24.7962C8.60323 24.569 8.75754 24.3211 8.80492 24.2454C8.93664 24.0348 9.89063 22.5012 10.6117 21.3409C10.9669 20.7694 11.2828 20.2624 11.3139 20.2142C11.3449 20.166 11.5493 19.8366 11.768 19.4824C12.1038 18.9385 12.1749 18.8381 12.2245 18.8376C12.2568 18.8373 12.6455 18.9049 13.0883 18.9879ZM10.4652 27.6609C10.7295 27.7819 10.991 28.1202 11.128 28.5183C11.2022 28.7338 11.1945 28.7748 11.0588 28.8901C10.9939 28.9451 10.7221 29.1908 10.4547 29.4359C9.90618 29.9389 9.97508 29.9088 9.64943 29.7874C9.28485 29.6515 9.0211 29.4422 8.89728 29.1905C8.8443 29.0828 8.83569 29.0303 8.83569 28.8149C8.83569 28.4473 8.92505 28.2435 9.20906 27.9636C9.56295 27.6148 10.0882 27.4882 10.4652 27.6609ZM12.2498 29.104C12.4408 29.135 12.6623 29.2427 12.7708 29.3573C12.8811 29.4737 13.0003 29.7208 13.0417 29.9189L13.0767 30.0859L12.9342 30.2595C12.8558 30.3549 12.741 30.4934 12.6791 30.5672C12.6171 30.641 12.5157 30.7624 12.4537 30.8371C11.8059 31.618 11.8353 31.5915 11.5729 31.6314C10.7683 31.7535 10.3044 31.3669 10.2981 30.5691L10.2962 30.3451L10.4048 30.2434C10.4644 30.1874 10.5758 30.0854 10.6523 30.0166C10.7288 29.9479 10.972 29.7263 11.1928 29.5243C11.5831 29.1673 11.5985 29.1563 11.7424 29.1303C12.0586 29.073 12.0585 29.073 12.2498 29.104ZM14.2396 30.4158C14.5244 30.4703 14.6832 30.572 14.8138 30.7836C14.9192 30.9542 14.9633 31.3605 14.9057 31.6293C14.8786 31.7556 14.8333 31.827 14.6145 32.0882C14.3785 32.3699 13.9925 32.8406 13.931 32.9217C13.8573 33.0189 13.7729 33.0492 13.465 33.0889C13.1519 33.1293 12.9364 33.0908 12.7308 32.9579C12.4958 32.8061 12.3737 32.5767 12.3135 32.174L12.2765 31.9261L12.3713 31.8073C12.4236 31.7419 12.5507 31.5898 12.654 31.4692C12.7573 31.3485 12.8756 31.2077 12.9169 31.1561C12.9582 31.1046 13.0822 30.9559 13.1924 30.8257C13.3025 30.6956 13.4238 30.551 13.4618 30.5044C13.5165 30.4373 13.5556 30.4162 13.6496 30.4031C13.8545 30.3745 14.0452 30.3786 14.2396 30.4158ZM15.6425 32.172C16.0252 32.27 16.2541 32.5312 16.3005 32.9228C16.3185 33.0752 16.2618 33.3151 16.1662 33.4907C15.9892 33.8159 15.5242 34.0713 15.1078 34.0721C14.9322 34.0724 14.8756 34.0622 14.7843 34.0138C14.6274 33.9305 14.4578 33.7465 14.3596 33.5531L14.2753 33.387L14.3596 33.2793C14.4059 33.2201 14.5341 33.0637 14.6444 32.9317C14.7546 32.7997 14.9068 32.6144 14.9826 32.52C15.256 32.1792 15.3065 32.1326 15.4016 32.1326C15.4495 32.1326 15.5579 32.1503 15.6425 32.172Z" fill="#3E3465"/>
</g>
<defs>
<clipPath id="clip0">
<rect width="35" height="35" fill="white"/>
</clipPath>
</defs>
</svg>
