<svg width="35" height="35" viewBox="0 0 35 35" fill="none" xmlns="http://www.w3.org/2000/svg">
<g clip-path="url(#clip0)">
<path fill-rule="evenodd" clip-rule="evenodd" d="M14.4433 0.205212C12.7522 0.52405 9.76305 1.6222 8.93181 2.22997C8.35299 2.6533 8.35803 2.70523 9.10807 4.1197C10.3683 6.49603 10.8785 7.05596 11.3525 6.58353C11.683 6.25399 11.5949 5.88951 10.8747 4.60881L9.99187 3.03792L11.3519 2.44211C13.4339 1.53061 16.4325 1.05471 18.7877 1.26213C21.0822 1.46388 23.7362 2.16985 24.5992 2.80784C25.1141 3.18805 25.1103 3.26674 24.5337 4.21035L23.9231 5.21029L22.2518 4.55751C21.002 4.06934 19.811 3.89686 17.5256 3.87263C13.6281 3.83139 13.269 4.0835 13.9636 6.37359C14.5343 8.25451 14.5261 8.08895 14.0499 8.09053C13.8337 8.09147 13.02 8.51418 12.242 9.03036L10.8275 9.96861L8.30106 7.45506C6.91146 6.0727 5.61785 4.94182 5.42617 4.94182C4.84264 4.94182 2.55507 8.15788 1.52963 10.42C0.417631 12.8721 -0.380563 17.3119 0.188497 17.881C0.731433 18.4239 1.22338 17.915 1.22873 16.8049C1.24101 14.1066 2.97714 9.49807 4.8077 7.30241L5.59519 6.35817L7.8173 8.56516L10.0391 10.7725L9.28747 11.8788C7.59981 14.3625 7.06789 17.9339 8.00016 20.5217C8.24944 21.2142 8.45591 21.8543 8.45843 21.9447C8.46095 22.0347 7.82579 22.4568 7.0468 22.8823C6.19258 23.3488 5.63044 23.8772 5.63044 24.2134C5.63044 24.9672 6.05755 24.9159 7.67472 23.9682L9.04449 23.1656L10.4294 24.5505C11.1911 25.3121 12.3874 26.1881 13.0877 26.4972L14.3615 27.059L13.9082 28.7942C13.3851 30.7969 13.4745 30.9247 15.6236 31.2495C16.9333 31.4478 16.9613 31.4777 16.9613 32.6753C16.9613 34.0986 16.8562 34.1241 13.8894 33.4244C11.7208 32.9132 8.827 31.5356 7.36154 30.3166L6.41731 29.5313L7.26586 28.6702L8.11441 27.809L9.3287 28.6506C11.7733 30.3446 12.5231 29.3302 10.1156 27.5855C9.29345 26.9894 8.50124 26.4503 8.35582 26.3873C8.2101 26.3244 7.52678 26.8201 6.83749 27.4889L5.58386 28.7051L4.80203 27.7609C3.89085 26.6599 2.16825 23.4086 2.16825 22.7891C2.16825 22.555 2.84086 22.1543 3.66329 21.8987L5.15833 21.4342V17.9877C5.15833 14.8881 5.2452 14.3562 6.02167 12.6984C6.49662 11.6846 6.80696 10.7284 6.71128 10.5739C6.30243 9.91196 5.66286 10.3973 5.04187 11.841C4.04885 14.1491 3.64094 16.4788 3.84552 18.671L4.02839 20.6284L2.81253 20.8339C2.14401 20.9469 1.35243 21.2179 1.05405 21.4364C0.575319 21.786 0.557693 21.9793 0.905487 23.0658C2.99886 29.609 9.58774 34.7633 16.0907 34.9449L18.0629 35V32.6394V30.2788L16.7312 30.101C15.0555 29.8775 14.9774 29.7903 15.3079 28.515C15.5688 27.5087 15.6318 27.4725 16.9795 27.5553C18.2306 27.6324 19.6309 27.4068 21.5251 26.8226C22.0321 26.6662 22.3063 26.9069 22.9348 28.0602C23.4069 28.9267 23.9351 29.492 24.2725 29.492C25.0263 29.492 24.975 29.0648 24.0273 27.4477L23.2247 26.0779L24.5857 24.7163C26.0376 23.2635 27.4952 20.573 27.2198 19.8548C26.8956 19.0106 26.239 19.4399 25.6451 20.884C24.8346 22.8543 23.4812 24.326 21.5534 25.3339C20.234 26.0235 19.5346 26.1714 17.5908 26.172C14.0883 26.173 11.5798 24.6918 9.92011 21.6422C6.58821 15.5201 11.4866 8.09808 18.3896 8.81067C21.6346 9.14555 25.0074 11.7013 25.8305 14.4487C26.2201 15.7486 26.483 15.8361 28.4004 15.3039C29.0658 15.1191 29.694 15.0514 29.7963 15.154C29.8986 15.2563 30.0626 15.9393 30.1601 16.6721C30.2788 17.5609 30.4934 18.0037 30.8057 18.0037C31.3936 18.0037 31.5557 17.1971 31.3033 15.5276C30.9848 13.4226 30.8488 13.3279 28.8788 13.8425L27.1691 14.2888L26.1836 12.4815L25.1978 10.674L26.0889 9.82037L26.9799 8.96678L27.8351 10.2591C28.3056 10.9698 28.8234 11.5515 28.9861 11.5515C29.1485 11.5515 29.9008 11.1886 30.6574 10.7454L32.0329 9.93903L32.5232 10.887C33.2468 12.2864 33.9481 15.5569 33.9481 17.5316C33.9481 20.9343 32.4839 25.112 30.3628 27.7609L29.6068 28.7051L28.7922 27.9421C27.8527 27.0624 27.7753 26.5894 28.4753 26.0084C29.2115 25.3971 30.8101 22.0781 30.8101 21.1603C30.8101 19.8475 29.9952 20.2482 29.3877 21.8594C28.9056 23.1394 28.3337 24.0865 26.5679 26.5311C26.3419 26.844 26.5931 27.301 27.5122 28.2481L28.7642 29.5385L27.82 30.2993C26.5915 31.2888 23.4639 32.9542 22.8335 32.9542C22.3859 32.9542 21.6891 31.2844 21.6843 30.2001C21.6834 29.9839 21.3834 29.8067 21.018 29.8067C20.4241 29.8067 20.3763 29.9285 20.5683 30.9521C20.6866 31.5822 20.9548 32.6089 21.1641 33.234C21.4971 34.2276 21.6626 34.3617 22.4794 34.3006C24.2684 34.1669 27.8754 32.077 30.0216 29.9307C35.428 24.5243 36.6876 16.273 33.1681 9.32087C32.3441 7.693 30.1579 4.94182 29.6886 4.94182C28.886 4.94182 28.8609 5.63111 29.6332 6.46235C30.0626 6.9244 30.6439 7.66594 30.9253 8.11036C31.4298 8.90761 31.4213 8.92555 30.297 9.46187C29.1784 9.99505 29.1482 9.99222 28.6651 9.3023C28.3944 8.91579 27.9015 8.32816 27.5701 7.99673C26.9758 7.40249 26.9478 7.41257 25.6583 8.67784L24.3496 9.96232L23.4095 9.32716C21.6488 8.13742 20.2686 7.70245 17.9083 7.59292C15.5541 7.4837 15.55 7.48213 15.2903 6.48061C14.9309 5.09352 15.3831 4.87729 18.2816 5.05009C19.9979 5.15269 21.233 5.43691 22.5194 6.0258C24.6027 6.97948 24.5388 7.01378 26.0706 4.12474L26.8396 2.67533L26.0719 2.0962C24.0087 0.540101 17.9194 -0.450087 14.4433 0.205212ZM15.4634 11.2351C14.1626 12.0283 13.1872 13.6153 13.1856 14.941C13.185 15.5069 13.6092 16.7662 14.1286 17.7394C14.7669 18.9357 15.0728 19.9577 15.0728 20.895C15.0728 21.9472 15.2588 22.4675 15.8455 23.0538C17.5757 24.7843 20.1087 23.5014 20.1087 20.895C20.1087 19.9577 20.4147 18.9357 21.053 17.7394C22.1527 15.6784 22.2414 14.3168 21.3693 12.8863C20.0612 10.7407 17.4649 10.0146 15.4634 11.2351ZM19.1676 12.3903C20.1078 12.9455 20.7382 14.0071 20.7382 15.0344C20.7382 15.3756 20.3133 16.4514 19.794 17.4246C19.2747 18.3978 18.8497 19.3864 18.8497 19.6219C18.8497 19.9111 18.4422 20.0496 17.5908 20.0496C16.7394 20.0496 16.3318 19.9111 16.3318 19.6219C16.3318 19.3864 15.9069 18.3978 15.3876 17.4246C14.3067 15.3989 14.2315 14.6826 14.9689 13.434C15.8861 11.8813 17.5895 11.458 19.1676 12.3903ZM18.7786 21.6797C18.5476 22.3727 17.6333 22.7485 17.0588 22.3859C16.0202 21.731 16.2289 21.3086 17.5908 21.3086C18.4576 21.3086 18.8601 21.4345 18.7786 21.6797Z" fill="#3E3465"/>
</g>
<defs>
<clipPath id="clip0">
<rect width="35" height="35" fill="white"/>
</clipPath>
</defs>
</svg>
