<svg width="39" height="39" viewBox="0 0 39 39" fill="none" xmlns="http://www.w3.org/2000/svg">
<path fill-rule="evenodd" clip-rule="evenodd" d="M9.84881 10.1627C9.67272 10.3388 9.65044 21.9023 9.82619 21.9023C9.8884 21.9023 9.93929 21.9562 9.93929 22.022C9.93929 22.0878 9.8884 22.1104 9.82619 22.0719C9.76037 22.0312 9.7131 22.1439 9.7131 22.3413C9.7131 22.5279 9.76399 22.712 9.82619 22.7505C9.8884 22.7889 9.9385 22.881 9.93759 22.9551C9.93635 23.0484 9.91034 23.0521 9.85277 22.9672C9.79758 22.8857 9.64388 22.8778 9.39586 22.9438C9.03949 23.0383 9.02365 23.0652 9.05657 23.5188C9.08348 23.8908 9.13415 23.9912 9.28898 23.9788C9.56087 23.9572 9.53915 24.1242 9.26071 24.197C9.05589 24.2505 9.03451 24.3513 9.03451 25.2619C9.03451 25.8935 9.08507 26.3184 9.17023 26.4035C9.27009 26.5034 10.2555 26.5393 12.9003 26.5393H16.4946L16.5584 26.2282C16.7944 25.0791 17.0945 24.566 17.8217 24.069C18.4233 23.6579 19.5464 23.5887 20.2005 23.9224C20.9117 24.2852 21.4399 24.9807 21.62 25.791L21.7736 26.4827H25.8849H29.9962L30.1207 25.8592C30.3739 24.5911 31.1879 23.8197 32.3647 23.7325C33.7106 23.6329 34.7789 24.4413 35.0771 25.7852L35.232 26.4827L37.0253 26.5139C38.3842 26.5377 38.8409 26.5102 38.9102 26.4008C39.0246 26.2208 39.0321 23.2489 38.9188 23.0768C38.8731 23.0073 38.7211 22.9149 38.5812 22.8712C38.3296 22.7927 38.3268 22.7693 38.3268 20.7291V18.6664L36.1673 16.015C34.9795 14.5566 33.8767 13.2245 33.7167 13.0546L33.4256 12.7459L31.1543 12.7154L28.8831 12.6848L28.8508 11.4449C28.8294 10.6275 28.7716 10.1753 28.6811 10.1177C28.6056 10.0698 24.3679 10.0297 19.2642 10.0287C12.1955 10.0275 9.95219 10.0594 9.84881 10.1627ZM27.9218 16.2901C27.9218 21.9951 27.9112 21.9015 28.5409 21.7435L28.8236 21.6724L28.8534 17.7441L28.8831 13.8158L30.9527 13.7849C32.5123 13.7617 33.057 13.7896 33.1635 13.898C33.2412 13.9772 33.506 14.2975 33.7517 14.6097C33.9976 14.922 34.8985 16.0245 35.7538 17.0598L37.3089 18.942V21.2046C37.3089 22.449 37.3398 23.5476 37.3775 23.646C37.4153 23.7444 37.568 23.8249 37.7168 23.8249C37.9782 23.8249 37.9875 23.8539 37.9875 24.6731V25.5214H37.0226C36.2023 25.5214 36.0485 25.4917 35.9965 25.3235C35.6807 24.3034 35.1338 23.6255 34.2322 23.1366C33.5906 22.7887 33.4305 22.7505 32.6153 22.7505C31.8528 22.7505 31.6089 22.8004 31.0643 23.0678C30.2846 23.4507 29.597 24.1982 29.3227 24.961L29.1212 25.5214H25.8601C22.8537 25.5214 22.5942 25.5059 22.5365 25.3235C21.9136 23.3537 20.0583 22.3007 18.1753 22.8481C17.0734 23.1685 16.0779 24.1127 15.8157 25.0864L15.6986 25.5214H12.8754H10.0524L10.044 24.8711C10.0394 24.5133 10.0154 24.1135 9.99064 23.9826C9.95241 23.7801 9.98939 23.7528 10.2373 23.8001C10.4151 23.8342 10.5675 23.7947 10.6282 23.699C10.6828 23.6127 10.7283 20.7302 10.7293 17.2935L10.731 11.0449H19.3264H27.9218V16.2901ZM18.5681 12.1919C17.7455 14.1608 17.6577 15.884 18.2806 17.8307C18.9653 19.9706 18.8605 20.0553 17.923 18.1199C17.4683 17.1813 17.1364 16.6654 16.7009 16.2205C16.1482 15.6558 15.0731 14.9575 14.3168 14.672L14.0008 14.5527L14.0783 14.9759C14.2131 15.7131 14.7673 17.0175 15.1912 17.5948C15.6262 18.1875 16.3317 18.7067 17.5 19.294C17.895 19.4926 18.1933 19.6802 18.1625 19.7109C18.1318 19.7415 17.5541 19.5836 16.8787 19.3598C16.2033 19.1361 15.3369 18.9086 14.9534 18.8542C14.1817 18.7447 12.8798 18.8236 12.8798 18.9799C12.8798 19.1446 14.2121 19.9537 14.7813 20.1348C15.6033 20.3961 16.134 20.4419 17.2058 20.3437C17.7501 20.2939 18.1954 20.2893 18.1954 20.3335C18.1954 20.3777 17.8265 20.4971 17.3754 20.5989C16.2433 20.8544 15.5003 21.2165 14.9091 21.8011L14.4066 22.2981L15.1195 22.3319C16.0221 22.3748 16.7487 22.0624 17.8463 21.1593C18.2749 20.8067 18.6688 20.5369 18.7215 20.5599C18.7742 20.5829 18.8174 20.9281 18.8174 21.3272C18.8174 21.8069 18.8653 22.0687 18.9588 22.1C19.0637 22.1351 19.1002 21.9254 19.1002 21.2888V20.4304L20.0596 21.1625C21.3725 22.1642 21.6095 22.271 22.6589 22.3332L23.5597 22.3865L23.3843 22.1223C23.0043 21.55 21.9821 20.972 20.7744 20.6464L19.6091 20.3325L21.0794 20.354C22.7834 20.3788 23.3166 20.2432 24.4252 19.503C25.3156 18.9083 25.2054 18.7922 23.761 18.802C22.7875 18.8088 22.5027 18.8628 21.2542 19.2774C20.4796 19.5346 19.8284 19.7276 19.8072 19.7064C19.7859 19.6852 20.1813 19.4258 20.6858 19.13C22.3637 18.1463 23.2116 17.1367 23.6699 15.5765C23.925 14.7079 23.9123 14.6242 23.5393 14.7162C22.9959 14.85 21.6219 15.781 21.0829 16.3805C20.7665 16.7325 20.3145 17.4735 19.9296 18.2715C19.5815 18.9933 19.2744 19.5222 19.2471 19.447C19.2198 19.3718 19.3089 18.9392 19.4449 18.4857C20.098 16.309 20.1371 16.1039 20.0745 15.173C19.9924 13.9485 19.4863 12.1401 19.0643 11.5631C18.931 11.3806 18.8799 11.4453 18.5681 12.1919ZM29.6687 14.5827C29.638 14.6623 29.627 15.693 29.6439 16.8729L29.6748 19.0183H32.785C35.6314 19.0183 35.8952 19.002 35.8952 18.8268C35.8952 18.7215 35.1115 17.691 34.1536 16.5366L32.4121 14.4378H31.0682C30.0801 14.4378 29.7095 14.4762 29.6687 14.5827ZM32.4082 15.4284C32.5431 15.599 33.1409 16.3237 33.7366 17.0391C34.3324 17.7544 34.82 18.3789 34.8203 18.4269C34.8205 18.4748 33.7902 18.5003 32.5305 18.4834L30.2403 18.4528L30.209 16.7846L30.1777 15.1164L31.1703 15.1174C32.1168 15.1184 32.1744 15.1329 32.4082 15.4284ZM2.77864 18.5825C2.736 18.6253 2.70106 18.7544 2.70106 18.8697C2.70106 19.0681 2.83066 19.0776 5.16092 19.0488C7.53518 19.0193 7.62079 19.0104 7.62079 18.7921C7.62079 18.574 7.53529 18.5648 5.23851 18.5355C3.92828 18.5187 2.82128 18.5399 2.77864 18.5825ZM1.38257 22.417C1.34479 22.5155 1.36221 22.6444 1.42124 22.7034C1.48526 22.7675 2.75941 22.7987 4.57474 22.7807C7.53529 22.7513 7.62079 22.7442 7.62079 22.5243C7.62079 22.3043 7.53541 22.2973 4.53606 22.268C1.80838 22.2414 1.4433 22.2586 1.38257 22.417ZM10.0165 22.489C9.98046 22.5791 9.95366 22.5523 9.94823 22.4206C9.94336 22.3014 9.97005 22.2346 10.0076 22.2722C10.0452 22.3097 10.0492 22.4073 10.0165 22.489ZM9.78853 23.9003C9.74702 23.9417 9.7131 23.9078 9.7131 23.8249C9.7131 23.742 9.74702 23.7081 9.78853 23.7495C9.82993 23.791 9.82993 23.8588 9.78853 23.9003ZM19.0436 23.8799C18.9814 23.9017 18.7386 23.9516 18.504 23.9908C17.9849 24.0778 17.3589 24.6048 17.0458 25.2186C16.7134 25.8703 16.7885 26.9142 17.2119 27.5252C17.6688 28.1845 18.3261 28.5164 19.1567 28.5075C19.9452 28.499 20.3913 28.3 20.8868 27.7356C21.8722 26.6133 21.5518 24.8343 20.2452 24.173C19.8136 23.9546 19.2342 23.8133 19.0436 23.8799ZM31.8946 23.9917C30.9537 24.2901 30.2968 25.1975 30.2968 26.1991C30.2968 26.9535 30.5004 27.4093 31.0648 27.9186C31.9186 28.689 33.057 28.7552 33.9446 28.0857C34.6509 27.5532 34.9644 26.8784 34.8946 26.0411C34.7695 24.5392 33.3109 23.5427 31.8946 23.9917ZM19.8896 24.7016C21.059 25.2892 21.1092 26.9809 19.9777 27.6708C19.1751 28.1602 18.0479 27.7986 17.62 26.9145C16.9317 25.4926 18.4729 23.9898 19.8896 24.7016ZM33.3523 24.713C34.5622 25.3559 34.5599 27.0896 33.3482 27.6983C32.3715 28.1891 31.2739 27.6926 30.973 26.6241C30.5868 25.2525 32.0923 24.0433 33.3523 24.713ZM0.117006 25.9608C0.0330873 26.0139 -0.0171279 26.1531 0.00537849 26.2701C0.044284 26.4724 0.228859 26.4842 3.80828 26.5126C7.09489 26.5386 7.5785 26.5205 7.6364 26.3697C7.67282 26.2747 7.6398 26.1214 7.563 26.0288C7.44482 25.8865 6.87593 25.8609 3.84651 25.8624C1.87906 25.8634 0.200811 25.9076 0.117006 25.9608Z" fill="#3E3465"/>
</svg>
