<svg width="35" height="35" viewBox="0 0 35 35" fill="none" xmlns="http://www.w3.org/2000/svg">
<path d="M33.9375 30.2812H4.71875V1.0625C4.71875 0.921604 4.66278 0.786478 4.56315 0.68685C4.46352 0.587221 4.3284 0.53125 4.1875 0.53125H2.0625C1.9216 0.53125 1.78648 0.587221 1.68685 0.68685C1.58722 0.786478 1.53125 0.921604 1.53125 1.0625V32.9375C1.53125 33.0784 1.58722 33.2135 1.68685 33.3132C1.78648 33.4128 1.9216 33.4688 2.0625 33.4688H33.9375C34.0784 33.4688 34.2135 33.4128 34.3132 33.3132C34.4128 33.2135 34.4688 33.0784 34.4688 32.9375V30.8125C34.4688 30.6716 34.4128 30.5365 34.3132 30.4368C34.2135 30.3372 34.0784 30.2812 33.9375 30.2812ZM33.4062 32.4062H2.59375V1.59375H3.65625V30.8125C3.65625 30.9534 3.71222 31.0885 3.81185 31.1882C3.91148 31.2878 4.0466 31.3438 4.1875 31.3438H33.4062V32.4062Z" fill="#3E3465"/>
<path d="M22.25 13.8125H15.875C15.7341 13.8125 15.599 13.8685 15.4993 13.9681C15.3997 14.0677 15.3438 14.2029 15.3438 14.3438V29.2188C15.3438 29.3596 15.3997 29.4948 15.4993 29.5944C15.599 29.694 15.7341 29.75 15.875 29.75H22.25C22.3909 29.75 22.526 29.694 22.6257 29.5944C22.7253 29.4948 22.7812 29.3596 22.7812 29.2188V14.3438C22.7812 14.2029 22.7253 14.0677 22.6257 13.9681C22.526 13.8685 22.3909 13.8125 22.25 13.8125ZM21.7188 28.6875H16.4062V14.875H21.7188V28.6875Z" fill="#3E3465"/>
<path d="M7.375 29.75H13.75C13.8909 29.75 14.026 29.694 14.1257 29.5944C14.2253 29.4948 14.2812 29.3596 14.2812 29.2188V19.6562C14.2812 19.5154 14.2253 19.3802 14.1257 19.2806C14.026 19.181 13.8909 19.125 13.75 19.125H7.375C7.2341 19.125 7.09898 19.181 6.99935 19.2806C6.89972 19.3802 6.84375 19.5154 6.84375 19.6562V29.2188C6.84375 29.3596 6.89972 29.4948 6.99935 29.5944C7.09898 29.694 7.2341 29.75 7.375 29.75ZM7.90625 20.1875H13.2188V28.6875H7.90625V20.1875Z" fill="#3E3465"/>
<path d="M24.375 29.75H30.75C30.8909 29.75 31.026 29.694 31.1257 29.5944C31.2253 29.4948 31.2812 29.3596 31.2812 29.2188V9.03125C31.2812 8.89035 31.2253 8.75523 31.1257 8.6556C31.026 8.55597 30.8909 8.5 30.75 8.5H24.375C24.2341 8.5 24.099 8.55597 23.9993 8.6556C23.8997 8.75523 23.8438 8.89035 23.8438 9.03125V29.2188C23.8438 29.3596 23.8997 29.4948 23.9993 29.5944C24.099 29.694 24.2341 29.75 24.375 29.75ZM24.9062 9.5625H30.2188V28.6875H24.9062V9.5625Z" fill="#3E3465"/>
<path d="M22.7812 1.59375V5.84375C22.7812 5.98465 22.7252 6.11977 22.6256 6.2194C22.526 6.31903 22.3909 6.375 22.25 6.375C22.1091 6.375 21.9739 6.31903 21.8743 6.2194C21.7747 6.11977 21.7187 5.98465 21.7187 5.84375V2.87606L8.28207 16.3134C8.18239 16.413 8.04719 16.469 7.90621 16.469C7.76524 16.469 7.63004 16.413 7.53035 16.3134C7.43067 16.2137 7.37467 16.0785 7.37467 15.9375C7.37467 15.7965 7.43067 15.6613 7.53035 15.5616L20.9677 2.125H18C17.8591 2.125 17.7239 2.06903 17.6243 1.9694C17.5247 1.86977 17.4687 1.73465 17.4687 1.59375C17.4687 1.45285 17.5247 1.31773 17.6243 1.2181C17.7239 1.11847 17.8591 1.0625 18 1.0625H22.25C22.3909 1.0625 22.526 1.11847 22.6256 1.2181C22.7252 1.31773 22.7812 1.45285 22.7812 1.59375Z" fill="#3E3465"/>
</svg>
