<svg width="35" height="35" viewBox="0 0 35 35" fill="none" xmlns="http://www.w3.org/2000/svg">
<g clip-path="url(#clip0)">
<path fill-rule="evenodd" clip-rule="evenodd" d="M17.2286 2.31249C16.3931 2.47995 15.5317 3.1727 15.1855 3.95565C14.9389 4.51351 14.9619 5.59136 15.2335 6.19865C15.4823 6.75503 16.1946 7.45382 16.6744 7.61216C16.9301 7.6965 16.9763 7.75217 16.9416 7.93378C16.9185 8.0546 16.9647 8.25278 17.0441 8.37407C17.139 8.51882 17.1598 8.64151 17.1047 8.73078C17.0584 8.80553 17.0043 8.84704 16.9845 8.82293C16.9646 8.79882 16.7513 8.49927 16.5105 8.15737C16.2697 7.81537 16.0219 7.51833 15.9598 7.4972C15.8321 7.45382 14.2259 7.97576 13.784 8.20428C13.3541 8.42657 12.7587 9.1519 12.5906 9.6582C12.4831 9.98167 12.45 10.3798 12.4692 11.113L12.4958 12.1226L13.2619 12.6383C14.647 13.5708 15.763 13.9419 17.3969 14.0133C19.3906 14.1005 21.0223 13.6057 22.5723 12.4439L23.061 12.0776L23.059 10.9869C23.0573 10.1051 23.0219 9.81905 22.8743 9.49371C22.5921 8.87171 22.3409 8.56862 21.8876 8.30296C21.3871 8.00964 19.731 7.42711 19.5715 7.48836C19.5092 7.51219 19.2541 7.80197 19.0047 8.13214C18.7553 8.46241 18.5187 8.73255 18.479 8.73255C18.3732 8.73255 18.3907 8.38115 18.4998 8.31366C18.551 8.28201 18.5929 8.13931 18.5929 7.99652C18.5929 7.78298 18.66 7.70655 18.9713 7.56618C19.4788 7.33737 20.2125 6.51831 20.3982 5.9732C20.7266 5.00938 20.4783 3.85428 19.7902 3.14524C19.1431 2.47846 18.0971 2.13842 17.2286 2.31249ZM18.8143 3.27547C19.4326 3.63776 19.7399 4.14238 19.7863 4.87115C19.8343 5.6244 19.6964 6.02467 19.2274 6.49373C17.5681 8.1529 14.895 6.21029 15.943 4.10701C16.1841 3.62333 16.6593 3.21226 17.1626 3.05225C17.6307 2.90331 18.3437 2.99965 18.8143 3.27547ZM16.3714 9.19816C17.0839 10.2028 17.2417 10.3472 17.485 10.217C17.6185 10.1456 17.6505 10.0291 17.6351 9.66993C17.6244 9.41897 17.6492 9.17983 17.6903 9.13868C17.7948 9.03415 17.9381 9.28902 17.9399 9.58224C17.9416 9.87723 18.1498 10.0723 18.379 9.99377C18.4711 9.96212 18.7977 9.6002 19.1049 9.18932C19.4121 8.77844 19.7092 8.40312 19.7652 8.35536C19.8863 8.25194 21.0534 8.62717 21.5333 8.92375C21.7089 9.03229 21.9658 9.31434 22.1042 9.55059C22.3164 9.91241 22.3618 10.1143 22.3932 10.8339L22.4307 11.6878L22.0012 11.9833L21.5717 12.2788V11.4323C21.5717 10.6586 21.5521 10.5663 21.3442 10.3583C21.1953 10.2095 21.0585 10.151 20.9486 10.1893C20.5999 10.3109 20.5477 10.5043 20.5477 11.674V12.8112L19.9705 13.0062C18.622 13.4616 17.0363 13.4651 15.5909 13.0161L14.9626 12.8209V11.6331C14.9626 10.3566 14.9182 10.2219 14.4971 10.2219C14.0932 10.2219 14.0317 10.3722 14.0317 11.3576C14.0317 11.8593 14.0071 12.2698 13.9771 12.2698C13.9471 12.2698 13.7376 12.1371 13.5116 11.9747L13.1008 11.6797V11.0608C13.1008 10.0699 13.3321 9.47928 13.9173 8.9755C14.1334 8.78942 15.5025 8.26097 15.6607 8.30258C15.7119 8.31608 16.0317 8.71905 16.3714 9.19816ZM12.4958 14.6606C11.4718 14.9422 10.5817 15.2158 10.5177 15.2685C10.2957 15.4516 10.3897 15.8338 10.7467 16.1995L11.0921 16.5532L9.22147 18.4375C8.19259 19.4738 7.32102 20.4197 7.28472 20.5393C7.08161 21.2086 7.5973 21.8577 8.33222 21.8577H8.76218L10.679 19.9488L12.5958 18.0399L12.9493 18.4129C13.1437 18.618 13.375 18.7858 13.4632 18.7858C13.8438 18.7858 13.9588 18.5442 14.4613 16.6905C14.737 15.6732 14.9626 14.7466 14.9626 14.6311C14.9626 14.4275 14.6465 14.1228 14.4531 14.1401C14.4005 14.1448 13.5197 14.3791 12.4958 14.6606ZM20.8262 14.5655C20.5606 14.8681 20.5322 14.9532 20.5738 15.3226C20.6187 15.7202 20.7041 15.8223 22.4957 17.6155L24.3707 19.4921L24.1259 19.7207C23.7339 20.087 23.6116 20.3863 23.7444 20.654C23.8427 20.8521 24.1035 20.9476 25.8402 21.4212C27.7117 21.9316 27.8365 21.9538 28.0488 21.8147C28.1726 21.7336 28.2739 21.5899 28.2739 21.4952C28.2739 21.4006 28.0454 20.4704 27.7662 19.4281C27.2572 17.528 27.1486 17.2965 26.767 17.2965C26.6745 17.2965 26.4294 17.4496 26.2223 17.6367L25.8457 17.9768L23.9553 16.1008L22.0648 14.2246H21.5952C21.171 14.2246 21.0966 14.2577 20.8262 14.5655ZM23.7127 16.8776C24.8125 17.9783 25.7739 18.8789 25.8489 18.8789C25.924 18.8789 26.1428 18.7252 26.3353 18.5373C26.5895 18.289 26.6976 18.2318 26.731 18.3279C26.878 18.7521 27.4529 21.0341 27.4207 21.0663C27.3765 21.1105 24.7372 20.4 24.6604 20.3231C24.6325 20.2952 24.7429 20.1349 24.9058 19.9668C25.0687 19.7988 25.202 19.5791 25.202 19.4787C25.202 19.3651 24.4632 18.558 23.2472 17.343C21.1632 15.2608 20.9483 14.9361 21.6191 14.8836C21.6707 14.8796 22.6128 15.7768 23.7127 16.8776ZM14.1248 15.08C14.1248 15.2134 13.4733 17.6859 13.4118 17.7856C13.388 17.8243 13.2141 17.7094 13.0252 17.5304C12.8365 17.3515 12.6195 17.2046 12.5431 17.2042C12.4667 17.2038 11.4927 18.1142 10.3786 19.2274C8.64015 20.9645 8.32998 21.2369 8.19035 21.1489C7.81494 20.9126 7.93986 20.7409 9.97342 18.6997C11.0791 17.5898 11.9838 16.6438 11.9838 16.5974C11.9838 16.551 11.8295 16.355 11.6408 16.1618C11.4521 15.9686 11.3242 15.7841 11.3564 15.7518C11.4038 15.7044 13.8026 15.0183 14.055 14.9799C14.0934 14.9741 14.1248 15.0191 14.1248 15.08ZM5.64938 22.3517C3.9218 22.8385 3.09296 24.6839 3.88205 26.2867C4.17108 26.874 4.54222 27.2449 5.18851 27.5926C5.68196 27.8581 7.05145 27.8411 7.57301 27.563C8.19603 27.2308 8.5116 26.9113 8.81347 26.3072C9.32051 25.2925 9.16888 24.0501 8.4362 23.2179C7.76262 22.4526 6.58741 22.0873 5.64938 22.3517ZM28.4555 22.3517C27.8512 22.522 27.3806 22.8395 26.9783 23.3486C26.5337 23.911 26.3744 24.4742 26.4323 25.2798C26.5041 26.2796 27.029 27.0794 27.9273 27.5579C28.4954 27.8605 29.8209 27.8606 30.389 27.558C31.41 27.0141 31.9334 26.1711 31.9341 25.0692C31.9346 24.2795 31.7163 23.7291 31.1657 23.1319C30.5133 22.424 29.3683 22.0945 28.4555 22.3517ZM6.9686 23.0694C7.15403 23.121 7.49817 23.3325 7.7334 23.5395C8.50918 24.2224 8.64629 25.269 8.07753 26.1659C7.23427 27.4955 5.23999 27.4156 4.52611 26.0236C4.10173 25.196 4.22088 24.316 4.84652 23.6562C5.42225 23.049 6.16033 22.845 6.9686 23.0694ZM29.996 23.1484C30.7387 23.4866 31.2539 24.2949 31.25 25.1157C31.2482 25.496 30.9566 26.185 30.6651 26.4978C29.8036 27.4219 28.1878 27.2754 27.4679 26.2079C26.8772 25.3318 26.9712 24.3616 27.7194 23.6134C28.3583 22.9744 29.2253 22.7974 29.996 23.1484ZM18.8401 27.1477C18.7385 27.2598 18.686 27.482 18.686 27.7993V28.2806H16.0749C13.2781 28.2806 13.1027 28.3065 12.7807 28.7663C12.5912 29.0368 12.5947 29.6705 12.7872 29.9453C13.0927 30.3815 13.3737 30.4216 16.1232 30.4216H18.686V30.9192C18.686 31.4223 18.8597 31.7248 19.1484 31.7248C19.2941 31.7248 22.5652 29.8802 22.7537 29.6917C22.8259 29.6195 22.8722 29.432 22.8566 29.2746C22.8304 29.0096 22.7027 28.9157 21.1062 27.9874C20.1591 27.4367 19.2964 26.9841 19.1891 26.9818C19.0819 26.9794 18.9248 27.054 18.8401 27.1477ZM20.6554 28.5668C21.2874 28.929 21.8385 29.2584 21.8802 29.2988C21.9496 29.3662 19.5968 30.794 19.4164 30.794C19.373 30.794 19.3376 30.568 19.3376 30.2919C19.3376 29.9201 19.2994 29.7753 19.1903 29.7334C19.1094 29.7023 17.7913 29.6769 16.2614 29.6769C13.5463 29.6769 13.4773 29.6724 13.3769 29.4848C13.3006 29.3422 13.3026 29.2582 13.385 29.159C13.477 29.0482 13.9772 29.0253 16.305 29.0253C18.3659 29.0253 19.144 28.9955 19.2259 28.9136C19.2873 28.8522 19.3376 28.6008 19.3376 28.3551C19.3376 28.1094 19.3756 27.9083 19.422 27.9083C19.4685 27.9083 20.0236 28.2046 20.6554 28.5668ZM3.44985 28.4605C2.03141 28.945 1.43323 29.4608 1.13834 30.4537C0.995171 30.9359 0.947325 32.5315 1.07085 32.7054C1.2088 32.8995 1.99101 33.4787 2.48902 33.7555C3.6687 34.4113 4.93011 34.7292 6.35209 34.7292C7.94935 34.7292 9.36678 34.3191 10.6121 33.4968C11.7158 32.7679 11.7045 32.7856 11.7045 31.7847C11.7045 30.3737 11.3036 29.4753 10.4507 28.9755C10.0265 28.7269 8.51988 28.1875 8.24956 28.1875C8.15917 28.1875 7.86213 28.4777 7.57748 28.8441C7.06076 29.5091 6.77405 29.5901 7.10367 28.978C7.3591 28.5038 7.1974 28.3737 6.35209 28.3737C5.50156 28.3737 5.34462 28.503 5.6061 28.9885C5.73018 29.2188 5.75066 29.3382 5.67843 29.4104C5.60619 29.4827 5.44152 29.3238 5.09636 28.8493C4.74701 28.3689 4.55972 28.1893 4.41311 28.194C4.30196 28.1975 3.86855 28.3175 3.44985 28.4605ZM26.2395 28.4707C24.4006 29.107 23.9145 29.7313 23.8285 31.5663C23.7743 32.7246 23.787 32.75 24.7499 33.4074C25.7476 34.0887 26.9883 34.5381 28.3333 34.7052C30.1945 34.9365 32.4043 34.3345 33.9056 33.1872C34.4975 32.7349 34.5106 32.7028 34.5106 31.7081C34.5106 30.3305 34.1226 29.4828 33.2604 28.9777C32.7834 28.6981 31.3907 28.192 31.091 28.1894C30.9409 28.188 30.7474 28.3687 30.3963 28.8378C30.0859 29.2526 29.8773 29.4558 29.8204 29.399C29.7634 29.342 29.7938 29.1934 29.9042 28.9885C30.1663 28.5017 30.0094 28.3737 29.1501 28.3737C28.5597 28.3737 28.4529 28.3993 28.366 28.5617C28.2881 28.7072 28.3024 28.8121 28.4288 29.0262C28.5457 29.2241 28.5636 29.3313 28.4917 29.4032C28.4198 29.4751 28.2552 29.3165 27.9127 28.8456C27.3567 28.0812 27.3617 28.0824 26.2395 28.4707ZM4.98493 29.9183C5.35942 30.4568 5.72646 30.9207 5.80065 30.9492C6.03187 31.0379 6.21991 30.7925 6.1985 30.4297C6.18761 30.2446 6.22317 30.0136 6.27753 29.9164C6.37108 29.7493 6.38057 29.752 6.45095 29.9643C6.49191 30.0878 6.5284 30.2679 6.53184 30.3645C6.53957 30.5768 6.78671 30.7505 6.97716 30.6774C7.05331 30.6482 7.37902 30.275 7.701 29.848C8.02299 29.4211 8.31435 29.0402 8.34841 29.0015C8.41479 28.9261 9.52474 29.2766 10.0029 29.5238C10.6611 29.8642 10.9606 30.5214 10.9579 31.6198L10.9559 32.423L10.5939 32.6789C10.3948 32.8197 10.2073 32.9349 10.177 32.9349C10.1468 32.9349 10.1221 32.54 10.1221 32.0572C10.1221 31.1019 10.0279 30.887 9.60871 30.887C9.20108 30.887 9.09813 31.1919 9.09813 32.3994V33.4981L8.84214 33.5961C8.01573 33.9125 7.42658 34.0037 6.259 33.9958C5.2426 33.989 4.93709 33.9512 4.35074 33.7601L3.65259 33.5326L3.60605 32.3632C3.55634 31.1139 3.47694 30.887 3.08933 30.887C2.67668 30.887 2.5821 31.1051 2.5821 32.0572C2.5821 32.54 2.55734 32.9349 2.52718 32.9349C2.49693 32.9349 2.30675 32.8197 2.10448 32.6789L1.73669 32.423L1.76378 31.4849C1.78817 30.6419 1.81675 30.5078 2.04667 30.1607C2.18742 29.9483 2.41157 29.7031 2.54478 29.6158C2.7478 29.4827 4.1089 28.9465 4.25765 28.9409C4.28325 28.94 4.61054 29.3798 4.98493 29.9183ZM27.8288 29.9553C28.2041 30.4925 28.5783 30.9448 28.6605 30.9607C28.8956 31.0059 29.1204 30.7215 29.055 30.4615C28.9799 30.1621 29.0923 29.7134 29.2123 29.8334C29.2619 29.883 29.3202 30.0628 29.3417 30.2327C29.4482 31.074 29.8093 30.8465 31.0318 29.1683L31.207 28.9278L31.8636 29.1512C33.4292 29.6836 33.7675 30.1207 33.764 31.6055L33.7619 32.423L33.4 32.6789C33.2009 32.8197 33.0133 32.9349 32.9831 32.9349C32.9529 32.9349 32.9282 32.54 32.9282 32.0572C32.9282 31.1051 32.8336 30.887 32.4209 30.887C32.0424 30.887 31.9804 31.0829 31.9812 32.2747C31.9818 33.0134 31.9454 33.4203 31.8733 33.4793C31.8136 33.5284 31.4504 33.6659 31.0665 33.785C30.4934 33.9628 30.1597 34.0017 29.2047 34.0021C28.094 34.0024 27.4676 33.9022 26.6681 33.5961L26.4121 33.4981V32.3994C26.4121 31.1981 26.3087 30.887 25.9093 30.887C25.5147 30.887 25.3981 31.1455 25.3687 32.0841L25.3417 32.9491L24.946 32.6622L24.5504 32.3752L24.5514 31.6079C24.5524 30.69 24.8126 30.0205 25.3044 29.6703C25.5992 29.4603 26.9449 28.9234 27.0819 28.961C27.1175 28.9708 27.4535 29.4182 27.8288 29.9553Z" fill="#3E3465"/>
</g>
<defs>
<clipPath id="clip0">
<rect width="35" height="35" fill="white"/>
</clipPath>
</defs>
</svg>
