<svg width="35" height="35" viewBox="0 0 35 35" fill="none" xmlns="http://www.w3.org/2000/svg">
<path fill-rule="evenodd" clip-rule="evenodd" d="M21.2335 1.12742C20.5883 1.35606 20.0988 1.83824 19.8428 2.49723C19.7398 2.76265 19.7245 2.91309 19.7071 3.83713C19.6931 4.57957 19.6694 4.88849 19.6243 4.91448C19.4269 5.02857 19.3198 5.17199 18.888 5.90073C18.5367 6.49361 18.3832 6.70745 18.3006 6.71938C18.239 6.72824 17.9288 6.65322 17.6112 6.55263C17.2936 6.45203 16.8289 6.32998 16.5784 6.28138C16.3279 6.23272 16.0973 6.17307 16.0659 6.1488C16.03 6.12108 15.9976 5.74049 15.9788 5.12765C15.9472 4.09416 15.9138 3.92793 15.6899 3.68825C15.4089 3.38735 15.2288 3.34558 14.2069 3.34433C13.2191 3.34313 13.0285 3.37959 12.7716 3.61917C12.486 3.88563 12.4504 4.04452 12.4504 5.05441C12.4504 5.87067 12.4389 6.00121 12.3593 6.08967C12.2985 6.15713 12.0855 6.23032 11.7211 6.30888C11.4203 6.37379 10.9561 6.49637 10.6897 6.58133C10.4232 6.66635 10.1546 6.7285 10.0928 6.71954C10.0142 6.70813 9.90283 6.57044 9.72164 6.26043C9.08178 5.16573 9.02645 5.08525 8.80865 4.93204C8.61564 4.79623 8.54099 4.77576 8.23937 4.77576C7.89966 4.77576 7.87606 4.78503 7.13685 5.20881C6.19015 5.75163 5.93869 6.0195 5.93869 6.48543C5.93869 6.751 6.02335 6.94792 6.46875 7.71802C6.69275 8.10539 6.87612 8.4615 6.87623 8.50943C6.87638 8.59825 5.23757 10.2717 5.15041 10.2717C5.1241 10.2717 4.73522 10.0607 4.28633 9.80281C3.50315 9.35293 3.45731 9.33402 3.15459 9.3348C2.57198 9.33642 2.40184 9.50145 1.72071 10.7256C1.42622 11.2548 1.39606 11.3372 1.39924 11.6033C1.40179 11.8193 1.43774 11.9567 1.53505 12.1228C1.69008 12.3873 1.74457 12.4277 2.61172 12.9202C2.97378 13.1258 3.29988 13.3301 3.3364 13.3742C3.39136 13.4404 3.36948 13.5598 3.21002 14.0639C3.10401 14.3992 2.97279 14.8921 2.91845 15.1592C2.86412 15.4262 2.79186 15.6782 2.7579 15.7192C2.70877 15.7783 2.51347 15.7937 1.8039 15.7939C0.831939 15.7942 0.606945 15.8322 0.363979 16.0366C0.0352675 16.3132 0 16.4612 0 17.5648C0 18.6684 0.0352675 18.8164 0.363979 19.093C0.606945 19.2974 0.831939 19.3354 1.8039 19.3357C2.51347 19.3359 2.70877 19.3512 2.7579 19.4104C2.79186 19.4514 2.86412 19.7033 2.91845 19.9704C2.97279 20.2375 3.10453 20.7321 3.21127 21.0696C3.39146 21.6393 3.39923 21.6894 3.31957 21.769C3.27243 21.8162 2.89886 22.0462 2.48951 22.2801C1.85991 22.6398 1.71904 22.7437 1.57584 22.954C1.43013 23.168 1.40653 23.2474 1.40653 23.523C1.40653 23.8295 1.4257 23.8769 1.85105 24.6219C2.09553 25.0501 2.33578 25.445 2.38501 25.4994C2.55176 25.6838 2.84635 25.7956 3.16553 25.7956C3.45387 25.7956 3.51362 25.7706 4.28633 25.3268C4.73522 25.0689 5.12812 24.8579 5.15932 24.8579C5.19058 24.8579 5.49006 25.1407 5.82487 25.4862C6.21089 25.8847 6.47563 26.1174 6.54856 26.1223C6.6118 26.1265 6.65363 26.1399 6.64154 26.152C6.59315 26.2004 6.73292 26.3749 6.7996 26.3493C6.84846 26.3305 6.86086 26.3484 6.83882 26.4059C6.81882 26.458 6.82762 26.4769 6.86195 26.4557C7.00323 26.3684 6.8033 26.8351 6.40525 27.5218C5.94067 28.3233 5.86722 28.5729 5.98813 28.9393C6.09008 29.2481 6.34419 29.4651 7.13685 29.9202C7.87632 30.3447 7.89951 30.3538 8.23937 30.3538C8.78203 30.3538 8.9294 30.2235 9.50894 29.2318C9.86032 28.6305 10.0082 28.4222 10.0924 28.41C10.1544 28.4011 10.4232 28.4632 10.6897 28.5483C10.9561 28.6332 11.4203 28.7558 11.7211 28.8207C12.0855 28.8993 12.2985 28.9725 12.3593 29.0399C12.4389 29.1284 12.4504 29.2589 12.4504 30.0752C12.4504 31.0851 12.486 31.2439 12.7716 31.5104C13.0285 31.75 13.2191 31.7865 14.2069 31.7853C15.2288 31.784 15.4089 31.7422 15.6899 31.4413C15.9138 31.2016 15.9472 31.0354 15.9788 30.0019C15.9976 29.3891 16.03 29.0085 16.0659 28.9808C16.0973 28.9565 16.3279 28.8969 16.5784 28.8482C16.8289 28.7996 17.2936 28.6775 17.6112 28.577C17.9288 28.4764 18.239 28.4013 18.3006 28.4102C18.3832 28.4221 18.5367 28.636 18.888 29.2289C19.3237 29.9643 19.4264 30.101 19.6313 30.219C19.6857 30.2503 19.6999 30.4353 19.6944 31.0422C19.6838 32.225 19.805 32.7657 20.1961 33.2798C20.4199 33.5739 20.8902 33.8927 21.2878 34.0198L21.645 34.134L27.4795 34.1193L33.314 34.1046L33.7053 33.9177C34.2007 33.6811 34.5746 33.3174 34.8064 32.8466L34.981 32.4919L34.9944 17.6583C35.0074 3.2926 35.0047 2.81604 34.9105 2.55C34.8539 2.38991 34.7858 2.28156 34.7475 2.29042C34.7095 2.29917 34.6936 2.27453 34.7099 2.23207C34.7914 2.01963 34.2637 1.48531 33.7047 1.21437L33.314 1.025L27.4534 1.0125L21.5929 1L21.2335 1.12742ZM33.2523 1.8633C33.5577 1.96738 33.9754 2.33824 34.1173 2.63147C34.2179 2.83907 34.2256 2.94576 34.2256 4.11516V5.3752L27.3623 5.36202L20.4989 5.34879L20.4848 4.28644C20.4738 3.46044 20.4887 3.15397 20.5514 2.90887C20.6856 2.38512 21.0649 1.9816 21.5665 1.82902C21.6383 1.80719 24.2422 1.78729 27.353 1.78485C32.3968 1.78083 33.0352 1.78932 33.2523 1.8633ZM27.2094 2.35262C27.0479 2.4193 26.9693 2.59433 27.0081 2.80104C27.045 2.99764 27.1616 3.08271 27.3942 3.08271C27.5734 3.08271 27.766 2.8797 27.766 2.69076C27.766 2.43867 27.4565 2.25067 27.2094 2.35262ZM34.4199 2.43696C34.4026 2.45425 34.3576 2.45613 34.3201 2.44107C34.2785 2.42445 34.2909 2.41211 34.3515 2.40961C34.4065 2.40737 34.4372 2.41966 34.4199 2.43696ZM34.3646 3.01327C34.3455 3.03234 34.3298 3.01671 34.3298 2.97852C34.3298 2.94034 34.3455 2.92471 34.3646 2.94378C34.3836 2.96289 34.3836 2.99415 34.3646 3.01327ZM25.3214 3.63673C25.1781 3.8188 25.185 3.99675 25.3413 4.15298L25.4691 4.28087H27.3753H29.2815L29.4093 4.15298C29.4796 4.08265 29.5372 3.9644 29.5372 3.89016C29.5372 3.81593 29.4796 3.69768 29.4093 3.62735L29.2815 3.49946H27.3554H25.4293L25.3214 3.63673ZM15.0842 4.1984C15.177 4.26618 15.1865 4.35083 15.199 5.22726C15.2065 5.75252 15.2244 6.23459 15.2388 6.29857C15.2729 6.45005 15.5523 6.76642 15.7358 6.86134C15.8152 6.90233 16.1457 6.99292 16.4704 7.06257C16.7951 7.13222 17.2797 7.26157 17.5473 7.34998C18.27 7.58872 18.6476 7.55507 18.9768 7.22266C19.0566 7.14217 19.2498 6.85175 19.4061 6.57722L19.6905 6.0781L19.691 8.32897L19.6915 10.5798L19.1941 10.2426C18.2236 9.58459 17.1043 9.10663 15.9668 8.86434C15.298 8.72197 13.8072 8.66633 13.1123 8.75786C10.6573 9.08116 8.55235 10.307 7.092 12.2639C4.4534 15.7997 4.80336 20.7099 7.9155 23.8183C8.44982 24.3519 8.62663 24.4971 9.2727 24.9327C10.4354 25.7165 11.6805 26.1832 13.1123 26.3717C13.8072 26.4632 15.298 26.4076 15.9668 26.2652C17.1043 26.023 18.2236 25.545 19.1941 24.887L19.6915 24.5497V26.7987V29.0476L19.4151 28.5648C19.2631 28.2992 19.0704 28.0097 18.9869 27.9211C18.66 27.5748 18.2804 27.5375 17.5473 27.7796C17.2797 27.868 16.7951 27.9974 16.4704 28.067C16.1457 28.1367 15.8152 28.2272 15.7358 28.2682C15.5518 28.3634 15.2726 28.68 15.2395 28.831C15.2255 28.895 15.2076 29.377 15.1997 29.9022C15.1865 30.7781 15.177 30.8633 15.0842 30.9311C14.9613 31.0209 13.4944 31.0377 13.3326 30.9511C13.2392 30.9011 13.2317 30.8332 13.2306 30.0264C13.2292 29.0674 13.1962 28.8455 13.0162 28.5827C12.8413 28.3275 12.6003 28.2135 11.9267 28.0673C11.5987 27.9962 11.1115 27.8661 10.8438 27.7784C10.1198 27.541 9.77837 27.5683 9.44461 27.8903C9.35292 27.9787 9.08391 28.3884 8.84683 28.8006C8.53969 29.3347 8.38252 29.5586 8.30016 29.5793C8.13138 29.6216 6.78095 28.844 6.74 28.6809C6.71802 28.5932 6.83049 28.3537 7.16826 27.7688C7.56819 27.0764 7.62914 26.9381 7.64774 26.6805C7.66295 26.4706 7.64352 26.3359 7.58064 26.2142C7.53193 26.1201 7.07679 25.6262 6.56919 25.1166C5.30935 23.852 5.29669 23.8493 4.03112 24.5758C3.57937 24.8352 3.20877 25.0142 3.12375 25.0142C2.99435 25.0142 2.94054 24.9463 2.58396 24.3327C2.36615 23.9578 2.18794 23.5981 2.18794 23.5333C2.18794 23.3771 2.25707 23.323 3.02144 22.8814C3.76123 22.454 4.02315 22.2281 4.10822 21.9441C4.19397 21.6579 4.18261 21.5095 4.04284 21.0903C3.88026 20.6028 3.77081 20.197 3.64969 19.6322C3.5305 19.0763 3.39032 18.8546 3.0503 18.6839C2.80489 18.5607 2.74857 18.5546 1.86887 18.5546C1.09855 18.5546 0.931542 18.541 0.863247 18.4727C0.742233 18.3517 0.742233 16.7779 0.863247 16.6568C0.931542 16.5886 1.09855 16.575 1.86887 16.575C2.74857 16.575 2.80489 16.5689 3.0503 16.4457C3.39032 16.2749 3.5305 16.0532 3.64969 15.4974C3.77081 14.9326 3.88026 14.5267 4.04284 14.0393C4.18261 13.6201 4.19397 13.4717 4.10822 13.1855C4.02315 12.9015 3.76123 12.6756 3.02144 12.2482C2.26009 11.8083 2.18794 11.7522 2.18794 11.6C2.18794 11.5373 2.36605 11.1775 2.5838 10.8006C2.9408 10.1826 2.99373 10.1154 3.12355 10.1154C3.20882 10.1154 3.57869 10.294 4.03112 10.5538C5.25205 11.2547 5.35785 11.2419 6.30335 10.2787C6.6615 9.91393 7.0671 9.51536 7.20468 9.39304C7.5598 9.0772 7.6755 8.83272 7.64826 8.45577C7.62898 8.18988 7.57194 8.05965 7.16826 7.36076C6.83049 6.77585 6.71802 6.53638 6.74 6.4487C6.78074 6.28648 8.13138 5.50789 8.29886 5.55008C8.37913 5.57029 8.52953 5.78299 8.80385 6.26429C9.01874 6.64129 9.27661 7.04439 9.37689 7.16004C9.71722 7.55252 10.0771 7.60227 10.8203 7.35935C11.0749 7.27616 11.5635 7.1453 11.9059 7.06862C12.6087 6.91124 12.8415 6.80184 13.0162 6.54684C13.196 6.28445 13.2292 6.06222 13.2306 5.11177C13.2315 4.51217 13.2508 4.2306 13.2943 4.1871C13.3905 4.09093 14.9506 4.10083 15.0842 4.1984ZM30.4749 5.44991C30.4749 5.46256 30.4478 5.4896 30.4147 5.51002C30.3775 5.5331 30.3687 5.52435 30.3918 5.4871C30.4289 5.42704 30.4749 5.40646 30.4749 5.44991ZM31.1345 5.59624C31.1201 5.63208 31.1082 5.60275 31.1082 5.53112C31.1082 5.45949 31.1201 5.43021 31.1345 5.466C31.149 5.50184 31.149 5.56045 31.1345 5.59624ZM30.8222 5.61796C30.8031 5.63703 30.7874 5.6214 30.7874 5.58321C30.7874 5.54503 30.8031 5.5294 30.8222 5.54847C30.8413 5.56759 30.8413 5.59884 30.8222 5.61796ZM34.2251 6.18229C34.2249 6.21094 34.2255 10.536 34.2266 15.7936C34.2277 21.0512 34.2279 26.1675 34.2271 27.1633L34.2256 28.9737L27.3623 28.9605L20.4989 28.9473L20.4858 17.552L20.4727 6.15677L25.2784 6.14348C33.2355 6.1215 34.2256 6.12577 34.2251 6.18229ZM21.8273 9.33397V10.8968H23.3901H24.9529V9.33397V7.77115H23.3901H21.8273V9.33397ZM25.8385 9.33319V10.8968H27.4021H28.9657L28.9519 9.34699L28.9381 7.7972L27.3883 7.7834L25.8385 7.76959V9.33319ZM29.8324 7.8059C29.8133 7.82497 29.7977 8.52823 29.7977 9.36871V10.8968H31.3605H32.9233V9.33397V7.77115H31.3952C30.5547 7.77115 29.8515 7.78678 29.8324 7.8059ZM24.1715 9.33397V10.1154H23.3901H22.6087V9.33397V8.55256H23.3901H24.1715V9.33397ZM28.1711 9.34699L28.1855 10.1154H27.4028H26.6199V9.33256V8.5498L27.3883 8.56418L28.1567 8.57861L28.1711 9.34699ZM32.1419 9.33397V10.1154H31.3605H30.5791V9.36871C30.5791 8.95801 30.5947 8.60637 30.6138 8.58731C30.6329 8.56819 30.9845 8.55256 31.3952 8.55256H32.1419V9.33397ZM15.8426 9.6419C17.1647 9.92721 18.5451 10.6054 19.4221 11.4005L19.6997 11.6521L19.6972 17.5648L19.6948 23.4774L19.4196 23.7296C18.8131 24.2855 17.6588 24.9406 16.7536 25.2427C15.8552 25.5425 15.3847 25.6094 14.1695 25.61C13.1419 25.6105 13.0023 25.5993 12.4765 25.4744C10.5271 25.0114 9.01843 24.0498 7.79016 22.4877C5.6677 19.7882 5.55049 15.8781 7.50661 13.0326C8.80625 11.1421 10.7901 9.89241 13.0415 9.54594C13.5954 9.46071 15.2684 9.51802 15.8426 9.6419ZM21.8304 14.2829L21.8256 15.8457H23.3893H24.9529V14.2829V12.7201H23.394H21.8351L21.8304 14.2829ZM25.8385 14.2829V15.8457H27.4013H28.9642V14.2829V12.7201H27.4013H25.8385V14.2829ZM29.7977 14.2829V15.8457H31.3605H32.9233V14.2829V12.7201H31.3605H29.7977V14.2829ZM22.6435 12.8069C22.6243 12.826 22.5931 12.826 22.574 12.8069C22.5549 12.7878 22.5705 12.7722 22.6087 12.7722C22.6469 12.7722 22.6625 12.7878 22.6435 12.8069ZM22.7477 12.9111C22.7285 12.9302 22.6973 12.9302 22.6782 12.9111C22.6591 12.892 22.6747 12.8763 22.7129 12.8763C22.7511 12.8763 22.7667 12.892 22.7477 12.9111ZM22.3222 12.9805C22.3399 13.0092 22.3427 13.0326 22.3283 13.0326C22.314 13.0326 22.2878 13.0092 22.2701 12.9805C22.2524 12.9519 22.2496 12.9284 22.264 12.9284C22.2783 12.9284 22.3045 12.9519 22.3222 12.9805ZM22.5393 13.2237C22.5202 13.2427 22.4889 13.2427 22.4698 13.2237C22.4507 13.2045 22.4663 13.1889 22.5045 13.1889C22.5427 13.1889 22.5583 13.2045 22.5393 13.2237ZM22.2264 13.4624C22.212 13.4982 22.2002 13.4689 22.2002 13.3973C22.2002 13.3257 22.212 13.2964 22.2264 13.3322C22.2409 13.368 22.2409 13.4266 22.2264 13.4624ZM24.1715 14.2829V15.0643H23.3901H22.6087V14.2829V13.5015H23.3901H24.1715V14.2829ZM28.1828 14.2829V15.0643H27.4013H26.6199V14.2829V13.5015H27.4013H28.1828V14.2829ZM32.1419 14.2843V15.067L31.3735 15.0527L30.6051 15.0382L30.5907 14.2699L30.5763 13.5015H31.3591H32.1419V14.2843ZM22.1399 13.6286C22.1399 13.6413 22.1128 13.6683 22.0797 13.6888C22.0425 13.7118 22.0337 13.7031 22.0568 13.6658C22.0939 13.6058 22.1399 13.5852 22.1399 13.6286ZM20.1951 14.9428C20.1759 14.9618 20.1603 14.9462 20.1603 14.908C20.1603 14.8698 20.1759 14.8542 20.1951 14.8733C20.2141 14.8924 20.2141 14.9236 20.1951 14.9428ZM21.8396 19.2188L21.8534 20.7686L23.4031 20.7824L24.9529 20.7962V19.2326V17.669H23.3893H21.8257L21.8396 19.2188ZM25.8385 19.2326V20.7962L27.3883 20.7824L28.9381 20.7686L28.9519 19.2188L28.9657 17.669H27.4021H25.8385V19.2326ZM24.1599 19.2188L24.1455 19.9872H23.3901H22.6348L22.6203 19.2188L22.606 18.4504H23.3901H24.1743L24.1599 19.2188ZM28.1711 19.2188L28.1567 19.9872L27.3883 20.0016L26.6199 20.016V19.2332V18.4504H27.4028H28.1855L28.1711 19.2188ZM22.2441 23.0083V23.3993H27.4036H32.5632L32.5479 23.0216L32.5326 22.6439L27.3883 22.6307L22.2441 22.6174V23.0083ZM8.67326 24.3364C8.69149 24.3659 8.6706 24.3747 8.62424 24.3569C8.53401 24.3222 8.5175 24.2849 8.59241 24.2849C8.61939 24.2849 8.65575 24.3081 8.67326 24.3364ZM9.29875 24.337C9.31646 24.3656 9.31922 24.3891 9.30489 24.3891C9.29057 24.3891 9.26436 24.3656 9.24665 24.337C9.22894 24.3083 9.22618 24.2849 9.2405 24.2849C9.25483 24.2849 9.28103 24.3083 9.29875 24.337ZM21.8273 26.004V27.5668H23.3901H24.9529V26.004V24.4412H23.3901H21.8273V26.004ZM25.8385 26.004V27.5668H27.4013H28.9642V26.004V24.4412H27.4013H25.8385V26.004ZM29.8324 24.4759C29.8133 24.495 29.7977 25.1983 29.7977 26.0387V27.5668H31.3605H32.9233V26.004V24.4412H31.3952C30.5547 24.4412 29.8515 24.4568 29.8324 24.4759ZM34.7813 24.528C34.7622 24.5471 34.7466 24.5315 34.7466 24.4933C34.7466 24.4551 34.7622 24.4395 34.7813 24.4585C34.8004 24.4776 34.8004 24.5089 34.7813 24.528ZM34.8768 24.8058C34.8945 24.8345 34.8973 24.8579 34.883 24.8579C34.8686 24.8579 34.8424 24.8345 34.8247 24.8058C34.807 24.7772 34.8042 24.7537 34.8186 24.7537C34.8329 24.7537 34.8591 24.7772 34.8768 24.8058ZM24.1715 26.004V26.7854H23.3901H22.6087V26.004V25.2226H23.3901H24.1715V26.004ZM28.1711 26.017L28.1855 26.7854H27.4028H26.6199V26.0026V25.2198L27.3883 25.2342L28.1567 25.2486L28.1711 26.017ZM32.1426 25.8868C32.143 26.2521 32.1575 26.6037 32.1747 26.6682L32.2061 26.7854H31.3926H30.5791V26.0387C30.5791 25.628 30.5947 25.2764 30.6138 25.2573C30.6329 25.2382 30.9845 25.2226 31.3952 25.2226H32.1419L32.1426 25.8868ZM34.3646 25.4136C34.3455 25.4327 34.3298 25.417 34.3298 25.3789C34.3298 25.3407 34.3455 25.3251 34.3646 25.3441C34.3836 25.3632 34.3836 25.3945 34.3646 25.4136ZM6.79824 25.8477C6.81595 25.8764 6.81872 25.8998 6.80439 25.8998C6.79006 25.8998 6.76386 25.8764 6.74615 25.8477C6.72844 25.8191 6.72568 25.7956 6.74 25.7956C6.75433 25.7956 6.78053 25.8191 6.79824 25.8477ZM7.01532 26.0908C6.9962 26.1099 6.98057 26.0943 6.98057 26.0561C6.98057 26.0179 6.9962 26.0023 7.01532 26.0213C7.03438 26.0405 7.03438 26.0717 7.01532 26.0908ZM32.5934 26.3513C32.5743 26.3704 32.5586 26.3547 32.5586 26.3166C32.5586 26.2784 32.5743 26.2627 32.5934 26.2818C32.6124 26.3009 32.6124 26.3322 32.5934 26.3513ZM32.7149 26.5565C32.7149 26.5678 32.6798 26.577 32.6368 26.577C32.5938 26.577 32.5586 26.5543 32.5586 26.5265C32.5586 26.4988 32.5938 26.4896 32.6368 26.5061C32.6798 26.5226 32.7149 26.5453 32.7149 26.5565ZM34.2251 30.9789C34.2246 32.1808 34.2199 32.2394 34.1024 32.4916C34.034 32.6384 33.8723 32.8491 33.7354 32.9696C33.2766 33.3734 33.6824 33.3492 27.368 33.3492C21.8576 33.3492 21.7206 33.3468 21.449 33.2452C21.1425 33.1305 20.7885 32.8154 20.6585 32.5414C20.6131 32.4455 20.5527 32.245 20.5243 32.0957C20.4752 31.8366 20.4493 29.7957 20.4946 29.7504C20.5065 29.7385 23.6009 29.7287 27.371 29.7287H34.2256L34.2251 30.9789ZM26.5864 30.4836C26.3414 30.5825 26.3074 30.7134 26.3074 31.5566C26.3074 32.2757 26.3169 32.3575 26.4154 32.4826L26.5233 32.6199H27.3753C28.4789 32.6199 28.4314 32.6647 28.4401 31.6152C28.4473 30.755 28.4029 30.5686 28.1712 30.4879C27.9819 30.4219 26.7477 30.4185 26.5864 30.4836ZM27.6358 31.539C27.6358 31.7037 27.6182 31.8385 27.5967 31.8385C27.5752 31.8385 27.4521 31.8385 27.3232 31.8385H27.0888V31.5607C27.0888 31.4078 27.1055 31.2661 27.1259 31.2457C27.1463 31.2253 27.2694 31.2155 27.3994 31.224L27.6358 31.2394V31.539Z" fill="#3E3465"/>
</svg>
