<svg width="34" height="34" viewBox="0 0 34 34" fill="none" xmlns="http://www.w3.org/2000/svg">
<g clip-path="url(#clip0)">
<path d="M34.1531 10.3537L22.7312 4.08191C22.5322 3.9727 22.291 3.9727 22.092 4.08191L17.7969 6.44036C17.6999 6.46734 17.6094 6.51689 17.5326 6.58537L10.6702 10.3537C10.4577 10.4704 10.3257 10.6935 10.3257 10.9358V12.2935H2.66406C2.29727 12.2935 2 12.591 2 12.9575C2 13.3243 2.29727 13.6216 2.66406 13.6216H10.3257V16.0122H6.51848C6.15169 16.0122 5.85442 16.3097 5.85442 16.6763C5.85442 17.0431 6.15169 17.3403 6.51848 17.3403H10.3257V20.7935H4.74756C4.38077 20.7935 4.0835 21.091 4.0835 21.4575C4.0835 21.8243 4.38077 22.1216 4.74756 22.1216H10.3257V23.4795C10.3257 23.7218 10.4577 23.9449 10.6702 24.0616L22.092 30.3334C22.1917 30.3881 22.3016 30.4154 22.4116 30.4154C22.5216 30.4154 22.6316 30.3881 22.7312 30.3334L34.1531 24.0616C34.3655 23.9449 34.4976 23.7218 34.4976 23.4795V20.5058C34.4976 20.1392 34.2003 19.8417 33.8335 19.8417C33.4667 19.8417 33.1694 20.1392 33.1694 20.5058V23.0865L23.0757 28.6291V17.6005L26.2858 15.8379V18.6353C26.2858 18.8703 26.4097 19.0876 26.6118 19.207C26.7158 19.2684 26.8328 19.2993 26.9498 19.2993C27.0598 19.2993 27.17 19.2721 27.2699 19.2171L29.7176 17.87C29.9295 17.7533 30.0613 17.5305 30.0613 17.2882V13.7648L33.1694 12.0582V15.1933C33.1694 15.5601 33.4667 15.8573 33.8335 15.8573C34.2003 15.8573 34.4976 15.5601 34.4976 15.1933V10.9358C34.4976 10.6935 34.3655 10.4704 34.1531 10.3537ZM21.7476 28.6291L11.6538 23.0865V12.0582L21.7476 17.6005V28.6291ZM22.4116 16.4501L12.3695 10.9358L15.5256 9.20271L25.568 14.717L22.4116 16.4501ZM26.9477 13.9593L16.9053 8.445L17.994 7.84735L28.0362 13.3617L26.9477 13.9593ZM28.7332 16.8957L27.6139 17.5118V15.1087L28.7332 14.4939V16.8957ZM29.4159 12.604L19.3738 7.08964L22.4116 5.4217L32.4538 10.9358L29.4159 12.604Z" fill="#3E3465"/>
<path d="M33.3359 17.1858C33.1614 17.1858 32.9899 17.2561 32.8664 17.3803C32.743 17.5038 32.6719 17.6745 32.6719 17.8499C32.6719 18.0244 32.743 18.1959 32.8664 18.3194C32.9899 18.4428 33.1614 18.5139 33.3359 18.5139C33.5105 18.5139 33.682 18.4428 33.8055 18.3194C33.9289 18.1959 34 18.0244 34 17.8499C34 17.6745 33.9289 17.5038 33.8055 17.3803C33.682 17.2561 33.5105 17.1858 33.3359 17.1858Z" fill="#3E3465"/>
<path d="M1.6158 20.7935H0.664062C0.297272 20.7935 0 21.091 0 21.4575C0 21.8243 0.297272 22.1216 0.664062 22.1216H1.6158C1.98259 22.1216 2.27986 21.8243 2.27986 21.4575C2.27986 21.091 1.98259 20.7935 1.6158 20.7935Z" fill="#3E3465"/>
<path d="M4.02899 16.6763C4.02899 16.5017 3.95792 16.3305 3.83418 16.207C3.71071 16.0833 3.53951 16.0122 3.36493 16.0122C3.19009 16.0122 3.01889 16.0833 2.89542 16.207C2.77116 16.3305 2.70087 16.5017 2.70087 16.6763C2.70087 16.8511 2.77116 17.0223 2.89542 17.1458C3.01889 17.2693 3.19009 17.3403 3.36493 17.3403C3.53951 17.3403 3.71071 17.2695 3.83418 17.1458C3.95792 17.0223 4.02899 16.8511 4.02899 16.6763Z" fill="#3E3465"/>
</g>
<defs>
<clipPath id="clip0">
<rect width="34" height="34" fill="white"/>
</clipPath>
</defs>
</svg>
