<svg width="34" height="34" viewBox="0 0 34 34" fill="none" xmlns="http://www.w3.org/2000/svg">
<g clip-path="url(#clip0)">
<path d="M7.8211 11.5775C7.56211 11.3186 7.14109 11.3186 6.88218 11.5775C6.62253 11.8372 6.62253 12.2575 6.88218 12.5165C7.14116 12.7762 7.56218 12.7762 7.8211 12.5165C8.08068 12.2575 8.08068 11.8372 7.8211 11.5775Z" fill="#3E3465"/>
<path d="M16.814 29.7312C17.1068 29.3346 17.2651 28.8568 17.2651 28.3544C17.2651 27.0729 16.2225 26.0303 14.9409 26.0303H3.65222C3.03112 26.0303 2.44747 26.272 2.00873 26.7109C1.56978 27.1497 1.32806 27.7333 1.32806 28.3544C1.32806 28.869 1.49647 29.3449 1.78062 29.7304C0.723232 30.2863 0 31.3953 0 32.6706V33.3347C0 33.7015 0.297368 33.9988 0.664064 33.9988H17.9291C18.2958 33.9988 18.5931 33.7015 18.5931 33.3347V32.6706C18.5931 31.3959 17.8706 30.2874 16.814 29.7312ZM2.94778 27.6499C3.13578 27.4618 3.386 27.3583 3.65222 27.3583H14.9409C15.4902 27.3583 15.9369 27.8051 15.9369 28.3543C15.9369 28.6206 15.8333 28.8707 15.6453 29.0588C15.4573 29.2469 15.2071 29.3504 14.9408 29.3504H3.65222C3.10297 29.3504 2.65619 28.9035 2.65619 28.3544C2.65619 28.0881 2.75972 27.8379 2.94778 27.6499ZM1.32806 32.6706C1.32806 31.5722 2.22176 30.6785 3.32019 30.6785H3.65222H14.9409H15.2729C16.3714 30.6785 17.2651 31.5722 17.2651 32.6706H1.32806Z" fill="#3E3465"/>
<path d="M33.382 27.8988C33.1565 27.5494 32.8874 27.2403 32.5821 26.9802L29.4793 24.274C29.4551 24.2376 29.4271 24.2031 29.395 24.171C29.3411 24.1171 29.28 24.0751 29.2151 24.0436L27.3386 22.407L18.6533 14.8307C19.0089 14.459 19.2047 13.973 19.2047 13.4561C19.2047 12.9237 18.9974 12.4233 18.6207 12.0466C18.4564 11.8826 18.2696 11.7535 18.0701 11.659L18.8736 10.8555C19.0982 10.9152 19.329 10.9458 19.5599 10.9458C20.24 10.9457 20.9201 10.6868 21.4378 10.1691C21.9397 9.66731 22.2161 9.00026 22.2161 8.29084C22.2161 7.58142 21.9397 6.91437 21.4379 6.41253L15.8035 0.778216C15.3016 0.276383 14.6345 0 13.9249 0C13.2156 0 12.5487 0.276383 12.0469 0.778216C11.3534 1.47176 11.1251 2.4565 11.3605 3.3425L3.34363 11.3593C3.1221 11.3004 2.89161 11.2694 2.65613 11.2694C1.94638 11.2694 1.27959 11.5455 0.778158 12.0469C-0.257514 13.0826 -0.257514 14.7678 0.778158 15.8035L6.41254 21.438C6.93044 21.9558 7.61064 22.2147 8.29084 22.2147C8.9711 22.2147 9.6513 21.9558 10.1692 21.438C10.8628 20.7444 11.0911 19.7597 10.8556 18.8737L11.6574 18.0718C11.7538 18.273 11.8845 18.4587 12.047 18.621C12.4232 18.9973 12.9235 19.2045 13.4558 19.2045C13.9721 19.2045 14.4579 19.0091 14.8301 18.654L24.0809 29.2826C24.1064 29.3224 24.1362 29.3603 24.171 29.3951C24.1829 29.407 24.1955 29.4178 24.208 29.4286L26.9646 32.5958C27.0332 32.6767 27.1064 32.7562 27.1824 32.8322C27.9395 33.5891 28.9396 33.9998 29.9894 33.9998C30.1745 33.9998 30.3613 33.9871 30.5484 33.9612C31.7987 33.7881 32.8794 33.0401 33.513 31.9087C34.2072 30.6687 34.1555 29.0944 33.382 27.8988ZM12.9861 1.71734C13.237 1.46639 13.5705 1.32813 13.9249 1.32813C14.2798 1.32813 14.6135 1.46639 14.8644 1.71734L20.4988 7.35172C20.7498 7.60267 20.888 7.93623 20.888 8.2909C20.888 8.64558 20.7498 8.97914 20.4988 9.23009C19.9811 9.74786 19.1387 9.74786 18.6211 9.23009L12.9864 3.59544C12.9863 3.59531 12.9862 3.59524 12.9861 3.59511C12.4683 3.0774 12.4683 2.23504 12.9861 1.71734ZM9.23009 20.4989C8.71225 21.0167 7.86949 21.0168 7.35165 20.4989L1.71728 14.8645C1.19937 14.3466 1.19937 13.504 1.71728 12.986C1.96776 12.7355 2.30125 12.5975 2.65613 12.5975C3.01094 12.5975 3.34423 12.7354 3.59465 12.9858L9.23002 18.6211C9.74786 19.1388 9.74786 19.9812 9.23009 20.4989ZM12.0259 15.8252L10.1691 17.682L4.53417 12.047L12.0469 4.53416L17.6818 10.1691L15.8216 12.0294C15.8156 12.0351 15.8097 12.0407 15.8033 12.047L12.0488 15.8015C12.0411 15.8092 12.0336 15.8171 12.0259 15.8252ZM14.397 17.2105C14.3957 17.2118 14.3944 17.2131 14.3931 17.2144L13.9255 17.682C13.8 17.8074 13.6333 17.8765 13.4557 17.8765C13.2782 17.8765 13.1114 17.8074 12.986 17.682C12.8605 17.5565 12.7913 17.3895 12.7913 17.2119C12.7913 17.038 12.8577 16.8745 12.9781 16.7511L16.75 12.9791C17.0085 12.7277 17.4265 12.7308 17.682 12.986C17.8075 13.1115 17.8766 13.2785 17.8766 13.4561C17.8766 13.6336 17.8077 13.8001 17.6819 13.9256L17.217 14.3905C17.2138 14.3936 17.2106 14.3968 17.2075 14.4L14.397 17.2105ZM15.7722 17.7135L17.713 15.7727L25.9302 22.9403L22.9317 25.9389L15.7722 17.7135ZM23.8057 26.9431L26.9333 23.8153L27.9366 24.6904L24.6797 27.9473L23.8057 26.9431ZM32.3543 31.2599C31.9257 32.0251 31.2012 32.5301 30.3664 32.6456C29.5335 32.7609 28.7152 32.4866 28.1214 31.8931C28.0703 31.8421 28.0214 31.7889 27.9759 31.7349C27.9737 31.7324 27.9716 31.7299 27.9694 31.7274L25.5536 28.9515L28.9397 25.5653L31.7121 27.9837C31.7142 27.9855 31.7163 27.9873 31.7185 27.9892C31.926 28.1656 32.1102 28.3775 32.2664 28.6196C32.7686 29.3956 32.8038 30.4568 32.3543 31.2599Z" fill="#3E3465"/>
<path d="M12.5165 6.88199C12.2571 6.62267 11.8368 6.62267 11.5774 6.88199L8.75992 9.69947C8.5006 9.95879 8.5006 10.3793 8.75992 10.6385C8.88961 10.7682 9.05954 10.833 9.22948 10.833C9.39941 10.833 9.56934 10.7681 9.69904 10.6385L12.5165 7.82104C12.7758 7.56179 12.7758 7.14137 12.5165 6.88199Z" fill="#3E3465"/>
</g>
<defs>
<clipPath id="clip0">
<rect width="34" height="34" fill="white"/>
</clipPath>
</defs>
</svg>
