<svg width="34" height="34" viewBox="0 0 34 34" fill="none" xmlns="http://www.w3.org/2000/svg">
<g clip-path="url(#clip0)">
<path fill-rule="evenodd" clip-rule="evenodd" d="M2.18535 2.04103C1.62863 2.21255 1.06878 2.69095 0.780749 3.2415L0.624314 3.54042L0.60691 14.129L0.589506 24.7176L0.328713 25.0005C0.18171 25.1599 0.0495862 25.3813 0.0258053 25.5078C0.00268865 25.6313 -0.00667757 26.2118 0.00508003 26.798C0.0261374 27.8481 0.0291931 27.8671 0.212598 28.1074C0.53012 28.5233 0.699841 28.5761 1.84431 28.6151L2.8651 28.6499L2.98474 29.1149C3.19245 29.9221 3.51622 30.526 4.05414 31.1096L4.32796 31.4066H3.79315C3.31474 31.4066 3.23683 31.4247 3.05402 31.5786C2.80638 31.7869 2.77994 32.0972 2.98733 32.3608L3.12496 32.5359H18.4014H33.6778L33.8409 32.3728C34.052 32.1617 34.0531 31.8698 33.8437 31.6262L33.6835 31.4398L31.679 31.4204L29.6745 31.401L29.9456 31.1068C30.4809 30.526 30.8051 29.9208 31.0125 29.1149L31.1321 28.6499L32.1529 28.6151C33.2974 28.5761 33.4671 28.5233 33.7846 28.1074C33.968 27.8671 33.9711 27.8481 33.9921 26.798C34.0039 26.2118 33.9945 25.6313 33.9714 25.5078C33.9476 25.3811 33.8153 25.1598 33.6677 24.9996L33.4061 24.7158V20.0392V15.3626L31.9398 11.9425C31.1334 10.0615 30.3954 8.37884 30.2998 8.20334C29.9805 7.61659 29.4293 7.23045 28.7253 7.10032C28.4859 7.05608 27.344 7.02785 25.793 7.02785H23.2528L23.2312 5.35056C23.2098 3.69307 23.2075 3.66883 23.0322 3.29491C22.8162 2.83404 22.3925 2.39755 21.9474 2.17707L21.6153 2.0126L11.9834 2.00124C6.68579 1.995 2.27669 2.01293 2.18535 2.04103ZM21.5265 3.25558C21.6703 3.33636 21.8537 3.50827 21.9341 3.63754L22.0803 3.87256L22.0977 14.2518L22.1151 24.631H16.2361H10.357L10.041 24.3884C9.31829 23.8338 8.32129 23.5041 7.36667 23.5041C6.41629 23.5041 5.53899 23.7889 4.72008 24.3633L4.33845 24.631H3.02944H1.72036V14.245V3.85901L1.87142 3.63488C1.95445 3.51159 2.12331 3.34274 2.2466 3.2597L2.47072 3.10865H11.8679H21.2651L21.5265 3.25558ZM3.0127 4.40099C2.85321 4.56041 2.84962 4.58732 2.84962 5.62092C2.84962 6.58956 2.86111 6.69239 2.98733 6.85281C3.08703 6.97962 3.18627 7.02785 3.34723 7.02785C3.85486 7.02785 3.97888 6.8198 3.97888 5.96833V5.36717H4.58005C5.20493 5.36717 5.51807 5.2743 5.59831 5.06526C5.68699 4.83416 5.63697 4.56141 5.47648 4.40099C5.31692 4.24136 5.29089 4.23791 4.24459 4.23791C3.1983 4.23791 3.17226 4.24136 3.0127 4.40099ZM11.5114 4.35562C11.3288 4.50554 11.0231 4.96548 10.7636 5.48089C10.038 6.9217 9.71865 8.29946 9.58453 10.5664L9.54614 11.2154L9.13728 10.8361C8.02801 9.80709 6.23189 8.97848 4.69709 8.78763C4.34868 8.74432 4.30604 8.75389 4.14907 8.91086C3.92793 9.13199 3.92667 9.43537 4.14302 10.3286C4.53122 11.9308 5.21855 13.1635 6.41782 14.4083L6.96864 14.98L6.35392 15.026C5.19749 15.1126 4.05062 15.4254 3.05561 15.9257C2.42907 16.2408 2.25178 16.4099 2.25178 16.693C2.25178 16.9601 2.42628 17.1432 2.91678 17.3908C4.21709 18.0472 5.29474 18.3147 6.85186 18.3675C7.46385 18.3883 7.96451 18.417 7.96451 18.4315C7.96451 18.4459 7.88785 18.6091 7.79412 18.794C7.57153 19.2332 7.36667 20.0444 7.36667 20.4862C7.36667 20.7619 7.40121 20.8773 7.52729 21.0236C7.67522 21.1953 7.72378 21.2096 8.14174 21.2047C8.70026 21.1982 9.19587 21.0848 9.74781 20.8371C10.2445 20.6143 10.9333 20.1368 11.1785 19.8454L11.3523 19.6388V21.3761V23.1134L11.5465 23.3076C11.7984 23.5596 12.0354 23.5596 12.2874 23.3076L12.4816 23.1134V21.3784V19.6434L12.8449 19.9981C13.5177 20.655 14.497 21.1058 15.4777 21.21C15.8163 21.246 15.9623 21.233 16.1173 21.1528C16.3673 21.0235 16.4008 20.9372 16.4008 20.4214C16.4008 19.925 16.2627 19.3598 16.0075 18.8115L15.8187 18.4057L16.7242 18.4026C18.1578 18.3978 19.2988 18.146 20.5662 17.5547C21.2725 17.2251 21.5156 17.0161 21.5156 16.7382C21.5156 16.4422 21.3073 16.2391 20.7046 15.9473C19.6688 15.4458 18.269 15.0668 17.4447 15.0646C16.7538 15.0628 16.752 15.0503 17.3547 14.4398C18.6071 13.1714 19.4574 11.5486 19.7506 9.86754C19.8649 9.21237 19.8285 9.02704 19.5501 8.84463C19.3821 8.73449 19.3371 8.73409 18.7335 8.83759C17.2088 9.09891 15.6636 9.84243 14.5574 10.8469L14.1422 11.2239L14.1416 10.8364C14.14 9.6745 13.885 7.95417 13.5723 6.99463C13.2223 5.92084 12.7029 4.88743 12.292 4.44755C12.0656 4.20523 11.7412 4.16703 11.5114 4.35562ZM12.1437 6.37128C12.4281 7.00726 12.6534 7.71251 12.8295 8.51814C12.957 9.1013 12.9757 9.38614 12.9757 10.7478C12.9757 12.1128 12.9572 12.3934 12.8284 12.9829C12.6672 13.7208 12.2911 14.8559 12.0522 15.3261L11.9002 15.6251L11.7341 15.2955C10.6703 13.1842 10.4635 10.0116 11.2277 7.52605C11.448 6.80963 11.8181 5.89859 11.8888 5.89859C11.9127 5.89859 12.0275 6.11129 12.1437 6.37128ZM28.8558 8.32922C29.1135 8.46387 29.4223 8.87093 29.5188 9.20334L29.5623 9.3528H27.1302H24.6981L24.5351 9.51587L24.372 9.67889V12.7094V15.74L24.5662 15.9342L24.7603 16.1284H28.5186H32.2768V17.2576V18.3869L30.7656 18.3883C29.0657 18.39 28.8539 18.4352 28.5503 18.8607C28.3982 19.0741 28.3899 19.14 28.3701 20.2969C28.3503 21.4551 28.3562 21.5215 28.5005 21.7782C28.5836 21.926 28.7573 22.1127 28.8865 22.1931C29.1086 22.3313 29.2085 22.3404 30.6992 22.3602L32.2768 22.3812V23.5061V24.631H30.9678H29.6587L29.2771 24.3633C28.1901 23.6009 26.9547 23.3391 25.6883 23.6031C25.1181 23.7218 24.4011 24.0469 23.9562 24.3884C23.7547 24.5431 23.5682 24.631 23.4414 24.631H23.2427V16.3906V8.15013L25.9164 8.17026C28.4789 8.18946 28.6012 8.1961 28.8558 8.32922ZM5.85146 10.1905C6.97481 10.5917 7.94551 11.196 8.81816 12.0373C9.62499 12.8151 9.82414 13.0863 9.93148 13.5538C10.0602 14.1138 10.3362 14.9408 10.5649 15.4517C10.7513 15.8682 10.7517 15.8707 10.6041 15.8256C9.9738 15.6328 9.05225 15.1387 8.39629 14.6417C7.98005 14.3263 6.91695 13.2766 6.60561 12.8734C6.18938 12.3346 5.74199 11.5266 5.47588 10.8333C5.23429 10.2039 5.19483 10.0171 5.30344 10.0171C5.33785 10.0171 5.58443 10.0951 5.85146 10.1905ZM18.4843 10.3658C17.8262 12.6292 15.7805 14.8233 13.4859 15.7268C13.2894 15.8042 13.1167 15.8557 13.1023 15.8413C13.0879 15.8268 13.1399 15.6688 13.218 15.4901C13.4244 15.0173 13.7052 14.1737 13.8393 13.6232C13.9409 13.2064 14.011 13.0796 14.3787 12.6487C15.0662 11.8429 16.0347 11.0707 16.9322 10.6127C17.2555 10.4476 18.3767 10.0258 18.5062 10.0204C18.565 10.0179 18.5592 10.1081 18.4843 10.3658ZM26.8298 12.7406C26.1004 14.1989 25.6649 14.9991 25.6007 14.9991C25.5144 14.9991 25.5013 14.702 25.5013 12.7406V10.4821H26.7304H27.9595L26.8298 12.7406ZM30.2577 10.8964L30.4181 11.2777L29.4873 13.1383L28.5565 14.9991H27.7928C27.3727 14.9991 27.0291 14.9843 27.0291 14.9662C27.0291 14.948 27.5298 13.9306 28.1417 12.7052L29.2544 10.4773L29.6757 10.4963L30.0972 10.5153L30.2577 10.8964ZM31.4331 13.6373C31.6342 14.1123 31.8449 14.613 31.9015 14.75L32.0044 14.9991H30.912H29.8195L30.3988 13.8383C30.7175 13.1998 30.9982 12.6991 31.0229 12.7256C31.0475 12.7521 31.2321 13.1624 31.4331 13.6373ZM9.23433 16.4853C9.5856 16.6543 9.90697 16.7926 9.94842 16.7926C9.98987 16.7926 10.0238 16.8225 10.0238 16.8591C10.0238 16.8956 10.0162 16.9256 10.0071 16.9257C9.99804 16.9258 9.68085 16.986 9.30242 17.0595C7.69734 17.3711 6.08323 17.2899 4.45091 16.8154C4.03262 16.6938 4.05601 16.6695 4.78717 16.4657C5.70605 16.2096 6.39783 16.1315 7.53273 16.1555L8.59557 16.178L9.23433 16.4853ZM18.5264 16.3519C18.91 16.4428 19.3435 16.5603 19.4896 16.6129L19.7553 16.7085L19.3056 16.8484C18.283 17.1667 17.8312 17.2244 16.3675 17.2239C15.0343 17.2235 14.5887 17.1785 13.9534 16.9804L13.7314 16.9111L14.4184 16.5792C14.7963 16.3966 15.2549 16.2222 15.4376 16.1916C15.6202 16.161 16.233 16.1474 16.7993 16.1612C17.5993 16.1809 17.9845 16.2234 18.5264 16.3519ZM11.153 17.758C11.153 17.7775 11.0745 17.9494 10.9785 18.14C10.7151 18.6629 10.2348 19.2266 9.80693 19.5149C9.45806 19.75 8.79458 20.0476 8.61908 20.0476C8.43661 20.0476 8.87416 19.0525 9.28242 18.5391C9.49645 18.2699 9.62034 18.1769 9.84048 18.1203C9.99605 18.0803 10.3326 17.9768 10.5884 17.8903C11.0965 17.7185 11.153 17.7053 11.153 17.758ZM13.8651 18.1189C14.1755 18.193 14.2555 18.2494 14.5145 18.5775C14.8343 18.9825 15.1167 19.5225 15.1835 19.857C15.2245 20.0615 15.2204 20.0658 15.0326 20.0193C14.2547 19.8268 13.2023 18.9635 12.8219 18.2061C12.7078 17.9788 12.6144 17.7788 12.6144 17.7617C12.6144 17.7445 12.8161 17.7989 13.0628 17.8825C13.3094 17.9661 13.6705 18.0725 13.8651 18.1189ZM32.2768 20.3797V21.2432H30.8819H29.4869V20.3797V19.5161H30.8819H32.2768V20.3797ZM8.45733 24.8267C8.97806 25.0081 9.40498 25.2893 9.80248 25.7123C10.2046 26.1403 10.3868 26.4333 10.5553 26.9232C11.3056 29.104 9.66803 31.4094 7.37118 31.4058C6.40766 31.4043 5.63597 31.0852 4.97529 30.4148C4.31248 29.7424 3.98121 28.9554 3.97968 28.0494C3.97702 26.4889 5.04092 25.1133 6.54523 24.7319C7.05838 24.6019 7.93688 24.6454 8.45733 24.8267ZM27.7213 24.8273C28.2739 25.0191 28.6119 25.2319 29.0329 25.6528C30.3534 26.9733 30.3338 29.1112 28.989 30.4434C27.9156 31.5068 26.2869 31.7145 24.9281 30.9611C23.9493 30.4184 23.2427 29.1901 23.2427 28.031C23.2427 26.4475 24.4028 25.0197 25.9471 24.7025C26.4059 24.6082 27.2641 24.6686 27.7213 24.8273ZM3.28837 26.0787C3.14197 26.3675 2.99477 26.8177 2.88735 27.3047L2.8471 27.4874H1.98481H1.12252V26.6238V25.7603H2.28612H3.44972L3.28837 26.0787ZM6.6559 25.8799C5.95409 26.1306 5.50086 26.5785 5.23422 27.2849C5.04982 27.7735 5.08297 28.4999 5.31168 28.982C5.51162 29.4035 5.97595 29.8708 6.40347 30.0809C6.68546 30.2195 6.83086 30.2441 7.36667 30.2441C7.95866 30.2441 8.02356 30.2301 8.41522 30.0177C8.90565 29.7518 9.18119 29.4593 9.4192 28.9518C9.66704 28.4234 9.66724 27.6137 9.41966 27.0888C8.93182 26.0546 7.6889 25.511 6.6559 25.8799ZM22.5285 26.1423C22.4321 26.3524 22.3037 26.7334 22.2434 26.9892L22.1336 27.4542H16.9979H11.8621L11.7758 27.0311C11.7284 26.7984 11.6003 26.4173 11.4912 26.1842L11.2928 25.7603H16.9984H22.704L22.5285 26.1423ZM25.9277 25.8773C25.3116 26.0976 24.8258 26.5418 24.554 27.1332C24.3322 27.6161 24.3432 28.4511 24.578 28.9518C24.816 29.4593 25.0915 29.7518 25.582 30.0177C25.9736 30.2301 26.0385 30.2441 26.6305 30.2441C27.381 30.2441 27.7419 30.1021 28.2269 29.6159C28.7019 29.1398 28.8515 28.7665 28.8538 28.052C28.8556 27.5417 28.8301 27.3993 28.6799 27.079C28.3174 26.3057 27.5976 25.8256 26.7338 25.7808C26.3982 25.7635 26.1693 25.7908 25.9277 25.8773ZM32.8747 26.6238V27.4874H32.0124H31.1501L31.1106 27.3047C31.0205 26.8885 30.8117 26.2423 30.692 26.0094L30.5641 25.7603H31.7194H32.8747V26.6238ZM7.78502 26.9793C8.2552 27.1758 8.56727 27.745 8.47042 28.2295C8.26675 29.2478 6.89776 29.4798 6.38932 28.5821C5.86927 27.6639 6.81745 26.575 7.78502 26.9793ZM27.1646 27.0425C27.9292 27.4468 27.946 28.5702 27.1938 28.9962C26.1065 29.612 24.9648 28.2451 25.7856 27.3102C26.1711 26.8712 26.6609 26.7762 27.1646 27.0425ZM22.2263 29.0205C22.3586 29.7168 22.816 30.5624 23.4002 31.1907L23.6009 31.4066H16.9986H10.3963L10.5969 31.1907C11.1812 30.5624 11.6386 29.7168 11.7709 29.0205L11.8477 28.6167H16.9986H22.1495L22.2263 29.0205ZM0.349106 31.4725C-0.0123239 31.6183 -0.115618 32.1008 0.156335 32.3728C0.30181 32.5183 0.375677 32.5359 0.842195 32.5359C1.30028 32.5359 1.38172 32.5173 1.49962 32.3864C1.57362 32.3042 1.65227 32.1855 1.67446 32.1226C1.74029 31.9358 1.58691 31.609 1.38431 31.5042C1.17964 31.3984 0.578412 31.38 0.349106 31.4725Z" fill="#3E3465"/>
</g>
<defs>
<clipPath id="clip0">
<rect width="34" height="34" fill="white"/>
</clipPath>
</defs>
</svg>
