<svg width="34" height="34" viewBox="0 0 34 34" fill="none" xmlns="http://www.w3.org/2000/svg">
<g clip-path="url(#clip0)">
<path fill-rule="evenodd" clip-rule="evenodd" d="M16.9573 0.144876C16.4101 0.311329 16.1638 0.582484 15.8444 1.36985C15.5906 1.99563 15.5871 2.00044 15.3454 2.05032C14.7871 2.16549 14.6453 2.22876 14.4256 2.46062L14.1975 2.70129L10.6296 2.7179L7.06179 2.73451L6.76405 2.9186C6.57953 3.03274 6.39629 3.21604 6.28215 3.40056L6.09806 3.69837L6.08151 18.3043C6.06301 34.6016 6.02402 33.1749 6.50117 33.6568C6.96707 34.1274 6.13523 34.0939 17.3531 34.0929C28.5519 34.0918 27.7453 34.1237 28.2056 33.6635C28.6824 33.1866 28.6433 34.6211 28.6247 18.2786L28.6081 3.64708L28.4487 3.40373C28.2422 3.08846 28.1183 2.98127 27.7857 2.83045C27.522 2.71078 27.4003 2.70671 24.0649 2.70543L20.6168 2.70409L20.4883 2.54074C20.2981 2.29903 20.0252 2.15496 19.6231 2.08415C19.2974 2.02678 19.2548 2.00098 19.1528 1.79985C19.0911 1.67812 18.9909 1.41974 18.93 1.22554C18.7142 0.537038 18.1201 0.0845237 17.4444 0.0938928C17.2603 0.096448 17.0411 0.119385 16.9573 0.144876ZM17.6678 0.878095C17.8324 0.880042 18.1096 1.20078 18.209 1.50436C18.4557 2.25833 18.7566 2.66138 19.1478 2.76195C19.8962 2.95426 19.8846 2.94866 19.9738 3.16208C20.0213 3.27585 20.0882 3.56842 20.1223 3.81219C20.2964 5.05432 21.2114 5.85812 22.7422 6.11364C23.1243 6.17746 23.5525 6.27334 23.6938 6.32681C23.9759 6.43352 24.2582 6.72348 24.2582 6.9066C24.2582 7.02134 24.1267 7.02359 17.4175 7.02359C13.6551 7.02359 10.563 7.00114 10.546 6.97364C10.4926 6.88731 10.7426 6.54096 10.9487 6.41558C11.1359 6.30169 11.4929 6.2125 12.3948 6.05432C13.6013 5.8426 14.5631 4.90764 14.7012 3.81232C14.7813 3.17692 14.8918 2.96788 15.1886 2.89044C15.3251 2.85491 15.5394 2.79906 15.6648 2.76645C16.0704 2.66108 16.3748 2.24598 16.6473 1.42649C16.6862 1.30938 16.7563 1.16312 16.8031 1.10143C16.9086 0.962174 17.3115 0.810748 17.4748 0.848893C17.5417 0.864468 17.6286 0.877669 17.6678 0.878095ZM17.0899 1.50643C17.0172 1.58388 16.9577 1.72204 16.9577 1.81342C16.9577 2.02477 17.2065 2.27822 17.4139 2.27822C17.626 2.27822 17.8702 2.02489 17.8702 1.8049C17.8702 1.41943 17.3563 1.22286 17.0899 1.50643ZM13.9533 3.52218C14.0077 3.66375 13.8123 4.2425 13.621 4.50654C13.5241 4.64032 13.2982 4.84388 13.1191 4.95893L12.7933 5.16803L10.3827 5.19845C8.46332 5.22266 7.95161 5.2459 7.87161 5.31234C7.77871 5.38954 7.7711 6.41594 7.7711 18.8626V32.3294L7.90799 32.4175C8.02601 32.4934 9.34602 32.5052 17.4748 32.5035C23.8799 32.502 26.9437 32.4811 27.0264 32.4381C27.0933 32.4033 27.1682 32.3447 27.1927 32.3079C27.2173 32.2711 27.2378 26.2112 27.2384 18.8414C27.2393 5.52229 27.2386 5.44107 27.1176 5.32013C27 5.20253 26.9148 5.19845 24.5594 5.19845C22.431 5.19845 22.0982 5.18598 21.9281 5.09959C21.3593 4.81085 20.9154 4.2206 20.8933 3.72337L20.8817 3.46456H24.1393C27.1921 3.46456 27.4075 3.47156 27.5665 3.57578C27.9317 3.81517 27.9085 2.80623 27.9085 18.4044C27.9085 31.5182 27.9002 32.7268 27.809 32.9189C27.6075 33.3435 28.4205 33.3129 17.3456 33.3128C7.70351 33.3127 7.33118 33.3086 7.14405 33.1997C7.02772 33.1321 6.92065 33.0025 6.87715 32.8768C6.82173 32.7165 6.80378 29.2817 6.80122 18.3699C6.79806 4.87649 6.80384 4.06096 6.90428 3.86001C7.12081 3.42648 7.05109 3.43433 10.678 3.43427C13.4502 3.43415 13.9244 3.44686 13.9533 3.52218ZM10.0122 6.29086C9.77371 6.6745 9.58201 7.34323 9.65526 7.53597C9.68458 7.61311 9.754 7.69366 9.80948 7.71496C9.94138 7.76551 24.8865 7.76551 25.0184 7.71496C25.0739 7.69366 25.1433 7.61311 25.1726 7.53597C25.2459 7.34323 25.0542 6.6745 24.8157 6.29086L24.6283 5.98934H25.5383H26.4484L26.4577 12.4534C26.4674 19.2362 26.4443 31.6829 26.4218 31.7082C26.4095 31.7221 22.4269 31.727 12.7446 31.7248L8.50116 31.7238V18.8566V5.98934H9.3504H10.1996L10.0122 6.29086ZM12.0298 9.94607C11.5673 10.0426 11.0379 10.3435 10.6978 10.7031C9.76763 11.6866 9.7641 13.1859 10.6897 14.1646C11.831 15.3714 13.7556 15.2075 14.6476 13.8274C15.7076 12.1873 14.6238 10.0404 12.6715 9.91291C12.4691 9.89971 12.1803 9.91461 12.0298 9.94607ZM16.1691 11.1721C16.0143 11.3382 16.0122 11.4715 16.1613 11.6557L16.2776 11.7994L19.8877 11.8147C23.8967 11.8317 23.7879 11.8417 23.8205 11.4539C23.8567 11.0225 24.0109 11.0389 19.9275 11.0389H16.2932L16.1691 11.1721ZM14.2504 11.3649C14.3036 11.4463 14.3271 11.5583 14.3045 11.6235C14.2825 11.6868 13.8237 12.1834 13.2847 12.7272C12.4666 13.5526 12.2758 13.7158 12.1283 13.7158C11.9875 13.7158 11.8425 13.607 11.4128 13.1794C10.8481 12.6173 10.7763 12.4643 10.9745 12.2453C11.1471 12.0546 11.3133 12.1132 11.6952 12.499C11.8939 12.6998 12.085 12.864 12.12 12.864C12.1549 12.864 12.5524 12.4945 13.0032 12.0427C13.8896 11.1544 14.0539 11.0652 14.2504 11.3649ZM16.1699 12.8911C16.0673 13.0003 16.0405 13.0809 16.0691 13.1945C16.1578 13.5482 16.0016 13.5372 20.6649 13.5193C24.8139 13.5033 24.9398 13.4994 25.0236 13.3848C25.1434 13.2209 25.1315 12.9633 24.9987 12.8431C24.8974 12.7514 24.504 12.7424 20.5986 12.7424H16.3097L16.1699 12.8911ZM14.2504 16.2089C14.1834 16.2375 13.65 16.742 13.065 17.3302L12.0013 18.3997L11.5136 17.9195C11.2454 17.6554 10.963 17.4206 10.8861 17.3976C10.6678 17.3326 10.448 17.5088 10.448 17.7487C10.448 17.9191 10.5414 18.0392 11.1334 18.6294C11.703 19.1975 11.8497 19.3129 12.0021 19.3129C12.16 19.3129 12.3655 19.1323 13.4766 18.0168C14.8757 16.6121 14.9297 16.529 14.6072 16.2754C14.43 16.136 14.4239 16.1349 14.2504 16.2089ZM16.1398 16.5887C16.0123 16.7707 16.0206 16.9157 16.1668 17.0619C16.2858 17.1809 16.3695 17.1835 19.9597 17.1835C23.4391 17.1835 23.6363 17.1777 23.7317 17.0723C23.8588 16.9317 23.8614 16.6737 23.7368 16.5491C23.6519 16.4643 23.2234 16.4535 19.9378 16.4535H16.2345L16.1398 16.5887ZM16.1398 18.2922C16.0877 18.3665 16.0451 18.47 16.0451 18.522C16.0451 18.574 16.0877 18.6774 16.1398 18.7518L16.2345 18.887H20.5422H24.85L25.007 18.73C25.1409 18.5961 25.155 18.5492 25.1028 18.4118C25.0691 18.3232 25.009 18.23 24.9692 18.2048C24.9295 18.1795 22.9479 18.1584 20.5658 18.1579L16.2345 18.157L16.1398 18.2922ZM13.1215 22.5981C12.5146 23.2004 11.9995 23.6932 11.9768 23.6932C11.9542 23.6932 11.7179 23.4742 11.4518 23.2065C11.0927 22.8453 10.9269 22.7198 10.8086 22.7198C10.6048 22.7198 10.448 22.8933 10.448 23.119C10.448 23.2635 10.5741 23.4207 11.1398 23.9812C11.6274 24.4643 11.8739 24.6666 11.9748 24.6666C12.1727 24.6666 14.7675 22.0791 14.7675 21.8818C14.7675 21.8073 14.7127 21.6916 14.6458 21.6247C14.3936 21.3725 14.2897 21.4389 13.1215 22.5981ZM16.1944 21.9566C16.0076 22.1434 16.005 22.2959 16.1859 22.4659L16.3267 22.5981H19.9443C23.1201 22.5981 23.5784 22.5866 23.6971 22.5034C23.8794 22.3758 23.8785 22.0781 23.6955 21.9255C23.565 21.8167 23.389 21.8112 19.9512 21.8092L16.3437 21.8072L16.1944 21.9566ZM16.1944 23.6601C16.1123 23.7422 16.0451 23.8529 16.0451 23.9062C16.0451 23.9594 16.1123 24.0701 16.1944 24.1522L16.3437 24.3016H20.5984C24.6139 24.3016 24.8608 24.2954 24.9891 24.1915C25.073 24.1236 25.1252 24.0141 25.1252 23.9062C25.1252 23.7982 25.073 23.6887 24.9891 23.6208C24.8608 23.5169 24.6139 23.5107 20.5984 23.5107H16.3437L16.1944 23.6601ZM13.0826 27.8437L11.9681 28.9522L11.4653 28.452C10.9376 27.9271 10.7475 27.8436 10.5436 28.0475C10.3229 28.2682 10.4157 28.4576 11.0716 29.1248C11.674 29.7377 11.8751 29.8987 12.0378 29.8987C12.1733 29.8987 14.7675 27.2681 14.7675 27.1307C14.7675 26.9134 14.5963 26.7351 14.3875 26.7351C14.2218 26.7351 14.052 26.8794 13.0826 27.8437ZM16.1668 27.3435C16.0139 27.4963 16.0122 27.6544 16.1613 27.8387L16.2776 27.9823L19.6443 28.001C23.142 28.0206 23.5888 28.0043 23.7412 27.8519C23.8664 27.7267 23.8557 27.4443 23.7211 27.3225C23.6201 27.2312 23.2701 27.2218 19.9491 27.2218C16.3695 27.2218 16.2858 27.2245 16.1668 27.3435ZM16.1668 29.047C16.0206 29.1932 16.0123 29.3381 16.1398 29.5201L16.2345 29.6553H20.5766C24.4429 29.6553 24.9292 29.6449 25.0144 29.5598C25.1434 29.4307 25.1352 29.1495 24.9987 29.026C24.8974 28.9343 24.5033 28.9253 20.5879 28.9253C16.3695 28.9253 16.2861 28.9276 16.1668 29.047Z" fill="#3E3465"/>
</g>
<defs>
<clipPath id="clip0">
<rect width="34" height="34" fill="white"/>
</clipPath>
</defs>
</svg>
