<svg width="35" height="35" viewBox="0 0 35 35" fill="none" xmlns="http://www.w3.org/2000/svg">
<path d="M22.4437 7.59788L24.4999 11.7104C24.777 12.2791 25.5207 12.8187 26.1478 12.9354L29.8666 13.5479C32.2437 13.9416 32.7979 15.6624 31.0916 17.3833L28.1895 20.2854C27.7082 20.7666 27.4312 21.7145 27.5916 22.4L28.4228 25.9875C29.0791 28.8166 27.5624 29.925 25.0687 28.4375L21.5832 26.3666C20.9562 25.9875 19.9062 25.9875 19.2791 26.3666L15.7937 28.4375C13.2999 29.9104 11.7833 28.8166 12.4395 25.9875L13.2708 22.4C13.4312 21.7291 13.1541 20.7812 12.6728 20.2854L9.77078 17.3833C8.06453 15.677 8.61869 13.9562 10.9958 13.5479L14.7145 12.9354C15.3416 12.8333 16.0853 12.2791 16.3624 11.7104L18.4187 7.59788C19.5124 5.36663 21.3208 5.36663 22.4437 7.59788Z" stroke="#6579F4" stroke-width="1.8" stroke-linecap="round" stroke-linejoin="round"/>
<path d="M11.6666 7.29163H2.91663" stroke="#DD67C7" stroke-width="1.8" stroke-linecap="round" stroke-linejoin="round"/>
<path d="M7.29163 27.7084H2.91663" stroke="#DD67C7" stroke-width="1.8" stroke-linecap="round" stroke-linejoin="round"/>
<path d="M4.37496 17.5H2.91663" stroke="#DD67C7" stroke-width="1.8" stroke-linecap="round" stroke-linejoin="round"/>
</svg>
