<svg width="35" height="35" viewBox="0 0 35 35" fill="none" xmlns="http://www.w3.org/2000/svg">
<path d="M10.9375 7.29163H24.0625C24.9667 7.29163 25.7688 7.32079 26.4834 7.42288C30.3188 7.84579 31.3542 9.65413 31.3542 14.5833V20.4166C31.3542 25.3458 30.3188 27.1541 26.4834 27.577C25.7688 27.6791 24.9667 27.7083 24.0625 27.7083H10.9375C10.0334 27.7083 9.23129 27.6791 8.51671 27.577C4.68129 27.1541 3.64587 25.3458 3.64587 20.4166V14.5833C3.64587 9.65413 4.68129 7.84579 8.51671 7.42288C9.23129 7.32079 10.0334 7.29163 10.9375 7.29163Z" stroke="#6579F4" stroke-width="1.8" stroke-linecap="round" stroke-linejoin="round"/>
<path d="M6.5625 2.91663H28.4375" stroke="#DD67C7" stroke-width="1.8" stroke-linecap="round" stroke-linejoin="round"/>
<path d="M7.29163 32.0834H29.1666" stroke="#DD67C7" stroke-width="1.8" stroke-linecap="round" stroke-linejoin="round"/>
</svg>
