<svg width="35" height="35" viewBox="0 0 35 35" fill="none" xmlns="http://www.w3.org/2000/svg">
<path d="M17.5 32.0833C25.5542 32.0833 32.0834 25.5541 32.0834 17.5C32.0834 9.44581 25.5542 2.91663 17.5 2.91663C9.44587 2.91663 2.91669 9.44581 2.91669 17.5C2.91669 25.5541 9.44587 32.0833 17.5 32.0833Z" stroke="#6579F4" stroke-width="1.8" stroke-linecap="round" stroke-linejoin="round"/>
<path d="M11.6668 4.375H13.1251C10.2814 12.8917 10.2814 22.1083 13.1251 30.625H11.6668" stroke="#6579F4" stroke-width="1.8" stroke-linecap="round" stroke-linejoin="round"/>
<path d="M21.875 4.375C24.7188 12.8917 24.7188 22.1083 21.875 30.625" stroke="#6579F4" stroke-width="1.8" stroke-linecap="round" stroke-linejoin="round"/>
<path d="M4.375 23.3333V21.875C12.8917 24.7188 22.1083 24.7188 30.625 21.875V23.3333" stroke="#6579F4" stroke-width="1.8" stroke-linecap="round" stroke-linejoin="round"/>
<path d="M4.375 13.125C12.8917 10.2813 22.1083 10.2813 30.625 13.125" stroke="#6579F4" stroke-width="1.8" stroke-linecap="round" stroke-linejoin="round"/>
</svg>
