<svg width="35" height="35" viewBox="0 0 35 35" fill="none" xmlns="http://www.w3.org/2000/svg">
<path d="M27.7083 13.125C27.7083 15.2395 27.0812 17.1791 26.0021 18.7979C24.4271 21.1312 21.9333 22.7791 19.0312 23.202C18.5354 23.2895 18.025 23.3333 17.5 23.3333C16.975 23.3333 16.4646 23.2895 15.9687 23.202C13.0667 22.7791 10.5729 21.1312 8.99791 18.7979C7.91875 17.1791 7.29166 15.2395 7.29166 13.125C7.29166 7.48121 11.8562 2.91663 17.5 2.91663C23.1437 2.91663 27.7083 7.48121 27.7083 13.125Z" stroke="#6579F4" stroke-width="1.8" stroke-linecap="round" stroke-linejoin="round"/>
<path d="M30.9897 26.9354L28.5834 27.5042C28.0439 27.6354 27.6209 28.0438 27.5043 28.5834L26.9939 30.7271C26.7168 31.8938 25.2293 32.2438 24.4564 31.325L17.5001 23.3333L10.5439 31.3396C9.77095 32.2583 8.28345 31.9083 8.00636 30.7417L7.49595 28.5979C7.3647 28.0583 6.94178 27.6354 6.41678 27.5188L4.01053 26.95C2.9022 26.6875 2.50845 25.3021 3.31053 24.5L8.99803 18.8125C10.573 21.1458 13.0668 22.7938 15.9689 23.2167C16.4647 23.3042 16.9751 23.3479 17.5001 23.3479C18.0251 23.3479 18.5355 23.3042 19.0314 23.2167C21.9334 22.7938 24.4272 21.1458 26.0022 18.8125L31.6897 24.5C32.4918 25.2875 32.098 26.6729 30.9897 26.9354Z" stroke="#6579F4" stroke-width="1.8" stroke-linecap="round" stroke-linejoin="round"/>
<path d="M18.3458 8.72087L19.2062 10.4417C19.3229 10.675 19.6291 10.9084 19.9062 10.9521L21.4666 11.2146C22.4583 11.375 22.6916 12.1042 21.977 12.8188L20.7666 14.0292C20.5625 14.2334 20.4458 14.6271 20.5187 14.9188L20.8687 16.4209C21.1458 17.6021 20.5187 18.0688 19.4687 17.4417L18.0104 16.5813C17.7479 16.4209 17.3104 16.4209 17.0479 16.5813L15.5895 17.4417C14.5395 18.0542 13.9125 17.6021 14.1895 16.4209L14.5395 14.9188C14.5979 14.6417 14.4958 14.2334 14.2916 14.0292L13.0812 12.8188C12.3666 12.1042 12.6 11.3896 13.5916 11.2146L15.152 10.9521C15.4145 10.9084 15.7208 10.675 15.8375 10.4417L16.6979 8.72087C17.1208 7.78754 17.8791 7.78754 18.3458 8.72087Z" stroke="#DD67C7" stroke-width="1.8" stroke-linecap="round" stroke-linejoin="round"/>
</svg>
