<svg width="35" height="35" viewBox="0 0 35 35" fill="none" xmlns="http://www.w3.org/2000/svg">
<path d="M17.5001 11.5062L15.9397 14.2187C15.5897 14.8166 15.8813 15.3125 16.5668 15.3125H18.4188C19.1188 15.3125 19.3959 15.8083 19.0459 16.4062L17.5001 19.1187" stroke="#DD67C7" stroke-width="1.8" stroke-linecap="round" stroke-linejoin="round"/>
<path d="M12.1043 26.3083V24.6166C8.75015 22.5895 5.9939 18.6374 5.9939 14.4374C5.9939 7.21868 12.6293 1.56035 20.1251 3.19368C23.421 3.92285 26.3085 6.11035 27.8106 9.1291C30.8585 15.2541 27.6501 21.7583 22.9397 24.602V26.2937C22.9397 26.7166 23.1001 27.6937 21.5397 27.6937H13.5043C11.9001 27.7083 12.1043 27.0812 12.1043 26.3083Z" stroke="#6579F4" stroke-width="1.8" stroke-linecap="round" stroke-linejoin="round"/>
<path d="M12.3958 32.0834C15.7354 31.1355 19.2646 31.1355 22.6041 32.0834" stroke="#DD67C7" stroke-width="1.8" stroke-linecap="round" stroke-linejoin="round"/>
</svg>
