<?xml version="1.0" encoding="UTF-8"?>
<svg xmlns="http://www.w3.org/2000/svg" width="50" height="50" viewBox="0 0 50 50" fill="none">
  <mask id="mask0_2228_17999" style="mask-type:luminance" maskUnits="userSpaceOnUse" x="0" y="0" width="50" height="50">
    <path d="M0 3.8147e-06H50V50H0V3.8147e-06Z" fill="white"></path>
  </mask>
  <g mask="url(#mask0_2228_17999)">
    <path d="M46.7664 34.3522V46.3379C46.7664 47.9559 45.4547 49.2676 43.8367 49.2676H6.16602C4.54805 49.2676 3.23633 47.9559 3.23633 46.3379V42.2624" stroke="#231D36" stroke-miterlimit="10" stroke-linecap="round" stroke-linejoin="round"></path>
    <path d="M35.8666 46.3379H6.1709C4.55019 46.3379 3.23633 45.024 3.23633 43.4033V7.01407C3.23633 5.39336 4.55019 4.07949 6.1709 4.07949H43.8317C45.4525 4.07949 46.7664 5.39336 46.7664 7.01407V35.4381C46.7664 36.2164 46.4572 36.9629 45.9068 37.5132L37.9417 45.4783C37.3913 46.0287 36.6449 46.3379 35.8666 46.3379Z" stroke="#231D36" stroke-miterlimit="10" stroke-linecap="round" stroke-linejoin="round"></path>
    <path d="M34.6621 46.3379C35.99 46.3379 37.0666 45.2614 37.0666 43.9334V39.0444C37.0666 37.7165 38.1431 36.6399 39.471 36.6399H44.3601C45.688 36.6399 46.7645 35.5635 46.7645 34.2355" stroke="#231D36" stroke-miterlimit="10" stroke-linecap="round" stroke-linejoin="round"></path>
    <path d="M11.8959 14.5463H3.23633" stroke="#231D36" stroke-miterlimit="10" stroke-linecap="round" stroke-linejoin="round"></path>
    <path d="M46.765 14.5463H14.8242" stroke="#231D36" stroke-miterlimit="10" stroke-linecap="round" stroke-linejoin="round"></path>
    <path d="M11.528 8.46021C10.7024 8.46021 10.0332 7.79097 10.0332 6.96538V2.2272C10.0332 1.40161 10.7024 0.732373 11.528 0.732373H11.8643C12.6898 0.732373 13.3591 1.40161 13.3591 2.2272V4.07944" stroke="#231D36" stroke-miterlimit="10" stroke-linecap="round" stroke-linejoin="round"></path>
    <path d="M38.1354 8.46021C37.3099 8.46021 36.6406 7.79097 36.6406 6.96538V2.2272C36.6406 1.40161 37.3099 0.732373 38.1354 0.732373H38.4717C39.2973 0.732373 39.9665 1.40161 39.9665 2.2272V4.07944" stroke="#231D36" stroke-miterlimit="10" stroke-linecap="round" stroke-linejoin="round"></path>
    <path d="M11.8161 23.8236H8.32842C7.94316 23.8236 7.63086 23.5113 7.63086 23.126V19.6384C7.63086 19.2531 7.94316 18.9408 8.32842 18.9408H11.8161C12.2014 18.9408 12.5137 19.2531 12.5137 19.6384V23.126C12.5137 23.5113 12.2014 23.8236 11.8161 23.8236Z" stroke="#231D36" stroke-miterlimit="10" stroke-linecap="round" stroke-linejoin="round"></path>
    <path d="M21.7673 23.8236H18.2796C17.8943 23.8236 17.582 23.5113 17.582 23.126V19.6384C17.582 19.2531 17.8943 18.9408 18.2796 18.9408H21.7673C22.1525 18.9408 22.4648 19.2531 22.4648 19.6384V23.126C22.4648 23.5113 22.1525 23.8236 21.7673 23.8236Z" stroke="#231D36" stroke-miterlimit="10" stroke-linecap="round" stroke-linejoin="round"></path>
    <path d="M31.7224 23.8236H28.2347C27.8494 23.8236 27.5371 23.5113 27.5371 23.126V19.6384C27.5371 19.2531 27.8494 18.9408 28.2347 18.9408H31.7224C32.1076 18.9408 32.4199 19.2531 32.4199 19.6384V23.126C32.4199 23.5113 32.1076 23.8236 31.7224 23.8236Z" stroke="#231D36" stroke-miterlimit="10" stroke-linecap="round" stroke-linejoin="round"></path>
    <path d="M41.6735 23.8236H38.1858C37.8006 23.8236 37.4883 23.5113 37.4883 23.126V19.6384C37.4883 19.2531 37.8006 18.9408 38.1858 18.9408H41.6735C42.0588 18.9408 42.3711 19.2531 42.3711 19.6384V23.126C42.3711 23.5113 42.0588 23.8236 41.6735 23.8236Z" stroke="#231D36" stroke-miterlimit="10" stroke-linecap="round" stroke-linejoin="round"></path>
    <path d="M11.8161 32.8835H8.32842C7.94316 32.8835 7.63086 32.5712 7.63086 32.186V28.6983C7.63086 28.313 7.94316 28.0007 8.32842 28.0007H11.8161C12.2014 28.0007 12.5137 28.313 12.5137 28.6983V32.186C12.5137 32.5712 12.2014 32.8835 11.8161 32.8835Z" stroke="#231D36" stroke-miterlimit="10" stroke-linecap="round" stroke-linejoin="round"></path>
    <path d="M21.7673 32.8835H18.2796C17.8943 32.8835 17.582 32.5712 17.582 32.186V28.6983C17.582 28.313 17.8943 28.0007 18.2796 28.0007H21.7673C22.1525 28.0007 22.4648 28.313 22.4648 28.6983V32.186C22.4648 32.5712 22.1525 32.8835 21.7673 32.8835Z" stroke="#231D36" stroke-miterlimit="10" stroke-linecap="round" stroke-linejoin="round"></path>
    <path d="M31.7224 32.8835H28.2347C27.8494 32.8835 27.5371 32.5712 27.5371 32.186V28.6983C27.5371 28.313 27.8494 28.0007 28.2347 28.0007H31.7224C32.1076 28.0007 32.4199 28.313 32.4199 28.6983V32.186C32.4199 32.5712 32.1076 32.8835 31.7224 32.8835Z" stroke="#231D36" stroke-miterlimit="10" stroke-linecap="round" stroke-linejoin="round"></path>
    <path d="M41.6735 33.101H38.1858C37.8006 33.101 37.4883 32.7886 37.4883 32.4034V28.9157C37.4883 28.5304 37.8006 28.2181 38.1858 28.2181H41.6735C42.0588 28.2181 42.3711 28.5304 42.3711 28.9157V32.4034C42.3711 32.7886 42.0588 33.101 41.6735 33.101Z" stroke="#231D36" stroke-miterlimit="10" stroke-linecap="round" stroke-linejoin="round"></path>
    <path d="M11.8161 41.9434H8.32842C7.94316 41.9434 7.63086 41.6311 7.63086 41.2458V37.7581C7.63086 37.3729 7.94316 37.0605 8.32842 37.0605H11.8161C12.2014 37.0605 12.5137 37.3729 12.5137 37.7581V41.2458C12.5137 41.6311 12.2014 41.9434 11.8161 41.9434Z" stroke="#231D36" stroke-miterlimit="10" stroke-linecap="round" stroke-linejoin="round"></path>
    <path d="M21.7673 41.9434H18.2796C17.8943 41.9434 17.582 41.6311 17.582 41.2458V37.7581C17.582 37.3729 17.8943 37.0605 18.2796 37.0605H21.7673C22.1525 37.0605 22.4648 37.3729 22.4648 37.7581V41.2458C22.4648 41.6311 22.1525 41.9434 21.7673 41.9434Z" stroke="#231D36" stroke-miterlimit="10" stroke-linecap="round" stroke-linejoin="round"></path>
    <path d="M27.5371 38.7639V37.7581C27.5371 37.3728 27.8494 37.0605 28.2347 37.0605H31.7224C32.1076 37.0605 32.4199 37.3728 32.4199 37.7581V41.2458C32.4199 41.6311 32.1076 41.9434 31.7224 41.9434H28.2347C27.8494 41.9434 27.5371 41.6311 27.5371 41.2458" stroke="#231D36" stroke-miterlimit="10" stroke-linecap="round" stroke-linejoin="round"></path>
  </g>
</svg>
