<?xml version="1.0" encoding="UTF-8"?>
<svg xmlns="http://www.w3.org/2000/svg" width="45" height="45" viewBox="0 0 45 45" fill="none">
  <mask id="mask0_2228_18313" style="mask-type:luminance" maskUnits="userSpaceOnUse" x="0" y="0" width="45" height="45">
    <path d="M0 3.8147e-06H45V45H0V3.8147e-06Z" fill="white"></path>
  </mask>
  <g mask="url(#mask0_2228_18313)">
    <path d="M35.7831 44.3408H13.0681C12.3401 44.3408 11.75 43.7507 11.75 43.0227V8.86544C11.75 8.13753 12.3401 7.54743 13.0681 7.54743H35.7831C36.5111 7.54743 37.1012 8.13753 37.1012 8.86544V43.0227C37.1012 43.7507 36.5111 44.3408 35.7831 44.3408Z" stroke="#231D36" stroke-miterlimit="10" stroke-linecap="round" stroke-linejoin="round"></path>
    <path d="M12.7773 7.58063C12.871 7.55953 12.9681 7.5474 13.0682 7.5474H33.2525V1.97734C33.2525 1.65416 33.1358 1.35859 32.9428 1.12928L12.7773 7.58063Z" stroke="#231D36" stroke-miterlimit="10" stroke-linecap="round" stroke-linejoin="round"></path>
    <path d="M14.9141 17.6953V11.3267C14.9141 10.9869 15.1895 10.7114 15.5293 10.7114H22.3996C22.7394 10.7114 23.0149 10.9869 23.0149 11.3267V17.6953C23.0149 18.0351 22.7394 18.3105 22.3996 18.3105H15.5293C15.1895 18.3105 14.9141 18.0351 14.9141 17.6953Z" stroke="#231D36" stroke-miterlimit="10" stroke-linecap="round" stroke-linejoin="round"></path>
    <path d="M14.9141 40.5615V34.1929C14.9141 33.8531 15.1895 33.5776 15.5293 33.5776H22.3996C22.7394 33.5776 23.0149 33.8531 23.0149 34.1929V40.5615C23.0149 40.9013 22.7394 41.1768 22.3996 41.1768H15.5293C15.1895 41.1768 14.9141 40.9013 14.9141 40.5615Z" stroke="#231D36" stroke-miterlimit="10" stroke-linecap="round" stroke-linejoin="round"></path>
    <path d="M14.9141 29.4839V23.1152C14.9141 22.7754 15.1895 22.5 15.5293 22.5H22.3996C22.7394 22.5 23.0149 22.7754 23.0149 23.1152V29.4839C23.0149 29.8236 22.7394 30.0991 22.3996 30.0991H15.5293C15.1895 30.0991 14.9141 29.8236 14.9141 29.4839Z" stroke="#231D36" stroke-miterlimit="10" stroke-linecap="round" stroke-linejoin="round"></path>
    <path d="M25.791 13.2653H33.9368" stroke="#231D36" stroke-miterlimit="10" stroke-linecap="round" stroke-linejoin="round"></path>
    <path d="M25.791 15.7567H28.8379" stroke="#231D36" stroke-miterlimit="10" stroke-linecap="round" stroke-linejoin="round"></path>
    <path d="M25.791 25.0538H33.9368" stroke="#231D36" stroke-miterlimit="10" stroke-linecap="round" stroke-linejoin="round"></path>
    <path d="M25.791 27.5453H28.8379" stroke="#231D36" stroke-miterlimit="10" stroke-linecap="round" stroke-linejoin="round"></path>
    <path d="M25.791 36.1315H33.9368" stroke="#231D36" stroke-miterlimit="10" stroke-linecap="round" stroke-linejoin="round"></path>
    <path d="M25.791 38.6229H28.8379" stroke="#231D36" stroke-miterlimit="10" stroke-linecap="round" stroke-linejoin="round"></path>
    <path d="M12.9206 7.55594C12.9185 7.55613 12.9163 7.55662 12.9141 7.55692" stroke="#231D36" stroke-miterlimit="10" stroke-linecap="round" stroke-linejoin="round"></path>
    <path d="M12.7764 7.5806L32.9418 1.12925C32.7 0.842028 32.3383 0.659216 31.9335 0.659216H9.21849C8.49049 0.659216 7.90039 1.24931 7.90039 1.97731V36.1345C7.90039 36.8625 8.49049 37.4526 9.21849 37.4526H11.7491V8.86547C11.7491 8.23758 12.1886 7.71314 12.7764 7.5806Z" stroke="#231D36" stroke-miterlimit="10" stroke-linecap="round" stroke-linejoin="round"></path>
  </g>
</svg>
