<?xml version="1.0" encoding="UTF-8"?>
<svg xmlns="http://www.w3.org/2000/svg" width="45" height="45" viewBox="0 0 45 45" fill="none">
  <path d="M14.1895 40.2799H30.8226" stroke="#231D36" stroke-miterlimit="10" stroke-linecap="round" stroke-linejoin="round"></path>
  <path d="M27.291 34.2495L28.0514 39.7722" stroke="#231D36" stroke-miterlimit="10" stroke-linecap="round" stroke-linejoin="round"></path>
  <mask id="mask0_2228_18435" style="mask-type:luminance" maskUnits="userSpaceOnUse" x="0" y="0" width="45" height="45">
    <path d="M0 3.8147e-06H45V45H0V3.8147e-06Z" fill="white"></path>
  </mask>
  <g mask="url(#mask0_2228_18435)">
    <path d="M0.841797 28.8239H43.9586" stroke="#231D36" stroke-miterlimit="10" stroke-linecap="round" stroke-linejoin="round"></path>
  </g>
  <path d="M16.9551 39.827L17.7231 34.2495" stroke="#231D36" stroke-miterlimit="10" stroke-linecap="round" stroke-linejoin="round"></path>
  <mask id="mask1_2228_18435" style="mask-type:luminance" maskUnits="userSpaceOnUse" x="0" y="0" width="45" height="45">
    <path d="M0 3.8147e-06H45V45H0V3.8147e-06Z" fill="white"></path>
  </mask>
  <g mask="url(#mask1_2228_18435)">
    <path d="M31.228 33.8305H2.40786C1.44256 33.8305 0.660156 33.0481 0.660156 32.0828V6.46782C0.660156 5.50252 1.44256 4.72002 2.40786 4.72002H6.99865" stroke="#231D36" stroke-miterlimit="10" stroke-linecap="round" stroke-linejoin="round"></path>
    <path d="M9.63477 4.72007H42.5934C43.5587 4.72007 44.3411 5.50256 44.3411 6.46777V32.0828C44.3411 33.0481 43.5587 33.8306 42.5934 33.8306H33.8641" stroke="#231D36" stroke-miterlimit="10" stroke-linecap="round" stroke-linejoin="round"></path>
    <path d="M29.9671 18.983C28.8219 17.8263 28.8311 15.9603 29.9877 14.8151C31.1443 13.6699 33.0103 13.679 34.1556 14.8357C35.3009 15.9922 35.2916 17.8583 34.135 19.0035C32.9784 20.1488 31.1123 20.1396 29.9671 18.983ZM38.9985 22.4933L37.6772 20.2381C37.6066 20.1175 37.6043 19.9694 37.6692 19.8455C37.8366 19.5258 37.9748 19.1948 38.084 18.8563C38.1266 18.724 38.2343 18.6229 38.3691 18.5891L40.9053 17.9534C41.0839 17.9087 41.2095 17.7486 41.2104 17.5644L41.2164 16.3446C41.2173 16.1605 41.0934 15.9991 40.9151 15.9525L38.3854 15.2918C38.2508 15.2568 38.1442 15.1546 38.1028 15.0218C37.9971 14.6823 37.8622 14.3499 37.6978 14.0286C37.6342 13.9041 37.638 13.756 37.7098 13.6361L39.0533 11.394C39.1479 11.236 39.1235 11.034 38.9939 10.9032L38.1356 10.0364C38.006 9.90554 37.8043 9.87909 37.6453 9.97217L35.3901 11.2934C35.2695 11.3641 35.1214 11.3664 34.9975 11.3015C34.6779 11.1341 34.3468 10.9958 34.0082 10.8867C33.876 10.844 33.7749 10.7365 33.7411 10.6016L33.1054 8.06538C33.0606 7.88679 32.9006 7.76119 32.7163 7.76022L31.4966 7.75425C31.3125 7.75337 31.1511 7.87729 31.1045 8.05554L30.4439 10.5853C30.4087 10.7199 30.3066 10.8265 30.1739 10.8678C29.8343 10.9735 29.5019 11.1085 29.1806 11.2728C29.0562 11.3365 28.908 11.3327 28.7882 11.2608L26.546 9.91741C26.388 9.82275 26.186 9.84719 26.0551 9.97674L25.1884 10.835C25.0576 10.9646 25.0311 11.1663 25.1242 11.3252L26.4455 13.5805C26.5161 13.7011 26.5184 13.8493 26.4535 13.9731C26.286 14.2928 26.1478 14.6239 26.0388 14.9623C25.9961 15.0947 25.8885 15.1958 25.7536 15.2295L23.2174 15.8652C23.0388 15.91 22.9132 16.0701 22.9122 16.2542L22.9063 17.4741C22.9053 17.6582 23.0293 17.8196 23.2075 17.8661L25.7373 18.5267C25.8719 18.5619 25.9785 18.664 26.0198 18.7967C26.1255 19.1363 26.2605 19.4687 26.4248 19.7901C26.4885 19.9145 26.4847 20.0626 26.4129 20.1825L25.0694 22.4246C24.9748 22.5826 24.9992 22.7846 25.1287 22.9155L25.9871 23.7822C26.1165 23.9131 26.3183 23.9396 26.4773 23.8465L28.7325 22.5252C28.8531 22.4546 29.0014 22.4523 29.1251 22.5171C29.4449 22.6846 29.7759 22.8228 30.1143 22.9319C30.2468 22.9746 30.3478 23.0822 30.3816 23.2171L31.0172 25.7533C31.062 25.9319 31.2221 26.0575 31.4062 26.0583L32.6261 26.0644C32.8103 26.0653 32.9716 25.9413 33.0182 25.7631L33.6787 23.2334C33.7139 23.0988 33.816 22.9922 33.9488 22.9509C34.2884 22.8451 34.6207 22.7102 34.9421 22.5458C35.0665 22.4822 35.2146 22.4859 35.3345 22.5578L37.5767 23.9012C37.7346 23.9959 37.9367 23.9715 38.0675 23.8418L38.9343 22.9836C39.0652 22.854 39.0915 22.6522 38.9985 22.4933Z" stroke="#231D36" stroke-miterlimit="10" stroke-linecap="round" stroke-linejoin="round"></path>
    <path d="M8.45662 18.8359H6.33942C5.86508 18.8359 5.48047 18.4513 5.48047 17.977V15.8597C5.48047 15.3854 5.86508 15.0008 6.33942 15.0008H8.45662C8.93097 15.0008 9.31549 15.3854 9.31549 15.8597V17.977C9.31549 18.4513 8.93097 18.8359 8.45662 18.8359Z" stroke="#231D36" stroke-miterlimit="10" stroke-linecap="round" stroke-linejoin="round"></path>
    <path d="M8.45662 11.6804H6.33942C5.86508 11.6804 5.48047 11.2959 5.48047 10.8215V8.70422C5.48047 8.22988 5.86508 7.84535 6.33942 7.84535H8.45662C8.93097 7.84535 9.31549 8.22988 9.31549 8.70422V10.8215C9.31549 11.2959 8.93097 11.6804 8.45662 11.6804Z" stroke="#231D36" stroke-miterlimit="10" stroke-linecap="round" stroke-linejoin="round"></path>
    <path d="M12.6367 8.19691H20.0997" stroke="#231D36" stroke-miterlimit="10" stroke-linecap="round" stroke-linejoin="round"></path>
    <path d="M12.6367 10.9002H15.5825" stroke="#231D36" stroke-miterlimit="10" stroke-linecap="round" stroke-linejoin="round"></path>
    <path d="M12.6367 15.3524H20.0997" stroke="#231D36" stroke-miterlimit="10" stroke-linecap="round" stroke-linejoin="round"></path>
    <path d="M12.6367 18.0557H15.5825" stroke="#231D36" stroke-miterlimit="10" stroke-linecap="round" stroke-linejoin="round"></path>
    <path d="M8.45662 25.9913H6.33942C5.86508 25.9913 5.48047 25.6068 5.48047 25.1325V23.0152C5.48047 22.5408 5.86508 22.1563 6.33942 22.1563H8.45662C8.93097 22.1563 9.31549 22.5408 9.31549 23.0152V25.1325C9.31549 25.6068 8.93097 25.9913 8.45662 25.9913Z" stroke="#231D36" stroke-miterlimit="10" stroke-linecap="round" stroke-linejoin="round"></path>
    <path d="M12.6367 22.5079H20.0997" stroke="#231D36" stroke-miterlimit="10" stroke-linecap="round" stroke-linejoin="round"></path>
    <path d="M12.6367 25.2112H15.5825" stroke="#231D36" stroke-miterlimit="10" stroke-linecap="round" stroke-linejoin="round"></path>
  </g>
</svg>
