<?xml version="1.0" encoding="UTF-8"?>
<svg xmlns="http://www.w3.org/2000/svg" width="45" height="45" viewBox="0 0 45 45" fill="none">
  <g clip-path="url(#clip0_2228_18618)">
    <mask id="mask0_2228_18618" style="mask-type:luminance" maskUnits="userSpaceOnUse" x="0" y="0" width="45" height="45">
      <path d="M45 0H0V45H45V0Z" fill="white"></path>
    </mask>
    <g mask="url(#mask0_2228_18618)">
      <mask id="mask1_2228_18618" style="mask-type:luminance" maskUnits="userSpaceOnUse" x="0" y="0" width="45" height="45">
        <path d="M0 3.8147e-06H45V45H0V3.8147e-06Z" fill="white"></path>
      </mask>
      <g mask="url(#mask1_2228_18618)">
        <path d="M22.8232 27.7897H19.4609V42.644H22.8232C23.2874 42.644 23.6638 42.2678 23.6638 41.8034V28.6301C23.6638 28.1661 23.2874 27.7897 22.8232 27.7897Z" stroke="#231D36" stroke-miterlimit="10" stroke-linecap="round" stroke-linejoin="round"></path>
        <path d="M16.1735 27.7897C15.6472 27.7897 15.2207 28.2163 15.2207 28.7426V41.691C15.2207 42.2173 15.6472 42.644 16.1735 42.644H19.4622V27.7897H16.1735Z" stroke="#231D36" stroke-miterlimit="10" stroke-linecap="round" stroke-linejoin="round"></path>
        <path d="M41.5366 33.019H35.8535" stroke="#231D36" stroke-miterlimit="10" stroke-linecap="round" stroke-linejoin="round"></path>
        <path d="M40.441 36.5179H35.8535" stroke="#231D36" stroke-miterlimit="10" stroke-linecap="round" stroke-linejoin="round"></path>
        <path d="M39.6696 40.0169H35.8535" stroke="#231D36" stroke-miterlimit="10" stroke-linecap="round" stroke-linejoin="round"></path>
        <path d="M16.1727 27.7896C15.6463 27.7896 15.2198 28.2162 15.2198 28.7426V31.8735H13.3363C13.0356 31.8735 12.7587 32.0366 12.6131 32.2997L10.1843 36.6876C9.97832 37.0599 9.44307 37.0599 9.23696 36.6876L6.86295 32.3984C6.68365 32.0745 6.34255 31.8735 5.97227 31.8735H3.46712C1.92332 31.8735 0.660156 30.6103 0.660156 29.0664V15.1384C0.660156 13.5946 1.92332 12.3314 3.46712 12.3314H26.6765C28.2203 12.3314 29.4834 13.5946 29.4834 15.1384V25.8586L29.1647 26.3869C28.6228 27.2752 27.9789 28.0972 27.2461 28.8359C27.2461 28.9345 26.4548 29.5062 25.1107 29.5201H23.6642V28.6301C23.6642 28.1661 23.2879 27.7896 22.8236 27.7896H16.1727ZM16.1727 27.7896C15.9893 27.7896 16.3568 27.7896 16.1727 27.7896Z" stroke="#231D36" stroke-miterlimit="10" stroke-linecap="round" stroke-linejoin="round"></path>
        <path d="M8.69896 23.4911C7.90153 23.4911 7.25 22.8408 7.25 22.0421C7.25 21.1263 8.09322 20.4423 8.98294 20.6221C9.62937 20.7444 10.1479 21.3292 10.1479 22.0421C10.1479 22.8383 9.50167 23.4911 8.69896 23.4911Z" stroke="#231D36" stroke-miterlimit="10" stroke-linecap="round" stroke-linejoin="round"></path>
        <path d="M14.7829 23.4911C13.9855 23.4911 13.334 22.8408 13.334 22.0421C13.334 21.1263 14.1772 20.4423 15.0669 20.6221C15.7134 20.7444 16.2319 21.3292 16.2319 22.0421C16.2319 22.8383 15.5857 23.4911 14.7829 23.4911Z" stroke="#231D36" stroke-miterlimit="10" stroke-linecap="round" stroke-linejoin="round"></path>
        <path d="M20.865 23.4911C20.0675 23.4911 19.416 22.8408 19.416 22.0421C19.416 21.1263 20.2592 20.4423 21.149 20.6221C21.7954 20.7444 22.3139 21.3292 22.3139 22.0421C22.3139 22.8383 21.6677 23.4911 20.865 23.4911Z" stroke="#231D36" stroke-miterlimit="10" stroke-linecap="round" stroke-linejoin="round"></path>
        <path d="M36.4244 43.5156H39.6263C40.5748 43.5156 41.3828 42.7782 41.4169 41.8303C41.4527 40.8351 40.6563 40.0169 39.6686 40.0169H40.3977C41.3462 40.0169 42.1541 39.2795 42.1881 38.3317C42.2237 37.3362 41.4275 36.5179 40.44 36.5179H41.4938C42.4422 36.5179 43.25 35.7805 43.2839 34.8327C43.3195 33.8374 42.5234 33.0189 41.5357 33.0189H42.5896C43.577 33.0189 44.3732 32.2011 44.3379 31.2058C44.3041 30.2578 43.4962 29.5201 42.5475 29.5201H35.5648C34.5224 29.5201 33.7868 28.4986 34.1171 27.51L35.6601 23.0825C36.0695 21.9077 35.4299 20.6266 34.245 20.2479C33.5692 20.0319 32.8334 20.3081 32.4668 20.9155L29.1645 26.3869C28.6227 27.2753 27.9788 28.0971 27.246 28.836C27.246 28.9346 26.4548 29.5062 25.1107 29.5201H23.6641V41.0059H25.4062C27.9392 41.0059 27.707 43.5156 30.8583 43.5156H33.3482" stroke="#231D36" stroke-miterlimit="10" stroke-linecap="round" stroke-linejoin="round"></path>
        <path d="M29.4837 25.8586L29.3008 26.1616" stroke="#231D36" stroke-miterlimit="10" stroke-linecap="round" stroke-linejoin="round"></path>
        <path d="M35.6426 23.135C39.3408 20.3255 43.431 15.9559 43.989 10.1271" stroke="#231D36" stroke-miterlimit="10" stroke-linecap="round" stroke-linejoin="round"></path>
        <path d="M43.8449 7.0509C43.0679 3.86732 40.1999 1.50245 36.7769 1.4992C34.0583 1.49647 31.6883 2.98411 30.4349 5.18964L30.4338 5.18928C29.8995 5.84934 29.0774 5.85092 28.5417 5.18744L28.5412 5.18805C27.2923 2.97936 24.9253 1.48689 22.207 1.48434C18.1833 1.4803 14.918 4.7384 14.9141 8.76186C14.9128 10.014 15.0763 11.2041 15.3686 12.3315" stroke="#231D36" stroke-miterlimit="10" stroke-linecap="round" stroke-linejoin="round"></path>
        <path d="M29.1647 26.3869C29.127 26.4487 29.0875 26.5096 29.0488 26.5707C29.0875 26.5095 29.127 26.4487 29.1647 26.3869ZM29.1647 26.3869L29.3006 26.1616" stroke="#231D36" stroke-miterlimit="10" stroke-linecap="round" stroke-linejoin="round"></path>
      </g>
    </g>
  </g>
  <defs>
    <clipPath id="clip0_2228_18618">
      <rect width="45" height="45" fill="white"></rect>
    </clipPath>
  </defs>
</svg>
