<?xml version="1.0" encoding="UTF-8"?>
<svg xmlns="http://www.w3.org/2000/svg" width="58" height="59" viewBox="0 0 58 59" fill="none">
  <path d="M4.83398 46.6442C4.83398 41.3275 9.18398 36.9775 14.5007 36.9775H24.1673C29.484 36.9775 33.834 41.3275 33.834 46.6442" stroke="#231D36" stroke-width="2" stroke-linecap="round" stroke-linejoin="round"></path>
  <path d="M25.375 15.2275C28.7583 18.6108 28.7583 23.9275 25.375 27.0692C21.9916 30.2108 16.675 30.4525 13.5333 27.0692C10.3916 23.6858 10.15 18.6108 13.2916 15.2275C16.4333 11.8442 21.9916 12.0858 25.375 15.2275" stroke="#231D36" stroke-width="2" stroke-linecap="round" stroke-linejoin="round"></path>
  <path d="M38.668 34.561H45.918C50.0263 34.561 53.168 37.7027 53.168 41.811" stroke="#231D36" stroke-width="2" stroke-linecap="round" stroke-linejoin="round"></path>
  <path d="M46.6423 16.9193C49.059 19.336 49.059 23.2027 46.6423 25.3777C44.2257 27.5527 40.359 27.7943 38.184 25.3777C36.009 22.961 35.7673 19.0943 38.184 16.9193C40.359 14.7443 44.2257 14.7443 46.6423 16.9193" stroke="#231D36" stroke-width="2" stroke-linecap="round" stroke-linejoin="round"></path>
</svg>
