<?xml version="1.0" encoding="UTF-8"?>
<svg xmlns="http://www.w3.org/2000/svg" width="45" height="45" viewBox="0 0 45 45" fill="none">
  <g clip-path="url(#clip0_2228_18351)">
    <mask id="mask0_2228_18351" style="mask-type:luminance" maskUnits="userSpaceOnUse" x="0" y="0" width="45" height="45">
      <path d="M45 0H0V45H45V0Z" fill="white"></path>
    </mask>
    <g mask="url(#mask0_2228_18351)">
      <mask id="mask1_2228_18351" style="mask-type:luminance" maskUnits="userSpaceOnUse" x="0" y="0" width="45" height="45">
        <path d="M0 3.8147e-06H45V45H0V3.8147e-06Z" fill="white"></path>
      </mask>
      <g mask="url(#mask1_2228_18351)">
        <path d="M13.0007 0.781917C11.0989 0.781917 9.54297 2.33793 9.54297 4.23962C9.54297 6.1414 11.0989 7.69733 13.0007 7.69733C14.9025 7.69733 16.4584 6.1414 16.4584 4.23962C16.4584 2.33793 14.9025 0.781917 13.0007 0.781917Z" stroke="#231D36" stroke-miterlimit="10" stroke-linecap="round" stroke-linejoin="round"></path>
        <path d="M9.90234 12.4154V17.1334" stroke="#231D36" stroke-miterlimit="10" stroke-linecap="round" stroke-linejoin="round"></path>
        <path d="M31.9987 0.781917C30.0969 0.781917 28.541 2.33793 28.541 4.23962C28.541 6.1414 30.0969 7.69733 31.9987 7.69733C33.9006 7.69733 35.4565 6.1414 35.4565 4.23962C35.4565 2.33793 33.9006 0.781917 31.9987 0.781917Z" stroke="#231D36" stroke-miterlimit="10" stroke-linecap="round" stroke-linejoin="round"></path>
        <path d="M28.9023 12.4154V17.1334" stroke="#231D36" stroke-miterlimit="10" stroke-linecap="round" stroke-linejoin="round"></path>
        <path d="M35.0957 12.4154V17.1334" stroke="#231D36" stroke-miterlimit="10" stroke-linecap="round" stroke-linejoin="round"></path>
        <path d="M34.7582 7.69734H29.2386C27.4907 7.69734 26.0605 9.12741 26.0605 10.8754V17.1334H37.9362V10.8753C37.9362 9.12741 36.5061 7.69734 34.7582 7.69734Z" stroke="#231D36" stroke-miterlimit="10" stroke-linecap="round" stroke-linejoin="round"></path>
        <path d="M18.5459 20.4833H27.4908C28.1789 20.4833 28.7418 21.0463 28.7418 21.7343V25.5819C28.7418 26.2699 28.1789 26.8328 27.4908 26.8328H26.7287C26.5239 26.8328 26.358 26.9987 26.358 27.2034V29.7548C26.358 30.0217 26.023 30.1412 25.8541 29.9345L23.5789 27.1508C23.4144 26.9495 23.1682 26.8328 22.9083 26.8328H18.5459C17.8579 26.8328 17.2949 26.2699 17.2949 25.5819V21.7343C17.2949 21.0463 17.8579 20.4833 18.5459 20.4833Z" stroke="#231D36" stroke-miterlimit="10" stroke-linecap="round" stroke-linejoin="round"></path>
        <path d="M17.2942 21.7343C17.2942 21.0462 17.8572 20.4834 18.5452 20.4834H24.3297V16.8729C24.3297 16.1848 23.7668 15.622 23.0787 15.622H18.7163C18.4564 15.622 18.2102 15.5051 18.0457 15.3039L15.7705 12.5202C15.6015 12.3135 15.2666 12.4329 15.2666 12.6999V15.2512C15.2666 15.4559 15.1006 15.622 14.8959 15.622H14.1338C13.4457 15.622 12.8828 16.1848 12.8828 16.8729V20.7204C12.8828 21.4084 13.4457 21.9713 14.1338 21.9713H17.2942V21.7343Z" stroke="#231D36" stroke-miterlimit="10" stroke-linecap="round" stroke-linejoin="round"></path>
        <path d="M12.8828 16.8729C12.8828 16.1848 13.4457 15.6219 14.1337 15.6219H14.8959C15.1006 15.6219 15.2666 15.456 15.2666 15.2513V12.6999C15.2666 12.433 15.6015 12.3135 15.7704 12.5202L18.0457 15.3039C18.2102 15.5052 18.4564 15.6219 18.7163 15.6219H18.9381V10.8753C18.9381 9.12741 17.508 7.69734 15.7602 7.69734H10.2404C8.49257 7.69734 7.0625 9.12741 7.0625 10.8754V17.1334H12.8828V16.8729Z" stroke="#231D36" stroke-miterlimit="10" stroke-linecap="round" stroke-linejoin="round"></path>
        <path d="M31.9987 27.8666C30.0969 27.8666 28.541 29.4226 28.541 31.3243C28.541 33.2261 30.0969 34.782 31.9987 34.782C33.9006 34.782 35.4565 33.2261 35.4565 31.3243C35.4565 29.4226 33.9006 27.8666 31.9987 27.8666Z" stroke="#231D36" stroke-miterlimit="10" stroke-linecap="round" stroke-linejoin="round"></path>
        <path d="M28.9023 39.5001V44.2181" stroke="#231D36" stroke-miterlimit="10" stroke-linecap="round" stroke-linejoin="round"></path>
        <path d="M35.0957 39.5001V44.2181" stroke="#231D36" stroke-miterlimit="10" stroke-linecap="round" stroke-linejoin="round"></path>
        <path d="M34.7582 34.782H29.2385C27.4907 34.782 26.0605 36.2121 26.0605 37.96V43.3832C26.0605 43.8442 26.4343 44.218 26.8954 44.218H37.1013C37.5624 44.218 37.9362 43.8442 37.9362 43.3832V37.96C37.9362 36.2121 36.5061 34.782 34.7582 34.782Z" stroke="#231D36" stroke-miterlimit="10" stroke-linecap="round" stroke-linejoin="round"></path>
        <path d="M13.0007 27.8666C11.0989 27.8666 9.54297 29.4226 9.54297 31.3243C9.54297 33.2261 11.0989 34.782 13.0007 34.782C14.9025 34.782 16.4584 33.2261 16.4584 31.3243C16.4584 29.4226 14.9025 27.8666 13.0007 27.8666Z" stroke="#231D36" stroke-miterlimit="10" stroke-linecap="round" stroke-linejoin="round"></path>
        <path d="M9.90234 39.5001V44.2181" stroke="#231D36" stroke-miterlimit="10" stroke-linecap="round" stroke-linejoin="round"></path>
        <path d="M16.0977 39.5001V44.2181" stroke="#231D36" stroke-miterlimit="10" stroke-linecap="round" stroke-linejoin="round"></path>
        <path d="M15.7602 34.782H10.2404C8.49266 34.782 7.0625 36.2121 7.0625 37.9601V43.3832C7.0625 43.8443 7.43621 44.218 7.89737 44.218H18.1032C18.5643 44.218 18.9381 43.8443 18.9381 43.3832V37.96C18.9381 36.2121 17.508 34.782 15.7602 34.782Z" stroke="#231D36" stroke-miterlimit="10" stroke-linecap="round" stroke-linejoin="round"></path>
        <path d="M44.3396 36.6787C44.3388 37.3879 43.7632 37.96 43.0569 37.96H37.9375V41.1531H43.0569C43.7632 41.1531 44.3388 40.5811 44.3396 39.8719C44.3396 39.8713 44.3397 39.8709 44.3397 39.8704V36.6771C44.3397 36.6777 44.3396 36.6782 44.3396 36.6787Z" stroke="#231D36" stroke-miterlimit="10" stroke-linecap="round" stroke-linejoin="round"></path>
        <path d="M7.06237 37.96C3.98963 37.96 2.00137 37.96 1.94292 37.96C1.41013 37.96 0.953448 37.6351 0.759649 37.1727C0.699532 37.0214 0.66042 36.871 0.660244 36.6787C0.660244 36.6782 0.660156 36.6777 0.660156 36.6772V39.8703C0.660156 39.8709 0.660244 39.8714 0.660244 39.8719C0.66042 40.0641 0.699444 40.2145 0.759561 40.366C0.95336 40.8283 1.41013 41.1532 1.94292 41.1532H7.06237V37.96Z" stroke="#231D36" stroke-miterlimit="10" stroke-linecap="round" stroke-linejoin="round"></path>
        <path d="M23.9918 41.1531H26.0608V37.96H18.9375V41.1531H20.9157" stroke="#231D36" stroke-miterlimit="10" stroke-linecap="round" stroke-linejoin="round"></path>
        <path d="M44.3391 26.2888V18.4162C44.3391 18.4157 44.339 18.4151 44.339 18.4147C44.3382 17.7092 43.7663 17.1334 43.0562 17.1334H24.3295V20.4833H27.49C28.178 20.4833 28.7409 21.0462 28.7409 21.7343V25.5818C28.7409 26.2698 28.178 26.8328 27.49 26.8328H26.7279C26.5231 26.8328 26.3572 26.9987 26.3572 27.2034V29.7548C26.3572 30.0217 26.0222 30.1412 25.8533 29.9345L23.5781 27.1508C23.4135 26.9495 23.1674 26.8328 22.9075 26.8328H18.545C17.857 26.8328 17.2941 26.2698 17.2941 25.5818V21.9714H14.1336C13.4456 21.9714 12.8827 21.4084 12.8827 20.7204V17.1334H1.94292C1.41013 17.1334 0.953446 17.4583 0.759647 17.9207L0.759559 17.9206C0.69786 18.0758 0.660421 18.225 0.660245 18.4146C0.660245 18.4151 0.660156 18.4157 0.660156 18.4162V36.6771C0.660156 36.6777 0.660245 36.6782 0.660245 36.6787C0.660421 36.871 0.699442 37.0214 0.759559 37.1728L0.759647 37.1727C0.953446 37.6351 1.41013 37.96 1.94292 37.96H7.06237C7.06237 36.2121 8.49253 34.782 10.2403 34.782H15.76C17.5079 34.782 18.938 36.2121 18.938 37.96H26.0612C26.0613 36.2121 27.4914 34.782 29.2392 34.782H34.7589C36.5068 34.782 37.9369 36.2121 37.9369 37.96H43.0562C43.7626 37.96 44.3382 37.3879 44.339 36.6786C44.339 36.6782 44.3391 36.6777 44.3391 36.6771V29.365" stroke="#231D36" stroke-miterlimit="10" stroke-linecap="round" stroke-linejoin="round"></path>
      </g>
    </g>
  </g>
  <defs>
    <clipPath id="clip0_2228_18351">
      <rect width="45" height="45" fill="white"></rect>
    </clipPath>
  </defs>
</svg>
