<?xml version="1.0" encoding="UTF-8"?>
<svg xmlns="http://www.w3.org/2000/svg" width="50" height="50" viewBox="0 0 50 50" fill="none">
  <path d="M32.2578 41.7595V49.2676" stroke="#231D36" stroke-miterlimit="10" stroke-linecap="round" stroke-linejoin="round"></path>
  <path d="M10.7998 11.0374L10.7949 8.93506C10.7949 7.30742 12.1142 5.98799 13.7414 5.98799C15.3688 5.98799 16.6879 7.30723 16.6879 8.93447V10.6194V6.87354C16.6879 5.24619 18.0071 3.92705 19.6344 3.92705C21.2617 3.92705 22.5809 5.16934 22.5809 6.87412V8.94922V5.27627C22.5809 3.64893 23.9001 2.32979 25.5273 2.32979C27.1547 2.32979 28.4738 3.64902 28.4738 5.27627V7.74248V3.67949C28.4738 2.05186 29.8034 0.732422 31.4436 0.732422C33.0837 0.732422 34.4133 2.05186 34.4133 3.67949V10.6654V6.11914C37.0607 6.11914 39.2072 8.26563 39.2063 10.9131V19.67C39.2063 22.1051 38.3792 24.4677 36.8601 26.3709C35.8083 27.6886 34.6754 29.1124 34.093 29.8584C32.8876 31.4024 32.257 33.3174 32.257 35.2764V38.3415" stroke="#231D36" stroke-miterlimit="10" stroke-linecap="round" stroke-linejoin="round"></path>
  <path d="M14.2191 49.2675V34.6123C14.2191 33.0602 13.8828 31.5265 13.2333 30.1168L11.7917 26.9881C11.1436 25.5814 10.8072 24.0511 10.8059 22.5022L10.7988 14.4553" stroke="#231D36" stroke-miterlimit="10" stroke-linecap="round" stroke-linejoin="round"></path>
  <path d="M26.1112 20.1356C25.9041 19.534 25.5064 19.0212 24.9905 18.6688C24.9972 18.6033 25.0006 18.5368 25.0006 18.4695C25.0006 17.3908 24.1262 16.5164 23.0475 16.5164C22.5604 16.5164 22.116 16.6958 21.7739 16.9907C21.4973 16.2483 20.7841 15.7185 19.9453 15.7185C18.8666 15.7185 17.9922 16.5929 17.9922 17.6716C17.9922 17.8817 18.0263 18.0836 18.0877 18.2733C18.0559 18.2717 18.0244 18.2685 17.9922 18.2685C16.9135 18.2685 16.0391 19.1429 16.0391 20.2216C16.0391 20.7686 16.2646 21.2625 16.6269 21.6169C16.5623 21.8794 16.5273 22.1536 16.5273 22.436C16.5273 24.3237 18.0576 25.854 19.9453 25.854C21.2703 25.854 22.4184 25.0995 22.9856 23.9971C23.1021 24.0112 23.2203 24.0193 23.3404 24.0193C24.0604 24.0193 24.7197 23.7596 25.2298 23.3288" stroke="#231D36" stroke-miterlimit="10" stroke-linecap="round" stroke-linejoin="round"></path>
  <path d="M33.1764 31.2853C32.7675 31.1124 32.3617 31.0349 31.8898 31.0349C30.2146 31.0349 28.822 32.2404 28.5294 33.831C28.3994 33.8038 28.2649 33.789 28.127 33.789C27.0482 33.789 26.1738 34.6634 26.1738 35.7421C26.1738 36.5171 26.6264 37.1847 27.2807 37.5003C27.1961 37.7741 27.1504 38.0649 27.1504 38.3665C27.1504 39.6721 28.0047 40.7778 29.1847 41.1562C29.0402 41.5029 28.9602 41.8832 28.9602 42.2822C28.9602 43.9002 30.2718 45.2119 31.8898 45.2119C32.0147 45.2119 32.1077 45.2041 32.2285 45.1889" stroke="#231D36" stroke-miterlimit="10" stroke-linecap="round" stroke-linejoin="round"></path>
  <path d="M30.8418 16.5869C31.6508 16.5869 32.3066 15.9311 32.3066 15.1221C32.3066 14.3131 31.6508 13.6572 30.8418 13.6572C30.0328 13.6572 29.377 14.3131 29.377 15.1221C29.377 15.9311 30.0328 16.5869 30.8418 16.5869Z" stroke="#231D36" stroke-miterlimit="10" stroke-linecap="round" stroke-linejoin="round"></path>
  <path d="M33.2188 23.4396C34.2974 23.4396 35.1719 22.5651 35.1719 21.4865C35.1719 20.4078 34.2974 19.5333 33.2188 19.5333C32.1401 19.5333 31.2656 20.4078 31.2656 21.4865C31.2656 22.5651 32.1401 23.4396 33.2188 23.4396Z" stroke="#231D36" stroke-miterlimit="10" stroke-linecap="round" stroke-linejoin="round"></path>
  <path d="M19.1641 39.6683C20.2427 39.6683 21.1172 38.7939 21.1172 37.7152C21.1172 36.6365 20.2427 35.7621 19.1641 35.7621C18.0854 35.7621 17.2109 36.6365 17.2109 37.7152C17.2109 38.7939 18.0854 39.6683 19.1641 39.6683Z" stroke="#231D36" stroke-miterlimit="10" stroke-linecap="round" stroke-linejoin="round"></path>
  <path d="M22.6875 45.1494C23.4965 45.1494 24.1523 44.4936 24.1523 43.6846C24.1523 42.8756 23.4965 42.2197 22.6875 42.2197C21.8785 42.2197 21.2227 42.8756 21.2227 43.6846C21.2227 44.4936 21.8785 45.1494 22.6875 45.1494Z" stroke="#231D36" stroke-miterlimit="10" stroke-linecap="round" stroke-linejoin="round"></path>
</svg>
