<svg width="66" height="67" viewBox="0 0 66 67" fill="none" xmlns="http://www.w3.org/2000/svg">
<path fill-rule="evenodd" clip-rule="evenodd" d="M55.9463 26.5944C53.5538 27.9749 52.2256 30.5681 52.2503 33.3291C52.2503 33.3814 52.2503 33.4336 52.2503 33.4859C52.2503 33.5381 52.2503 33.5931 52.2503 33.6454C52.2256 36.4064 53.5538 38.9996 55.9463 40.3801L55.9683 40.3939C57.5936 41.3316 59.7083 40.4049 60.0521 38.5596C60.6818 35.1716 60.6516 31.7314 60.0218 28.4121C59.6726 26.5724 57.5661 25.6594 55.9463 26.5944V26.5944V26.5944Z" stroke="#6579F4" stroke-width="3" stroke-linecap="round" stroke-linejoin="round"/>
<path fill-rule="evenodd" clip-rule="evenodd" d="M23.7778 16.6009C23.5276 16.7384 23.2801 16.8814 23.0353 17.0299C20.7501 18.4214 17.8763 18.3966 15.5581 17.0574V17.0574C13.9466 16.1279 13.6633 13.8564 15.0713 12.6409C17.6426 10.4189 20.6263 8.6616 23.8988 7.5121C25.6588 6.89335 27.4958 8.27385 27.4958 10.1384V10.1604C27.4958 12.8196 26.1071 15.3221 23.7778 16.6009V16.6009Z" stroke="#6579F4" stroke-width="3" stroke-linecap="round" stroke-linejoin="round"/>
<path fill-rule="evenodd" clip-rule="evenodd" d="M42.2451 50.3599C42.4898 50.2251 42.7318 50.0849 42.9711 49.9391C45.2563 48.5476 48.1301 48.5724 50.4483 49.9116V49.9116C52.0598 50.8411 52.3431 53.1126 50.9351 54.3281C48.3638 56.5501 45.3801 58.3074 42.1076 59.4596C40.3476 60.0811 38.5078 58.7006 38.5078 56.8334V56.8334C38.5078 54.1631 39.9048 51.6496 42.2451 50.3599V50.3599Z" stroke="#6579F4" stroke-width="3" stroke-linecap="round" stroke-linejoin="round"/>
<path fill-rule="evenodd" clip-rule="evenodd" d="M10.0554 40.3773V40.3773C8.43565 41.3123 6.32915 40.3993 5.9799 38.5623C5.35015 35.2431 5.3199 31.8001 5.94965 28.4121C6.2934 26.5668 8.4054 25.6401 10.0306 26.5778L10.0554 26.5916C12.4479 27.9721 13.7761 30.5653 13.7514 33.3263C13.7514 33.3786 13.7514 33.4336 13.7514 33.4858C13.7514 33.5381 13.7514 33.5903 13.7514 33.6426C13.7761 36.4036 12.4479 38.9968 10.0554 40.3773V40.3773Z" stroke="#6579F4" stroke-width="3" stroke-linecap="round" stroke-linejoin="round"/>
<path fill-rule="evenodd" clip-rule="evenodd" d="M38.5078 10.1631V10.1631C38.5078 8.29308 40.3531 6.92633 42.1158 7.54233C45.3058 8.65608 48.3033 10.3501 50.9241 12.5941C52.3486 13.8151 52.0956 16.1058 50.4703 17.0436L50.4456 17.0573C48.1273 18.3938 45.2563 18.4213 42.9711 17.0298C42.7263 16.8813 42.4788 16.7356 42.2258 16.5981C39.8966 15.3221 38.5078 12.8196 38.5078 10.1631H38.5078Z" stroke="#6579F4" stroke-width="3" stroke-linecap="round" stroke-linejoin="round"/>
<path fill-rule="evenodd" clip-rule="evenodd" d="M27.4968 56.8087V56.8087C27.4968 58.6787 25.6515 60.0454 23.8888 59.4294C20.6988 58.3157 17.7013 56.6217 15.0805 54.3777C13.656 53.1567 13.909 50.8659 15.5343 49.9282V49.9282C17.8663 48.5807 20.7565 48.5587 23.061 49.9557C23.2975 50.0987 23.5368 50.2389 23.7815 50.3709C26.108 51.6497 27.4968 54.1522 27.4968 56.8087V56.8087Z" stroke="#6579F4" stroke-width="3" stroke-linecap="round" stroke-linejoin="round"/>
<path fill-rule="evenodd" clip-rule="evenodd" d="M33 25.2366L41.2506 33.4872L33 41.7378L24.7494 33.4872L33 25.2366Z" stroke="#6579F4" stroke-width="3" stroke-linecap="round" stroke-linejoin="round"/>
</svg>
