<svg width="66" height="67" viewBox="0 0 66 67" fill="none" xmlns="http://www.w3.org/2000/svg">
<path fill-rule="evenodd" clip-rule="evenodd" d="M50.6422 18.3905L42.8619 10.6102C41.8303 9.57827 40.431 8.99805 38.9718 8.99805H19.2406C16.2017 8.99805 13.7383 11.4615 13.7383 14.5003V53.0164C13.7383 56.0552 16.2017 58.5187 19.2406 58.5187H46.752C49.7909 58.5187 52.2543 56.0552 52.2543 53.0164V22.2806C52.2543 20.8214 51.6741 19.4221 50.6422 18.3905Z" stroke="#6579F4" stroke-width="2.5" stroke-linecap="round" stroke-linejoin="round"/>
<path d="M29.6577 32.8972C29.7336 32.9732 29.7336 33.0963 29.6577 33.1723C29.5817 33.2483 29.4585 33.2483 29.3825 33.1723C29.3066 33.0963 29.3066 32.9732 29.3825 32.8972C29.4585 32.8212 29.5817 32.8212 29.6577 32.8972" stroke="#6579F4" stroke-width="2.5" stroke-linecap="round" stroke-linejoin="round"/>
<path d="M42.6252 34.4875C39.665 34.0326 36.6544 34.8993 34.3891 36.8585C32.1239 38.8176 30.8323 41.672 30.8558 44.6668C30.859 45.1596 30.8985 45.6516 30.9741 46.1386" stroke="#6579F4" stroke-width="2.5" stroke-linecap="round" stroke-linejoin="round"/>
<rect x="23.3672" y="26.8806" width="19.258" height="19.258" rx="2.1" stroke="#6579F4" stroke-width="2.5" stroke-linecap="round" stroke-linejoin="round"/>
</svg>
