<svg width="66" height="67" viewBox="0 0 66 67" fill="none" xmlns="http://www.w3.org/2000/svg">
<path d="M33 58.2358C19.3297 58.2358 8.25 47.1561 8.25 33.4858C8.25 19.8156 19.3297 8.73584 33 8.73584C46.6703 8.73584 57.75 19.8156 57.75 33.4858" stroke="#6579F4" stroke-width="3" stroke-linecap="round" stroke-linejoin="round"/>
<path d="M9.65234 25.2358H56.3473" stroke="#6579F4" stroke-width="3" stroke-linecap="round" stroke-linejoin="round"/>
<path d="M9.65234 41.7358H38.4998" stroke="#6579F4" stroke-width="3" stroke-linecap="round" stroke-linejoin="round"/>
<path d="M43.9986 33.4859C43.9986 25.8849 42.0104 18.2839 38.0394 11.6509C35.7101 7.76513 30.2871 7.76513 27.9606 11.6509C20.0131 24.9196 20.0131 42.0549 27.9606 55.3236C29.1239 57.2651 31.0599 58.2359 32.9986 58.2359" stroke="#6579F4" stroke-width="3" stroke-linecap="round" stroke-linejoin="round"/>
<path d="M57.1303 56.9984C56.7893 56.9984 56.5115 57.2789 56.5115 57.6172C56.5115 57.9554 56.7893 58.2359 57.1303 58.2359C57.4685 58.2359 57.749 57.9582 57.7463 57.6172C57.749 57.2762 57.474 56.9984 57.1303 56.9984" stroke="#6579F4" stroke-width="3" stroke-linecap="round" stroke-linejoin="round"/>
<path d="M57.75 49.9858C52.921 50.0931 49.6073 53.4068 49.5 58.2358" stroke="#6579F4" stroke-width="3" stroke-linecap="round" stroke-linejoin="round"/>
<path d="M41.25 58.2358C41.2747 56.1486 41.6268 54.1933 42.2593 52.4031C43.8763 47.8243 47.3385 44.3621 51.92 42.7423C53.7075 42.1126 55.6627 41.7606 57.75 41.7358" stroke="#6579F4" stroke-width="3" stroke-linecap="round" stroke-linejoin="round"/>
</svg>
