<svg width="66" height="66" viewBox="0 0 66 66" fill="none" xmlns="http://www.w3.org/2000/svg">
<path d="M30.2494 57.7605V27.0247C30.2491 25.5655 29.6692 24.1662 28.6372 23.1346L19.2448 13.7422L9.85241 23.1346C8.82045 24.1662 8.24055 25.5655 8.24023 27.0247V57.7605" stroke="#6579F4" stroke-width="3" stroke-linecap="round" stroke-linejoin="round"/>
<path d="M19.2447 33V55.0092" stroke="#6579F4" stroke-width="3" stroke-linecap="round" stroke-linejoin="round"/>
<path d="M8.73828 24.7467H29.7488" stroke="#6579F4" stroke-width="3" stroke-linecap="round" stroke-linejoin="round"/>
<path d="M19.2447 8.23975V13.742" stroke="#6579F4" stroke-width="3" stroke-linecap="round" stroke-linejoin="round"/>
<path d="M38.502 57.7605V30.4362C38.5023 29.5341 38.9448 28.6895 39.6863 28.1758C40.4278 27.662 41.3741 27.5445 42.2188 27.8611L55.9745 33.0195C57.0481 33.4219 57.7595 34.448 57.76 35.5946V57.7605" stroke="#6579F4" stroke-width="3" stroke-linecap="round" stroke-linejoin="round"/>
<path d="M60.5112 57.7603H5.48828" stroke="#6579F4" stroke-width="3" stroke-linecap="round" stroke-linejoin="round"/>
<path d="M45.3809 41.2535H50.8832" stroke="#6579F4" stroke-width="3" stroke-linecap="round" stroke-linejoin="round"/>
<path d="M45.3809 49.5069H50.8832" stroke="#6579F4" stroke-width="3" stroke-linecap="round" stroke-linejoin="round"/>
</svg>
