<svg width="66" height="67" viewBox="0 0 66 67" fill="none" xmlns="http://www.w3.org/2000/svg">
<path d="M38.4972 14.2358C38.5 11.1971 32.34 8.73584 24.75 8.73584C17.16 8.73584 11.0055 11.1998 11 14.2358C11 17.2746 17.1545 19.7358 24.75 19.7358C32.3455 19.7358 38.5 17.2746 38.5 14.2358" stroke="#6579F4" stroke-width="3" stroke-linecap="round" stroke-linejoin="round"/>
<path d="M38.5 14.2358V35.5758" stroke="#6579F4" stroke-width="3" stroke-linecap="round" stroke-linejoin="round"/>
<path d="M11.0039 25.2358C11.0039 28.2746 17.1584 30.7358 24.7539 30.7358C32.3494 30.7358 38.5039 28.2746 38.5039 25.2358" stroke="#6579F4" stroke-width="3" stroke-linecap="round" stroke-linejoin="round"/>
<path d="M54.1248 37.1104C58.9566 41.9421 58.9566 49.7796 54.1248 54.6114C49.2931 59.4431 41.4556 59.4431 36.6238 54.6114C31.7921 49.7796 31.7921 41.9421 36.6238 37.1104C41.4556 32.2786 49.2931 32.2786 54.1248 37.1104" stroke="#6579F4" stroke-width="3" stroke-linecap="round" stroke-linejoin="round"/>
<path d="M34.3899 40.1546C31.9094 41.1308 28.5077 41.7358 24.7512 41.7358C17.1584 41.7358 11.0039 39.2746 11.0039 36.2358" stroke="#6579F4" stroke-width="3" stroke-linecap="round" stroke-linejoin="round"/>
<path d="M34.2237 51.2068C31.757 52.1501 28.4322 52.7358 24.75 52.7358C17.1573 52.7358 11.0028 50.2746 11 47.2358V14.2358" stroke="#6579F4" stroke-width="3" stroke-linecap="round" stroke-linejoin="round"/>
</svg>
