<svg width="66" height="67" viewBox="0 0 66 67" fill="none" xmlns="http://www.w3.org/2000/svg">
<path d="M13.7406 8.72546C10.7017 8.72546 8.23828 11.1889 8.23828 14.2278" stroke="#6579F4" stroke-width="3" stroke-linecap="round" stroke-linejoin="round"/>
<path d="M8.23885 23.389V28.8913" stroke="#6579F4" stroke-width="3" stroke-linecap="round" stroke-linejoin="round"/>
<path d="M22.9023 8.72543H28.4046" stroke="#6579F4" stroke-width="3" stroke-linecap="round" stroke-linejoin="round"/>
<path d="M52.2578 58.2461C55.2966 58.2461 57.7601 55.7826 57.7601 52.7438" stroke="#6579F4" stroke-width="3" stroke-linecap="round" stroke-linejoin="round"/>
<path d="M57.7584 43.5825V38.0802" stroke="#6579F4" stroke-width="3" stroke-linecap="round" stroke-linejoin="round"/>
<path d="M43.096 58.2461H37.5938" stroke="#6579F4" stroke-width="3" stroke-linecap="round" stroke-linejoin="round"/>
<path fill-rule="evenodd" clip-rule="evenodd" d="M46.7544 5.97437C39.4152 13.6765 39.4152 25.7837 46.7544 33.4858C54.0936 25.7837 54.0936 13.6765 46.7544 5.97437V5.97437Z" stroke="#6579F4" stroke-width="3" stroke-linecap="round" stroke-linejoin="round"/>
<path d="M46.7539 33.4858C54.0931 25.7837 54.0931 13.6765 46.7539 5.97437" stroke="#6579F4" stroke-width="3" stroke-linecap="round" stroke-linejoin="round"/>
<path fill-rule="evenodd" clip-rule="evenodd" d="M60.5115 19.73C60.5115 27.3271 54.3528 33.4857 46.7557 33.4857C39.1587 33.4857 33 27.3271 33 19.73C33 12.1329 39.1587 5.97426 46.7557 5.97426C50.4058 5.96842 53.908 7.4158 56.489 9.99677C59.0699 12.5777 60.5173 16.08 60.5115 19.73Z" stroke="#6579F4" stroke-width="3" stroke-linecap="round" stroke-linejoin="round"/>
<path d="M33 19.7301H60.5115" stroke="#6579F4" stroke-width="3" stroke-linecap="round" stroke-linejoin="round"/>
<path fill-rule="evenodd" clip-rule="evenodd" d="M31.2269 52.796L22.3296 57.8004C21.2692 58.3948 19.9759 58.3948 18.9155 57.8004L10.0128 52.7988C8.91762 52.181 8.23967 51.0217 8.23828 49.7643V41.9703C8.24091 40.7154 8.91892 39.5591 10.0128 38.944L18.91 33.9397C19.9714 33.3453 21.2655 33.3453 22.3269 33.9397L31.2241 38.944C32.3163 39.5608 32.9937 40.716 32.9986 41.9703V49.7643C32.9986 51.0206 32.3214 52.1793 31.2269 52.796V52.796Z" stroke="#6579F4" stroke-width="3" stroke-linecap="round" stroke-linejoin="round"/>
<path d="M20.6178 58.2461V46.8949" stroke="#6579F4" stroke-width="3" stroke-linecap="round" stroke-linejoin="round"/>
<path d="M8.70703 40.2124L20.6167 46.8949L32.5237 40.2124" stroke="#6579F4" stroke-width="3" stroke-linecap="round" stroke-linejoin="round"/>
</svg>
