<?xml version="1.0" encoding="UTF-8"?>
<svg xmlns="http://www.w3.org/2000/svg" width="58" height="58" viewBox="0 0 58 58" fill="none">
  <path d="M41.3369 17.4186C48.1509 24.2326 48.1509 35.2803 41.3369 42.0942C34.5229 48.9082 23.4752 48.9082 16.6613 42.0942C9.84728 35.2802 9.84728 24.2325 16.6613 17.4186C23.4753 10.6046 34.523 10.6046 41.3369 17.4186" stroke="#231D36" stroke-width="2" stroke-linecap="round" stroke-linejoin="round"></path>
  <path d="M28.9974 12.301V47.1977" stroke="#231D36" stroke-width="2" stroke-linecap="round" stroke-linejoin="round"></path>
  <path d="M46.4475 29.7493H11.5508" stroke="#231D36" stroke-width="2" stroke-linecap="round" stroke-linejoin="round"></path>
  <path d="M46.6919 16.0491C37.3394 25.2711 20.6572 25.2711 11.3047 16.0491" stroke="#231D36" stroke-width="2" stroke-linecap="round" stroke-linejoin="round"></path>
  <path d="M52.055 10.7618C53.5357 12.2218 53.5357 14.5889 52.055 16.0489C50.5742 17.5089 48.1734 17.5089 46.6926 16.0489C45.2118 14.5889 45.2118 12.2218 46.6926 10.7618C48.1734 9.30175 50.5742 9.30175 52.055 10.7618" stroke="#231D36" stroke-width="2" stroke-linecap="round" stroke-linejoin="round"></path>
  <path d="M11.305 10.7618C12.7857 12.2218 12.7857 14.5889 11.305 16.0489C9.82418 17.5089 7.42337 17.5089 5.94261 16.0489C4.46184 14.5889 4.46184 12.2218 5.94261 10.7618C7.42338 9.30175 9.82419 9.30175 11.305 10.7618" stroke="#231D36" stroke-width="2" stroke-linecap="round" stroke-linejoin="round"></path>
  <path d="M11.3047 44.3677C20.6572 35.1457 37.3394 35.1457 46.6919 44.3677" stroke="#231D36" stroke-width="2" stroke-linecap="round" stroke-linejoin="round"></path>
  <path d="M11.305 44.368C12.7857 45.828 12.7857 48.1951 11.305 49.6551C9.82418 51.1151 7.42337 51.1151 5.94261 49.6551C4.46184 48.1951 4.46184 45.828 5.94261 44.368C7.42338 42.9079 9.82419 42.9079 11.305 44.368" stroke="#231D36" stroke-width="2" stroke-linecap="round" stroke-linejoin="round"></path>
  <path d="M52.055 44.368C53.5357 45.828 53.5357 48.1951 52.055 49.6551C50.5742 51.1151 48.1734 51.1151 46.6926 49.6551C45.2118 48.1951 45.2118 45.828 46.6926 44.368C48.1734 42.9079 50.5742 42.9079 52.055 44.368" stroke="#231D36" stroke-width="2" stroke-linecap="round" stroke-linejoin="round"></path>
</svg>
