<svg width="35" height="35" viewBox="0 0 35 35" fill="none" xmlns="http://www.w3.org/2000/svg">
<path d="M30.6782 11.4404H28.1553V6.47548C28.1553 5.62529 27.8172 4.83287 27.2639 4.25353L25.6337 2.54769C24.2502 1.12226 24.0756 0.719551 23.2516 0.31958C22.8688 0.128516 22.3644 0 21.8558 0H9.94812C8.17426 0 6.73167 1.44327 6.73167 3.21645V20.5618H6.05334C5.03 20.5618 4.19773 21.3941 4.19773 22.4174C4.19773 22.9267 4.4039 23.3879 4.73654 23.7232C4.4039 24.0586 4.19773 24.5198 4.19773 25.029C4.19773 25.2201 4.22452 25.3335 4.23416 25.3961C0.207385 25.8057 -1.39674 30.7897 1.55031 33.4949C2.44034 34.312 3.62173 34.7752 4.90279 34.723C5.32614 34.723 14.0421 34.7196 14.0531 34.7196C15.0758 34.7196 15.9087 33.8873 15.9087 32.864C15.9087 32.3547 15.7025 31.8935 15.3699 31.5582C15.6827 31.2427 15.8833 30.8173 15.906 30.3445H16.6022V30.7163C16.6022 33.0784 18.5238 35 20.886 35H30.6782C33.0404 35 34.962 33.0784 34.962 30.7163V15.7241C34.962 13.3619 33.0404 11.4404 30.6782 11.4404ZM26.3011 4.83841C26.3011 4.83841 26.3017 4.83841 26.3024 4.83978C26.3031 4.83978 26.3031 4.83978 26.3031 4.83978C26.3038 4.84114 26.3052 4.84251 26.3058 4.84319L26.3065 4.84388C26.3079 4.84593 26.3093 4.84729 26.3106 4.84798C26.3113 4.84866 26.312 4.84935 26.3127 4.85071C26.3134 4.8514 26.314 4.8514 26.314 4.85208C26.3147 4.85276 26.3154 4.85276 26.3161 4.85413C26.3175 4.85481 26.3181 4.85618 26.3188 4.85687H23.5635V1.94428C25.7231 4.22673 26.2097 4.74147 26.3011 4.83841ZM6.05334 21.6614H14.0532C14.4697 21.6614 14.8092 22.001 14.8092 22.4174C14.8092 22.8346 14.4696 23.1734 14.0532 23.1734H6.05334C5.63683 23.1734 5.29736 22.8346 5.29736 22.4174C5.29729 22.0009 5.63683 21.6614 6.05334 21.6614ZM6.05334 24.273H14.0532C14.4697 24.273 14.8092 24.6126 14.8092 25.029C14.8092 25.4462 14.4696 25.785 14.0532 25.785H8.52747C8.30271 25.6819 8.06974 25.5981 7.83123 25.5335C7.47522 25.4365 7.10683 25.3816 6.73161 25.3719C6.62373 25.3692 6.51579 25.3699 6.40792 25.3747H5.38185C5.32757 25.2709 5.29729 25.1534 5.29729 25.029C5.29729 24.6126 5.63683 24.273 6.05334 24.273ZM14.8092 27.6407C14.8092 28.0579 14.4696 28.3967 14.0532 28.3967H10.9762C10.7673 27.8407 10.4525 27.3286 10.0429 26.8847H14.0532C14.4696 26.8847 14.8092 27.2242 14.8092 27.6407ZM3.37844 26.6538C3.04375 26.9713 2.74612 27.3486 2.51246 27.7644H1.87194C2.2905 27.2455 2.81078 26.8764 3.37844 26.6538ZM1.28705 28.7953H2.08775C2.06991 28.8723 1.97912 29.1685 1.9379 29.6194H1.09189C1.1249 29.3362 1.19019 29.0599 1.28705 28.7953ZM1.37572 31.5204C1.2541 31.2441 1.16681 30.952 1.11732 30.6503H1.95718C2.10771 31.5039 2.11591 31.3568 2.15371 31.5204H1.37572ZM2.06163 32.5512C2.39906 32.5505 2.59497 32.5526 2.64098 32.5499C2.84647 32.8742 3.09386 33.1746 3.38049 33.4447C2.88222 33.2488 2.43898 32.9499 2.06163 32.5512ZM6.75293 33.6928C4.74132 33.7794 3.03822 32.2214 2.95297 30.2049C2.81482 26.9947 6.6491 25.1459 9.06348 27.3623C11.4436 29.5472 9.99481 33.5595 6.75293 33.6928ZM14.0532 33.62H9.61548C10.1068 33.2041 10.5103 32.6894 10.7969 32.108H14.0532C14.4697 32.108 14.8092 32.4475 14.8092 32.864C14.8092 33.2811 14.4696 33.62 14.0532 33.62ZM14.803 30.3445C14.7576 30.7183 14.4387 31.0084 14.0532 31.0084H11.1763C11.2759 30.5314 11.3041 30.0173 11.2429 29.4964H14.0532C14.5164 29.4963 14.8621 29.9108 14.803 30.3445ZM16.6022 29.2448H15.6098C15.5404 29.1369 15.4599 29.0372 15.3699 28.9465C16.0881 28.2221 16.0888 27.0592 15.3699 26.3349C15.7025 25.9995 15.9087 25.5384 15.9087 25.0291C15.9087 24.5198 15.7025 24.0587 15.3699 23.7233C16.5259 22.5577 15.6998 20.5619 14.0531 20.5619H7.83123V3.21645C7.83123 2.04948 8.78102 1.09963 9.94805 1.09963H22.464V5.40675C22.464 5.71054 22.71 5.95656 23.0138 5.95656H26.9903C27.1051 6.40192 27.0343 6.25481 27.0556 11.4403H20.886C18.5238 11.4403 16.6022 13.3619 16.6022 15.724V29.2448ZM33.9311 30.7163C33.9311 32.51 32.4721 33.9691 30.6782 33.9691H20.886C19.093 33.9691 17.6332 32.5101 17.6332 30.7163V15.7241C17.6332 13.9303 19.0929 12.4712 20.886 12.4712H30.6783C32.4721 12.4712 33.9312 13.9303 33.9312 15.7241V30.7163H33.9311Z" fill="#3E3465"/>
<path d="M30.6413 13.6403H20.9219C19.9662 13.6403 19.1914 14.415 19.1914 15.3708V17.2574C19.1914 18.2131 19.9662 18.9879 20.9219 18.9879H22.792C23.0766 18.9879 23.3074 18.7571 23.3074 18.4724C23.3074 18.1878 23.0766 17.957 22.792 17.957H20.9219C20.5371 17.957 20.2223 17.6422 20.2223 17.2574V15.3708C20.2223 14.986 20.5371 14.6711 20.9219 14.6711H30.6413C31.0276 14.6711 31.341 14.9852 31.341 15.3708V17.2574C31.341 17.6429 31.0276 17.957 30.6413 17.957H25.0147C24.73 17.957 24.4992 18.1878 24.4992 18.4724C24.4992 18.7571 24.73 18.9879 25.0147 18.9879H30.6413C31.596 18.9879 32.3718 18.2112 32.3718 17.2574V15.3708C32.3718 14.4169 31.5959 13.6403 30.6413 13.6403Z" fill="#3E3465"/>
<path d="M22.0319 24.502H20.2704C19.6759 24.502 19.1914 24.9858 19.1914 25.5809V27.3417C19.1914 27.9369 19.6759 28.4207 20.2704 28.4207H22.0319C22.6271 28.4207 23.1109 27.9369 23.1109 27.3417V25.5809C23.1109 24.9858 22.627 24.502 22.0319 24.502ZM22.0799 27.3417C22.0799 27.3685 22.0579 27.3899 22.0318 27.3899H20.2703C20.2442 27.3899 20.2222 27.3685 20.2222 27.3417V25.5809C20.2222 25.5541 20.2442 25.5328 20.2703 25.5328H22.0318C22.0579 25.5328 22.0799 25.5541 22.0799 25.5809V27.3417Z" fill="#3E3465"/>
<path d="M31.3495 19.8972H29.5887C28.9935 19.8972 28.5098 20.3811 28.5098 20.9762V22.737C28.5098 23.3322 28.9936 23.816 29.5887 23.816H31.3495C31.9448 23.816 32.4285 23.3321 32.4285 22.737V20.9762C32.4285 20.3811 31.9447 19.8972 31.3495 19.8972ZM31.3977 22.737C31.3977 22.7638 31.3763 22.7851 31.3495 22.7851H29.5887C29.5626 22.7851 29.5406 22.7638 29.5406 22.737C29.562 20.9948 29.4959 20.9281 29.5887 20.9281H31.3495C31.3763 20.9281 31.3977 20.9494 31.3977 20.9762V22.737Z" fill="#3E3465"/>
<path d="M22.0319 19.8972H20.2704C19.6759 19.8972 19.1914 20.3811 19.1914 20.9762V22.737C19.1914 23.3322 19.6759 23.816 20.2704 23.816H22.0319C22.6271 23.816 23.1109 23.3321 23.1109 22.737V20.9762C23.1109 20.3811 22.627 19.8972 22.0319 19.8972ZM22.0799 22.737C22.0799 22.7638 22.0579 22.7851 22.0318 22.7851H20.2703C20.2442 22.7851 20.2222 22.7638 20.2222 22.737V20.9762C20.2222 20.9494 20.2442 20.9281 20.2703 20.9281H22.0318C22.0579 20.9281 22.0799 20.9494 22.0799 20.9762V22.737Z" fill="#3E3465"/>
<path d="M22.8413 29.2448C22.6433 29.0221 22.3547 28.8812 22.0337 28.8812H20.2722C19.9513 28.8812 19.6626 29.0221 19.4654 29.2448C19.0908 29.6647 19.218 30.1224 19.1932 30.3444V31.721C19.1932 32.3162 19.6778 32.8 20.2722 32.8H22.0337C22.6289 32.8 23.1127 32.3161 23.1127 31.721V30.3444C23.088 30.1273 23.2137 29.6647 22.8413 29.2448ZM22.0337 31.7691C20.2936 31.7478 20.2241 31.8138 20.2241 31.721C20.2241 29.8564 20.2035 29.9121 20.2722 29.9121H22.0337C22.1183 29.9121 22.0661 30.0296 22.0818 30.3444C22.0818 30.3445 22.1265 31.7691 22.0337 31.7691Z" fill="#3E3465"/>
<path d="M31.076 24.502H29.8623C29.1167 24.502 28.5098 25.1088 28.5098 25.8545V31.3231C28.5098 32.1376 29.1723 32.8001 29.9861 32.8001H30.9524C31.7668 32.8001 32.4287 32.1376 32.4287 31.3231V25.8545C32.4286 25.1088 31.8225 24.502 31.076 24.502ZM30.9524 31.7692H29.9861C29.7407 31.7692 29.5407 31.5691 29.5407 31.3231V25.8545C29.5407 25.6772 29.685 25.5329 29.8623 25.5329H31.076C31.2534 25.5329 31.3977 25.6772 31.3977 25.8545V31.3231C31.3977 31.5691 31.1984 31.7692 30.9524 31.7692Z" fill="#3E3465"/>
<path d="M13.3064 14.9726C12.6779 14.7417 12.2239 14.5749 12.2239 13.9926C12.2239 13.4619 12.5764 13.1928 13.2714 13.1928C14.0092 13.1928 14.2078 13.5176 14.4677 13.5176C14.7506 13.5176 14.9071 13.2175 14.9071 13.0098C14.9071 12.5804 14.2066 12.3675 13.5804 12.3113V11.9241C13.5804 11.6548 13.3613 11.4357 13.092 11.4357C12.8227 11.4357 12.6036 11.6548 12.6036 11.9241V12.373C11.7474 12.5763 11.2769 13.1677 11.2769 14.0439C11.2769 15.2436 12.1601 15.5755 12.87 15.8423C13.5649 16.1035 14.1139 16.3098 14.1139 17.1032C14.1139 17.7586 13.75 18.0909 13.0322 18.0909C11.9816 18.0909 11.9718 17.3816 11.5711 17.3816C11.3229 17.3816 11.123 17.6594 11.123 17.8893C11.123 18.2955 11.728 18.8294 12.6036 18.968V19.3421C12.6036 19.6115 12.8227 19.8305 13.092 19.8305C13.3613 19.8305 13.5804 19.6115 13.5804 19.3421V18.9579C14.5223 18.7807 15.061 18.0891 15.061 17.0519C15.0609 15.6172 14.0881 15.2598 13.3064 14.9726Z" fill="#3E3465"/>
<path d="M27.4122 29.1836C27.2184 28.9967 26.9545 28.8812 26.6644 28.8812H24.9029C24.582 28.8812 24.2933 29.0221 24.0954 29.2448C23.7222 29.6654 23.8487 30.1224 23.824 30.3444V31.721C23.824 32.3162 24.3078 32.8 24.9029 32.8H26.6644C27.2589 32.8 27.7427 32.3161 27.7427 31.721V29.9595C27.7427 29.6551 27.6156 29.3795 27.4122 29.1836ZM26.6644 31.7691C24.9243 31.7478 24.8548 31.8138 24.8548 31.721V29.9595C24.8548 29.9334 24.8768 29.9121 24.9029 29.9121H26.6644C26.6905 29.9121 26.7119 29.9334 26.7119 29.9595C26.6912 31.7039 26.7558 31.7691 26.6644 31.7691Z" fill="#3E3465"/>
<path d="M26.6627 19.8972H24.9012C24.306 19.8972 23.8223 20.3811 23.8223 20.9762V22.737C23.8223 23.3322 24.3061 23.816 24.9012 23.816H26.6627C26.8016 23.816 26.9335 23.7899 27.0552 23.7417C27.4565 23.5844 27.7411 23.1933 27.7411 22.7369V20.9761C27.741 20.3789 27.2545 19.8972 26.6627 19.8972ZM26.6627 22.7851H24.9012C24.8751 22.7851 24.8531 22.7638 24.8531 22.737V20.9762C24.8531 20.8834 24.917 20.9487 26.6627 20.9281C26.6888 20.9281 26.7102 20.9494 26.7102 20.9762V22.737C26.7102 22.7638 26.6888 22.7851 26.6627 22.7851Z" fill="#3E3465"/>
<path d="M27.0552 24.5762C26.9336 24.5281 26.8016 24.502 26.6627 24.502H24.9012C24.306 24.502 23.8223 24.9858 23.8223 25.5809V27.3417C23.8223 27.9369 24.3061 28.4207 24.9012 28.4207H26.6627C27.2573 28.4207 27.741 27.9369 27.741 27.3417V25.5809C27.741 25.1246 27.4565 24.7336 27.0552 24.5762ZM26.7102 27.3417C26.7102 27.3685 26.6888 27.3899 26.6627 27.3899H24.9012C24.8751 27.3899 24.8531 27.3685 24.8531 27.3417V25.5809C24.8531 25.5541 24.8751 25.5328 24.9012 25.5328H26.6627C26.6888 25.5328 26.7102 25.5541 26.7102 25.5809V27.3417Z" fill="#3E3465"/>
<path d="M23.6891 7.04382H22.3943C22.1098 7.04382 21.8789 7.27474 21.8789 7.55925C21.8789 7.84445 22.1098 8.07468 22.3943 8.07468H23.6891C23.9736 8.07468 24.2046 7.84445 24.2046 7.55925C24.2046 7.27474 23.9736 7.04382 23.6891 7.04382Z" fill="#3E3465"/>
<path d="M20.3319 7.04382H11.1912C10.9067 7.04382 10.6758 7.27474 10.6758 7.55925C10.6758 7.84445 10.9067 8.07468 11.1912 8.07468H20.332C20.6165 8.07468 20.8474 7.84445 20.8474 7.55925C20.8474 7.27474 20.6165 7.04382 20.3319 7.04382Z" fill="#3E3465"/>
<path d="M12.8296 9.60254H11.1912C10.9067 9.60254 10.6758 9.83346 10.6758 10.118C10.6758 10.4025 10.9067 10.6334 11.1912 10.6334H12.8296C13.1142 10.6334 13.3451 10.4025 13.3451 10.118C13.3451 9.83346 13.1142 9.60254 12.8296 9.60254Z" fill="#3E3465"/>
<path d="M23.6875 9.60254H14.8904C14.6059 9.60254 14.375 9.83346 14.375 10.118C14.375 10.4025 14.6059 10.6334 14.8904 10.6334H23.6875C23.972 10.6334 24.203 10.4025 24.203 10.118C24.203 9.83346 23.972 9.60254 23.6875 9.60254Z" fill="#3E3465"/>
<path d="M6.30473 29.0636C6.30473 28.934 6.35244 28.8968 6.39708 28.8721C6.53558 28.7955 6.85331 28.7729 7.14438 28.9226C7.2217 28.9623 7.30934 29.0074 7.42336 29.0074C7.93175 29.0074 8.33384 28.0627 7.11943 27.8539V27.8214C7.11943 27.5334 6.8851 27.2991 6.5971 27.2991C6.3091 27.2991 6.07477 27.5334 6.07477 27.8214V27.9205C5.5659 28.1051 5.27804 28.5248 5.27804 29.0944C5.27804 29.9735 5.91672 30.2135 6.3832 30.3887C6.82802 30.5559 6.98183 30.629 6.98183 30.9316C6.98183 31.1207 6.9309 31.2958 6.56114 31.2958C6.02233 31.2958 6.08687 30.8699 5.68361 30.8699C5.39862 30.8699 5.18555 31.1517 5.18555 31.4038C5.18555 31.7609 5.55688 32.0998 6.07477 32.2372V32.2763C6.07477 32.5643 6.3091 32.7987 6.5971 32.7987C6.8851 32.7987 7.11943 32.5644 7.11943 32.2763V32.2235C7.67984 32.0434 8.00858 31.5609 8.00858 30.9008C8.00858 29.3345 6.30473 29.5697 6.30473 29.0636Z" fill="#3E3465"/>
</svg>
