<svg width="35" height="36" viewBox="0 0 35 36" fill="none" xmlns="http://www.w3.org/2000/svg">
<g clip-path="url(#clip0_1203_4036)">
<path d="M6.39658 4.76855C5.12141 4.76855 4.08398 5.80564 4.08398 7.08027C4.08398 8.3549 5.12141 9.39198 6.39658 9.39198C7.67278 9.39198 8.71109 8.3549 8.71109 7.08027C8.71109 5.80564 7.67278 4.76855 6.39658 4.76855ZM6.39658 8.0133C5.88163 8.0133 5.46272 7.59474 5.46272 7.08027C5.46272 6.56579 5.88163 6.1473 6.39658 6.1473C6.91256 6.1473 7.33242 6.56586 7.33242 7.08033C7.33242 7.59481 6.91256 8.0133 6.39658 8.0133Z" fill="#3E3465"/>
<path d="M26.6173 4.76855H20.504C19.2288 4.76855 18.1914 5.80564 18.1914 7.08027C18.1914 8.3549 19.2288 9.39198 20.504 9.39198H26.6173C27.8925 9.39198 28.9299 8.3549 28.9299 7.08027C28.9299 5.80564 27.8925 4.76855 26.6173 4.76855ZM26.6173 8.0133H20.504C19.9891 8.0133 19.5701 7.59474 19.5701 7.08027C19.5701 6.56579 19.9891 6.14723 20.504 6.14723H26.6173C27.1323 6.14723 27.5512 6.56579 27.5512 7.08027C27.5512 7.59474 27.1323 8.0133 26.6173 8.0133Z" fill="#3E3465"/>
<path d="M12.3888 4.76855C11.1136 4.76855 10.0762 5.80564 10.0762 7.08027C10.0762 8.3549 11.1136 9.39198 12.3888 9.39198C13.665 9.39198 14.7033 8.3549 14.7033 7.08027C14.7033 5.80564 13.665 4.76855 12.3888 4.76855ZM12.3888 8.0133C11.8738 8.0133 11.4549 7.59474 11.4549 7.08027C11.4549 6.56579 11.8739 6.14723 12.3888 6.14723C12.9047 6.14723 13.3246 6.56579 13.3246 7.08027C13.3246 7.59474 12.9047 8.0133 12.3888 8.0133Z" fill="#3E3465"/>
<path d="M11.2642 16.1963C10.894 16.1077 10.522 16.3362 10.4335 16.7066L9.0659 22.4295C8.97745 22.7998 9.20583 23.1717 9.57614 23.2602C9.63 23.273 9.68394 23.2793 9.73699 23.2793C10.0486 23.2793 10.3312 23.0664 10.4068 22.7499L11.7744 17.027C11.863 16.6567 11.6345 16.2849 11.2642 16.1963Z" fill="#3E3465"/>
<path d="M13.7954 22.5876C13.9267 22.7046 14.0905 22.7622 14.2536 22.7622C14.4435 22.7622 14.6325 22.6843 14.7687 22.5313L16.7018 20.3613C17.0207 20.0063 17.0207 19.4502 16.7038 19.0974L14.7687 16.9252C14.5153 16.6408 14.0795 16.6158 13.7954 16.8689C13.511 17.1222 13.4858 17.558 13.7391 17.8422L15.4192 19.7282L13.7391 21.6142C13.4859 21.8986 13.511 22.3344 13.7954 22.5876Z" fill="#3E3465"/>
<path d="M7.04636 16.8689C6.76199 16.6156 6.32633 16.641 6.07306 16.9252L4.1402 19.095C3.82082 19.4501 3.82082 20.0064 4.13801 20.3591L6.07313 22.5313C6.20937 22.6843 6.39831 22.7622 6.58822 22.7622C6.75132 22.7622 6.91518 22.7046 7.0465 22.5876C7.33087 22.3343 7.35603 21.8985 7.10276 21.6143L5.42269 19.7283L7.10276 17.8423C7.35589 17.5579 7.33074 17.1221 7.04636 16.8689Z" fill="#3E3465"/>
<path d="M33.4545 24.2002H33.1985C33.0645 23.766 32.8908 23.3468 32.6789 22.9462L32.8615 22.763C33.1532 22.473 33.3142 22.0859 33.3148 21.6729C33.3154 21.2589 33.155 20.8702 32.8629 20.5783L32.5071 20.2226V5.53899C32.5071 3.48281 31.0561 1.81006 29.2724 1.81006H3.23463C1.451 1.81006 0 3.48281 0 5.53899V24.8063C0 26.8625 1.451 28.5352 3.23463 28.5352H7.27918C7.65987 28.5352 7.96852 28.2266 7.96852 27.8459C7.96852 27.4652 7.65987 27.1566 7.27918 27.1566H3.23463C2.22865 27.1566 1.37874 26.0802 1.37874 24.8064V12.2997H31.1283V19.2659C31.0497 19.2538 30.9701 19.2459 30.8891 19.2459C30.8883 19.2459 30.8875 19.2459 30.8867 19.2459C30.4737 19.2466 30.0866 19.4073 29.7989 19.6966L29.6126 19.8821C29.2036 19.666 28.7777 19.4903 28.3384 19.3561V19.1105C28.3384 18.2585 27.6451 17.5654 26.7929 17.5654H25.5454C24.6943 17.5654 24.0019 18.2585 24.0019 19.1105V19.3729C23.5709 19.5083 23.1548 19.6825 22.7571 19.8942L22.5786 19.7162C22.2886 19.4248 21.9014 19.2638 21.4884 19.2632C21.4876 19.2632 21.4869 19.2632 21.486 19.2632C21.0729 19.2632 20.6851 19.4235 20.3937 19.7147L19.5123 20.5957C19.2203 20.8876 19.0598 21.2763 19.0604 21.6903C19.0611 22.1033 19.222 22.4904 19.5115 22.7781L19.7019 22.969C19.4952 23.3634 19.3255 23.7749 19.1941 24.2001H18.9323C18.0811 24.2001 17.3887 24.8923 17.3887 25.7432V26.9919C17.3887 27.0475 17.3918 27.1023 17.3975 27.1563H13.3865C13.0058 27.1563 12.6972 27.4649 12.6972 27.8456C12.6972 28.2263 13.0058 28.535 13.3865 28.535H18.9323H19.1967C19.33 28.9642 19.5024 29.3789 19.7126 29.7759L19.5263 29.9614C18.9266 30.5643 18.9271 31.5432 19.5277 32.1433L20.4096 33.0248C20.6996 33.3162 21.0867 33.4771 21.4998 33.4777H21.502C21.9152 33.4777 22.3031 33.3174 22.5945 33.0262L22.7791 32.8417C23.1797 33.0528 23.5962 33.2254 24.025 33.3579V33.6247C24.025 34.4767 24.7174 35.1698 25.5686 35.1698H26.818C27.6691 35.1698 28.3616 34.4767 28.3616 33.6247V33.3596C28.7943 33.226 29.2126 33.0528 29.6127 32.8416L29.7965 33.0247C30.0864 33.3162 30.4735 33.4771 30.8865 33.4777H30.8889C31.302 33.4777 31.6899 33.3174 31.9819 33.0257L32.8613 32.1447C33.153 31.8548 33.314 31.4677 33.3146 31.0547C33.3152 30.6407 33.1548 30.252 32.8627 29.96L32.6787 29.7762C32.8885 29.3788 33.0607 28.9638 33.1938 28.535H33.4543C34.3066 28.535 34.9999 27.8428 34.9999 26.9919V25.7432C35 24.8924 34.3067 24.2002 33.4545 24.2002ZM1.37874 10.921V5.53899C1.37874 4.26512 2.22865 3.1888 3.23463 3.1888H29.2724C30.2784 3.1888 31.1283 4.26512 31.1283 5.53899V10.9211H1.37874V10.921ZM33.6213 26.9921C33.6213 27.0796 33.5433 27.1564 33.4544 27.1564H32.6661C32.3447 27.1564 32.0659 27.3785 31.9941 27.6918C31.8452 28.3416 31.5895 28.9578 31.2339 29.5234C31.0627 29.7958 31.1027 30.1505 31.3303 30.3779L31.8881 30.9354C31.9298 30.9771 31.936 31.0269 31.936 31.0528C31.9359 31.0839 31.9279 31.1289 31.8876 31.1688L31.0069 32.0512C30.9651 32.0929 30.9153 32.0991 30.889 32.0991C30.8889 32.0991 30.8889 32.0991 30.8889 32.0991C30.8576 32.0991 30.8124 32.091 30.772 32.0503L30.2121 31.4928C29.9844 31.266 29.6304 31.2267 29.3586 31.3976C28.7921 31.754 28.1733 32.0101 27.5193 32.159C27.2056 32.2305 26.9829 32.5094 26.9829 32.8312V33.6249C26.9829 33.7135 26.9059 33.7913 26.8181 33.7913H25.5687C25.4809 33.7913 25.4038 33.7136 25.4038 33.6249V32.8292C25.4038 32.5071 25.1807 32.2279 24.8665 32.1568C24.2209 32.0108 23.6032 31.7551 23.0308 31.3969C22.918 31.3263 22.7912 31.2918 22.6652 31.2918C22.4872 31.2918 22.3107 31.3607 22.1777 31.4937L21.62 32.0512C21.5782 32.0929 21.5284 32.0991 21.5021 32.0991C21.502 32.0991 21.502 32.0991 21.5019 32.0991C21.4707 32.0991 21.4254 32.091 21.3858 32.0512L20.5025 31.1684C20.4407 31.1066 20.4414 30.997 20.5017 30.9363L21.0615 30.3788C21.2903 30.151 21.3302 29.7952 21.1579 29.5223C20.8018 28.9584 20.5458 28.3427 20.3967 27.692C20.325 27.3787 20.0462 27.1566 19.7247 27.1566H18.9324C18.8431 27.1566 18.7675 27.0813 18.7675 26.9922V25.7435C18.7675 25.6544 18.8431 25.5791 18.9324 25.5791H19.7227C20.0445 25.5791 20.3235 25.3564 20.395 25.0427C20.5421 24.3963 20.7949 23.783 21.1463 23.2199C21.316 22.948 21.2759 22.5951 21.0496 22.3681L20.4856 21.8025C20.4473 21.7645 20.4392 21.7195 20.4392 21.6884C20.4392 21.6624 20.4453 21.6127 20.487 21.571L21.3683 20.6902C21.4101 20.6485 21.4599 20.6422 21.4862 20.6422H21.4864C21.5176 20.6422 21.5629 20.6503 21.6033 20.691L22.1592 21.2447C22.3876 21.4721 22.7428 21.5111 23.0148 21.3386C23.578 20.9814 24.195 20.7228 24.8484 20.5699C25.1601 20.4969 25.3805 20.2188 25.3805 19.8986V19.1107C25.3805 19.0206 25.456 18.9443 25.5454 18.9443H26.7928C26.8833 18.9443 26.9597 19.0206 26.9597 19.1107V19.887C26.9597 20.21 27.1839 20.4897 27.4993 20.5599C28.1552 20.706 28.7809 20.9639 29.3592 21.3267C29.6309 21.4971 29.9845 21.4577 30.212 21.2312L30.7742 20.6713C30.8123 20.6329 30.8575 20.6249 30.8887 20.6248H30.8889C30.9152 20.6248 30.965 20.6311 31.0067 20.6728L31.8881 21.5536C31.9298 21.5953 31.9359 21.6451 31.9359 21.6711C31.9359 21.7021 31.9278 21.7471 31.8873 21.7874L31.3294 22.3469C31.1022 22.5748 31.0628 22.9294 31.2345 23.2015C31.5914 23.7673 31.8482 24.3869 31.9977 25.043C32.0692 25.3566 32.3481 25.5792 32.6699 25.5792H33.4544C33.5433 25.5792 33.6213 25.6561 33.6213 25.7436V26.9921Z" fill="#3E3465"/>
<path d="M26.1953 22.1577C23.8723 22.1577 21.9824 24.0468 21.9824 26.3687C21.9824 28.6896 23.8723 30.5778 26.1953 30.5778C28.5172 30.5778 30.4062 28.6897 30.4062 26.3687C30.4062 24.0468 28.5172 22.1577 26.1953 22.1577ZM26.1953 29.1991C24.6326 29.1991 23.3612 27.9294 23.3612 26.3687C23.3612 24.807 24.6326 23.5365 26.1953 23.5365C27.7569 23.5365 29.0275 24.807 29.0275 26.3687C29.0275 27.9294 27.7569 29.1991 26.1953 29.1991Z" fill="#3E3465"/>
<path d="M10.3533 27.1567H10.3397C9.95903 27.1567 9.65039 27.4654 9.65039 27.8461C9.65039 28.2268 9.95903 28.5354 10.3397 28.5354H10.3533C10.734 28.5354 11.0426 28.2268 11.0426 27.8461C11.0426 27.4654 10.734 27.1567 10.3533 27.1567Z" fill="#3E3465"/>
</g>
<defs>
<clipPath id="clip0_1203_4036">
<rect width="35" height="35" fill="white" transform="translate(0 0.990234)"/>
</clipPath>
</defs>
</svg>
