<svg width="35" height="36" viewBox="0 0 35 36" fill="none" xmlns="http://www.w3.org/2000/svg">
<g clip-path="url(#clip0_1203_4076)">
<path d="M29.8744 6.11582C26.569 2.81058 22.1744 0.990234 17.5 0.990234C12.8256 0.990234 8.43097 2.81058 5.12559 6.11582C1.82034 9.4212 0 13.8158 0 18.4902C0 23.1646 1.82034 27.5593 5.12559 30.8646C8.43097 34.1699 12.8256 35.9902 17.5 35.9902C21.5897 35.9902 25.5688 34.5492 28.7042 31.9326L28.0473 31.1453C25.0958 33.6084 21.35 34.9648 17.5 34.9648C13.0994 34.9648 8.96232 33.2512 5.85067 30.1396C2.73902 27.0279 1.02539 22.8908 1.02539 18.4902C1.02539 14.0897 2.73902 9.95256 5.85067 6.84091C8.96232 3.72926 13.0994 2.01562 17.5 2.01562C21.9006 2.01562 26.0377 3.72926 29.1493 6.84091C32.261 9.95256 33.9746 14.0897 33.9746 18.4902C33.9746 22.3378 32.6195 26.082 30.1589 29.0331L30.9465 29.6898C33.5604 26.5547 35 22.5773 35 18.4902C35 13.8158 33.1797 9.4212 29.8744 6.11582Z" fill="#3E3465"/>
<path d="M22.1152 18.4902C22.1152 15.9459 20.0453 13.876 17.501 13.876C14.9566 13.876 12.8867 15.9459 12.8867 18.4902C12.8867 21.0346 14.9566 23.1045 17.501 23.1045C20.0453 23.1045 22.1152 21.0346 22.1152 18.4902ZM13.9121 18.4902C13.9121 16.5113 15.522 14.9014 17.501 14.9014C19.4799 14.9014 21.0898 16.5113 21.0898 18.4902C21.0898 20.4692 19.4799 22.0791 17.501 22.0791C15.522 22.0791 13.9121 20.4692 13.9121 18.4902Z" fill="#3E3465"/>
<path d="M28.7832 30.5195L29.5 29.7864L30.2331 30.5031L29.5164 31.2363L28.7832 30.5195Z" fill="#3E3465"/>
<path d="M29.0974 20.6335L28.0889 20.4482C27.2316 25.1146 23.4357 28.6106 18.819 29.1758L19.7964 28.1984L19.0714 27.4734L16.7754 29.7695L19.0714 32.0654L19.7964 31.3404L18.679 30.223C23.8549 29.7077 28.1421 25.8341 29.0974 20.6335Z" fill="#3E3465"/>
<path d="M5.90234 16.347L6.91085 16.5322C7.76808 11.8659 11.564 8.36992 16.1807 7.80466L15.2033 8.78206L15.9283 9.50708L18.2243 7.21103L15.9283 4.91504L15.2033 5.64006L16.3207 6.75746C11.1448 7.27282 6.85767 11.1463 5.90234 16.347Z" fill="#3E3465"/>
<path d="M19.459 7.9015C24.1253 8.75873 27.6213 12.5547 28.1866 17.1714L27.2092 16.194L26.4841 16.919L28.7801 19.215L31.0762 16.9191L30.3512 16.194L29.2338 17.3114C28.7184 12.1355 24.845 7.84839 19.6443 6.89307L19.459 7.9015Z" fill="#3E3465"/>
<path d="M22.1133 4.06641H23.1387V5.0918H22.1133V4.06641Z" fill="#3E3465"/>
<path d="M24.1641 5.0918H25.1895V6.11719H24.1641V5.0918Z" fill="#3E3465"/>
<path d="M4.64892 20.7861L5.76632 19.6687C6.28168 24.8446 10.1551 29.1318 15.3558 30.0871L15.541 29.0786C10.8747 28.2214 7.37871 24.4255 6.81345 19.8087L7.79085 20.7861L8.51587 20.0611L6.21988 17.7651L3.92383 20.0611L4.64892 20.7861Z" fill="#3E3465"/>
</g>
<defs>
<clipPath id="clip0_1203_4076">
<rect width="35" height="35" fill="white" transform="translate(0 0.990234)"/>
</clipPath>
</defs>
</svg>
