<svg width="35" height="35" viewBox="0 0 35 35" fill="none" xmlns="http://www.w3.org/2000/svg">
<g clip-path="url(#clip0_1203_3666)">
<path d="M19.8525 17.2482C20.0638 16.9889 20.2058 16.6801 20.2649 16.3509C20.3241 16.0216 20.2985 15.6828 20.1907 15.3661C20.0828 15.0495 19.8961 14.7655 19.6483 14.5408C19.4004 14.3162 19.0994 14.1583 18.7738 14.082V12.7148C18.7738 12.5879 18.7233 12.4662 18.6336 12.3765C18.5439 12.2867 18.4221 12.2363 18.2952 12.2363C18.1683 12.2363 18.0466 12.2867 17.9569 12.3765C17.8671 12.4662 17.8167 12.5879 17.8167 12.7148V14.0273H16.8635V12.7148C16.8635 12.5879 16.8131 12.4662 16.7234 12.3765C16.6336 12.2867 16.5119 12.2363 16.385 12.2363C16.2581 12.2363 16.1364 12.2867 16.0466 12.3765C15.9569 12.4662 15.9065 12.5879 15.9065 12.7148V14.0273H14.5645C14.4375 14.0273 14.3158 14.0778 14.2261 14.1675C14.1364 14.2572 14.0859 14.3789 14.0859 14.5059C14.0859 14.6328 14.1364 14.7545 14.2261 14.8442C14.3158 14.934 14.4375 14.9844 14.5645 14.9844H14.8819V17.5V20.0156H14.5645C14.4375 20.0156 14.3158 20.066 14.2261 20.1558C14.1364 20.2455 14.0859 20.3672 14.0859 20.4941C14.0859 20.6211 14.1364 20.7428 14.2261 20.8325C14.3158 20.9222 14.4375 20.9727 14.5645 20.9727H15.9065V22.2852C15.9065 22.4121 15.9569 22.5338 16.0466 22.6235C16.1364 22.7133 16.2581 22.7637 16.385 22.7637C16.5119 22.7637 16.6336 22.7133 16.7234 22.6235C16.8131 22.5338 16.8635 22.4121 16.8635 22.2852V20.9727H17.8167V22.2852C17.8167 22.4121 17.8671 22.5338 17.9569 22.6235C18.0466 22.7133 18.1683 22.7637 18.2952 22.7637C18.4221 22.7637 18.5439 22.7133 18.6336 22.6235C18.7233 22.5338 18.7738 22.4121 18.7738 22.2852V20.9727H18.9378C19.3797 20.9729 19.8089 20.8249 20.1568 20.5523C20.5046 20.2797 20.7509 19.8983 20.8564 19.4692C20.9618 19.04 20.9202 18.5879 20.7382 18.1852C20.5563 17.7825 20.2445 17.4524 19.8527 17.2479L19.8525 17.2482ZM19.3392 16.0027C19.3389 16.2728 19.2314 16.5319 19.0403 16.7229C18.8492 16.9138 18.59 17.0211 18.3198 17.0212H15.8389V14.9844H18.3198C18.59 14.9844 18.8491 15.0917 19.0402 15.2826C19.2313 15.4736 19.3389 15.7325 19.3392 16.0027ZM18.9375 20.0156H15.8389V17.9785H18.9375C19.2077 17.9785 19.4668 18.0858 19.6578 18.2768C19.8488 18.4679 19.9561 18.7269 19.9561 18.9971C19.9561 19.2672 19.8488 19.5263 19.6578 19.7173C19.4668 19.9083 19.2077 20.0156 18.9375 20.0156Z" fill="#3E3465"/>
<path d="M33.0135 15.5124C32.5703 15.5132 32.14 15.6621 31.7911 15.9353C31.4421 16.2086 31.1944 16.5906 31.0874 17.0206H26.0342C25.997 16.3499 25.8803 15.6859 25.6867 15.0426H27.1042C27.1671 15.0426 27.2293 15.0303 27.2874 15.0062C27.3454 14.9822 27.3982 14.947 27.4426 14.9025C27.4871 14.8581 27.5223 14.8053 27.5464 14.7472C27.5704 14.6892 27.5828 14.6269 27.5827 14.5641V10.5309H28.7112C28.8281 11.0018 29.1132 11.4137 29.5128 11.6888C29.9124 11.9639 30.3989 12.0833 30.8805 12.0245C31.3622 11.9656 31.8056 11.7326 32.1272 11.3693C32.4488 11.006 32.6263 10.5376 32.6263 10.0524C32.6263 9.56718 32.4488 9.09876 32.1272 8.73546C31.8056 8.37217 31.3622 8.13911 30.8805 8.08025C30.3989 8.02138 29.9124 8.14078 29.5128 8.41593C29.1132 8.69108 28.8281 9.10294 28.7112 9.57385H27.1042C26.9773 9.57385 26.8556 9.62426 26.7658 9.714C26.6761 9.80374 26.6257 9.92546 26.6257 10.0524V14.0856H25.3348C24.468 12.1096 22.8899 10.5317 20.9139 9.66518V8.37373H24.9471C25.074 8.37373 25.1957 8.32332 25.2854 8.23358C25.3752 8.14384 25.4256 8.02213 25.4256 7.89522V6.28905C25.8965 6.17219 26.3083 5.88706 26.5835 5.48743C26.8586 5.0878 26.978 4.6013 26.9192 4.1197C26.8603 3.63809 26.6273 3.19467 26.264 2.87308C25.9007 2.55148 25.4322 2.37394 24.9471 2.37394C24.4619 2.37394 23.9935 2.55148 23.6302 2.87308C23.2669 3.19467 23.0338 3.63809 22.9749 4.1197C22.9161 4.6013 23.0355 5.0878 23.3106 5.48743C23.5858 5.88706 23.9976 6.17219 24.4685 6.28905V7.4178H20.4353C20.3085 7.41787 20.1868 7.46831 20.0971 7.55803C20.0073 7.64775 19.9569 7.76942 19.9568 7.89631V9.31326C19.3135 9.11974 18.6495 9.00317 17.9788 8.966V3.91206C18.4497 3.7952 18.8616 3.51007 19.1367 3.11044C19.4118 2.71081 19.5312 2.22431 19.4724 1.74271C19.4135 1.2611 19.1805 0.817683 18.8172 0.496086C18.4539 0.17449 17.9855 -0.00305176 17.5003 -0.00305176C17.0151 -0.00305176 16.5467 0.17449 16.1834 0.496086C15.8201 0.817683 15.587 1.2611 15.5281 1.74271C15.4693 2.22431 15.5887 2.71081 15.8638 3.11044C16.139 3.51007 16.5508 3.7952 17.0217 3.91206V8.966C16.351 9.00317 15.687 9.11974 15.0437 9.31326V7.89522C15.0436 7.76833 14.9932 7.64666 14.9035 7.55694C14.8137 7.46721 14.6921 7.41678 14.5652 7.4167H10.532V6.28905C11.0029 6.17219 11.4148 5.88706 11.6899 5.48743C11.965 5.0878 12.0845 4.6013 12.0256 4.1197C11.9667 3.63809 11.7337 3.19467 11.3704 2.87308C11.0071 2.55148 10.5387 2.37394 10.0535 2.37394C9.56828 2.37394 9.09986 2.55148 8.73656 2.87308C8.37327 3.19467 8.14021 3.63809 8.08135 4.1197C8.02248 4.6013 8.14188 5.0878 8.41703 5.48743C8.69218 5.88706 9.10404 6.17219 9.57495 6.28905V7.89631C9.57495 8.02322 9.62537 8.14493 9.71511 8.23467C9.80484 8.32441 9.92656 8.37483 10.0535 8.37483H14.0867V9.66627C12.1108 10.5326 10.5328 12.11 9.66573 14.0856H8.37483V10.0524C8.37483 9.92546 8.32442 9.80374 8.23468 9.714C8.14494 9.62426 8.02323 9.57385 7.89632 9.57385H6.28933C6.17247 9.10294 5.88734 8.69108 5.48771 8.41593C5.08808 8.14078 4.60158 8.02138 4.11998 8.08025C3.63837 8.13911 3.19495 8.37217 2.87336 8.73546C2.55176 9.09876 2.37422 9.56718 2.37422 10.0524C2.37422 10.5376 2.55176 11.006 2.87336 11.3693C3.19495 11.7326 3.63837 11.9656 4.11998 12.0245C4.60158 12.0833 5.08808 11.9639 5.48771 11.6888C5.88734 11.4137 6.17247 11.0018 6.28933 10.5309H7.41808V14.5641C7.41804 14.6269 7.43039 14.6892 7.45443 14.7472C7.47846 14.8053 7.51371 14.8581 7.55815 14.9025C7.60259 14.947 7.65536 14.9822 7.71343 15.0062C7.7715 15.0303 7.83374 15.0426 7.89659 15.0426H9.31409C9.1205 15.6859 9.00384 16.3499 8.96655 17.0206H3.91315C3.7963 16.5497 3.51116 16.1379 3.11154 15.8627C2.71191 15.5876 2.22541 15.4682 1.74381 15.527C1.2622 15.5859 0.818781 15.819 0.497185 16.1823C0.175589 16.5456 -0.00195313 17.014 -0.00195312 17.4992C-0.00195312 17.9843 0.175589 18.4528 0.497185 18.8161C0.818781 19.1794 1.2622 19.4124 1.74381 19.4713C2.22541 19.5301 2.71191 19.4107 3.11154 19.1356C3.51116 18.8605 3.7963 18.4486 3.91315 17.9777H8.96628C9.00339 18.6484 9.11986 19.3124 9.31327 19.9557H7.89632C7.76941 19.9557 7.6477 20.0061 7.55796 20.0959C7.46822 20.1856 7.4178 20.3073 7.4178 20.4342V24.4674H6.28933C6.17247 23.9965 5.88734 23.5847 5.48771 23.3095C5.08808 23.0344 4.60158 22.915 4.11998 22.9738C3.63837 23.0327 3.19495 23.2658 2.87336 23.6291C2.55176 23.9923 2.37422 24.4608 2.37422 24.946C2.37422 25.4311 2.55176 25.8996 2.87336 26.2629C3.19495 26.6262 3.63837 26.8592 4.11998 26.9181C4.60158 26.9769 5.08808 26.8575 5.48771 26.5824C5.88734 26.3072 6.17247 25.8954 6.28933 25.4245H7.89659C8.0235 25.4245 8.14521 25.3741 8.23495 25.2843C8.32469 25.1946 8.37511 25.0729 8.37511 24.946V20.9128H9.66546C10.532 22.8895 12.1103 24.468 14.0869 25.3348V26.6246H10.0535C9.92656 26.6246 9.80484 26.675 9.71511 26.7647C9.62537 26.8545 9.57495 26.9762 9.57495 27.1031V28.7109C9.10404 28.8278 8.69218 29.1129 8.41703 29.5125C8.14188 29.9122 8.02248 30.3987 8.08135 30.8803C8.14021 31.3619 8.37327 31.8053 8.73656 32.1269C9.09986 32.4485 9.56828 32.626 10.0535 32.626C10.5387 32.626 11.0071 32.4485 11.3704 32.1269C11.7337 31.8053 11.9667 31.3619 12.0256 30.8803C12.0845 30.3987 11.965 29.9122 11.6899 29.5125C11.4148 29.1129 11.0029 28.8278 10.532 28.7109V27.5816H14.5652C14.6921 27.5815 14.8137 27.5311 14.9035 27.4414C14.9932 27.3517 15.0436 27.23 15.0437 27.1031V25.6867C15.687 25.8802 16.351 25.9968 17.0217 26.034V31.0863C16.5508 31.2031 16.139 31.4883 15.8638 31.8879C15.5887 32.2875 15.4693 32.774 15.5281 33.2556C15.587 33.7372 15.8201 34.1806 16.1834 34.5022C16.5467 34.8238 17.0151 35.0014 17.5003 35.0014C17.9855 35.0014 18.4539 34.8238 18.8172 34.5022C19.1805 34.1806 19.4135 33.7372 19.4724 33.2556C19.5312 32.774 19.4118 32.2875 19.1367 31.8879C18.8616 31.4883 18.4497 31.2031 17.9788 31.0863V26.034C18.6495 25.9968 19.3135 25.8802 19.9568 25.6867V27.1031C19.9569 27.23 20.0073 27.3517 20.0971 27.4414C20.1868 27.5311 20.3085 27.5815 20.4353 27.5816H24.4685V28.7109C23.9976 28.8278 23.5858 29.1129 23.3106 29.5125C23.0355 29.9122 22.9161 30.3987 22.9749 30.8803C23.0338 31.3619 23.2669 31.8053 23.6302 32.1269C23.9935 32.4485 24.4619 32.626 24.9471 32.626C25.4322 32.626 25.9007 32.4485 26.264 32.1269C26.6273 31.8053 26.8603 31.3619 26.9192 30.8803C26.978 30.3987 26.8586 29.9122 26.5835 29.5125C26.3083 29.1129 25.8965 28.8278 25.4256 28.7109V27.1031C25.4256 26.9762 25.3752 26.8545 25.2854 26.7647C25.1957 26.675 25.074 26.6246 24.9471 26.6246H20.9139V25.3348C22.8905 24.468 24.4688 22.8895 25.3353 20.9128H26.6257V24.946C26.6257 25.0729 26.6761 25.1946 26.7658 25.2843C26.8556 25.3741 26.9773 25.4245 27.1042 25.4245H28.7112C28.8281 25.8954 29.1132 26.3072 29.5128 26.5824C29.9124 26.8575 30.3989 26.9769 30.8805 26.9181C31.3622 26.8592 31.8056 26.6262 32.1272 26.2629C32.4488 25.8996 32.6263 25.4311 32.6263 24.946C32.6263 24.4608 32.4488 23.9923 32.1272 23.6291C31.8056 23.2658 31.3622 23.0327 30.8805 22.9738C30.3989 22.915 29.9124 23.0344 29.5128 23.3095C29.1132 23.5847 28.8281 23.9965 28.7112 24.4674H27.5824V20.4342C27.5824 20.3073 27.532 20.1856 27.4423 20.0959C27.3526 20.0061 27.2308 19.9557 27.1039 19.9557H25.6873C25.8807 19.3124 25.9971 18.6484 26.0342 17.9777H31.0874C31.1773 18.3388 31.3668 18.6674 31.6345 18.926C31.9021 19.1847 32.237 19.3628 32.601 19.4403C32.9651 19.5177 33.3435 19.4913 33.6933 19.3641C34.043 19.2368 34.3499 19.0138 34.579 18.7206C34.8082 18.4273 34.9503 18.0755 34.9891 17.7054C35.028 17.3353 34.9621 16.9617 34.7988 16.6272C34.6356 16.2928 34.3817 16.0109 34.066 15.8138C33.7503 15.6166 33.3856 15.5122 33.0135 15.5124ZM30.6376 9.02342C30.8412 9.02342 31.0403 9.08381 31.2097 9.19697C31.379 9.31012 31.511 9.47095 31.5889 9.65911C31.6669 9.84728 31.6873 10.0543 31.6475 10.2541C31.6078 10.4538 31.5097 10.6373 31.3657 10.7813C31.2217 10.9254 31.0382 11.0234 30.8385 11.0632C30.6387 11.1029 30.4317 11.0825 30.2435 11.0046C30.0553 10.9266 29.8945 10.7946 29.7813 10.6253C29.6682 10.4559 29.6078 10.2569 29.6078 10.0532C29.6081 9.78016 29.7167 9.51841 29.9097 9.32535C30.1028 9.1323 30.3645 9.02371 30.6376 9.02342ZM23.9173 4.36186C23.9173 4.15819 23.9777 3.9591 24.0908 3.78975C24.204 3.62041 24.3648 3.48842 24.553 3.41048C24.7411 3.33254 24.9482 3.31215 25.148 3.35188C25.3477 3.39161 25.5312 3.48969 25.6752 3.63371C25.8192 3.77772 25.9173 3.96121 25.957 4.16096C25.9968 4.36072 25.9764 4.56777 25.8984 4.75593C25.8205 4.9441 25.6885 5.10493 25.5192 5.21808C25.3498 5.33123 25.1507 5.39163 24.9471 5.39163C24.674 5.39134 24.4123 5.28275 24.2192 5.08969C24.0262 4.89664 23.9176 4.63488 23.9173 4.36186ZM9.0237 4.36186C9.0237 4.15819 9.0841 3.9591 9.19725 3.78975C9.3104 3.62041 9.47123 3.48842 9.65939 3.41048C9.84756 3.33254 10.0546 3.31215 10.2544 3.35188C10.4541 3.39161 10.6376 3.48969 10.7816 3.63371C10.9256 3.77772 11.0237 3.96121 11.0634 4.16096C11.1032 4.36072 11.0828 4.56777 11.0048 4.75593C10.9269 4.9441 10.7949 5.10493 10.6256 5.21808C10.4562 5.33123 10.2571 5.39163 10.0535 5.39163C9.78044 5.39134 9.51869 5.28275 9.32563 5.08969C9.13258 4.89664 9.02399 4.63488 9.0237 4.36186ZM4.36296 11.0821C4.15929 11.0821 3.9602 11.0217 3.79085 10.9086C3.62151 10.7954 3.48952 10.6346 3.41158 10.4464C3.33364 10.2583 3.31325 10.0512 3.35298 9.85147C3.39271 9.65171 3.49079 9.46823 3.63481 9.32421C3.77882 9.1802 3.96231 9.08212 4.16206 9.04239C4.36182 9.00265 4.56887 9.02305 4.75703 9.10099C4.9452 9.17893 5.10603 9.31091 5.21918 9.48026C5.33233 9.6496 5.39272 9.8487 5.39272 10.0524C5.39236 10.3254 5.28375 10.5871 5.09071 10.7801C4.89767 10.9732 4.63596 11.0818 4.36296 11.0821ZM4.36296 25.9757C4.15929 25.9757 3.9602 25.9153 3.79085 25.8022C3.62151 25.689 3.48952 25.5282 3.41158 25.34C3.33364 25.1519 3.31325 24.9448 3.35298 24.7451C3.39271 24.5453 3.49079 24.3618 3.63481 24.2178C3.77882 24.0738 3.96231 23.9757 4.16206 23.936C4.36182 23.8962 4.56887 23.9166 4.75703 23.9946C4.9452 24.0725 5.10603 24.2045 5.21918 24.3738C5.33233 24.5432 5.39272 24.7423 5.39272 24.946C5.39258 25.2191 5.28407 25.481 5.091 25.6742C4.89794 25.8675 4.6361 25.9762 4.36296 25.9765V25.9757ZM11.0832 30.6365C11.0832 30.8401 11.0228 31.0392 10.9097 31.2086C10.7965 31.3779 10.6357 31.5099 10.4475 31.5878C10.2594 31.6658 10.0523 31.6862 9.85257 31.6464C9.65281 31.6067 9.46933 31.5086 9.32531 31.3646C9.1813 31.2206 9.08322 31.0371 9.04349 30.8374C9.00375 30.6376 9.02415 30.4306 9.10209 30.2424C9.18003 30.0542 9.31201 29.8934 9.48136 29.7802C9.6507 29.6671 9.8498 29.6067 10.0535 29.6067C10.3265 29.607 10.5882 29.7156 10.7813 29.9086C10.9744 30.1017 11.0829 30.3634 11.0832 30.6365ZM25.9768 30.6365C25.9768 30.8401 25.9164 31.0392 25.8033 31.2086C25.6901 31.3779 25.5293 31.5099 25.3411 31.5878C25.153 31.6658 24.9459 31.6862 24.7462 31.6464C24.5464 31.6067 24.3629 31.5086 24.2189 31.3646C24.0749 31.2206 23.9768 31.0371 23.9371 30.8374C23.8973 30.6376 23.9177 30.4306 23.9957 30.2424C24.0736 30.0542 24.2056 29.8934 24.375 29.7802C24.5443 29.6671 24.7434 29.6067 24.9471 29.6067C25.2201 29.607 25.4818 29.7156 25.6749 29.9086C25.868 30.1017 25.9765 30.3634 25.9768 30.6365ZM30.6376 23.9162C30.8412 23.9162 31.0403 23.9766 31.2097 24.0897C31.379 24.2029 31.511 24.3637 31.5889 24.5519C31.6669 24.74 31.6873 24.9471 31.6475 25.1469C31.6078 25.3466 31.5097 25.5301 31.3657 25.6741C31.2217 25.8181 31.0382 25.9162 30.8385 25.9559C30.6387 25.9957 30.4317 25.9753 30.2435 25.8973C30.0553 25.8194 29.8945 25.6874 29.7813 25.5181C29.6682 25.3487 29.6078 25.1496 29.6078 24.946C29.6081 24.6729 29.7167 24.4112 29.9097 24.2181C30.1028 24.0251 30.3645 23.9165 30.6376 23.9162ZM16.4705 1.98596C16.4705 1.78229 16.5309 1.5832 16.644 1.41386C16.7572 1.24451 16.918 1.11252 17.1062 1.03458C17.2944 0.956643 17.5014 0.93625 17.7012 0.975983C17.9009 1.01572 18.0844 1.11379 18.2284 1.25781C18.3724 1.40182 18.4705 1.58531 18.5102 1.78506C18.55 1.98482 18.5296 2.19187 18.4516 2.38004C18.3737 2.5682 18.2417 2.72903 18.0724 2.84218C17.903 2.95533 17.7039 3.01573 17.5003 3.01573C17.2273 3.01537 16.9655 2.90676 16.7725 2.71372C16.5795 2.52068 16.4709 2.25896 16.4705 1.98596ZM1.98706 18.5289C1.78336 18.5289 1.58423 18.4685 1.41487 18.3553C1.24551 18.2421 1.11352 18.0813 1.0356 17.893C0.957687 17.7048 0.937342 17.4977 0.977143 17.298C1.01694 17.0982 1.1151 16.9147 1.2592 16.7707C1.40329 16.6267 1.58686 16.5287 1.78667 16.4891C1.98648 16.4494 2.19355 16.4699 2.3817 16.548C2.56985 16.6261 2.73063 16.7582 2.84368 16.9277C2.95673 17.0971 3.01699 17.2963 3.01683 17.5C3.01632 17.7729 2.90764 18.0344 2.71461 18.2273C2.52157 18.4202 2.25994 18.5286 1.98706 18.5289ZM18.53 33.0124C18.53 33.216 18.4696 33.4151 18.3565 33.5845C18.2433 33.7538 18.0825 33.8858 17.8943 33.9637C17.7062 34.0417 17.4991 34.0621 17.2994 34.0223C17.0996 33.9826 16.9161 33.8845 16.7721 33.7405C16.6281 33.5965 16.53 33.413 16.4903 33.2133C16.4506 33.0135 16.4709 32.8064 16.5489 32.6183C16.6268 32.4301 16.7588 32.2693 16.9282 32.1561C17.0975 32.043 17.2966 31.9826 17.5003 31.9826C17.7733 31.9829 18.035 32.0915 18.2281 32.2845C18.4212 32.4776 18.5297 32.7393 18.53 33.0124ZM17.5128 25.0909C17.5087 25.0909 17.5046 25.0909 17.5003 25.0909C17.4959 25.0909 17.4918 25.0909 17.4877 25.0909C15.4783 25.0852 13.553 24.2841 12.1328 22.8626C10.7126 21.4411 9.91319 19.5151 9.90936 17.5057V17.4992V17.4929C9.90936 15.4796 10.7091 13.5489 12.1327 12.1253C13.5563 10.7017 15.487 9.90197 17.5003 9.90197C19.5135 9.90197 21.4443 10.7017 22.8678 12.1253C24.2914 13.5489 25.0912 15.4796 25.0912 17.4929V17.4992V17.5057C25.0873 19.5151 24.2879 21.4411 22.8677 22.8626C21.4475 24.2841 19.5222 25.0852 17.5128 25.0909ZM33.0135 18.5284C32.8097 18.5284 32.6106 18.4679 32.4412 18.3547C32.2718 18.2415 32.1399 18.0806 32.062 17.8924C31.9841 17.7041 31.9637 17.497 32.0036 17.2972C32.0434 17.0974 32.1416 16.9139 32.2858 16.77C32.4299 16.626 32.6136 16.528 32.8134 16.4885C33.0133 16.4489 33.2203 16.4695 33.4085 16.5476C33.5966 16.6258 33.7574 16.758 33.8703 16.9275C33.9833 17.097 34.0435 17.2963 34.0432 17.5C34.0427 17.7729 33.934 18.0344 33.741 18.2273C33.548 18.4202 33.2863 18.5286 33.0135 18.5289V18.5284Z" fill="#3E3465"/>
</g>
<defs>
<clipPath id="clip0_1203_3666">
<rect width="35" height="35" fill="white"/>
</clipPath>
</defs>
</svg>
