<svg width="35" height="36" viewBox="0 0 35 36" fill="none" xmlns="http://www.w3.org/2000/svg">
<g clip-path="url(#clip0_1203_4009)">
<path d="M32.1811 18.8032C32.1811 18.52 31.9516 18.2905 31.6684 18.2905H23.1904C22.9072 18.2905 22.6777 18.52 22.6777 18.8032V20.7359C22.6777 21.0191 22.9072 21.2486 23.1904 21.2486H31.6684C31.9516 21.2486 32.1811 21.0191 32.1811 20.7359V18.8032H32.1811ZM31.1557 20.2232H23.7031V19.3159H31.1557V20.2232H31.1557Z" fill="#3E3465"/>
<path d="M26.9147 22.7729C26.9147 22.4897 26.6852 22.2603 26.402 22.2603H23.1904C22.9072 22.2603 22.6777 22.4897 22.6777 22.7729V24.7055C22.6777 24.9888 22.9072 25.2182 23.1904 25.2182H26.402C26.6852 25.2182 26.9147 24.9888 26.9147 24.7055V22.7729ZM25.8893 24.1929H23.7031V23.2857H25.8893V24.1929Z" fill="#3E3465"/>
<path d="M32.1823 22.7729C32.1823 22.4897 31.9528 22.2603 31.6696 22.2603H28.458C28.1748 22.2603 27.9453 22.4897 27.9453 22.7729V24.7055C27.9453 24.9888 28.1748 25.2182 28.458 25.2182H31.6696C31.9528 25.2182 32.1823 24.9888 32.1823 24.7055V22.7729ZM31.1569 24.1929H28.9707V23.2857H31.1569V24.1929Z" fill="#3E3465"/>
<path d="M26.402 26.23H23.1904C22.9072 26.23 22.6777 26.4595 22.6777 26.7427V28.6753C22.6777 28.9585 22.9072 29.188 23.1904 29.188H26.402C26.6852 29.188 26.9147 28.9585 26.9147 28.6753V26.7427C26.9147 26.4595 26.6852 26.23 26.402 26.23ZM25.8893 28.1626H23.7031V27.2554H25.8893V28.1626Z" fill="#3E3465"/>
<path d="M31.6696 26.23H28.458C28.1748 26.23 27.9453 26.4595 27.9453 26.7427V28.6753C27.9453 28.9585 28.1748 29.188 28.458 29.188H31.6696C31.9528 29.188 32.1823 28.9585 32.1823 28.6753V26.7427C32.1823 26.4595 31.9528 26.23 31.6696 26.23ZM31.1569 28.1626H28.9707V27.2554H31.1569V28.1626Z" fill="#3E3465"/>
<path d="M34.4873 11.7251H30.5514C30.3278 11.7251 30.1299 11.8701 30.0626 12.0833L29.0052 15.4296H20.3728C20.0896 15.4296 19.8601 15.6591 19.8601 15.9423V21.7696L12.7351 23.1365L13.0821 17.9702H16.911L17.0645 20.2552C17.0835 20.5377 17.3281 20.7504 17.6104 20.7323C17.8929 20.7133 18.1066 20.4689 18.0875 20.1864L17.4566 10.7918C17.4385 10.5226 17.2149 10.3135 16.9451 10.3135H13.048C12.7782 10.3135 12.5546 10.5226 12.5365 10.7918L11.694 23.3361L8.87476 23.8769L8.13955 12.9394C8.12144 12.6702 7.89783 12.4611 7.62802 12.4611H6.81017C6.52702 12.4611 6.29747 12.6905 6.29747 12.9738C6.29747 13.257 6.52702 13.4864 6.81017 13.4864H7.14861L7.34057 16.3419H4.01857L4.21032 13.4864H4.32934C4.61248 13.4864 4.84203 13.257 4.84203 12.9738C4.84203 12.6905 4.61248 12.4611 4.32934 12.4611H3.73092C3.4611 12.4611 3.23743 12.6702 3.21938 12.9394L2.27274 27.0351L0.420752 27.3726C0.177119 27.417 0 27.6293 0 27.8769V35.4661C0 35.7493 0.229551 35.9788 0.512695 35.9788L34.4873 35.9789C34.7705 35.9789 35 35.7494 35 35.4662V33.5745C35 33.2913 34.7705 33.0618 34.4873 33.0618C34.2041 33.0618 33.9746 33.2913 33.9746 33.5745V34.9535H29.8936V30.8173C29.8936 30.534 29.6641 30.3046 29.3809 30.3046H25.4792C25.196 30.3046 24.9666 30.534 24.9666 30.8173V34.9535H20.8855V16.455H33.9746V31.2274C33.9746 31.5106 34.2041 31.7401 34.4873 31.7401C34.7705 31.7401 35 31.5106 35 31.2274V12.2378C35 11.9546 34.7705 11.7251 34.4873 11.7251ZM16.842 16.9448H13.1509L13.2855 14.9398H16.7074L16.842 16.9448ZM16.4656 11.3389L16.6385 13.9145H13.3543L13.5273 11.3389H16.4656ZM25.9919 31.33H28.8682V34.9534H25.9919V31.33ZM7.55508 19.5331H3.80454L3.94987 17.3673H7.40913L7.55508 19.5331ZM3.73543 20.5585H7.62398L7.86017 24.0717L5.58325 24.5085C5.34174 24.5549 5.16715 24.7661 5.16715 25.012V26.5077L3.31311 26.8455L3.73543 20.5585ZM1.02539 28.3046L5.77179 27.4398C6.01542 27.3953 6.19254 27.183 6.19254 26.9353V25.4357L19.86 22.8137V34.9535H1.02539V28.3046ZM30.0805 15.4296L30.9271 12.7505H33.9746V15.4296H30.0805Z" fill="#3E3465"/>
<path d="M13.5015 6.55422C13.51 6.55422 13.5168 6.56078 13.5168 6.56878V7.52895C13.5168 9.43795 16.4749 9.43098 16.4749 7.52895V6.56871C16.4872 6.5495 16.5054 6.54465 16.5296 6.55415C17.4139 6.55415 18.2244 5.96168 18.4917 5.1186H19.6087C22.2713 5.1186 22.2529 1.00098 19.6087 1.00098H16.542C15.6577 1.00098 14.8473 1.59345 14.5798 2.43652H13.4621C10.7842 2.43652 10.8272 6.55422 13.5015 6.55422ZM12.7315 3.76481C12.9268 3.56951 13.1862 3.46191 13.4621 3.46191H15.0005C15.27 3.46191 15.4935 3.25321 15.512 2.98442C15.5483 2.45601 16.0119 2.02637 16.5419 2.02637H19.6087C20.9249 2.02637 20.9642 4.09321 19.6087 4.09321H18.0711C17.8016 4.09321 17.5781 4.30191 17.5596 4.5707C17.5233 5.09912 17.0596 5.52876 16.5296 5.52876C15.9519 5.52801 15.4495 5.97617 15.4495 6.56871V7.52888C15.4495 8.11377 14.5422 8.11452 14.5422 7.52888V6.56871C14.5422 5.99524 14.0753 5.52876 13.5015 5.52876C12.6033 5.52883 12.0753 4.42099 12.7315 3.76481Z" fill="#3E3465"/>
<path d="M2.13168 7.24984C2.33375 8.19921 3.22317 8.88547 4.18656 8.88547C4.19483 8.88547 4.20105 8.89176 4.20105 8.90003V9.86014C4.20105 11.7692 7.1591 11.7622 7.1591 9.86014V8.90003C7.1714 8.88082 7.18966 8.87597 7.21379 8.88547C9.87625 8.88547 9.85786 4.76784 7.21379 4.76784H4.8856C4.69857 3.75749 3.81079 2.98975 2.74705 2.98975C1.54789 2.98975 0.572266 3.9653 0.572266 5.16453C0.572334 6.13592 1.22981 6.98146 2.13168 7.24984ZM2.74712 4.01514C3.38088 4.01514 3.89651 4.53077 3.89651 5.16453C3.89651 5.47509 4.03979 5.79317 4.40456 5.79317H7.21386C8.52998 5.79317 8.56935 7.86001 7.21386 7.86001C6.63615 7.85926 6.13378 8.30742 6.13378 8.89996V9.86007C6.13378 10.445 5.22651 10.4458 5.22651 9.86007V8.89996C5.22651 8.3265 4.76003 7.86001 4.18663 7.86001C3.61993 7.86001 3.10901 7.39701 3.11298 6.81958C3.11298 6.55353 2.90947 6.3317 2.64444 6.3088C2.05751 6.25801 1.59772 5.75529 1.59772 5.16446C1.59772 4.53077 2.11329 4.01514 2.74712 4.01514Z" fill="#3E3465"/>
<path d="M8.76074 28.8705H10.54C10.8231 28.8705 11.0527 28.641 11.0527 28.3578V26.5786C11.0527 26.2954 10.8231 26.0659 10.54 26.0659H8.76074C8.4776 26.0659 8.24805 26.2954 8.24805 26.5786V28.3578C8.24805 28.6409 8.47753 28.8705 8.76074 28.8705ZM9.27344 27.0912H10.0273V27.845H9.27344V27.0912Z" fill="#3E3465"/>
<path d="M12.4189 28.8705H14.1981C14.4813 28.8705 14.7108 28.641 14.7108 28.3578V26.5786C14.7108 26.2954 14.4813 26.0659 14.1981 26.0659H12.4189C12.1358 26.0659 11.9062 26.2954 11.9062 26.5786V28.3578C11.9062 28.6409 12.1358 28.8705 12.4189 28.8705ZM12.9316 27.0912H13.6854V27.845H12.9316V27.0912Z" fill="#3E3465"/>
<path d="M17.8584 26.0659H16.0791C15.796 26.0659 15.5664 26.2954 15.5664 26.5786V28.3578C15.5664 28.641 15.796 28.8705 16.0791 28.8705H17.8584C18.1416 28.8705 18.3711 28.641 18.3711 28.3578V26.5786C18.3711 26.2955 18.1416 26.0659 17.8584 26.0659ZM17.3457 27.8452H16.5918V27.0914H17.3457V27.8452Z" fill="#3E3465"/>
<path d="M17.8577 30.0771H3.58887C3.30572 30.0771 3.07617 30.3066 3.07617 30.5898C3.07617 30.8731 3.30572 31.1025 3.58887 31.1025H17.8577C18.1409 31.1025 18.3704 30.8731 18.3704 30.5898C18.3704 30.3066 18.1409 30.0771 17.8577 30.0771Z" fill="#3E3465"/>
</g>
<defs>
<clipPath id="clip0_1203_4009">
<rect width="35" height="35" fill="white" transform="translate(0 0.990234)"/>
</clipPath>
</defs>
</svg>
