<svg width="35" height="35" viewBox="0 0 35 35" fill="none" xmlns="http://www.w3.org/2000/svg">
<path d="M33.0234 4.70504L31.5278 3.38806L33.0234 2.07134C33.256 1.86626 33.3355 1.54663 33.2263 1.25664C33.1166 0.966376 32.8455 0.778922 32.5355 0.778922H26.3463V0.512961C26.3463 0.229644 26.1167 0 25.8334 0C25.5501 0 25.3204 0.229644 25.3204 0.512961V7.43113L21.1075 9.71876C21.0843 9.53345 21.0287 9.35133 20.9409 9.1799L20.3473 8.021C19.9398 7.22525 18.9609 6.90989 18.1657 7.31711L17.7066 7.55209C17.3211 7.7497 17.0356 8.08508 16.9026 8.49737C16.7696 8.9094 16.8052 9.34866 17.0028 9.73398L17.5964 10.8932C17.7349 11.1637 17.9398 11.3778 18.1806 11.5279C17.8655 11.9522 17.716 12.474 17.5622 13.016L17.4516 13.4075C17.3745 13.6801 17.5331 13.9637 17.8057 14.0406C17.8522 14.054 17.8992 14.0601 17.9454 14.0601C18.1691 14.0601 18.3747 13.9127 18.4388 13.6865L18.5494 13.2959C18.7742 12.5031 18.9123 12.0785 19.3518 11.8398L20.1398 11.4117L20.237 11.3621C20.2693 11.3455 20.2995 11.3268 20.3302 11.3084L25.9463 8.25865C25.9108 8.96067 25.533 9.62397 24.9108 10.0018L21.2587 12.2208C21.2544 12.2232 21.2501 12.2256 21.2461 12.2283L20.1094 12.9188C19.8674 13.066 19.7903 13.3816 19.9374 13.6238C20.076 13.8521 20.3644 13.9333 20.5996 13.8187L19.7371 16.426L19.1067 16.6845L17.3924 17.387L17.8864 15.6406C17.9633 15.368 17.8049 15.0844 17.5323 15.0073C17.2594 14.9298 16.9761 15.0887 16.8989 15.3613L16.1184 18.1216C16.1082 18.1571 16.1015 18.1961 16.0999 18.2332L15.8957 21.9855C15.8895 22.1286 15.92 22.3991 15.8537 22.5388L13.5851 27.3117H11.9364C10.9706 27.3117 10.185 28.0973 10.185 29.0628V30.5435C9.96389 30.4423 9.7185 30.3857 9.45974 30.3857H5.27301C4.30744 30.3857 3.52184 31.171 3.52184 32.1369V33.974H2.2903C2.00699 33.974 1.77734 34.2037 1.77734 34.487C1.77734 34.7703 2.00699 34.9999 2.2903 34.9999H32.535C32.8183 34.9999 33.0479 34.7703 33.0479 34.487C33.0479 34.2037 32.8183 33.974 32.535 33.974H31.2009V20.7521C31.2009 19.7865 30.4153 19.0009 29.4497 19.0009H26.3463V10.052C26.9151 9.2811 27.1258 8.27067 26.8617 7.31043C26.8203 7.15956 26.7122 7.03566 26.568 6.97451C26.4972 6.94434 26.4214 6.93099 26.3463 6.93392V5.99746H32.5353C32.8455 5.99746 33.1166 5.81 33.2261 5.52001C33.3355 5.23002 33.256 4.91012 33.0234 4.70504ZM17.8791 8.81247C17.928 8.66106 18.0327 8.5377 18.1742 8.46533L18.6332 8.23035C18.7197 8.18602 18.8121 8.16492 18.9035 8.16492C19.1198 8.16492 19.3288 8.28322 19.434 8.48856L20.0279 9.64773C20.1665 9.9185 20.0768 10.2467 19.8303 10.4125L19.6632 10.503L19.3104 10.6838C19.0186 10.8333 18.6591 10.7174 18.5096 10.4253L17.9157 9.26642C17.8434 9.12489 17.8303 8.96361 17.8791 8.81247ZM16.8484 27.4695C16.674 27.3899 16.4845 27.3378 16.2853 27.3194L16.8484 26.5715V27.4695ZM19.284 23.3361C19.5307 23.0405 19.5988 22.6953 19.6538 22.417C19.6677 22.3508 19.9208 20.9681 19.9208 20.9681C19.9208 20.9681 20.1604 21.1174 20.1855 21.1281C20.2028 21.1358 20.2151 21.1529 20.217 21.1729L20.496 24.0096H18.7769L19.284 23.3361ZM22.3174 20.5048L21.8843 24.0072H21.5267L21.2381 21.0725C21.2012 20.6966 20.9711 20.3684 20.6338 20.2052L20.1179 19.8781L20.4616 17.9734C20.4616 17.9734 21.9094 19.6933 21.943 19.7371C22.2427 20.1267 22.3452 20.2827 22.3174 20.5048ZM16.7766 22.9874C16.8802 22.6755 16.9283 22.358 16.9202 22.0352L17.1066 18.6129L19.4792 17.6407L19.0479 20.0295C19.0466 20.0359 19.0453 20.0426 19.0445 20.049L18.6877 22.0242C18.6412 22.2288 18.6007 22.5391 18.473 22.7076L15.0067 27.3117H14.721L16.7766 22.9874ZM4.54776 32.1366C4.54776 31.7368 4.873 31.4116 5.27301 31.4116H9.45974C9.85975 31.4116 10.1853 31.7368 10.1853 32.1366V33.974H4.54776V32.1366ZM11.2109 32.1366V29.0628C11.2109 28.6628 11.5364 28.3376 11.9364 28.3376H16.1232C16.5232 28.3376 16.8484 28.6628 16.8484 29.0628V33.974H11.2112V32.1366H11.2109ZM30.175 20.7521V33.974H24.5378V30.8984C24.5378 30.6151 24.3081 30.3854 24.0248 30.3854C23.7412 30.3854 23.5116 30.6151 23.5116 30.8984V33.974H17.8743V25.7605C17.8743 25.3607 18.1996 25.0355 18.5996 25.0355H22.7863C23.1863 25.0355 23.5116 25.3607 23.5116 25.7605V28.332C23.5116 28.6153 23.7412 28.8449 24.0245 28.8449C24.3081 28.8449 24.5375 28.6153 24.5375 28.332V20.7521C24.5375 20.3521 24.863 20.0269 25.263 20.0269H25.828C25.8296 20.0269 25.8315 20.0271 25.8334 20.0271C25.835 20.0271 25.8369 20.0269 25.8385 20.0269H29.4495C29.8495 20.0269 30.175 20.3524 30.175 20.7521ZM25.263 19.0009C24.2974 19.0009 23.5118 19.7865 23.5118 20.7521V24.1674C23.3281 24.0836 23.1278 24.0304 22.9172 24.0149L23.3356 20.6311C23.4178 19.9716 23.0814 19.5345 22.7561 19.1115C22.7217 19.0666 20.7278 16.6992 20.7278 16.6992L21.9511 13.0008L25.3204 10.9538V19.0009H25.263ZM26.3463 4.97127V1.80511H31.7732L30.6044 2.83424C30.4452 2.97443 30.3539 3.1763 30.3539 3.38832C30.3539 3.60034 30.4452 3.80222 30.6044 3.94241L31.7732 4.97153H26.3463V4.97127Z" fill="#3E3465"/>
</svg>
