<svg width="35" height="35" viewBox="0 0 35 35" fill="none" xmlns="http://www.w3.org/2000/svg">
<path d="M20.7812 7.10938H19.1406V5.46875C19.1406 5.32371 19.083 5.18461 18.9804 5.08205C18.8779 4.97949 18.7388 4.92188 18.5938 4.92188H16.4062C16.2612 4.92188 16.1221 4.97949 16.0196 5.08205C15.917 5.18461 15.8594 5.32371 15.8594 5.46875V7.10938H14.2188C14.0737 7.10938 13.9346 7.16699 13.8321 7.26955C13.7295 7.37211 13.6719 7.51121 13.6719 7.65625V9.84375C13.6719 9.98879 13.7295 10.1279 13.8321 10.2304C13.9346 10.333 14.0737 10.3906 14.2188 10.3906H15.8594V12.0312C15.8594 12.1763 15.917 12.3154 16.0196 12.4179C16.1221 12.5205 16.2612 12.5781 16.4062 12.5781H18.5938C18.7388 12.5781 18.8779 12.5205 18.9804 12.4179C19.083 12.3154 19.1406 12.1763 19.1406 12.0312V10.3906H20.7812C20.9263 10.3906 21.0654 10.333 21.1679 10.2304C21.2705 10.1279 21.3281 9.98879 21.3281 9.84375V7.65625C21.3281 7.51121 21.2705 7.37211 21.1679 7.26955C21.0654 7.16699 20.9263 7.10938 20.7812 7.10938ZM20.2344 9.29688H18.5938C18.4487 9.29688 18.3096 9.35449 18.2071 9.45705C18.1045 9.55961 18.0469 9.69871 18.0469 9.84375V11.4844H16.9531V9.84375C16.9531 9.69871 16.8955 9.55961 16.7929 9.45705C16.6904 9.35449 16.5513 9.29688 16.4062 9.29688H14.7656V8.20312H16.4062C16.5513 8.20312 16.6904 8.14551 16.7929 8.04295C16.8955 7.94039 16.9531 7.80129 16.9531 7.65625V6.01562H18.0469V7.65625C18.0469 7.80129 18.1045 7.94039 18.2071 8.04295C18.3096 8.14551 18.4487 8.20312 18.5938 8.20312H20.2344V9.29688Z" fill="#3E3465"/>
<path d="M32.6648 10.0406C32.6759 9.94443 32.6814 9.84765 32.6812 9.7508C32.6786 9.24952 32.5047 8.7642 32.1884 8.37529C31.8721 7.98639 31.4324 7.71726 30.9422 7.61252C30.3877 7.50697 29.8138 7.61599 29.3366 7.91753C28.8594 8.21906 28.5146 8.6906 28.3719 9.23674L25.9656 16.1602C25.93 16.1743 25.8953 16.1908 25.8617 16.2094L21.0273 19.0422C20.2876 19.4767 19.674 20.0968 19.2472 20.841C18.8204 21.5853 18.5952 22.428 18.5938 23.2859V28.4375C18.4487 28.4375 18.3096 28.4951 18.2071 28.5977C18.1045 28.7002 18.0469 28.8393 18.0469 28.9844V33.3594C18.0469 33.5044 18.1045 33.6435 18.2071 33.7461C18.3096 33.8486 18.4487 33.9062 18.5938 33.9062H26.25C26.395 33.9062 26.5341 33.8486 26.6367 33.7461C26.7393 33.6435 26.7969 33.5044 26.7969 33.3594V28.9844C26.7969 28.8393 26.7393 28.7002 26.6367 28.5977C26.5341 28.4951 26.395 28.4375 26.25 28.4375V27.2344C26.251 27.0034 26.3002 26.7752 26.3943 26.5642C26.4885 26.3533 26.6256 26.1644 26.7969 26.0094L30.4937 22.7227C30.8981 22.3688 31.1876 21.9023 31.325 21.3828L33.6984 12.507C33.7491 12.3217 33.7749 12.1304 33.775 11.9383C33.7729 11.5524 33.6691 11.1738 33.4742 10.8407C33.2794 10.5076 33.0002 10.2316 32.6648 10.0406ZM29.4164 9.55939C29.4835 9.27658 29.6548 9.02945 29.896 8.86728C30.1372 8.70511 30.4307 8.6398 30.718 8.68439C30.9631 8.73573 31.1832 8.86964 31.3414 9.06373C31.4997 9.25783 31.5866 9.50036 31.5875 9.7508V9.76174C31.099 9.7708 30.6268 9.93918 30.2428 10.2412C29.8588 10.5433 29.584 10.9626 29.4602 11.4352L27.9344 16.1438C27.7034 16.0342 27.4557 15.964 27.2016 15.936L29.4164 9.55939ZM25.7031 32.8125H19.1406V29.5313H25.7031V32.8125ZM32.643 12.2227L30.2641 21.1039C30.1818 21.4125 30.0106 21.6902 29.7719 21.9024L26.0695 25.1891C25.783 25.4474 25.5538 25.7629 25.3965 26.1151C25.2392 26.4674 25.1574 26.8486 25.1562 27.2344V28.4375H19.6875V23.2859C19.6902 22.6187 19.866 21.9636 20.1976 21.3847C20.5293 20.8057 21.0055 20.3227 21.5797 19.9828L26.4086 17.1555C26.5331 17.0829 26.6707 17.0357 26.8135 17.0165C26.9563 16.9973 27.1015 17.0065 27.2408 17.0436C27.38 17.0807 27.5106 17.145 27.6249 17.2327C27.7392 17.3204 27.8351 17.4298 27.907 17.5547C28.0491 17.8074 28.0883 18.1051 28.0164 18.3859C27.9784 18.5246 27.9135 18.6544 27.8253 18.768C27.737 18.8815 27.6273 18.9766 27.5023 19.0477L24.3688 20.8578C24.2497 20.9335 24.1645 21.0522 24.131 21.1892C24.0974 21.3262 24.1181 21.4709 24.1887 21.593C24.2593 21.7151 24.3743 21.8053 24.5098 21.8446C24.6452 21.8839 24.7906 21.8693 24.9156 21.8039L28.0492 19.9938C28.2997 19.8517 28.5192 19.6609 28.6948 19.4326C28.8705 19.2044 28.9987 18.9434 29.0719 18.6649C29.2207 18.1053 29.1421 17.5096 28.8531 17.0078L28.8203 16.9586L30.5102 11.7469C30.5773 11.4641 30.7485 11.2169 30.9898 11.0548C31.231 10.8926 31.5245 10.8273 31.8117 10.8719C32.0568 10.9232 32.2769 11.0571 32.4352 11.2512C32.5934 11.4453 32.6803 11.6879 32.6812 11.9383C32.6831 12.0345 32.6702 12.1304 32.643 12.2227Z" fill="#3E3465"/>
<path d="M16.4059 28.4375V23.2859C16.4044 22.428 16.1792 21.5852 15.7524 20.841C15.3256 20.0967 14.712 19.4767 13.9723 19.0422L9.13789 16.2039C9.10508 16.1875 9.0668 16.1765 9.03399 16.1601L6.64414 9.27497C6.50524 8.72087 6.16043 8.24052 5.67988 7.93167C5.19933 7.62281 4.61916 7.50867 4.05742 7.61247C3.5672 7.71721 3.12749 7.98634 2.8112 8.37524C2.4949 8.76415 2.32101 9.24947 2.31836 9.75075C2.31822 9.8476 2.3237 9.94438 2.33477 10.0406C1.9994 10.2316 1.72024 10.5075 1.52536 10.8406C1.33048 11.1738 1.22676 11.5523 1.22461 11.9382C1.22567 12.13 1.24954 12.3209 1.2957 12.507L3.67461 21.3773C3.81055 21.8989 4.10017 22.3677 4.50586 22.7226L8.19727 26.0093C8.37026 26.1632 8.50886 26.3519 8.60404 26.563C8.69921 26.774 8.74881 27.0028 8.74961 27.2343V28.4375C8.60457 28.4375 8.46547 28.4951 8.36291 28.5976C8.26035 28.7002 8.20274 28.8393 8.20274 28.9843V33.3593C8.20274 33.5044 8.26035 33.6435 8.36291 33.746C8.46547 33.8486 8.60457 33.9062 8.74961 33.9062H16.4059C16.5509 33.9062 16.69 33.8486 16.7926 33.746C16.8951 33.6435 16.9527 33.5044 16.9527 33.3593V28.9843C16.9527 28.8393 16.8951 28.7002 16.7926 28.5976C16.69 28.4951 16.5509 28.4375 16.4059 28.4375ZM3.41211 9.75075C3.41278 9.50107 3.49886 9.25914 3.65605 9.06514C3.81323 8.87115 4.03206 8.73678 4.27617 8.68434C4.5713 8.64151 4.87171 8.71183 5.11716 8.88121C5.36261 9.05059 5.53494 9.3065 5.59961 9.59762L7.79805 15.9359C7.54391 15.9639 7.29624 16.0341 7.06524 16.1437L5.55039 11.4625C5.42711 10.9852 5.15174 10.561 4.76594 10.2542C4.38014 9.94729 3.9049 9.77442 3.41211 9.76169V9.75075ZM8.92461 25.189L5.22774 21.9023C4.98769 21.689 4.81638 21.4092 4.73555 21.0984L2.35117 12.2226C2.32853 12.1296 2.31751 12.034 2.31836 11.9382C2.31903 11.6886 2.40511 11.4466 2.5623 11.2526C2.71948 11.0587 2.93831 10.9243 3.18242 10.8718C3.47547 10.8279 3.77431 10.8965 4.01882 11.0639C4.26334 11.2313 4.43539 11.4851 4.50039 11.7742L6.1793 16.9586L6.14648 17.0078C5.85751 17.5095 5.77887 18.1053 5.92774 18.6648C6.00096 18.9433 6.12915 19.2044 6.30478 19.4326C6.48041 19.6608 6.69992 19.8516 6.95039 19.9937L10.084 21.8039C10.209 21.8693 10.3544 21.8838 10.4898 21.8445C10.6253 21.8052 10.7404 21.7151 10.8109 21.593C10.8815 21.4709 10.9022 21.3262 10.8686 21.1892C10.8351 21.0522 10.7499 20.9334 10.6309 20.8578L7.49727 19.0476C7.37229 18.9765 7.26256 18.8815 7.17435 18.7679C7.08615 18.6544 7.02119 18.5246 6.9832 18.3859C6.91136 18.1051 6.95053 17.8073 7.09258 17.5547C7.16403 17.43 7.25933 17.3207 7.37303 17.233C7.48673 17.1452 7.61661 17.0807 7.75525 17.0431C7.89388 17.0055 8.03856 16.9956 8.18103 17.0139C8.32349 17.0323 8.46095 17.0785 8.58555 17.15L13.4199 19.9828C13.9941 20.3226 14.4703 20.8056 14.802 21.3846C15.1336 21.9636 15.3094 22.6187 15.3121 23.2859V28.4375H9.84336V27.2343C9.84243 26.848 9.76013 26.4662 9.60184 26.1138C9.44354 25.7614 9.21279 25.4463 8.92461 25.189ZM15.859 32.8125H9.29648V29.5312H15.859V32.8125Z" fill="#3E3465"/>
<path d="M25.2372 2.80657C24.7295 2.298 24.1265 1.89453 23.4627 1.61927C22.7989 1.344 22.0873 1.20234 21.3687 1.20239C20.6501 1.20244 19.9386 1.3442 19.2748 1.61956C18.6111 1.89492 18.0081 2.29847 17.5005 2.80712C16.993 2.29846 16.39 1.89491 15.7263 1.61956C15.0626 1.34422 14.351 1.20249 13.6325 1.20249C12.9139 1.20249 12.2024 1.34422 11.5386 1.61956C10.8749 1.89491 10.272 2.29846 9.76442 2.80712C8.74086 3.83288 8.16602 5.22279 8.16602 6.67188C8.16602 8.12097 8.74086 9.51089 9.76442 10.5366L17.1144 17.8866C17.217 17.9892 17.3561 18.0468 17.5011 18.0468C17.6461 18.0468 17.7851 17.9892 17.8877 17.8866L25.2377 10.5366C26.2612 9.51072 26.836 8.12068 26.8359 6.6715C26.8358 5.22232 26.2608 3.83235 25.2372 2.80657ZM17.5005 16.7267L10.5372 9.76337C9.92582 9.1512 9.50971 8.37152 9.34142 7.5229C9.17314 6.67428 9.26023 5.79482 9.59169 4.99569C9.92316 4.19656 10.4841 3.51364 11.2036 3.03327C11.9232 2.5529 12.769 2.29664 13.6341 2.29688C14.2088 2.29491 14.7782 2.40739 15.3089 2.62775C15.8397 2.84812 16.3213 3.17196 16.7256 3.5804L17.1139 3.96868C17.2164 4.0712 17.3555 4.1288 17.5005 4.1288C17.6455 4.1288 17.7846 4.0712 17.8872 3.96868L18.2765 3.57931C18.6825 3.17257 19.1648 2.84989 19.6956 2.62972C20.2265 2.40956 20.7955 2.29623 21.3702 2.29623C21.9449 2.29623 22.514 2.40956 23.0448 2.62972C23.5756 2.84989 24.0579 3.17257 24.4639 3.57931C25.2831 4.39961 25.7432 5.5115 25.7432 6.67079C25.7432 7.83008 25.2831 8.94197 24.4639 9.76227L17.5005 16.7267Z" fill="#3E3465"/>
</svg>
