<svg width="35" height="35" viewBox="0 0 35 35" fill="none" xmlns="http://www.w3.org/2000/svg">
<path d="M33.1161 8.8512H30.6446H28.1223H25.2701V4.96278C25.2701 3.92405 24.4249 3.07886 23.3861 3.07886H12.6356C11.5968 3.07886 10.7517 3.92399 10.7517 4.96278V8.8512H6.87772H4.35546H1.88392C0.845129 8.8512 0 9.6964 0 10.7351V30.0373C0 31.076 0.845129 31.9212 1.88392 31.9212H4.35546H6.87779H28.1222H30.6445H33.1161C34.1549 31.9212 35 31.076 35 30.0373V10.7351C35.0001 9.69633 34.155 8.8512 33.1161 8.8512ZM6.364 30.8935H4.86918V30.8935V15.4379C4.86918 15.1541 4.63922 14.9241 4.35539 14.9241C4.07156 14.9241 3.8416 15.1541 3.8416 15.4379V30.8935H1.88392C1.41169 30.8935 1.02758 30.5093 1.02758 30.0371V10.7351C1.02758 10.2629 1.41169 9.87878 1.88392 9.87878H3.84167V13.3828C3.84167 13.6666 4.07163 13.8965 4.35546 13.8965C4.63929 13.8965 4.86925 13.6666 4.86925 13.3828V9.87878H6.36407V30.8935H6.364ZM12.6356 4.10651H23.3862C23.8584 4.10651 24.2425 4.49062 24.2425 4.96285V8.85127H22.9137V6.29469C22.9137 5.74693 22.4681 5.30129 21.9203 5.30129H14.1015C13.5538 5.30129 13.1081 5.74693 13.1081 6.29469V8.8512H11.7794V4.96278H11.7793C11.7792 4.49062 12.1633 4.10651 12.6356 4.10651ZM21.886 6.32887V8.85113H14.1357V6.32887H21.886ZM30.1308 30.8935H28.6361V30.8935V26.1482C28.6361 25.8645 28.4061 25.6344 28.1223 25.6344C27.8385 25.6344 27.6085 25.8645 27.6085 26.1482V30.8935H7.39158V9.87878H11.2655H13.6219H22.3998H24.7562H27.6084V24.0931C27.6084 24.3769 27.8384 24.6069 28.1222 24.6069C28.406 24.6069 28.636 24.3769 28.636 24.0931V9.87878H30.1308V30.8935ZM33.9725 30.0372C33.9725 30.5094 33.5884 30.8935 33.1161 30.8935H31.1584V9.87878H33.1161C33.5884 9.87878 33.9725 10.2629 33.9725 10.7351V30.0372Z" fill="#3E3465"/>
<path d="M16.7639 12.6142C16.1103 12.3705 15.4091 12.4355 14.736 12.8024C14.406 12.9823 14.1335 13.2076 13.9263 13.4278C13.7191 13.2076 13.4467 12.9823 13.1167 12.8025C12.4437 12.4357 11.7424 12.3705 11.0889 12.6142C10.0348 13.0072 9.36149 14.0715 9.45138 15.2023C9.53068 16.201 10.2724 17.3646 11.656 18.6609C12.6436 19.5861 13.5968 20.2392 13.637 20.2666C13.7243 20.3261 13.8254 20.3559 13.9265 20.3559C14.0275 20.3559 14.1286 20.3261 14.2159 20.2666C14.256 20.2392 15.2092 19.5862 16.1968 18.6609C17.5801 17.3647 18.3218 16.2012 18.4013 15.2024C18.491 14.0715 17.8177 13.0072 16.7639 12.6142ZM17.3768 15.121C17.267 16.5032 15.066 18.3797 13.9261 19.2126C12.7861 18.3805 10.5856 16.5055 10.4757 15.121C10.4228 14.456 10.8316 13.8067 11.4478 13.577C11.5912 13.5235 11.7345 13.5002 11.8748 13.5002C12.5809 13.5002 13.2106 14.0913 13.389 14.406C13.4982 14.5984 13.7041 14.7181 13.9263 14.7181C14.1485 14.7181 14.3544 14.5985 14.4636 14.406C14.6775 14.0287 15.5402 13.2545 16.4048 13.577C17.0209 13.8068 17.4297 14.4561 17.3768 15.121Z" fill="#3E3465"/>
<path d="M25.41 18.648L22.0526 16.7096C21.9345 16.6415 21.7944 16.6227 21.6628 16.6582C21.5312 16.6935 21.4189 16.7796 21.3508 16.8975L20.0021 19.2336C19.8602 19.4793 19.9444 19.7935 20.1901 19.9354C20.4359 20.0771 20.75 19.9931 20.892 19.7474L21.9838 17.8564L24.4514 19.281L21.899 23.7019C21.8963 23.7015 21.8934 23.7016 21.8906 23.7013C21.8679 23.6983 21.8451 23.6962 21.8216 23.6961C21.8216 23.6961 21.8216 23.6961 21.8215 23.6961H21.8214H20.9291L19.1915 22.693L19.8008 21.6378C19.9426 21.392 19.8585 21.0779 19.6127 20.9359C19.3671 20.7941 19.0527 20.8782 18.9109 21.124L18.0447 22.6242C17.9766 22.7422 17.958 22.8824 17.9934 23.014C18.0287 23.1456 18.1148 23.2579 18.2327 23.326L18.8739 23.6962H15.2091C14.9253 23.6962 14.6953 23.9262 14.6953 24.21V28.0869C14.6953 28.3707 14.9253 28.6007 15.2091 28.6007H21.8214C22.1052 28.6007 22.3352 28.3707 22.3352 28.0869V25.0017L25.5982 19.35C25.7399 19.1042 25.6557 18.79 25.41 18.648ZM15.7228 27.573V24.7237H20.7912H21.3074V27.573H15.7228Z" fill="#3E3465"/>
</svg>
