<svg width="35" height="35" viewBox="0 0 35 35" fill="none" xmlns="http://www.w3.org/2000/svg">
<path d="M4.71327 28.8103L14.0466 34.0906C15.0996 34.6867 16.289 35 17.4991 35C18.7091 35 19.8985 34.6867 20.9515 34.0906L30.2849 28.8103C31.36 28.2008 32.2546 27.3175 32.8778 26.2502C33.5009 25.1829 33.8304 23.9696 33.8327 22.7337V12.267C33.831 11.031 33.5018 9.81745 32.8786 8.75004C32.2554 7.68263 31.3604 6.79943 30.2849 6.19039L20.9515 0.909473C19.8947 0.324243 18.7065 0.0172119 17.4985 0.0172119C16.2905 0.0172119 15.1022 0.324243 14.0454 0.909473L4.7121 6.19039C3.63691 6.7997 2.74234 7.683 2.11945 8.75039C1.49656 9.81777 1.16759 11.0311 1.16602 12.267V22.7337C1.16783 23.9697 1.49703 25.183 2.12012 26.2504C2.7432 27.3178 3.63794 28.2011 4.71327 28.8103ZM2.33268 12.267C2.33419 11.2374 2.60845 10.2267 3.12754 9.33758C3.64663 8.44848 4.39203 7.71279 5.28785 7.20539L14.6212 1.92447C15.4993 1.42778 16.4911 1.16675 17.4999 1.16675C18.5088 1.16675 19.5005 1.42778 20.3787 1.92447L29.712 7.20597C30.6076 7.71338 31.3528 8.44903 31.8717 9.33802C32.3906 10.227 32.6647 11.2376 32.666 12.267V22.7337C32.6644 23.7631 32.3902 24.7737 31.8712 25.6626C31.3522 26.5516 30.607 27.2873 29.7114 27.7947L20.3781 33.0756C19.4973 33.5632 18.507 33.8189 17.5002 33.8189C16.4935 33.8189 15.5032 33.5632 14.6224 33.0756L5.28902 27.7947C4.39302 27.2876 3.64742 26.552 3.12811 25.663C2.60881 24.774 2.33435 23.7633 2.33268 22.7337V12.267Z" fill="#3E3465"/>
<path d="M6.15074 26.2715L15.4841 31.5525C16.0997 31.8986 16.7941 32.0804 17.5004 32.0804C18.2066 32.0804 18.901 31.8986 19.5167 31.5525L28.85 26.2715C29.4765 25.9171 29.9978 25.403 30.361 24.7815C30.7241 24.16 30.9161 23.4534 30.9173 22.7336V12.2669C30.9162 11.547 30.7243 10.8402 30.3611 10.2187C29.998 9.59708 29.4766 9.08286 28.85 8.72838L19.5167 3.44746C18.901 3.10128 18.2066 2.91943 17.5004 2.91943C16.7941 2.91943 16.0997 3.10128 15.4841 3.44746L6.15074 8.72838C5.52439 9.08307 5.00319 9.59736 4.64016 10.2189C4.27713 10.8405 4.08523 11.5471 4.08398 12.2669V22.7336C4.08533 23.4533 4.27728 24.1598 4.64031 24.7813C5.00333 25.4027 5.52448 25.9169 6.15074 26.2715ZM5.25065 12.2669C5.25128 11.7531 5.38816 11.2487 5.64732 10.8051C5.90648 10.3614 6.27866 9.99449 6.7259 9.74163L16.0592 4.46013C16.4995 4.21268 16.996 4.08271 17.5009 4.08271C18.0059 4.08271 18.5024 4.21268 18.9427 4.46013L28.276 9.74163C28.7231 9.99461 29.0951 10.3616 29.3542 10.8052C29.6132 11.2488 29.75 11.7532 29.7507 12.2669V22.7336C29.7499 23.2472 29.613 23.7514 29.3539 24.1949C29.0949 24.6384 28.723 25.0053 28.276 25.2583L18.9427 30.5392C18.5023 30.7862 18.0058 30.9158 17.5009 30.9158C16.9961 30.9158 16.4996 30.7862 16.0592 30.5392L6.7259 25.2583C6.27879 25.0054 5.9067 24.6386 5.64754 24.1951C5.38839 23.7516 5.25144 23.2473 5.25065 22.7336V12.2669Z" fill="#3E3465"/>
<path d="M8.16736 22.75C8.32207 22.75 8.47044 22.6885 8.57983 22.5791C8.68923 22.4697 8.75069 22.3214 8.75069 22.1666V15.3043L12.3119 22.4274C12.3604 22.5244 12.4349 22.6059 12.5271 22.6629C12.6194 22.7199 12.7256 22.75 12.834 22.75C12.8792 22.7498 12.9242 22.7447 12.9682 22.7348C13.0961 22.7046 13.2101 22.632 13.2916 22.5289C13.3732 22.4258 13.4175 22.2981 13.4174 22.1666V12.8333C13.4174 12.6786 13.3559 12.5302 13.2465 12.4208C13.1371 12.3114 12.9887 12.25 12.834 12.25C12.6793 12.25 12.5309 12.3114 12.4215 12.4208C12.3122 12.5302 12.2507 12.6786 12.2507 12.8333V19.6956L8.69236 12.5725C8.63457 12.4532 8.53784 12.3571 8.41812 12.3001C8.29839 12.2431 8.16281 12.2285 8.03373 12.2589C7.90465 12.2893 7.78976 12.3627 7.70801 12.4671C7.62626 12.5716 7.58253 12.7007 7.58402 12.8333V22.1666C7.58402 22.3214 7.64548 22.4697 7.75488 22.5791C7.86427 22.6885 8.01265 22.75 8.16736 22.75Z" fill="#3E3465"/>
<path d="M15.7493 22.75C15.9041 22.75 16.0524 22.6886 16.1618 22.5792C16.2712 22.4698 16.3327 22.3214 16.3327 22.1667V18.0833H18.666C18.8207 18.0833 18.9691 18.0219 19.0785 17.9125C19.1879 17.8031 19.2493 17.6547 19.2493 17.5C19.2493 17.3453 19.1879 17.1969 19.0785 17.0875C18.9691 16.9781 18.8207 16.9167 18.666 16.9167H16.3327V13.4167H20.416C20.5707 13.4167 20.7191 13.3552 20.8285 13.2458C20.9379 13.1364 20.9993 12.988 20.9993 12.8333C20.9993 12.6786 20.9379 12.5303 20.8285 12.4209C20.7191 12.3115 20.5707 12.25 20.416 12.25H15.7493C15.5946 12.25 15.4463 12.3115 15.3369 12.4209C15.2275 12.5303 15.166 12.6786 15.166 12.8333V22.1667C15.166 22.3214 15.2275 22.4698 15.3369 22.5792C15.4463 22.6886 15.5946 22.75 15.7493 22.75Z" fill="#3E3465"/>
<path d="M22.1673 13.4167H23.9173V22.1667C23.9173 22.3214 23.9788 22.4698 24.0882 22.5792C24.1976 22.6886 24.3459 22.75 24.5006 22.75C24.6554 22.75 24.8037 22.6886 24.9131 22.5792C25.0225 22.4698 25.084 22.3214 25.084 22.1667V13.4167H26.834C26.9887 13.4167 27.1371 13.3552 27.2465 13.2458C27.3559 13.1364 27.4173 12.988 27.4173 12.8333C27.4173 12.6786 27.3559 12.5303 27.2465 12.4209C27.1371 12.3115 26.9887 12.25 26.834 12.25H22.1673C22.0126 12.25 21.8642 12.3115 21.7548 12.4209C21.6454 12.5303 21.584 12.6786 21.584 12.8333C21.584 12.988 21.6454 13.1364 21.7548 13.2458C21.8642 13.3552 22.0126 13.4167 22.1673 13.4167Z" fill="#3E3465"/>
</svg>
