<svg width="35" height="35" viewBox="0 0 35 35" fill="none" xmlns="http://www.w3.org/2000/svg">
<path d="M32.8433 2.73987H2.15667C0.967422 2.73987 0 3.70729 0 4.89647V25.7196C0 26.9088 0.967422 27.8762 2.15667 27.8762H12.5354L12.1156 31.2347H10.3763C10.0931 31.2347 9.86357 31.4642 9.86357 31.7474C9.86357 32.0305 10.0931 32.2601 10.3763 32.2601H24.6237C24.9069 32.2601 25.1364 32.0305 25.1364 31.7474C25.1364 31.4642 24.9069 31.2347 24.6237 31.2347H22.8845L22.4646 27.8762H32.8433C34.0325 27.8762 35 26.9088 35 25.7196V4.89647C35 3.70729 34.0326 2.73987 32.8433 2.73987ZM13.149 31.2347L13.5689 27.8762H15.4558L15.6409 28.6166C15.8546 29.4713 16.6191 30.0681 17.5001 30.0681C18.381 30.0681 19.1455 29.4713 19.3592 28.6166L19.5444 27.8762H21.4313L21.851 31.2347H13.149ZM16.5127 27.8762H18.4872L18.3643 28.3679C18.265 28.7652 17.9096 29.0427 17.4999 29.0427C17.0903 29.0427 16.7349 28.7652 16.6355 28.3679L16.5127 27.8762ZM33.9746 25.7196C33.9746 26.3434 33.4671 26.8508 32.8433 26.8508H2.15667C1.53289 26.8508 1.02539 26.3434 1.02539 25.7196V4.89647C1.02539 4.27269 1.53289 3.76526 2.15667 3.76526H32.8433C33.4671 3.76526 33.9746 4.27269 33.9746 4.89647V25.7196Z" fill="#3E3465"/>
<path d="M29.007 4.93188H2.7041C2.42089 4.93188 2.19141 5.16137 2.19141 5.44458V25.1717C2.19141 25.4549 2.42089 25.6844 2.7041 25.6844H3.80011C4.08332 25.6844 4.3128 25.4549 4.3128 25.1717C4.31287 24.8886 4.08332 24.659 3.80018 24.659H3.21687V5.95728H29.007C29.2902 5.95728 29.5197 5.72772 29.5197 5.44458C29.5197 5.16137 29.2902 4.93188 29.007 4.93188Z" fill="#3E3465"/>
<path d="M32.2961 4.93188H31.2001C30.9169 4.93188 30.6874 5.16137 30.6874 5.44458C30.6874 5.72772 30.9169 5.95728 31.2001 5.95728H31.7834V24.659H5.99316C5.70995 24.659 5.48047 24.8886 5.48047 25.1717C5.48047 25.4549 5.70995 25.6844 5.99316 25.6844H32.296C32.5792 25.6844 32.8087 25.4549 32.8087 25.1717V5.44458C32.8088 5.16137 32.5792 4.93188 32.2961 4.93188Z" fill="#3E3465"/>
<path d="M24.4802 10.6083C24.388 10.4905 24.2491 10.4189 24.0998 10.4121L12.0443 9.86406C12.0349 9.86365 12.0256 9.86344 12.0161 9.86358C11.9448 9.62931 11.794 9.42615 11.5898 9.28998L10.1135 8.30574C9.87792 8.14872 9.55956 8.21236 9.40254 8.44799C9.24552 8.68363 9.30916 9.00191 9.54473 9.15893L11.021 10.143C11.028 10.1477 11.0331 10.1547 11.0354 10.1628L12.9159 16.7445C12.9746 16.9497 13.0711 17.1341 13.1951 17.2934L12.507 18.6695C12.3414 19.0007 12.3587 19.3865 12.5534 19.7015C12.6241 19.8157 12.7136 19.913 12.8165 19.9909C12.6818 20.226 12.6044 20.4979 12.6044 20.7877C12.6044 21.6748 13.326 22.3964 14.213 22.3964C15.1 22.3964 15.8216 21.6747 15.8216 20.7877C15.8216 20.5821 15.7824 20.3855 15.7117 20.2045H20.3859C20.3152 20.3855 20.276 20.5821 20.276 20.7877C20.276 21.6748 20.9977 22.3964 21.8846 22.3964C22.7716 22.3964 23.4933 21.6747 23.4933 20.7877C23.4933 20.5304 23.4322 20.2873 23.3244 20.0714C23.4278 19.9776 23.4933 19.8425 23.4933 19.6918C23.4933 19.4087 23.2638 19.1791 22.9806 19.1791H13.4555C13.4482 19.1791 13.4358 19.1791 13.4255 19.1624C13.4152 19.1457 13.4207 19.1347 13.424 19.1281L14.0578 17.8605C14.1868 17.8936 14.3212 17.9115 14.4587 17.9115C14.5221 17.9115 14.5861 17.9078 14.6505 17.9002L21.8546 17.0527C22.7851 16.9432 23.5337 16.2525 23.7174 15.3338L24.5792 11.0248C24.6085 10.8782 24.5723 10.7261 24.4802 10.6083ZM21.8845 20.2046C22.2061 20.2046 22.4677 20.4663 22.4677 20.7879C22.4677 21.1095 22.2061 21.3711 21.8845 21.3711C21.5629 21.3711 21.3013 21.1095 21.3013 20.7879C21.3013 20.4663 21.5629 20.2046 21.8845 20.2046ZM14.2129 20.2046C14.5345 20.2046 14.7961 20.4663 14.7961 20.7879C14.7961 21.1095 14.5345 21.3711 14.2129 21.3711C13.8912 21.3711 13.6296 21.1095 13.6296 20.7879C13.6296 20.4663 13.8912 20.2046 14.2129 20.2046ZM12.9556 13.1515L12.3131 10.9028L14.3628 10.996L14.7182 13.1515H12.9556ZM14.5307 16.8819C14.2449 16.9155 13.9806 16.7392 13.9018 16.4629L13.2486 14.1769H14.8873L15.318 16.7893L14.5307 16.8819ZM17.536 16.5283L16.3375 16.6694L15.9266 14.1769H17.536V16.5283ZM17.536 13.1515H15.7575L15.41 11.0436L17.536 11.1403V13.1515ZM20.1324 16.2228L18.5614 16.4077V14.1769H20.3176L20.1324 16.2228ZM20.4105 13.1515H18.5614V11.1868L20.58 11.2785L20.4105 13.1515ZM22.7119 15.1328C22.6155 15.6146 22.2228 15.977 21.7348 16.0344L21.1731 16.1005L21.3472 14.1769H22.903L22.7119 15.1328ZM23.1081 13.1515H21.4401L21.6054 11.3252L23.4566 11.4093L23.1081 13.1515Z" fill="#3E3465"/>
</svg>
