<svg width="35" height="35" viewBox="0 0 35 35" fill="none" xmlns="http://www.w3.org/2000/svg">
<g clip-path="url(#clip0_1203_1241)">
<path d="M34.4873 30.6866H32.2601V12.0201C32.2601 10.8309 31.2927 9.86353 30.1035 9.86353H23.528C23.2449 9.86353 23.0153 10.0931 23.0153 10.3762C23.0153 10.6594 23.2449 10.8889 23.528 10.8889H30.1035C30.7273 10.8889 31.2347 11.3964 31.2347 12.0201V30.6867H29.4798C29.5063 30.4931 29.5202 30.2983 29.5202 30.1035C29.5202 27.7057 27.5694 25.7549 25.1716 25.7549C24.8492 25.7549 24.5273 25.7917 24.21 25.8647C23.6569 24.7988 22.555 24.1109 21.3358 24.1109C20.9381 24.1109 20.5518 24.1835 20.1882 24.3243C20.0388 22.9733 18.8902 21.919 17.5 21.919C16.1098 21.919 14.9612 22.9733 14.8118 24.3243C14.4482 24.1835 14.0619 24.1109 13.6642 24.1109C12.445 24.1109 11.3431 24.7988 10.79 25.8647C10.4726 25.7917 10.1508 25.7549 9.82837 25.7549C7.43053 25.7549 5.47982 27.7057 5.47982 30.1035C5.47982 30.2983 5.4937 30.4931 5.52016 30.6867H3.7653V12.0201C3.7653 11.3963 4.27273 10.8889 4.89651 10.8889H11.4722C11.7554 10.8889 11.9849 10.6594 11.9849 10.3762C11.9849 10.0931 11.7554 9.86353 11.4722 9.86353H4.89651C3.70733 9.86353 2.73991 10.831 2.73991 12.0201V30.6867H0.512695C0.229551 30.6867 0 30.9162 0 31.1994V32.2953C0 33.1824 0.72167 33.904 1.60863 33.904H33.3914C34.2784 33.904 35 33.1823 35 32.2953V31.1994C35 30.9162 34.7705 30.6866 34.4873 30.6866ZM33.9746 32.2953C33.9746 32.617 33.7129 32.8786 33.3914 32.8786H1.60863C1.287 32.8786 1.02539 32.6169 1.02539 32.2953V31.7121H7.63622C7.91937 31.7121 8.14892 31.4825 8.14892 31.1994C8.14892 30.9162 7.91937 30.6867 7.63622 30.6867H6.55765C6.52285 30.4934 6.50515 30.2983 6.50515 30.1035C6.50515 28.2711 7.99593 26.7803 9.8283 26.7803C10.1933 26.7803 10.5587 26.8428 10.9145 26.966C11.0434 27.0106 11.1846 27.0021 11.3072 26.9423C11.4297 26.8825 11.5233 26.7764 11.5675 26.6474C11.8766 25.7436 12.7192 25.1364 13.6642 25.1364C14.1825 25.1364 14.6746 25.3198 15.0877 25.6669C15.2621 25.8134 15.5121 25.8273 15.7017 25.701C15.8912 25.5748 15.9748 25.3387 15.9068 25.1213C15.8482 24.9336 15.8208 24.7755 15.8208 24.6237C15.8208 23.6978 16.5741 22.9445 17.5 22.9445C18.4259 22.9445 19.1792 23.6978 19.1792 24.6237C19.1792 24.7755 19.1518 24.9336 19.0932 25.1213C19.0252 25.3387 19.1088 25.5748 19.2983 25.701C19.4879 25.8272 19.7379 25.8134 19.9123 25.6669C20.3254 25.3199 20.8176 25.1364 21.3358 25.1364C22.2808 25.1364 23.1234 25.7436 23.4325 26.6474C23.4767 26.7764 23.5703 26.8825 23.6928 26.9423C23.8154 27.0021 23.9567 27.0107 24.0855 26.966C24.4413 26.8428 24.8067 26.7803 25.1717 26.7803C27.0041 26.7803 28.4949 28.2711 28.4949 30.1035C28.4949 30.2983 28.4771 30.4934 28.4424 30.6867H9.82851C9.54536 30.6867 9.31581 30.9162 9.31581 31.1994C9.31581 31.4825 9.54536 31.7121 9.82851 31.7121H33.9746V32.2953Z" fill="#3E3465"/>
<path d="M10.912 16.1666C10.5896 16.5533 10.4121 17.0437 10.4121 17.5472V19.1439C10.4121 19.3262 10.5089 19.4948 10.6663 19.5867C10.7461 19.6333 10.8355 19.6566 10.9248 19.6566C11.0117 19.6566 11.0986 19.6346 11.1768 19.5905L14.8279 17.5303C14.967 17.7843 15.1145 18.0343 15.2703 18.2796L14.8113 20.1155C14.773 20.2687 14.8074 20.431 14.9046 20.5554C15.0017 20.6799 15.1508 20.7526 15.3087 20.7526H19.6925C19.8504 20.7526 19.9994 20.6799 20.0967 20.5554C20.1938 20.431 20.2282 20.2687 20.1899 20.1155L19.7309 18.2796C19.8867 18.0343 20.0342 17.7844 20.1733 17.5303L23.8244 19.5905C23.9027 19.6346 23.9895 19.6566 24.0764 19.6566C24.1657 19.6566 24.2551 19.6333 24.3349 19.5867C24.4923 19.4948 24.5891 19.3263 24.5891 19.1439V17.5472C24.5891 17.0437 24.4116 16.5533 24.0892 16.1666L21.6554 13.2469C21.7836 12.4853 21.8492 11.7088 21.8492 10.9243C21.8492 9.05458 21.4872 7.2473 20.7733 5.55274C20.0848 3.9184 19.1048 2.4685 17.8603 1.2433C17.6608 1.04683 17.3405 1.04683 17.141 1.2433C15.8966 2.46843 14.9165 3.91833 14.228 5.55274C13.5141 7.24737 13.1522 9.05458 13.1522 10.9243C13.1522 11.7075 13.2176 12.4829 13.3453 13.2433L10.912 16.1666ZM11.4375 18.2659V17.5472C11.4375 17.2831 11.5306 17.0259 11.6997 16.823L13.6214 14.517C13.8134 15.2353 14.063 15.9358 14.369 16.6119L11.4375 18.2659ZM15.9653 19.7272L16.2569 18.5607H18.7442L19.0358 19.7272H15.9653ZM23.3013 16.823C23.4704 17.0259 23.5635 17.2831 23.5635 17.5472V18.2659L20.632 16.6118C20.9379 15.9358 21.1876 15.2353 21.3796 14.5169L23.3013 16.823ZM17.5005 2.34402C18.3615 3.26954 19.0716 4.33075 19.6113 5.4798H15.3897C15.9294 4.33075 16.6395 3.26954 17.5005 2.34402ZM14.9625 6.50512H20.0385C20.5511 7.90273 20.8236 9.4011 20.8236 10.9242C20.8236 13.2818 20.1893 15.5612 18.9866 17.5352H16.0143C14.8116 15.5612 14.1773 13.2818 14.1773 10.9242C14.1773 9.4011 14.4499 7.9028 14.9625 6.50512Z" fill="#3E3465"/>
<path d="M19.657 10.3763C19.657 9.18715 18.6895 8.21973 17.5004 8.21973C16.3112 8.21973 15.3438 9.18722 15.3438 10.3763C15.3438 11.5654 16.3112 12.5329 17.5004 12.5329C18.6895 12.5329 19.657 11.5655 19.657 10.3763ZM16.3691 10.3763C16.3691 9.75255 16.8766 9.24512 17.5004 9.24512C18.1241 9.24512 18.6316 9.75262 18.6316 10.3763C18.6316 11 18.1241 11.5075 17.5004 11.5075C16.8766 11.5075 16.3691 11.0001 16.3691 10.3763Z" fill="#3E3465"/>
</g>
<defs>
<clipPath id="clip0_1203_1241">
<rect width="35" height="35" fill="white"/>
</clipPath>
</defs>
</svg>
