<svg width="35" height="35" viewBox="0 0 35 35" fill="none" xmlns="http://www.w3.org/2000/svg">
<path d="M4.92188 26.8975V19.6875H3.82812V26.8975C3.1932 27.1239 2.73438 27.7255 2.73438 28.4375C2.73438 29.342 3.47047 30.0781 4.375 30.0781C5.27953 30.0781 6.01562 29.342 6.01562 28.4375C6.01562 27.7255 5.5568 27.1239 4.92188 26.8975ZM4.375 28.9844C4.07313 28.9844 3.82812 28.7394 3.82812 28.4375C3.82812 28.1356 4.07313 27.8906 4.375 27.8906C4.67687 27.8906 4.92188 28.1356 4.92188 28.4375C4.92188 28.7394 4.67687 28.9844 4.375 28.9844Z" fill="#3E3465"/>
<path d="M7.65625 19.6875C6.75172 19.6875 6.01562 20.4236 6.01562 21.3281C6.01562 22.0402 6.47445 22.6417 7.10938 22.8681V30.0781H8.20312V22.8681C8.83805 22.6417 9.29688 22.0402 9.29688 21.3281C9.29688 20.4236 8.56078 19.6875 7.65625 19.6875ZM7.65625 21.875C7.35438 21.875 7.10938 21.63 7.10938 21.3281C7.10938 21.0263 7.35438 20.7812 7.65625 20.7812C7.95812 20.7812 8.20312 21.0263 8.20312 21.3281C8.20312 21.63 7.95812 21.875 7.65625 21.875Z" fill="#3E3465"/>
<path d="M28.9844 26.8975V19.6875H27.8906V26.8975C27.2557 27.1239 26.7969 27.7255 26.7969 28.4375C26.7969 29.342 27.533 30.0781 28.4375 30.0781C29.342 30.0781 30.0781 29.342 30.0781 28.4375C30.0781 27.7255 29.6193 27.1239 28.9844 26.8975ZM28.4375 28.9844C28.1356 28.9844 27.8906 28.7394 27.8906 28.4375C27.8906 28.1356 28.1356 27.8906 28.4375 27.8906C28.7394 27.8906 28.9844 28.1356 28.9844 28.4375C28.9844 28.7394 28.7394 28.9844 28.4375 28.9844Z" fill="#3E3465"/>
<path d="M31.7188 19.6875C30.8142 19.6875 30.0781 20.4236 30.0781 21.3281C30.0781 22.0402 30.537 22.6417 31.1719 22.8681V30.0781H32.2656V22.8681C32.9005 22.6417 33.3594 22.0402 33.3594 21.3281C33.3594 20.4236 32.6233 19.6875 31.7188 19.6875ZM31.7188 21.875C31.4169 21.875 31.1719 21.63 31.1719 21.3281C31.1719 21.0263 31.4169 20.7812 31.7188 20.7812C32.0206 20.7812 32.2656 21.0263 32.2656 21.3281C32.2656 21.63 32.0206 21.875 31.7188 21.875Z" fill="#3E3465"/>
<path d="M24.0625 18.0469C23.8465 18.0469 23.6414 18.0912 23.4522 18.1672C23.2635 17.4699 22.6313 16.9531 21.875 16.9531C21.4534 16.9531 21.0722 17.1177 20.7812 17.3797C20.4903 17.1172 20.1091 16.9531 19.6875 16.9531C19.495 16.9531 19.3123 16.9925 19.1406 17.0537V12.3479C21.4145 11.7037 23.0973 9.76445 23.4445 7.44844L25.7567 8.72047C24.401 9.71633 23.5156 11.3176 23.5156 13.125C23.5156 16.1405 25.9689 18.5938 28.9844 18.5938C31.9998 18.5938 34.4531 16.1405 34.4531 13.125C34.4531 10.1095 31.9998 7.65625 28.9844 7.65625C28.2346 7.65625 27.5193 7.80828 26.868 8.08281L23.4987 6.22945C23.3248 3.06797 20.7047 0.546875 17.5 0.546875C14.2953 0.546875 11.6752 3.06797 11.5013 6.23L8.13203 8.08281C7.4807 7.80828 6.76594 7.65625 6.01562 7.65625C3.00016 7.65625 0.546875 10.1095 0.546875 13.125C0.546875 16.1405 3.00016 18.5938 6.01562 18.5938C9.03109 18.5938 11.4844 16.1405 11.4844 13.125C11.4844 11.317 10.599 9.71633 9.24273 8.71992L11.5555 7.44789C11.9027 9.76609 13.5844 11.7042 15.8599 12.3484V22.429C15.8599 22.6778 15.8025 22.9272 15.6926 23.1503L15.2338 20.8567C14.9051 19.215 13.4515 18.0234 11.7775 18.0234C11.0135 18.0234 10.3912 18.6457 10.3912 19.4097C10.3912 19.6842 10.4716 19.95 10.6241 20.1786L11.1869 21.023C11.3952 21.3352 11.5298 21.6973 11.5763 22.0697L11.9547 25.0955C12.017 25.6003 12.1767 26.0799 12.4124 26.4884L14.2188 30.2039V31.1719H13.125V34.4531H25.1562V31.1719H24.0625V30.2602L24.9375 29.0938C25.4313 28.4359 25.7031 27.6205 25.7031 26.7969V19.6875C25.7031 18.783 24.967 18.0469 24.0625 18.0469ZM28.9844 17.5C28.0005 17.5 27.0949 17.1697 26.3638 16.6201C26.979 15.8041 27.947 15.3125 28.9844 15.3125C30.0218 15.3125 30.9898 15.8041 31.605 16.6201C30.8738 17.1697 29.9682 17.5 28.9844 17.5ZM27.3438 12.5781C27.3438 11.6736 28.0798 10.9375 28.9844 10.9375C29.8889 10.9375 30.625 11.6736 30.625 12.5781C30.625 13.4827 29.8889 14.2188 28.9844 14.2188C28.0798 14.2188 27.3438 13.4827 27.3438 12.5781ZM28.9844 8.75C31.3966 8.75 33.3594 10.7127 33.3594 13.125C33.3594 14.1602 32.9963 15.1118 32.3925 15.8616C31.9594 15.3223 31.4103 14.8974 30.7896 14.6158C31.3551 14.1143 31.7188 13.3913 31.7188 12.5781C31.7188 11.0704 30.4921 9.84375 28.9844 9.84375C27.4766 9.84375 26.25 11.0704 26.25 12.5781C26.25 13.3913 26.6137 14.1143 27.1791 14.6158C26.5584 14.898 26.0094 15.3223 25.5763 15.8616C24.9725 15.1118 24.6094 14.1602 24.6094 13.125C24.6094 10.7127 26.5721 8.75 28.9844 8.75ZM6.01562 17.5C5.0318 17.5 4.12617 17.1697 3.395 16.6201C4.01023 15.8041 4.9782 15.3125 6.01562 15.3125C7.05305 15.3125 8.02102 15.8041 8.63625 16.6201C7.90508 17.1697 6.99945 17.5 6.01562 17.5ZM4.375 12.5781C4.375 11.6736 5.11109 10.9375 6.01562 10.9375C6.92016 10.9375 7.65625 11.6736 7.65625 12.5781C7.65625 13.4827 6.92016 14.2188 6.01562 14.2188C5.11109 14.2188 4.375 13.4827 4.375 12.5781ZM10.3906 13.125C10.3906 14.1602 10.0275 15.1118 9.42375 15.8616C8.99063 15.3223 8.44156 14.8974 7.82086 14.6158C8.38633 14.1143 8.75 13.3913 8.75 12.5781C8.75 11.0704 7.52336 9.84375 6.01562 9.84375C4.50789 9.84375 3.28125 11.0704 3.28125 12.5781C3.28125 13.3913 3.64492 14.1143 4.21039 14.6158C3.58969 14.898 3.04063 15.3223 2.6075 15.8616C2.00375 15.1118 1.64062 14.1602 1.64062 13.125C1.64062 10.7127 3.60336 8.75 6.01562 8.75C8.42789 8.75 10.3906 10.7127 10.3906 13.125ZM12.5781 6.5625C12.5781 3.84836 14.7859 1.64062 17.5 1.64062C20.2141 1.64062 22.4219 3.84836 22.4219 6.5625C22.4219 7.66555 22.0473 8.69914 21.4145 9.53312C20.9645 8.62586 20.2191 7.91164 19.3123 7.50039C19.8734 6.99945 20.2344 6.27867 20.2344 5.46875C20.2344 3.96102 19.0077 2.73438 17.5 2.73438C15.9923 2.73438 14.7656 3.96102 14.7656 5.46875C14.7656 6.27867 15.1266 6.99945 15.6877 7.50039C14.7804 7.91164 14.035 8.62641 13.5849 9.53367C12.9522 8.70023 12.5781 7.66664 12.5781 6.5625ZM19.1406 5.46875C19.1406 6.37328 18.4045 7.10938 17.5 7.10938C16.5955 7.10938 15.8594 6.37328 15.8594 5.46875C15.8594 4.56422 16.5955 3.82812 17.5 3.82812C18.4045 3.82812 19.1406 4.56422 19.1406 5.46875ZM14.4167 10.3923C14.875 9.09125 16.0934 8.20312 17.5 8.20312C18.9055 8.20312 20.1239 9.09125 20.5833 10.3912C20.1042 10.7789 19.5519 11.0813 18.9438 11.2678C18.6676 10.7488 18.1278 10.3906 17.5 10.3906C16.8722 10.3906 16.3324 10.7488 16.0568 11.2678C15.4481 11.0813 14.8958 10.7795 14.4167 10.3923ZM24.0625 33.3594H14.2188V32.2656H24.0625V33.3594ZM24.6094 26.7969C24.6094 27.3848 24.4152 27.9677 24.0625 28.4375L22.9688 29.896V31.1719H15.3125V29.9523L13.3788 25.9782C13.1983 25.6637 13.0845 25.322 13.0397 24.9616L12.6613 21.9352C12.594 21.3954 12.3993 20.8704 12.0969 20.4176L11.5336 19.5727C11.5013 19.5245 11.4844 19.4682 11.4844 19.4097C11.4844 19.2484 11.6156 19.1177 11.777 19.1177C12.9314 19.1177 13.9338 19.9396 14.1608 21.0716L14.8641 24.5864H16.1973L16.6644 23.6518C16.853 23.2745 16.9531 22.8512 16.9531 22.4295V12.0312C16.9531 11.7294 17.1981 11.4844 17.5 11.4844C17.8019 11.4844 18.0469 11.7294 18.0469 12.0312V18.5938V20.7812H19.1406V18.5938C19.1406 18.2919 19.3856 18.0469 19.6875 18.0469C19.9894 18.0469 20.2344 18.2919 20.2344 18.5938V20.7812H21.3281V18.5938C21.3281 18.2919 21.5731 18.0469 21.875 18.0469C22.1769 18.0469 22.4219 18.2919 22.4219 18.5938V19.6875V20.7812H23.5156V19.6875C23.5156 19.3856 23.7606 19.1406 24.0625 19.1406C24.3644 19.1406 24.6094 19.3856 24.6094 19.6875V26.7969Z" fill="#3E3465"/>
</svg>
