<svg width="35" height="36" viewBox="0 0 35 36" fill="none" xmlns="http://www.w3.org/2000/svg">
<path d="M6.57589 18.3642C6.67515 20.4453 7.3713 22.4538 8.58121 24.15L9.47248 23.516C8.39452 22.0049 7.76958 20.2178 7.67087 18.3642H8.74972V17.2705H7.67087C7.7695 15.4169 8.39435 13.6299 9.47221 12.1187L8.58094 11.4847C7.37113 13.1809 6.67507 15.1894 6.57589 17.2705H5.39929C5.26618 16.755 4.94963 16.3057 4.50897 16.0069C4.06831 15.708 3.53379 15.5802 3.00562 15.6473C2.47744 15.7144 1.99186 15.9718 1.63989 16.3713C1.28793 16.7708 1.09375 17.2849 1.09375 17.8173C1.09375 18.3498 1.28793 18.8639 1.63989 19.2634C1.99186 19.6629 2.47744 19.9203 3.00562 19.9874C3.53379 20.0545 4.06831 19.9267 4.50897 19.6278C4.94963 19.329 5.26618 18.8797 5.39929 18.3642H6.57589ZM3.28097 18.9111C3.06464 18.9111 2.85318 18.847 2.67331 18.7268C2.49345 18.6066 2.35326 18.4358 2.27047 18.2359C2.18769 18.0361 2.16603 17.8161 2.20823 17.604C2.25044 17.3918 2.35461 17.1969 2.50757 17.044C2.66053 16.891 2.85542 16.7868 3.06759 16.7446C3.27975 16.7024 3.49967 16.7241 3.69953 16.8069C3.89938 16.8896 4.0702 17.0298 4.19039 17.2097C4.31057 17.3896 4.37472 17.601 4.37472 17.8173C4.37437 18.1073 4.25903 18.3853 4.05399 18.5904C3.84894 18.7954 3.57094 18.9108 3.28097 18.9111Z" fill="#3E3465"/>
<path d="M31.7188 15.6298C31.234 15.6305 30.7631 15.7918 30.3798 16.0887C29.9964 16.3856 29.7224 16.8012 29.6005 17.2705H28.4239C28.3247 15.1894 27.6285 13.1809 26.4186 11.4847L25.5273 12.1187C26.6053 13.6298 27.2302 15.4169 27.329 17.2705H26.2501V18.3642H27.329C27.2303 20.2178 26.6055 22.0048 25.5276 23.516L26.4189 24.15C27.6287 22.4538 28.3247 20.4453 28.4239 18.3642H29.6003C29.7025 18.7603 29.9138 19.1198 30.2102 19.4019C30.5065 19.6839 30.876 19.8772 31.2767 19.9598C31.6774 20.0424 32.0932 20.011 32.477 19.8691C32.8607 19.7272 33.1969 19.4805 33.4475 19.1571C33.698 18.8337 33.8529 18.4465 33.8945 18.0395C33.936 17.6326 33.8626 17.2221 33.6826 16.8547C33.5025 16.4873 33.2231 16.1778 32.876 15.9613C32.5288 15.7448 32.128 15.63 31.7188 15.6298ZM31.7188 18.9111C31.5025 18.9111 31.2911 18.847 31.1112 18.7268C30.9313 18.6066 30.7911 18.4358 30.7083 18.2359C30.6256 18.0361 30.6039 17.8161 30.6461 17.604C30.6883 17.3918 30.7925 17.1969 30.9454 17.044C31.0984 16.891 31.2933 16.7868 31.5055 16.7446C31.7176 16.7024 31.9375 16.7241 32.1374 16.8069C32.3373 16.8896 32.5081 17.0298 32.6283 17.2097C32.7484 17.3896 32.8126 17.601 32.8126 17.8173C32.8122 18.1073 32.6969 18.3853 32.4919 18.5904C32.2868 18.7954 32.0088 18.9108 31.7188 18.9111Z" fill="#3E3465"/>
<path d="M7.44626 9.94971C7.83699 9.95006 8.22069 9.8458 8.55751 9.64776L10.9266 12.0169L11.7 11.2435L9.33086 8.87441C9.57651 8.45641 9.67661 7.96875 9.61549 7.48778C9.55438 7.0068 9.33548 6.55967 8.99309 6.2164C8.73881 5.96179 8.42565 5.77385 8.08136 5.66922C7.73708 5.56459 7.37229 5.54651 7.01935 5.61658C6.6664 5.68665 6.33619 5.84271 6.05798 6.07092C5.77977 6.29913 5.56215 6.59245 5.42441 6.92488C5.28668 7.25731 5.23307 7.61859 5.26835 7.97669C5.30363 8.33479 5.42671 8.67866 5.62667 8.97782C5.82664 9.27698 6.09731 9.52219 6.41471 9.69172C6.73211 9.86125 7.08642 9.94986 7.44626 9.94971ZM6.67291 6.98975C6.82587 6.83679 7.02076 6.73262 7.23293 6.69043C7.44509 6.64823 7.66501 6.66989 7.86486 6.75268C8.06471 6.83546 8.23553 6.97565 8.35571 7.15551C8.47589 7.33538 8.54004 7.54684 8.54004 7.76316C8.54004 7.97948 8.47589 8.19095 8.35571 8.37081C8.23553 8.55068 8.06471 8.69087 7.86486 8.77365C7.66501 8.85644 7.44509 8.8781 7.23293 8.8359C7.02076 8.7937 6.82587 8.68954 6.67291 8.53658C6.57094 8.43525 6.49002 8.31475 6.4348 8.18202C6.37958 8.04929 6.35115 7.90696 6.35115 7.7632C6.35115 7.61944 6.37958 7.4771 6.4348 7.34437C6.49002 7.21165 6.57094 7.09115 6.67291 6.98981V6.98975Z" fill="#3E3465"/>
<path d="M29.1013 26.3247C28.758 25.9823 28.3109 25.7634 27.8299 25.7023C27.3489 25.6412 26.8613 25.7413 26.4433 25.9869L24.0742 23.6178L23.3008 24.3912L25.6699 26.7603C25.4622 27.1127 25.3574 27.5163 25.3675 27.9253C25.3777 28.3343 25.5023 28.7322 25.7273 29.0739C25.9522 29.4157 26.2685 29.6874 26.6402 29.8584C27.0118 30.0294 27.424 30.0927 27.8298 30.0412C28.2357 29.9897 28.6189 29.8254 28.9361 29.567C29.2533 29.3086 29.4916 28.9664 29.6241 28.5793C29.7565 28.1922 29.7778 27.7758 29.6854 27.3772C29.593 26.9787 29.3908 26.614 29.1015 26.3247H29.1013ZM28.3279 28.6449C28.1749 28.7977 27.9801 28.9017 27.7681 28.9438C27.556 28.9859 27.3363 28.9642 27.1365 28.8814C26.9368 28.7986 26.7662 28.6585 26.6461 28.4787C26.526 28.299 26.4619 28.0876 26.4619 27.8715C26.4619 27.6553 26.526 27.4439 26.6461 27.2642C26.7662 27.0844 26.9368 26.9443 27.1365 26.8615C27.3363 26.7787 27.556 26.757 27.7681 26.7991C27.9801 26.8412 28.1749 26.9452 28.3279 27.098C28.5327 27.3033 28.6477 27.5815 28.6477 27.8715C28.6477 28.1614 28.5327 28.4396 28.3279 28.6449Z" fill="#3E3465"/>
<path d="M11.6988 24.3912L10.9254 23.6178L8.55631 25.9869C8.20396 25.7794 7.8005 25.6749 7.39173 25.6851C6.98295 25.6954 6.58524 25.82 6.24375 26.045C5.90226 26.2699 5.63067 26.586 5.45981 26.9575C5.28896 27.329 5.22568 27.741 5.27717 28.1466C5.32866 28.5523 5.49286 28.9354 5.75111 29.2524C6.00936 29.5694 6.35132 29.8077 6.73818 29.9401C7.12503 30.0726 7.54127 30.094 7.93965 30.0018C8.33802 29.9096 8.70257 29.7075 8.99189 29.4186C9.33428 29.0753 9.55317 28.6282 9.61429 28.1472C9.67541 27.6662 9.57531 27.1786 9.32966 26.7605L11.6988 24.3912ZM8.21854 28.6449C8.0656 28.7977 7.87079 28.9017 7.65872 28.9439C7.44666 28.986 7.22687 28.9643 7.02714 28.8815C6.82741 28.7987 6.6567 28.6586 6.53661 28.4788C6.41651 28.299 6.35241 28.0877 6.35241 27.8715C6.35241 27.6553 6.41651 27.4439 6.53661 27.2641C6.6567 27.0843 6.82741 26.9442 7.02714 26.8614C7.22687 26.7786 7.44666 26.7569 7.65872 26.7991C7.87079 26.8412 8.0656 26.9452 8.21854 27.098C8.42334 27.3033 8.53835 27.5815 8.53835 27.8715C8.53835 28.1614 8.42334 28.4396 8.21854 28.6449Z" fill="#3E3465"/>
<path d="M23.3008 11.2434L24.0742 12.0169L26.4433 9.64773C26.8613 9.89327 27.3489 9.9933 27.8299 9.93219C28.3108 9.87107 28.7579 9.65226 29.1013 9.30997C29.3905 9.02062 29.5928 8.65596 29.6851 8.25742C29.7775 7.85887 29.7562 7.44241 29.6238 7.05534C29.4913 6.66827 29.253 6.3261 28.9358 6.06768C28.6187 5.80927 28.2354 5.64498 27.8296 5.59346C27.4237 5.54195 27.0115 5.60527 26.6399 5.77625C26.2682 5.94723 25.9519 6.21901 25.727 6.56071C25.502 6.90242 25.3774 7.30036 25.3673 7.70934C25.3571 8.11832 25.4619 8.52195 25.6696 8.87438L23.3008 11.2434ZM26.781 6.98978C26.934 6.83682 27.1289 6.73266 27.341 6.69046C27.5532 6.64826 27.7731 6.66993 27.973 6.75271C28.1728 6.8355 28.3436 6.97569 28.4638 7.15555C28.584 7.33542 28.6481 7.54688 28.6481 7.7632C28.6481 7.97952 28.584 8.19098 28.4638 8.37085C28.3436 8.55071 28.1728 8.6909 27.973 8.77369C27.7731 8.85647 27.5532 8.87814 27.341 8.83594C27.1289 8.79374 26.934 8.68958 26.781 8.53662C26.6791 8.43527 26.5981 8.31477 26.5429 8.18204C26.4877 8.0493 26.4593 7.90696 26.4593 7.7632C26.4593 7.61944 26.4877 7.4771 26.5429 7.34437C26.5981 7.21163 26.6791 7.09113 26.781 6.98978Z" fill="#3E3465"/>
<path d="M23.8332 26.7361L23.1992 25.8448C21.6881 26.9227 19.901 27.5476 18.0475 27.6462V26.5673H16.9537V27.6462C15.1001 27.5476 13.3131 26.9227 11.8019 25.8448L11.168 26.7361C12.8641 27.9459 14.8727 28.642 16.9537 28.7412V29.9175C16.4382 30.0506 15.9889 30.3672 15.6901 30.8078C15.3913 31.2485 15.2634 31.783 15.3305 32.3112C15.3976 32.8393 15.655 33.3249 16.0545 33.6769C16.454 34.0289 16.9682 34.223 17.5006 34.223C18.033 34.223 18.5471 34.0289 18.9466 33.6769C19.3461 33.3249 19.6036 32.8393 19.6706 32.3112C19.7377 31.783 19.6099 31.2485 19.3111 30.8078C19.0122 30.3672 18.563 30.0506 18.0475 29.9175V28.7412C20.1285 28.642 22.137 27.9459 23.8332 26.7361ZM18.5943 32.0361C18.5943 32.2524 18.5302 32.4639 18.41 32.6437C18.2898 32.8236 18.119 32.9638 17.9191 33.0466C17.7193 33.1294 17.4994 33.151 17.2872 33.1088C17.075 33.0666 16.8801 32.9625 16.7272 32.8095C16.5742 32.6565 16.47 32.4616 16.4278 32.2495C16.3856 32.0373 16.4073 31.8174 16.4901 31.6175C16.5729 31.4177 16.7131 31.2469 16.8929 31.1267C17.0728 31.0065 17.2843 30.9423 17.5006 30.9423C17.7906 30.9427 18.0686 31.058 18.2736 31.2631C18.4786 31.4681 18.594 31.7461 18.5943 32.0361Z" fill="#3E3465"/>
<path d="M11.168 8.89856L11.8019 9.78983C13.3131 8.71197 15.1001 8.08712 16.9537 7.9885V9.06734H18.0475V7.9885C19.901 8.08712 21.6881 8.71197 23.1992 9.78983L23.8332 8.89856C22.137 7.68875 20.1285 6.9927 18.0475 6.89351V5.71691C18.563 5.58381 19.0122 5.26726 19.3111 4.8266C19.6099 4.38594 19.7377 3.85142 19.6706 3.32324C19.6036 2.79506 19.3461 2.30948 18.9466 1.95752C18.5471 1.60556 18.033 1.41138 17.5006 1.41138C16.9682 1.41138 16.454 1.60556 16.0545 1.95752C15.655 2.30948 15.3976 2.79506 15.3305 3.32324C15.2634 3.85142 15.3913 4.38594 15.6901 4.8266C15.9889 5.26726 16.4382 5.58381 16.9537 5.71691V6.89351C14.8727 6.9927 12.8641 7.68875 11.168 8.89856ZM16.4068 3.59859C16.4068 3.38227 16.471 3.17081 16.5912 2.99094C16.7113 2.81107 16.8822 2.67088 17.082 2.5881C17.2819 2.50532 17.5018 2.48366 17.714 2.52586C17.9261 2.56806 18.121 2.67223 18.274 2.8252C18.4269 2.97816 18.5311 3.17305 18.5733 3.38521C18.6155 3.59738 18.5939 3.8173 18.5111 4.01715C18.4283 4.21701 18.2881 4.38783 18.1082 4.50801C17.9284 4.6282 17.7169 4.69234 17.5006 4.69234C17.2106 4.692 16.9326 4.57666 16.7276 4.37161C16.5225 4.16657 16.4072 3.88857 16.4068 3.59859Z" fill="#3E3465"/>
<path d="M24.6094 20.0049C24.7544 20.0049 24.8935 19.9473 24.9961 19.8447C25.0986 19.7421 25.1562 19.603 25.1562 19.458V16.1768C25.1562 16.0317 25.0986 15.8926 24.9961 15.7901C24.8935 15.6875 24.7544 15.6299 24.6094 15.6299H23.1055C23.0753 15.5528 23.0436 15.4764 23.0104 15.4007L24.0741 14.3371C24.1766 14.2345 24.2342 14.0954 24.2342 13.9504C24.2342 13.8054 24.1766 13.6663 24.0741 13.5637L21.7539 11.2435C21.7031 11.1927 21.6428 11.1524 21.5764 11.1249C21.5101 11.0974 21.439 11.0833 21.3672 11.0833C21.2953 11.0833 21.2242 11.0974 21.1579 11.1249C21.0915 11.1524 21.0312 11.1927 20.9804 11.2435L19.9168 12.3071C19.8411 12.2739 19.7647 12.2422 19.6876 12.2121V10.708C19.6876 10.563 19.63 10.4239 19.5275 10.3213C19.4249 10.2187 19.2858 10.1611 19.1408 10.1611H15.8594C15.7143 10.1611 15.5752 10.2187 15.4727 10.3213C15.3701 10.4239 15.3125 10.563 15.3125 10.708V12.2119C15.2354 12.242 15.159 12.2737 15.0833 12.307L14.0197 11.2433C13.9171 11.1408 13.778 11.0832 13.633 11.0832C13.488 11.0832 13.3489 11.1408 13.2463 11.2433L10.9261 13.5636C10.8235 13.6661 10.7659 13.8052 10.7659 13.9503C10.7659 14.0953 10.8235 14.2344 10.9261 14.3369L11.9898 15.4005C11.9565 15.4763 11.9249 15.5527 11.8947 15.6297H10.3906C10.2456 15.6297 10.1065 15.6874 10.0039 15.7899C9.90137 15.8925 9.84375 16.0316 9.84375 16.1766V19.4579C9.84375 19.6029 9.90137 19.742 10.0039 19.8446C10.1065 19.9471 10.2456 20.0047 10.3906 20.0047H11.8945C11.9246 20.0817 11.9563 20.1581 11.9896 20.234L10.9259 21.2976C10.8233 21.4001 10.7657 21.5392 10.7657 21.6842C10.7657 21.8293 10.8233 21.9684 10.9259 22.0709L13.2461 24.3912C13.3487 24.4937 13.4878 24.5513 13.6328 24.5513C13.7778 24.5513 13.9169 24.4937 14.0195 24.3912L15.0831 23.3275C15.1588 23.3608 15.2352 23.3925 15.3123 23.4226V24.9265C15.3123 25.0715 15.3699 25.2106 15.4725 25.3132C15.575 25.4157 15.7141 25.4734 15.8592 25.4734H19.1404C19.2855 25.4734 19.4246 25.4157 19.5271 25.3132C19.6297 25.2106 19.6873 25.0715 19.6873 24.9265V23.4229C19.7644 23.3927 19.8408 23.361 19.9165 23.3278L20.9801 24.3914C21.0309 24.4422 21.0912 24.4825 21.1575 24.51C21.2239 24.5375 21.295 24.5516 21.3668 24.5516C21.4386 24.5516 21.5098 24.5375 21.5761 24.51C21.6425 24.4825 21.7027 24.4422 21.7535 24.3914L24.0737 22.0712C24.1763 21.9686 24.2339 21.8295 24.2339 21.6845C24.2339 21.5395 24.1763 21.4004 24.0737 21.2978L23.01 20.2342C23.0433 20.1585 23.075 20.0821 23.1051 20.005L24.6094 20.0049ZM21.9631 20.7337L22.9141 21.6843L21.367 23.2314L20.4163 22.2808C20.3339 22.1984 20.2274 22.1445 20.1123 22.1268C19.9972 22.1092 19.8795 22.1288 19.7762 22.1827C19.5201 22.3166 19.2525 22.4276 18.9768 22.5143C18.8657 22.5492 18.7688 22.6186 18.6999 22.7125C18.6311 22.8063 18.5939 22.9196 18.594 23.036V24.3799H16.4062V23.0357C16.4063 22.9194 16.3691 22.806 16.3003 22.7122C16.2314 22.6183 16.1345 22.5489 16.0234 22.514C15.7476 22.4273 15.4799 22.3164 15.2236 22.1825C15.1204 22.1285 15.0027 22.109 14.8876 22.1266C14.7725 22.1442 14.666 22.1981 14.5837 22.2805L13.633 23.2314L12.0859 21.6843L13.0366 20.7337C13.119 20.6513 13.1729 20.5448 13.1905 20.4297C13.2081 20.3146 13.1886 20.1969 13.1346 20.0937C13.0007 19.8374 12.8898 19.5697 12.8031 19.2939C12.7682 19.1829 12.6988 19.0859 12.6049 19.017C12.5111 18.9482 12.3978 18.9111 12.2814 18.9111H10.9375V16.7236H12.2817C12.398 16.7236 12.5114 16.6865 12.6052 16.6177C12.699 16.5488 12.7685 16.4518 12.8034 16.3408C12.89 16.0649 13.001 15.7973 13.1349 15.541C13.1888 15.4378 13.2084 15.3201 13.1908 15.205C13.1732 15.0898 13.1192 14.9834 13.0369 14.901L12.0859 13.9504L13.633 12.4033L14.5837 13.354C14.6661 13.4363 14.7725 13.4903 14.8876 13.5079C15.0028 13.5255 15.1205 13.506 15.2237 13.452C15.48 13.3181 15.7476 13.2072 16.0235 13.1205C16.1345 13.0856 16.2315 13.0161 16.3004 12.9223C16.3692 12.8285 16.4063 12.7151 16.4063 12.5988V11.2549H18.5938V12.599C18.5938 12.7154 18.6309 12.8288 18.6998 12.9226C18.7686 13.0164 18.8656 13.0858 18.9766 13.1208C19.2524 13.2075 19.5199 13.3184 19.7761 13.4523C19.8793 13.5062 19.9971 13.5258 20.1122 13.5082C20.2273 13.4906 20.3338 13.4366 20.4161 13.3543L21.367 12.4033L22.9141 13.9504L21.9634 14.9011C21.881 14.9834 21.8271 15.0899 21.8095 15.205C21.7919 15.3201 21.8114 15.4379 21.8654 15.5411C21.9993 15.7974 22.1102 16.065 22.1969 16.3409C22.2318 16.4519 22.3012 16.5489 22.3951 16.6177C22.4889 16.6866 22.6022 16.7237 22.7186 16.7237H24.0625V18.9112H22.7184C22.602 18.9112 22.4886 18.9483 22.3948 19.0172C22.301 19.086 22.2315 19.183 22.1966 19.294C22.1099 19.5699 21.999 19.8375 21.8651 20.0938C21.8112 20.197 21.7916 20.3147 21.8093 20.4298C21.8269 20.5449 21.8808 20.6513 21.9631 20.7337Z" fill="#3E3465"/>
<path d="M17.5 13.9893C16.7429 13.9893 16.0027 14.2138 15.3732 14.6344C14.7437 15.0551 14.253 15.6529 13.9633 16.3524C13.6735 17.0519 13.5977 17.8216 13.7454 18.5642C13.8931 19.3068 14.2577 19.9889 14.7931 20.5243C15.3285 21.0596 16.0106 21.4242 16.7532 21.5719C17.4958 21.7197 18.2655 21.6438 18.965 21.3541C19.6645 21.0644 20.2623 20.5737 20.683 19.9442C21.1036 19.3146 21.3281 18.5745 21.3281 17.8174C21.327 16.8025 20.9233 15.8294 20.2056 15.1118C19.488 14.3941 18.5149 13.9904 17.5 13.9893ZM17.5 20.5518C16.9592 20.5518 16.4305 20.3914 15.9809 20.0909C15.5312 19.7905 15.1807 19.3634 14.9738 18.8638C14.7668 18.3641 14.7127 17.8143 14.8182 17.2839C14.9237 16.7535 15.1841 16.2663 15.5665 15.8839C15.9489 15.5015 16.4361 15.2411 16.9666 15.1355C17.497 15.03 18.0468 15.0842 18.5464 15.2911C19.046 15.4981 19.4731 15.8486 19.7736 16.2982C20.074 16.7479 20.2344 17.2766 20.2344 17.8174C20.2336 18.5423 19.9452 19.2374 19.4326 19.75C18.92 20.2626 18.225 20.5509 17.5 20.5518Z" fill="#3E3465"/>
<path d="M16.9531 18.1378L16.2461 17.4307L15.4727 18.2041L16.5664 19.2978C16.6172 19.3486 16.6775 19.3889 16.7438 19.4164C16.8102 19.4439 16.8813 19.458 16.9531 19.458C17.0249 19.458 17.0961 19.4439 17.1624 19.4164C17.2288 19.3889 17.289 19.3486 17.3398 19.2978L19.5273 17.1103L18.7539 16.3369L16.9531 18.1378Z" fill="#3E3465"/>
</svg>
