<svg width="35" height="35" viewBox="0 0 35 35" fill="none" xmlns="http://www.w3.org/2000/svg">
<g clip-path="url(#clip0_1203_3614)">
<path d="M30.0813 0H28.5765C27.915 0 27.915 1.02554 28.5765 1.02554H30.0813C31.6353 1.02554 32.8997 2.28531 32.8997 3.83374V15.7007C32.8997 17.2492 31.6354 18.509 30.0813 18.509H28.3746C28.262 18.509 28.1525 18.546 28.063 18.6145L24.9313 21.01V19.0218C24.9313 18.7386 24.7018 18.509 24.4185 18.509H18.1778C17.6667 18.509 17.1756 18.3741 16.7424 18.1176V12.3615C16.7424 11.2833 16.1932 10.3307 15.3593 9.76716V3.83374C15.3593 2.28531 16.6237 1.02554 18.1778 1.02554H25.3631C26.0245 1.02554 26.0245 0 25.3631 0H18.1778C16.0582 0 14.3338 1.71983 14.3338 3.83374V9.31647C14.099 9.26041 13.8544 9.22985 13.6026 9.22985H4.21582C2.48465 9.22985 1.07617 10.6347 1.07617 12.3615V13.4687C1.07617 14.1301 2.10171 14.1301 2.10171 13.4687V12.3615C2.10171 11.2002 3.05006 10.2554 4.21582 10.2554H13.6027C14.7685 10.2554 15.7169 11.2002 15.7169 12.3615V18.3218C15.7107 18.3671 15.711 18.4127 15.7169 18.4576V21.7196C15.7169 21.7841 15.713 21.8483 15.7072 21.9121H14.6497C13.4845 21.9121 12.5131 22.7531 12.3117 23.8585C12.2651 23.876 12.2203 23.9006 12.1788 23.9326L9.88534 25.7034V24.3385C9.88534 24.0553 9.65583 23.8257 9.37257 23.8257H4.21582C3.05006 23.8257 2.10171 22.8809 2.10171 21.7196V16.5454C2.10171 15.884 1.07617 15.884 1.07617 16.5454V21.7197C1.07617 23.4465 2.48465 24.8513 4.21582 24.8513H8.85987V26.7472C8.85987 27.1585 9.35931 27.4053 9.68605 27.1531L12.2728 25.1558V30.9245C12.2728 32.2321 13.3392 33.2957 14.6498 33.2957H17.7965V34.4923C17.7965 34.9035 18.2959 35.1505 18.6226 34.8982L20.698 33.2957H21.3111C22.6218 33.2957 23.6881 32.232 23.6881 30.9245V30.0141C23.6881 29.3527 22.6626 29.3527 22.6626 30.0141V30.9245C22.6626 31.6666 22.0564 32.2702 21.3111 32.2702H20.5231C20.4096 32.2702 20.2994 32.3078 20.2097 32.3771L18.822 33.4485V32.7829C18.822 32.4997 18.5924 32.2701 18.3092 32.2701H14.6497C13.9046 32.2701 13.2983 31.6664 13.2983 30.9244V24.2835C13.2983 23.5414 13.9045 22.9377 14.6497 22.9377H21.3111C22.0563 22.9377 22.6626 23.5414 22.6626 24.2835V26.8007C22.6626 27.4621 23.6881 27.4621 23.6881 26.8007V24.2835C23.6881 22.976 22.6218 21.9123 21.3111 21.9123H16.7366C16.7405 21.8482 16.7424 19.2583 16.7424 19.2583C17.1946 19.4401 17.6793 19.5346 18.1778 19.5346H23.9058V22.0478C23.9058 22.4581 24.4031 22.7052 24.7301 22.4551L28.5483 19.5346H30.0813C32.2009 19.5346 33.9253 17.8148 33.9253 15.7008V3.83374C33.9252 1.71983 32.2008 0 30.0813 0V0Z" fill="#3E3465"/>
<path d="M25.4101 3.78851C24.759 3.6223 24.0956 4.13671 24.0956 4.80947C24.0956 5.5445 23.8277 6.25288 23.3416 6.80373L21.9289 8.40241C21.8374 8.26205 21.6793 8.16913 21.4993 8.16913H18.7413C18.458 8.16913 18.2285 8.39872 18.2285 8.6819V14.8874C18.2285 15.1706 18.458 15.4002 18.7413 15.4002H21.4993C21.7065 15.4002 21.8846 15.2771 21.9654 15.1003C22.5238 15.4414 23.1709 15.6259 23.8292 15.6259H28.7034C29.4482 15.6259 30.0626 14.9796 30.0277 14.2367C30.0122 13.9077 30.0291 9.49016 30.0291 9.39205C30.0291 8.66105 29.4344 8.06624 28.7049 8.06624L26.1702 8.05865L26.2752 7.81012C26.7548 6.67431 26.6758 5.35724 26.0642 4.28678C25.9214 4.03669 25.689 3.85982 25.4101 3.78851C25.689 3.85982 25.131 3.71727 25.4101 3.78851C25.689 3.85982 24.7591 3.6223 25.4101 3.78851ZM20.9865 14.3747H19.2541V9.19467H20.9865V14.3747ZM28.7034 9.09171C28.869 9.09171 29.0036 9.22639 29.0036 9.39198C29.0036 9.48955 29.0026 9.75434 29.0013 10.1133C28.9937 12.0955 28.9886 13.9728 29.0032 14.2848C29.0086 14.3974 28.9538 14.4725 28.9207 14.5072C28.8634 14.5673 28.7862 14.6003 28.7034 14.6003H23.8292C23.2482 14.6003 22.6796 14.3989 22.2279 14.0334L22.0121 13.8586V9.85689L24.1104 7.4825C24.7622 6.74384 25.1211 5.79453 25.1211 4.8094C25.1211 4.78041 25.1607 4.77289 25.1738 4.79545C25.6279 5.59011 25.6864 6.56785 25.3304 7.41105L24.9258 8.36952C24.859 8.52766 24.8758 8.70863 24.9703 8.8518C25.065 8.99496 25.225 9.08125 25.3966 9.08179L28.7034 9.09171Z" fill="#3E3465"/>
<path d="M5.46589 17.81C5.18264 17.81 4.95312 18.0396 4.95312 18.3228C4.95312 18.606 5.18264 18.8356 5.46589 18.8356H6.9774L6.69504 20.5434C6.64882 20.8227 6.83793 21.0867 7.11729 21.1329C7.14566 21.1376 7.17376 21.1399 7.20152 21.1399C7.44792 21.1399 7.66527 20.9618 7.70684 20.7107L8.01682 18.8357H9.25383L8.97146 20.5434C8.92525 20.8228 9.11436 21.0868 9.39371 21.133C9.42209 21.1377 9.45019 21.14 9.47794 21.14C9.72435 21.14 9.94169 20.9619 9.98326 20.7107L10.2932 18.8357H12.3507C12.6339 18.8357 12.8635 18.6061 12.8635 18.323C12.8635 18.0398 12.6339 17.8102 12.3507 17.8102H10.4628L10.6696 16.5593H12.3507C12.6339 16.5593 12.8635 16.3297 12.8635 16.0465C12.8635 15.7633 12.6339 15.5338 12.3507 15.5338H10.8392L11.1215 13.826C11.1678 13.5466 10.9787 13.2826 10.6993 13.2364C10.4196 13.1901 10.156 13.3793 10.1097 13.6587L9.79976 15.5337H8.56275L8.84512 13.8259C8.89134 13.5465 8.70223 13.2826 8.42287 13.2364C8.14283 13.19 7.87961 13.3792 7.83332 13.6586L7.52333 15.5336H5.46589C5.18264 15.5336 4.95312 15.7632 4.95312 16.0464C4.95312 16.3296 5.18264 16.5592 5.46589 16.5592H7.35378L7.14696 17.81H5.46589ZM8.39326 16.5592H9.63027L9.42345 17.81H8.18645L8.39326 16.5592Z" fill="#3E3465"/>
<path d="M17.9733 25.5836C17.5592 25.2427 17.0084 25.1082 16.4558 25.2425C15.7477 25.4145 15.0332 26.0764 15.0332 27.1675C15.0332 27.8467 15.281 28.4361 15.7909 28.9697C16.2073 29.4055 16.8083 29.82 17.7393 30.3136C17.8145 30.3535 17.897 30.3734 17.9795 30.3734C18.062 30.3734 18.1446 30.3535 18.2197 30.3136C19.844 29.4525 20.9257 28.588 20.9257 27.1675C20.9257 26.0705 20.1859 25.4153 19.4525 25.2527C18.9016 25.1304 18.3675 25.2602 17.9733 25.5836ZM19.9001 27.1675C19.9001 27.9337 19.3919 28.5003 17.9794 29.2778C16.5669 28.5002 16.0587 27.9336 16.0587 27.1675C16.0587 26.5975 16.3888 26.3142 16.6977 26.2391C16.7547 26.2253 16.8157 26.2175 16.8784 26.2175C17.1107 26.2175 17.3662 26.3248 17.5238 26.6302C17.6135 26.804 17.795 26.9118 17.9896 26.9077C18.1851 26.9038 18.3614 26.7891 18.4441 26.6119C18.61 26.2562 18.959 26.1937 19.2303 26.2539C19.5542 26.3256 19.9001 26.6034 19.9001 27.1675Z" fill="#3E3465"/>
</g>
<defs>
<clipPath id="clip0_1203_3614">
<rect width="35" height="35" fill="white"/>
</clipPath>
</defs>
</svg>
