<svg width="35" height="36" viewBox="0 0 35 36" fill="none" xmlns="http://www.w3.org/2000/svg">
<path d="M23.2894 17.3965L23.1293 17.5567C23.0267 17.6592 22.9691 17.7983 22.9691 17.9434C22.9691 18.0884 23.0267 18.2275 23.1293 18.3301C23.2318 18.4326 23.3709 18.4903 23.516 18.4903C23.661 18.4903 23.8001 18.4326 23.9027 18.3301L24.9964 17.2363C25.0472 17.1856 25.0875 17.1253 25.115 17.0589C25.1425 16.9926 25.1566 16.9214 25.1566 16.8496C25.1566 16.7778 25.1425 16.7067 25.115 16.6403C25.0875 16.574 25.0472 16.5137 24.9964 16.4629L23.9027 15.3692C23.8001 15.2666 23.661 15.209 23.516 15.209C23.3709 15.209 23.2318 15.2666 23.1293 15.3692C23.0267 15.4717 22.9691 15.6108 22.9691 15.7559C22.9691 15.9009 23.0267 16.04 23.1293 16.1426L23.2894 16.3028H17.4063C17.3242 16.0724 17.1919 15.8632 17.019 15.6903C16.8461 15.5174 16.6369 15.3851 16.4066 15.3031V11.6074L16.5668 11.7676C16.6693 11.8701 16.8084 11.9278 16.9535 11.9278C17.0985 11.9278 17.2376 11.8701 17.3402 11.7676C17.4428 11.665 17.5004 11.5259 17.5004 11.3809C17.5004 11.2358 17.4428 11.0967 17.3402 10.9942L16.2464 9.90042C16.1957 9.84964 16.1354 9.80935 16.069 9.78187C16.0027 9.75438 15.9316 9.74023 15.8597 9.74023C15.7879 9.74023 15.7168 9.75438 15.6504 9.78187C15.5841 9.80935 15.5238 9.84964 15.473 9.90042L14.3793 10.9942C14.2767 11.0967 14.2191 11.2358 14.2191 11.3809C14.2191 11.5259 14.2767 11.665 14.3793 11.7676C14.4818 11.8701 14.6209 11.9278 14.766 11.9278C14.911 11.9278 15.0501 11.8701 15.1527 11.7676L15.3129 11.6074V15.3031C15.0515 15.3954 14.8178 15.5524 14.6336 15.7595C14.4494 15.9666 14.3206 16.217 14.2593 16.4873C14.1981 16.7576 14.2063 17.0391 14.2832 17.3054C14.3601 17.5716 14.5033 17.8141 14.6993 18.0101C14.8953 18.2061 15.1377 18.3492 15.404 18.4262C15.6703 18.5031 15.9517 18.5113 16.222 18.45C16.4924 18.3888 16.7428 18.26 16.9498 18.0758C17.1569 17.8915 17.314 17.6578 17.4063 17.3965H23.2894ZM15.8597 17.3965C15.7516 17.3965 15.6458 17.3644 15.5559 17.3043C15.466 17.2442 15.3959 17.1588 15.3545 17.0589C15.3131 16.959 15.3023 16.849 15.3234 16.7429C15.3445 16.6369 15.3966 16.5394 15.473 16.4629C15.5495 16.3864 15.647 16.3344 15.753 16.3133C15.8591 16.2922 15.9691 16.303 16.069 16.3444C16.1689 16.3858 16.2544 16.4559 16.3144 16.5458C16.3745 16.6357 16.4066 16.7415 16.4066 16.8496C16.4064 16.9946 16.3488 17.1336 16.2463 17.2361C16.1437 17.3387 16.0047 17.3963 15.8597 17.3965Z" fill="#3E3465"/>
<path d="M29.9107 21.3972C30.9289 18.2456 30.8571 14.8432 29.7069 11.7375C28.5567 8.63171 26.395 6.00327 23.5697 4.27516C20.7444 2.54706 17.4198 1.8198 14.131 2.21043C10.8422 2.60106 7.78051 4.08687 5.43863 6.42872C3.09675 8.77057 1.6109 11.8323 1.22022 15.121C0.829542 18.4098 1.55675 21.7344 3.28482 24.5597C5.01288 27.385 7.64129 29.5468 10.747 30.697C13.8528 31.8473 17.2552 31.9191 20.4067 30.901C20.9027 31.9192 21.6348 32.8042 22.5421 33.4822C23.4493 34.1602 24.5055 34.6116 25.6225 34.7988C26.7395 34.986 27.8851 34.9036 28.9638 34.5584C30.0425 34.2133 31.0232 33.6154 31.824 32.8145C32.6249 32.0136 33.2228 31.033 33.568 29.9543C33.9132 28.8756 33.9956 27.73 33.8084 26.613C33.6212 25.496 33.1698 24.4398 32.4918 23.5326C31.8139 22.6253 30.9289 21.8932 29.9107 21.3972ZM15.8594 30.5217C8.32072 30.5217 2.18751 24.3885 2.18751 16.8498C2.18751 9.31115 8.32072 3.17795 15.8594 3.17795C23.3981 3.17795 29.5313 9.31115 29.5313 16.8498C29.533 18.2556 29.3174 19.6532 28.8923 20.9932C28.5416 20.885 28.183 20.8042 27.8197 20.7518C28.2305 19.492 28.439 18.175 28.4375 16.8498C28.4375 9.91422 22.795 4.2717 15.8594 4.2717C8.92378 4.2717 3.28126 9.91422 3.28126 16.8498C3.28126 23.7854 8.92378 29.4279 15.8594 29.4279C17.1845 29.4298 18.5016 29.2214 19.7615 28.8107C19.8139 29.1737 19.8945 29.532 20.0027 29.8825C18.6628 30.3076 17.2652 30.5233 15.8594 30.5217ZM19.6889 27.6801C18.6322 28.0541 17.526 28.2702 16.4063 28.3214V27.7873C16.4063 27.6423 16.3486 27.5032 16.2461 27.4006C16.1435 27.2981 16.0044 27.2404 15.8594 27.2404C15.7143 27.2404 15.5752 27.2981 15.4727 27.4006C15.3701 27.5032 15.3125 27.6423 15.3125 27.7873V28.3209C12.6472 28.1957 10.1094 27.1427 8.13833 25.3442L8.51212 24.9704C8.56341 24.9198 8.60417 24.8595 8.63206 24.793C8.65995 24.7265 8.67442 24.6551 8.67463 24.583C8.67485 24.511 8.66081 24.4395 8.63331 24.3729C8.60582 24.3062 8.56542 24.2457 8.51444 24.1947C8.46346 24.1437 8.4029 24.1033 8.33625 24.0758C8.2696 24.0484 8.19817 24.0343 8.12608 24.0345C8.05398 24.0348 7.98264 24.0492 7.91616 24.0771C7.84968 24.105 7.78937 24.1458 7.7387 24.1971L7.36498 24.5709C5.56649 22.5998 4.51355 20.062 4.38834 17.3967H4.92189C5.06693 17.3967 5.20603 17.3391 5.30859 17.2365C5.41115 17.134 5.46876 16.9949 5.46876 16.8498C5.46876 16.7048 5.41115 16.5657 5.30859 16.4631C5.20603 16.3606 5.06693 16.3029 4.92189 16.3029H4.38834C4.51358 13.6376 5.56651 11.0999 7.36498 9.12877L7.81615 9.57994C7.86672 9.63166 7.92704 9.67284 7.99363 9.70108C8.06022 9.72933 8.13175 9.74408 8.20408 9.74449C8.27641 9.74491 8.34811 9.73096 8.41501 9.70348C8.48192 9.67599 8.54271 9.6355 8.59386 9.58436C8.64501 9.53322 8.6855 9.47244 8.713 9.40554C8.7405 9.33864 8.75446 9.26695 8.75406 9.19462C8.75366 9.12229 8.73892 9.05075 8.71068 8.98416C8.68245 8.91757 8.64128 8.85724 8.58957 8.80666L8.1384 8.35549C10.1094 6.55697 12.6472 5.50401 15.3125 5.37878V5.91233C15.3125 6.05737 15.3701 6.19647 15.4727 6.29902C15.5752 6.40158 15.7143 6.4592 15.8594 6.4592C16.0044 6.4592 16.1435 6.40158 16.2461 6.29902C16.3486 6.19647 16.4063 6.05737 16.4063 5.91233V5.37878C19.0716 5.50399 21.6094 6.55692 23.5804 8.35542L23.2066 8.72921C23.1051 8.83198 23.0484 8.97076 23.0488 9.11522C23.0493 9.25969 23.1069 9.3981 23.209 9.50025C23.3112 9.6024 23.4496 9.65998 23.5941 9.66041C23.7385 9.66084 23.8773 9.60409 23.9801 9.50256L24.3538 9.12877C26.1523 11.0999 27.2052 13.6376 27.3304 16.3029H26.7969C26.6518 16.3029 26.5127 16.3606 26.4102 16.4631C26.3076 16.5657 26.25 16.7048 26.25 16.8498C26.25 16.9949 26.3076 17.134 26.4102 17.2365C26.5127 17.3391 26.6518 17.3967 26.7969 17.3967H27.3309C27.2794 18.5165 27.0632 19.6226 26.6892 20.6793C24.8419 20.7094 23.0787 21.4566 21.7723 22.7631C20.466 24.0695 19.7188 25.8328 19.6889 27.6801ZM26.7969 33.8029C25.6071 33.8029 24.444 33.4501 23.4548 32.7891C22.4655 32.1281 21.6945 31.1886 21.2392 30.0894C20.7839 28.9902 20.6647 27.7806 20.8968 26.6137C21.129 25.4468 21.7019 24.3749 22.5432 23.5336C23.3845 22.6923 24.4564 22.1194 25.6233 21.8873C26.7902 21.6552 27.9997 21.7743 29.099 22.2296C30.1982 22.6849 31.1377 23.456 31.7987 24.4452C32.4597 25.4345 32.8125 26.5975 32.8125 27.7873C32.8107 29.3822 32.1763 30.9113 31.0486 32.039C29.9208 33.1668 28.3918 33.8011 26.7969 33.8029Z" fill="#3E3465"/>
<path d="M29.8671 25.168C29.8104 25.1239 29.7456 25.0914 29.6763 25.0724C29.6071 25.0533 29.5348 25.0481 29.4635 25.0569C29.3922 25.0658 29.3234 25.0887 29.261 25.1241C29.1985 25.1596 29.1437 25.2071 29.0996 25.2637L25.6518 29.6966L24.4492 28.494C24.3467 28.3914 24.2076 28.3338 24.0625 28.3338C23.9175 28.3338 23.7784 28.3914 23.6758 28.494C23.5732 28.5965 23.5156 28.7357 23.5156 28.8807C23.5156 29.0257 23.5732 29.1648 23.6758 29.2674L25.3164 30.908C25.3672 30.9588 25.4275 30.9992 25.4938 31.0267C25.5602 31.0542 25.6313 31.0684 25.7031 31.0684C25.7144 31.0684 25.7258 31.0684 25.7373 31.0673C25.8147 31.0625 25.8902 31.0413 25.9588 31.005C26.0273 30.9688 26.0874 30.9184 26.135 30.8572L29.9632 25.9354C30.0522 25.8209 30.092 25.6757 30.074 25.5318C30.056 25.3879 29.9815 25.2571 29.8671 25.168Z" fill="#3E3465"/>
</svg>
