<svg width="36" height="36" viewBox="0 0 36 36" fill="none" xmlns="http://www.w3.org/2000/svg">
<path d="M28.828 29.1191C28.5368 29.1191 28.3007 29.3552 28.3007 29.6464V32.8359C28.3007 33.999 27.3544 34.9453 26.1913 34.9453H9.8085C8.64539 34.9453 7.69912 33.999 7.69912 32.8359V30.1798H17.8886C18.9548 30.1798 19.8222 29.3124 19.8222 28.2462V21.1439C19.8222 20.0777 18.9548 19.2103 17.8886 19.2103H16.2929C16.0017 19.2103 15.7656 19.4464 15.7656 19.7377C15.7656 20.0289 16.0017 20.265 16.2929 20.265H17.8886C18.3733 20.265 18.7675 20.6593 18.7675 21.1439V28.2461C18.7675 28.7308 18.3733 29.125 17.8886 29.125H7.52207C6.92273 29.125 6.35629 29.3555 5.92711 29.7738L4.29951 31.3602C4.29086 31.3686 4.28285 31.3766 4.26126 31.3674C4.23975 31.3584 4.23975 31.3471 4.23975 31.3351V21.144C4.23975 20.6593 4.63399 20.2651 5.11865 20.2651H13.8395C14.1307 20.2651 14.3669 20.029 14.3669 19.7377C14.3669 19.4465 14.1307 19.2104 13.8395 19.2104H7.69912V8.74719C7.69912 8.45596 7.46301 8.21985 7.17178 8.21985C6.88054 8.21985 6.64443 8.45596 6.64443 8.74719V19.2104H5.11865C4.05243 19.2104 3.18506 20.0778 3.18506 21.144V31.3351C3.18506 31.7744 3.44662 32.1686 3.85141 32.3392C3.98866 32.3971 4.13273 32.4253 4.27561 32.4253C4.55404 32.4253 4.8277 32.3182 5.03568 32.1155L6.64443 30.5474V32.8359C6.64443 34.5806 8.06383 36 9.8085 36H26.1913C27.936 36 29.3554 34.5806 29.3554 32.8359V29.6464C29.3554 29.3552 29.1193 29.1191 28.828 29.1191Z" fill="#3E3465"/>
<path d="M18.9141 3.16406C19.2053 3.16406 19.4414 2.92795 19.4414 2.63672C19.4414 2.34548 19.2053 2.10938 18.9141 2.10938H15.3984C15.1072 2.10938 14.8711 2.34548 14.8711 2.63672C14.8711 2.92795 15.1072 3.16406 15.3984 3.16406H18.9141Z" fill="#3E3465"/>
<path d="M32.2875 10.6419C32.5787 10.6419 32.8148 10.4058 32.8148 10.1145V8.24752C32.8148 7.1813 31.9475 6.31392 30.8813 6.31392H29.3555V3.16406C29.3555 1.4194 27.9361 0 26.1914 0H9.80859C8.06393 0 6.64453 1.4194 6.64453 3.16406V6.2877C6.64453 6.57893 6.88064 6.81504 7.17188 6.81504C7.46311 6.81504 7.69922 6.57893 7.69922 6.2877V3.16406C7.69922 2.00095 8.64548 1.05469 9.80859 1.05469H26.1914C27.3545 1.05469 28.3008 2.00095 28.3008 3.16406V6.31392H18.1113C17.0451 6.31392 16.1777 7.1813 16.1777 8.24752V15.3498C16.1777 16.416 17.0451 17.2834 18.1113 17.2834H28.3008V27.193C28.3008 27.4842 28.5369 27.7204 28.8281 27.7204C29.1194 27.7204 29.3555 27.4842 29.3555 27.193V17.651L30.9643 19.2191C31.1723 19.4217 31.4458 19.5288 31.7243 19.5288C31.8671 19.5288 32.0113 19.5006 32.1485 19.4427C32.5533 19.272 32.8148 18.8779 32.8148 18.4386V12.58C32.8148 12.2887 32.5787 12.0526 32.2875 12.0526C31.9963 12.0526 31.7602 12.2887 31.7602 12.58V18.4386C31.7602 18.4506 31.7602 18.462 31.7386 18.471C31.717 18.4801 31.709 18.4721 31.7005 18.4638L30.0729 16.8773C29.6437 16.459 29.0772 16.2286 28.4779 16.2286H18.1113C17.6266 16.2286 17.2324 15.8344 17.2324 15.3497V8.24745C17.2324 7.76278 17.6266 7.36854 18.1113 7.36854H30.8813C31.3659 7.36854 31.7602 7.76278 31.7602 8.24745V10.1145C31.7602 10.4058 31.9963 10.6419 32.2875 10.6419Z" fill="#3E3465"/>
<path d="M24.7294 9.00243C24.3077 8.63252 23.7641 8.42334 23.1857 8.42334C21.8882 8.42334 20.8325 9.47894 20.8325 10.7765C20.8325 11.3879 21.0513 11.9282 21.4643 12.3379L23.99 14.86C24.1938 15.0635 24.4616 15.1652 24.7293 15.1652C24.9971 15.1652 25.2648 15.0635 25.4686 14.86L27.9911 12.3413C28.001 12.3314 28.0101 12.3218 28.0209 12.3097C28.203 12.1038 28.6267 11.5459 28.6261 10.8145C28.6252 9.49603 27.5697 8.42341 26.2733 8.42341C25.6948 8.42327 25.1511 8.63245 24.7294 9.00243ZM27.5716 10.8151C27.5718 11.1873 27.3227 11.5056 27.2381 11.6028L24.7295 14.1077L22.2084 11.5903C21.9953 11.3789 21.8873 11.1051 21.8873 10.7764C21.8873 10.0604 22.4698 9.47796 23.1857 9.47796C23.6331 9.47796 24.0431 9.70612 24.2825 10.0883C24.379 10.2422 24.5478 10.3357 24.7294 10.3357C24.911 10.3357 25.0798 10.2423 25.1762 10.0883C25.4157 9.70612 25.8258 9.47796 26.2734 9.47796C26.9766 9.47796 27.5711 10.0903 27.5716 10.8151Z" fill="#3E3465"/>
<path d="M13.0478 21.3198C12.4692 21.3198 11.9255 21.529 11.5038 21.8989C11.0821 21.529 10.5385 21.3198 9.96008 21.3198C8.66261 21.3198 7.607 22.3754 7.60693 23.673C7.60693 24.2844 7.82582 24.8248 8.23876 25.2344L10.7645 27.7564C10.9683 27.96 11.236 28.0617 11.5039 28.0617C11.7716 28.0617 12.0394 27.96 12.2432 27.7564L14.7657 25.2377C14.9606 25.0306 15.376 24.4795 15.4007 23.7109C15.3997 22.3924 14.3442 21.3198 13.0478 21.3198ZM14.0121 24.4996L11.5038 27.0042L8.98274 24.4868C8.76962 24.2755 8.66162 24.0017 8.66162 23.673C8.66162 22.9571 9.24416 22.3745 9.96008 22.3745C10.4074 22.3745 10.8174 22.6027 11.0569 22.9849C11.1534 23.1387 11.3221 23.2323 11.5037 23.2323C11.6853 23.2323 11.8542 23.1388 11.9506 22.9849C12.19 22.6027 12.6002 22.3745 13.0477 22.3745C13.7508 22.3745 14.3453 22.9868 14.3458 23.7116C14.3461 24.0811 14.1006 24.3975 14.0121 24.4996Z" fill="#3E3465"/>
<path d="M20.6719 3.16406C20.9631 3.16406 21.1992 2.92796 21.1992 2.63672C21.1992 2.34547 20.9631 2.10938 20.6719 2.10938C20.3806 2.10938 20.1445 2.34547 20.1445 2.63672C20.1445 2.92796 20.3806 3.16406 20.6719 3.16406Z" fill="#3E3465"/>
</svg>
