<svg width="34" height="33" viewBox="0 0 34 33" fill="none" xmlns="http://www.w3.org/2000/svg">
<g clip-path="url(#clip0)">
<path d="M19.7465 10.1081C19.7465 8.49279 19.7465 6.92703 19.7465 5.33153C19.6444 5.32162 19.5526 5.31171 19.4607 5.31171C13.4366 5.31171 7.41261 5.31171 1.38859 5.3018C1.15375 5.3018 1.09249 5.37117 1.09249 5.58919C1.1027 11.7829 1.1027 17.9766 1.09249 24.1703C1.09249 24.3883 1.14354 24.4676 1.38859 24.4676C7.41261 24.4577 13.4366 24.4577 19.4607 24.4577C19.5423 24.4577 19.624 24.4577 19.7363 24.4577C19.7363 20.7216 19.7363 17.0153 19.7363 13.2991C20.1141 13.2991 20.4511 13.2991 20.839 13.2991C20.839 13.3982 20.839 13.4775 20.839 13.5568C20.839 19.0964 20.8288 24.6459 20.8492 30.1856C20.8492 31.5333 20.012 32.4847 19.0829 32.7919C18.7562 32.9009 18.409 32.9703 18.0619 32.9703C12.967 32.9802 7.88228 32.9802 2.78739 32.9703C1.17417 33 0 31.8306 0 30.2351C0 22.3766 0 14.5081 0 6.64955C0 5.36126 0 4.07297 0 2.78468C0 1.13964 1.17417 0 2.86907 0C7.91291 0 12.9465 0 17.9904 0C19.4096 0 20.4817 0.812613 20.7778 2.11081C20.8288 2.33874 20.839 2.58649 20.839 2.82432C20.839 5.15315 20.839 7.47207 20.8492 9.8009C20.8492 10.0586 20.7778 10.1378 20.5225 10.118C20.2673 10.0982 20.0222 10.1081 19.7465 10.1081ZM10.4348 25.5577C7.42282 25.5577 4.42102 25.5577 1.40901 25.5577C1.16396 25.5577 1.09249 25.6171 1.09249 25.855C1.1027 27.3117 1.09249 28.7784 1.09249 30.2351C1.09249 31.2658 1.78679 31.9396 2.84865 31.9396C7.89249 31.9396 12.9363 31.9396 17.9904 31.9396C19.0523 31.9396 19.7363 31.2559 19.7465 30.2252C19.7465 28.7784 19.7465 27.3216 19.7465 25.8748C19.7465 25.5577 19.7465 25.5577 19.4096 25.5577C16.418 25.5577 13.4264 25.5577 10.4348 25.5577ZM10.4144 4.26126C11.027 4.26126 11.6396 4.26126 12.2523 4.26126C14.6619 4.26126 17.0817 4.26126 19.4913 4.26126C19.6853 4.26126 19.7568 4.22162 19.7568 4.01351C19.7363 3.56757 19.7568 3.12162 19.7465 2.67568C19.7363 2.48739 19.7057 2.2991 19.6444 2.12072C19.3994 1.43694 18.797 1.06036 17.9598 1.06036C14.5598 1.06036 11.1598 1.06036 7.76997 1.06036C6.14655 1.06036 4.52312 1.06036 2.8997 1.06036C1.77658 1.06036 1.11291 1.71441 1.11291 2.8045C1.11291 3.17117 1.11291 3.54775 1.11291 3.91441C1.11291 4.25135 1.11291 4.25135 1.46006 4.25135C4.43123 4.26126 7.42282 4.26126 10.4144 4.26126Z" fill="#3E3465"/>
<path d="M31.8152 2.14059C31.8049 2.32887 31.8049 2.47752 31.7947 2.64599C31.4476 2.64599 31.1004 2.64599 30.7329 2.64599C30.7329 1.9523 30.7329 1.2586 30.7329 0.545091C31.08 0.545091 31.4272 0.545091 31.7641 0.545091C31.7743 0.57482 31.7947 0.58473 31.7947 0.60455C31.856 1.07032 31.856 1.06041 32.3257 1.06041C32.8668 1.06041 33.4079 1.06041 33.9797 1.06041C33.9899 1.16941 34.0001 1.2586 34.0001 1.34779C34.0001 3.53788 34.0104 5.73788 34.0001 7.92797C33.9899 10.6532 32.0602 12.8334 29.283 13.2496C29.038 13.2892 29.0584 13.428 29.0584 13.5865C29.0584 16.2919 29.0584 18.9973 29.0584 21.7027C29.0584 23.2784 28.1191 24.5073 26.5977 24.9235C24.6476 25.4586 22.5341 23.9919 22.4932 22.0199C22.4524 20.0379 22.483 18.0559 22.4728 16.0838C22.4728 15.3307 22.3095 14.6172 21.9317 13.9433C21.0536 12.3577 19.1443 11.4658 17.3269 11.7829C15.489 12.1 13.9983 13.537 13.7737 15.3009C13.6614 16.2027 13.7125 17.1244 13.7125 18.046C13.7125 18.1154 13.8248 18.2145 13.9064 18.2442C14.6109 18.5217 15.0704 18.9973 15.2644 19.7109C15.5809 20.8109 14.8458 22.0199 13.7125 22.2973C12.5076 22.5946 11.3028 21.9109 11.017 20.7811C10.7515 19.7009 11.2926 18.6703 12.3749 18.264C12.5485 18.1946 12.5995 18.1054 12.5995 17.937C12.5995 17.1244 12.5689 16.3018 12.6302 15.4892C12.7935 13.1109 14.8254 11.0496 17.2656 10.7226C20.6248 10.2766 23.5245 12.6946 23.5551 15.9847C23.5755 17.9073 23.5551 19.8298 23.5653 21.7523C23.5653 22.7532 24.1371 23.546 25.0458 23.8433C26.4752 24.319 27.9353 23.3082 27.9455 21.8217C27.9557 20.1073 27.9455 18.3928 27.9455 16.6784C27.9455 15.628 27.9455 14.5874 27.9455 13.537C27.9455 13.3487 27.8842 13.2892 27.6902 13.2595C25.0764 12.9127 23.0446 10.7127 23.0037 8.13608C22.9731 5.8568 22.9935 3.58743 22.9935 1.30815C22.9935 1.10996 23.0752 1.07032 23.2488 1.07032C23.8104 1.08023 24.3719 1.07032 24.9335 1.08023C25.1173 1.08023 25.2296 1.04059 25.1989 0.832478C25.1581 0.59464 25.2602 0.505451 25.5052 0.535181C25.6992 0.555 25.8932 0.545091 26.0872 0.535181C26.2506 0.525271 26.2914 0.59464 26.2914 0.743289C26.2914 1.31806 26.2914 1.90275 26.2914 2.47752C26.2914 2.62617 26.2404 2.68563 26.0872 2.68563C25.8013 2.67572 25.5155 2.68563 25.2092 2.68563C25.1989 2.50725 25.1887 2.3586 25.1785 2.16041C24.862 2.16041 24.5353 2.1505 24.2188 2.17032C24.1779 2.17032 24.1064 2.30905 24.1064 2.38833C24.0962 3.10185 24.1064 3.82527 24.1064 4.53878C24.1064 5.67842 24.0962 6.81806 24.1064 7.9577C24.1167 9.98923 25.4338 11.6244 27.4554 12.1397C29.9773 12.7739 32.632 10.9604 32.8362 8.4532C32.8974 7.70996 32.8668 6.9568 32.877 6.20365C32.877 4.94509 32.877 3.69644 32.8872 2.43788C32.8872 2.22978 32.8362 2.14059 32.6013 2.16041C32.3665 2.1505 32.101 2.14059 31.8152 2.14059ZM13.1611 19.1658C12.5587 19.1658 12.0482 19.6514 12.0584 20.2361C12.0584 20.8009 12.5689 21.2964 13.1509 21.2964C13.7431 21.2964 14.2536 20.8009 14.2536 20.2163C14.2536 19.6514 13.7533 19.1658 13.1611 19.1658Z" fill="#3E3465"/>
<path d="M26.8733 7.97751C26.4853 7.97751 26.1484 7.97751 25.791 7.97751C25.791 7.63066 25.791 7.29373 25.791 6.91715C26.1075 6.91715 26.424 6.90724 26.7303 6.92706C26.7814 6.92706 26.8631 7.00634 26.8733 7.05589C26.8835 7.35319 26.8733 7.65048 26.8733 7.97751Z" fill="#3E3465"/>
<path d="M31.2536 7.98733C30.9166 7.98733 30.6205 7.99724 30.3244 7.97742C30.2632 7.97742 30.1611 7.88823 30.1611 7.82877C30.1406 7.57112 30.1406 7.32337 30.1611 7.06571C30.1611 7.01616 30.253 6.92697 30.3142 6.92697C30.5797 6.90715 30.8349 6.90715 31.1004 6.92697C31.1515 6.92697 31.2434 7.01616 31.2434 7.06571C31.2638 7.36301 31.2536 7.66031 31.2536 7.98733Z" fill="#3E3465"/>
<path d="M27.9759 7.97744C27.9759 7.65041 27.9657 7.35311 27.9862 7.04591C27.9862 7.00627 28.078 6.92699 28.1291 6.92699C28.3946 6.91708 28.6702 6.91708 28.9459 6.92699C28.9868 6.92699 29.0684 6.99636 29.0684 7.036C29.0786 7.3432 29.0786 7.66032 29.0786 7.97744C28.6907 7.97744 28.3537 7.97744 27.9759 7.97744Z" fill="#3E3465"/>
<path d="M10.4347 30.8693C9.21972 30.8792 8.23954 29.9377 8.22933 28.7684C8.21912 27.5792 9.18909 26.6278 10.4143 26.6179C11.6497 26.6179 12.6197 27.5495 12.6197 28.7386C12.6095 29.9278 11.6395 30.8693 10.4347 30.8693ZM10.4245 27.6783C9.82212 27.6783 9.31161 28.1639 9.32182 28.7486C9.33203 29.3134 9.84254 29.8089 10.4143 29.8089C11.0167 29.8089 11.5068 29.3233 11.5068 28.7287C11.5068 28.154 11.0167 27.6783 10.4245 27.6783Z" fill="#3E3465"/>
<path d="M8.24976 2.15044C8.33144 2.15044 8.41312 2.14053 8.48459 2.14053C9.77108 2.14053 11.0474 2.15044 12.3338 2.13062C12.5687 2.13062 12.6401 2.19998 12.6197 2.40809C12.5993 2.65584 12.681 2.99278 12.5483 3.14143C12.4359 3.27026 12.0684 3.19098 11.8233 3.19098C10.741 3.19098 9.64855 3.19098 8.56627 3.19098C8.47438 3.19098 8.38249 3.19098 8.27018 3.19098C8.24976 2.84413 8.24976 2.50719 8.24976 2.15044Z" fill="#3E3465"/>
<path d="M7.10629 3.18114C6.74894 3.18114 6.40179 3.18114 6.04443 3.18114C6.04443 2.8343 6.04443 2.50727 6.04443 2.15051C6.39158 2.15051 6.73873 2.15051 7.10629 2.15051C7.10629 2.48745 7.10629 2.8343 7.10629 3.18114Z" fill="#3E3465"/>
</g>
<defs>
<clipPath id="clip0">
<rect width="34" height="33" fill="white"/>
</clipPath>
</defs>
</svg>
