<svg width="35" height="31" viewBox="0 0 35 31" fill="none" xmlns="http://www.w3.org/2000/svg">
<path d="M34.4873 29.9646H32.5121C32.969 29.3346 33.1572 28.5356 33.0117 27.7425C32.9329 27.3146 32.7618 26.9213 32.5201 26.5828C32.9532 26.4819 33.3682 26.2838 33.7319 25.99C33.9378 25.8236 34.0582 25.5754 34.0625 25.3093C34.0667 25.0429 33.9543 24.7909 33.7538 24.6178L29.0084 20.5222C28.6591 20.2205 28.3972 19.8288 28.2511 19.3889L27.1424 16.0467C27.1421 16.0456 27.1416 16.0445 27.1413 16.0435L26.1429 13.0347C25.6903 11.6704 24.6083 10.5986 23.2486 10.1675L19.8103 9.07739C20.7439 8.41288 21.3554 7.31652 21.3554 6.0781V3.66891C21.3554 1.64575 19.7249 0 17.7211 0C15.7173 0 14.0868 1.64575 14.0868 3.66891V6.07837C14.0868 7.25964 14.6433 8.31179 15.505 8.98304C15.4158 9.00784 15.3269 9.03398 15.2383 9.06202L11.7514 10.1675C10.3917 10.5986 9.30969 11.6704 8.85708 13.0347L6.74862 19.3889C6.60255 19.8288 6.34087 20.2208 5.99159 20.5222L1.24622 24.6181C1.04568 24.7912 0.933266 25.0429 0.937538 25.3093C0.941811 25.5756 1.06224 25.8236 1.26812 25.99C1.64837 26.2973 2.08443 26.5 2.53891 26.596C2.10979 27.3931 2.02835 28.3652 2.3592 29.2464C2.4596 29.513 2.59178 29.7532 2.75093 29.9648H0.512695C0.229378 29.9648 0 30.1964 0 30.4824C0 30.7682 0.229378 31 0.512695 31H31.1986H31.1991H31.1996H34.4873C34.7706 31 35 30.7682 35 30.4824C35 30.1964 34.7704 29.9646 34.4873 29.9646ZM22.8195 17.8903L24.6302 22.4389C24.6404 22.4642 24.6524 22.4887 24.6663 22.5122C24.9867 23.0508 25.443 23.4969 25.9864 23.8029L26.5867 24.1407L22.8195 22.9793V17.8903ZM28.3419 21.3091L32.95 25.2861C32.3321 25.7029 31.5366 25.7398 30.8784 25.3705L26.4858 22.8987C26.1101 22.6874 25.7926 22.3814 25.5656 22.0129L23.9517 17.9585L26.3453 16.9037L27.2789 19.7175C27.4839 20.3354 27.8516 20.8856 28.3419 21.3091ZM15.1122 6.07837V3.66891C15.1122 2.21671 16.2826 1.03517 17.7211 1.03517C19.1596 1.03517 20.33 2.21671 20.33 3.66891V6.07837C20.33 7.53057 19.1596 8.71211 17.7211 8.71211C16.2826 8.71211 15.1122 7.53057 15.1122 6.07837ZM12.0585 11.155L15.5456 10.0497C16.8242 9.6443 18.1758 9.6443 19.4544 10.0497L22.9415 11.155C23.9888 11.4871 24.8222 12.3126 25.1707 13.3636L26.0185 15.9184L23.569 16.9975L22.7824 15.0215C22.6908 14.7916 22.4507 14.6592 22.2093 14.7064C21.9682 14.7535 21.7941 14.9668 21.7941 15.2145V22.8448H13.2059V15.2145C13.2059 14.9668 13.0318 14.7535 12.7907 14.7064C12.5501 14.6592 12.3092 14.7916 12.2176 15.0215L11.5367 16.7317L9.11716 15.5102L9.82933 13.3636C10.1778 12.3126 11.0112 11.4871 12.0585 11.155ZM6.65783 21.3091C7.14836 20.8856 7.51606 20.3354 7.72087 19.7175L8.78792 16.5015L11.153 17.6954L10.7802 18.6316C10.6747 18.8969 10.8021 19.1983 11.0649 19.305C11.3274 19.4115 11.6262 19.2829 11.7316 19.0177L12.1805 17.8906V22.9777L8.48724 24.0992L9.01329 23.8029C9.55669 23.4972 10.0133 23.0511 10.3337 22.5124C10.3476 22.489 10.3596 22.4645 10.3698 22.4389L10.753 21.4759C10.8587 21.2107 10.7314 20.9093 10.4686 20.8028C10.2058 20.6961 9.9073 20.8246 9.80156 21.0899L9.43413 22.0129C9.20715 22.3817 8.88992 22.6874 8.51421 22.8987L4.12212 25.3702C3.46336 25.7398 2.66815 25.7029 2.04998 25.2861L6.65783 21.3091ZM4.89998 29.9646H4.89811C4.1531 29.9646 3.57738 29.5691 3.3181 28.8793C3.0249 28.0986 3.22571 27.1782 3.80436 26.6016L12.7685 23.88H22.2304L30.7406 26.5035C31.4047 26.7081 31.8768 27.2419 32.0034 27.9312C32.13 28.6205 31.879 29.2896 31.3316 29.7209L31.0226 29.9648H20.1957C20.1294 29.602 19.9697 29.1194 19.5919 28.69L20.6133 28.6331C20.8961 28.6175 21.1126 28.3733 21.0969 28.0878C21.0814 27.8026 20.8395 27.5842 20.5569 27.5996L17.7782 27.7546C17.6608 27.7333 17.5382 27.7155 17.4095 27.7023L9.50195 26.8685C9.21837 26.8386 8.96816 27.0453 8.93879 27.3295C8.90942 27.6139 9.11396 27.8684 9.39541 27.898L17.3035 28.7318C17.4231 28.7442 17.5355 28.7612 17.6407 28.7817C17.6429 28.7822 17.6453 28.7825 17.6474 28.783C18.6709 28.9857 19.0309 29.5481 19.155 29.9646H4.89998Z" fill="#3E3465"/>
<path d="M23.2431 28.4857C23.2525 28.4857 23.2621 28.4857 23.2717 28.4852L26.7294 28.2924C27.012 28.2765 27.2285 28.0326 27.213 27.7471C27.1976 27.4616 26.9554 27.2427 26.6728 27.2589L23.2154 27.4516C22.9326 27.4673 22.716 27.7115 22.7315 27.9967C22.7467 28.2725 22.9726 28.4857 23.2431 28.4857Z" fill="#3E3465"/>
</svg>
