<svg width="35" height="35" viewBox="0 0 35 35" fill="none" xmlns="http://www.w3.org/2000/svg">
<path d="M34.2928 17.1134L17.8865 0.707115C17.784 0.604591 17.6449 0.546997 17.4999 0.546997C17.3549 0.546997 17.2158 0.604591 17.1132 0.707115L0.706993 17.1134C0.630535 17.1898 0.578469 17.2873 0.557377 17.3933C0.536285 17.4994 0.547115 17.6094 0.588497 17.7093C0.629879 17.8092 0.699955 17.8946 0.789867 17.9547C0.879779 18.0148 0.985489 18.0469 1.09363 18.0469H3.82801V31.1719H3.28113C3.13609 31.1719 2.99699 31.2295 2.89443 31.3321C2.79188 31.4346 2.73426 31.5737 2.73426 31.7188V33.9063C2.73426 34.0513 2.79188 34.1904 2.89443 34.293C2.99699 34.3955 3.13609 34.4531 3.28113 34.4531H31.7186C31.8637 34.4531 32.0028 34.3955 32.1053 34.293C32.2079 34.1904 32.2655 34.0513 32.2655 33.9063V31.7188C32.2655 31.5737 32.2079 31.4346 32.1053 31.3321C32.0028 31.2295 31.8637 31.1719 31.7186 31.1719H31.1718V18.0469H33.9061C34.0143 18.0469 34.12 18.0148 34.2099 17.9547C34.2998 17.8946 34.3699 17.8092 34.4113 17.7093C34.4527 17.6094 34.4635 17.4994 34.4424 17.3933C34.4213 17.2873 34.3692 17.1898 34.2928 17.1134ZM31.1718 33.3594H3.82801V32.2656H31.1718V33.3594ZM14.7655 31.1719H8.20301V21.3281H14.7655V31.1719ZM15.8593 31.1719V20.7813C15.8593 20.6362 15.8016 20.4971 15.6991 20.3946C15.5965 20.292 15.4574 20.2344 15.3124 20.2344H7.65613C7.51109 20.2344 7.37199 20.292 7.26944 20.3946C7.16688 20.4971 7.10926 20.6362 7.10926 20.7813V31.1719H4.92176V17.7264L17.4999 5.14829L30.078 17.7264V31.1719H15.8593ZM30.8513 16.9531L17.8865 3.98836C17.784 3.88584 17.6449 3.82825 17.4999 3.82825C17.3549 3.82825 17.2158 3.88584 17.1132 3.98836L4.14848 16.9531H2.41379L17.4999 1.86704L32.586 16.9531H30.8513Z" fill="#3E3465"/>
<path d="M21.3281 14.2188C21.3281 13.4616 21.1036 12.7215 20.683 12.092C20.2623 11.4624 19.6645 10.9718 18.965 10.682C18.2655 10.3923 17.4958 10.3165 16.7532 10.4642C16.0106 10.6119 15.3285 10.9765 14.7931 11.5119C14.2577 12.0472 13.8931 12.7293 13.7454 13.4719C13.5977 14.2145 13.6735 14.9842 13.9633 15.6837C14.253 16.3832 14.7437 16.9811 15.3732 17.4017C16.0027 17.8224 16.7429 18.0469 17.5 18.0469C18.5149 18.0457 19.488 17.642 20.2056 16.9244C20.9233 16.2067 21.327 15.2337 21.3281 14.2188ZM14.7656 14.2188C14.7656 13.6779 14.926 13.1493 15.2265 12.6996C15.5269 12.2499 15.954 11.8995 16.4536 11.6925C16.9532 11.4856 17.503 11.4314 18.0335 11.5369C18.5639 11.6424 19.0511 11.9028 19.4335 12.2853C19.8159 12.6677 20.0763 13.1549 20.1818 13.6853C20.2873 14.2157 20.2332 14.7655 20.0262 15.2652C19.8193 15.7648 19.4688 16.1918 19.0191 16.4923C18.5695 16.7928 18.0408 16.9531 17.5 16.9531C16.7751 16.9523 16.0801 16.6639 15.5675 16.1513C15.0549 15.6387 14.7665 14.9437 14.7656 14.2188Z" fill="#3E3465"/>
<path d="M28.4375 20.2344H17.5C17.355 20.2344 17.2159 20.292 17.1133 20.3946C17.0107 20.4971 16.9531 20.6362 16.9531 20.7812V28.4375C16.9531 28.5825 17.0107 28.7216 17.1133 28.8242C17.2159 28.9268 17.355 28.9844 17.5 28.9844H28.4375C28.5825 28.9844 28.7216 28.9268 28.8242 28.8242C28.9268 28.7216 28.9844 28.5825 28.9844 28.4375V20.7812C28.9844 20.6362 28.9268 20.4971 28.8242 20.3946C28.7216 20.292 28.5825 20.2344 28.4375 20.2344ZM27.8906 24.0625H23.5156V21.3281H27.8906V24.0625ZM22.4219 21.3281V24.0625H18.0469V21.3281H22.4219ZM18.0469 25.1562H22.4219V27.8906H18.0469V25.1562ZM23.5156 27.8906V25.1562H27.8906V27.8906H23.5156Z" fill="#3E3465"/>
<path d="M10.3906 24.6094H9.29688V26.7969H10.3906V24.6094Z" fill="#3E3465"/>
</svg>
