<svg width="35" height="35" viewBox="0 0 35 35" fill="none" xmlns="http://www.w3.org/2000/svg">
<g clip-path="url(#clip0)">
<path d="M32.5473 21.6515C31.5822 20.9974 30.445 21.1827 29.4379 21.764C28.4309 22.3453 22.649 27.2889 22.649 27.2889L16.9575 27.29C16.6928 27.29 16.406 26.9922 16.406 26.7286C16.406 26.4187 16.6762 26.1771 16.9575 26.1771H20.4396C21.6585 26.1771 23.0229 25.383 23.0229 23.9711C23.0229 22.471 21.6585 21.7651 20.4396 21.7651C18.1211 21.7651 16.5775 21.9212 15.5456 21.3691C14.6632 20.9169 13.6463 20.661 12.5609 20.661C10.7388 20.661 9.10742 21.3879 7.98898 22.5339L2.04932 28.382L8.66732 35L10.8733 32.794H22.0434C23.1552 32.794 24.2285 32.3859 25.059 31.648L32.6223 23.1637C33.0844 22.7534 33.058 21.999 32.5473 21.6515ZM24.2814 30.8605C23.6582 31.3954 22.8651 31.6899 22.0434 31.6899L10.3395 31.6921L8.66732 33.4393L3.61558 28.3875L8.77872 23.3038C9.73282 22.3254 11.1116 21.764 12.5609 21.764C13.4345 21.764 14.2937 21.9659 15.025 22.3387C16.2543 22.9966 17.5382 22.8659 20.4396 22.8659C20.454 22.8659 21.9199 22.878 21.9199 23.9689C21.9199 24.7212 21.0364 25.0719 20.4396 25.0719H16.8659C16.0971 25.0719 15.2853 25.6289 15.2853 26.8003C15.2853 27.6717 15.9901 28.3809 16.8659 28.3809L23.0405 28.3798C23.0405 28.3798 29.5372 22.9641 30.0611 22.6773C30.585 22.3905 31.2237 22.2008 31.7642 22.4666L24.2814 30.8605Z" fill="#3E3465"/>
<path d="M13.1323 14.8702C13.1323 15.0677 13.2377 15.2508 13.4103 15.3489C13.5084 15.4052 15.8898 16.7205 18.2723 16.6935C17.6011 17.7325 17.3039 18.803 17.2879 18.862C17.236 19.0528 17.2901 19.2569 17.4302 19.397C17.5691 19.5376 17.7738 19.5916 17.9657 19.5392C18.0423 19.5183 19.8711 19.0098 21.0734 17.8059C21.2002 17.679 21.2995 17.5527 21.4054 17.4264V19.5585C21.4054 19.8635 21.6519 20.11 21.9569 20.11C22.2619 20.11 22.5084 19.8635 22.5084 19.5585V17.4264C22.6137 17.5527 22.713 17.679 22.8404 17.8059C24.0427 19.0098 25.8714 19.5177 25.9481 19.5392C25.9966 19.5519 26.0452 19.5585 26.0937 19.5585C26.2382 19.5585 26.3794 19.5017 26.4836 19.397C26.6237 19.2569 26.6777 19.0528 26.6259 18.862C26.6099 18.8035 26.3126 17.7325 25.6415 16.6935C28.0112 16.715 30.4059 15.4052 30.5035 15.3489C30.6755 15.2508 30.7814 15.0677 30.7814 14.8702C30.7814 14.6728 30.6772 14.4892 30.5046 14.3915C30.4246 14.3463 28.849 13.4562 26.9788 13.149C27.136 13.0095 27.2888 12.8644 27.4388 12.715C29.7441 10.4103 30.7219 6.89113 30.7627 6.74278C30.8145 6.55196 30.7605 6.34791 30.6204 6.20783C30.4803 6.06719 30.2779 6.0148 30.0849 6.06554C29.9492 6.10249 26.9717 6.93084 24.7022 8.84896C24.7111 8.65207 24.7149 8.45298 24.7149 8.25224C24.7149 4.29081 22.5293 0.420381 22.4367 0.257689C22.2387 -0.0858962 21.6762 -0.0858962 21.4782 0.257689C21.3855 0.420381 19.1999 4.29081 19.1999 8.25224C19.1999 8.45298 19.2043 8.65207 19.2126 8.84896C16.9432 6.93139 13.9656 6.10304 13.83 6.06554C13.6369 6.0148 13.4345 6.06719 13.2945 6.20783C13.1544 6.34791 13.1003 6.55196 13.1522 6.74278C13.193 6.89113 14.1714 10.4103 16.4761 12.715C16.6255 12.8644 16.7788 13.0095 16.936 13.149C15.0659 13.4562 13.4902 14.3463 13.4103 14.3915C13.2382 14.4897 13.1323 14.6728 13.1323 14.8702ZM18.1394 14.1478C18.1879 14.1478 18.2331 14.1522 18.2773 14.156L18.4289 14.1665C18.6672 14.1814 18.9016 14.0198 18.9771 13.7838C19.0527 13.5477 18.9611 13.2896 18.7532 13.154C18.2144 12.8016 17.7258 12.4034 17.257 11.9341C15.8827 10.5592 15.0069 8.64104 14.564 7.47572C15.7293 7.91803 17.648 8.79436 19.0223 10.1687C19.1988 10.3452 19.3582 10.5211 19.5093 10.6959C19.672 10.8845 19.94 10.9408 20.1623 10.8344C20.3862 10.729 20.5125 10.4869 20.4717 10.2426C20.3586 9.58356 20.3035 8.93169 20.3035 8.25169C20.3035 5.69879 21.3287 3.10508 21.958 1.75501C22.5872 3.10343 23.6125 5.69438 23.6125 8.25169C23.6125 8.93169 23.5573 9.58356 23.4443 10.2426C23.4035 10.4869 23.5292 10.729 23.7537 10.8344C23.9787 10.9408 24.244 10.8845 24.4066 10.6959C24.5572 10.5211 24.7166 10.3452 24.8936 10.1687C26.268 8.79436 28.1866 7.91803 29.3519 7.47572C28.9091 8.64104 28.0333 10.5597 26.659 11.9341C26.1902 12.4034 25.7016 12.8016 25.1628 13.154C24.9548 13.2896 24.8633 13.5472 24.9388 13.7838C25.0144 14.0204 25.2587 14.1825 25.487 14.1665L25.6387 14.156C25.6828 14.1522 25.728 14.1478 25.7766 14.1478C26.9452 14.1478 28.1342 14.5344 28.9433 14.8691C28.1348 15.2045 26.9458 15.5911 25.7771 15.5911C25.3343 15.5911 24.898 15.5436 24.4425 15.4466C24.1927 15.3936 23.95 15.5133 23.8358 15.7344C23.7228 15.9556 23.7713 16.2269 23.9566 16.394C23.961 16.3984 24.1083 16.5275 24.1138 16.5319C24.5611 16.9786 24.898 17.5505 25.1341 18.0458C24.6399 17.8097 24.0697 17.4728 23.6219 17.0244C22.536 15.939 22.5111 14.9111 22.51 14.8735V12.3874C22.51 12.0824 22.2635 11.8359 21.9585 11.8359C21.6536 11.8359 21.407 12.0824 21.407 12.3874V14.8647V14.8686C21.4059 14.9226 21.3745 15.9457 20.2952 17.0244C19.8513 17.4684 19.286 17.8037 18.7924 18.0397C19.0389 17.5345 19.3946 16.9444 19.8761 16.4668C19.8816 16.4624 19.956 16.3979 19.9599 16.3935C20.1452 16.2258 20.1937 15.955 20.0807 15.7339C19.9665 15.5127 19.7244 15.3931 19.474 15.446C19.0185 15.5431 18.5822 15.5905 18.1394 15.5905C16.9708 15.5905 15.7817 15.2039 14.9727 14.8691C15.7817 14.5349 16.9708 14.1478 18.1394 14.1478Z" fill="#3E3465"/>
</g>
<defs>
<clipPath id="clip0">
<rect width="35" height="35" fill="white"/>
</clipPath>
</defs>
</svg>
