<svg width="34" height="34" viewBox="0 0 34 34" fill="none" xmlns="http://www.w3.org/2000/svg">
<g clip-path="url(#clip0)">
<path d="M33.9999 5.83075C33.9999 5.82703 33.9994 5.82331 33.9993 5.81953C33.9989 5.80472 33.998 5.79011 33.9963 5.77563C33.9956 5.77032 33.9946 5.76501 33.9939 5.7597C33.9919 5.74635 33.9894 5.7332 33.9863 5.72032C33.9852 5.7152 33.9838 5.71016 33.9824 5.70504C33.9786 5.69103 33.9742 5.67729 33.9691 5.66374C33.9682 5.66115 33.9676 5.65849 33.9666 5.65597L32.6156 2.19741C32.4794 1.84891 32.1496 1.62366 31.7754 1.62366H29.3154C29.0473 1.62366 28.8299 1.841 28.8299 2.10915C28.8299 2.3773 29.0473 2.59465 29.3154 2.59465H31.7283L32.8035 5.34712H22.6385L22.0016 2.59465H25.7557C26.0239 2.59465 26.2412 2.3773 26.2412 2.10915C26.2412 1.841 26.0239 1.62366 25.7557 1.62366H21.3909H16.499H6.11444C5.74017 1.62366 5.4104 1.84891 5.2742 2.19754L3.92317 5.65597C3.92217 5.65856 3.92164 5.66122 3.92064 5.66374C3.9156 5.67722 3.91122 5.69097 3.90736 5.70504C3.90597 5.71016 3.90464 5.7152 3.90345 5.72032C3.90039 5.73327 3.89793 5.74642 3.89594 5.7597C3.89514 5.76501 3.89415 5.77032 3.89348 5.77563C3.89182 5.79011 3.89089 5.80472 3.8905 5.81953C3.89043 5.82325 3.88997 5.82697 3.8899 5.83075C3.8899 5.83135 3.88983 5.83195 3.88983 5.83254V12.9652C3.88983 13.2334 4.10718 13.4507 4.37533 13.4507C4.64348 13.4507 4.86082 13.2334 4.86082 12.9652V6.31811H15.1519V13.6977C15.1519 13.9863 15.3219 14.2493 15.5851 14.3677C15.6814 14.411 15.784 14.4322 15.886 14.4322C16.0623 14.4322 16.2368 14.3689 16.3736 14.2476L18.9449 11.9696L21.5162 14.2475C21.7321 14.439 22.0417 14.4861 22.3048 14.3677C22.5679 14.2492 22.7379 13.9863 22.7379 13.6977V6.31811H33.029V28.0942C33.029 28.4426 32.7455 28.7261 32.3971 28.7261H23.4952C23.4952 28.7205 23.4945 28.715 23.4944 28.7095C23.4939 28.666 23.4923 28.6225 23.4886 28.5793C24.3245 28.8009 25.2176 28.3713 25.5525 27.5499C25.7287 27.1178 25.7261 26.643 25.5451 26.2129C25.5281 26.1724 25.5093 26.1331 25.4895 26.0944C25.4858 26.0873 25.4823 26.0801 25.4787 26.0731C25.4592 26.0361 25.4385 26.0001 25.4166 25.965C25.4124 25.9581 25.408 25.9515 25.4037 25.9447C25.3806 25.9086 25.3566 25.8732 25.331 25.8392C25.3306 25.8385 25.33 25.8379 25.3296 25.8373C25.3042 25.8037 25.2774 25.7712 25.2497 25.7396C25.2446 25.7338 25.2397 25.728 25.2346 25.7222C25.2071 25.6916 25.1786 25.6621 25.1492 25.6336C25.1434 25.628 25.1375 25.6226 25.1317 25.6172C25.1008 25.5882 25.0692 25.5599 25.0363 25.5333C25.0351 25.5325 25.034 25.5316 25.0329 25.5307C25.0005 25.5046 24.9668 25.4799 24.9325 25.4562C24.9263 25.4518 24.9202 25.4475 24.9139 25.4432C24.8795 25.4201 24.8443 25.3982 24.8082 25.3775C24.8052 25.3757 24.8025 25.3737 24.7995 25.372C25.0047 25.1944 25.1666 24.9697 25.2721 24.7111C25.4482 24.279 25.4457 23.8042 25.2647 23.3741C25.1064 22.9978 24.8281 22.6951 24.4716 22.5073C24.4207 22.4805 24.3682 22.456 24.3142 22.434L16.758 19.353L20.2753 18.2643C21.1121 18.0053 21.5833 17.1128 21.3258 16.2749C21.2297 15.9621 21.0392 15.6984 20.7931 15.5056C20.4269 15.2187 19.9374 15.0891 19.452 15.191C19.4496 15.1916 19.4474 15.192 19.4451 15.1926C19.4182 15.1986 16.7218 15.8049 13.9057 16.354C13.7808 16.3784 13.6591 16.4019 13.5391 16.425C13.4431 16.4434 13.3484 16.4616 13.2555 16.4793C13.2288 16.4844 13.202 16.4895 13.1755 16.4945C13.0115 16.5257 12.8526 16.5555 12.6981 16.5842C12.636 16.5957 12.5744 16.6071 12.5137 16.6183C8.97714 17.2698 7.98364 17.2815 7.70792 17.2442C7.70686 17.244 7.70593 17.2439 7.70486 17.2437C7.70068 17.2431 7.69656 17.2425 7.69271 17.2419C7.68992 17.2415 7.68733 17.241 7.68474 17.2406C7.68288 17.2403 7.68089 17.2399 7.6791 17.2397C7.6619 17.2365 7.64849 17.2333 7.63813 17.2302L7.55857 17.1978L7.65772 16.9546C7.7552 16.7156 7.75374 16.4529 7.65366 16.2149C7.62863 16.1554 7.59815 16.0993 7.56282 16.0469C7.45684 15.89 7.30696 15.7678 7.12766 15.6947L4.52003 14.6315C4.28103 14.5339 4.01826 14.5355 3.78033 14.6355C3.54233 14.7356 3.35765 14.9224 3.26017 15.1614L0.0715472 22.9816C-0.129663 23.4751 0.108137 24.0402 0.601601 24.2415L3.2093 25.3047C3.32837 25.3533 3.45155 25.3763 3.57288 25.3763C3.95425 25.3763 4.31643 25.149 4.46909 24.7747L4.49307 24.7159L5.09431 24.961C5.09464 24.9612 5.09497 24.9614 5.09537 24.9615C5.67045 25.196 6.2003 25.5305 6.6589 25.9457C6.74231 26.0212 6.82332 26.0994 6.90188 26.18C6.98044 26.2607 7.05641 26.344 7.12979 26.4297C7.16644 26.4725 7.2025 26.516 7.23776 26.56C7.90601 27.3933 8.78204 28.0469 9.77102 28.4502L10.4474 28.726H5.49274C5.14438 28.726 4.86089 28.4425 4.86089 28.0941V26.8657C4.86089 26.5975 4.64354 26.3802 4.37539 26.3802C4.10725 26.3802 3.8899 26.5975 3.8899 26.8657V28.0941C3.8899 28.9779 4.60888 29.697 5.49274 29.697H12.8288L19.083 32.2471C19.2983 32.3349 19.521 32.3765 19.7404 32.3765C20.4296 32.3765 21.0842 31.9657 21.3602 31.2891C21.4733 31.0116 21.5096 30.7216 21.4792 30.4427C21.8045 30.4894 22.1418 30.4466 22.4475 30.3146C22.7582 30.1804 23.0157 29.9666 23.1986 29.6969H32.3972C33.281 29.6969 34 28.9779 34 28.0941V5.83261C34 5.83195 33.9999 5.83142 33.9999 5.83075ZM16.8849 2.59465H21.0049L21.6418 5.34712H16.248L16.8849 2.59465ZM15.2514 5.34712H5.08627L6.16145 2.59465H15.8883L15.2514 5.34712ZM21.7671 13.1725H21.767L19.4321 11.1039C19.2932 10.9809 19.1191 10.9195 18.945 10.9195C18.7709 10.9195 18.5967 10.9809 18.4579 11.1039L16.123 13.1725V6.31811H21.7671V13.1725ZM3.57168 24.4039L0.972346 23.344L4.15758 15.5324L6.75692 16.5923L3.57168 24.4039ZM22.9679 27.3338L22.4107 27.1065C22.4104 27.1064 22.4102 27.1063 22.4099 27.1062C22.4097 27.1061 22.4095 27.106 22.4093 27.1059C22.4092 27.1059 22.4092 27.1059 22.4091 27.1059L16.6061 24.7398C16.3579 24.6386 16.0746 24.7577 15.9733 25.0061C15.872 25.2543 15.9912 25.5377 16.2396 25.639L22.0427 28.0052C22.0669 28.015 22.0904 28.026 22.113 28.038C22.1194 28.0414 22.1253 28.0455 22.1315 28.049C22.1475 28.0581 22.1635 28.0671 22.1785 28.0771C22.1858 28.082 22.1924 28.0876 22.1995 28.0926C22.2128 28.1022 22.2264 28.1116 22.239 28.122C22.2467 28.1282 22.2536 28.1352 22.261 28.1417C22.2722 28.1517 22.2838 28.1614 22.2944 28.172C22.3018 28.1793 22.3084 28.1874 22.3154 28.1949C22.3252 28.2054 22.3352 28.2157 22.3444 28.2267C22.3513 28.2352 22.3574 28.2441 22.3641 28.2528C22.3724 28.2637 22.381 28.2744 22.3887 28.2857C22.3951 28.2951 22.4006 28.3051 22.4066 28.3147C22.4135 28.3259 22.4208 28.3369 22.4271 28.3483C22.4328 28.3587 22.4376 28.3695 22.4428 28.3801C22.4484 28.3914 22.4545 28.4026 22.4595 28.4142C22.4644 28.4254 22.4683 28.4369 22.4726 28.4483C22.477 28.4598 22.4818 28.4711 22.4856 28.4827C22.4895 28.4945 22.4924 28.5065 22.4956 28.5184C22.4989 28.5302 22.5025 28.5417 22.5053 28.5536C22.508 28.5656 22.5097 28.5778 22.5119 28.5899C22.5141 28.602 22.5166 28.614 22.5182 28.6262C22.5198 28.6384 22.5204 28.6508 22.5214 28.663C22.5224 28.6754 22.5239 28.6877 22.5243 28.7C22.5247 28.7122 22.5241 28.7245 22.5239 28.7367C22.5238 28.7493 22.524 28.7619 22.5232 28.7746C22.5225 28.7866 22.5207 28.7986 22.5193 28.8107C22.5179 28.8236 22.5169 28.8366 22.5148 28.8494C22.5128 28.8613 22.5098 28.873 22.5074 28.8848C22.5046 28.8979 22.5023 28.911 22.4988 28.924C22.4957 28.9355 22.4916 28.9469 22.4879 28.9583C22.4838 28.9714 22.48 28.9844 22.4752 28.9972C22.4711 29.006 22.467 29.0149 22.4632 29.0239C22.4624 29.0259 22.4619 29.0281 22.4611 29.0301C22.3853 29.2052 22.2453 29.3443 22.0625 29.4233C21.8613 29.51 21.6309 29.5131 21.4303 29.4313L20.4022 29.0121C20.3974 29.0101 20.3925 29.0088 20.3878 29.007C20.3829 29.0048 20.3783 29.0023 20.3734 29.0003L15.6535 27.0758C15.4051 26.9746 15.1219 27.0937 15.0207 27.3421C14.9194 27.5904 15.0386 27.8737 15.2869 27.975L20.0068 29.8995C20.0118 29.9016 20.017 29.903 20.0221 29.9049C20.0267 29.9069 20.0309 29.9093 20.0356 29.9112C20.4317 30.0728 20.6226 30.5265 20.4611 30.9226C20.2996 31.3188 19.8461 31.5098 19.4498 31.3481L13.1083 28.7624C13.1081 28.7622 13.1078 28.7621 13.1075 28.762L10.1379 27.5511C9.6151 27.3379 9.12967 27.0421 8.70115 26.6781C8.44403 26.4597 8.20743 26.2168 7.99546 25.9525C7.78661 25.6922 7.55751 25.4493 7.31101 25.2261C6.76867 24.7352 6.14213 24.3396 5.4622 24.0623C5.46213 24.0623 5.46206 24.0622 5.462 24.0622L4.85996 23.8168L6.05905 20.876L7.19221 18.097L7.27581 18.131C7.35451 18.1631 7.46673 18.2087 7.76875 18.2201C8.14607 18.2371 8.77028 18.1978 9.88856 18.0398C10.6492 17.9323 11.5823 17.7769 12.6716 17.5765C12.6984 17.5716 12.725 17.5667 12.7521 17.5617C12.8031 17.5523 12.8545 17.5427 12.9062 17.5332C12.9464 17.5257 12.9867 17.5182 13.0274 17.5105C13.0738 17.5018 13.1203 17.4931 13.1672 17.4843C13.217 17.4749 13.2673 17.4654 13.3179 17.4558C13.3584 17.4481 13.3989 17.4405 13.4398 17.4327C13.5015 17.4209 13.5642 17.4089 13.6272 17.3968C13.6596 17.3906 13.6916 17.3845 13.7243 17.3782C13.8207 17.3597 13.9184 17.3408 14.0179 17.3215C16.8243 16.7756 19.533 16.1681 19.6547 16.1407C19.6669 16.1382 19.679 16.1367 19.6912 16.1349C20.003 16.0888 20.3085 16.2691 20.398 16.5601C20.4294 16.6624 20.4331 16.7667 20.4133 16.8649C20.3698 17.0809 20.2128 17.2673 19.9884 17.3367L15.1752 18.8264C14.9792 18.8871 14.8425 19.0642 14.8337 19.2692C14.8248 19.474 14.9455 19.6624 15.1354 19.7398L23.9478 23.3331C24.1397 23.4114 24.2897 23.5597 24.37 23.7507C24.4504 23.9418 24.4516 24.1527 24.3733 24.3445C24.295 24.5364 24.1468 24.6864 23.9557 24.7667C23.8602 24.8068 23.7597 24.8272 23.6591 24.8278C23.6577 24.8278 23.6562 24.8276 23.6548 24.8276C23.6311 24.8276 23.6075 24.8266 23.584 24.8244C23.577 24.8238 23.5701 24.8223 23.5631 24.8215C23.5451 24.8193 23.5271 24.8173 23.5093 24.8138C23.498 24.8116 23.4868 24.8083 23.4756 24.8056C23.4622 24.8025 23.4487 24.7997 23.4354 24.7958C23.4217 24.7918 23.4082 24.7864 23.3946 24.7815C23.3839 24.7777 23.3729 24.7745 23.3623 24.7702L17.5587 22.4037C17.3104 22.3025 17.0271 22.4217 16.9258 22.67C16.8245 22.9183 16.9437 23.2017 17.1921 23.3029L24.2282 26.1719C24.2762 26.1914 24.3215 26.2154 24.3638 26.2433C24.4907 26.3269 24.5901 26.4461 24.6504 26.5894C24.7207 26.7566 24.7304 26.9389 24.6793 27.1105C24.672 27.135 24.6634 27.1593 24.6536 27.1832C24.6435 27.208 24.6323 27.232 24.62 27.2551C24.5914 27.3089 24.5565 27.3575 24.5176 27.4018C24.4935 27.4293 24.4676 27.4549 24.4401 27.4784C24.4358 27.4821 24.4318 27.4864 24.4273 27.49C24.2501 27.6349 24.0133 27.6972 23.7819 27.6504C23.7349 27.6409 23.6882 27.6274 23.6423 27.6087L22.9679 27.3338Z" fill="#3E3465"/>
</g>
<defs>
<clipPath id="clip0">
<rect width="34" height="34" fill="white"/>
</clipPath>
</defs>
</svg>
