<svg width="35" height="35" viewBox="0 0 35 35" fill="none" xmlns="http://www.w3.org/2000/svg">
<path d="M6.5625 19.1406C6.12985 19.1406 5.70692 19.2689 5.34719 19.5093C4.98746 19.7497 4.70708 20.0913 4.54151 20.491C4.37595 20.8907 4.33263 21.3306 4.41703 21.7549C4.50144 22.1792 4.70978 22.569 5.0157 22.8749C5.32163 23.1808 5.71141 23.3892 6.13574 23.4736C6.56007 23.558 6.99991 23.5147 7.39962 23.3491C7.79933 23.1835 8.14098 22.9032 8.38134 22.5434C8.62171 22.1837 8.75 21.7608 8.75 21.3281C8.75 20.748 8.51953 20.1916 8.1093 19.7813C7.69906 19.3711 7.14266 19.1406 6.5625 19.1406ZM6.5625 22.4219C6.34618 22.4219 6.13471 22.3577 5.95485 22.2375C5.77498 22.1174 5.63479 21.9465 5.55201 21.7467C5.46922 21.5468 5.44756 21.3269 5.48977 21.1147C5.53197 20.9026 5.63614 20.7077 5.7891 20.5547C5.94207 20.4018 6.13695 20.2976 6.34912 20.2554C6.56129 20.2132 6.7812 20.2348 6.98106 20.3176C7.18092 20.4004 7.35174 20.5406 7.47192 20.7205C7.5921 20.9003 7.65625 21.1118 7.65625 21.3281C7.65625 21.6182 7.54102 21.8964 7.3359 22.1015C7.13078 22.3066 6.85258 22.4219 6.5625 22.4219Z" fill="#3E3465"/>
<path d="M28.4375 19.1406C28.0049 19.1406 27.5819 19.2689 27.2222 19.5093C26.8625 19.7497 26.5821 20.0913 26.4165 20.491C26.2509 20.8907 26.2076 21.3306 26.292 21.7549C26.3764 22.1792 26.5848 22.569 26.8907 22.8749C27.1966 23.1808 27.5864 23.3892 28.0107 23.4736C28.4351 23.558 28.8749 23.5147 29.2746 23.3491C29.6743 23.1835 30.016 22.9032 30.2563 22.5434C30.4967 22.1837 30.625 21.7608 30.625 21.3281C30.625 20.748 30.3945 20.1916 29.9843 19.7813C29.5741 19.3711 29.0177 19.1406 28.4375 19.1406ZM28.4375 22.4219C28.2212 22.4219 28.0097 22.3577 27.8298 22.2375C27.65 22.1174 27.5098 21.9465 27.427 21.7467C27.3442 21.5468 27.3226 21.3269 27.3648 21.1147C27.407 20.9026 27.5111 20.7077 27.6641 20.5547C27.8171 20.4018 28.012 20.2976 28.2241 20.2554C28.4363 20.2132 28.6562 20.2348 28.8561 20.3176C29.0559 20.4004 29.2267 20.5406 29.3469 20.7205C29.4671 20.9003 29.5313 21.1118 29.5313 21.3281C29.5313 21.6182 29.416 21.8964 29.2109 22.1015C29.0058 22.3066 28.7276 22.4219 28.4375 22.4219Z" fill="#3E3465"/>
<path d="M12.5781 21.875H22.4219V22.9688H12.5781V21.875Z" fill="#3E3465"/>
<path d="M12.5781 19.6875H22.4219V20.7812H12.5781V19.6875Z" fill="#3E3465"/>
<path d="M15.8594 11.4844H19.1406V12.5781H15.8594V11.4844Z" fill="#3E3465"/>
<path d="M33.9062 16.4062V15.3125C33.905 14.8778 33.7317 14.4612 33.4243 14.1538C33.1169 13.8464 32.7003 13.6732 32.2656 13.6719H30.1L28.968 9.70156L28.6289 8.35078C28.5399 7.9961 28.335 7.68132 28.0467 7.45641C27.7584 7.2315 27.4032 7.10935 27.0375 7.10938H22.4219V4.92188C22.421 4.63206 22.3055 4.35436 22.1006 4.14943C21.8956 3.9445 21.6179 3.82899 21.3281 3.82812H13.6719C13.3821 3.82899 13.1044 3.9445 12.8994 4.14943C12.6945 4.35436 12.579 4.63206 12.5781 4.92188V7.10938H7.9625C7.59683 7.10935 7.24164 7.2315 6.95331 7.45641C6.66499 7.68132 6.46007 7.9961 6.37109 8.35078L6.0375 9.69609L4.9 13.6719H2.73438C2.29965 13.6732 1.88311 13.8464 1.57571 14.1538C1.26832 14.4612 1.09505 14.8778 1.09375 15.3125V16.4062C1.09464 16.6833 1.16585 16.9556 1.30072 17.1976C1.43559 17.4396 1.62969 17.6434 1.86484 17.7898C1.37047 18.2978 1.09382 18.9787 1.09375 19.6875V26.25C1.0945 26.4794 1.14359 26.7061 1.23782 26.9153C1.33205 27.1245 1.4693 27.3115 1.64062 27.4641V29.5312C1.64192 29.966 1.81519 30.3825 2.12259 30.6899C2.42998 30.9973 2.84653 31.1706 3.28125 31.1719H7.65625C8.09097 31.1706 8.50752 30.9973 8.81491 30.6899C9.12231 30.3825 9.29558 29.966 9.29688 29.5312V27.8906H25.7031V29.5312C25.7044 29.966 25.8777 30.3825 26.1851 30.6899C26.4925 30.9973 26.909 31.1706 27.3438 31.1719H31.7188C32.1535 31.1706 32.57 30.9973 32.8774 30.6899C33.1848 30.3825 33.3581 29.966 33.3594 29.5312V27.4641C33.5307 27.3115 33.6679 27.1245 33.7622 26.9153C33.8564 26.7061 33.9055 26.4794 33.9062 26.25V19.6875C33.9062 18.9787 33.6295 18.2978 33.1352 17.7898C33.3703 17.6434 33.5644 17.4396 33.6993 17.1976C33.8342 16.9556 33.9054 16.6833 33.9062 16.4062ZM13.6719 4.92188H21.3281V7.10938H13.6719V4.92188ZM7.43203 8.61875C7.46134 8.50019 7.5295 8.39485 7.62564 8.31952C7.72178 8.24419 7.84037 8.20322 7.9625 8.20312H27.0375C27.1596 8.20322 27.2782 8.24419 27.3744 8.31952C27.4705 8.39485 27.5387 8.50019 27.568 8.61875L27.7375 9.29688H7.2625L7.43203 8.61875ZM6.97266 10.3906H28.0273L29.8977 16.9531H14.1695C14.041 16.1889 13.6458 15.4949 13.0541 14.9944C12.4624 14.4939 11.7125 14.2193 10.9375 14.2193C10.1625 14.2193 9.4126 14.4939 8.8209 14.9944C8.2292 15.4949 7.834 16.1889 7.70547 16.9531H5.10234L6.97266 10.3906ZM13.0484 16.9531H8.82656C8.94597 16.4839 9.21832 16.0678 9.6006 15.7706C9.98288 15.4734 10.4533 15.3121 10.9375 15.3121C11.4217 15.3121 11.8921 15.4734 12.2744 15.7706C12.6567 16.0678 12.929 16.4839 13.0484 16.9531ZM2.1875 15.3125C2.1875 15.1675 2.24512 15.0284 2.34768 14.9258C2.45024 14.8232 2.58933 14.7656 2.73438 14.7656H4.58828L3.96484 16.9531H2.73438C2.58933 16.9531 2.45024 16.8955 2.34768 16.7929C2.24512 16.6904 2.1875 16.5513 2.1875 16.4062V15.3125ZM8.20312 29.5312C8.20312 29.6763 8.14551 29.8154 8.04295 29.9179C7.94039 30.0205 7.80129 30.0781 7.65625 30.0781H3.28125C3.13621 30.0781 2.99711 30.0205 2.89455 29.9179C2.79199 29.8154 2.73438 29.6763 2.73438 29.5312V27.8906H8.20312V29.5312ZM32.2656 29.5312C32.2656 29.6763 32.208 29.8154 32.1054 29.9179C32.0029 30.0205 31.8638 30.0781 31.7188 30.0781H27.3438C27.1987 30.0781 27.0596 30.0205 26.9571 29.9179C26.8545 29.8154 26.7969 29.6763 26.7969 29.5312V27.8906H32.2656V29.5312ZM32.8125 26.25C32.8125 26.395 32.7549 26.5341 32.6523 26.6367C32.5498 26.7393 32.4107 26.7969 32.2656 26.7969H2.73438C2.58933 26.7969 2.45024 26.7393 2.34768 26.6367C2.24512 26.5341 2.1875 26.395 2.1875 26.25V25.7031H32.8125V26.25ZM32.8125 24.6094H2.1875V19.6875C2.1888 19.2528 2.36207 18.8362 2.66946 18.5288C2.97686 18.2214 3.3934 18.0482 3.82812 18.0469H31.1719C31.6066 18.0482 32.0231 18.2214 32.3305 18.5288C32.6379 18.8362 32.8112 19.2528 32.8125 19.6875V24.6094ZM32.8125 16.4062C32.8125 16.5513 32.7549 16.6904 32.6523 16.7929C32.5498 16.8955 32.4107 16.9531 32.2656 16.9531H31.0352L30.4117 14.7656H32.2656C32.4107 14.7656 32.5498 14.8232 32.6523 14.9258C32.7549 15.0284 32.8125 15.1675 32.8125 15.3125V16.4062Z" fill="#3E3465"/>
</svg>
