<svg width="35" height="35" viewBox="0 0 35 35" fill="none" xmlns="http://www.w3.org/2000/svg">
<path d="M17.5 11.5062L15.9395 14.2187C15.5895 14.8166 15.8812 15.3125 16.5666 15.3125H18.4187C19.1187 15.3125 19.3958 15.8083 19.0458 16.4062L17.5 19.1187" stroke="#DD67C7" stroke-width="1.8" stroke-linecap="round" stroke-linejoin="round"/>
<path d="M12.1042 26.3084V24.6167C8.75002 22.5896 5.99377 18.6376 5.99377 14.4376C5.99377 7.2188 12.6292 1.56047 20.125 3.1938C23.4209 3.92297 26.3084 6.11047 27.8104 9.12922C30.8584 15.2542 27.65 21.7584 22.9396 24.6021V26.2938C22.9396 26.7167 23.1 27.6938 21.5396 27.6938H13.5042C11.9 27.7084 12.1042 27.0813 12.1042 26.3084Z" stroke="#6579F4" stroke-width="1.8" stroke-linecap="round" stroke-linejoin="round"/>
<path d="M12.3959 32.0833C15.7355 31.1354 19.2646 31.1354 22.6042 32.0833" stroke="#6579F4" stroke-width="1.8" stroke-linecap="round" stroke-linejoin="round"/>
</svg>
