<svg width="35" height="35" viewBox="0 0 35 35" fill="none" xmlns="http://www.w3.org/2000/svg">
<path d="M26.25 10.4416C26.1625 10.427 26.0604 10.427 25.9729 10.4416C23.9604 10.3687 22.3563 8.7208 22.3563 6.67913C22.3563 4.59371 24.0333 2.91663 26.1188 2.91663C28.2042 2.91663 29.8812 4.6083 29.8812 6.67913C29.8667 8.7208 28.2625 10.3687 26.25 10.4416Z" stroke="#6579F4" stroke-width="1.8" stroke-linecap="round" stroke-linejoin="round"/>
<path d="M24.7479 21.0583C26.7458 21.3937 28.9479 21.0437 30.4938 20.0083C32.55 18.6374 32.55 16.3916 30.4938 15.0208C28.9333 13.9854 26.7021 13.6354 24.7042 13.9854" stroke="#6579F4" stroke-width="1.8" stroke-linecap="round" stroke-linejoin="round"/>
<path d="M8.70626 10.4416C8.79376 10.427 8.89584 10.427 8.98334 10.4416C10.9958 10.3687 12.6 8.7208 12.6 6.67913C12.6 4.59371 10.9229 2.91663 8.83751 2.91663C6.75209 2.91663 5.075 4.6083 5.075 6.67913C5.08959 8.7208 6.69376 10.3687 8.70626 10.4416Z" stroke="#6579F4" stroke-width="1.8" stroke-linecap="round" stroke-linejoin="round"/>
<path d="M10.2083 21.0583C8.21042 21.3937 6.00834 21.0437 4.46251 20.0083C2.40626 18.6374 2.40626 16.3916 4.46251 15.0208C6.02292 13.9854 8.25417 13.6354 10.2521 13.9854" stroke="#6579F4" stroke-width="1.8" stroke-linecap="round" stroke-linejoin="round"/>
<path d="M17.5 21.3354C17.4125 21.3208 17.3104 21.3208 17.2229 21.3354C15.2104 21.2625 13.6063 19.6146 13.6063 17.5729C13.6063 15.4875 15.2833 13.8104 17.3688 13.8104C19.4542 13.8104 21.1313 15.5021 21.1313 17.5729C21.1167 19.6146 19.5125 21.2771 17.5 21.3354Z" stroke="#DD67C7" stroke-width="1.8" stroke-linecap="round" stroke-linejoin="round"/>
<path d="M13.2563 25.9292C11.2 27.3 11.2 29.5458 13.2563 30.9166C15.5896 32.4771 19.4104 32.4771 21.7438 30.9166C23.8 29.5458 23.8 27.3 21.7438 25.9292C19.425 24.3833 15.5896 24.3833 13.2563 25.9292Z" stroke="#DD67C7" stroke-width="1.8" stroke-linecap="round" stroke-linejoin="round"/>
</svg>
