<svg width="58" height="58" viewBox="0 0 58 58" fill="none" xmlns="http://www.w3.org/2000/svg">
<path d="M14.4941 32.6265V27.7911C14.4941 26.4559 15.5766 25.3735 16.9118 25.3735H41.0885C42.4238 25.3735 43.5062 26.4559 43.5062 27.7911V32.6265" stroke="#231D36" stroke-width="1.5" stroke-linecap="round" stroke-linejoin="round"/>
<path d="M24.1659 32.6265V43.5061" stroke="#231D36" stroke-width="1.5" stroke-linecap="round" stroke-linejoin="round"/>
<path d="M16.912 43.5061V32.6265" stroke="#231D36" stroke-width="1.5" stroke-linecap="round" stroke-linejoin="round"/>
<path d="M33.8358 32.6265V43.5061" stroke="#231D36" stroke-width="1.5" stroke-linecap="round" stroke-linejoin="round"/>
<path d="M41.0897 43.5061V32.6265" stroke="#231D36" stroke-width="1.5" stroke-linecap="round" stroke-linejoin="round"/>
<path d="M38.592 25.3735C38.592 20.0766 34.298 15.7826 29.0011 15.7826C23.7042 15.7826 19.4102 20.0766 19.4102 25.3735" stroke="#231D36" stroke-width="1.5" stroke-linecap="round" stroke-linejoin="round"/>
<path d="M48.341 43.5061V35.0442C48.341 33.709 47.2586 32.6265 45.9233 32.6265H12.0759C10.7406 32.6265 9.6582 33.709 9.6582 35.0442V43.5061" stroke="#231D36" stroke-width="1.5" stroke-linecap="round" stroke-linejoin="round"/>
<path d="M50.7603 50.7591V46.9246C50.7603 46.2835 50.5054 45.6686 50.0519 45.2153L48.3426 43.506H9.65986L7.95057 45.2153C7.49713 45.6686 7.24219 46.2835 7.24219 46.9246V50.7591" stroke="#231D36" stroke-width="1.5" stroke-linecap="round" stroke-linejoin="round"/>
<path d="M53.1777 50.7591H4.82422" stroke="#231D36" stroke-width="1.5" stroke-linecap="round" stroke-linejoin="round"/>
<path d="M29 15.7028V6.03208C29 5.36446 29.5412 4.82324 30.2088 4.82324H37.4619C38.1295 4.82324 38.6707 5.36446 38.6707 6.03208V9.46034C38.6707 10.128 38.1295 10.6692 37.4619 10.6692H29" stroke="#231D36" stroke-width="1.5" stroke-linecap="round" stroke-linejoin="round"/>
</svg>
