<svg width="58" height="58" viewBox="0 0 58 58" fill="none" xmlns="http://www.w3.org/2000/svg">
<path d="M48.3416 25.4847V50.759" stroke="#231D36" stroke-width="1.5" stroke-linecap="round" stroke-linejoin="round"/>
<path d="M53.1777 29L30.512 12.5236C29.666 11.9109 28.5221 11.9109 27.6761 12.5236L4.82422 29" stroke="#231D36" stroke-width="1.5" stroke-linecap="round" stroke-linejoin="round"/>
<path d="M47.1336 23.5433V10.8675C47.1336 10.1998 46.5924 9.65863 45.9247 9.65863H38.6717C38.0041 9.65863 37.4629 10.1998 37.4629 10.8675V17.1752" stroke="#231D36" stroke-width="1.5" stroke-linecap="round" stroke-linejoin="round"/>
<path d="M53.1777 50.7591H4.82422" stroke="#231D36" stroke-width="1.5" stroke-linecap="round" stroke-linejoin="round"/>
<path d="M9.65806 25.5137V50.7591" stroke="#231D36" stroke-width="1.5" stroke-linecap="round" stroke-linejoin="round"/>
<rect x="32.627" y="36.2531" width="9.67069" height="7.25302" rx="0.5" stroke="#231D36" stroke-width="1.5" stroke-linecap="round" stroke-linejoin="round"/>
<path d="M16.9121 50.7591V37.4619C16.9121 36.7943 17.4533 36.2531 18.1209 36.2531H24.1651C24.8328 36.2531 25.374 36.7943 25.374 37.4619V50.7591" stroke="#231D36" stroke-width="1.5" stroke-linecap="round" stroke-linejoin="round"/>
</svg>
