<svg width="66" height="66" viewBox="0 0 66 66" fill="none" xmlns="http://www.w3.org/2000/svg">
<path fill-rule="evenodd" clip-rule="evenodd" d="M55.9463 26.1085C53.5538 27.489 52.2256 30.0823 52.2503 32.8433C52.2503 32.8955 52.2503 32.9478 52.2503 33C52.2503 33.0523 52.2503 33.1073 52.2503 33.1595C52.2256 35.9205 53.5538 38.5138 55.9463 39.8943L55.9683 39.908C57.5936 40.8458 59.7083 39.919 60.0521 38.0738C60.6818 34.6858 60.6516 31.2455 60.0218 27.9263C59.6726 26.0865 57.5661 25.1735 55.9463 26.1085V26.1085V26.1085Z" stroke="#6579F4" stroke-width="3" stroke-linecap="round" stroke-linejoin="round"/>
<path fill-rule="evenodd" clip-rule="evenodd" d="M23.7759 16.115C23.5256 16.2525 23.2781 16.3955 23.0334 16.544C20.7481 17.9355 17.8744 17.9108 15.5561 16.5715V16.5715C13.9446 15.642 13.6614 13.3705 15.0694 12.155C17.6406 9.93301 20.6244 8.17576 23.8969 7.02626C25.6569 6.40751 27.4939 7.78801 27.4939 9.65251V9.67451C27.4939 12.3338 26.1051 14.8363 23.7759 16.115V16.115Z" stroke="#6579F4" stroke-width="3" stroke-linecap="round" stroke-linejoin="round"/>
<path fill-rule="evenodd" clip-rule="evenodd" d="M42.2431 49.8741C42.4879 49.7393 42.7299 49.5991 42.9691 49.4533C45.2544 48.0618 48.1281 48.0866 50.4464 49.4258V49.4258C52.0579 50.3553 52.3411 52.6268 50.9331 53.8423C48.3619 56.0643 45.3781 57.8216 42.1056 58.9738C40.3456 59.5953 38.5059 58.2148 38.5059 56.3476V56.3476C38.5059 53.6773 39.9029 51.1638 42.2431 49.8741V49.8741Z" stroke="#6579F4" stroke-width="3" stroke-linecap="round" stroke-linejoin="round"/>
<path fill-rule="evenodd" clip-rule="evenodd" d="M10.0534 39.8915V39.8915C8.43369 40.8265 6.32719 39.9135 5.97794 38.0765C5.34819 34.7572 5.31794 31.3142 5.94769 27.9262C6.29144 26.081 8.40344 25.1542 10.0287 26.092L10.0534 26.1057C12.4459 27.4862 13.7742 30.0795 13.7494 32.8405C13.7494 32.8927 13.7494 32.9477 13.7494 33C13.7494 33.0522 13.7494 33.1045 13.7494 33.1567C13.7742 35.9177 12.4459 38.511 10.0534 39.8915V39.8915Z" stroke="#6579F4" stroke-width="3" stroke-linecap="round" stroke-linejoin="round"/>
<path fill-rule="evenodd" clip-rule="evenodd" d="M38.5059 9.67724V9.67724C38.5059 7.80724 40.3511 6.44049 42.1139 7.05649C45.3039 8.17024 48.3014 9.86424 50.9221 12.1082C52.3466 13.3292 52.0936 15.62 50.4684 16.5577L50.4436 16.5715C48.1254 17.908 45.2544 17.9355 42.9691 16.544C42.7244 16.3955 42.4769 16.2497 42.2239 16.1122C39.8946 14.8362 38.5059 12.3337 38.5059 9.67724H38.5059Z" stroke="#6579F4" stroke-width="3" stroke-linecap="round" stroke-linejoin="round"/>
<path fill-rule="evenodd" clip-rule="evenodd" d="M27.4948 56.3228V56.3228C27.4948 58.1928 25.6496 59.5596 23.8868 58.9436C20.6968 57.8298 17.6993 56.1358 15.0786 53.8918C13.6541 52.6708 13.9071 50.3801 15.5323 49.4423V49.4423C17.8643 48.0948 20.7546 48.0728 23.0591 49.4698C23.2956 49.6128 23.5348 49.7531 23.7796 49.8851C26.1061 51.1638 27.4948 53.6663 27.4948 56.3228V56.3228Z" stroke="#6579F4" stroke-width="3" stroke-linecap="round" stroke-linejoin="round"/>
<path fill-rule="evenodd" clip-rule="evenodd" d="M33 24.7507L41.2506 33.0014L33 41.252L24.7494 33.0014L33 24.7507Z" stroke="#6579F4" stroke-width="3" stroke-linecap="round" stroke-linejoin="round"/>
</svg>
