<svg width="58" height="58" viewBox="0 0 58 58" fill="none" xmlns="http://www.w3.org/2000/svg">
<path d="M33.8359 19.3293V9.6586C33.8362 8.86587 34.2251 8.12365 34.8768 7.67219C35.5284 7.22074 36.3599 7.11741 37.1022 7.39566L49.1906 11.9288C50.1349 12.2828 50.7603 13.1857 50.7597 14.1942V50.7591" stroke="#231D36" stroke-width="1.5" stroke-linecap="round" stroke-linejoin="round"/>
<path fill-rule="evenodd" clip-rule="evenodd" d="M22.2313 19.3293H35.7703C37.3726 19.3293 38.6715 20.6282 38.6715 22.2305V50.759H19.3301V22.2305C19.3301 20.6282 20.629 19.3293 22.2313 19.3293Z" stroke="#231D36" stroke-width="1.5" stroke-linecap="round" stroke-linejoin="round"/>
<path d="M26.5822 19.3293V14.494C26.5822 13.1587 25.4998 12.0763 24.1645 12.0763H14.4938C13.1586 12.0763 12.0762 13.1587 12.0762 14.494V26.5823" stroke="#231D36" stroke-width="1.5" stroke-linecap="round" stroke-linejoin="round"/>
<path d="M19.3299 7.24091V12.0763" stroke="#231D36" stroke-width="1.5" stroke-linecap="round" stroke-linejoin="round"/>
<path d="M53.1777 50.7591H4.82422" stroke="#231D36" stroke-width="1.5" stroke-linecap="round" stroke-linejoin="round"/>
<path d="M25.373 33.11H32.6261" stroke="#231D36" stroke-width="1.5" stroke-linecap="round" stroke-linejoin="round"/>
<path d="M25.373 26.5823H32.6261" stroke="#231D36" stroke-width="1.5" stroke-linecap="round" stroke-linejoin="round"/>
<path d="M25.373 39.6378H32.6261" stroke="#231D36" stroke-width="1.5" stroke-linecap="round" stroke-linejoin="round"/>
<path d="M7.24219 50.7591V29C7.24219 27.6648 8.32462 26.5823 9.65986 26.5823H19.3306" stroke="#231D36" stroke-width="1.5" stroke-linecap="round" stroke-linejoin="round"/>
</svg>
