<svg width="58" height="58" viewBox="0 0 58 58" fill="none" xmlns="http://www.w3.org/2000/svg">
<path d="M50.7603 50.7591V12.0763C50.7603 10.7411 49.6779 9.65863 48.3426 9.65863H9.65986C8.32462 9.65863 7.24219 10.7411 7.24219 12.0763V50.7591" stroke="#231D36" stroke-width="1.5" stroke-linecap="round" stroke-linejoin="round"/>
<path d="M32.6261 50.7591V43.506H25.373V50.7591" stroke="#231D36" stroke-width="1.5" stroke-linecap="round" stroke-linejoin="round"/>
<path d="M24.1641 43.506H33.8348" stroke="#231D36" stroke-width="1.5" stroke-linecap="round" stroke-linejoin="round"/>
<path d="M4.82422 50.7591H53.1777" stroke="#231D36" stroke-width="1.5" stroke-linecap="round" stroke-linejoin="round"/>
<path d="M28.9994 26.2801C28.9195 26.2801 28.8428 26.312 28.7865 26.3688C28.7303 26.4255 28.699 26.5024 28.6996 26.5823C28.6996 26.7492 28.8349 26.8845 29.0018 26.8845C29.1687 26.8845 29.304 26.7492 29.304 26.5823C29.3014 26.4156 29.1662 26.2814 28.9994 26.2801" stroke="#231D36" stroke-width="1.5" stroke-linecap="round" stroke-linejoin="round"/>
<path d="M24.1641 33.8354H33.8348" stroke="#231D36" stroke-width="1.5" stroke-linecap="round" stroke-linejoin="round"/>
<path d="M50.7603 24.1646H40.9059L30.0602 17.6587C29.2946 17.1993 28.338 17.1993 27.5724 17.6587L16.7291 24.1646H7.24219" stroke="#231D36" stroke-width="1.5" stroke-linecap="round" stroke-linejoin="round"/>
<path d="M16.7284 24.1647V50.7591" stroke="#231D36" stroke-width="1.5" stroke-linecap="round" stroke-linejoin="round"/>
<path d="M40.9041 50.7591V24.1647" stroke="#231D36" stroke-width="1.5" stroke-linecap="round" stroke-linejoin="round"/>
</svg>
