<svg width="24" height="17" viewBox="0 0 24 17" fill="none" xmlns="http://www.w3.org/2000/svg">
<g clip-path="url(#clip0_11625_50906)">
<path d="M0 0.5H24V16.5H0V0.5Z" fill="white"/>
<path d="M0 0.5H24V1.73041H0V0.5ZM0 2.96082H24V4.19123H0V2.96082ZM0 5.42164H24V6.65205H0V5.42164ZM0 7.88246H24V9.11287H0V7.88246ZM0 10.348H24V11.5784H0V10.348ZM0 12.8088H24V14.0392H0V12.8088ZM0 15.2696H24V16.5H0V15.2696Z" fill="#D80027"/>
<path d="M0 0.5H12V9.11287H0V0.5Z" fill="#2E52B2"/>
<path d="M2.23709 6.99894L2.04995 6.40011L1.84411 6.99894H1.22656L1.72715 7.35917L1.54001 7.958L2.04995 7.58841L2.54586 7.958L2.35405 7.35917L2.86399 6.99894H2.23709ZM4.87101 6.99894L4.67919 6.40011L4.4827 6.99894H3.86516L4.36574 7.35917L4.17861 7.958L4.67919 7.58841L5.18446 7.958L4.99732 7.35917L5.49791 6.99894H4.87101ZM7.51428 6.99894L7.31311 6.40011L7.12598 6.99894H6.4944L7.00902 7.35917L6.81253 7.958L7.31311 7.58841L7.82773 7.958L7.63124 7.35917L8.13183 6.99894H7.51428ZM10.1435 6.99894L9.95639 6.40011L9.7599 6.99894H9.13767L9.64294 7.35917L9.4558 7.958L9.95639 7.58841L10.4617 7.958L10.2605 7.35917L10.7751 6.99894H10.1435ZM4.67919 4.0235L4.4827 4.62233H3.86516L4.36574 4.99192L4.17861 5.5814L4.67919 5.21648L5.18446 5.5814L4.99732 4.99192L5.49791 4.62233H4.87101L4.67919 4.0235ZM2.04995 4.0235L1.84411 4.62233H1.22656L1.72715 4.99192L1.54001 5.5814L2.04995 5.21648L2.54586 5.5814L2.35405 4.99192L2.86399 4.62233H2.23709L2.04995 4.0235ZM7.31311 4.0235L7.12598 4.62233H6.4944L7.00902 4.99192L6.81253 5.5814L7.31311 5.21648L7.82773 5.5814L7.63124 4.99192L8.13183 4.62233H7.51428L7.31311 4.0235ZM9.95639 4.0235L9.7599 4.62233H9.13767L9.64294 4.99192L9.4558 5.5814L9.95639 5.21648L10.4617 5.5814L10.2605 4.99192L10.7751 4.62233H10.1435L9.95639 4.0235ZM2.04995 1.65625L1.84411 2.24572H1.22656L1.72715 2.61531L1.54001 3.20947L2.04995 2.83988L2.54586 3.20947L2.35405 2.61531L2.86399 2.24572H2.23709L2.04995 1.65625ZM4.67919 1.65625L4.4827 2.24572H3.86516L4.36574 2.61531L4.17861 3.20947L4.67919 2.83988L5.18446 3.20947L4.99732 2.61531L5.49791 2.24572H4.87101L4.67919 1.65625ZM7.31311 1.65625L7.12598 2.24572H6.4944L7.00902 2.61531L6.81253 3.20947L7.31311 2.83988L7.82773 3.20947L7.63124 2.61531L8.13183 2.24572H7.51428L7.31311 1.65625ZM9.95639 1.65625L9.7599 2.24572H9.13767L9.64294 2.61531L9.4558 3.20947L9.95639 2.83988L10.4617 3.20947L10.2605 2.61531L10.7751 2.24572H10.1435L9.95639 1.65625Z" fill="white"/>
</g>
<defs>
<clipPath id="clip0_11625_50906">
<rect y="0.5" width="24" height="16" rx="4" fill="white"/>
</clipPath>
</defs>
</svg>
