<svg width="23" height="24" viewBox="0 0 23 24" fill="none" xmlns="http://www.w3.org/2000/svg">
<path d="M11.5 1.9375C5.94316 1.9375 1.4375 6.44316 1.4375 12C1.4375 17.5568 5.94316 22.0625 11.5 22.0625C17.0568 22.0625 21.5625 17.5568 21.5625 12C21.5625 6.44316 17.0568 1.9375 11.5 1.9375ZM15.215 15.8229L13.7326 15.8161L11.5 13.1545L9.26963 15.8139L7.78496 15.8206C7.68613 15.8206 7.60527 15.742 7.60527 15.6409C7.60527 15.5982 7.621 15.5578 7.64795 15.5241L10.5701 12.0427L7.64795 8.56348C7.62081 8.53056 7.60575 8.48934 7.60527 8.44668C7.60527 8.34785 7.68613 8.26699 7.78496 8.26699L9.26963 8.27373L11.5 10.9354L13.7304 8.27598L15.2128 8.26924C15.3116 8.26924 15.3925 8.34785 15.3925 8.44893C15.3925 8.4916 15.3768 8.53203 15.3498 8.56572L12.4321 12.0449L15.3521 15.5264C15.379 15.5601 15.3947 15.6005 15.3947 15.6432C15.3947 15.742 15.3139 15.8229 15.215 15.8229Z" fill="#FF4D4F"/>
</svg>
