<svg width="158" height="51" viewBox="0 0 158 51" fill="none" xmlns="http://www.w3.org/2000/svg">
<g clip-path="url(#clip0_11756_20998)">
<path d="M25 49.75C38.2548 49.75 49 39.0048 49 25.75C49 12.4952 38.2548 1.75 25 1.75C11.7452 1.75 1 12.4952 1 25.75C1 39.0048 11.7452 49.75 25 49.75Z" fill="#EA4C89"/>
<path fill-rule="evenodd" clip-rule="evenodd" d="M25 0.75C11.1985 0.75 0 11.9485 0 25.75C0 39.5515 11.1985 50.75 25 50.75C38.7744 50.75 50 39.5515 50 25.75C50 11.9485 38.7744 0.75 25 0.75ZM41.513 12.2739C44.4957 15.9073 46.2853 20.5439 46.3395 25.5602C45.6345 25.4246 38.5846 23.9875 31.4805 24.8823C31.3178 24.5299 31.1822 24.1502 31.0196 23.7706C30.5857 22.7402 30.0976 21.6828 29.6096 20.6795C37.4729 17.4799 41.0521 12.8704 41.513 12.2739ZM25 4.43763C30.423 4.43763 35.385 6.47125 39.154 9.8064C38.7744 10.3487 35.5477 14.66 27.9555 17.507C24.4577 11.0808 20.5802 5.8205 19.9837 5.00705C21.5835 4.62744 23.2647 4.43763 25 4.43763ZM15.9165 6.44415C16.4859 7.20335 20.282 12.4908 23.834 18.7815C13.8557 21.4387 5.0434 21.3845 4.09436 21.3845C5.4772 14.7685 9.9512 9.2641 15.9165 6.44415ZM3.6334 25.7771C3.6334 25.5602 3.6334 25.3433 3.6334 25.1264C4.55532 25.1535 14.9133 25.2891 25.5694 22.0895C26.1931 23.2826 26.7625 24.5027 27.3048 25.7229C27.0336 25.8043 26.7353 25.8856 26.4642 25.9669C15.4555 29.519 9.5987 39.2262 9.11065 40.0396C5.72125 36.2706 3.6334 31.2543 3.6334 25.7771ZM25 47.1166C20.0651 47.1166 15.5098 45.4355 11.9035 42.6155C12.2831 41.8292 16.6215 33.4777 28.6605 29.275C28.7148 29.2479 28.7418 29.2478 28.7961 29.2207C31.8059 37.0027 33.026 43.5374 33.3514 45.4084C30.7755 46.5201 27.9555 47.1166 25 47.1166ZM36.9035 43.4561C36.6866 42.1545 35.5478 35.9181 32.7549 28.2446C39.4523 27.1871 45.3091 28.9225 46.0412 29.1665C45.1193 35.1046 41.7028 40.2294 36.9035 43.4561Z" fill="#C32361"/>
</g>
<g clip-path="url(#clip1_11756_20998)">
<path fill-rule="evenodd" clip-rule="evenodd" d="M156.825 30.3699C156.527 30.1494 156.292 30.1179 156.097 30.5378C152.759 37.9384 147.136 34.2434 147.699 34.5688C148.949 33.9809 152.226 31.2936 151.734 27.5671C151.438 25.2891 149.533 24.2814 147.505 24.6488C143.972 25.2786 142.681 29.1837 143.337 32.6373C143.449 33.2356 143.654 33.7185 143.869 34.2014C139.885 37.5291 138.298 31.2306 138.113 30.4748C138.103 30.4328 141.196 27.798 142.056 21.5101C142.958 14.9282 140.909 13.721 138.81 13.763C134.929 13.8365 133.884 22.1399 135.287 29.0577C135.174 29.0892 134.621 29.4041 133.741 29.4356C133.106 27.3886 130.392 25.5936 129.685 26.2864C127.913 28.0185 130.115 31.3986 131.672 31.661C130.74 37.5501 124.902 36.0909 125.988 28.7113C127.882 25.1002 129.337 19.715 129.071 16.4713C128.978 15.3271 128.149 13.784 126.275 13.8575C122.67 14.0045 122.28 22.3079 122.7 28.2074C122.68 28.0604 122.475 28.9212 121 29.3516C120.652 27.3676 117.528 25.3626 116.791 26.3284C115.419 28.1234 117.805 31.3251 118.932 31.5456C118 37.4346 112.162 35.9754 113.248 28.5958C115.153 24.9847 116.597 19.6101 116.34 16.3664C116.248 15.2222 115.419 13.679 113.545 13.7525C109.94 13.8995 109.55 22.2029 109.97 28.1024C109.95 27.9555 109.745 28.8478 108.209 29.2676C108.158 26.6853 105.024 25.5096 104.266 26.3284C102.924 27.798 104.573 30.8107 106.099 31.5456C105.167 37.4346 99.3297 35.9754 100.415 28.5958C102.31 24.9847 103.764 19.5996 103.498 16.3559C103.416 15.2222 102.586 13.679 100.712 13.7525C97.1072 13.8995 96.8206 22.6228 97.2404 28.5223C96.0524 33.7395 92.0686 40.2479 92.5907 27.1996C92.642 26.2864 92.6933 25.94 92.2529 25.5936C91.915 25.3311 91.1571 25.4571 90.7473 25.4676C90.2455 25.4886 90.1125 25.793 90.01 26.2444C89.7541 27.4201 89.7028 28.5643 89.6618 30.1284C89.6414 30.8632 89.5799 31.1992 89.3033 32.1964C89.0268 33.1936 87.4702 35.0097 86.6099 34.7053C85.4219 34.2854 85.811 30.8527 86.0363 28.4908C86.2208 26.6223 85.6268 25.793 84.111 25.4886C83.22 25.2996 82.6772 25.3311 81.7555 25.0267C80.8748 24.7433 80.6802 23.0427 78.8163 23.6096C77.7921 23.9245 78.4476 26.1394 78.2018 27.7875C76.9933 35.881 74.4842 36.1014 73.3167 32.1754C78.5602 18.9907 74.8222 13.7945 72.6407 13.7945C70.3672 13.7945 67.7659 15.4006 68.8617 25.688C68.3291 25.5306 68.1653 25.4466 67.5713 25.4466C64.2633 25.4361 62 28.1864 62 31.5771C62 34.9677 64.2633 37.718 67.5815 37.718C69.5376 37.718 70.9099 36.8047 71.9546 35.3981C72.6305 36.3953 73.4601 37.739 74.9758 37.676C79.4819 37.4976 80.7928 28.0185 80.9465 27.4831C81.4278 27.5566 81.8887 27.7035 82.3291 27.777C83.0664 27.8925 83.1279 28.1969 83.1074 28.9527C82.9128 35.3981 84.0701 37.655 86.7022 37.655C88.1666 37.655 89.4775 36.1749 90.3788 35.1252C91.0547 36.5528 92.1196 37.613 93.5639 37.655C97.0458 37.739 98.3875 32.0494 98.2646 32.7947C98.1723 33.3826 99.3911 37.613 102.986 37.634C107.43 37.655 108.26 32.6478 108.352 31.808C108.363 31.64 108.373 31.661 108.352 31.808C108.352 31.8185 108.352 31.8395 108.352 31.8605C109.766 31.5875 110.493 30.8212 110.493 30.8212C110.493 30.8212 111.629 37.718 115.818 37.6445C120.171 37.5605 121 33.0362 121.103 32.1544C121.113 31.9445 121.123 31.9654 121.103 32.1544C121.103 32.1649 121.103 32.1754 121.103 32.1754C122.782 31.5456 123.223 30.9262 123.223 30.9262C123.223 30.9262 124.124 37.6865 128.548 37.7495C132.491 37.8021 133.956 33.6555 133.966 31.9235C134.631 31.934 135.861 31.5141 135.83 31.4931C135.83 31.4931 137.274 37.4031 141.309 37.7075C143.204 37.8544 144.627 36.6158 145.436 36.0489C147.341 37.634 153.68 39.6496 157.685 32.6898C158.258 31.703 157.04 30.5168 156.825 30.3699ZM67.4177 35.4191C65.4821 35.4191 64.2429 33.5821 64.2429 31.6085C64.2429 29.635 65.3796 27.798 67.3153 27.798C68.1858 27.798 68.6671 27.8925 69.3533 28.5013C69.4762 28.9947 69.8244 30.1389 69.9985 30.6638C70.2238 31.3566 70.5003 31.955 70.7666 32.5953C70.3672 34.2539 69.0972 35.4191 67.4177 35.4191ZM72.1287 28.5538C72.0468 28.4174 72.0672 28.5013 71.9751 28.3754C71.6269 27.3886 70.9407 25.1842 70.8588 22.6753C70.7666 19.841 71.2274 16.5133 72.5895 16.5133C73.5113 16.5133 74.4944 23.2527 72.1287 28.5538ZM99.3808 25.6041C99.1658 23.9245 99.1555 16.4189 100.907 16.6288C101.88 17.0277 100.292 24.1029 99.3808 25.6041ZM112.213 25.6041C111.998 23.9245 111.988 16.4189 113.739 16.6288C114.712 17.0277 113.125 24.1029 112.213 25.6041ZM124.943 25.709C124.728 24.0294 124.718 16.5238 126.469 16.7338C127.442 17.1222 125.855 24.2079 124.943 25.709ZM138.994 16.1774C140.602 16.0095 140.531 23.2002 137.315 27.735C136.895 26.0974 136.26 16.7443 138.994 16.1774ZM145.754 31.661C145.242 28.9842 146.573 27.2311 147.945 27.0422C148.427 26.9687 149.123 27.2836 149.256 27.882C149.482 29.0052 149.225 30.6743 146.143 32.7843C146.153 32.7947 145.866 32.2489 145.754 31.661ZM91.28 23.4101C92.3758 23.4101 93.2667 22.4968 93.2667 21.3736C93.2667 20.2504 92.3758 19.3371 91.28 19.3371C90.1842 19.3371 89.293 20.2504 89.293 21.3736C89.293 22.4968 90.1842 23.4101 91.28 23.4101Z" fill="#101018"/>
</g>
<defs>
<clipPath id="clip0_11756_20998">
<rect width="50" height="50" fill="white" transform="translate(0 0.75)"/>
</clipPath>
<clipPath id="clip1_11756_20998">
<rect width="96" height="24" fill="white" transform="translate(62 13.75)"/>
</clipPath>
</defs>
</svg>
