<svg width="1360" height="252" viewBox="0 0 1360 252" fill="none" xmlns="http://www.w3.org/2000/svg">
<path d="M442.966 204.3C438.313 204.3 434.437 202.973 431.335 200.317C428.406 197.486 426.942 193.503 426.942 188.371V85.8871C426.942 80.754 428.406 76.86 431.335 74.205C434.437 71.55 438.313 70.2223 442.966 70.2223C447.617 70.2223 451.493 71.55 454.595 74.205C457.696 76.86 459.248 80.754 459.248 85.8871V188.371C459.248 193.503 457.696 197.486 454.595 200.317C451.493 202.973 447.617 204.3 442.966 204.3ZM442.966 46.5929C437.106 46.5929 432.455 44.9998 429.009 41.8139C425.563 38.4508 423.84 34.1144 423.84 28.8043C423.84 23.4942 425.563 19.2463 429.009 16.0604C432.455 12.8743 437.106 11.2812 442.966 11.2812C448.651 11.2812 453.217 12.8743 456.663 16.0604C460.282 19.2463 462.09 23.4942 462.09 28.8043C462.09 34.1144 460.367 38.4508 456.922 41.8139C453.475 44.9998 448.824 46.5929 442.966 46.5929Z" fill="#413588"/>
<path d="M565.967 69.6924C581.13 69.6924 592.415 74.1174 599.825 82.9674C607.233 91.8174 610.938 105.181 610.938 123.058V188.372C610.938 193.327 609.473 197.221 606.544 200.054C603.788 202.885 599.91 204.302 594.914 204.302C589.917 204.302 585.954 202.885 583.025 200.054C580.096 197.221 578.631 193.327 578.631 188.372V124.917C578.631 114.828 576.736 107.482 572.946 102.88C569.328 98.278 563.556 95.977 555.63 95.977C546.325 95.977 538.83 98.9861 533.145 105.004C527.63 111.022 524.874 119.076 524.874 129.164V188.372C524.874 193.327 523.409 197.221 520.48 200.054C517.551 202.885 513.588 204.302 508.592 204.302C503.595 204.302 499.632 202.885 496.703 200.054C493.946 197.221 492.568 193.327 492.568 188.372V85.6225C492.568 81.0204 494.032 77.3035 496.961 74.4714C499.89 71.6395 503.853 70.2234 508.85 70.2234C513.33 70.2234 516.948 71.6395 519.706 74.4714C522.635 77.1265 524.099 80.6665 524.099 85.0916V92.26C528.406 85.003 534.178 79.4275 541.415 75.5335C548.651 71.6395 556.836 69.6924 565.967 69.6924Z" fill="#413588"/>
<path d="M709.395 179.609C718.01 180.141 722.318 184.123 722.318 191.557C722.318 195.805 720.594 199.081 717.149 201.381C713.875 203.505 709.137 204.389 702.934 204.036L695.955 203.505C667.01 201.381 652.536 185.452 652.536 155.715V97.8357H639.614C634.962 97.8357 631.343 96.7737 628.759 94.6497C626.346 92.5257 625.141 89.4282 625.141 85.3572C625.141 81.2862 626.346 78.1887 628.759 76.0647C631.343 73.9407 634.962 72.8786 639.614 72.8786H652.536V48.4526C652.536 43.6735 654.001 39.8681 656.93 37.0361C659.859 34.204 663.822 32.7881 668.818 32.7881C673.643 32.7881 677.52 34.204 680.449 37.0361C683.378 39.8681 684.842 43.6735 684.842 48.4526V72.8786H706.81C711.463 72.8786 714.995 73.9407 717.407 76.0647C719.992 78.1887 721.284 81.2862 721.284 85.3572C721.284 89.4282 719.992 92.5257 717.407 94.6497C714.995 96.7737 711.463 97.8357 706.81 97.8357H684.842V158.105C684.842 171.203 690.701 178.194 702.418 179.079L709.395 179.609Z" fill="#413588"/>
<path d="M839.175 167.131C842.104 167.131 844.43 168.282 846.154 170.583C848.049 172.884 848.996 175.981 848.996 179.875C848.996 185.362 845.809 189.964 839.433 193.681C833.575 197.044 826.943 199.788 819.533 201.912C812.124 203.859 805.061 204.832 798.34 204.832C778.009 204.832 761.899 198.814 750.01 186.779C738.121 174.742 732.177 158.281 732.177 137.395C732.177 124.12 734.762 112.35 739.931 102.084C745.1 91.8176 752.336 83.8525 761.64 78.1885C771.116 72.5244 781.8 69.6924 793.688 69.6924C805.061 69.6924 814.967 72.259 823.409 77.392C831.853 82.525 838.401 89.782 843.052 99.1631C847.704 108.544 850.03 119.607 850.03 132.351C850.03 139.962 846.757 143.767 840.209 143.767H763.966C765 155.981 768.36 165.007 774.045 170.848C779.732 176.512 788.003 179.344 798.858 179.344C804.371 179.344 809.195 178.636 813.33 177.221C817.638 175.804 822.462 173.857 827.804 171.38C832.972 168.547 836.764 167.131 839.175 167.131ZM794.464 93.0565C785.676 93.0565 778.611 95.8886 773.271 101.553C768.102 107.217 765 115.359 763.966 125.979H822.377C822.032 115.182 819.448 107.04 814.622 101.553C809.798 95.8886 803.079 93.0565 794.464 93.0565Z" fill="#413588"/>
<path d="M947.012 70.2232C951.492 69.8691 955.025 70.8426 957.609 73.1436C960.194 75.4447 961.486 78.8962 961.486 83.4982C961.486 88.2772 960.365 91.8172 958.126 94.1182C955.886 96.4192 951.836 97.9237 945.978 98.6318L938.225 99.4283C928.059 100.49 920.564 104.03 915.74 110.048C911.088 116.066 908.762 123.589 908.762 132.617V188.372C908.762 193.504 907.211 197.487 904.109 200.318C901.009 202.974 897.132 204.301 892.48 204.301C887.827 204.301 883.951 202.974 880.849 200.318C877.92 197.487 876.456 193.504 876.456 188.372V85.6222C876.456 80.6663 877.92 76.8607 880.849 74.2057C883.951 71.5507 887.741 70.2232 892.222 70.2232C896.701 70.2232 900.319 71.5507 903.075 74.2057C905.833 76.6837 907.211 80.3123 907.211 85.0913V95.7113C910.485 87.9232 915.309 81.9052 921.685 77.6572C928.232 73.4092 935.468 71.0196 943.394 70.4887L947.012 70.2232Z" fill="#413588"/>
<path d="M1072.89 167.131C1075.82 167.131 1078.14 168.282 1079.87 170.583C1081.76 172.884 1082.71 175.981 1082.71 179.875C1082.71 185.362 1079.52 189.964 1073.15 193.681C1067.29 197.044 1060.65 199.788 1053.25 201.912C1045.84 203.859 1038.77 204.832 1032.05 204.832C1011.72 204.832 995.611 198.814 983.722 186.779C971.834 174.742 965.89 158.281 965.89 137.395C965.89 124.12 968.474 112.35 973.643 102.084C978.811 91.8176 986.048 83.8525 995.353 78.1885C1004.83 72.5244 1015.51 69.6924 1027.4 69.6924C1038.77 69.6924 1048.68 72.259 1057.12 77.392C1065.56 82.525 1072.11 89.782 1076.76 99.1631C1081.42 108.544 1083.74 119.607 1083.74 132.351C1083.74 139.962 1080.47 143.767 1073.92 143.767H997.679C998.713 155.981 1002.07 165.007 1007.76 170.848C1013.45 176.512 1021.71 179.344 1032.57 179.344C1038.08 179.344 1042.91 178.636 1047.04 177.221C1051.35 175.804 1056.17 173.857 1061.52 171.38C1066.69 168.547 1070.48 167.131 1072.89 167.131ZM1028.18 93.0565C1019.39 93.0565 1012.32 95.8886 1006.98 101.553C1001.81 107.217 998.713 115.359 997.679 125.979H1056.09C1055.74 115.182 1053.16 107.04 1048.34 101.553C1043.51 95.8886 1036.79 93.0565 1028.18 93.0565Z" fill="#413588"/>
<path d="M1217.23 178.281C1220.33 181.468 1221.88 185.096 1221.88 189.166C1221.88 193.06 1220.42 196.601 1217.49 199.787C1214.56 202.797 1211.11 204.301 1207.15 204.301C1202.84 204.301 1199.14 202.442 1196.04 198.724L1159.6 157.307L1123.16 198.724C1119.88 202.265 1116.18 204.035 1112.04 204.035C1108.25 204.035 1104.89 202.531 1101.96 199.521C1099.03 196.513 1097.57 193.06 1097.57 189.166C1097.57 185.096 1099.12 181.468 1102.22 178.281L1139.95 136.067L1104.29 96.2417C1101.19 93.0558 1099.64 89.4273 1099.64 85.3563C1099.64 81.2853 1101.1 77.8338 1104.03 75.0017C1106.96 71.9927 1110.32 70.4883 1114.11 70.4883C1118.24 70.4883 1121.95 72.2583 1125.22 75.7982L1159.6 114.561L1193.97 75.7982C1197.24 72.2583 1200.95 70.4883 1205.08 70.4883C1209.05 70.4883 1212.41 71.9927 1215.16 75.0017C1218.09 77.8338 1219.56 81.2853 1219.56 85.3563C1219.56 89.4273 1218.01 93.0558 1214.9 96.2417L1179.24 136.067L1217.23 178.281Z" fill="#413588"/>
<path d="M1331.31 79.7807C1332.69 76.5947 1334.5 74.2936 1336.74 72.8777C1339.15 71.2847 1341.74 70.4882 1344.49 70.4882C1348.45 70.4882 1351.99 71.9042 1355.09 74.7362C1358.37 77.3913 1360 80.7542 1360 84.8252C1360 86.7722 1359.49 88.8078 1358.45 90.9318L1287.89 242.798C1284.96 248.816 1280.4 251.825 1274.19 251.825C1270.23 251.825 1266.7 250.498 1263.6 247.842C1260.67 245.364 1259.2 242.178 1259.2 238.284C1259.2 236.337 1259.72 234.125 1260.76 231.648L1278.33 193.68L1230.26 90.9318C1229.4 89.1618 1228.97 87.1262 1228.97 84.8252C1228.97 80.7542 1230.6 77.3027 1233.88 74.4707C1237.32 71.6388 1241.2 70.2227 1245.51 70.2227C1248.44 70.2227 1251.11 71.0191 1253.52 72.6123C1255.93 74.0282 1257.83 76.3292 1259.2 79.5153L1295.39 161.555L1331.31 79.7807Z" fill="#413588"/>
<path d="M217.101 122.038C217.101 92.512 183.981 79.5792 183.981 79.5792C183.981 79.5792 202.733 64.9381 241.698 80.799C280.664 96.66 285.534 125.942 285.534 125.942C285.534 125.942 285.29 155.469 251.196 164.741C217.101 174.014 190.313 162.545 190.313 162.545C190.313 162.545 217.101 151.564 217.101 122.038Z" fill="url(#paint0_linear_8_765)"/>
<path d="M221.972 72.9907C221.972 72.9907 242.916 85.6796 246.082 109.593C249.248 133.507 235.854 145.464 235.854 145.464" stroke="url(#paint1_linear_8_765)" stroke-width="2.5" stroke-linecap="round"/>
<path d="M5.24311 216.718H81.3434C82.4613 216.718 83.4805 216.117 84.0143 215.133C88.1734 207.474 107.048 173.242 130.648 138.632C153.54 107.153 170.343 75.4313 208.091 75.4313C265.321 75.4313 285.534 126.431 285.534 126.431C285.534 126.431 289.187 91.7798 276.037 63.9622C262.885 36.1444 211.257 -3.47702 155.488 20.283C99.588 44.0989 17.8332 185.292 2.60507 212.265C1.47001 214.276 2.93778 216.718 5.24311 216.718Z" fill="url(#paint2_linear_8_765)"/>
<path d="M5.24311 216.718H81.3434C82.4613 216.718 83.4805 216.117 84.0143 215.133C88.1734 207.474 107.048 173.242 130.648 138.632C153.54 107.153 170.343 75.4313 208.091 75.4313C265.321 75.4313 285.534 126.431 285.534 126.431C285.534 126.431 289.187 91.7798 276.037 63.9622C262.885 36.1444 211.257 -3.47702 155.488 20.283C99.588 44.0989 17.8332 185.292 2.60507 212.265C1.47001 214.276 2.93778 216.718 5.24311 216.718Z" fill="url(#paint3_linear_8_765)" fill-opacity="0.2"/>
<path d="M52.4744 197.928C52.4744 197.928 75.3664 156.201 92.6573 129.603C109.948 103.005 145.26 48.8328 187.391 42.7323C220.544 37.9318 242.429 52.7371 253.145 62.4977C264.458 72.8031 272.14 91.5362 272.14 91.5362" stroke="url(#paint4_linear_8_765)" stroke-width="2.5" stroke-linecap="round"/>
<path d="M242.916 165.211C280.664 157.514 285.534 126.009 285.534 126.009C285.534 126.009 278.228 176.514 252.657 197.918C227.086 219.322 191.044 223.891 160.115 205.614C129.187 187.336 94.1183 148.857 79.9934 131.06C67.6366 115.49 41.8597 75.8087 35.6009 66.1197C34.8192 64.9095 35.1225 63.2999 36.2885 62.4555C37.2293 61.7742 38.4706 61.7494 39.4158 62.4247C47.6867 68.3333 86.812 96.3326 103.859 109.415C122.977 124.085 143.068 137.313 155.975 144.528C168.882 151.742 205.169 172.906 242.916 165.211Z" fill="url(#paint5_linear_8_765)"/>
<path d="M35.6707 61.3159C35.6707 61.3159 88.5812 118.399 104.917 133.858C121.254 149.319 150.269 178.811 182.454 187.612C214.639 196.412 237.315 185.947 237.315 185.947" stroke="url(#paint6_linear_8_765)" stroke-width="2.5" stroke-linecap="round"/>
<path d="M16.4316 51.0295C25.443 51.0295 32.7482 43.7097 32.7482 34.6803C32.7482 25.6508 25.443 18.3311 16.4316 18.3311C7.42018 18.3311 0.11499 25.6508 0.11499 34.6803C0.11499 43.7097 7.42018 51.0295 16.4316 51.0295Z" fill="url(#paint7_radial_8_765)"/>
<defs>
<linearGradient id="paint0_linear_8_765" x1="234.879" y1="60.3015" x2="264.701" y2="175.205" gradientUnits="userSpaceOnUse">
<stop offset="0.333333" stop-color="#432D78"/>
<stop offset="0.578125" stop-color="#66638E"/>
<stop offset="0.744792" stop-color="#8EA1A6"/>
<stop offset="1" stop-color="#BBFFBB"/>
</linearGradient>
<linearGradient id="paint1_linear_8_765" x1="241.699" y1="145.708" x2="234.467" y2="84.3424" gradientUnits="userSpaceOnUse">
<stop stop-color="#AD95E0" stop-opacity="0"/>
<stop offset="1" stop-color="#8059D2"/>
</linearGradient>
<linearGradient id="paint2_linear_8_765" x1="43.4636" y1="102.761" x2="297.468" y2="97.4142" gradientUnits="userSpaceOnUse">
<stop offset="0.0975669" stop-color="#583E88"/>
<stop offset="0.375" stop-color="#6F4FAA"/>
<stop offset="0.661458" stop-color="#A27CE8"/>
<stop offset="0.833333" stop-color="#86A6CB"/>
<stop offset="1" stop-color="#4BEB30"/>
</linearGradient>
<linearGradient id="paint3_linear_8_765" x1="57.3449" y1="177.675" x2="136.55" y2="140.462" gradientUnits="userSpaceOnUse">
<stop stop-color="#413588" stop-opacity="0"/>
<stop offset="0.385417" stop-color="#120F26"/>
<stop offset="0.536784"/>
<stop offset="1" stop-color="#413588" stop-opacity="0"/>
</linearGradient>
<linearGradient id="paint4_linear_8_765" x1="44.1943" y1="197.928" x2="269.673" y2="72.8848" gradientUnits="userSpaceOnUse">
<stop stop-color="#946CE8" stop-opacity="0"/>
<stop offset="0.58438" stop-color="#9F7EE7"/>
<stop offset="1" stop-color="#E6DAFF" stop-opacity="0"/>
</linearGradient>
<linearGradient id="paint5_linear_8_765" x1="281.394" y1="147.895" x2="30.927" y2="64.992" gradientUnits="userSpaceOnUse">
<stop stop-color="#593F89"/>
<stop offset="0.327559" stop-color="#CD56C1"/>
<stop offset="1" stop-color="#F18281"/>
</linearGradient>
<linearGradient id="paint6_linear_8_765" x1="208.441" y1="200.911" x2="52.7737" y2="75.2325" gradientUnits="userSpaceOnUse">
<stop stop-color="#BE8CF1" stop-opacity="0"/>
<stop offset="1" stop-color="#FFBDC5"/>
</linearGradient>
<radialGradient id="paint7_radial_8_765" cx="0" cy="0" r="1" gradientUnits="userSpaceOnUse" gradientTransform="translate(16.1881 27.8478) rotate(90) scale(20.2535 25.4862)">
<stop stop-color="#8967C7"/>
<stop offset="1" stop-color="#413588"/>
</radialGradient>
</defs>
</svg>
