<svg width="102" height="81" viewBox="0 0 102 81" fill="none" xmlns="http://www.w3.org/2000/svg">

							<path d="M68.7133 43.1206C64.7506 41.3735 61.6597 38.7529 59.4406 35.2588C57.2214 31.7647 56.1119 27.6353 56.1119 22.8706C56.1119 16.0412 58.2517 10.4824 62.5315 6.19412C66.8112 2.06471 72.2797 5.03116e-06 78.9371 5.61317e-06C85.5944 6.19517e-06 91.1422 2.14412 95.5804 6.43236C99.8601 10.7206 102 16.2 102 22.8706C102 26.0471 101.604 29.2235 100.811 32.4C100.019 35.5765 98.2751 40.3412 95.5804 46.6941L81.7902 81L58.2517 81L68.7133 43.1206ZM12.6014 43.1206C8.63869 41.3735 5.54778 38.7529 3.32866 35.2588C1.10955 31.7647 -2.9641e-06 27.6353 -2.54756e-06 22.8706C-1.95051e-06 16.0412 2.13985 10.4824 6.41958 6.19411C10.6993 2.0647 16.1678 1.25708e-07 22.8252 7.07711e-07C29.4825 1.28971e-06 35.0303 2.14411 39.4685 6.43235C43.7483 10.7206 45.8881 16.2 45.8881 22.8706C45.8881 26.0471 45.4918 29.2235 44.6993 32.4C43.9068 35.5765 42.1632 40.3412 39.4685 46.6941L25.6783 81L2.13985 81L12.6014 43.1206Z" fill="#F0F2FE">
</path>

						</svg>