<?xml version="1.0" encoding="UTF-8"?>
<svg xmlns="http://www.w3.org/2000/svg" width="61" height="60" viewBox="0 0 61 60" fill="none">
  <path fill-rule="evenodd" clip-rule="evenodd" d="M30.7281 45.5615H30.2729C28.2831 45.562 26.375 46.3528 24.9682 47.76L24.1854 48.5428C23.2469 49.4815 21.9738 50.0088 20.6464 50.0084H17.9953C13.8515 50.0084 10.4922 46.6491 10.4922 42.5053V35.0021C10.4922 30.8583 13.8515 27.499 17.9953 27.499H43.0057C47.1496 27.499 50.5089 30.8583 50.5089 35.0021V42.5053C50.5089 46.6491 47.1496 50.0084 43.0057 50.0084H40.3546C39.0272 50.0088 37.7541 49.4815 36.8157 48.5428L36.0328 47.76C34.626 46.3528 32.7179 45.562 30.7281 45.5615Z" stroke="#6579F4" stroke-width="2.5" stroke-linecap="round" stroke-linejoin="round"></path>
  <path d="M22.2109 10.9247C24.4086 8.72542 27.3903 7.48975 30.4994 7.48975C33.6085 7.48975 36.5902 8.72542 38.7878 10.9247" stroke="#6579F4" stroke-width="2.5" stroke-linecap="round" stroke-linejoin="round"></path>
  <path d="M26.3555 17.495C28.6446 15.2071 32.3548 15.2071 34.6439 17.495" stroke="#6579F4" stroke-width="2.5" stroke-linecap="round" stroke-linejoin="round"></path>
  <path d="M25.0039 33.7515H35.9985" stroke="#6579F4" stroke-width="2.5" stroke-linecap="round" stroke-linejoin="round"></path>
</svg>
