<?xml version="1.0" encoding="UTF-8"?>
<svg xmlns="http://www.w3.org/2000/svg" width="60" height="60" viewBox="0 0 60 60" fill="none">
  <path d="M17.4964 23.7474V50.0084C11.4663 48.6628 7.49219 46.3719 7.49219 43.7708C7.49219 39.6265 17.5689 36.2676 30.0016 36.2676C42.4342 36.2676 52.5109 39.6265 52.5109 43.7708C52.5109 46.3719 48.5368 48.6628 42.5068 50.0084V23.7324C48.5368 22.3869 52.5109 20.0959 52.5109 17.4948C52.5109 13.3506 42.4342 9.9917 30.0016 9.9917C17.5689 9.9917 7.49219 13.3506 7.49219 17.4948C7.49219 20.0959 11.4663 22.3869 17.4964 23.7324" stroke="#6579F4" stroke-width="2.5" stroke-linecap="round" stroke-linejoin="round"></path>
  <path fill-rule="evenodd" clip-rule="evenodd" d="M23.875 23.6873C23.8752 23.2361 23.9796 22.791 24.1801 22.3868V22.3868C25.3377 20.2517 27.5714 18.9219 30.0001 18.9219C32.4287 18.9219 34.6624 20.2517 35.82 22.3868V22.3868C36.2269 23.2061 36.2269 24.1686 35.82 24.9879V24.9879C34.6624 27.1229 32.4287 28.4528 30.0001 28.4528C27.5714 28.4528 25.3377 27.1229 24.1801 24.9879V24.9879C23.9793 24.5837 23.875 24.1386 23.875 23.6873V23.6873Z" stroke="#6579F4" stroke-width="2.5" stroke-linecap="round" stroke-linejoin="round"></path>
  <path d="M52.5083 17.4949V43.7708" stroke="#6579F4" stroke-width="2.5" stroke-linecap="round" stroke-linejoin="round"></path>
  <path d="M7.49271 17.4949V43.7708" stroke="#6579F4" stroke-width="2.5" stroke-linecap="round" stroke-linejoin="round"></path>
  <path d="M30.0005 23.5625C29.9315 23.5625 29.8755 23.6185 29.8755 23.6875C29.8755 23.7566 29.9315 23.8126 30.0005 23.8126C30.0696 23.8126 30.1256 23.7566 30.1256 23.6875C30.1256 23.6185 30.0696 23.5625 30.0005 23.5625" stroke="#6579F4" stroke-width="2.5" stroke-linecap="round" stroke-linejoin="round"></path>
</svg>
