<?xml version="1.0" encoding="UTF-8"?>
<svg xmlns="http://www.w3.org/2000/svg" width="58" height="58" viewBox="0 0 58 58" fill="none">
  <path d="M4.83203 45.9167C4.83203 40.6 9.18203 36.25 14.4987 36.25H24.1654C29.482 36.25 33.832 40.6 33.832 45.9167" stroke="#231D36" stroke-width="2" stroke-linecap="round" stroke-linejoin="round"></path>
  <path d="M25.373 14.5C28.7563 17.8833 28.7563 23.2 25.373 26.3416C21.9897 29.4833 16.673 29.725 13.5313 26.3416C10.3897 22.9583 10.148 17.8833 13.2897 14.5C16.4313 11.1166 21.9897 11.3583 25.373 14.5" stroke="#231D36" stroke-width="2" stroke-linecap="round" stroke-linejoin="round"></path>
  <path d="M38.6641 33.8333H45.9141C50.0224 33.8333 53.1641 36.9749 53.1641 41.0833" stroke="#231D36" stroke-width="2" stroke-linecap="round" stroke-linejoin="round"></path>
  <path d="M46.6384 16.1917C49.0551 18.6083 49.0551 22.475 46.6384 24.65C44.2218 26.825 40.3551 27.0667 38.1801 24.65C36.0051 22.2333 35.7634 18.3667 38.1801 16.1917C40.3551 14.0167 44.2218 14.0167 46.6384 16.1917" stroke="#231D36" stroke-width="2" stroke-linecap="round" stroke-linejoin="round"></path>
</svg>
