<svg width="58" height="59" viewBox="0 0 58 59" fill="none" xmlns="http://www.w3.org/2000/svg">
<path fill-rule="evenodd" clip-rule="evenodd" d="M37.1562 38.9211H11.1771C9.00692 38.9211 7.25 37.1641 7.25 34.994V11.4315C7.25 9.26131 9.00692 7.50439 11.1771 7.50439H37.1562C39.3264 7.50439 41.0833 9.26131 41.0833 11.4315V34.994C41.0833 37.1641 39.3264 38.9211 37.1562 38.9211Z" stroke="#231D36" stroke-width="2" stroke-linecap="round" stroke-linejoin="round"/>
<path d="M26.582 29.2545H31.4154" stroke="#231D36" stroke-width="2" stroke-linecap="round" stroke-linejoin="round"/>
<path d="M16.918 17.1711L21.7513 22.0045L16.918 26.8378" stroke="#231D36" stroke-width="2" stroke-linecap="round" stroke-linejoin="round"/>
<path d="M41.0833 19.5876H46.8229C48.9931 19.5876 50.75 21.3446 50.75 23.5147V47.0772C50.75 49.2474 48.9931 51.0043 46.8229 51.0043H18.4271C16.2569 51.0043 14.5 49.2474 14.5 47.0772V38.921" stroke="#231D36" stroke-width="2" stroke-linecap="round" stroke-linejoin="round"/>
</svg>
