<?xml version="1.0" encoding="UTF-8"?>
<svg xmlns="http://www.w3.org/2000/svg" width="60" height="60" viewBox="0 0 60 60" fill="none">
  <path d="M11.2677 35.6423C10.016 37.2336 9.69835 39.3678 10.4323 41.2547C12.4332 44.7086 20.7491 43.7557 29.998 39.3664" stroke="#6579F4" stroke-width="2.5" stroke-linecap="round" stroke-linejoin="round"></path>
  <path d="M48.7342 24.3578C49.9844 22.7659 50.302 20.6325 49.5696 18.7454C47.5687 15.2915 39.2528 16.2444 30.0039 20.6337" stroke="#6579F4" stroke-width="2.5" stroke-linecap="round" stroke-linejoin="round"></path>
  <path d="M38.1418 34.6819C37.3465 44.8661 34.0026 52.5093 30.0009 52.5093C28.3577 52.5093 26.8296 51.2038 25.5391 48.9803" stroke="#6579F4" stroke-width="2.5" stroke-linecap="round" stroke-linejoin="round"></path>
  <path d="M15.7307 16.6594C13.7212 16.3756 11.7101 17.1675 10.4335 18.7453C8.43271 22.1992 13.4073 28.9045 21.8608 34.6819" stroke="#6579F4" stroke-width="2.5" stroke-linecap="round" stroke-linejoin="round"></path>
  <path d="M44.2707 43.3406C46.2803 43.6245 48.2914 42.8326 49.5679 41.2548C51.5687 37.8008 46.5941 31.0955 38.1406 25.3181" stroke="#6579F4" stroke-width="2.5" stroke-linecap="round" stroke-linejoin="round"></path>
  <path d="M21.8594 25.3181C22.6547 15.1339 25.9986 7.49072 30.0003 7.49072C31.6435 7.49072 33.1716 8.79627 34.4621 11.0197" stroke="#6579F4" stroke-width="2.5" stroke-linecap="round" stroke-linejoin="round"></path>
</svg>
