<svg width="66" height="66" viewBox="0 0 66 66" fill="none" xmlns="http://www.w3.org/2000/svg">
<path fill-rule="evenodd" clip-rule="evenodd" d="M35.7517 16.4934H8.24023V12.0915L21.996 5.48877L35.7517 12.0915V16.4934Z" stroke="#6579F4" stroke-width="3" stroke-linecap="round" stroke-linejoin="round"/>
<path d="M8.24023 33.0001H27.4983" stroke="#6579F4" stroke-width="3" stroke-linecap="round" stroke-linejoin="round"/>
<path d="M8.24023 33.0001H27.4983" stroke="#6579F4" stroke-width="3" stroke-linecap="round" stroke-linejoin="round"/>
<path fill-rule="evenodd" clip-rule="evenodd" d="M37.127 56.3847V55.2677C37.136 52.0898 39.71 49.5159 42.8879 49.5068H51.9996C55.1775 49.5159 57.7515 52.0898 57.7605 55.2677V56.3847C57.7605 57.1444 57.1447 57.7603 56.385 57.7603H38.5025C37.7428 57.7603 37.127 57.1444 37.127 56.3847Z" stroke="#6579F4" stroke-width="3" stroke-linecap="round" stroke-linejoin="round"/>
<path fill-rule="evenodd" clip-rule="evenodd" d="M41.9414 37.1048C41.9536 34.0689 44.4224 31.6165 47.4584 31.6245C50.4944 31.6326 52.9501 34.0982 52.946 37.1341C52.942 40.1701 50.4797 42.6291 47.4438 42.6291C45.9807 42.6291 44.5778 42.0464 43.5453 41.0098C42.5128 39.9731 41.9356 38.5679 41.9414 37.1048V37.1048Z" stroke="#6579F4" stroke-width="3" stroke-linecap="round" stroke-linejoin="round"/>
<path d="M10.9908 33V16.4932" stroke="#6579F4" stroke-width="3" stroke-linecap="round" stroke-linejoin="round"/>
<path d="M19.2447 33V16.4932" stroke="#6579F4" stroke-width="3" stroke-linecap="round" stroke-linejoin="round"/>
<path d="M27.4986 33V16.4932" stroke="#6579F4" stroke-width="3" stroke-linecap="round" stroke-linejoin="round"/>
<path d="M21.996 57.7606H12.9557C10.352 57.7591 8.24175 55.6488 8.24023 53.0451V44.0049" stroke="#6579F4" stroke-width="3" stroke-linecap="round" stroke-linejoin="round"/>
<path d="M44.0039 10.9907H53.0442C55.6478 10.9922 57.7581 13.1025 57.7596 15.7062V24.7465" stroke="#6579F4" stroke-width="3" stroke-linecap="round" stroke-linejoin="round"/>
</svg>
