<svg width="58" height="58" viewBox="0 0 58 58" fill="none" xmlns="http://www.w3.org/2000/svg">
<path d="M12.084 38.6666H14.5007" stroke="#231D36" stroke-width="1.7" stroke-linecap="round" stroke-linejoin="round"/>
<path d="M43.5 19.3333H45.9167" stroke="#231D36" stroke-width="1.7" stroke-linecap="round" stroke-linejoin="round"/>
<path fill-rule="evenodd" clip-rule="evenodd" d="M48.334 45.9166H9.66732C6.9969 45.9166 4.83398 43.7537 4.83398 41.0833V16.9166C4.83398 14.2462 6.9969 12.0833 9.66732 12.0833H48.334C51.0044 12.0833 53.1673 14.2462 53.1673 16.9166V41.0833C53.1673 43.7537 51.0044 45.9166 48.334 45.9166Z" stroke="#231D36" stroke-width="1.7" stroke-linecap="round" stroke-linejoin="round"/>
<path fill-rule="evenodd" clip-rule="evenodd" d="M32.2462 35.3438H26.903C25.7261 35.3438 24.7715 34.3892 24.7715 33.2123V29.0967H32.2462C33.9572 29.0967 35.3444 30.4838 35.3444 32.1948V32.2432C35.3444 33.9566 33.9572 35.3438 32.2462 35.3438Z" stroke="#231D36" stroke-width="1.7" stroke-linecap="round" stroke-linejoin="round"/>
<path fill-rule="evenodd" clip-rule="evenodd" d="M31.4947 29.0967H24.7715V24.8192C24.7715 23.6229 25.7406 22.6562 26.9344 22.6562H31.4922C33.2298 22.6562 34.6387 24.0652 34.6387 25.8027V25.9502C34.6412 27.6877 33.2322 29.0967 31.4947 29.0967V29.0967Z" stroke="#231D36" stroke-width="1.7" stroke-linecap="round" stroke-linejoin="round"/>
<path d="M28.9993 20.5417V22.6683" stroke="#231D36" stroke-width="1.7" stroke-linecap="round" stroke-linejoin="round"/>
<path d="M28.9993 37.4583V35.3316" stroke="#231D36" stroke-width="1.7" stroke-linecap="round" stroke-linejoin="round"/>
<path d="M28.9996 22.6684H22.668" stroke="#231D36" stroke-width="1.7" stroke-linecap="round" stroke-linejoin="round"/>
<path d="M28.9996 35.3317H22.668" stroke="#231D36" stroke-width="1.7" stroke-linecap="round" stroke-linejoin="round"/>
</svg>
