<svg width="58" height="58" viewBox="0 0 58 58" fill="none" xmlns="http://www.w3.org/2000/svg">
<path d="M7.25 25.2107V19.7611C7.25 18.0042 8.20217 16.3874 9.73675 15.5343L14.5 12.8881" stroke="#231D36" stroke-width="1.7" stroke-linecap="round" stroke-linejoin="round"/>
<path d="M36.25 49.1381L31.3466 51.8617C29.8869 52.6737 28.1107 52.6737 26.651 51.8617L21.75 49.1381" stroke="#231D36" stroke-width="1.7" stroke-linecap="round" stroke-linejoin="round"/>
<path d="M21.1621 27.6346V25.6698C21.1621 25.0367 21.5053 24.4543 22.0587 24.1473L26.3869 21.7428" stroke="#231D36" stroke-width="1.7" stroke-linecap="round" stroke-linejoin="round"/>
<path d="M31.6126 36.2573L29.8461 37.2384C29.3192 37.5308 28.6788 37.5308 28.1544 37.2384L23.7754 34.8048" stroke="#231D36" stroke-width="1.7" stroke-linecap="round" stroke-linejoin="round"/>
<path d="M36.8381 27.6346V32.3302C36.8381 32.9633 36.4949 33.5458 35.9415 33.8527L31.6133 36.2573" stroke="#231D36" stroke-width="1.7" stroke-linecap="round" stroke-linejoin="round"/>
<path d="M36.8381 27.6346V25.6698C36.8381 25.0367 36.4949 24.4543 35.9415 24.1473L31.6133 21.7428" stroke="#231D36" stroke-width="1.7" stroke-linecap="round" stroke-linejoin="round"/>
<path d="M26.3867 21.7428L28.1533 20.7616C28.6801 20.4692 29.3206 20.4692 29.845 20.7616L31.6116 21.7428" stroke="#231D36" stroke-width="1.7" stroke-linecap="round" stroke-linejoin="round"/>
<path d="M21.1621 27.6346V32.3302C21.1621 32.9633 21.5053 33.5458 22.0587 33.8527L23.7745 34.8073" stroke="#231D36" stroke-width="1.7" stroke-linecap="round" stroke-linejoin="round"/>
<path d="M50.75 32.7893V38.2389C50.75 39.9934 49.7978 41.6126 48.2633 42.4633L43.5 45.1119" stroke="#231D36" stroke-width="1.7" stroke-linecap="round" stroke-linejoin="round"/>
<path d="M50.75 25.2107V19.7611C50.75 18.0066 49.7978 16.3874 48.2633 15.5368L43.5 12.8881" stroke="#231D36" stroke-width="1.7" stroke-linecap="round" stroke-linejoin="round"/>
<path d="M21.75 8.86192L26.6534 6.13834C28.1131 5.32634 29.8893 5.32634 31.349 6.13834L36.25 8.86192" stroke="#231D36" stroke-width="1.7" stroke-linecap="round" stroke-linejoin="round"/>
<path d="M7.25 32.7893V38.2389C7.25 39.9934 8.20217 41.6126 9.73675 42.4633L14.5 45.1119" stroke="#231D36" stroke-width="1.7" stroke-linecap="round" stroke-linejoin="round"/>
<path d="M50.75 25.2107V19.7611C50.75 18.0066 49.7978 16.3874 48.2633 15.5368L43.5 12.8881" stroke="#231D36" stroke-width="1.7" stroke-linecap="round" stroke-linejoin="round"/>
<path d="M7.25 32.7893V38.2389C7.25 39.9934 8.20217 41.6126 9.73675 42.4632L14.5 45.1119" stroke="#231D36" stroke-width="1.7" stroke-linecap="round" stroke-linejoin="round"/>
</svg>
