<svg width="58" height="58" viewBox="0 0 58 58" fill="none" xmlns="http://www.w3.org/2000/svg">
<path d="M33.546 29.4835L34.5856 28.4439C35.4525 30.4813 35.1361 32.8295 33.7609 34.5647C32.3856 36.2999 30.1717 37.1443 27.9902 36.7656" stroke="#231D36" stroke-width="1.7" stroke-linecap="round" stroke-linejoin="round"/>
<path fill-rule="evenodd" clip-rule="evenodd" d="M44.5068 15.4949L37.6697 8.65769C36.7631 7.75083 35.5334 7.24094 34.2511 7.24094H16.9115C14.241 7.24094 12.0762 9.40579 12.0762 12.0763V45.9237C12.0762 48.5942 14.241 50.7591 16.9115 50.7591H41.0883C43.7587 50.7591 45.9236 48.5942 45.9236 45.9237V18.9135C45.9236 17.6312 45.4137 16.4015 44.5068 15.4949Z" stroke="#231D36" stroke-width="1.7" stroke-linecap="round" stroke-linejoin="round"/>
<path d="M24.4549 32.143L23.4153 33.1826C22.5226 31.0871 22.8837 28.6677 24.3493 26.9243C25.815 25.1808 28.1363 24.4093 30.354 24.9286" stroke="#231D36" stroke-width="1.7" stroke-linecap="round" stroke-linejoin="round"/>
</svg>
