<svg width="66" height="66" viewBox="0 0 66 66" fill="none" xmlns="http://www.w3.org/2000/svg">
<path d="M38.5703 46.5054V52.9376C38.57 54.3439 39.3647 55.6296 40.6227 56.2582L42.0588 56.9762C44.1493 58.021 46.6095 58.021 48.7 56.9762L50.1361 56.2582C51.3941 55.6296 52.1888 54.3439 52.1885 52.9376V46.5054" stroke="#6579F4" stroke-width="3" stroke-linecap="round" stroke-linejoin="round"/>
<path fill-rule="evenodd" clip-rule="evenodd" d="M34.1363 44.324L42.6291 48.5663C44.3666 49.433 46.4104 49.433 48.1479 48.5663L56.6324 44.324C57.3298 43.9763 57.7705 43.2641 57.7705 42.4849C57.7705 41.7056 57.3298 40.9934 56.6324 40.6457L48.1314 36.4034C46.3945 35.5341 44.3495 35.5341 42.6126 36.4034L34.1281 40.6457C33.4315 40.995 32.9924 41.7082 32.9941 42.4874C32.9959 43.2666 33.4382 43.9778 34.1363 44.324Z" stroke="#6579F4" stroke-width="3" stroke-linecap="round" stroke-linejoin="round"/>
<path d="M57.7603 42.4834V47.4355" stroke="#6579F4" stroke-width="3" stroke-linecap="round" stroke-linejoin="round"/>
<path d="M52.2586 30.2489V13.742C52.2586 10.7032 49.7951 8.23975 46.7563 8.23975H13.7425C10.7037 8.23975 8.24023 10.7032 8.24023 13.742V49.5069" stroke="#6579F4" stroke-width="3" stroke-linecap="round" stroke-linejoin="round"/>
<path d="M19.2447 8.23975V44.0046" stroke="#6579F4" stroke-width="3" stroke-linecap="round" stroke-linejoin="round"/>
<path d="M24.7471 44.0049H13.7425C10.7037 44.0049 8.24023 46.4683 8.24023 49.5072V49.5072C8.24023 52.546 10.7037 55.0095 13.7425 55.0095H30.2494" stroke="#6579F4" stroke-width="3" stroke-linecap="round" stroke-linejoin="round"/>
</svg>
