<svg width="58" height="58" viewBox="0 0 58 58" fill="none" xmlns="http://www.w3.org/2000/svg">
<path fill-rule="evenodd" clip-rule="evenodd" d="M44.5368 41.0833H13.4633C10.0316 41.0833 7.25 38.3017 7.25 34.8701V13.4632C7.25 10.0316 10.0316 7.25 13.4633 7.25H44.5343C47.9684 7.25 50.75 10.0316 50.75 13.4632V34.8677C50.75 38.3017 47.9684 41.0833 44.5368 41.0833Z" stroke="#231D36" stroke-width="1.7" stroke-linecap="round" stroke-linejoin="round"/>
<path d="M33.8327 41.0833L35.041 50.75" stroke="#231D36" stroke-width="1.7" stroke-linecap="round" stroke-linejoin="round"/>
<path d="M24.166 41.0833L22.9577 50.75" stroke="#231D36" stroke-width="1.7" stroke-linecap="round" stroke-linejoin="round"/>
<path d="M19.6719 50.75H38.3285" stroke="#231D36" stroke-width="1.7" stroke-linecap="round" stroke-linejoin="round"/>
<path fill-rule="evenodd" clip-rule="evenodd" d="M31.7182 30.4766H24.3184V24.1304H31.7182C33.4703 24.1304 34.8913 25.5514 34.8913 27.3035V27.3035C34.8913 29.058 33.4703 30.4766 31.7182 30.4766V30.4766Z" stroke="#231D36" stroke-width="1.7" stroke-linecap="round" stroke-linejoin="round"/>
<path d="M24.3164 24.1304V17.5885H30.9163C32.724 17.5885 34.1885 19.053 34.1885 20.8607V20.8607C34.1885 22.6683 32.724 24.1328 30.9163 24.1328" stroke="#231D36" stroke-width="1.7" stroke-linecap="round" stroke-linejoin="round"/>
<path d="M28.4486 15.7083V17.5837" stroke="#231D36" stroke-width="1.7" stroke-linecap="round" stroke-linejoin="round"/>
<path d="M28.4486 32.625V30.5104" stroke="#231D36" stroke-width="1.7" stroke-linecap="round" stroke-linejoin="round"/>
</svg>
