<svg width="58" height="58" viewBox="0 0 58 58" fill="none" xmlns="http://www.w3.org/2000/svg">
<path fill-rule="evenodd" clip-rule="evenodd" d="M45.9643 8.53439C46.5156 7.92514 47.4706 7.24094 48.926 7.24094C51.4718 7.24094 53.1787 9.49179 53.1787 11.5879C53.1787 15.9712 47.3908 19.3293 45.9643 19.3293C44.5379 19.3293 38.75 15.9712 38.75 11.5879C38.7476 9.49179 40.4569 7.24094 43.0027 7.24094C44.4557 7.24094 45.4107 7.92514 45.9643 8.53439Z" stroke="#231D36" stroke-width="1.7" stroke-linecap="round" stroke-linejoin="round"/>
<path d="M31.4182 7.386C30.6252 7.29171 29.8201 7.24094 29.0005 7.24094C19.5305 7.24094 11.4965 13.302 8.50586 21.747" stroke="#231D36" stroke-width="1.7" stroke-linecap="round" stroke-linejoin="round"/>
<path d="M38.6719 29H34.4821L30.2923 38.6683L21.9078 19.3317L17.3892 29H7.24219" stroke="#231D36" stroke-width="1.7" stroke-linecap="round" stroke-linejoin="round"/>
<path d="M50.6145 26.5823C50.7064 27.3753 50.7595 28.1804 50.7595 29C50.7595 41.0183 41.0187 50.7591 29.0005 50.7591C19.5305 50.7591 11.4965 44.698 8.50586 36.253" stroke="#231D36" stroke-width="1.7" stroke-linecap="round" stroke-linejoin="round"/>
</svg>
