<svg width="66" height="66" viewBox="0 0 66 66" fill="none" xmlns="http://www.w3.org/2000/svg">
<path d="M52.4446 13.5546C63.1833 24.2933 63.1833 41.7063 52.4446 52.445C41.7058 63.1838 24.2928 63.1838 13.5541 52.445C2.81531 41.7063 2.81531 24.2933 13.5541 13.5546C24.2928 2.8158 41.7058 2.8158 52.4446 13.5546" stroke="#6579F4" stroke-width="3" stroke-linecap="round" stroke-linejoin="round"/>
<path d="M15.125 33H50.875" stroke="#6579F4" stroke-width="3" stroke-linecap="round" stroke-linejoin="round"/>
<path fill-rule="evenodd" clip-rule="evenodd" d="M33 50.875C42.8721 50.875 50.875 42.8721 50.875 33C50.875 23.1279 42.8721 15.125 33 15.125C23.1279 15.125 15.125 23.1279 15.125 33C15.125 42.8721 23.1279 50.875 33 50.875Z" stroke="#6579F4" stroke-width="3" stroke-linecap="round" stroke-linejoin="round"/>
<path fill-rule="evenodd" clip-rule="evenodd" d="M33 50.875C37.3665 50.875 40.9062 42.8721 40.9062 33C40.9062 23.1279 37.3665 15.125 33 15.125C28.6335 15.125 25.0938 23.1279 25.0938 33C25.0938 42.8721 28.6335 50.875 33 50.875Z" stroke="#6579F4" stroke-width="3" stroke-linecap="round" stroke-linejoin="round"/>
</svg>
