<svg width="66" height="66" viewBox="0 0 66 66" fill="none" xmlns="http://www.w3.org/2000/svg">
<path d="M24.7194 8.37354C23.6331 12.4628 22.8769 17.3028 22.4424 22.4425C21.8621 29.3065 21.8621 36.693 22.4424 43.557C22.8769 48.6968 23.6331 53.5368 24.7194 57.626" stroke="#6579F4" stroke-width="3" stroke-linecap="round" stroke-linejoin="round"/>
<path d="M41.2806 57.626C42.3669 53.5368 43.1231 48.6968 43.5576 43.557C44.1379 36.693 44.1379 29.3065 43.5576 22.4425C43.1231 17.3028 42.3669 12.4628 41.2806 8.37354" stroke="#6579F4" stroke-width="3" stroke-linecap="round" stroke-linejoin="round"/>
<path d="M8.37305 41.2801C12.4623 42.3664 17.3023 43.1226 22.442 43.5571C29.306 44.1374 36.6925 44.1374 43.5565 43.5571C48.6963 43.1226 53.5363 42.3664 57.6255 41.2801" stroke="#6579F4" stroke-width="3" stroke-linecap="round" stroke-linejoin="round"/>
<path d="M8.37305 24.7199C12.4623 23.6336 17.3023 22.8774 22.442 22.4429C29.306 21.8626 36.6925 21.8626 43.5565 22.4429C48.6963 22.8774 53.5363 23.6336 57.6255 24.7199" stroke="#6579F4" stroke-width="3" stroke-linecap="round" stroke-linejoin="round"/>
<path fill-rule="evenodd" clip-rule="evenodd" d="M52.5415 13.618C52.4893 13.5658 52.437 13.5135 52.3847 13.4612C48.8895 10.0017 44.0495 8.25 39.1352 8.25H26.8648C21.9505 8.25 17.1105 10.0018 13.618 13.4585C13.563 13.5108 13.5108 13.563 13.4585 13.618C10.0018 17.1105 8.25 21.9505 8.25 26.8648V39.1352C8.25 44.0495 10.0018 48.8895 13.4585 52.3847C13.5108 52.437 13.563 52.4893 13.6152 52.5415C17.1105 55.9983 21.9505 57.75 26.8648 57.75H39.1352C44.0495 57.75 48.8895 55.9983 52.3847 52.5415C52.437 52.4893 52.4893 52.437 52.5415 52.3847C56.001 48.8922 57.75 44.0522 57.75 39.1352V26.8648C57.75 21.9505 55.9983 17.1105 52.5415 13.618Z" stroke="#6579F4" stroke-width="3" stroke-linecap="round" stroke-linejoin="round"/>
</svg>
