<?xml version="1.0" encoding="UTF-8"?>
<svg xmlns="http://www.w3.org/2000/svg" width="85" height="84" viewBox="0 0 85 84" fill="none">
  <mask id="path-1-outside-1_414_3399" maskUnits="userSpaceOnUse" x="12" y="12" width="60" height="60" fill="black">
    <rect fill="white" x="12" y="12" width="60" height="60"></rect>
    <path d="M67.2261 45.8014C64.3683 44.6239 61.0813 45.7738 59.5806 48.4764L54.3513 46.3227C55.3363 43.5077 55.3303 40.4404 54.3338 37.6291L59.5534 35.4551C61.1297 38.2752 64.6317 39.3766 67.5383 37.9671C70.4454 36.5571 71.7486 33.125 70.5103 30.1411C69.2716 27.1571 65.9211 25.6568 62.8703 26.7201C59.8191 27.7834 58.1268 31.0413 59.011 34.1487L53.789 36.3236C52.4891 33.6413 50.3179 31.4783 47.63 30.1899L49.7842 24.9592C52.7594 25.7973 55.8912 24.2735 57.0677 21.4153C58.3152 18.3889 56.948 14.9182 53.9723 13.5547C50.9966 12.1917 47.4757 13.423 45.998 16.3439C44.5208 19.2643 45.6149 22.8308 48.4764 24.42L46.3222 29.6497C43.5072 28.6648 40.4399 28.6707 37.6291 29.6672L35.4538 24.4462C38.2784 22.864 39.3785 19.3541 37.963 16.4429C36.5474 13.5317 33.1071 12.2294 30.1185 13.4737C27.1304 14.7184 25.6311 18.0772 26.6999 21.133C27.7691 24.1883 31.0354 25.8802 34.1478 24.9901L36.3236 30.212C33.6408 31.512 31.4784 33.6832 30.1894 36.371L24.9588 34.2169C25.5915 31.9688 24.8832 29.5563 23.1357 28.0072C21.3877 26.4576 18.9079 26.0441 16.7519 26.9425C14.2865 27.9685 12.7765 30.4805 13.027 33.1393C13.278 35.7977 15.2309 37.9832 17.8447 38.5307C20.4584 39.0778 23.1237 37.8593 24.42 35.5247L29.6493 37.6784C28.6643 40.4933 28.6708 43.5606 29.6668 46.3715L24.4458 48.5468C22.8672 45.7318 19.3675 44.6363 16.466 46.0487C13.5644 47.461 12.2672 50.8907 13.5082 53.8696C14.7493 56.8485 18.0979 58.3428 21.1441 57.2772C24.1902 56.2112 25.8765 52.9551 24.9896 49.8523L30.212 47.6774C31.5115 50.3602 33.6827 52.5227 36.371 53.8116L34.2164 59.0423C31.0662 58.1563 27.7788 59.9172 26.7708 63.031C25.7632 66.1444 27.3952 69.4977 30.4676 70.6254C33.5395 71.7531 36.9536 70.2524 38.1996 67.2265C39.3725 64.3683 38.2231 61.0845 35.5238 59.5815L37.6779 54.3517C40.4929 55.3367 43.5602 55.3307 46.371 54.3342L48.5464 59.5553C45.7314 61.1334 44.635 64.6331 46.0464 67.5351C47.4582 70.4371 50.888 71.7347 53.8673 70.4946C56.8462 69.2541 58.3414 65.9059 57.2768 62.8593C56.2117 59.8131 52.956 58.1254 49.8528 59.0114L47.677 53.789C50.3598 52.4895 52.5222 50.3183 53.8111 47.63L59.0418 49.7846C58.1554 52.9348 59.9168 56.2232 63.0301 57.2307C66.1439 58.2387 69.4977 56.6067 70.6259 53.5344C71.7536 50.462 70.2524 47.0475 67.2261 45.8014ZM63.0693 28.1564C65.4541 27.1631 68.1931 28.2908 69.1864 30.6762C70.1801 33.061 69.0519 35.7996 66.6671 36.7933C64.2822 37.7866 61.5432 36.6588 60.5499 34.2735C60.0655 33.1292 60.0591 31.8384 60.5324 30.6891C61.0058 29.5401 61.9194 28.6279 63.0693 28.1564ZM47.1087 17.3137C48.0928 14.9247 50.8272 13.7854 53.2162 14.7695C55.6047 15.7536 56.744 18.4875 55.7599 20.8765C54.7763 23.2655 52.0419 24.4048 49.6529 23.4207C47.2639 22.4366 46.1251 19.7027 47.1087 17.3137ZM28.1559 20.9318C27.1627 18.5469 28.2904 15.8084 30.6757 14.8146C33.0606 13.8214 35.7991 14.9491 36.7929 17.334C37.7861 19.7193 36.6584 22.4578 34.2731 23.4516C33.1287 23.9369 31.8375 23.9438 30.6882 23.4704C29.5383 22.9971 28.6265 22.0825 28.1559 20.9318ZM20.8936 36.8845C18.8333 37.7428 16.454 37.0263 15.2102 35.1728C13.9664 33.3198 14.205 30.8465 15.7798 29.2652C17.3547 27.6839 19.8271 27.4352 21.6856 28.6712C23.5437 29.9072 24.2699 32.2837 23.4203 34.3472C22.9506 35.4966 22.0406 36.4102 20.8936 36.8845ZM20.9313 55.8446C18.5465 56.8379 15.8075 55.7102 14.8142 53.3248C13.8205 50.94 14.9487 48.2014 17.3335 47.2077C19.7184 46.2144 22.4574 47.3422 23.4507 49.727C24.4416 52.1124 23.3144 54.8491 20.9313 55.8451V55.8446ZM36.8919 66.6873C35.9092 69.0818 33.1707 70.2257 30.777 69.2412C28.3834 68.2567 27.2419 65.5172 28.2287 63.124C29.2151 60.7313 31.9554 59.5921 34.3477 60.5808C35.5003 61.0468 36.4185 61.9549 36.8965 63.1024C37.3745 64.2504 37.3726 65.5416 36.8919 66.6878V66.6873ZM55.8447 63.0688C56.6372 64.9711 56.0915 67.1681 54.5009 68.4786C52.9104 69.7892 50.6499 69.9043 48.9346 68.7623C47.2188 67.6203 46.4525 65.4905 47.0479 63.5173C47.6429 61.5446 49.4591 60.193 51.5202 60.1903C53.4133 60.1797 55.124 61.3185 55.8447 63.0697V63.0688ZM42.0005 53.6711C35.5546 53.6711 30.3299 48.4464 30.3299 42.0005C30.3299 35.555 35.5546 30.3299 42.0005 30.3299C48.446 30.3299 53.6712 35.555 53.6712 42.0005C53.6638 48.4432 48.4428 53.6642 42.0005 53.6711ZM69.232 53.2162C68.2442 55.5997 65.514 56.7338 63.1287 55.7516C60.7429 54.7689 59.6032 52.041 60.5808 49.6534C61.5681 47.2699 64.2983 46.1357 66.6841 47.1184C69.0694 48.1006 70.2091 50.829 69.232 53.2162Z"></path>
  </mask>
  <path d="M67.2261 45.8014C64.3683 44.6239 61.0813 45.7738 59.5806 48.4764L54.3513 46.3227C55.3363 43.5077 55.3303 40.4404 54.3338 37.6291L59.5534 35.4551C61.1297 38.2752 64.6317 39.3766 67.5383 37.9671C70.4454 36.5571 71.7486 33.125 70.5103 30.1411C69.2716 27.1571 65.9211 25.6568 62.8703 26.7201C59.8191 27.7834 58.1268 31.0413 59.011 34.1487L53.789 36.3236C52.4891 33.6413 50.3179 31.4783 47.63 30.1899L49.7842 24.9592C52.7594 25.7973 55.8912 24.2735 57.0677 21.4153C58.3152 18.3889 56.948 14.9182 53.9723 13.5547C50.9966 12.1917 47.4757 13.423 45.998 16.3439C44.5208 19.2643 45.6149 22.8308 48.4764 24.42L46.3222 29.6497C43.5072 28.6648 40.4399 28.6707 37.6291 29.6672L35.4538 24.4462C38.2784 22.864 39.3785 19.3541 37.963 16.4429C36.5474 13.5317 33.1071 12.2294 30.1185 13.4737C27.1304 14.7184 25.6311 18.0772 26.6999 21.133C27.7691 24.1883 31.0354 25.8802 34.1478 24.9901L36.3236 30.212C33.6408 31.512 31.4784 33.6832 30.1894 36.371L24.9588 34.2169C25.5915 31.9688 24.8832 29.5563 23.1357 28.0072C21.3877 26.4576 18.9079 26.0441 16.7519 26.9425C14.2865 27.9685 12.7765 30.4805 13.027 33.1393C13.278 35.7977 15.2309 37.9832 17.8447 38.5307C20.4584 39.0778 23.1237 37.8593 24.42 35.5247L29.6493 37.6784C28.6643 40.4933 28.6708 43.5606 29.6668 46.3715L24.4458 48.5468C22.8672 45.7318 19.3675 44.6363 16.466 46.0487C13.5644 47.461 12.2672 50.8907 13.5082 53.8696C14.7493 56.8485 18.0979 58.3428 21.1441 57.2772C24.1902 56.2112 25.8765 52.9551 24.9896 49.8523L30.212 47.6774C31.5115 50.3602 33.6827 52.5227 36.371 53.8116L34.2164 59.0423C31.0662 58.1563 27.7788 59.9172 26.7708 63.031C25.7632 66.1444 27.3952 69.4977 30.4676 70.6254C33.5395 71.7531 36.9536 70.2524 38.1996 67.2265C39.3725 64.3683 38.2231 61.0845 35.5238 59.5815L37.6779 54.3517C40.4929 55.3367 43.5602 55.3307 46.371 54.3342L48.5464 59.5553C45.7314 61.1334 44.635 64.6331 46.0464 67.5351C47.4582 70.4371 50.888 71.7347 53.8673 70.4946C56.8462 69.2541 58.3414 65.9059 57.2768 62.8593C56.2117 59.8131 52.956 58.1254 49.8528 59.0114L47.677 53.789C50.3598 52.4895 52.5222 50.3183 53.8111 47.63L59.0418 49.7846C58.1554 52.9348 59.9168 56.2232 63.0301 57.2307C66.1439 58.2387 69.4977 56.6067 70.6259 53.5344C71.7536 50.462 70.2524 47.0475 67.2261 45.8014ZM63.0693 28.1564C65.4541 27.1631 68.1931 28.2908 69.1864 30.6762C70.1801 33.061 69.0519 35.7996 66.6671 36.7933C64.2822 37.7866 61.5432 36.6588 60.5499 34.2735C60.0655 33.1292 60.0591 31.8384 60.5324 30.6891C61.0058 29.5401 61.9194 28.6279 63.0693 28.1564ZM47.1087 17.3137C48.0928 14.9247 50.8272 13.7854 53.2162 14.7695C55.6047 15.7536 56.744 18.4875 55.7599 20.8765C54.7763 23.2655 52.0419 24.4048 49.6529 23.4207C47.2639 22.4366 46.1251 19.7027 47.1087 17.3137ZM28.1559 20.9318C27.1627 18.5469 28.2904 15.8084 30.6757 14.8146C33.0606 13.8214 35.7991 14.9491 36.7929 17.334C37.7861 19.7193 36.6584 22.4578 34.2731 23.4516C33.1287 23.9369 31.8375 23.9438 30.6882 23.4704C29.5383 22.9971 28.6265 22.0825 28.1559 20.9318ZM20.8936 36.8845C18.8333 37.7428 16.454 37.0263 15.2102 35.1728C13.9664 33.3198 14.205 30.8465 15.7798 29.2652C17.3547 27.6839 19.8271 27.4352 21.6856 28.6712C23.5437 29.9072 24.2699 32.2837 23.4203 34.3472C22.9506 35.4966 22.0406 36.4102 20.8936 36.8845ZM20.9313 55.8446C18.5465 56.8379 15.8075 55.7102 14.8142 53.3248C13.8205 50.94 14.9487 48.2014 17.3335 47.2077C19.7184 46.2144 22.4574 47.3422 23.4507 49.727C24.4416 52.1124 23.3144 54.8491 20.9313 55.8451V55.8446ZM36.8919 66.6873C35.9092 69.0818 33.1707 70.2257 30.777 69.2412C28.3834 68.2567 27.2419 65.5172 28.2287 63.124C29.2151 60.7313 31.9554 59.5921 34.3477 60.5808C35.5003 61.0468 36.4185 61.9549 36.8965 63.1024C37.3745 64.2504 37.3726 65.5416 36.8919 66.6878V66.6873ZM55.8447 63.0688C56.6372 64.9711 56.0915 67.1681 54.5009 68.4786C52.9104 69.7892 50.6499 69.9043 48.9346 68.7623C47.2188 67.6203 46.4525 65.4905 47.0479 63.5173C47.6429 61.5446 49.4591 60.193 51.5202 60.1903C53.4133 60.1797 55.124 61.3185 55.8447 63.0697V63.0688ZM42.0005 53.6711C35.5546 53.6711 30.3299 48.4464 30.3299 42.0005C30.3299 35.555 35.5546 30.3299 42.0005 30.3299C48.446 30.3299 53.6712 35.555 53.6712 42.0005C53.6638 48.4432 48.4428 53.6642 42.0005 53.6711ZM69.232 53.2162C68.2442 55.5997 65.514 56.7338 63.1287 55.7516C60.7429 54.7689 59.6032 52.041 60.5808 49.6534C61.5681 47.2699 64.2983 46.1357 66.6841 47.1184C69.0694 48.1006 70.2091 50.829 69.232 53.2162Z" fill="#191B20"></path>
  <path d="M67.2261 45.8014C64.3683 44.6239 61.0813 45.7738 59.5806 48.4764L54.3513 46.3227C55.3363 43.5077 55.3303 40.4404 54.3338 37.6291L59.5534 35.4551C61.1297 38.2752 64.6317 39.3766 67.5383 37.9671C70.4454 36.5571 71.7486 33.125 70.5103 30.1411C69.2716 27.1571 65.9211 25.6568 62.8703 26.7201C59.8191 27.7834 58.1268 31.0413 59.011 34.1487L53.789 36.3236C52.4891 33.6413 50.3179 31.4783 47.63 30.1899L49.7842 24.9592C52.7594 25.7973 55.8912 24.2735 57.0677 21.4153C58.3152 18.3889 56.948 14.9182 53.9723 13.5547C50.9966 12.1917 47.4757 13.423 45.998 16.3439C44.5208 19.2643 45.6149 22.8308 48.4764 24.42L46.3222 29.6497C43.5072 28.6648 40.4399 28.6707 37.6291 29.6672L35.4538 24.4462C38.2784 22.864 39.3785 19.3541 37.963 16.4429C36.5474 13.5317 33.1071 12.2294 30.1185 13.4737C27.1304 14.7184 25.6311 18.0772 26.6999 21.133C27.7691 24.1883 31.0354 25.8802 34.1478 24.9901L36.3236 30.212C33.6408 31.512 31.4784 33.6832 30.1894 36.371L24.9588 34.2169C25.5915 31.9688 24.8832 29.5563 23.1357 28.0072C21.3877 26.4576 18.9079 26.0441 16.7519 26.9425C14.2865 27.9685 12.7765 30.4805 13.027 33.1393C13.278 35.7977 15.2309 37.9832 17.8447 38.5307C20.4584 39.0778 23.1237 37.8593 24.42 35.5247L29.6493 37.6784C28.6643 40.4933 28.6708 43.5606 29.6668 46.3715L24.4458 48.5468C22.8672 45.7318 19.3675 44.6363 16.466 46.0487C13.5644 47.461 12.2672 50.8907 13.5082 53.8696C14.7493 56.8485 18.0979 58.3428 21.1441 57.2772C24.1902 56.2112 25.8765 52.9551 24.9896 49.8523L30.212 47.6774C31.5115 50.3602 33.6827 52.5227 36.371 53.8116L34.2164 59.0423C31.0662 58.1563 27.7788 59.9172 26.7708 63.031C25.7632 66.1444 27.3952 69.4977 30.4676 70.6254C33.5395 71.7531 36.9536 70.2524 38.1996 67.2265C39.3725 64.3683 38.2231 61.0845 35.5238 59.5815L37.6779 54.3517C40.4929 55.3367 43.5602 55.3307 46.371 54.3342L48.5464 59.5553C45.7314 61.1334 44.635 64.6331 46.0464 67.5351C47.4582 70.4371 50.888 71.7347 53.8673 70.4946C56.8462 69.2541 58.3414 65.9059 57.2768 62.8593C56.2117 59.8131 52.956 58.1254 49.8528 59.0114L47.677 53.789C50.3598 52.4895 52.5222 50.3183 53.8111 47.63L59.0418 49.7846C58.1554 52.9348 59.9168 56.2232 63.0301 57.2307C66.1439 58.2387 69.4977 56.6067 70.6259 53.5344C71.7536 50.462 70.2524 47.0475 67.2261 45.8014ZM63.0693 28.1564C65.4541 27.1631 68.1931 28.2908 69.1864 30.6762C70.1801 33.061 69.0519 35.7996 66.6671 36.7933C64.2822 37.7866 61.5432 36.6588 60.5499 34.2735C60.0655 33.1292 60.0591 31.8384 60.5324 30.6891C61.0058 29.5401 61.9194 28.6279 63.0693 28.1564ZM47.1087 17.3137C48.0928 14.9247 50.8272 13.7854 53.2162 14.7695C55.6047 15.7536 56.744 18.4875 55.7599 20.8765C54.7763 23.2655 52.0419 24.4048 49.6529 23.4207C47.2639 22.4366 46.1251 19.7027 47.1087 17.3137ZM28.1559 20.9318C27.1627 18.5469 28.2904 15.8084 30.6757 14.8146C33.0606 13.8214 35.7991 14.9491 36.7929 17.334C37.7861 19.7193 36.6584 22.4578 34.2731 23.4516C33.1287 23.9369 31.8375 23.9438 30.6882 23.4704C29.5383 22.9971 28.6265 22.0825 28.1559 20.9318ZM20.8936 36.8845C18.8333 37.7428 16.454 37.0263 15.2102 35.1728C13.9664 33.3198 14.205 30.8465 15.7798 29.2652C17.3547 27.6839 19.8271 27.4352 21.6856 28.6712C23.5437 29.9072 24.2699 32.2837 23.4203 34.3472C22.9506 35.4966 22.0406 36.4102 20.8936 36.8845ZM20.9313 55.8446C18.5465 56.8379 15.8075 55.7102 14.8142 53.3248C13.8205 50.94 14.9487 48.2014 17.3335 47.2077C19.7184 46.2144 22.4574 47.3422 23.4507 49.727C24.4416 52.1124 23.3144 54.8491 20.9313 55.8451V55.8446ZM36.8919 66.6873C35.9092 69.0818 33.1707 70.2257 30.777 69.2412C28.3834 68.2567 27.2419 65.5172 28.2287 63.124C29.2151 60.7313 31.9554 59.5921 34.3477 60.5808C35.5003 61.0468 36.4185 61.9549 36.8965 63.1024C37.3745 64.2504 37.3726 65.5416 36.8919 66.6878V66.6873ZM55.8447 63.0688C56.6372 64.9711 56.0915 67.1681 54.5009 68.4786C52.9104 69.7892 50.6499 69.9043 48.9346 68.7623C47.2188 67.6203 46.4525 65.4905 47.0479 63.5173C47.6429 61.5446 49.4591 60.193 51.5202 60.1903C53.4133 60.1797 55.124 61.3185 55.8447 63.0697V63.0688ZM42.0005 53.6711C35.5546 53.6711 30.3299 48.4464 30.3299 42.0005C30.3299 35.555 35.5546 30.3299 42.0005 30.3299C48.446 30.3299 53.6712 35.555 53.6712 42.0005C53.6638 48.4432 48.4428 53.6642 42.0005 53.6711ZM69.232 53.2162C68.2442 55.5997 65.514 56.7338 63.1287 55.7516C60.7429 54.7689 59.6032 52.041 60.5808 49.6534C61.5681 47.2699 64.2983 46.1357 66.6841 47.1184C69.0694 48.1006 70.2091 50.829 69.232 53.2162Z" stroke="#191B20" stroke-width="0.2" mask="url(#path-1-outside-1_414_3399)"></path>
  <path d="M41.3263 36.5151L41.3264 36.5151L41.326 36.5139C41.2639 36.3279 41.1175 36.1917 40.9361 36.1029C40.7547 36.014 40.5347 35.9704 40.3166 35.9704C40.0984 35.9704 39.8817 36.014 39.7036 36.103C39.5254 36.1922 39.3831 36.3284 39.3214 36.5139L39.3214 36.5139L39.3211 36.515L36.5057 45.6815L36.5056 45.6815L36.5053 45.6828C36.4924 45.7291 36.4872 45.7769 36.4896 45.8251C36.4903 46.0338 36.6386 46.2022 36.8267 46.3154C37.0166 46.4297 37.2588 46.4959 37.473 46.4959C37.6053 46.4959 37.7277 46.474 37.8278 46.419C37.9294 46.3632 38.0051 46.275 38.0443 46.1495L38.0444 46.1495L38.0447 46.1484L38.614 44.1759H42.033L42.6023 46.1484L42.6023 46.1484L42.6026 46.1495C42.6419 46.2749 42.7174 46.363 42.817 46.4188C42.9153 46.4738 43.0341 46.4959 43.1596 46.4959C43.3812 46.4959 43.6272 46.4261 43.8188 46.3102C44.0086 46.1954 44.1578 46.0266 44.1578 45.8237H44.1579L44.1577 45.8206C44.1546 45.7723 44.1441 45.7246 44.1265 45.6797L41.3263 36.5151ZM41.6645 42.8736H38.9686L40.3166 38.25L41.6645 42.8736Z" fill="#191B20" stroke="#191B20" stroke-width="0.1"></path>
  <path d="M45.9762 36.0558C45.787 36.0558 45.5905 36.092 45.4393 36.1751C45.2865 36.2592 45.1766 36.394 45.1766 36.5866V45.9511C45.1766 46.1368 45.2865 46.2748 45.4381 46.3638C45.5889 46.4524 45.7856 46.4961 45.9762 46.4961C46.1736 46.4961 46.3704 46.4525 46.5198 46.3637C46.6702 46.2742 46.7759 46.1361 46.7759 45.9511V36.5866C46.7759 36.3947 46.6703 36.2597 46.5185 36.1753C46.3689 36.0919 46.1721 36.0558 45.9762 36.0558Z" fill="#191B20" stroke="#191B20" stroke-width="0.1"></path>
</svg>
