<?xml version="1.0" encoding="UTF-8"?>
<svg xmlns="http://www.w3.org/2000/svg" width="85" height="84" viewBox="0 0 85 84" fill="none">
  <path d="M14.1 31.3556V31.3483L14.1001 31.3356C14.1002 31.3224 14.1005 31.3026 14.1012 31.2765C14.1026 31.2244 14.1056 31.1474 14.1121 31.0491C14.1251 30.8523 14.1519 30.5703 14.2075 30.2309C14.3186 29.5515 14.5441 28.6444 15.001 27.7306C15.9123 25.9079 17.8021 23.9983 21.4573 23.9983H44.8743C48.5261 23.9983 50.4114 25.9078 51.3228 27.7306C51.7797 28.6444 52.0052 29.5515 52.1163 30.2309C52.1718 30.5703 52.1987 30.8523 52.2117 31.0491C52.2182 31.1474 52.2212 31.2244 52.2226 31.2765C52.2233 31.3026 52.2236 31.3224 52.2237 31.3356L52.2238 31.3504L52.2238 31.3539V31.3547L52.2238 31.3549V31.3556V33.3851H50.2942L50.2942 31.3556L50.2942 31.3547L50.1942 31.3556L50.2942 31.3547V31.3546L50.2942 31.3543L50.2942 31.3533L50.2942 31.35L50.2939 31.3374C50.2936 31.3265 50.2931 31.3105 50.2923 31.2898C50.2906 31.2484 50.2874 31.1882 50.2815 31.1119C50.2697 30.9593 50.2468 30.7423 50.2028 30.483C50.1147 29.9648 49.9415 29.2749 49.6 28.592C49.2586 27.9092 48.7629 27.2415 48.0064 26.7451C47.2494 26.2484 46.2384 25.9278 44.8743 25.9278H21.4573C20.1027 25.9278 19.0918 26.2485 18.3325 26.745C17.5737 27.2413 17.0732 27.9089 16.7316 28.592C16.3902 29.2748 16.215 29.9646 16.125 30.4826C16.0799 30.7419 16.0561 30.9589 16.0435 31.1114C16.0372 31.1877 16.0337 31.2479 16.0318 31.2892C16.0309 31.3099 16.0303 31.3259 16.03 31.3368L16.0296 31.3494L16.0296 31.3528L16.0296 31.3537L16.0296 31.354L16.0296 31.3541L16.1295 31.3556L16.0295 31.3542V31.3556L16.0295 51.5744L16.0296 51.5759L16.1295 51.5744L16.0296 51.5759L16.0296 51.576L16.0296 51.5763L16.0296 51.5772L16.0296 51.5806L16.03 51.5932C16.0303 51.6041 16.0309 51.6201 16.0318 51.6408C16.0337 51.6821 16.0372 51.7423 16.0435 51.8186C16.0561 51.9711 16.0799 52.1881 16.125 52.4474C16.215 52.9655 16.3902 53.6552 16.7316 54.338C17.0731 55.0209 17.5697 55.6885 18.3267 56.1849C19.0841 56.6816 20.0951 57.0022 21.4573 57.0022H30.4412V58.9317H21.4573C17.8138 58.9317 15.9123 57.022 15.001 55.1994C14.5441 54.2856 14.3186 53.3785 14.2075 52.6991C14.1519 52.3597 14.1251 52.0777 14.1121 51.881C14.1056 51.7826 14.1026 51.7056 14.1012 51.6535C14.1005 51.6274 14.1002 51.6076 14.1001 51.5944L14.1 51.5796L14.1 51.5761L14.1 51.5753L14.1 51.5751L14.1 51.5752V51.5744V31.3556Z" fill="#191B20" stroke="white" stroke-width="0.2"></path>
  <path d="M21.5659 20.7085L21.5659 20.7087L21.5582 24.8676H23.4877L23.4954 20.7085L21.5659 20.7085ZM21.5659 20.7085C21.5682 14.3398 26.7962 9.1 33.1665 9.1C39.5367 9.1 44.7774 14.3365 44.775 20.7085V20.7085M21.5659 20.7085L44.775 20.7085M44.775 20.7085V24.8676H42.8455V20.7085C42.8455 20.7085 42.8455 20.7085 42.8455 20.7085C42.8474 15.3919 38.4821 11.0295 33.1665 11.0295C27.8511 11.0295 23.4974 15.3941 23.4954 20.7083L44.775 20.7085Z" fill="#191B20" stroke="white" stroke-width="0.2"></path>
  <path d="M29.8752 20.7081V24.8672H27.9457L27.9457 20.7082C27.9457 20.7082 27.9457 20.7081 27.9457 20.7081C27.9468 17.7802 30.1151 15.4804 33.1656 15.4804C36.2191 15.4804 38.3945 17.7817 38.3934 20.7081L38.3857 24.8672H36.4562L36.4638 20.7083V20.7082C36.4642 19.711 36.1036 18.8848 35.5074 18.3081C34.9118 17.7319 34.0863 17.4099 33.1656 17.4099C32.2372 17.4099 31.4139 17.7307 30.8221 18.3067C30.2299 18.8832 29.8756 19.7094 29.8752 20.7081V20.7081Z" fill="#191B20" stroke="white" stroke-width="0.2"></path>
  <mask id="path-4-inside-1_414_3323" fill="white">
    <path d="M44.8745 32.4249C44.628 32.4247 44.3892 32.5099 44.1986 32.6661C44.008 32.8223 43.8775 33.0398 43.8293 33.2815L43.4207 35.3088C41.6421 35.7721 39.9503 36.4823 38.3758 37.4305L36.6156 36.2675C36.4108 36.131 36.1649 36.0697 35.9199 36.094C35.6749 36.1184 35.4459 36.2269 35.2719 36.4011L30.7535 40.9195C30.5813 41.093 30.4739 41.3204 30.4496 41.5637C30.4253 41.807 30.4854 42.0512 30.6199 42.2554L31.7751 43.9841C30.8334 45.572 30.1357 47.2782 29.6848 49.0683L27.6339 49.4769C27.3922 49.5251 27.1747 49.6556 27.0185 49.8462C26.8623 50.0368 26.7771 50.2756 26.7773 50.522V56.9028C26.7771 57.1492 26.8623 57.3881 27.0185 57.5786C27.1747 57.7692 27.3922 57.8997 27.6339 57.9479L29.6613 58.3487C30.1245 60.1306 30.8409 61.8321 31.7908 63.4093L30.6199 65.1695C30.4834 65.3743 30.4221 65.6202 30.4464 65.8652C30.4708 66.1102 30.5793 66.3392 30.7535 66.5132L35.2719 71.0237C35.4459 71.1979 35.6749 71.3064 35.9199 71.3308C36.1649 71.3552 36.4108 71.2938 36.6156 71.1573L38.3365 70.01C39.9243 70.9514 41.6386 71.6495 43.4286 72.1003L43.8293 74.1434C43.8775 74.385 44.008 74.6025 44.1986 74.7587C44.3892 74.9149 44.628 75.0001 44.8745 74.9999H51.2631C51.5095 75.0001 51.7483 74.9149 51.9389 74.7587C52.1295 74.6025 52.26 74.385 52.3082 74.1434L52.7089 72.1238C54.5145 71.6791 56.2378 70.985 57.8402 70.0415L59.5219 71.1573C59.7267 71.2938 59.9726 71.3552 60.2176 71.3308C60.4626 71.3065 60.6916 71.1979 60.8656 71.0237L65.384 66.5132C65.5582 66.3392 65.6667 66.1102 65.6911 65.8652C65.7154 65.6202 65.6541 65.3743 65.5176 65.1695L64.3939 63.48C65.3373 61.8763 66.0401 60.1555 66.4841 58.3487L68.5036 57.9479C68.7453 57.8997 68.9628 57.7692 69.1189 57.5787C69.2751 57.3881 69.3604 57.1492 69.3601 56.9028V50.522C69.3604 50.2756 69.2751 50.0368 69.1189 49.8462C68.9627 49.6556 68.7453 49.5251 68.5036 49.4769L66.5234 49.084C66.0564 47.2856 65.3326 45.5735 64.3703 43.9841L65.5176 42.2554C65.6521 42.0512 65.7122 41.807 65.6879 41.5637C65.6636 41.3204 65.5563 41.093 65.384 40.9195L60.8656 36.4011C60.6916 36.2269 60.4626 36.1184 60.2176 36.094C59.9726 36.0697 59.7267 36.131 59.5219 36.2675L57.8167 37.4069C56.2211 36.4634 54.5075 35.7572 52.7089 35.3088L52.3082 33.2815C52.26 33.0398 52.1295 32.8223 51.9389 32.6661C51.7483 32.5099 51.5095 32.4247 51.2631 32.4249H44.8745ZM45.7467 34.5545H50.3908L50.7366 36.2675C50.7775 36.4719 50.8774 36.6597 51.0241 36.8078C51.1708 36.9559 51.3577 37.0576 51.5617 37.1005C53.6299 37.5277 55.6039 38.3414 57.3766 39.4893C57.5503 39.6009 57.7528 39.6596 57.9593 39.6582C58.1658 39.6568 58.3674 39.5954 58.5396 39.4815L59.9776 38.5228L63.2623 41.8075L62.2879 43.2612C62.1718 43.4358 62.1099 43.6409 62.1099 43.8506C62.1099 44.0603 62.1718 44.2653 62.2879 44.4399C63.459 46.2052 64.2904 48.1689 64.7396 50.2392C64.7838 50.4417 64.8862 50.6269 65.0341 50.7721C65.1821 50.9172 65.3692 51.0161 65.5726 51.0564L67.2306 51.3943V56.0305L65.5254 56.3763C65.32 56.4178 65.1314 56.5189 64.9832 56.6671C64.8351 56.8152 64.7339 57.0038 64.6925 57.2093C64.2705 59.2873 63.4607 61.2657 62.3115 63.0478C62.1999 63.2215 62.1412 63.424 62.1427 63.6305C62.1441 63.837 62.2055 64.0386 62.3195 64.2108L63.2625 65.6174L59.9778 68.902L58.5712 67.9669C58.3982 67.8513 58.1951 67.7889 57.987 67.7875C57.7789 67.7861 57.575 67.8456 57.4004 67.9589C55.6183 69.1081 53.6399 69.91 51.5618 70.332C51.3554 70.374 51.166 70.4763 51.0178 70.626C50.8695 70.7757 50.7689 70.966 50.7289 71.1728L50.391 72.8702H45.7467L45.4009 71.1494C45.36 70.9451 45.2601 70.7572 45.1134 70.6091C44.9667 70.4611 44.7798 70.3593 44.5758 70.3165C42.5141 69.8857 40.551 69.0747 38.7845 67.9276C38.6099 67.8144 38.4059 67.7548 38.1978 67.7562C37.9897 67.7577 37.7866 67.8201 37.6136 67.9357L36.1599 68.902L32.8752 65.6174L33.8653 64.1322C33.9826 63.9583 34.0459 63.7537 34.0473 63.544C34.0486 63.3343 33.9881 63.1289 33.8732 62.9535C32.7147 61.1983 31.8917 59.2486 31.445 57.1935C31.4008 56.991 31.2985 56.8058 31.1505 56.6606C31.0025 56.5154 30.8154 56.4166 30.6121 56.3763L28.9069 56.0305V51.3943L30.6357 51.0485C30.84 51.0076 31.0279 50.9076 31.1759 50.761C31.324 50.6143 31.4258 50.4274 31.4686 50.2234C31.8994 48.1617 32.7104 46.1985 33.8575 44.432C33.9707 44.2575 34.0303 44.0535 34.0289 43.8454C34.0275 43.6373 33.9652 43.4342 33.8496 43.2612L32.8752 41.8074L36.1599 38.5228L37.645 39.5129C37.8197 39.629 38.0247 39.6909 38.2344 39.6909C38.4441 39.6909 38.6491 39.629 38.8237 39.5129C40.5789 38.3545 42.5365 37.5314 44.5916 37.0848C44.7941 37.0406 44.9793 36.9382 45.1245 36.7902C45.2696 36.6423 45.3685 36.4551 45.4088 36.2518L45.7467 34.5545Z"></path>
  </mask>
  <path d="M44.8745 32.4249C44.628 32.4247 44.3892 32.5099 44.1986 32.6661C44.008 32.8223 43.8775 33.0398 43.8293 33.2815L43.4207 35.3088C41.6421 35.7721 39.9503 36.4823 38.3758 37.4305L36.6156 36.2675C36.4108 36.131 36.1649 36.0697 35.9199 36.094C35.6749 36.1184 35.4459 36.2269 35.2719 36.4011L30.7535 40.9195C30.5813 41.093 30.4739 41.3204 30.4496 41.5637C30.4253 41.807 30.4854 42.0512 30.6199 42.2554L31.7751 43.9841C30.8334 45.572 30.1357 47.2782 29.6848 49.0683L27.6339 49.4769C27.3922 49.5251 27.1747 49.6556 27.0185 49.8462C26.8623 50.0368 26.7771 50.2756 26.7773 50.522V56.9028C26.7771 57.1492 26.8623 57.3881 27.0185 57.5786C27.1747 57.7692 27.3922 57.8997 27.6339 57.9479L29.6613 58.3487C30.1245 60.1306 30.8409 61.8321 31.7908 63.4093L30.6199 65.1695C30.4834 65.3743 30.4221 65.6202 30.4464 65.8652C30.4708 66.1102 30.5793 66.3392 30.7535 66.5132L35.2719 71.0237C35.4459 71.1979 35.6749 71.3064 35.9199 71.3308C36.1649 71.3552 36.4108 71.2938 36.6156 71.1573L38.3365 70.01C39.9243 70.9514 41.6386 71.6495 43.4286 72.1003L43.8293 74.1434C43.8775 74.385 44.008 74.6025 44.1986 74.7587C44.3892 74.9149 44.628 75.0001 44.8745 74.9999H51.2631C51.5095 75.0001 51.7483 74.9149 51.9389 74.7587C52.1295 74.6025 52.26 74.385 52.3082 74.1434L52.7089 72.1238C54.5145 71.6791 56.2378 70.985 57.8402 70.0415L59.5219 71.1573C59.7267 71.2938 59.9726 71.3552 60.2176 71.3308C60.4626 71.3065 60.6916 71.1979 60.8656 71.0237L65.384 66.5132C65.5582 66.3392 65.6667 66.1102 65.6911 65.8652C65.7154 65.6202 65.6541 65.3743 65.5176 65.1695L64.3939 63.48C65.3373 61.8763 66.0401 60.1555 66.4841 58.3487L68.5036 57.9479C68.7453 57.8997 68.9628 57.7692 69.1189 57.5787C69.2751 57.3881 69.3604 57.1492 69.3601 56.9028V50.522C69.3604 50.2756 69.2751 50.0368 69.1189 49.8462C68.9627 49.6556 68.7453 49.5251 68.5036 49.4769L66.5234 49.084C66.0564 47.2856 65.3326 45.5735 64.3703 43.9841L65.5176 42.2554C65.6521 42.0512 65.7122 41.807 65.6879 41.5637C65.6636 41.3204 65.5563 41.093 65.384 40.9195L60.8656 36.4011C60.6916 36.2269 60.4626 36.1184 60.2176 36.094C59.9726 36.0697 59.7267 36.131 59.5219 36.2675L57.8167 37.4069C56.2211 36.4634 54.5075 35.7572 52.7089 35.3088L52.3082 33.2815C52.26 33.0398 52.1295 32.8223 51.9389 32.6661C51.7483 32.5099 51.5095 32.4247 51.2631 32.4249H44.8745ZM45.7467 34.5545H50.3908L50.7366 36.2675C50.7775 36.4719 50.8774 36.6597 51.0241 36.8078C51.1708 36.9559 51.3577 37.0576 51.5617 37.1005C53.6299 37.5277 55.6039 38.3414 57.3766 39.4893C57.5503 39.6009 57.7528 39.6596 57.9593 39.6582C58.1658 39.6568 58.3674 39.5954 58.5396 39.4815L59.9776 38.5228L63.2623 41.8075L62.2879 43.2612C62.1718 43.4358 62.1099 43.6409 62.1099 43.8506C62.1099 44.0603 62.1718 44.2653 62.2879 44.4399C63.459 46.2052 64.2904 48.1689 64.7396 50.2392C64.7838 50.4417 64.8862 50.6269 65.0341 50.7721C65.1821 50.9172 65.3692 51.0161 65.5726 51.0564L67.2306 51.3943V56.0305L65.5254 56.3763C65.32 56.4178 65.1314 56.5189 64.9832 56.6671C64.8351 56.8152 64.7339 57.0038 64.6925 57.2093C64.2705 59.2873 63.4607 61.2657 62.3115 63.0478C62.1999 63.2215 62.1412 63.424 62.1427 63.6305C62.1441 63.837 62.2055 64.0386 62.3195 64.2108L63.2625 65.6174L59.9778 68.902L58.5712 67.9669C58.3982 67.8513 58.1951 67.7889 57.987 67.7875C57.7789 67.7861 57.575 67.8456 57.4004 67.9589C55.6183 69.1081 53.6399 69.91 51.5618 70.332C51.3554 70.374 51.166 70.4763 51.0178 70.626C50.8695 70.7757 50.7689 70.966 50.7289 71.1728L50.391 72.8702H45.7467L45.4009 71.1494C45.36 70.9451 45.2601 70.7572 45.1134 70.6091C44.9667 70.4611 44.7798 70.3593 44.5758 70.3165C42.5141 69.8857 40.551 69.0747 38.7845 67.9276C38.6099 67.8144 38.4059 67.7548 38.1978 67.7562C37.9897 67.7577 37.7866 67.8201 37.6136 67.9357L36.1599 68.902L32.8752 65.6174L33.8653 64.1322C33.9826 63.9583 34.0459 63.7537 34.0473 63.544C34.0486 63.3343 33.9881 63.1289 33.8732 62.9535C32.7147 61.1983 31.8917 59.2486 31.445 57.1935C31.4008 56.991 31.2985 56.8058 31.1505 56.6606C31.0025 56.5154 30.8154 56.4166 30.6121 56.3763L28.9069 56.0305V51.3943L30.6357 51.0485C30.84 51.0076 31.0279 50.9076 31.1759 50.761C31.324 50.6143 31.4258 50.4274 31.4686 50.2234C31.8994 48.1617 32.7104 46.1985 33.8575 44.432C33.9707 44.2575 34.0303 44.0535 34.0289 43.8454C34.0275 43.6373 33.9652 43.4342 33.8496 43.2612L32.8752 41.8074L36.1599 38.5228L37.645 39.5129C37.8197 39.629 38.0247 39.6909 38.2344 39.6909C38.4441 39.6909 38.6491 39.629 38.8237 39.5129C40.5789 38.3545 42.5365 37.5314 44.5916 37.0848C44.7941 37.0406 44.9793 36.9382 45.1245 36.7902C45.2696 36.6423 45.3685 36.4551 45.4088 36.2518L45.7467 34.5545Z" fill="#191B20" stroke="white" stroke-width="0.4" mask="url(#path-4-inside-1_414_3323)"></path>
  <path d="M34.3256 53.7119C34.3256 46.137 40.4886 39.9739 48.0636 39.9739C55.6386 39.9739 61.8017 46.137 61.8017 53.7119C61.8017 61.2869 55.6386 67.45 48.0636 67.45C40.4886 67.45 34.3256 61.2869 34.3256 53.7119ZM59.88 53.7119C59.88 47.177 54.5984 41.9034 48.0636 41.9034C41.5288 41.9034 36.2551 47.1771 36.2551 53.7119C36.2551 60.2468 41.5288 65.5204 48.0636 65.5204C54.5984 65.5204 59.88 60.2469 59.88 53.7119Z" fill="#191B20" stroke="white" stroke-width="0.2"></path>
  <path d="M42.8441 49.453C42.8441 46.5813 45.1923 44.2331 48.064 44.2331C50.9359 44.2331 53.2918 46.5814 53.2918 49.453C53.2918 52.3247 50.9358 54.6807 48.064 54.6807C45.1925 54.6807 42.8441 52.3249 42.8441 49.453ZM51.3623 49.453C51.3623 47.6211 49.8953 46.1626 48.064 46.1626C46.2325 46.1626 44.7737 47.6214 44.7737 49.453C44.7737 51.2842 46.2322 52.7512 48.064 52.7512C49.8956 52.7512 51.3623 51.2845 51.3623 49.453Z" fill="#191B20" stroke="white" stroke-width="0.2"></path>
  <path d="M39.6588 63.9566C39.8714 59.4869 43.5788 55.9412 48.065 55.9412C52.5538 55.9412 56.262 59.4916 56.4712 63.9641L54.5493 64.0282C54.3765 60.5721 51.5372 57.8707 48.065 57.8707C44.5947 57.8707 41.7642 60.5743 41.5886 64.0278L39.6588 63.9566Z" fill="#191B20" stroke="white" stroke-width="0.2"></path>
</svg>
