<?xml version="1.0" encoding="UTF-8"?>
<svg xmlns="http://www.w3.org/2000/svg" width="85" height="84" viewBox="0 0 85 84" fill="none">
  <path d="M31.68 52.0733L31.6 52.1333L31.68 52.0733C31.2713 51.5285 31.3818 50.7554 31.9267 50.3467C32.4716 49.9379 33.2446 50.0484 33.6533 50.5933C36.0957 53.8498 38.8544 55.4333 42 55.4333C45.1456 55.4333 47.9042 53.8498 50.3467 50.5933C50.7554 50.0484 51.5285 49.938 52.0733 50.3467C52.6182 50.7554 52.7287 51.5285 52.32 52.0733C49.4301 55.9266 45.9666 57.9 42 57.9C38.0334 57.9 34.57 55.9266 31.68 52.0733ZM30 18.1C30.6811 18.1 31.2333 18.6522 31.2333 19.3333C31.2333 20.0145 30.6811 20.5667 30 20.5667H24.6667C22.4023 20.5667 20.5667 22.4023 20.5667 24.6667V30.083C20.5667 30.7642 20.0145 31.3163 19.3333 31.3163C18.6522 31.3163 18.1 30.7642 18.1 30.083V24.6667C18.1 21.04 21.04 18.1 24.6667 18.1H30ZM54 20.5667C53.319 20.5667 52.7667 20.0145 52.7667 19.3333C52.7667 18.6522 53.319 18.1 54 18.1H59.3333C62.96 18.1 65.9 21.04 65.9 24.6667V30C65.9 30.6811 65.3477 31.2333 64.6667 31.2333C63.9856 31.2333 63.4333 30.6811 63.4333 30V24.6667C63.4333 22.4023 61.5976 20.5667 59.3333 20.5667H54ZM63.4333 54C63.4333 53.319 63.9856 52.7667 64.6667 52.7667C65.3477 52.7667 65.9 53.319 65.9 54V59.3333C65.9 62.96 62.96 65.9 59.3333 65.9H54C53.319 65.9 52.7667 65.3477 52.7667 64.6667C52.7667 63.9856 53.319 63.4333 54 63.4333H59.3333C61.5976 63.4333 63.4333 61.5976 63.4333 59.3333V54ZM18.1 54C18.1 53.319 18.6522 52.7667 19.3333 52.7667C20.0145 52.7667 20.5667 53.319 20.5667 54V59.3333C20.5667 61.5976 22.4023 63.4333 24.6667 63.4333H30C30.6811 63.4333 31.2333 63.9856 31.2333 64.6667C31.2333 65.3477 30.6811 65.9 30 65.9H24.6667C21.04 65.9 18.1 62.96 18.1 59.3333V54ZM31.4333 32.6667C31.4333 31.9855 31.9855 31.4333 32.6667 31.4333C33.3478 31.4333 33.9 31.9855 33.9 32.6667V35.3333C33.9 36.0145 33.3478 36.5667 32.6667 36.5667C31.9855 36.5667 31.4333 36.0145 31.4333 35.3333V32.6667ZM52.7667 32.6667C52.7667 31.9855 53.319 31.4333 54 31.4333C54.681 31.4333 55.2333 31.9855 55.2333 32.6667V35.3333C55.2333 36.0145 54.681 36.5667 54 36.5667C53.319 36.5667 52.7667 36.0145 52.7667 35.3333V32.6667ZM42.1 32.6667C42.1 31.9855 42.6523 31.4333 43.3333 31.4333C44.0144 31.4333 44.5667 31.9855 44.5667 32.6667V43.3333C44.5667 45.4872 42.8205 47.2333 40.6667 47.2333C39.9856 47.2333 39.4333 46.681 39.4333 46C39.4333 45.319 39.9856 44.7667 40.6667 44.7667C41.4582 44.7667 42.1 44.1248 42.1 43.3333V32.6667Z" fill="#191B20" stroke="white" stroke-width="0.2"></path>
</svg>
