<?xml version="1.0" encoding="UTF-8"?>
<svg xmlns="http://www.w3.org/2000/svg" width="45" height="45" viewBox="0 0 45 45" fill="none">
  <mask id="path-1-inside-1_414_2957" fill="white">
    <path fill-rule="evenodd" clip-rule="evenodd" d="M3.60659 0.166308C2.7357 0.394427 2.07833 0.784181 1.39387 1.47803C0.713461 2.16784 0.395637 2.72618 0.160742 3.64463C-0.263141 5.30197 0.156785 6.88842 1.35579 8.15943C2.29563 9.15572 3.47785 9.66155 4.86408 9.66059C5.61766 9.66006 5.99432 9.5861 6.74465 9.29115L7.21461 9.10638L9.93916 11.8309L12.6637 14.5554L12.0705 15.428C10.6256 17.5536 9.91014 19.8957 9.91014 22.5005C9.91014 25.105 10.6256 27.4473 12.0702 29.5725L12.6631 30.4447L11.1545 31.9551L9.64605 33.4654L8.98217 33.1319C8.12596 32.7018 7.33228 32.5257 6.24944 32.5257C4.52076 32.5257 3.08404 33.1174 1.87641 34.3265C1.07332 35.1306 0.612503 35.8658 0.276826 36.8788C0.0757899 37.4852 0.0430752 37.7342 0.0398214 38.6816C0.0355122 39.9389 0.1698 40.5563 0.66052 41.5352C1.45605 43.1222 2.92258 44.3232 4.65522 44.8067C5.06433 44.9208 5.52145 44.9631 6.31865 44.9603C7.26606 44.9571 7.51511 44.9244 8.12147 44.7233C9.13448 44.3877 9.86968 43.9268 10.6738 43.1238C11.883 41.9162 12.4746 40.4795 12.4746 38.7508C12.4746 37.668 12.2986 36.8743 11.8684 36.0182L11.535 35.3543L13.0453 33.8458L14.5557 32.3373L15.4279 32.9302C17.5531 34.3748 19.8955 35.0902 22.5001 35.0902C23.9722 35.0902 25.1112 34.9095 26.4681 34.4604C27.7158 34.0477 28.4775 33.6708 29.5926 32.9149L30.4453 32.3367L33.1699 35.0612L35.8944 37.7857L35.7097 38.2556C35.4147 39.0059 35.3407 39.3826 35.3402 40.1362C35.3392 41.5224 35.8451 42.7046 36.8414 43.6444C38.1131 44.8441 39.6987 45.2633 41.3587 44.8388C42.2393 44.6136 42.9034 44.2312 43.5673 43.5673C44.2312 42.9035 44.6136 42.2394 44.8388 41.3588C45.2633 39.6988 44.8441 38.1133 43.6444 36.8415C42.7045 35.8453 41.5223 35.3394 40.1361 35.3404C39.3825 35.3409 39.0058 35.4149 38.2555 35.7098L37.7855 35.8946L35.061 33.1701L32.3364 30.4456L32.9296 29.573C34.3746 27.4473 35.09 25.1053 35.09 22.5005C35.09 19.8959 34.3746 17.5536 32.93 15.4285L32.3371 14.5563L33.8456 13.0459L35.3541 11.5356L36.018 11.869C36.8742 12.2992 37.6679 12.4752 38.7507 12.4752C40.4794 12.4752 41.9161 11.8836 43.1237 10.6745C43.9268 9.87032 44.3876 9.13514 44.7233 8.12215C44.9244 7.51579 44.9571 7.26675 44.9603 6.31936C44.9646 5.06207 44.8304 4.44463 44.3396 3.46576C43.7196 2.22905 42.7693 1.27999 41.5278 0.657634C40.5564 0.170705 39.9364 0.0363312 38.6815 0.0406403C37.7341 0.0438941 37.485 0.0766081 36.8787 0.277641C35.8657 0.613312 35.1305 1.07412 34.3263 1.8772C33.1172 3.0848 32.5255 4.52149 32.5255 6.25015C32.5255 7.33296 32.7016 8.12663 33.1317 8.98282L33.4652 9.64669L31.9549 11.1551L30.4445 12.6637L29.5921 12.0858C28.4775 11.3301 27.7157 10.9533 26.4681 10.5405C25.1112 10.0915 23.9722 9.91078 22.5001 9.91078C19.8952 9.91078 17.5531 10.6262 15.4275 12.0711L14.5548 12.6643L11.8303 9.9398L9.10573 7.2153L9.29049 6.74534C9.58545 5.99503 9.65941 5.61838 9.65994 4.86481C9.66091 3.4786 9.15506 2.29641 8.15876 1.35659C6.88544 0.155403 5.26545 -0.26812 3.60659 0.166308ZM5.76242 2.83092C6.78237 3.35839 7.23985 4.43276 6.9259 5.56351C6.79803 6.02396 6.02325 6.79872 5.56279 6.92659C3.74616 7.43093 2.17867 5.86198 2.75768 4.11881C2.94746 3.54737 3.49579 2.9711 4.03971 2.77147C4.51003 2.59884 5.37107 2.62857 5.76242 2.83092ZM40.3063 3.01199C41.0866 3.39752 41.668 3.99543 42.0499 4.80475C42.2984 5.33125 42.329 5.4826 42.33 6.18745C42.3314 7.15128 42.1606 7.69642 41.6329 8.41341C41.2126 8.98423 40.6588 9.39025 39.9219 9.6678C39.5145 9.82125 39.2836 9.84781 38.5907 9.8209C37.884 9.79346 37.6698 9.74817 37.2275 9.53246C36.5563 9.20523 35.7958 8.44454 35.466 7.77038C35.228 7.28398 35.2078 7.16711 35.2078 6.27539C35.2078 5.37241 35.2261 5.26996 35.4827 4.73642C36.1651 3.31723 37.4079 2.58002 38.9792 2.66242C39.5527 2.6925 39.7823 2.753 40.3063 3.01199ZM24.4788 12.7353C28.3869 13.5159 31.4443 16.5701 32.2733 20.5218C32.4858 21.5346 32.5005 23.309 32.3048 24.3309C32.1283 25.2531 31.7222 26.4221 31.3217 27.1614C30.9744 27.8022 30.2629 28.8328 30.1686 28.8313C30.1348 28.8307 29.9686 28.5859 29.7993 28.2873C29.1191 27.087 28.1696 26.0811 27.0189 25.3414L26.4811 24.9957L26.8777 24.4736C27.7342 23.3461 28.0976 22.1558 28.0149 20.7494C27.9318 19.338 27.4122 18.1801 26.4089 17.1707C25.376 16.1315 23.9756 15.5519 22.5036 15.5545C20.9804 15.5571 19.6548 16.1065 18.5862 17.1779C17.5888 18.1779 17.0683 19.3393 16.9853 20.7494C16.9025 22.1558 17.266 23.3461 18.1225 24.4736L18.5191 24.9957L17.9812 25.3414C16.8306 26.0811 15.8811 27.087 15.2008 28.2873C15.0316 28.5859 14.8653 28.8307 14.8316 28.8313C14.7373 28.8328 14.0258 27.8022 13.6785 27.1614C13.278 26.4221 12.8719 25.2531 12.6954 24.3309C12.4997 23.309 12.5144 21.5346 12.7268 20.5218C13.864 15.1014 19.0667 11.6542 24.4788 12.7353ZM23.777 18.4753C24.7452 18.9712 25.4022 20.0296 25.4022 21.0934C25.4022 22.1681 24.7359 23.2206 23.7491 23.7053C23.3193 23.9163 23.1408 23.9515 22.5001 23.9515C21.8593 23.9515 21.6809 23.9163 21.251 23.7053C20.6173 23.3941 20.018 22.7358 19.77 22.0785C19.5222 21.4218 19.5601 20.4496 19.8564 19.8623C20.2181 19.1454 20.946 18.519 21.7086 18.2685C21.8295 18.2288 22.245 18.2083 22.632 18.2228C23.1789 18.2434 23.4339 18.2996 23.777 18.4753ZM24.3048 26.9346C25.8877 27.4372 27.3286 28.8592 27.9021 30.4849L28.0247 30.8324L27.3913 31.1949C24.4342 32.8867 20.6296 32.8822 17.6056 31.183L16.9765 30.8295L17.0986 30.4834C17.4779 29.4082 18.4346 28.1872 19.3996 27.5467C19.957 27.1767 20.7855 26.8485 21.4767 26.7238C22.2286 26.5881 23.5157 26.6841 24.3048 26.9346ZM7.77085 35.4675C8.44352 35.7956 9.20431 36.556 9.53181 37.2277C9.74753 37.6699 9.79282 37.8841 9.82026 38.5908C9.84717 39.2837 9.82061 39.5146 9.66715 39.922C9.38961 40.6589 8.98357 41.2126 8.41274 41.6329C7.69583 42.1606 7.15103 42.3312 6.18217 42.3312C5.44037 42.3312 5.34082 42.3088 4.72311 42.0035C3.91263 41.6029 3.33837 41.0179 2.94914 40.1962C2.6934 39.6565 2.66948 39.5323 2.67449 38.7696C2.68091 37.796 2.86489 37.2249 3.39395 36.5373C3.79347 36.0179 4.25992 35.6726 4.95897 35.3787C5.42155 35.1842 5.5868 35.1614 6.36377 35.1846C7.12667 35.2073 7.3146 35.2451 7.77085 35.4675ZM41.1035 38.1862C42.4864 38.8302 42.7944 40.6228 41.7086 41.7086C40.3143 43.1028 37.9822 42.1293 37.9788 40.1518C37.9778 39.5362 38.1216 39.167 38.5446 38.6988C39.2091 37.9632 40.1989 37.765 41.1035 38.1862Z"></path>
  </mask>
  <path fill-rule="evenodd" clip-rule="evenodd" d="M3.60659 0.166308C2.7357 0.394427 2.07833 0.784181 1.39387 1.47803C0.713461 2.16784 0.395637 2.72618 0.160742 3.64463C-0.263141 5.30197 0.156785 6.88842 1.35579 8.15943C2.29563 9.15572 3.47785 9.66155 4.86408 9.66059C5.61766 9.66006 5.99432 9.5861 6.74465 9.29115L7.21461 9.10638L9.93916 11.8309L12.6637 14.5554L12.0705 15.428C10.6256 17.5536 9.91014 19.8957 9.91014 22.5005C9.91014 25.105 10.6256 27.4473 12.0702 29.5725L12.6631 30.4447L11.1545 31.9551L9.64605 33.4654L8.98217 33.1319C8.12596 32.7018 7.33228 32.5257 6.24944 32.5257C4.52076 32.5257 3.08404 33.1174 1.87641 34.3265C1.07332 35.1306 0.612503 35.8658 0.276826 36.8788C0.0757899 37.4852 0.0430752 37.7342 0.0398214 38.6816C0.0355122 39.9389 0.1698 40.5563 0.66052 41.5352C1.45605 43.1222 2.92258 44.3232 4.65522 44.8067C5.06433 44.9208 5.52145 44.9631 6.31865 44.9603C7.26606 44.9571 7.51511 44.9244 8.12147 44.7233C9.13448 44.3877 9.86968 43.9268 10.6738 43.1238C11.883 41.9162 12.4746 40.4795 12.4746 38.7508C12.4746 37.668 12.2986 36.8743 11.8684 36.0182L11.535 35.3543L13.0453 33.8458L14.5557 32.3373L15.4279 32.9302C17.5531 34.3748 19.8955 35.0902 22.5001 35.0902C23.9722 35.0902 25.1112 34.9095 26.4681 34.4604C27.7158 34.0477 28.4775 33.6708 29.5926 32.9149L30.4453 32.3367L33.1699 35.0612L35.8944 37.7857L35.7097 38.2556C35.4147 39.0059 35.3407 39.3826 35.3402 40.1362C35.3392 41.5224 35.8451 42.7046 36.8414 43.6444C38.1131 44.8441 39.6987 45.2633 41.3587 44.8388C42.2393 44.6136 42.9034 44.2312 43.5673 43.5673C44.2312 42.9035 44.6136 42.2394 44.8388 41.3588C45.2633 39.6988 44.8441 38.1133 43.6444 36.8415C42.7045 35.8453 41.5223 35.3394 40.1361 35.3404C39.3825 35.3409 39.0058 35.4149 38.2555 35.7098L37.7855 35.8946L35.061 33.1701L32.3364 30.4456L32.9296 29.573C34.3746 27.4473 35.09 25.1053 35.09 22.5005C35.09 19.8959 34.3746 17.5536 32.93 15.4285L32.3371 14.5563L33.8456 13.0459L35.3541 11.5356L36.018 11.869C36.8742 12.2992 37.6679 12.4752 38.7507 12.4752C40.4794 12.4752 41.9161 11.8836 43.1237 10.6745C43.9268 9.87032 44.3876 9.13514 44.7233 8.12215C44.9244 7.51579 44.9571 7.26675 44.9603 6.31936C44.9646 5.06207 44.8304 4.44463 44.3396 3.46576C43.7196 2.22905 42.7693 1.27999 41.5278 0.657634C40.5564 0.170705 39.9364 0.0363312 38.6815 0.0406403C37.7341 0.0438941 37.485 0.0766081 36.8787 0.277641C35.8657 0.613312 35.1305 1.07412 34.3263 1.8772C33.1172 3.0848 32.5255 4.52149 32.5255 6.25015C32.5255 7.33296 32.7016 8.12663 33.1317 8.98282L33.4652 9.64669L31.9549 11.1551L30.4445 12.6637L29.5921 12.0858C28.4775 11.3301 27.7157 10.9533 26.4681 10.5405C25.1112 10.0915 23.9722 9.91078 22.5001 9.91078C19.8952 9.91078 17.5531 10.6262 15.4275 12.0711L14.5548 12.6643L11.8303 9.9398L9.10573 7.2153L9.29049 6.74534C9.58545 5.99503 9.65941 5.61838 9.65994 4.86481C9.66091 3.4786 9.15506 2.29641 8.15876 1.35659C6.88544 0.155403 5.26545 -0.26812 3.60659 0.166308ZM5.76242 2.83092C6.78237 3.35839 7.23985 4.43276 6.9259 5.56351C6.79803 6.02396 6.02325 6.79872 5.56279 6.92659C3.74616 7.43093 2.17867 5.86198 2.75768 4.11881C2.94746 3.54737 3.49579 2.9711 4.03971 2.77147C4.51003 2.59884 5.37107 2.62857 5.76242 2.83092ZM40.3063 3.01199C41.0866 3.39752 41.668 3.99543 42.0499 4.80475C42.2984 5.33125 42.329 5.4826 42.33 6.18745C42.3314 7.15128 42.1606 7.69642 41.6329 8.41341C41.2126 8.98423 40.6588 9.39025 39.9219 9.6678C39.5145 9.82125 39.2836 9.84781 38.5907 9.8209C37.884 9.79346 37.6698 9.74817 37.2275 9.53246C36.5563 9.20523 35.7958 8.44454 35.466 7.77038C35.228 7.28398 35.2078 7.16711 35.2078 6.27539C35.2078 5.37241 35.2261 5.26996 35.4827 4.73642C36.1651 3.31723 37.4079 2.58002 38.9792 2.66242C39.5527 2.6925 39.7823 2.753 40.3063 3.01199ZM24.4788 12.7353C28.3869 13.5159 31.4443 16.5701 32.2733 20.5218C32.4858 21.5346 32.5005 23.309 32.3048 24.3309C32.1283 25.2531 31.7222 26.4221 31.3217 27.1614C30.9744 27.8022 30.2629 28.8328 30.1686 28.8313C30.1348 28.8307 29.9686 28.5859 29.7993 28.2873C29.1191 27.087 28.1696 26.0811 27.0189 25.3414L26.4811 24.9957L26.8777 24.4736C27.7342 23.3461 28.0976 22.1558 28.0149 20.7494C27.9318 19.338 27.4122 18.1801 26.4089 17.1707C25.376 16.1315 23.9756 15.5519 22.5036 15.5545C20.9804 15.5571 19.6548 16.1065 18.5862 17.1779C17.5888 18.1779 17.0683 19.3393 16.9853 20.7494C16.9025 22.1558 17.266 23.3461 18.1225 24.4736L18.5191 24.9957L17.9812 25.3414C16.8306 26.0811 15.8811 27.087 15.2008 28.2873C15.0316 28.5859 14.8653 28.8307 14.8316 28.8313C14.7373 28.8328 14.0258 27.8022 13.6785 27.1614C13.278 26.4221 12.8719 25.2531 12.6954 24.3309C12.4997 23.309 12.5144 21.5346 12.7268 20.5218C13.864 15.1014 19.0667 11.6542 24.4788 12.7353ZM23.777 18.4753C24.7452 18.9712 25.4022 20.0296 25.4022 21.0934C25.4022 22.1681 24.7359 23.2206 23.7491 23.7053C23.3193 23.9163 23.1408 23.9515 22.5001 23.9515C21.8593 23.9515 21.6809 23.9163 21.251 23.7053C20.6173 23.3941 20.018 22.7358 19.77 22.0785C19.5222 21.4218 19.5601 20.4496 19.8564 19.8623C20.2181 19.1454 20.946 18.519 21.7086 18.2685C21.8295 18.2288 22.245 18.2083 22.632 18.2228C23.1789 18.2434 23.4339 18.2996 23.777 18.4753ZM24.3048 26.9346C25.8877 27.4372 27.3286 28.8592 27.9021 30.4849L28.0247 30.8324L27.3913 31.1949C24.4342 32.8867 20.6296 32.8822 17.6056 31.183L16.9765 30.8295L17.0986 30.4834C17.4779 29.4082 18.4346 28.1872 19.3996 27.5467C19.957 27.1767 20.7855 26.8485 21.4767 26.7238C22.2286 26.5881 23.5157 26.6841 24.3048 26.9346ZM7.77085 35.4675C8.44352 35.7956 9.20431 36.556 9.53181 37.2277C9.74753 37.6699 9.79282 37.8841 9.82026 38.5908C9.84717 39.2837 9.82061 39.5146 9.66715 39.922C9.38961 40.6589 8.98357 41.2126 8.41274 41.6329C7.69583 42.1606 7.15103 42.3312 6.18217 42.3312C5.44037 42.3312 5.34082 42.3088 4.72311 42.0035C3.91263 41.6029 3.33837 41.0179 2.94914 40.1962C2.6934 39.6565 2.66948 39.5323 2.67449 38.7696C2.68091 37.796 2.86489 37.2249 3.39395 36.5373C3.79347 36.0179 4.25992 35.6726 4.95897 35.3787C5.42155 35.1842 5.5868 35.1614 6.36377 35.1846C7.12667 35.2073 7.3146 35.2451 7.77085 35.4675ZM41.1035 38.1862C42.4864 38.8302 42.7944 40.6228 41.7086 41.7086C40.3143 43.1028 37.9822 42.1293 37.9788 40.1518C37.9778 39.5362 38.1216 39.167 38.5446 38.6988C39.2091 37.9632 40.1989 37.765 41.1035 38.1862Z" fill="black" stroke="#E4E9F1" mask="url(#path-1-inside-1_414_2957)"></path>
</svg>
