<?xml version="1.0" encoding="UTF-8"?>
<svg xmlns="http://www.w3.org/2000/svg" width="85" height="84" viewBox="0 0 85 84" fill="none">
  <path d="M32.023 28.6156L32.0229 28.6156L30.4024 30.2354C30.4024 30.2355 30.4024 30.2355 30.4024 30.2355C30.1757 30.4622 29.9066 30.642 29.6104 30.7647C29.3142 30.8875 28.9967 30.9506 28.6761 30.9506C28.3555 30.9506 28.038 30.8875 27.7418 30.7647C27.4456 30.642 27.1765 30.4622 26.9498 30.2355L32.023 28.6156ZM32.023 28.6156C32.138 28.5005 32.2941 28.4359 32.4568 28.4359C32.6196 28.4359 32.7756 28.5005 32.8907 28.6155C32.8907 28.6155 32.8907 28.6156 32.8907 28.6156M32.023 28.6156H32.8907M32.8907 28.6156L36.6703 32.3961C36.7854 32.5112 36.85 32.6672 36.85 32.83C36.85 32.9927 36.7854 33.1488 36.6703 33.2639L35.0498 34.8837L32.8907 28.6156ZM26.765 30.0506L26.9498 30.2354L25.5412 34.8837L22.1162 31.4585C22.1162 31.4585 22.1162 31.4584 22.1161 31.4584C20.8571 30.1965 20.15 28.4866 20.15 26.704C20.15 24.9213 20.8571 23.2114 22.1162 21.9495L23.7359 20.3297C23.7359 20.3297 23.7359 20.3297 23.7359 20.3297C23.851 20.2146 24.0071 20.15 24.1698 20.15C24.3326 20.15 24.4886 20.2146 24.6037 20.3297L24.6037 20.3297L28.3848 24.1094C28.4999 24.2245 28.5645 24.3806 28.5645 24.5434C28.5645 24.7061 28.4999 24.8622 28.3848 24.9773L28.3848 24.9773L26.765 26.5979C26.765 26.5979 26.765 26.5979 26.765 26.5979C26.5383 26.8246 26.3584 27.0938 26.2357 27.39C26.113 27.6862 26.0499 28.0037 26.0499 28.3243C26.0499 28.6449 26.113 28.9624 26.2357 29.2586C26.3584 29.5548 26.5383 29.8239 26.765 30.0506C26.765 30.0506 26.765 30.0506 26.765 30.0506ZM35.2626 32.9361L35.3687 32.83L35.2626 32.7239L32.5629 30.0233L32.4569 29.9172L32.3508 30.0233L31.8108 30.5633L31.7048 30.6693L31.8108 30.7754L34.5105 33.476L34.6166 33.5821L34.7227 33.476L35.2626 32.9361ZM24.2767 21.7375L24.1707 21.6315L24.0646 21.7374L23.5239 22.2773L23.4177 22.3834L23.5238 22.4895L26.2243 25.1902L26.3304 25.2963L26.4365 25.1901L26.9764 24.6493L27.0824 24.5433L26.9764 24.4373L24.2767 21.7375ZM26.4091 34.0167L26.4093 34.0169C27.3448 34.9497 28.5845 35.5142 29.902 35.6089C31.2197 35.7036 32.5274 35.3214 33.5867 34.532L33.7258 34.4283L33.6031 34.3056L30.8873 31.5898L30.8009 31.5033L30.6988 31.5705C29.9926 32.0352 29.148 32.2424 28.3069 32.1573C27.4659 32.0721 26.6799 31.6998 26.0811 31.1031L25.8966 30.9186C25.2995 30.32 24.927 29.5339 24.8419 28.6928C24.7567 27.8516 24.9642 27.0068 25.4292 26.3008L25.4965 26.1986L25.41 26.1122L22.6942 23.3963L22.5716 23.2736L22.4679 23.4127C21.6784 24.472 21.2961 25.7798 21.3908 27.0975C21.4855 28.4153 22.0509 29.655 22.9837 30.5905L22.9839 30.5906L26.4091 34.0167ZM30.2955 36.85C28.513 36.85 26.8032 36.1429 25.5414 34.8838L35.0498 34.8838C33.7879 36.1429 32.0781 36.85 30.2955 36.85Z" fill="#191B20" stroke="white" stroke-width="0.3"></path>
  <path d="M37.5 41.9H17.7C17.0104 41.9 16.3491 41.6261 15.8615 41.1385C15.3739 40.6509 15.1 39.9896 15.1 39.3V17.7C15.1 17.0104 15.3739 16.3491 15.8615 15.8615C16.3491 15.3739 17.0104 15.1 17.7 15.1H37.5C38.1896 15.1 38.8509 15.3739 39.3385 15.8615C39.8261 16.3491 40.1 17.0104 40.1 17.7V39.3C40.1 39.9896 39.8261 40.6509 39.3385 41.1385C38.8509 41.6261 38.1896 41.9 37.5 41.9ZM17.7 16.7C17.4348 16.7 17.1804 16.8054 16.9929 16.9929C16.8054 17.1804 16.7 17.4348 16.7 17.7V39.3C16.7 39.5652 16.8054 39.8196 16.9929 40.0071C17.1804 40.1946 17.4348 40.3 17.7 40.3H37.5C37.7652 40.3 38.0196 40.1946 38.2071 40.0071C38.3946 39.8196 38.5 39.5652 38.5 39.3V17.7C38.5 17.4348 38.3946 17.1804 38.2071 16.9929C38.0196 16.8054 37.7652 16.7 37.5 16.7H17.7Z" fill="#191B20" stroke="white" stroke-width="0.2"></path>
  <path d="M37.5 68.9H17.7C17.0104 68.9 16.3491 68.6261 15.8615 68.1385C15.3739 67.6509 15.1 66.9896 15.1 66.3V46.5C15.1 45.8105 15.3739 45.1492 15.8615 44.6616C16.3491 44.174 17.0104 43.9 17.7 43.9H37.5C38.1896 43.9 38.8509 44.174 39.3385 44.6616C39.8261 45.1492 40.1 45.8105 40.1 46.5V66.3C40.1 66.9896 39.8261 67.6509 39.3385 68.1385C38.8509 68.6261 38.1896 68.9 37.5 68.9ZM17.7 45.5C17.4348 45.5 17.1804 45.6054 16.9929 45.7929C16.8054 45.9805 16.7 46.2348 16.7 46.5V66.3C16.7 66.5653 16.8054 66.8196 16.9929 67.0072C17.1804 67.1947 17.4348 67.3001 17.7 67.3001H37.5C37.7652 67.3001 38.0196 67.1947 38.2071 67.0072C38.3946 66.8196 38.5 66.5653 38.5 66.3V46.5C38.5 46.2348 38.3946 45.9805 38.2071 45.7929C38.0196 45.6054 37.7652 45.5 37.5 45.5H17.7Z" fill="#191B20" stroke="white" stroke-width="0.2"></path>
  <path d="M27.3979 57.1206L27.5 57.2155L27.6021 57.1206L32.3766 52.6813L32.6561 52.4214H32.2745H22.724H22.3423L22.6219 52.6813L27.3979 57.1206ZM24.8014 56.6171L24.9201 56.5073L24.8016 56.3972L21.6021 53.424L21.35 53.1898V53.5339V59.47V59.8133L21.6019 59.5801L24.8014 56.6171ZM25.9312 57.4478L25.8293 57.3529L25.7271 57.4475L22.6273 60.3185L22.3466 60.5786H22.7292H32.2707H32.6528L32.3728 60.3186L29.2843 57.4516L29.1821 57.3567L29.08 57.4517L28.405 58.0803L28.4044 58.0809C28.1565 58.3145 27.836 58.4423 27.5052 58.4417C27.1744 58.441 26.8544 58.3119 26.6073 58.0774L26.6062 58.0764L25.9312 57.4478ZM30.2058 56.3973L30.0877 56.5073L30.206 56.617L33.398 59.5799L33.65 59.8139V59.47V53.5339V53.1892L33.3978 53.4242L30.2058 56.3973ZM20.75 51.15H34.25C34.4068 51.15 34.5587 51.2152 34.6718 51.3337C34.7852 51.4524 34.85 51.6149 34.85 51.7857V61.2143C34.85 61.3851 34.7852 61.5476 34.6718 61.6663C34.5587 61.7848 34.4068 61.85 34.25 61.85H20.75C20.5932 61.85 20.4413 61.7848 20.3282 61.6663C20.2148 61.5476 20.15 61.3851 20.15 61.2143V51.7857C20.15 51.6149 20.2148 51.4524 20.3282 51.3337C20.4413 51.2152 20.5932 51.15 20.75 51.15Z" fill="#191B20" stroke="white" stroke-width="0.3"></path>
  <mask id="path-5-inside-1_414_3377" fill="white">
    <path d="M66.2998 15H46.4998C45.7837 15 45.097 15.2845 44.5906 15.7908C44.0843 16.2972 43.7998 16.9839 43.7998 17.7V39.3C43.7998 40.0161 44.0843 40.7028 44.5906 41.2092C45.097 41.7155 45.7837 42 46.4998 42H50.9998V53.2842L49.9468 51.0531C49.7521 50.3945 49.3108 49.8364 48.7147 49.4952C48.0932 49.1366 47.3548 49.0395 46.6618 49.2252L45.8329 49.4484C45.5964 49.5122 45.3754 49.6235 45.1834 49.7757C44.9914 49.9278 44.8325 50.1175 44.7164 50.3332C44.6003 50.5489 44.5295 50.786 44.5082 51.03C44.4869 51.2741 44.5157 51.5199 44.5927 51.7524L48.3493 62.664C48.3854 62.7694 48.4409 62.8671 48.5131 62.952L50.9512 65.832L50.9998 68.1189C51.0047 68.3543 51.1018 68.5784 51.27 68.7431C51.4382 68.9078 51.6643 69.0001 51.8998 69H64.4998C64.7385 69 64.9674 68.9052 65.1362 68.7364C65.305 68.5676 65.3998 68.3387 65.3998 68.1V65.67L67.0486 63.1968C67.1464 63.0495 67.199 62.8768 67.1998 62.7V51C67.2025 50.6472 67.1342 50.2975 66.9991 49.9716C66.864 49.6456 66.6647 49.3502 66.4132 49.1028C66.0382 48.7331 65.5649 48.4787 65.0496 48.3699C64.5344 48.2611 63.9987 48.3025 63.5062 48.489C63.3866 48.0382 63.1472 47.6283 62.8132 47.3028C62.438 46.9333 61.9648 46.6791 61.4496 46.5703C60.9343 46.4615 60.3987 46.5027 59.9062 46.689C59.7866 46.2382 59.5472 45.8283 59.2132 45.5028C58.8507 45.1442 58.3955 44.8936 57.8986 44.779C57.4017 44.6644 56.8828 44.6904 56.3998 44.8539V42H66.2998C67.0159 42 67.7026 41.7155 68.209 41.2092C68.7153 40.7028 68.9998 40.0161 68.9998 39.3V17.7C68.9998 16.9839 68.7153 16.2972 68.209 15.7908C67.7026 15.2845 67.0159 15 66.2998 15ZM57.2998 46.5C57.4198 46.4996 57.5386 46.5239 57.6488 46.5712C57.759 46.6186 57.8583 46.6881 57.9406 46.7754C58.0237 46.8566 58.0895 46.9539 58.1341 47.0612C58.1786 47.1685 58.201 47.2838 58.1998 47.4V53.7C58.1998 53.9387 58.2946 54.1676 58.4634 54.3364C58.6322 54.5052 58.8611 54.6 59.0998 54.6C59.3385 54.6 59.5674 54.5052 59.7362 54.3364C59.905 54.1676 59.9998 53.9387 59.9998 53.7V49.2C59.9998 48.9613 60.0946 48.7324 60.2634 48.5636C60.4322 48.3948 60.6611 48.3 60.8998 48.3C61.0198 48.2996 61.1386 48.3239 61.2488 48.3712C61.359 48.4186 61.4583 48.4881 61.5406 48.5754C61.6237 48.6566 61.6895 48.7539 61.7341 48.8612C61.7786 48.9685 61.801 49.0838 61.7998 49.2V53.7C61.7998 53.9387 61.8946 54.1676 62.0634 54.3364C62.2322 54.5052 62.4611 54.6 62.6998 54.6C62.9385 54.6 63.1674 54.5052 63.3362 54.3364C63.505 54.1676 63.5998 53.9387 63.5998 53.7V51C63.5998 50.7613 63.6946 50.5324 63.8634 50.3636C64.0322 50.1948 64.2611 50.1 64.4998 50.1C64.6198 50.0996 64.7386 50.1239 64.8488 50.1712C64.959 50.2186 65.0583 50.2881 65.1406 50.3754C65.2237 50.4566 65.2895 50.5539 65.3341 50.6612C65.3786 50.7685 65.401 50.8838 65.3998 51V62.43L63.751 64.9032C63.6532 65.0505 63.6006 65.2232 63.5998 65.4V67.2H52.7809L52.744 65.4711C52.74 65.2645 52.665 65.0655 52.5316 64.9077L49.9954 61.9143L46.3009 51.18L47.1235 50.9586C47.3568 50.8964 47.6052 50.9287 47.8147 51.0486C47.9164 51.1065 48.0055 51.1841 48.0769 51.2768C48.1483 51.3695 48.2005 51.4755 48.2305 51.5886C48.244 51.6417 51.0862 57.6753 51.0862 57.6753C51.1732 57.8594 51.3201 58.0085 51.5029 58.0984C51.6857 58.1882 51.8935 58.2134 52.0924 58.1698C52.2913 58.1262 52.4696 58.0165 52.5981 57.8585C52.7266 57.7005 52.7977 57.5036 52.7998 57.3V39.4008C52.7901 39.1631 52.8678 38.93 53.0182 38.7456C53.1686 38.5612 53.3813 38.4383 53.6161 38.4C53.7495 38.3866 53.8841 38.404 54.0097 38.4508C54.1353 38.4976 54.2485 38.5726 54.3406 38.67C54.4244 38.7519 54.4906 38.85 54.5351 38.9583C54.5797 39.0666 54.6017 39.1829 54.5998 39.3V53.7C54.5998 53.9387 54.6946 54.1676 54.8634 54.3364C55.0322 54.5052 55.2611 54.6 55.4998 54.6C55.7385 54.6 55.9674 54.5052 56.1362 54.3364C56.305 54.1676 56.3998 53.9387 56.3998 53.7V47.4C56.3998 47.1613 56.4946 46.9324 56.6634 46.7636C56.8322 46.5948 57.0611 46.5 57.2998 46.5ZM67.1998 39.3C67.1998 39.5387 67.105 39.7676 66.9362 39.9364C66.7674 40.1052 66.5385 40.2 66.2998 40.2H56.3998V39.3C56.4025 38.9472 56.3342 38.5975 56.1991 38.2716C56.064 37.9456 55.8647 37.6502 55.6132 37.4028C55.3364 37.1195 55 36.9014 54.6284 36.7643C54.2568 36.6271 53.8594 36.5744 53.4649 36.6099C52.7806 36.6855 52.149 37.0132 51.6933 37.5292C51.2375 38.0452 50.9903 38.7124 50.9998 39.4008V40.2H46.4998C46.2611 40.2 46.0322 40.1052 45.8634 39.9364C45.6946 39.7676 45.5998 39.5387 45.5998 39.3V17.7C45.5998 17.4613 45.6946 17.2324 45.8634 17.0636C46.0322 16.8948 46.2611 16.8 46.4998 16.8H66.2998C66.5385 16.8 66.7674 16.8948 66.9362 17.0636C67.105 17.2324 67.1998 17.4613 67.1998 17.7V39.3Z"></path>
  </mask>
  <path d="M66.2998 15H46.4998C45.7837 15 45.097 15.2845 44.5906 15.7908C44.0843 16.2972 43.7998 16.9839 43.7998 17.7V39.3C43.7998 40.0161 44.0843 40.7028 44.5906 41.2092C45.097 41.7155 45.7837 42 46.4998 42H50.9998V53.2842L49.9468 51.0531C49.7521 50.3945 49.3108 49.8364 48.7147 49.4952C48.0932 49.1366 47.3548 49.0395 46.6618 49.2252L45.8329 49.4484C45.5964 49.5122 45.3754 49.6235 45.1834 49.7757C44.9914 49.9278 44.8325 50.1175 44.7164 50.3332C44.6003 50.5489 44.5295 50.786 44.5082 51.03C44.4869 51.2741 44.5157 51.5199 44.5927 51.7524L48.3493 62.664C48.3854 62.7694 48.4409 62.8671 48.5131 62.952L50.9512 65.832L50.9998 68.1189C51.0047 68.3543 51.1018 68.5784 51.27 68.7431C51.4382 68.9078 51.6643 69.0001 51.8998 69H64.4998C64.7385 69 64.9674 68.9052 65.1362 68.7364C65.305 68.5676 65.3998 68.3387 65.3998 68.1V65.67L67.0486 63.1968C67.1464 63.0495 67.199 62.8768 67.1998 62.7V51C67.2025 50.6472 67.1342 50.2975 66.9991 49.9716C66.864 49.6456 66.6647 49.3502 66.4132 49.1028C66.0382 48.7331 65.5649 48.4787 65.0496 48.3699C64.5344 48.2611 63.9987 48.3025 63.5062 48.489C63.3866 48.0382 63.1472 47.6283 62.8132 47.3028C62.438 46.9333 61.9648 46.6791 61.4496 46.5703C60.9343 46.4615 60.3987 46.5027 59.9062 46.689C59.7866 46.2382 59.5472 45.8283 59.2132 45.5028C58.8507 45.1442 58.3955 44.8936 57.8986 44.779C57.4017 44.6644 56.8828 44.6904 56.3998 44.8539V42H66.2998C67.0159 42 67.7026 41.7155 68.209 41.2092C68.7153 40.7028 68.9998 40.0161 68.9998 39.3V17.7C68.9998 16.9839 68.7153 16.2972 68.209 15.7908C67.7026 15.2845 67.0159 15 66.2998 15ZM57.2998 46.5C57.4198 46.4996 57.5386 46.5239 57.6488 46.5712C57.759 46.6186 57.8583 46.6881 57.9406 46.7754C58.0237 46.8566 58.0895 46.9539 58.1341 47.0612C58.1786 47.1685 58.201 47.2838 58.1998 47.4V53.7C58.1998 53.9387 58.2946 54.1676 58.4634 54.3364C58.6322 54.5052 58.8611 54.6 59.0998 54.6C59.3385 54.6 59.5674 54.5052 59.7362 54.3364C59.905 54.1676 59.9998 53.9387 59.9998 53.7V49.2C59.9998 48.9613 60.0946 48.7324 60.2634 48.5636C60.4322 48.3948 60.6611 48.3 60.8998 48.3C61.0198 48.2996 61.1386 48.3239 61.2488 48.3712C61.359 48.4186 61.4583 48.4881 61.5406 48.5754C61.6237 48.6566 61.6895 48.7539 61.7341 48.8612C61.7786 48.9685 61.801 49.0838 61.7998 49.2V53.7C61.7998 53.9387 61.8946 54.1676 62.0634 54.3364C62.2322 54.5052 62.4611 54.6 62.6998 54.6C62.9385 54.6 63.1674 54.5052 63.3362 54.3364C63.505 54.1676 63.5998 53.9387 63.5998 53.7V51C63.5998 50.7613 63.6946 50.5324 63.8634 50.3636C64.0322 50.1948 64.2611 50.1 64.4998 50.1C64.6198 50.0996 64.7386 50.1239 64.8488 50.1712C64.959 50.2186 65.0583 50.2881 65.1406 50.3754C65.2237 50.4566 65.2895 50.5539 65.3341 50.6612C65.3786 50.7685 65.401 50.8838 65.3998 51V62.43L63.751 64.9032C63.6532 65.0505 63.6006 65.2232 63.5998 65.4V67.2H52.7809L52.744 65.4711C52.74 65.2645 52.665 65.0655 52.5316 64.9077L49.9954 61.9143L46.3009 51.18L47.1235 50.9586C47.3568 50.8964 47.6052 50.9287 47.8147 51.0486C47.9164 51.1065 48.0055 51.1841 48.0769 51.2768C48.1483 51.3695 48.2005 51.4755 48.2305 51.5886C48.244 51.6417 51.0862 57.6753 51.0862 57.6753C51.1732 57.8594 51.3201 58.0085 51.5029 58.0984C51.6857 58.1882 51.8935 58.2134 52.0924 58.1698C52.2913 58.1262 52.4696 58.0165 52.5981 57.8585C52.7266 57.7005 52.7977 57.5036 52.7998 57.3V39.4008C52.7901 39.1631 52.8678 38.93 53.0182 38.7456C53.1686 38.5612 53.3813 38.4383 53.6161 38.4C53.7495 38.3866 53.8841 38.404 54.0097 38.4508C54.1353 38.4976 54.2485 38.5726 54.3406 38.67C54.4244 38.7519 54.4906 38.85 54.5351 38.9583C54.5797 39.0666 54.6017 39.1829 54.5998 39.3V53.7C54.5998 53.9387 54.6946 54.1676 54.8634 54.3364C55.0322 54.5052 55.2611 54.6 55.4998 54.6C55.7385 54.6 55.9674 54.5052 56.1362 54.3364C56.305 54.1676 56.3998 53.9387 56.3998 53.7V47.4C56.3998 47.1613 56.4946 46.9324 56.6634 46.7636C56.8322 46.5948 57.0611 46.5 57.2998 46.5ZM67.1998 39.3C67.1998 39.5387 67.105 39.7676 66.9362 39.9364C66.7674 40.1052 66.5385 40.2 66.2998 40.2H56.3998V39.3C56.4025 38.9472 56.3342 38.5975 56.1991 38.2716C56.064 37.9456 55.8647 37.6502 55.6132 37.4028C55.3364 37.1195 55 36.9014 54.6284 36.7643C54.2568 36.6271 53.8594 36.5744 53.4649 36.6099C52.7806 36.6855 52.149 37.0132 51.6933 37.5292C51.2375 38.0452 50.9903 38.7124 50.9998 39.4008V40.2H46.4998C46.2611 40.2 46.0322 40.1052 45.8634 39.9364C45.6946 39.7676 45.5998 39.5387 45.5998 39.3V17.7C45.5998 17.4613 45.6946 17.2324 45.8634 17.0636C46.0322 16.8948 46.2611 16.8 46.4998 16.8H66.2998C66.5385 16.8 66.7674 16.8948 66.9362 17.0636C67.105 17.2324 67.1998 17.4613 67.1998 17.7V39.3Z" fill="#191B20" stroke="white" stroke-width="0.4" mask="url(#path-5-inside-1_414_3377)"></path>
  <path d="M59.6 28.4988V28.5V29.3125C59.6 29.5678 59.7014 29.8126 59.8819 29.9931C60.0624 30.1736 60.3072 30.275 60.5625 30.275C60.8178 30.275 61.0626 30.1736 61.2431 29.9931C61.4236 29.8126 61.525 29.5678 61.525 29.3125V28.5C61.525 27.5061 61.2303 26.5346 60.6781 25.7083C60.126 24.8819 59.3412 24.2378 58.423 23.8575C57.5048 23.4772 56.4944 23.3777 55.5197 23.5716C54.5449 23.7654 53.6495 24.244 52.9468 24.9468C52.244 25.6495 51.7654 26.5449 51.5716 27.5197C51.3777 28.4944 51.4772 29.5048 51.8575 30.423C52.2378 31.3412 52.8819 32.126 53.7083 32.6781C54.5346 33.2303 55.5061 33.525 56.5 33.525H59.75C59.9257 33.525 60.0942 33.5948 60.2184 33.719C60.3427 33.8433 60.4125 34.0118 60.4125 34.1875C60.4125 34.3632 60.3427 34.5317 60.2184 34.656C60.0942 34.7802 59.9257 34.85 59.75 34.85H56.5C54.8159 34.85 53.2007 34.181 52.0099 32.9901C50.819 31.7993 50.15 30.1841 50.15 28.5C50.15 26.8159 50.819 25.2007 52.0099 24.0099C53.2007 22.819 54.8158 22.15 56.4999 22.15C58.1835 22.1519 59.7975 22.8216 60.988 24.012C62.1784 25.2025 62.8481 26.8166 62.85 28.5002L62.85 29.3125L62.85 29.3132C62.852 29.7824 62.7091 30.2408 62.4406 30.6256C62.1722 31.0105 61.7914 31.303 61.3504 31.4632C60.9094 31.6234 60.4296 31.6434 59.9768 31.5205C59.5239 31.3977 59.1201 31.1379 58.8206 30.7767L58.7192 30.6545L58.6029 30.7627C58.076 31.2528 57.3962 31.5462 56.6781 31.5933C55.9599 31.6405 55.2476 31.4384 54.6611 31.0214C54.0746 30.6043 53.65 29.9977 53.4588 29.3039C53.2677 28.6101 53.3216 27.8716 53.6117 27.213C53.9018 26.5544 54.4101 26.016 55.051 25.6886C55.6919 25.3613 56.4261 25.265 57.1297 25.4161C57.8333 25.5672 58.4633 25.9564 58.9133 26.5179C59.3633 27.0795 59.6059 27.7791 59.6 28.4988ZM55.5139 29.9759C55.8057 30.1709 56.1489 30.275 56.5 30.275C56.9707 30.275 57.4222 30.088 57.7551 29.7551C58.088 29.4222 58.275 28.9708 58.275 28.5C58.275 28.1489 58.1709 27.8058 57.9758 27.5139C57.7808 27.222 57.5036 26.9945 57.1792 26.8601C56.8549 26.7258 56.498 26.6906 56.1537 26.7591C55.8094 26.8276 55.4931 26.9966 55.2449 27.2449C54.9966 27.4931 54.8276 27.8094 54.7591 28.1537C54.6906 28.498 54.7258 28.8549 54.8601 29.1793C54.9945 29.5036 55.222 29.7808 55.5139 29.9759Z" fill="#191B20" stroke="white" stroke-width="0.3"></path>
</svg>
