<?xml version="1.0" encoding="UTF-8"?>
<svg xmlns="http://www.w3.org/2000/svg" width="58" height="58" viewBox="0 0 58 58" fill="none">
  <path d="M50 21H44V9.75C43.9988 8.7558 43.6033 7.80267 42.9003 7.09966C42.1973 6.39666 41.2442 6.00119 40.25 6L20.75 6C19.7558 6.00119 18.8027 6.39666 18.0997 7.09966C17.3967 7.80267 17.0012 8.7558 17 9.75V12H11C10.2044 12 9.44129 12.3161 8.87868 12.8787C8.31607 13.4413 8 14.2044 8 15V28.5C8 29.2956 8.31607 30.0587 8.87868 30.6213C9.44129 31.1839 10.2044 31.5 11 31.5H12.5V34.155C12.4987 34.4953 12.5919 34.8292 12.7691 35.1197C12.9463 35.4102 13.2007 35.6458 13.5038 35.8003C13.807 35.9549 14.1471 36.0223 14.4862 35.995C14.8254 35.9678 15.1504 35.8469 15.425 35.646L17 34.5V47.25C17.0012 48.2442 17.3967 49.1973 18.0997 49.9003C18.8027 50.6033 19.7558 50.9988 20.75 51H40.25C41.2442 50.9988 42.1973 50.6033 42.9003 49.9003C43.6033 49.1973 43.9988 48.2442 44 47.25V40.5H50C50.7957 40.5 51.5587 40.1839 52.1213 39.6213C52.6839 39.0587 53 38.2957 53 37.5V24C53 23.2044 52.6839 22.4413 52.1213 21.8787C51.5587 21.3161 50.7957 21 50 21ZM26 7.5H35V8.25C35 8.44891 34.921 8.63968 34.7803 8.78033C34.6397 8.92098 34.4489 9 34.25 9H26.75C26.5511 9 26.3603 8.92098 26.2197 8.78033C26.079 8.63968 26 8.44891 26 8.25V7.5ZM18.5 9.75C18.5 9.15326 18.7371 8.58097 19.159 8.15901C19.581 7.73705 20.1533 7.5 20.75 7.5H24.5V8.25C24.5 8.84674 24.7371 9.41903 25.159 9.84099C25.581 10.2629 26.1533 10.5 26.75 10.5H34.25C34.8467 10.5 35.419 10.2629 35.841 9.84099C36.2629 9.41903 36.5 8.84674 36.5 8.25V7.5H40.25C40.8467 7.5 41.419 7.73705 41.841 8.15901C42.2629 8.58097 42.5 9.15326 42.5 9.75V21H32V15C32 14.2044 31.6839 13.4413 31.1213 12.8787C30.5587 12.3161 29.7956 12 29 12H18.5V9.75ZM14.5407 34.434C14.4908 34.4718 14.431 34.4946 14.3686 34.4995C14.3061 34.5044 14.2435 34.4913 14.1883 34.4618C14.131 34.4337 14.0829 34.39 14.0496 34.3357C14.0163 34.2814 13.9991 34.2187 14 34.155V30.75C14 30.5511 13.921 30.3603 13.7803 30.2197C13.6397 30.079 13.4489 30 13.25 30H11C10.6022 30 10.2206 29.842 9.93934 29.5607C9.65804 29.2794 9.5 28.8978 9.5 28.5V15C9.5 14.6022 9.65804 14.2206 9.93934 13.9393C10.2206 13.658 10.6022 13.5 11 13.5H29C29.3978 13.5 29.7794 13.658 30.0607 13.9393C30.342 14.2206 30.5 14.6022 30.5 15V21.417C30.0455 21.6783 29.6677 22.0544 29.4044 22.5078C29.1411 22.9611 29.0017 23.4757 29 24V30H20.8775C20.7188 29.9998 20.5641 30.05 20.4357 30.1433L14.5407 34.434ZM42.5 47.25C42.5 47.8467 42.2629 48.419 41.841 48.841C41.419 49.2629 40.8467 49.5 40.25 49.5H20.75C20.1533 49.5 19.581 49.2629 19.159 48.841C18.7371 48.419 18.5 47.8467 18.5 47.25V33.408L21.125 31.5H29V37.5C29 38.2957 29.3161 39.0587 29.8787 39.6213C30.4413 40.1839 31.2044 40.5 32 40.5H33.5V43.1543C33.4989 43.4945 33.5921 43.8284 33.7693 44.1188C33.9465 44.4092 34.2008 44.6448 34.5039 44.7994C34.807 44.9539 35.147 45.0214 35.4861 44.9944C35.8253 44.9673 36.1503 44.8467 36.425 44.646L42.125 40.5H42.5V47.25ZM51.5 37.5C51.5 37.8978 51.342 38.2794 51.0607 38.5607C50.7794 38.842 50.3978 39 50 39H41.8775C41.7188 38.9998 41.5641 39.05 41.4358 39.1432L35.5408 43.4333C35.491 43.4714 35.4312 43.4944 35.3686 43.4993C35.3061 43.5042 35.2434 43.4909 35.1882 43.461C35.1311 43.4329 35.083 43.3892 35.0497 43.3349C35.0164 43.2806 34.9991 43.218 35 43.1543V39.75C35 39.5511 34.921 39.3603 34.7803 39.2197C34.6397 39.079 34.4489 39 34.25 39H32C31.6022 39 31.2206 38.842 30.9393 38.5607C30.658 38.2794 30.5 37.8978 30.5 37.5V24C30.5 23.6022 30.658 23.2206 30.9393 22.9393C31.2206 22.658 31.6022 22.5 32 22.5H50C50.3978 22.5 50.7794 22.658 51.0607 22.9393C51.342 23.2206 51.5 23.6022 51.5 24V37.5Z" fill="#191B20"></path>
  <path d="M45.5 28.4997H45.2338C45.4926 27.7534 45.6355 26.9718 45.6575 26.1822C45.6588 25.8465 45.5819 25.5151 45.4326 25.2143C45.2834 24.9135 45.0661 24.6517 44.798 24.4497C44.5002 24.2212 44.1491 24.0723 43.7778 24.0172C43.4065 23.962 43.0273 24.0023 42.6759 24.1343C42.3246 24.2663 42.0126 24.4857 41.7695 24.7717C41.5264 25.0577 41.3602 25.4009 41.2865 25.7689C41.0722 26.7798 40.6042 27.7195 39.9268 28.4997H39.2915C39.1609 28.2724 38.9728 28.0835 38.7461 27.9518C38.5194 27.8202 38.2621 27.7505 38 27.7497H35C34.6022 27.7497 34.2206 27.9077 33.9393 28.189C33.658 28.4703 33.5 28.8519 33.5 29.2497V35.2497C33.5 35.6475 33.658 36.0291 33.9393 36.3104C34.2206 36.5917 34.6022 36.7497 35 36.7497H38C38.3831 36.7489 38.7512 36.6009 39.0282 36.3364L40.0033 36.9859C40.5046 37.3219 41.0947 37.5007 41.6983 37.4997H45.5C46.2957 37.4997 47.0587 37.1836 47.6213 36.621C48.1839 36.0584 48.5 35.2953 48.5 34.4997V31.4997C48.5 30.704 48.1839 29.941 47.6213 29.3784C47.0587 28.8158 46.2957 28.4997 45.5 28.4997ZM35 35.2497V29.2497H38V35.2497H35ZM47 34.4997C47 34.8975 46.842 35.2791 46.5607 35.5604C46.2794 35.8417 45.8978 35.9997 45.5 35.9997H41.6983C41.3909 36.0002 41.0903 35.9091 40.835 35.7379L39.5 34.8484V29.9997H40.25C40.4489 29.9997 40.6396 29.9206 40.7803 29.7799C41.7736 28.7655 42.4571 27.4888 42.7505 26.0997C42.769 25.9771 42.8193 25.8616 42.8963 25.7644C42.9733 25.6673 43.0744 25.592 43.1895 25.5461C43.3046 25.5001 43.4297 25.4851 43.5524 25.5025C43.6752 25.5199 43.7912 25.5691 43.889 25.6452C43.9755 25.7118 44.045 25.798 44.0917 25.8967C44.1384 25.9954 44.1609 26.1038 44.1575 26.2129C44.1167 27.1551 43.8696 28.0767 43.4338 28.9129C43.3763 29.0274 43.349 29.1546 43.3546 29.2826C43.3602 29.4105 43.3985 29.5349 43.4658 29.6438C43.5331 29.7528 43.6272 29.8427 43.7391 29.905C43.851 29.9673 43.9769 29.9999 44.105 29.9997H45.5C45.8978 29.9997 46.2794 30.1577 46.5607 30.439C46.842 30.7203 47 31.1019 47 31.4997V34.4997Z" fill="#191B20"></path>
  <path d="M26.7505 20.0438C26.788 18.946 26.3893 17.878 25.6416 17.0734C24.8939 16.2688 23.858 15.793 22.7605 15.75C22.2439 15.751 21.7329 15.8569 21.2585 16.0612C20.7841 16.2655 20.3561 16.5641 20.0005 16.9388C19.6449 16.5641 19.2169 16.2655 18.7424 16.0612C18.268 15.8569 17.757 15.751 17.2405 15.75C16.1429 15.793 15.107 16.2688 14.3593 17.0734C13.6116 17.878 13.213 18.946 13.2505 20.0438C13.2505 25.0898 19.4612 27.594 19.726 27.6982C19.9025 27.7673 20.0985 27.7673 20.275 27.6982C20.5397 27.594 26.7505 25.0898 26.7505 20.0438ZM20.0005 26.1825C18.883 25.6725 14.7505 23.5508 14.7505 20.0438C14.7133 19.3439 14.9541 18.6576 15.4205 18.1344C15.8868 17.6112 16.5409 17.2933 17.2405 17.25C17.6763 17.2589 18.1018 17.3845 18.4726 17.614C18.8433 17.8434 19.1456 18.1681 19.348 18.5543C19.4189 18.6626 19.5157 18.7515 19.6296 18.8131C19.7435 18.8746 19.871 18.9069 20.0005 18.9069C20.13 18.9069 20.2574 18.8746 20.3713 18.8131C20.4852 18.7515 20.582 18.6626 20.653 18.5543C20.8554 18.1681 21.1577 17.8434 21.5284 17.614C21.8991 17.3845 22.3246 17.2589 22.7605 17.25C23.46 17.2933 24.1141 17.6112 24.5805 18.1344C25.0468 18.6576 25.2876 19.3439 25.2505 20.0438C25.2505 23.5403 21.1165 25.671 20.0005 26.1825Z" fill="#191B20"></path>
  <path d="M35.75 46.5H25.25C25.0511 46.5 24.8603 46.579 24.7197 46.7197C24.579 46.8603 24.5 47.0511 24.5 47.25C24.5 47.4489 24.579 47.6397 24.7197 47.7803C24.8603 47.921 25.0511 48 25.25 48H35.75C35.9489 48 36.1397 47.921 36.2803 47.7803C36.421 47.6397 36.5 47.4489 36.5 47.25C36.5 47.0511 36.421 46.8603 36.2803 46.7197C36.1397 46.579 35.9489 46.5 35.75 46.5Z" fill="#191B20"></path>
</svg>
