<?xml version="1.0" encoding="UTF-8"?>
<svg xmlns="http://www.w3.org/2000/svg" width="85" height="84" viewBox="0 0 85 84" fill="none">
  <path d="M51.7841 13.95L51.7685 14.0121L51.4575 15.2541C51.4008 15.4815 51.2696 15.6834 51.0848 15.8277C50.9001 15.9719 50.6724 16.0502 50.438 16.05M51.7841 13.95L50.438 16M51.7841 13.95H51.72H34.28H34.2159L34.2315 14.0121L34.5425 15.2541M51.7841 13.95L34.5425 15.2541M50.438 16.05L50.438 16M50.438 16.05H50.438V16M50.438 16.05H35.562M50.438 16H35.562M35.562 16.05L35.562 16M35.562 16.05H35.562V16M35.562 16.05C35.3276 16.0502 35.0999 15.9719 34.9152 15.8277C34.7304 15.6834 34.5992 15.4816 34.5425 15.2541L35.562 16M51.72 14L51.7075 14.05H51.72V14ZM51.72 14L51.6715 13.9879L51.6685 14H51.72ZM34.28 14L34.3285 13.9879L34.3315 14H34.28ZM34.28 14V14.05H34.2925L34.28 14ZM34.5425 15.2541L34.591 15.242L34.5425 15.2541ZM26 57.95H25.95V58V67C25.95 67.8089 26.2713 68.5847 26.8433 69.1567C27.4153 69.7287 28.1911 70.05 29 70.05H57C57.8089 70.05 58.5847 69.7287 59.1567 69.1567C59.7287 68.5847 60.05 67.8089 60.05 67V58V57.95H60H26ZM25.95 56V56.05H26H60H60.05V56V32V31.95H60H26H25.95V32V56ZM32.2685 13.9879L32.2591 13.95H32.22H29C28.1911 13.95 27.4153 14.2713 26.8433 14.8433C26.2713 15.4153 25.95 16.1911 25.95 17V30V30.05H26H60H60.05V30V17C60.05 16.1911 59.7287 15.4153 59.1567 14.8433C58.5847 14.2713 57.8089 13.95 57 13.95H53.78H53.7409L53.7315 13.9879L53.3005 15.7159C53.1408 16.3541 52.7724 16.9207 52.2537 17.3255C51.7351 17.7303 51.096 17.9501 50.438 17.95H35.562C34.9041 17.9501 34.2649 17.7303 33.7463 17.3255C33.2276 16.9207 32.8592 16.3541 32.6995 15.7159L32.2685 13.9879ZM60.4984 70.4984C59.5705 71.4264 58.3123 71.9484 56.9999 71.95H29.0001C27.6877 71.9484 26.4296 71.4264 25.5016 70.4984C24.5736 69.5704 24.0516 68.3123 24.05 66.9999L24.05 17C24.0516 15.6877 24.5736 14.4295 25.5016 13.5016C26.4296 12.5736 27.6877 12.0516 29.0001 12.05L57 12.05C58.3123 12.0516 59.5705 12.5736 60.4984 13.5016C61.4264 14.4296 61.9484 15.6877 61.95 17.0001V66.9999C61.9484 68.3123 61.4264 69.5704 60.4984 70.4984Z" fill="#191B20" stroke="white" stroke-width="0.1"></path>
  <path d="M33.6389 26.4528C33.1538 26.777 32.5835 26.95 32 26.95C31.2176 26.95 30.4673 26.6392 29.914 26.086C29.3608 25.5327 29.05 24.7824 29.05 24C29.05 23.4165 29.223 22.8462 29.5472 22.3611C29.8713 21.8759 30.332 21.4978 30.8711 21.2746C31.4101 21.0513 32.0033 20.9929 32.5755 21.1067C33.1478 21.2205 33.6734 21.5015 34.086 21.914C34.4985 22.3266 34.7795 22.8522 34.8933 23.4245C35.0071 23.9967 34.9487 24.5899 34.7254 25.1289C34.5022 25.668 34.1241 26.1287 33.6389 26.4528ZM32.5833 23.127C32.4107 23.0116 32.2077 22.95 32 22.95C31.7215 22.95 31.4545 23.0606 31.2575 23.2575C31.0606 23.4545 30.95 23.7215 30.95 24C30.95 24.2077 31.0116 24.4107 31.127 24.5834C31.2423 24.756 31.4063 24.8906 31.5982 24.9701C31.79 25.0495 32.0012 25.0703 32.2048 25.0298C32.4085 24.9893 32.5956 24.8893 32.7425 24.7425C32.8893 24.5956 32.9893 24.4085 33.0298 24.2048C33.0703 24.0012 33.0495 23.79 32.9701 23.5982C32.8906 23.4063 32.756 23.2423 32.5833 23.127Z" fill="#191B20" stroke="white" stroke-width="0.1"></path>
  <path d="M30.3611 61.547C30.8462 61.2229 31.4165 61.0499 32 61.0499C32.7824 61.0499 33.5327 61.3607 34.086 61.9139C34.6392 62.4671 34.95 63.2175 34.95 63.9999C34.95 64.5833 34.777 65.1537 34.4528 65.6388C34.1287 66.1239 33.668 66.502 33.1289 66.7253C32.5899 66.9486 31.9967 67.007 31.4245 66.8932C30.8522 66.7794 30.3266 66.4984 29.914 66.0858C29.5015 65.6733 29.2205 65.1476 29.1067 64.5754C28.9929 64.0031 29.0513 63.41 29.2746 62.871C29.4978 62.3319 29.8759 61.8712 30.3611 61.547ZM31.4167 64.8729C31.5893 64.9883 31.7923 65.0499 32 65.0499C32.2785 65.0499 32.5456 64.9393 32.7425 64.7423C32.9394 64.5454 33.05 64.2784 33.05 63.9999C33.05 63.7922 32.9884 63.5892 32.873 63.4165C32.7577 63.2439 32.5937 63.1093 32.4018 63.0298C32.21 62.9503 31.9988 62.9295 31.7952 62.9701C31.5915 63.0106 31.4044 63.1106 31.2575 63.2574C31.1107 63.4043 31.0107 63.5914 30.9702 63.795C30.9297 63.9987 30.9505 64.2098 31.0299 64.4017C31.1094 64.5936 31.244 64.7575 31.4167 64.8729Z" fill="#191B20" stroke="white" stroke-width="0.1"></path>
  <path d="M55.05 52.0502H55H31H30.95V52.0002V50.3232V50.323C30.9509 50.0448 31.0614 49.7781 31.2576 49.5809L31.2577 49.5808L35.9647 44.8738L36 44.8384L36.0354 44.8738L38.5788 47.4172C38.968 47.7825 39.4815 47.9863 40.0152 47.9871C40.2805 47.9785 40.5413 47.9162 40.7817 47.8038C41.0224 47.6913 41.2378 47.5311 41.4146 47.3329L55.05 52.0502ZM55.05 52.0502V52.0002M55.05 52.0502V52.0002M55.05 52.0002V48.2552V48.2551M55.05 52.0002V48.2551M55.05 48.2551C55.0498 47.998 54.9553 47.75 54.7844 47.5579L55.05 48.2551ZM39.9217 46.0735L39.9592 46.111L39.9944 46.0714L46.5428 38.705C46.7308 38.508 46.9567 38.3511 47.2071 38.2439C47.4576 38.1366 47.7274 38.0813 48 38.0813C48.2726 38.0813 48.5424 38.1366 48.793 38.2439C49.0433 38.3511 49.2693 38.508 49.4572 38.705L56.2046 46.2964L56.242 46.2632L56.2046 46.2964C56.6845 46.8361 56.9497 47.533 56.95 48.2552V52.0002C56.95 52.5173 56.7446 53.0133 56.3789 53.379C56.0132 53.7447 55.5172 53.9502 55 53.9502H31C30.4828 53.9502 29.9869 53.7447 29.6212 53.379C29.2555 53.0133 29.05 52.5173 29.05 52.0002L29.05 50.3232L29.05 50.323C29.0488 49.9352 29.1245 49.551 29.2729 49.1927C29.4212 48.8343 29.6392 48.509 29.9143 48.2356L29.9143 48.2355L34.6213 43.5355L34.6214 43.5355C34.987 43.1699 35.4829 42.9646 36 42.9646C36.5171 42.9646 37.013 43.1699 37.3787 43.5355L37.3787 43.5355L39.9217 46.0735ZM47.9626 39.9669L41.4147 47.3329L54.7844 47.5579L48.0374 39.9669L48 39.9249L47.9626 39.9669Z" fill="#191B20" stroke="white" stroke-width="0.1"></path>
  <path d="M34.4167 41.3687C33.8494 41.7478 33.1823 41.9501 32.5 41.9501C31.585 41.9501 30.7075 41.5866 30.0605 40.9396C29.4135 40.2926 29.05 39.4151 29.05 38.5001C29.05 37.8178 29.2523 37.1508 29.6314 36.5834C30.0105 36.0161 30.5493 35.5739 31.1797 35.3127C31.8101 35.0516 32.5038 34.9833 33.1731 35.1164C33.8423 35.2495 34.457 35.5781 34.9395 36.0606C35.422 36.5431 35.7506 37.1578 35.8837 37.8271C36.0168 38.4963 35.9485 39.19 35.6874 39.8204C35.4263 40.4508 34.9841 40.9896 34.4167 41.3687ZM33.3611 37.2113C33.1062 37.041 32.8066 36.9501 32.5 36.9501C32.0889 36.9501 31.6947 37.1134 31.404 37.4041C31.1133 37.6948 30.95 38.089 30.95 38.5001C30.95 38.8067 31.0409 39.1064 31.2112 39.3613C31.3815 39.6162 31.6236 39.8148 31.9068 39.9321C32.1901 40.0495 32.5017 40.0801 32.8024 40.0203C33.1031 39.9605 33.3792 39.8129 33.596 39.5961C33.8128 39.3794 33.9604 39.1032 34.0202 38.8025C34.08 38.5018 34.0493 38.1902 33.932 37.907C33.8147 37.6237 33.616 37.3817 33.3611 37.2113Z" fill="#191B20" stroke="white" stroke-width="0.1"></path>
  <path d="M47 22.95H39C38.748 22.95 38.5064 22.8499 38.3282 22.6718C38.1501 22.4936 38.05 22.252 38.05 22C38.05 21.748 38.1501 21.5064 38.3282 21.3282C38.5064 21.1501 38.748 21.05 39 21.05H47C47.252 21.05 47.4936 21.1501 47.6718 21.3282C47.8499 21.5064 47.95 21.748 47.95 22C47.95 22.252 47.8499 22.4936 47.6718 22.6718C47.4936 22.8499 47.252 22.95 47 22.95Z" fill="#191B20" stroke="white" stroke-width="0.1"></path>
  <path d="M44 26.9501H39C38.748 26.9501 38.5064 26.85 38.3282 26.6719C38.1501 26.4937 38.05 26.2521 38.05 26.0001C38.05 25.7482 38.1501 25.5065 38.3282 25.3284C38.5064 25.1502 38.748 25.0501 39 25.0501H44C44.252 25.0501 44.4936 25.1502 44.6718 25.3284C44.8499 25.5065 44.95 25.7482 44.95 26.0001C44.95 26.2521 44.8499 26.4937 44.6718 26.6719C44.4936 26.85 44.252 26.9501 44 26.9501Z" fill="#191B20" stroke="white" stroke-width="0.1"></path>
  <path d="M39 61.0499H47C47.252 61.0499 47.4936 61.15 47.6718 61.3281C47.8499 61.5063 47.95 61.7479 47.95 61.9999C47.95 62.2518 47.8499 62.4935 47.6718 62.6716C47.4936 62.8498 47.252 62.9499 47 62.9499H39C38.748 62.9499 38.5064 62.8498 38.3282 62.6716C38.1501 62.4935 38.05 62.2518 38.05 61.9999C38.05 61.7479 38.1501 61.5063 38.3282 61.3281C38.5064 61.15 38.748 61.0499 39 61.0499Z" fill="#191B20" stroke="white" stroke-width="0.1"></path>
  <path d="M39 65.0499H44C44.252 65.0499 44.4936 65.15 44.6718 65.3281C44.8499 65.5063 44.95 65.7479 44.95 65.9999C44.95 66.2518 44.8499 66.4935 44.6718 66.6716C44.4936 66.8498 44.252 66.9499 44 66.9499H39C38.748 66.9499 38.5064 66.8498 38.3282 66.6716C38.1501 66.4935 38.05 66.2518 38.05 65.9999C38.05 65.7479 38.1501 65.5063 38.3282 65.3281C38.5064 65.15 38.748 65.0499 39 65.0499Z" fill="#191B20" stroke="white" stroke-width="0.1"></path>
</svg>
