<?xml version="1.0" encoding="UTF-8"?>
<svg xmlns="http://www.w3.org/2000/svg" width="45" height="45" viewBox="0 0 45 45" fill="none">
  <path d="M22.5007 37.7419C21.3002 37.7419 20.3232 38.7189 20.3232 39.9194C20.3232 41.1198 21.3002 42.0968 22.5007 42.0968C23.7011 42.0968 24.6781 41.1198 24.6781 39.9194C24.6781 38.7189 23.7011 37.7419 22.5007 37.7419ZM22.5007 40.6452C22.1007 40.6452 21.7749 40.3193 21.7749 39.9194C21.7749 39.5194 22.1007 39.1936 22.5007 39.1936C22.9006 39.1936 23.2265 39.5194 23.2265 39.9194C23.2265 40.3193 22.9006 40.6452 22.5007 40.6452Z" fill="#191B20"></path>
  <path d="M41.371 12.3387H34.8387V5.08065C34.8387 2.27903 32.5597 0 29.7581 0H15.2419C12.4403 0 10.1613 2.27903 10.1613 5.08065V7.25806H0.725806C0.325161 7.25806 0 7.58323 0 7.98387V18.1452C0 18.5458 0.325161 18.871 0.725806 18.871H10.1613V26.129H2.17742C0.976936 26.129 0 27.106 0 28.3065V37.0161C0 38.2166 0.976936 39.1936 2.17742 39.1936H10.1613V39.9194C10.1613 42.721 12.4403 45 15.2419 45H29.7581C32.5597 45 34.8387 42.721 34.8387 39.9194V26.8548H41.371C43.372 26.8548 45 25.2269 45 23.2258V15.9677C45 13.9667 43.372 12.3387 41.371 12.3387ZM15.2419 1.45161H29.7581C31.5102 1.45161 32.9763 2.70073 33.3138 4.35484H11.6862C12.0237 2.70073 13.4898 1.45161 15.2419 1.45161ZM13.1727 8.70968L7.98387 12.8613L2.79508 8.7104H13.1727V8.70968ZM1.45161 9.49428L7.53024 14.3572C7.66306 14.4631 7.82274 14.5161 7.98387 14.5161C8.145 14.5161 8.30468 14.4631 8.4375 14.3572L14.5161 9.49428V17.4201H1.45161V9.49428ZM11.6129 18.871H15.2419C15.6426 18.871 15.9677 18.5458 15.9677 18.1452V7.98387C15.9677 7.58323 15.6426 7.25806 15.2419 7.25806H11.6129V5.80645H33.3871V12.412C31.733 12.7495 30.4839 14.2149 30.4839 15.9677V23.2258C30.4839 24.9779 31.733 26.444 33.3871 26.7815V34.8387H17.4194V33.8356L19.9212 32.5844C20.1673 32.4617 20.3226 32.2106 20.3226 31.9355C20.3226 31.6604 20.1673 31.4093 19.9212 31.2859L17.4194 30.0353V28.3065C17.4194 27.106 16.4424 26.129 15.2419 26.129H11.6129V18.871ZM1.45161 37.0161V28.3065C1.45161 27.9065 1.7775 27.5806 2.17742 27.5806H15.2419C15.6419 27.5806 15.9677 27.9065 15.9677 28.3065V30.4839C15.9677 30.759 16.1231 31.0101 16.3691 31.1335L17.9739 31.9355L16.3691 32.7375C16.1231 32.8609 15.9677 33.112 15.9677 33.3871V37.0161C15.9677 37.416 15.6419 37.7419 15.2419 37.7419H2.17742C1.7775 37.7419 1.45161 37.4168 1.45161 37.0161ZM29.7581 43.5484H15.2419C13.2409 43.5484 11.6129 41.9204 11.6129 39.9194V39.1936H15.2419C16.4424 39.1936 17.4194 38.2166 17.4194 37.0161V36.2903H33.3871V39.9194C33.3871 41.9204 31.7591 43.5484 29.7581 43.5484ZM43.5484 23.2258C43.5484 24.4263 42.5715 25.4032 41.371 25.4032H34.1129C32.9124 25.4032 31.9355 24.4263 31.9355 23.2258V15.9677C31.9355 14.7673 32.9124 13.7903 34.1129 13.7903H41.371C42.5715 13.7903 43.5484 14.7673 43.5484 15.9677V23.2258Z" fill="#191B20"></path>
  <path d="M37.7423 16.6936C35.7413 16.6936 34.1133 18.3216 34.1133 20.3226C34.1133 22.3237 35.7413 23.9517 37.7423 23.9517C39.7434 23.9517 41.3713 22.3237 41.3713 20.3226C41.3713 18.3216 39.7434 16.6936 37.7423 16.6936ZM37.7423 22.5001C36.5418 22.5001 35.5649 21.5231 35.5649 20.3226C35.5649 19.1222 36.5418 18.1452 37.7423 18.1452C38.9428 18.1452 39.9197 19.1222 39.9197 20.3226C39.9197 21.5231 38.9428 22.5001 37.7423 22.5001Z" fill="#191B20"></path>
  <path d="M40.6455 15.2419H42.0971V16.6936H40.6455V15.2419Z" fill="#191B20"></path>
  <path d="M2.90332 29.0322H14.5162V30.4838H2.90332V29.0322Z" fill="#191B20"></path>
  <path d="M4.35449 31.9355H13.0642V33.3872H4.35449V31.9355Z" fill="#191B20"></path>
  <path d="M2.90332 34.8386H14.5162V36.2902H2.90332V34.8386Z" fill="#191B20"></path>
</svg>
