<?xml version="1.0" encoding="UTF-8"?>
<svg xmlns="http://www.w3.org/2000/svg" width="85" height="84" viewBox="0 0 85 84" fill="none">
  <path d="M25.9238 15.0961H25.8238V15.1961V16.2941C25.8238 16.6119 25.95 16.9166 26.1746 17.1413C26.3993 17.3659 26.7041 17.4922 27.0218 17.4922H33.61C33.9278 17.4922 34.2325 17.3659 34.4572 17.1413C34.6818 16.9166 34.8081 16.6119 34.8081 16.2941V15.1961V15.0961H34.7081H25.9238ZM23.8277 15.1961V15.0961H23.7277H18.2375C17.9197 15.0961 17.615 15.2223 17.3903 15.447C17.1657 15.6717 17.0394 15.9764 17.0394 16.2941V65.7059C17.0394 66.0236 17.1657 66.3284 17.3903 66.553C17.615 66.7777 17.9197 66.9039 18.2375 66.9039H42.3943C42.7121 66.9039 43.0168 66.7777 43.2415 66.553C43.4662 66.3284 43.5924 66.0236 43.5924 65.7059V16.2941C43.5924 15.9764 43.4662 15.6717 43.2415 15.447C43.0168 15.2223 42.7121 15.0961 42.3943 15.0961H36.9041H36.8041V15.1961V16.2941C36.8041 17.1413 36.4676 17.9537 35.8686 18.5527C35.2696 19.1517 34.4572 19.4882 33.61 19.4882H27.0218C26.1747 19.4882 25.3622 19.1517 24.7632 18.5527C24.1642 17.9537 23.8277 17.1413 23.8277 16.2941V15.1961ZM18.2375 13.1H42.3943C43.2415 13.1 44.0539 13.4365 44.6529 14.0355C45.2519 14.6345 45.5885 15.447 45.5885 16.2941V65.7059C45.5885 66.553 45.2519 67.3655 44.6529 67.9645C44.0539 68.5635 43.2415 68.9 42.3943 68.9H18.2375C17.3903 68.9 16.5779 68.5635 15.9789 67.9645C15.3799 67.3655 15.0434 66.553 15.0434 65.7059V16.2941C15.0434 15.447 15.3799 14.6345 15.9789 14.0355C16.5779 13.4365 17.3903 13.1 18.2375 13.1Z" fill="#191B20" stroke="white" stroke-width="0.2"></path>
  <path d="M60.4342 40.431L60.512 40.5285L60.5902 40.4314C61.6077 39.1692 63.3542 36.8617 64.8469 34.2932C66.337 31.7291 67.5849 28.8871 67.5849 26.5608C67.5849 22.3537 64.5467 19.1698 60.5124 19.1698C56.4781 19.1698 53.4398 22.3537 53.4398 26.5608C53.4398 28.8872 54.6933 31.7292 56.1862 34.2933C57.6816 36.8618 59.428 39.1692 60.4342 40.431ZM69.581 26.5608C69.581 28.1795 69.0863 29.9756 68.3336 31.7698C67.5813 33.563 66.5739 35.3481 65.5546 36.9431C63.5164 40.1327 61.4354 42.5549 61.2657 42.7519C61.1721 42.8597 61.0564 42.9461 60.9265 43.0053C60.7965 43.0646 60.6553 43.0953 60.5124 43.0953C60.3695 43.0953 60.2283 43.0646 60.0983 43.0053C59.9683 42.9461 59.8526 42.8596 59.7589 42.7518C59.5885 42.5539 57.508 40.132 55.4702 36.9431C54.4509 35.3481 53.4435 33.563 52.6912 31.7698C51.9384 29.9756 51.4438 28.1795 51.4438 26.5608C51.4438 21.2873 55.4265 17.1737 60.5124 17.1737C65.5983 17.1737 69.581 21.2928 69.581 26.5608Z" fill="#191B20" stroke="white" stroke-width="0.2"></path>
  <path d="M58.0785 26.4347L58.0785 26.4349C58.0815 27.0788 58.339 27.6953 58.7948 28.15C59.2506 28.6047 59.8678 28.8608 60.5116 28.8623H60.5118C60.9933 28.8623 61.464 28.7194 61.8643 28.4518C62.2646 28.1842 62.5765 27.8038 62.7605 27.3588C62.9445 26.9139 62.9923 26.4243 62.898 25.9521C62.8036 25.4799 62.5713 25.0464 62.2304 24.7063C61.8895 24.3662 61.4554 24.1349 60.983 24.0417C60.5106 23.9484 60.0212 23.9974 59.5767 24.1825C59.1321 24.3675 58.7525 24.6803 58.4858 25.0812C58.2191 25.4821 58.0774 25.9532 58.0785 26.4347ZM64.1974 23.972C64.6834 24.7011 64.9423 25.558 64.9412 26.4343C64.9384 27.6077 64.4706 28.7321 63.6404 29.5613C62.8102 30.3905 61.6851 30.8569 60.5117 30.8584C59.6355 30.8583 58.7789 30.5984 58.0504 30.1115C57.3219 29.6245 56.7542 28.9325 56.4191 28.1228C56.084 27.3131 55.9966 26.4222 56.1679 25.5628C56.3393 24.7035 56.7617 23.9142 57.3817 23.295C58.0017 22.6757 58.7914 22.2543 59.651 22.084C60.5106 21.9137 61.4013 22.0022 62.2106 22.3383C63.0199 22.6743 63.7113 23.2429 64.1974 23.972Z" fill="#191B20" stroke="white" stroke-width="0.2"></path>
  <path d="M73.9453 54.4563H73.9445L73.9461 54.4687C74.0173 55.041 74.117 55.9772 74.1334 56.9006C74.1416 57.3623 74.1289 57.8188 74.0819 58.224C74.0347 58.6309 73.9537 58.9784 73.8296 59.2265L73.8291 59.2275C73.6848 59.5244 73.4556 59.9552 73.1851 60.3323C73.0499 60.5208 72.9059 60.6936 72.7588 60.829C72.6114 60.9648 72.4664 61.0578 72.329 61.096C71.1087 61.3962 69.8589 61.5608 68.6025 61.5869L68.552 61.588L68.5229 61.6292C68.056 62.2902 67.4373 62.8295 66.7188 63.2017C66.0002 63.5739 65.2028 63.7682 64.3936 63.7682C63.5843 63.7682 62.7869 63.5739 62.0684 63.2017C61.3498 62.8295 60.7311 62.2902 60.2643 61.6292L60.2338 61.5861L60.181 61.5869L48.9826 61.7626C48.9823 61.7626 48.9821 61.7626 48.9819 61.7626C48.7174 61.7624 48.4639 61.6573 48.2769 61.4703C48.0897 61.2831 47.9845 61.0293 47.9845 60.7646C47.9845 60.4999 48.0897 60.246 48.2769 60.0588C48.464 59.8717 48.7179 59.7665 48.9826 59.7665L48.9841 59.7665L59.3167 59.6073L59.4319 59.6055L59.4139 59.4917C59.3 58.7716 59.3429 58.0354 59.5396 57.3334C59.7362 56.6314 60.0821 55.9801 60.5536 55.4241C61.025 54.868 61.6109 54.4202 62.2712 54.1113C62.9316 53.8024 63.6508 53.6396 64.3799 53.6341C65.1089 53.6286 65.8305 53.7805 66.4954 54.0795C67.1603 54.3784 67.7529 54.8173 68.2327 55.3663C68.7124 55.9152 69.068 56.5612 69.2753 57.2602C69.4825 57.9591 69.5364 58.6946 69.4334 59.4163L69.4157 59.5404L69.5406 59.5301C70.1981 59.4757 70.8514 59.3798 71.4967 59.2428L71.5349 59.2347L71.5575 59.2028C71.7478 58.9341 71.9159 58.6503 72.0599 58.3542L72.0603 58.3544L72.0635 58.346C72.1005 58.2485 72.1227 58.1029 72.1359 57.9315C72.1493 57.7574 72.1541 57.5472 72.1525 57.3149C72.1491 56.8501 72.1196 56.2916 72.0787 55.7466C72.0377 55.2014 71.9853 54.6682 71.9358 54.2538C71.911 54.0466 71.8869 53.8685 71.8653 53.733C71.8545 53.6653 71.8442 53.6075 71.8345 53.5616C71.8254 53.5182 71.8155 53.4783 71.8042 53.4513L71.7933 53.4254L71.7706 53.409C71.3331 53.0929 70.5313 52.7307 69.5478 52.3555C68.5609 51.9791 67.3807 51.5859 66.1789 51.2095C64.3128 50.6252 62.3906 50.0804 61.0547 49.7017C60.6701 49.5927 60.3341 49.4975 60.062 49.4191L60.0059 49.4029L59.9642 49.4438C59.3573 50.0402 58.5884 50.4448 57.7533 50.6073C54.7828 50.8465 51.796 50.7914 48.8364 50.4427C48.572 50.404 48.3336 50.262 48.1737 50.0478C48.0135 49.8333 47.9451 49.5639 47.9835 49.2989C48.0219 49.0339 48.164 48.7951 48.3786 48.6349C48.593 48.4747 48.8624 48.4063 49.1273 48.4447C50.0779 48.5856 51.9658 48.7106 53.7445 48.7497C54.6345 48.7693 55.4992 48.7675 56.2076 48.7352C56.5617 48.719 56.878 48.6952 57.1394 48.6624C57.3987 48.6299 57.6113 48.5878 57.7538 48.5323L57.9511 48.4554L57.7664 48.3519C57.3382 48.1118 56.8978 47.8618 56.4522 47.6089C55.2289 46.9145 53.966 46.1977 52.809 45.6023C52.0194 45.196 51.2765 44.8449 50.6265 44.5951C49.979 44.3463 49.4136 44.194 48.9826 44.194C48.7179 44.194 48.464 44.0888 48.2769 43.9017C48.0897 43.7145 47.9845 43.4606 47.9845 43.1959C47.9845 42.9312 48.0897 42.6774 48.2769 42.4902C48.464 42.3031 48.7179 42.1979 48.9826 42.1979C50.0278 42.1979 51.3586 42.6682 53.1501 43.5506C54.7291 44.3283 56.6532 45.4192 59.0386 46.7718C59.355 46.9512 59.6796 47.1352 60.0125 47.3237L60.0228 47.3295L60.0341 47.3328C60.4464 47.4518 60.9369 47.5899 61.4826 47.7435C63.131 48.2076 65.2839 48.8136 67.3133 49.4649C68.6638 49.8982 69.9571 50.3508 71.0086 50.7939C71.5343 51.0154 71.9981 51.2339 72.3777 51.4458C72.7584 51.6583 73.0488 51.8611 73.2323 52.0498C73.5321 52.3627 73.712 52.8235 73.816 53.2836C73.9196 53.7418 73.9453 54.187 73.9453 54.4563ZM62.6958 61.2521C63.2016 61.5901 63.7962 61.7704 64.4045 61.7704C65.2203 61.7704 66.0026 61.4464 66.5794 60.8696C67.1562 60.2928 67.4802 59.5105 67.4802 58.6948C67.4802 58.0865 67.2998 57.4918 66.9619 56.986C66.6239 56.4802 66.1436 56.086 65.5816 55.8532C65.0195 55.6204 64.4011 55.5595 63.8045 55.6782C63.2079 55.7969 62.6598 56.0898 62.2297 56.5199C61.7996 56.9501 61.5066 57.4981 61.3879 58.0947C61.2693 58.6913 61.3302 59.3098 61.563 59.8718C61.7958 60.4338 62.19 60.9141 62.6958 61.2521Z" fill="#191B20" stroke="white" stroke-width="0.2"></path>
  <path d="M24.2715 32.6284C26.0608 31.4328 28.1644 30.7947 30.3163 30.7947C33.202 30.7947 35.9695 31.941 38.0099 33.9815C40.0504 36.022 41.1967 38.7894 41.1967 41.6751C41.1967 43.827 40.5586 45.9306 39.363 47.7199C38.1675 49.5092 36.4682 50.9038 34.4801 51.7273C32.4919 52.5508 30.3043 52.7662 28.1937 52.3464C26.0831 51.9266 24.1444 50.8903 22.6227 49.3687C21.1011 47.847 20.0648 45.9083 19.645 43.7978C19.2252 41.6872 19.4407 39.4995 20.2642 37.5113C21.0877 35.5232 22.4822 33.8239 24.2715 32.6284ZM25.3805 49.0621C26.8415 50.0384 28.5592 50.5594 30.3163 50.5594C32.6726 50.5594 34.9324 49.6234 36.5985 47.9573C38.2646 46.2911 39.2006 44.0314 39.2006 41.6751C39.2006 39.9179 38.6796 38.2003 37.7034 36.7392C36.7271 35.2782 35.3396 34.1395 33.7162 33.4671C32.0928 32.7946 30.3065 32.6187 28.5831 32.9615C26.8597 33.3043 25.2767 34.1504 24.0342 35.3929C22.7917 36.6354 21.9455 38.2185 21.6027 39.9419C21.2599 41.6652 21.4359 43.4516 22.1083 45.075C22.7807 46.6984 23.9195 48.0859 25.3805 49.0621Z" fill="#191B20" stroke="white" stroke-width="0.2"></path>
  <path d="M29.1467 42.91L29.2176 42.9808L29.2883 42.9099L33.9037 38.2781H33.9146L33.9439 38.2488C34.0366 38.1561 34.1467 38.0825 34.2678 38.0323C34.389 37.9822 34.5189 37.9563 34.65 37.9563C34.7812 37.9563 34.911 37.9822 35.0322 38.0323C35.1533 38.0825 35.2634 38.1561 35.3562 38.2488C35.4489 38.3416 35.5225 38.4516 35.5726 38.5728C35.6228 38.694 35.6487 38.8238 35.6487 38.955C35.6487 39.0861 35.6228 39.216 35.5726 39.3371C35.5225 39.4583 35.4489 39.5684 35.3562 39.6611L29.9209 45.0964L29.9208 45.0965C29.8281 45.1893 29.7181 45.2629 29.5969 45.3131C29.4757 45.3633 29.3459 45.3892 29.2147 45.3892C29.0836 45.3892 28.9537 45.3633 28.8325 45.3131C28.7114 45.2629 28.6013 45.1893 28.5086 45.0965L28.5086 45.0964L25.2968 41.8847C25.1095 41.6974 25.0043 41.4434 25.0043 41.1785C25.0043 40.9136 25.1095 40.6596 25.2968 40.4724C25.4841 40.2851 25.7381 40.1799 26.0029 40.1799C26.2678 40.1799 26.5218 40.2851 26.7091 40.4724L29.1467 42.91Z" fill="#191B20" stroke="white" stroke-width="0.2"></path>
</svg>
