<?xml version="1.0" encoding="UTF-8"?>
<svg xmlns="http://www.w3.org/2000/svg" width="85" height="84" viewBox="0 0 85 84" fill="none">
  <path d="M66.585 40.8505C67.8957 39.9598 68.8863 38.6723 69.4114 37.1771C69.9365 35.6818 69.9684 34.0577 69.5024 32.543C69.0365 31.0283 68.0972 29.7029 66.8224 28.7614C65.5477 27.8199 64.0047 27.3118 62.42 27.3118C60.8353 27.3118 59.2923 27.8199 58.0176 28.7614C56.7428 29.7029 55.8035 31.0283 55.3376 32.543C54.8716 34.0577 54.9035 35.6818 55.4286 37.1771C55.9537 38.6723 56.9443 39.9598 58.255 40.8505C56.9058 41.3227 55.6475 42.0229 54.535 42.9205C52.6249 41.2541 50.3768 40.0209 47.945 39.3055C49.9168 38.2104 51.4691 36.4915 52.3582 34.4187C53.2473 32.3458 53.4228 30.0364 52.8572 27.853C52.2916 25.6696 51.0169 23.7358 49.2333 22.3554C47.4496 20.9749 45.258 20.2258 43.0025 20.2258C40.747 20.2258 38.5554 20.9749 36.7717 22.3554C34.9881 23.7358 33.7134 25.6696 33.1478 27.853C32.5822 30.0364 32.7577 32.3458 33.6468 34.4187C34.5359 36.4915 36.0882 38.2104 38.06 39.3055C35.6282 40.0209 33.3801 41.2541 31.47 42.9205C30.3575 42.0229 29.0992 41.3227 27.75 40.8505C29.0622 39.9596 30.0542 38.6714 30.5803 37.1751C31.1063 35.6788 31.1387 34.0532 30.6727 32.5371C30.2067 31.021 29.2668 29.6943 27.9911 28.7518C26.7154 27.8093 25.1711 27.3008 23.585 27.3008C21.9989 27.3008 20.4546 27.8093 19.1789 28.7518C17.9032 29.6943 16.9633 31.021 16.4973 32.5371C16.0313 34.0532 16.0637 35.6788 16.5897 37.1751C17.1158 38.6714 18.1078 39.9596 19.42 40.8505C16.964 41.7149 14.8359 43.3187 13.3283 45.4415C11.8206 47.5642 11.0072 50.1018 11 52.7055C11 52.9707 11.1054 53.2251 11.2929 53.4126C11.4804 53.6001 11.7348 53.7055 12 53.7055C12.2652 53.7055 12.5196 53.6001 12.7071 53.4126C12.8946 53.2251 13 52.9707 13 52.7055C13.0038 50.732 13.5593 48.7989 14.6037 47.1243C15.6481 45.4498 17.1398 44.1006 18.9104 43.2291C20.6811 42.3576 22.6601 41.9984 24.6241 42.1921C26.5881 42.3859 28.4588 43.1248 30.025 44.3255C27.0558 47.5591 25.4103 51.7905 25.415 56.1805C25.415 56.4457 25.5204 56.7001 25.7079 56.8876C25.8954 57.0751 26.1498 57.1805 26.415 57.1805C26.6802 57.1805 26.9346 57.0751 27.1221 56.8876C27.3096 56.7001 27.415 56.4457 27.415 56.1805C27.4882 52.0961 29.1621 48.2037 32.0764 45.3411C34.9907 42.4785 38.9124 40.8746 42.9975 40.8746C47.0826 40.8746 51.0043 42.4785 53.9186 45.3411C56.8329 48.2037 58.5068 52.0961 58.58 56.1805C58.58 56.4457 58.6854 56.7001 58.8729 56.8876C59.0604 57.0751 59.3148 57.1805 59.58 57.1805C59.8452 57.1805 60.0996 57.0751 60.2871 56.8876C60.4746 56.7001 60.58 56.4457 60.58 56.1805C60.5847 51.7905 58.9392 47.5591 55.97 44.3255C57.5362 43.1233 59.4074 42.3832 61.3722 42.1887C63.3369 41.9941 65.3169 42.353 67.0884 43.2247C68.86 44.0964 70.3524 45.4462 71.397 47.1216C72.4416 48.797 72.9969 50.7311 73 52.7055C73 52.9707 73.1054 53.2251 73.2929 53.4126C73.4804 53.6001 73.7348 53.7055 74 53.7055C74.2652 53.7055 74.5196 53.6001 74.7071 53.4126C74.8946 53.2251 75 52.9707 75 52.7055C74.9931 50.1024 74.1805 47.5653 72.6738 45.4426C71.167 43.3199 69.0401 41.7158 66.585 40.8505V40.8505ZM18.17 34.7055C18.173 33.6352 18.4931 32.5897 19.0899 31.7012C19.6867 30.8127 20.5334 30.1209 21.5231 29.7134C22.5129 29.3058 23.6012 29.2008 24.6506 29.4114C25.7 29.622 26.6635 30.1389 27.4193 30.8968C28.1751 31.6547 28.6893 32.6196 28.897 33.6696C29.1048 34.7196 28.9966 35.8076 28.5864 36.7962C28.1761 37.7848 27.482 38.6296 26.5918 39.2239C25.7017 39.8183 24.6553 40.1355 23.585 40.1355C22.8728 40.1348 22.1677 39.9938 21.5101 39.7205C20.8524 39.4472 20.2551 39.047 19.7522 38.5427C19.2493 38.0384 18.8507 37.44 18.5792 36.7816C18.3077 36.1231 18.1687 35.4177 18.17 34.7055V34.7055ZM34.82 30.3955C34.824 28.7785 35.3071 27.199 36.2083 25.8564C37.1095 24.5138 38.3884 23.4685 39.8835 22.8524C41.3785 22.2364 43.0226 22.0772 44.6081 22.3951C46.1935 22.713 47.6492 23.4936 48.7912 24.6384C49.9332 25.7832 50.7102 27.2408 51.0243 28.827C51.3383 30.4132 51.1751 32.0569 50.5554 33.5505C49.9357 35.044 48.8872 36.3203 47.5425 37.2183C46.1977 38.1162 44.617 38.5955 43 38.5955C40.8313 38.5929 38.7523 37.7302 37.2188 36.1967C35.6853 34.6632 34.8226 32.5842 34.82 30.4155V30.3955ZM57 34.7055C57 33.6345 57.3176 32.5876 57.9126 31.6971C58.5076 30.8066 59.3533 30.1125 60.3428 29.7027C61.3322 29.2928 62.421 29.1856 63.4714 29.3945C64.5218 29.6035 65.4867 30.1192 66.244 30.8765C67.0013 31.6338 67.517 32.5987 67.726 33.6491C67.9349 34.6995 67.8277 35.7883 67.4178 36.7777C67.008 37.7672 66.3139 38.6129 65.4234 39.2079C64.5329 39.8029 63.486 40.1205 62.415 40.1205C60.9793 40.1192 59.6027 39.5482 58.5875 38.533C57.5723 37.5178 57.0013 36.1412 57 34.7055V34.7055Z" fill="#191B20"></path>
</svg>
