<?xml version="1.0" encoding="UTF-8"?>
<svg xmlns="http://www.w3.org/2000/svg" width="85" height="84" viewBox="0 0 85 84" fill="none">
  <mask id="path-1-inside-1_414_3407" fill="white">
    <path d="M57.2341 53.0749V19.039C57.2341 17.4374 56.5978 15.9013 55.4653 14.7688C54.3328 13.6363 52.7967 13 51.1951 13H27.039C25.4374 13 23.9013 13.6363 22.7688 14.7688C21.6363 15.9013 21 17.4374 21 19.039V64.9355C21 65.7286 21.1562 66.5139 21.4597 67.2465C21.7632 67.9792 22.208 68.645 22.7688 69.2057C23.3296 69.7665 23.9953 70.2113 24.728 70.5148C25.4607 70.8183 26.246 70.9745 27.039 70.9745C42.6076 70.9745 41.9433 71.1557 42.4506 70.5518C43.5376 69.2715 42.1728 68.728 35.0226 62.6165C34.8862 62.5006 34.7809 62.3524 34.7162 62.1855C34.6516 62.0185 34.6297 61.8381 34.6525 61.6605C34.6753 61.4829 34.742 61.3139 34.8468 61.1687C34.9515 61.0234 35.0908 60.9067 35.2521 60.829C35.7956 60.5512 35.5903 60.5995 41.1461 62.4595C41.3281 62.521 41.5221 62.5382 41.712 62.5096C41.9019 62.4811 42.0823 62.4077 42.2382 62.2955C42.3941 62.1834 42.5209 62.0356 42.6083 61.8646C42.6956 61.6935 42.7409 61.5042 42.7404 61.3121V45.6107C42.7404 45.2903 42.8677 44.9831 43.0942 44.7566C43.3207 44.5301 43.6279 44.4029 43.9482 44.4029C44.2686 44.4029 44.5758 44.5301 44.8023 44.7566C45.0288 44.9831 45.1561 45.2903 45.1561 45.6107V58.8965C45.1561 59.2168 45.2833 59.524 45.5098 59.7505C45.7363 59.9771 46.0435 60.1043 46.3639 60.1043C46.6842 60.1043 46.9914 59.9771 47.2179 59.7505C47.4444 59.524 47.5717 59.2168 47.5717 58.8965V54.0653C47.5717 53.745 47.6989 53.4377 47.9254 53.2112C48.1519 52.9847 48.4591 52.8575 48.7795 52.8575C49.0998 52.8575 49.407 52.9847 49.6335 53.2112C49.86 53.4377 49.9873 53.745 49.9873 54.0653V58.8965C49.9873 59.2168 50.1145 59.524 50.341 59.7505C50.5675 59.9771 50.8747 60.1043 51.1951 60.1043C51.5154 60.1043 51.8226 59.9771 52.0491 59.7505C52.2756 59.524 52.4029 59.2168 52.4029 58.8965V55.2731C52.4029 54.9528 52.5301 54.6455 52.7566 54.419C52.9831 54.1925 53.2903 54.0653 53.6107 54.0653C53.931 54.0653 54.2382 54.1925 54.4647 54.419C54.6912 54.6455 54.8185 54.9528 54.8185 55.2731V58.8965C54.8185 59.2168 54.9457 59.524 55.1722 59.7505C55.3987 59.9771 55.7059 60.1043 56.0263 60.1043C56.3466 60.1043 56.6538 59.9771 56.8803 59.7505C57.1068 59.524 57.2341 59.2168 57.2341 58.8965V56.4809C57.2341 56.1606 57.3613 55.8534 57.5878 55.6268C57.8143 55.4003 58.1215 55.2731 58.4419 55.2731C58.7622 55.2731 59.0694 55.4003 59.2959 55.6268C59.5224 55.8534 59.6497 56.1606 59.6497 56.4809V69.7667C59.6497 70.087 59.7769 70.3943 60.0034 70.6208C60.2299 70.8473 60.5372 70.9745 60.8575 70.9745C61.1778 70.9745 61.485 70.8473 61.7115 70.6208C61.938 70.3943 62.0653 70.087 62.0653 69.7667V56.4809C62.0637 55.9021 61.9234 55.3321 61.6562 54.8186C61.3891 54.3051 61.0028 53.8631 60.5297 53.5296C60.0566 53.1961 59.5105 52.9808 58.9372 52.9017C58.3638 52.8225 57.7798 52.8819 57.2341 53.0749ZM23.4156 19.039C23.4156 18.078 23.7974 17.1564 24.4769 16.4769C25.1564 15.7974 26.078 15.4156 27.039 15.4156H51.1951C52.1561 15.4156 53.0777 15.7974 53.7572 16.4769C54.4367 17.1564 54.8185 18.078 54.8185 19.039V20.2468H23.4156V19.039ZM38.2595 68.5589H27.039C26.078 68.5589 25.1564 68.1772 24.4769 67.4976C23.7974 66.8181 23.4156 65.8965 23.4156 64.9355V63.7277H32.8244C33.2109 64.3195 32.9814 64.0538 38.2595 68.5589ZM51.8352 52.1328C51.3958 51.4414 50.735 50.9193 49.9607 50.6516C49.1864 50.384 48.3442 50.3867 47.5717 50.6593V45.6107C47.5717 44.6497 47.1899 43.7281 46.5104 43.0485C45.8309 42.369 44.9092 41.9873 43.9482 41.9873C42.9873 41.9873 42.0656 42.369 41.3861 43.0485C40.7066 43.7281 40.3248 44.6497 40.3248 45.6107H29.4546C29.1343 45.6107 28.8271 45.7379 28.6006 45.9644C28.3741 46.1909 28.2468 46.4981 28.2468 46.8185C28.2468 47.1388 28.3741 47.446 28.6006 47.6725C28.8271 47.899 29.1343 48.0263 29.4546 48.0263H40.3248V59.6333L36.8464 58.4255C36.356 58.2624 35.8355 58.2104 35.3225 58.273C34.8095 58.3356 34.3168 58.5113 33.88 58.7875C33.4432 59.0637 33.0731 59.4334 32.7966 59.87C32.52 60.3066 32.3439 60.7992 32.2809 61.3121H23.4156V22.6624H54.8185V51.8671C54.3327 51.6872 53.8129 51.6178 53.2969 51.6637C52.7809 51.7097 52.2816 51.8699 51.8352 52.1328Z"></path>
  </mask>
  <path d="M57.2341 53.0749V19.039C57.2341 17.4374 56.5978 15.9013 55.4653 14.7688C54.3328 13.6363 52.7967 13 51.1951 13H27.039C25.4374 13 23.9013 13.6363 22.7688 14.7688C21.6363 15.9013 21 17.4374 21 19.039V64.9355C21 65.7286 21.1562 66.5139 21.4597 67.2465C21.7632 67.9792 22.208 68.645 22.7688 69.2057C23.3296 69.7665 23.9953 70.2113 24.728 70.5148C25.4607 70.8183 26.246 70.9745 27.039 70.9745C42.6076 70.9745 41.9433 71.1557 42.4506 70.5518C43.5376 69.2715 42.1728 68.728 35.0226 62.6165C34.8862 62.5006 34.7809 62.3524 34.7162 62.1855C34.6516 62.0185 34.6297 61.8381 34.6525 61.6605C34.6753 61.4829 34.742 61.3139 34.8468 61.1687C34.9515 61.0234 35.0908 60.9067 35.2521 60.829C35.7956 60.5512 35.5903 60.5995 41.1461 62.4595C41.3281 62.521 41.5221 62.5382 41.712 62.5096C41.9019 62.4811 42.0823 62.4077 42.2382 62.2955C42.3941 62.1834 42.5209 62.0356 42.6083 61.8646C42.6956 61.6935 42.7409 61.5042 42.7404 61.3121V45.6107C42.7404 45.2903 42.8677 44.9831 43.0942 44.7566C43.3207 44.5301 43.6279 44.4029 43.9482 44.4029C44.2686 44.4029 44.5758 44.5301 44.8023 44.7566C45.0288 44.9831 45.1561 45.2903 45.1561 45.6107V58.8965C45.1561 59.2168 45.2833 59.524 45.5098 59.7505C45.7363 59.9771 46.0435 60.1043 46.3639 60.1043C46.6842 60.1043 46.9914 59.9771 47.2179 59.7505C47.4444 59.524 47.5717 59.2168 47.5717 58.8965V54.0653C47.5717 53.745 47.6989 53.4377 47.9254 53.2112C48.1519 52.9847 48.4591 52.8575 48.7795 52.8575C49.0998 52.8575 49.407 52.9847 49.6335 53.2112C49.86 53.4377 49.9873 53.745 49.9873 54.0653V58.8965C49.9873 59.2168 50.1145 59.524 50.341 59.7505C50.5675 59.9771 50.8747 60.1043 51.1951 60.1043C51.5154 60.1043 51.8226 59.9771 52.0491 59.7505C52.2756 59.524 52.4029 59.2168 52.4029 58.8965V55.2731C52.4029 54.9528 52.5301 54.6455 52.7566 54.419C52.9831 54.1925 53.2903 54.0653 53.6107 54.0653C53.931 54.0653 54.2382 54.1925 54.4647 54.419C54.6912 54.6455 54.8185 54.9528 54.8185 55.2731V58.8965C54.8185 59.2168 54.9457 59.524 55.1722 59.7505C55.3987 59.9771 55.7059 60.1043 56.0263 60.1043C56.3466 60.1043 56.6538 59.9771 56.8803 59.7505C57.1068 59.524 57.2341 59.2168 57.2341 58.8965V56.4809C57.2341 56.1606 57.3613 55.8534 57.5878 55.6268C57.8143 55.4003 58.1215 55.2731 58.4419 55.2731C58.7622 55.2731 59.0694 55.4003 59.2959 55.6268C59.5224 55.8534 59.6497 56.1606 59.6497 56.4809V69.7667C59.6497 70.087 59.7769 70.3943 60.0034 70.6208C60.2299 70.8473 60.5372 70.9745 60.8575 70.9745C61.1778 70.9745 61.485 70.8473 61.7115 70.6208C61.938 70.3943 62.0653 70.087 62.0653 69.7667V56.4809C62.0637 55.9021 61.9234 55.3321 61.6562 54.8186C61.3891 54.3051 61.0028 53.8631 60.5297 53.5296C60.0566 53.1961 59.5105 52.9808 58.9372 52.9017C58.3638 52.8225 57.7798 52.8819 57.2341 53.0749ZM23.4156 19.039C23.4156 18.078 23.7974 17.1564 24.4769 16.4769C25.1564 15.7974 26.078 15.4156 27.039 15.4156H51.1951C52.1561 15.4156 53.0777 15.7974 53.7572 16.4769C54.4367 17.1564 54.8185 18.078 54.8185 19.039V20.2468H23.4156V19.039ZM38.2595 68.5589H27.039C26.078 68.5589 25.1564 68.1772 24.4769 67.4976C23.7974 66.8181 23.4156 65.8965 23.4156 64.9355V63.7277H32.8244C33.2109 64.3195 32.9814 64.0538 38.2595 68.5589ZM51.8352 52.1328C51.3958 51.4414 50.735 50.9193 49.9607 50.6516C49.1864 50.384 48.3442 50.3867 47.5717 50.6593V45.6107C47.5717 44.6497 47.1899 43.7281 46.5104 43.0485C45.8309 42.369 44.9092 41.9873 43.9482 41.9873C42.9873 41.9873 42.0656 42.369 41.3861 43.0485C40.7066 43.7281 40.3248 44.6497 40.3248 45.6107H29.4546C29.1343 45.6107 28.8271 45.7379 28.6006 45.9644C28.3741 46.1909 28.2468 46.4981 28.2468 46.8185C28.2468 47.1388 28.3741 47.446 28.6006 47.6725C28.8271 47.899 29.1343 48.0263 29.4546 48.0263H40.3248V59.6333L36.8464 58.4255C36.356 58.2624 35.8355 58.2104 35.3225 58.273C34.8095 58.3356 34.3168 58.5113 33.88 58.7875C33.4432 59.0637 33.0731 59.4334 32.7966 59.87C32.52 60.3066 32.3439 60.7992 32.2809 61.3121H23.4156V22.6624H54.8185V51.8671C54.3327 51.6872 53.8129 51.6178 53.2969 51.6637C52.7809 51.7097 52.2816 51.8699 51.8352 52.1328Z" fill="#191B20" stroke="white" stroke-width="0.6" mask="url(#path-1-inside-1_414_3407)"></path>
  <path d="M35.6429 33.5326V27.4936C35.6429 27.213 35.7544 26.944 35.9527 26.7456C36.1511 26.5472 36.4202 26.4358 36.7007 26.4358C36.9813 26.4358 37.2503 26.5472 37.4487 26.7456C37.6471 26.944 37.7585 27.213 37.7585 27.4936V33.5326C37.7585 34.7741 37.2653 35.9648 36.3874 36.8427C35.5095 37.7206 34.3188 38.2138 33.0773 38.2138C31.8358 38.2138 30.6451 37.7206 29.7672 36.8427C28.8893 35.9648 28.3961 34.7741 28.3961 33.5326V27.4936C28.3961 27.213 28.5075 26.944 28.7059 26.7456C28.9043 26.5472 29.1733 26.4358 29.4539 26.4358C29.7344 26.4358 30.0035 26.5472 30.2019 26.7456C30.4003 26.944 30.5117 27.213 30.5117 27.4936V33.5326C30.5117 34.213 30.782 34.8656 31.2631 35.3467C31.7443 35.8279 32.3969 36.0982 33.0773 36.0982C33.7577 36.0982 34.4103 35.8279 34.8915 35.3467C35.3726 34.8656 35.6429 34.213 35.6429 33.5326Z" fill="#191B20" stroke="white" stroke-width="0.3"></path>
  <path d="M47.9335 26.859L47.9336 26.8589C48.1019 26.6345 48.3525 26.4861 48.6302 26.4464C48.9079 26.4067 49.1901 26.479 49.4145 26.6473C49.6389 26.8157 49.7873 27.0663 49.827 27.344C49.8667 27.6217 49.7944 27.9038 49.6261 28.1283L46.5462 32.2348L46.4787 32.3248L46.5462 32.4148L49.6261 36.5213C49.7944 36.7457 49.8667 37.0279 49.827 37.3056C49.7873 37.5833 49.6389 37.8339 49.4145 38.0022C49.1901 38.1706 48.9079 38.2428 48.6302 38.2032C48.3525 38.1635 48.1019 38.0151 47.9336 37.7907L47.9335 37.7906L45.2764 34.2517L45.1564 34.092L45.0365 34.2517L42.3793 37.7906L42.3792 37.7907C42.2109 38.0151 41.9603 38.1635 41.6826 38.2032C41.4049 38.2428 41.1228 38.1706 40.8983 38.0022C40.6739 37.8339 40.5255 37.5833 40.4858 37.3056C40.4462 37.0279 40.5184 36.7457 40.6868 36.5213L43.7667 32.4148L43.8342 32.3248L43.7667 32.2348L40.6868 28.1283C40.5184 27.9038 40.4462 27.6217 40.4858 27.344C40.5255 27.0663 40.6739 26.8157 40.8983 26.6473C41.1228 26.479 41.4049 26.4067 41.6826 26.4464C41.9603 26.4861 42.2109 26.6345 42.3792 26.8589L42.3793 26.859L45.0365 30.3978L45.1564 30.5576L45.2764 30.3978L47.9335 26.859Z" fill="#191B20" stroke="white" stroke-width="0.3"></path>
  <path d="M29.4539 40.9291H36.7007C36.9813 40.9291 37.2503 41.0405 37.4487 41.2389C37.6471 41.4373 37.7585 41.7063 37.7585 41.9869C37.7585 42.2674 37.6471 42.5365 37.4487 42.7348C37.2503 42.9332 36.9813 43.0447 36.7007 43.0447H29.4539C29.1733 43.0447 28.9043 42.9332 28.7059 42.7348C28.5075 42.5365 28.3961 42.2674 28.3961 41.9869C28.3961 41.7063 28.5075 41.4373 28.7059 41.2389C28.9043 41.0405 29.1733 40.9291 29.4539 40.9291Z" fill="#191B20" stroke="white" stroke-width="0.3"></path>
  <path d="M34.2851 52.7073H29.4539C29.1733 52.7073 28.9043 52.5958 28.7059 52.3974C28.5075 52.1991 28.3961 51.93 28.3961 51.6495C28.3961 51.3689 28.5075 51.0998 28.7059 50.9015C28.9043 50.7031 29.1733 50.5917 29.4539 50.5917H34.2851C34.5657 50.5917 34.8347 50.7031 35.0331 50.9015C35.2315 51.0998 35.3429 51.3689 35.3429 51.6495C35.3429 51.93 35.2315 52.1991 35.0331 52.3974C34.8347 52.5958 34.5657 52.7073 34.2851 52.7073Z" fill="#191B20" stroke="white" stroke-width="0.3"></path>
</svg>
