<?xml version="1.0" encoding="UTF-8"?>
<svg xmlns="http://www.w3.org/2000/svg" width="43" height="47" viewBox="0 0 43 47" fill="none">
  <path d="M19.9639 41.4644H23.0353V43.0001H19.9639V41.4644Z" fill="#191B20"></path>
  <path d="M42.2321 8.44643H35.3214V2.30357C35.3196 1.69319 35.0763 1.10832 34.6447 0.676714C34.2131 0.245105 33.6282 0.00182296 33.0179 0H8.44643C7.83604 0.00182296 7.25118 0.245105 6.81957 0.676714C6.38796 1.10832 6.14468 1.69319 6.14286 2.30357V15.933L0.990536 25.585C0.342674 26.8109 0.00272391 28.176 0 29.5625V45.3036C0 45.5072 0.0808991 45.7025 0.2249 45.8465C0.368901 45.9905 0.564209 46.0714 0.767857 46.0714H33.0179C33.6282 46.0696 34.2131 45.8263 34.6447 45.3947C35.0763 44.9631 35.3196 44.3782 35.3214 43.7679V33.0179H42.2321C42.4358 33.0179 42.6311 32.937 42.7751 32.793C42.9191 32.649 43 32.4537 43 32.25V9.21429C43 9.01064 42.9191 8.81533 42.7751 8.67133C42.6311 8.52733 42.4358 8.44643 42.2321 8.44643ZM7.67857 2.30357C7.67857 2.09992 7.75947 1.90462 7.90347 1.76061C8.04747 1.61661 8.24278 1.53571 8.44643 1.53571H33.0179C33.2215 1.53571 33.4168 1.61661 33.5608 1.76061C33.7048 1.90462 33.7857 2.09992 33.7857 2.30357V3.83929H7.67857V2.30357ZM7.67857 5.375H33.7857V8.44643H9.98214C9.77849 8.44643 9.58319 8.52733 9.43919 8.67133C9.29518 8.81533 9.21429 9.01064 9.21429 9.21429V26.5909L7.67857 27.6889V5.375ZM11.5486 43.9445L11.1262 44.5357H1.53571V29.5625C1.5383 28.4272 1.81768 27.3097 2.34964 26.3068L6.14286 19.1964V29.1786C6.14351 29.3193 6.18279 29.4571 6.25643 29.5769C6.33006 29.6968 6.43522 29.7941 6.56041 29.8583C6.6856 29.9225 6.82602 29.9511 6.96633 29.9409C7.10665 29.9307 7.24147 29.8821 7.35607 29.8005L10.5043 27.5507C10.9125 27.2592 11.4109 27.122 11.9108 27.1634C12.4107 27.2049 12.8796 27.4222 13.2343 27.7769C13.589 28.1316 13.8064 28.6006 13.8478 29.1005C13.8892 29.6004 13.752 30.0987 13.4605 30.507L10.8959 34.1082C10.8023 34.2379 10.752 34.3937 10.752 34.5536C10.752 34.7135 10.8023 34.8693 10.8959 34.9989L11.5486 35.9127C12.384 37.0851 12.8329 38.4889 12.8329 39.9286C12.8329 41.3682 12.384 42.772 11.5486 43.9445ZM33.7857 43.7679C33.7857 43.9715 33.7048 44.1668 33.5608 44.3108C33.4168 44.4548 33.2215 44.5357 33.0179 44.5357H12.9921C13.8885 43.1663 14.3662 41.5653 14.3666 39.9286H33.7857V43.7679ZM33.7857 38.3929H14.2207C13.9975 37.1781 13.5099 36.0273 12.7925 35.022L12.4623 34.5536L13.5604 33.0179H33.7857V38.3929ZM41.4643 31.4821H14.6584L14.7121 31.3977C15.1728 30.7507 15.41 29.9711 15.3879 29.1772C15.3657 28.3832 15.0853 27.6182 14.5893 26.9979C14.2718 26.5935 13.8677 26.2656 13.4068 26.038L19.2348 21.6613L24.9323 25.2241C25.0941 25.3245 25.2873 25.3612 25.4746 25.3272C25.6619 25.2931 25.8298 25.1907 25.9459 25.0398L33.0486 15.8102L41.4643 25.6234V31.4821ZM41.4643 23.2661L33.6014 14.0902C33.5278 14.0018 33.4347 13.9315 33.3295 13.8849C33.2243 13.8383 33.1098 13.8166 32.9948 13.8214C32.8813 13.8244 32.7699 13.8528 32.6689 13.9047C32.5679 13.9565 32.4798 14.0304 32.4112 14.1209L25.155 23.5502L19.6034 20.0795C19.4718 19.9975 19.3185 19.9573 19.1636 19.9642C19.0087 19.9711 18.8596 20.0246 18.7357 20.1179L11.3489 25.6541C11.1467 25.6776 10.9465 25.7161 10.75 25.7693V9.98214H41.4643V23.2661Z" fill="#191B20"></path>
  <path d="M21.5001 12.2856C20.8927 12.2856 20.2988 12.4658 19.7937 12.8033C19.2887 13.1408 18.895 13.6205 18.6625 14.1817C18.43 14.7429 18.3692 15.3605 18.4877 15.9563C18.6062 16.5521 18.8988 17.0994 19.3283 17.5289C19.7579 17.9584 20.3051 18.251 20.9009 18.3695C21.4967 18.488 22.1143 18.4272 22.6755 18.1947C23.2368 17.9622 23.7164 17.5686 24.0539 17.0635C24.3914 16.5584 24.5716 15.9645 24.5716 15.3571C24.5716 14.5425 24.248 13.7613 23.672 13.1852C23.096 12.6092 22.3147 12.2856 21.5001 12.2856ZM21.5001 16.8928C21.1964 16.8928 20.8995 16.8027 20.6469 16.634C20.3944 16.4652 20.1976 16.2254 20.0813 15.9448C19.9651 15.6642 19.9347 15.3554 19.9939 15.0575C20.0532 14.7596 20.1995 14.4859 20.4142 14.2712C20.629 14.0564 20.9026 13.9101 21.2005 13.8509C21.4984 13.7916 21.8072 13.822 22.0878 13.9383C22.3684 14.0545 22.6083 14.2513 22.777 14.5039C22.9458 14.7564 23.0359 15.0533 23.0359 15.3571C23.0359 15.7644 22.8741 16.155 22.5861 16.443C22.2981 16.731 21.9074 16.8928 21.5001 16.8928Z" fill="#191B20"></path>
  <path d="M19.9639 41.4644H23.0353V43.0001H19.9639V41.4644Z" fill="#191B20"></path>
</svg>
