<?xml version="1.0" encoding="UTF-8"?>
<svg xmlns="http://www.w3.org/2000/svg" width="85" height="84" viewBox="0 0 85 84" fill="none">
  <path d="M46.0833 62.5833C45.5771 62.5833 45.1667 62.9937 45.1667 63.5C45.1667 65.525 43.525 67.1667 41.5 67.1667H19.5C17.475 67.1667 15.8333 65.525 15.8333 63.5V19.5C15.8333 17.475 17.475 15.8333 19.5 15.8333H19.8502L21.8403 19.8135C22.3035 20.7474 23.2572 21.3368 24.2997 21.3333H36.7003C37.7428 21.3368 38.6965 20.7474 39.1598 19.8135L41.1498 15.8333H41.5C43.525 15.8333 45.1667 17.475 45.1667 19.5V21.3333C45.1667 21.8396 45.5771 22.25 46.0833 22.25C46.5896 22.25 47 21.8396 47 21.3333V19.5C46.997 16.4637 44.5363 14.003 41.5 14H19.5C16.4637 14.003 14.003 16.4637 14 19.5V63.5C14.003 66.5363 16.4637 68.997 19.5 69H41.5C44.5363 68.997 46.997 66.5363 47 63.5C47 62.9937 46.5896 62.5833 46.0833 62.5833ZM37.5198 18.9931C37.3657 19.3045 37.0478 19.5011 36.7003 19.5H24.2997C23.9522 19.5011 23.6343 19.3045 23.4802 18.9931L21.8998 15.8333H39.1002L37.5198 18.9931Z" fill="#191B20"></path>
  <path d="M37.8333 65.3336C38.3396 65.3336 38.75 64.9232 38.75 64.4169C38.75 63.9106 38.3396 63.5002 37.8333 63.5002H23.1667C22.6604 63.5002 22.25 63.9106 22.25 64.4169C22.25 64.9232 22.6604 65.3336 23.1667 65.3336H37.8333Z" fill="#191B20"></path>
  <path d="M63.5001 24.0835H37.8335C34.7972 24.0865 32.3365 26.5472 32.3335 29.5835V35.4502L22.2969 40.8026C21.7016 41.1219 21.3301 41.7427 21.3301 42.4182C21.3301 43.0937 21.7016 43.7145 22.2969 44.0338L32.3335 49.3835V55.2502C32.3365 58.2865 34.7972 60.7471 37.8335 60.7502H63.5001C66.5364 60.7471 68.9971 58.2865 69.0001 55.2502V29.5835C68.9971 26.5472 66.5364 24.0865 63.5001 24.0835V24.0835ZM67.1668 55.2502C67.1668 57.2752 65.5252 58.9168 63.5001 58.9168H37.8335C35.8084 58.9168 34.1668 57.2752 34.1668 55.2502V48.8335C34.1671 48.4948 33.9806 48.1836 33.6819 48.0241L23.1668 42.4168L33.6846 36.8077C33.9817 36.6478 34.167 36.3376 34.1668 36.0002V29.5835C34.1668 27.5585 35.8084 25.9168 37.8335 25.9168H63.5001C65.5252 25.9168 67.1668 27.5585 67.1668 29.5835V55.2502Z" fill="#191B20"></path>
  <path d="M62.499 48.2833L60.2349 41.565C59.9683 40.6504 59.8331 39.7026 59.8334 38.7499C59.8334 33.6873 55.7293 29.5833 50.6667 29.5833C45.6041 29.5833 41.5 33.6873 41.5 38.7499C41.501 39.6901 41.3696 40.6257 41.1095 41.5293L38.8233 48.3199C38.6618 48.8739 38.7704 49.4716 39.1167 49.9333C39.4629 50.3949 40.0063 50.6666 40.5833 50.6666H46.0834C46.0834 53.1979 48.1354 55.2499 50.6667 55.2499C53.198 55.2499 55.25 53.1979 55.25 50.6666H60.75C61.3271 50.6666 61.8705 50.3949 62.2167 49.9333C62.5629 49.4716 62.6716 48.8739 62.51 48.3199L62.499 48.2833ZM50.6667 53.4166C49.1479 53.4166 47.9167 52.1854 47.9167 50.6666H53.4167C53.4167 52.1854 52.1855 53.4166 50.6667 53.4166ZM54.3444 48.8443C54.3172 48.8429 54.2899 48.8429 54.2628 48.8443L47.2365 48.8562C47.1406 48.8406 47.0428 48.8406 46.9469 48.8562L40.5724 48.8672L42.8576 42.0774C43.1732 40.9964 43.3334 39.876 43.3333 38.7499C43.3333 34.6998 46.6166 31.4166 50.6667 31.4166C54.7168 31.4166 58 34.6998 58 38.7499C58.0006 39.8891 58.1645 41.0223 58.4868 42.115L60.75 48.8333L54.3444 48.8443Z" fill="#191B20"></path>
</svg>
