<?xml version="1.0" encoding="UTF-8"?>
<svg xmlns="http://www.w3.org/2000/svg" width="85" height="84" viewBox="0 0 85 84" fill="none">
  <path d="M65.8446 17H18.4169C14.327 17 11 20.327 11 24.4169V58.5831C11 62.673 14.327 66 18.4169 66H65.8446C69.9345 66 73.2615 62.673 73.2615 58.5831V24.4169C73.2615 20.327 69.9345 17 65.8446 17ZM71.3159 58.5831C71.3159 61.6004 68.862 64.0544 65.8446 64.0544H18.4169C15.3995 64.0544 12.9456 61.6004 12.9456 58.5831V24.4169C12.9456 21.3995 15.3995 18.9456 18.4169 18.9456H65.8446C68.862 18.9456 71.3159 21.3995 71.3159 24.4169V58.5831Z" fill="#191B20"></path>
  <path d="M29.1449 37.3746H27.8643V26.5099C27.8643 25.9722 27.4291 25.5371 26.8915 25.5371C26.3538 25.5371 25.9186 25.9722 25.9186 26.5099V37.3746H24.6436C22.3684 37.3746 20.5176 39.2252 20.5176 41.5006C20.5176 43.7759 22.3682 45.6267 24.6436 45.6267H25.9186V56.4932C25.9186 57.0308 26.3538 57.466 26.8915 57.466C27.4291 57.466 27.8643 57.0308 27.8643 56.4932V45.6267H29.1449C31.4202 45.6267 33.271 43.776 33.271 41.5006C33.271 39.2252 31.4203 37.3746 29.1449 37.3746ZM29.1449 43.6809H24.6436C23.4419 43.6809 22.4633 42.7024 22.4633 41.5006C22.4633 40.2989 23.4419 39.3203 24.6436 39.3203C24.9313 39.3203 29.4174 39.3203 29.1449 39.3203C30.3466 39.3203 31.3252 40.2989 31.3252 41.5006C31.3253 42.7024 30.3468 43.6809 29.1449 43.6809Z" fill="#191B20"></path>
  <path d="M44.3812 28.4299H43.0987V26.5099C43.0987 25.9722 42.6635 25.5371 42.1258 25.5371C41.5881 25.5371 41.153 25.9722 41.153 26.5099V28.4299H39.88C37.6047 28.4299 35.7539 30.2806 35.7539 32.556C35.7539 34.8304 37.6046 36.6811 39.88 36.6811H41.153V56.4932C41.153 57.0308 41.5881 57.466 42.1258 57.466C42.6635 57.466 43.0987 57.0308 43.0987 56.4932V36.681H44.3812C46.6565 36.681 48.5073 34.8303 48.5073 32.5559C48.5073 30.2806 46.6565 28.4299 44.3812 28.4299ZM44.3812 34.7353H39.88C38.6782 34.7353 37.6997 33.7577 37.6997 32.556C37.6997 31.3543 38.6782 30.3757 39.88 30.3757H44.3812C45.583 30.3757 46.5615 31.3543 46.5615 32.556C46.5615 33.7577 45.5831 34.7353 44.3812 34.7353Z" fill="#191B20"></path>
  <path d="M59.6175 45.3825H58.3426V26.5099C58.3426 25.9722 57.9074 25.5371 57.3697 25.5371C56.832 25.5371 56.3969 25.9722 56.3969 26.5099V45.3824H55.1163C52.841 45.3824 50.9902 47.233 50.9902 49.5085C50.9902 51.7829 52.8409 53.6335 55.1163 53.6335H56.3969V56.4932C56.3969 57.0308 56.832 57.466 57.3697 57.466C57.9074 57.466 58.3426 57.0308 58.3426 56.4932V53.6335H59.6175C61.8928 53.6335 63.7436 51.7829 63.7436 49.5085C63.7435 47.2332 61.8928 45.3825 59.6175 45.3825ZM59.6175 51.6879C59.4708 51.6879 54.9727 51.6879 55.1163 51.6879C53.9146 51.6879 52.936 50.7103 52.936 49.5086C52.936 48.3068 53.9146 47.3283 55.1163 47.3283C55.3097 47.3283 59.8796 47.3283 59.6175 47.3283C60.8193 47.3283 61.7978 48.3068 61.7978 49.5086C61.7978 50.7103 60.8193 51.6879 59.6175 51.6879Z" fill="#191B20"></path>
</svg>
