<?xml version="1.0" encoding="UTF-8"?>
<svg xmlns="http://www.w3.org/2000/svg" width="37" height="49" viewBox="0 0 37 49" fill="none">
  <path d="M25.8436 44.2159V28.0435H36.2278C36.6543 28.0435 37 27.6978 37 27.2713V12.385C37 11.9585 36.6543 11.6128 36.2278 11.6128H25.8436V4.2354C25.8436 1.89998 23.9436 0 21.6083 0H4.2354C1.89998 0 0 1.89998 0 4.2354V44.216C0 46.5514 1.89998 48.4514 4.2354 48.4514H21.6082C23.9436 48.4514 25.8436 46.5514 25.8436 44.2159ZM35.4555 26.4991H19.4659C19.1597 26.4991 18.8826 26.6799 18.7592 26.9602L17.5248 29.7631L16.0059 26.9085C15.8718 26.6566 15.6097 26.4991 15.3242 26.4991H11.5986V13.1572H35.4555V26.4991ZM1.54451 44.2159V4.2354C1.54451 2.75155 2.75166 1.5444 4.2354 1.5444H8.458C8.48274 1.94859 8.81738 2.26891 9.22776 2.26891H16.6159C17.0262 2.26891 17.3609 1.94859 17.3856 1.5444H21.6082C23.0921 1.5444 24.2991 2.75155 24.2991 4.2354V11.6128H10.8264C10.4 11.6128 10.0542 11.9585 10.0542 12.385V27.2714C10.0542 27.6979 10.3999 28.0436 10.8264 28.0436H14.8604L16.9086 31.8931C17.0431 32.1457 17.3057 32.3025 17.5903 32.3025C17.5998 32.3025 17.6095 32.3022 17.619 32.3019C17.9146 32.291 18.1779 32.112 18.2971 31.8414L19.9696 28.0435H24.2991V44.2159C24.2991 45.6998 23.0921 46.9069 21.6082 46.9069H4.2354C2.75166 46.9069 1.54451 45.6998 1.54451 44.2159ZM17.3881 42.7897C17.3881 43.2162 17.0424 43.5619 16.6159 43.5619H9.22776C8.80132 43.5619 8.4555 43.2162 8.4555 42.7897C8.4555 42.3631 8.80121 42.0174 9.22776 42.0174H16.6159C17.0424 42.0174 17.3881 42.3631 17.3881 42.7897ZM15.9471 16.4186H31.1852C31.6117 16.4186 31.9574 16.7643 31.9574 17.1909C31.9574 17.6174 31.6117 17.9631 31.1852 17.9631H15.9471C15.5207 17.9631 15.1749 17.6174 15.1749 17.1909C15.175 16.7643 15.5207 16.4186 15.9471 16.4186ZM31.9574 22.3092C31.9574 22.7357 31.6117 23.0814 31.1852 23.0814H15.9471C15.5207 23.0814 15.1749 22.7357 15.1749 22.3092C15.1749 21.8826 15.5206 21.5369 15.9471 21.5369H31.1852C31.6117 21.5369 31.9574 21.8826 31.9574 22.3092Z" fill="#191B20"></path>
</svg>
