<?xml version="1.0" encoding="UTF-8"?>
<svg xmlns="http://www.w3.org/2000/svg" width="85" height="84" viewBox="0 0 85 84" fill="none">
  <path d="M66.9333 25.6667V25.6666C66.9314 23.9168 66.2354 22.2392 64.9981 21.0019C63.7608 19.7646 62.0832 19.0686 60.3335 19.0667H60.3333L25.6667 19.0667L25.6666 19.0667C23.9168 19.0686 22.2392 19.7646 21.0019 21.0019C19.7646 22.2392 19.0686 23.9168 19.0667 25.6666V25.6667L19.0667 60.3333L19.0667 60.3335C19.0686 62.0832 19.7646 63.7608 21.0019 64.9981C22.2392 66.2354 23.9168 66.9314 25.6666 66.9333H25.6667H60.3333H60.3335C62.0832 66.9314 63.7608 66.2354 64.9981 64.9981C66.2354 63.7608 66.9314 62.0832 66.9333 60.3335V60.3333V25.6667ZM25.6667 17.1H60.3333C62.6054 17.1 64.7843 18.0026 66.3909 19.6091C67.9974 21.2157 68.9 23.3946 68.9 25.6667V60.3333C68.9 62.6054 67.9974 64.7843 66.3909 66.3909C64.7843 67.9974 62.6054 68.9 60.3333 68.9H25.6667C23.3946 68.9 21.2157 67.9974 19.6091 66.3909C18.0026 64.7843 17.1 62.6054 17.1 60.3333V25.6667C17.1 23.3946 18.0026 21.2157 19.6091 19.6091C21.2157 18.0026 23.3946 17.1 25.6667 17.1Z" fill="#191B20" stroke="white" stroke-width="0.2"></path>
  <path d="M53.8326 58.0667H32.1661C31.331 58.0658 30.5303 57.7336 29.9397 57.143C29.3492 56.5525 29.017 55.7518 29.016 54.9166L29.016 31.0834C29.017 30.2483 29.3492 29.4476 29.9397 28.8571C30.5303 28.2665 31.331 27.9343 32.1661 27.9334L53.8326 27.9334C54.6678 27.9343 55.4684 28.2665 56.059 28.8571C56.6495 29.4476 56.9817 30.2483 56.9827 31.0835V54.9166C56.9817 55.7518 56.6495 56.5525 56.059 57.143C55.4684 57.7336 54.6677 58.0658 53.8326 58.0667ZM32.166 29.9C31.8522 29.9 31.5512 30.0247 31.3293 30.2466C31.1074 30.4685 30.9827 30.7695 30.9827 31.0834V54.9167C30.9827 55.2305 31.1074 55.5315 31.3293 55.7535C31.5512 55.9754 31.8522 56.1 32.166 56.1H53.8327C54.1465 56.1 54.4475 55.9754 54.6694 55.7535C54.8913 55.5315 55.016 55.2305 55.016 54.9167V31.0834C55.016 30.7695 54.8913 30.4685 54.6694 30.2466C54.4475 30.0247 54.1465 29.9 53.8327 29.9H32.166Z" fill="#191B20" stroke="white" stroke-width="0.2"></path>
  <path d="M55.9993 49.3999H29.9993C29.7386 49.3999 29.4884 49.2963 29.304 49.1119C29.1196 48.9275 29.016 48.6774 29.016 48.4166C29.016 48.1558 29.1196 47.9057 29.304 47.7213C29.4884 47.5369 29.7386 47.4333 29.9993 47.4333H55.9993C56.2601 47.4333 56.5103 47.5369 56.6947 47.7213C56.8791 47.9057 56.9827 48.1558 56.9827 48.4166C56.9827 48.6774 56.8791 48.9275 56.6947 49.1119C56.5103 49.2963 56.2601 49.3999 55.9993 49.3999Z" fill="#191B20" stroke="white" stroke-width="0.2"></path>
  <path d="M30.0013 47.2333H30.0014C30.2138 47.2336 30.4204 47.1646 30.59 47.0368L30.5902 47.0367L38.5053 41.1L38.5747 41.0479L38.636 41.1093L42.3054 44.7787L42.3056 44.7789C42.4726 44.9466 42.6947 45.0482 42.9307 45.065C43.1668 45.0817 43.401 45.0125 43.59 44.8701L43.5902 44.87L51.7206 38.7715L51.7701 38.7344L51.8254 38.762L55.56 40.6295C55.7933 40.7461 56.0634 40.7653 56.3109 40.6828C56.5583 40.6003 56.7629 40.4228 56.8795 40.1895C56.9961 39.9562 57.0153 39.6861 56.9328 39.4387C56.8503 39.1912 56.6729 38.9867 56.4395 38.8701L56.4843 38.7806L56.4395 38.8701L52.1065 36.7035C52.1064 36.7035 52.1064 36.7035 52.1064 36.7035C51.9429 36.6224 51.7602 36.5882 51.5784 36.6046C51.3967 36.6211 51.2231 36.6876 51.0769 36.7966L30.0013 47.2333ZM30.0013 47.2333C29.7949 47.2333 29.5938 47.1684 29.4263 47.0477C29.2589 46.927 29.1337 46.7567 29.0684 46.5609C29.0032 46.3651 29.0012 46.1538 29.0627 45.9568C29.1242 45.7598 29.2462 45.5871 29.4113 45.4633L38.078 38.9633L38.0782 38.9631C38.2671 38.8205 38.5014 38.7511 38.7375 38.7679C38.9736 38.7847 39.1957 38.8864 39.3625 39.0543L39.3627 39.0546L43.0311 42.724L43.0924 42.7854L43.1618 42.7333L51.0767 36.7968L30.0013 47.2333Z" fill="#191B20" stroke="white" stroke-width="0.2"></path>
  <path d="M36.5 53.7332H34.3333C34.0725 53.7332 33.8224 53.6296 33.638 53.4452C33.4536 53.2607 33.35 53.0106 33.35 52.7498C33.35 52.489 33.4536 52.2389 33.638 52.0545C33.8224 51.8701 34.0725 51.7665 34.3333 51.7665H36.5C36.7608 51.7665 37.0109 51.8701 37.1953 52.0545C37.3797 52.2389 37.4833 52.489 37.4833 52.7498C37.4833 53.0106 37.3797 53.2607 37.1953 53.4452C37.0109 53.6296 36.7608 53.7332 36.5 53.7332Z" fill="#191B20" stroke="white" stroke-width="0.2"></path>
  <path d="M51.6667 53.7332H40.8333C40.5725 53.7332 40.3224 53.6296 40.138 53.4452C39.9536 53.2607 39.85 53.0106 39.85 52.7498C39.85 52.489 39.9536 52.2389 40.138 52.0545C40.3224 51.8701 40.5725 51.7665 40.8333 51.7665H51.6667C51.9275 51.7665 52.1776 51.8701 52.362 52.0545C52.5464 52.2389 52.65 52.489 52.65 52.7498C52.65 53.0106 52.5464 53.2607 52.362 53.4452C52.1776 53.6296 51.9275 53.7332 51.6667 53.7332Z" fill="#191B20" stroke="white" stroke-width="0.2"></path>
</svg>
