<?xml version="1.0" encoding="UTF-8"?>
<svg xmlns="http://www.w3.org/2000/svg" width="85" height="84" viewBox="0 0 85 84" fill="none">
  <path d="M61.375 61.4H18.625C15.5797 61.4 13.1 58.9203 13.1 55.875V26.625C13.1 23.5797 15.5797 21.1 18.625 21.1H61.375C64.4203 21.1 66.9 23.5797 66.9 26.625V55.875C66.9 58.9203 64.4203 61.4 61.375 61.4ZM18.625 23.15C16.709 23.15 15.15 24.709 15.15 26.625V55.875C15.15 57.791 16.709 59.35 18.625 59.35H61.375C63.291 59.35 64.85 57.791 64.85 55.875V26.625C64.85 24.709 63.291 23.15 61.375 23.15H18.625Z" fill="#191B20" stroke="white" stroke-width="0.2"></path>
  <path d="M29.875 41.1498C26.8297 41.1498 24.35 38.67 24.35 35.6248C24.35 32.5795 26.8297 30.0998 29.875 30.0998C32.9203 30.0998 35.4 32.5795 35.4 35.6248C35.4 38.67 32.9203 41.1498 29.875 41.1498ZM29.875 32.1498C27.959 32.1498 26.4 33.7088 26.4 35.6248C26.4 37.5407 27.959 39.0998 29.875 39.0998C31.791 39.0998 33.35 37.5407 33.35 35.6248C33.35 33.7088 31.791 32.1498 29.875 32.1498Z" fill="#191B20" stroke="white" stroke-width="0.2"></path>
  <path d="M38.875 52.4C38.3092 52.4 37.85 51.9408 37.85 51.375V49.125C37.85 47.209 36.291 45.65 34.375 45.65H25.375C23.459 45.65 21.9 47.209 21.9 49.125V51.375C21.9 51.9408 21.4408 52.4 20.875 52.4C20.3092 52.4 19.85 51.9408 19.85 51.375V49.125C19.85 46.0797 22.3297 43.6 25.375 43.6H34.375C37.4203 43.6 39.9 46.0797 39.9 49.125V51.375C39.9 51.9408 39.4408 52.4 38.875 52.4Z" fill="#191B20" stroke="white" stroke-width="0.2"></path>
  <path d="M59.125 34.4002H45.625C45.0592 34.4002 44.6 33.941 44.6 33.3752C44.6 32.8095 45.0592 32.3502 45.625 32.3502H59.125C59.6908 32.3502 60.15 32.8095 60.15 33.3752C60.15 33.941 59.6908 34.4002 59.125 34.4002Z" fill="#191B20" stroke="white" stroke-width="0.2"></path>
  <path d="M59.125 43.4H45.625C45.0592 43.4 44.6 42.9408 44.6 42.375C44.6 41.8092 45.0592 41.35 45.625 41.35H59.125C59.6908 41.35 60.15 41.8092 60.15 42.375C60.15 42.9408 59.6908 43.4 59.125 43.4Z" fill="#191B20" stroke="white" stroke-width="0.2"></path>
  <path d="M59.125 52.3998H45.625C45.0592 52.3998 44.6 51.9405 44.6 51.3748C44.6 50.809 45.0592 50.3498 45.625 50.3498H59.125C59.6908 50.3498 60.15 50.809 60.15 51.3748C60.15 51.9405 59.6908 52.3998 59.125 52.3998Z" fill="#191B20" stroke="white" stroke-width="0.2"></path>
</svg>
