<?xml version="1.0" encoding="UTF-8"?>
<svg xmlns="http://www.w3.org/2000/svg" width="58" height="58" viewBox="0 0 58 58" fill="none">
  <path fill-rule="evenodd" clip-rule="evenodd" d="M13.7168 2.20292C13.5694 2.31907 12.9356 3.33322 12.3083 4.45666L11.1679 6.49919L9.12772 7.64583C8.00567 8.2765 6.9735 8.90663 6.8341 9.0462C6.50409 9.37651 6.49703 9.90526 6.81777 10.2601C6.9481 10.4042 7.93202 11.0074 9.00413 11.6005C10.0762 12.1935 11.0158 12.7359 11.0921 12.8056C11.2047 12.9085 11.0985 13.119 10.5285 13.9238C9.15206 15.8668 7.52899 18.8184 7.52899 19.3784C7.52899 19.9385 8.17795 20.3052 8.68676 20.0325C8.79434 19.9749 9.24163 19.2321 9.68069 18.3819C10.4414 16.9087 11.9116 14.546 12.0676 14.546C12.1079 14.546 12.4583 15.116 12.846 15.8126C13.2339 16.5093 13.6392 17.1264 13.7468 17.184C14.0967 17.3715 14.6404 17.3075 14.8719 17.0515C14.9899 16.9209 15.5895 15.9122 16.2041 14.8097L17.3215 12.8053L19.2301 11.7503C21.4665 10.5141 21.87 10.206 21.8821 9.72518C21.8952 9.20645 21.6346 8.92013 20.6403 8.36142L19.7255 7.84723L20.4497 7.50995C24.6059 5.57408 30.339 5.37416 34.9244 7.00526C37.2333 7.82655 40.2958 9.76147 41.7965 11.347L42.0831 11.6499L40.2794 12.6496C38.7197 13.514 38.4553 13.6978 38.3251 14.0083C38.197 14.3136 38.1958 14.4236 38.3175 14.7437C38.447 15.0843 38.6661 15.2357 40.6221 16.3364C41.8109 17.0053 42.8335 17.5866 42.8947 17.6281C42.9558 17.6696 43.534 18.647 44.1798 19.7999C44.8255 20.953 45.4514 21.9848 45.5708 22.0929C45.85 22.3459 46.4409 22.3469 46.7192 22.0948C46.8373 21.9877 47.1283 21.5456 47.3658 21.1123C47.6033 20.6791 47.8353 20.3655 47.8815 20.4156C47.9276 20.4656 48.1423 20.9576 48.3587 21.5088C49.6015 24.6749 50.428 28.0113 50.8544 31.5838C51.0594 33.3019 51.0529 47.1697 50.8467 47.9886C50.4188 49.6876 49.3193 50.6828 47.7289 50.8106C47.1848 50.8544 46.3757 50.7036 42.4541 49.828C39.9065 49.2591 37.805 48.7815 37.7843 48.7665C37.7635 48.7516 38.3336 48.155 39.0512 47.4408C41.4017 45.1016 43.0176 42.6132 43.9486 39.8988C44.2243 39.0954 44.268 39.0313 44.5821 38.9724C45.2645 38.8443 46.4355 38.1551 47.0978 37.4919C48.2498 36.3385 48.7039 35.0063 48.5958 33.0961C48.4855 31.1446 47.6471 30.3849 45.5928 30.3752L44.6181 30.3705V28.3202C44.6181 26.1443 44.5696 25.8601 44.116 25.3841C43.7213 24.9699 43.1996 24.8547 42.3405 24.9921C41.3361 25.1528 38.6413 25.1212 37.4005 24.9343C35.3439 24.6244 35.2912 24.623 35.0431 24.8713C34.7629 25.1519 34.7444 25.7339 35.0084 25.973C35.4159 26.3423 37.9247 26.6887 40.2074 26.6907C41.6062 26.692 42.0834 26.659 42.8006 26.5118L43.0376 26.4631L43.0358 31.7664C43.0338 37.3759 43.0179 37.6015 42.5075 39.2323C42.1742 40.2975 41.0055 42.557 40.2195 43.6561C39.3523 44.8688 37.5436 46.7748 36.3964 47.685C33.9566 49.6207 31.1899 50.8262 28.7709 51.0077C27.4874 51.104 25.7287 50.7507 24.1683 50.0833L23.6856 49.8768L24.1024 49.4595C24.4663 49.0951 24.5109 48.9989 24.4542 48.7C24.3642 48.2265 24.0357 47.98 21.9685 46.8356L20.1717 45.8408L19.0548 43.853C18.4405 42.7597 17.8513 41.8187 17.7453 41.7619C17.6394 41.7052 17.3879 41.6587 17.1864 41.6587C16.7953 41.6587 16.5223 41.9079 16.1333 42.6199C15.9452 42.9644 15.9348 42.9686 15.784 42.7651C15.4594 42.3275 14.7016 40.8305 14.3426 39.918C13.5906 38.0067 13.5347 37.4489 13.5365 31.8837C13.5374 28.9505 13.5787 26.8775 13.6382 26.7836C13.7229 26.6496 14.0651 26.6306 15.8755 26.6589C18.852 26.7057 20.8392 26.4254 23.334 25.6068C25.0594 25.0407 26.363 24.3285 27.4481 23.3591C27.8078 23.0376 28.1905 22.7748 28.2985 22.7748C28.4064 22.7748 28.7477 23.0041 29.0568 23.2843C30.0496 24.1845 31.5851 25.0957 32.1093 25.0957C32.4805 25.0957 32.817 24.7253 32.817 24.3167C32.817 23.9031 32.7144 23.8061 31.6347 23.1985C31.1873 22.9467 30.5022 22.4571 30.1124 22.1105C29.3097 21.3972 28.9022 21.1923 28.2863 21.1923C27.669 21.1923 27.2786 21.3944 26.4127 22.1626C25.483 22.9873 24.3791 23.5922 22.9087 24.0829C20.3527 24.9358 17.4351 25.2669 14.464 25.0413C13.6779 24.9816 13.5388 25 13.1143 25.2199C12.6004 25.4859 12.2279 25.9601 12.0615 26.5602C12.0032 26.7701 11.9553 27.7134 11.955 28.6562L11.9544 30.3705H11.078C9.92198 30.3705 9.26006 30.5745 8.77685 31.0795C8.1201 31.7656 8.05583 31.9884 8.05583 33.5792C8.05583 35.1687 8.16657 35.6509 8.73544 36.5404C9.45668 37.6681 10.9442 38.7759 12.0047 38.9751C12.3393 39.038 12.3725 39.0875 12.6905 39.9991C13.0836 41.1262 13.8688 42.7267 14.5533 43.7959L15.041 44.5577L14.7015 45.1917L14.3621 45.8259L12.4645 46.8808C10.5036 47.9709 10.0578 48.3296 10.0578 48.8171C10.0578 49.2458 10.3084 49.5241 11.0873 49.9602L11.793 50.3553L11.0044 50.5535C10.5513 50.6675 9.79006 50.7587 9.21486 50.7681C8.31324 50.7826 8.15413 50.7548 7.61181 50.4882C6.8773 50.1271 6.24868 49.4369 5.92562 48.637L5.68507 48.0413L5.65125 40.6038C5.61521 32.6829 5.65336 31.746 6.12076 29.0518C6.39651 27.4625 6.97518 25.1002 7.38232 23.9018C7.69273 22.9879 7.70358 22.5537 7.42226 22.2987C7.1385 22.0417 6.62189 22.0537 6.35225 22.3235C5.9527 22.7236 4.93644 26.4947 4.4822 29.2628C4.03587 31.9834 4.00131 32.7768 4.00025 40.34C3.9991 48.4506 3.97855 48.1887 4.73814 49.7446C5.36402 51.0266 6.62526 52.005 8.03465 52.3018C8.96999 52.4988 9.67321 52.4381 11.7604 51.98C13.2619 51.6506 13.8317 51.565 14.0387 51.6379C14.2533 51.7135 14.5646 52.1789 15.4374 53.7292C16.055 54.8258 16.6472 55.7869 16.7535 55.8648C17.03 56.0672 17.4683 56.0396 17.7717 55.8006C17.9153 55.6874 18.5012 54.7575 19.0734 53.734C20.1503 51.8084 20.206 51.7436 21.2968 51.151L21.9465 50.7981L22.8773 51.228C25.0481 52.2306 26.4242 52.5726 28.2863 52.5726C30.566 52.5726 32.8821 51.8445 35.366 50.3468L35.9657 49.9853L41.1612 51.1613C44.1328 51.834 46.7019 52.3605 47.1631 52.3914C49.6674 52.559 51.679 51.0263 52.3876 48.4105C52.5568 47.7859 52.5733 47.062 52.5733 40.2873C52.5733 32.4036 52.5449 31.7912 52.0423 28.8402C51.538 25.8791 50.6146 22.7551 49.4149 19.9507L48.8226 18.5665L49.0406 18.1386C49.288 17.6531 49.3825 17.5885 51.8282 16.2345C52.8093 15.6913 53.6982 15.1604 53.8038 15.0547C54.0627 14.7955 54.0662 13.9827 53.8094 13.7284C53.7069 13.6268 52.6519 13.0048 51.465 12.346L49.307 11.1483L48.1684 9.10876C46.731 6.53368 46.7266 6.5282 46.1567 6.5282C45.574 6.5282 45.4972 6.61892 44.3715 8.63814C43.8701 9.5375 43.4139 10.3446 43.3577 10.4316C43.274 10.5615 43.1463 10.4841 42.6462 10.0011C40.7802 8.19832 38.3968 6.66714 35.9285 5.68549C32.46 4.3059 27.8758 3.94732 23.9135 4.74551C22.464 5.03763 20.4822 5.71228 19.1618 6.36299L18.0569 6.90767L17.6805 6.69161C17.3696 6.51322 17.1027 6.11613 16.1526 4.41826C15.5194 3.2868 14.9032 2.27793 14.7833 2.17644C14.4941 1.93158 14.0472 1.94266 13.7168 2.20292ZM15.2679 6.07435L16.1751 7.67769L17.9216 8.65228C19.4348 9.49667 19.6445 9.64448 19.4898 9.75767C19.3916 9.82962 18.6071 10.2807 17.7465 10.7602L16.1818 11.632L15.3369 13.1219C14.8721 13.9413 14.4603 14.6938 14.4219 14.7943C14.3833 14.8947 14.3056 14.9614 14.2491 14.9425C14.1925 14.9237 13.7361 14.1755 13.2347 13.2799L12.3232 11.6517L10.6126 10.6915C9.67173 10.1635 8.87969 9.70925 8.85261 9.68203C8.82553 9.65492 9.40168 9.30214 10.1329 8.89808C12.4238 7.63222 12.2425 7.80165 13.282 5.95619C13.7915 5.05177 14.2425 4.34757 14.2845 4.39135C14.3264 4.43513 14.769 5.1925 15.2679 6.07435ZM47.3018 10.7797C48.2142 12.4117 48.0446 12.2574 50.3431 13.5439C51.1448 13.9924 51.7612 14.3982 51.7129 14.4453C51.6646 14.4925 50.8901 14.9437 49.9919 15.4481C49.0936 15.9524 48.3016 16.4107 48.2317 16.4668C48.1618 16.5227 47.7156 17.2646 47.24 18.1155C46.7645 18.9664 46.3184 19.747 46.2488 19.8501C46.1386 20.0133 45.995 19.8102 45.1407 18.2834C44.0416 16.3191 44.2952 16.5589 41.9104 15.2299L40.4145 14.3963L41.9104 13.5615C44.27 12.2449 44.0474 12.456 45.1508 10.491L46.1334 8.74089L46.3105 9.03238C46.408 9.19274 46.854 9.97901 47.3018 10.7797ZM20.4597 31.6893C19.0825 32.0393 17.6442 33.0437 17.6442 33.6555C17.6442 34.0394 18.0607 34.4849 18.4197 34.4849C18.5631 34.4849 18.8815 34.3136 19.1357 34.0995C19.9392 33.4231 20.6218 33.1708 21.6482 33.1708C22.4018 33.1708 22.6417 33.2163 23.1618 33.4583C23.5017 33.6165 23.941 33.8877 24.1383 34.0611C24.631 34.4942 24.9693 34.5637 25.3188 34.3036C25.5178 34.1555 25.609 33.981 25.6325 33.7036C25.6611 33.3657 25.6109 33.2619 25.2637 32.9407C24.0479 31.8156 22.0304 31.2901 20.4597 31.6893ZM34.0815 31.5969C33.0437 31.7981 32.098 32.2645 31.3749 32.9319C30.8291 33.4357 30.7748 33.8211 31.1908 34.2378C31.5336 34.5809 31.944 34.5204 32.482 34.0474C33.1789 33.4348 33.9146 33.1708 34.9244 33.1708C35.9219 33.1708 36.602 33.4134 37.3917 34.051C37.9483 34.5004 38.2464 34.5631 38.5951 34.3036C38.7878 34.1602 38.8855 33.9795 38.9074 33.7268C38.9338 33.4192 38.8733 33.2943 38.5386 32.9647C37.699 32.1383 36.509 31.6486 35.1878 31.586C34.7242 31.5639 34.2263 31.5689 34.0815 31.5969ZM11.9773 34.6168C11.9936 36.0818 12.006 37.2896 12.0048 37.3005C12.0035 37.3114 11.8438 37.2435 11.6498 37.1494C11.0762 36.8712 10.1986 35.9952 9.90733 35.4101C9.66257 34.9181 9.63633 34.7458 9.63633 33.6279C9.63633 32.4166 9.64223 32.3856 9.91397 32.1717C10.1444 31.9901 10.3409 31.953 11.0694 31.953H11.9473L11.9773 34.6168ZM46.6932 32.2082C46.9856 32.4607 46.9888 32.4766 46.9825 33.6588C46.9766 34.7349 46.9484 34.9078 46.6997 35.3907C46.3791 36.0132 45.6565 36.7625 45.045 37.1066L44.6181 37.3469V34.6499V31.953H45.5079C46.2973 31.953 46.431 31.9818 46.6932 32.2082ZM22.7288 38.6117C22.247 38.751 21.6796 39.3583 21.5336 39.8909C21.2354 40.9788 21.8554 43.1563 22.8322 44.4512C24.9186 47.2179 28.6141 48.0039 31.658 46.3285C32.6924 45.759 33.8466 44.5382 34.3859 43.443C35.0719 42.0496 35.314 40.4983 34.9731 39.6811C34.7547 39.158 34.5301 38.9228 34.0288 38.6923C33.6369 38.5121 33.237 38.499 28.339 38.5056C25.4017 38.5096 22.9194 38.5566 22.7288 38.6117ZM33.3879 40.1403C33.7434 40.2769 33.4957 41.6822 32.9119 42.8401C32.2128 44.2268 30.6557 45.3271 29.0502 45.5689C26.8493 45.9002 24.5725 44.6978 23.6109 42.6961C23.1691 41.7763 22.9127 40.4887 23.1212 40.2371C23.2372 40.0972 23.9015 40.0763 28.2379 40.0763C30.9787 40.0763 33.2963 40.1051 33.3879 40.1403ZM18.1562 45.4893L19.0038 46.9989L20.5845 47.881C21.4539 48.3661 22.1442 48.797 22.1186 48.8384C22.093 48.8799 21.4907 49.2345 20.7801 49.6264C20.0696 50.0182 19.3637 50.4262 19.2115 50.5329C19.0588 50.6402 18.5652 51.3918 18.1086 52.2127C17.4117 53.4654 17.2626 53.6717 17.1579 53.5283C17.0897 53.4348 16.6883 52.7425 16.2661 51.9897L15.4984 50.621L13.9394 49.7532C13.0818 49.2758 12.3793 48.8533 12.3781 48.8143C12.3768 48.7752 12.9568 48.4238 13.6666 48.0335C14.3765 47.6432 15.0996 47.2186 15.2735 47.0901C15.4659 46.948 15.8989 46.2947 16.3798 45.4211C16.8145 44.6315 17.2013 43.9842 17.2393 43.9826C17.2774 43.9809 17.69 44.659 18.1562 45.4893Z" fill="#191B20"></path>
</svg>
