<svg width="152" height="42" viewBox="0 0 152 42" fill="none" xmlns="http://www.w3.org/2000/svg">
<g clip-path="url(#clip0_15561_508)">
<path d="M49.5087 29.9163C48.9887 29.9163 48.5555 29.7652 48.2088 29.4627C47.8814 29.1403 47.7178 28.6867 47.7178 28.1023V16.4316C47.7178 15.847 47.8814 15.4036 48.2088 15.1012C48.5555 14.7989 48.9887 14.6477 49.5087 14.6477C50.0285 14.6477 50.4617 14.7989 50.8084 15.1012C51.155 15.4036 51.3285 15.847 51.3285 16.4316V28.1023C51.3285 28.6867 51.155 29.1403 50.8084 29.4627C50.4617 29.7652 50.0285 29.9163 49.5087 29.9163ZM49.5087 11.9568C48.8538 11.9568 48.3339 11.7754 47.9488 11.4126C47.5637 11.0296 47.3711 10.5358 47.3711 9.93105C47.3711 9.32635 47.5637 8.8426 47.9488 8.4798C48.3339 8.11697 48.8538 7.93555 49.5087 7.93555C50.1441 7.93555 50.6544 8.11697 51.0395 8.4798C51.444 8.8426 51.6461 9.32635 51.6461 9.93105C51.6461 10.5358 51.4535 11.0296 51.0685 11.4126C50.6832 11.7754 50.1634 11.9568 49.5087 11.9568Z" fill="white"/>
<path d="M63.2542 14.5879C64.9489 14.5879 66.2102 15.0918 67.0383 16.0996C67.8663 17.1075 68.2804 18.6293 68.2804 20.6651V28.103C68.2804 28.6672 68.1166 29.1107 67.7893 29.4333C67.4813 29.7557 67.0478 29.9171 66.4895 29.9171C65.931 29.9171 65.488 29.7557 65.1607 29.4333C64.8333 29.1107 64.6696 28.6672 64.6696 28.103V20.8768C64.6696 19.7279 64.4578 18.8913 64.0342 18.3673C63.6298 17.8432 62.9847 17.5811 62.0989 17.5811C61.0589 17.5811 60.2212 17.9238 59.5859 18.6091C58.9695 19.2945 58.6615 20.2116 58.6615 21.3604V28.103C58.6615 28.6672 58.4977 29.1107 58.1704 29.4333C57.843 29.7557 57.4001 29.9171 56.8417 29.9171C56.2832 29.9171 55.8403 29.7557 55.5129 29.4333C55.2048 29.1107 55.0508 28.6672 55.0508 28.103V16.402C55.0508 15.8779 55.2144 15.4546 55.5418 15.1321C55.8691 14.8096 56.312 14.6484 56.8705 14.6484C57.3712 14.6484 57.7756 14.8096 58.0839 15.1321C58.4112 15.4345 58.5748 15.8376 58.5748 16.3415V17.1579C59.0562 16.3314 59.7013 15.6965 60.5101 15.2531C61.3189 14.8096 62.2337 14.5879 63.2542 14.5879Z" fill="white"/>
<path d="M79.2858 27.1045C80.2486 27.1651 80.7301 27.6186 80.7301 28.4652C80.7301 28.9489 80.5374 29.322 80.1524 29.5839C79.7865 29.8258 79.2569 29.9264 78.5637 29.8862L77.7836 29.8258C74.5486 29.5839 72.9309 27.7699 72.9309 24.3835V17.7923H71.4867C70.9668 17.7923 70.5623 17.6714 70.2735 17.4295C70.0038 17.1876 69.8691 16.8349 69.8691 16.3713C69.8691 15.9077 70.0038 15.5549 70.2735 15.313C70.5623 15.0712 70.9668 14.9502 71.4867 14.9502H72.9309V12.1686C72.9309 11.6244 73.0947 11.191 73.422 10.8685C73.7494 10.546 74.1923 10.3848 74.7507 10.3848C75.29 10.3848 75.7233 10.546 76.0506 10.8685C76.378 11.191 76.5416 11.6244 76.5416 12.1686V14.9502H78.9969C79.5169 14.9502 79.9116 15.0712 80.1812 15.313C80.4701 15.5549 80.6145 15.9077 80.6145 16.3713C80.6145 16.8349 80.4701 17.1876 80.1812 17.4295C79.9116 17.6714 79.5169 17.7923 78.9969 17.7923H76.5416V24.6557C76.5416 26.1473 77.1964 26.9434 78.506 27.0442L79.2858 27.1045Z" fill="white"/>
<path d="M93.7906 25.6841C94.118 25.6841 94.378 25.8151 94.5706 26.0772C94.7824 26.3392 94.8883 26.6919 94.8883 27.1353C94.8883 27.7602 94.5321 28.2843 93.8195 28.7075C93.1647 29.0905 92.4235 29.403 91.5954 29.6449C90.7673 29.8666 89.9779 29.9774 89.2267 29.9774C86.9544 29.9774 85.1539 29.2921 83.8251 27.9216C82.4964 26.5508 81.832 24.6762 81.832 22.2978C81.832 20.786 82.1209 19.4457 82.6987 18.2766C83.2764 17.1075 84.0851 16.2004 85.125 15.5554C86.184 14.9104 87.3781 14.5879 88.7068 14.5879C89.9779 14.5879 91.085 14.8802 92.0285 15.4647C92.9723 16.0493 93.7041 16.8757 94.2239 17.944C94.7439 19.0123 95.0038 20.2721 95.0038 21.7234C95.0038 22.5901 94.638 23.0234 93.9062 23.0234H85.3849C85.5005 24.4143 85.876 25.4422 86.5114 26.1074C87.147 26.7524 88.0714 27.0749 89.2846 27.0749C89.9008 27.0749 90.4399 26.9942 90.9021 26.8331C91.3836 26.6717 91.9227 26.45 92.5198 26.1679C93.0974 25.8453 93.5212 25.6841 93.7906 25.6841ZM88.7935 17.2486C87.8113 17.2486 87.0217 17.5711 86.4249 18.2161C85.8472 18.8611 85.5005 19.7883 85.3849 20.9977H91.9132C91.8747 19.7682 91.5859 18.841 91.0465 18.2161C90.5073 17.5711 89.7564 17.2486 88.7935 17.2486Z" fill="white"/>
<path d="M105.843 14.6487C106.343 14.6084 106.738 14.7192 107.027 14.9813C107.316 15.2433 107.46 15.6364 107.46 16.1604C107.46 16.7047 107.335 17.1078 107.085 17.3698C106.835 17.6319 106.382 17.8032 105.727 17.8838L104.861 17.9745C103.724 18.0954 102.887 18.4986 102.348 19.1839C101.828 19.8692 101.568 20.7259 101.568 21.754V28.1033C101.568 28.6877 101.394 29.1413 101.048 29.4637C100.701 29.7662 100.268 29.9173 99.7479 29.9173C99.2279 29.9173 98.7947 29.7662 98.448 29.4637C98.1207 29.1413 97.957 28.6877 97.957 28.1033V16.4023C97.957 15.8379 98.1207 15.4046 98.448 15.1022C98.7947 14.7999 99.2183 14.6487 99.7191 14.6487C100.22 14.6487 100.624 14.7999 100.932 15.1022C101.24 15.3844 101.394 15.7976 101.394 16.3419V17.5512C101.76 16.6643 102.299 15.979 103.012 15.4953C103.744 15.0115 104.552 14.7394 105.438 14.6789L105.843 14.6487Z" fill="white"/>
<path d="M119.912 25.6841C120.239 25.6841 120.499 25.8151 120.692 26.0772C120.903 26.3392 121.009 26.6919 121.009 27.1353C121.009 27.7602 120.653 28.2843 119.941 28.7075C119.286 29.0905 118.544 29.403 117.717 29.6449C116.889 29.8666 116.099 29.9774 115.347 29.9774C113.075 29.9774 111.275 29.2921 109.946 27.9216C108.617 26.5508 107.953 24.6762 107.953 22.2978C107.953 20.786 108.242 19.4457 108.82 18.2766C109.397 17.1075 110.206 16.2004 111.246 15.5554C112.305 14.9104 113.499 14.5879 114.828 14.5879C116.099 14.5879 117.206 14.8802 118.149 15.4647C119.093 16.0493 119.825 16.8757 120.344 17.944C120.865 19.0123 121.125 20.2721 121.125 21.7234C121.125 22.5901 120.759 23.0234 120.027 23.0234H111.506C111.622 24.4143 111.997 25.4422 112.633 26.1074C113.269 26.7524 114.192 27.0749 115.406 27.0749C116.021 27.0749 116.561 26.9942 117.023 26.8331C117.505 26.6717 118.043 26.45 118.641 26.1679C119.219 25.8453 119.643 25.6841 119.912 25.6841ZM114.915 17.2486C113.933 17.2486 113.142 17.5711 112.546 18.2161C111.968 18.8611 111.622 19.7883 111.506 20.9977H118.034C117.995 19.7682 117.707 18.841 117.168 18.2161C116.628 17.5711 115.877 17.2486 114.915 17.2486Z" fill="white"/>
<path d="M136.044 26.954C136.39 27.3169 136.563 27.7301 136.563 28.1936C136.563 28.637 136.4 29.0403 136.073 29.4031C135.745 29.7459 135.36 29.9171 134.917 29.9171C134.435 29.9171 134.022 29.7054 133.675 29.282L129.603 24.5655L125.53 29.282C125.163 29.6853 124.75 29.8868 124.287 29.8868C123.864 29.8868 123.488 29.7156 123.161 29.3728C122.833 29.0302 122.67 28.637 122.67 28.1936C122.67 27.7301 122.843 27.3169 123.19 26.954L127.407 22.1467L123.421 17.6115C123.075 17.2487 122.901 16.8355 122.901 16.3719C122.901 15.9083 123.064 15.5152 123.392 15.1927C123.719 14.85 124.095 14.6787 124.519 14.6787C124.98 14.6787 125.395 14.8803 125.76 15.2834L129.603 19.6977L133.444 15.2834C133.81 14.8803 134.224 14.6787 134.686 14.6787C135.129 14.6787 135.505 14.85 135.812 15.1927C136.14 15.5152 136.304 15.9083 136.304 16.3719C136.304 16.8355 136.131 17.2487 135.783 17.6115L131.798 22.1467L136.044 26.954Z" fill="white"/>
<path d="M148.793 15.7369C148.948 15.3741 149.15 15.112 149.4 14.9508C149.67 14.7694 149.959 14.6787 150.267 14.6787C150.709 14.6787 151.105 14.8399 151.451 15.1624C151.818 15.4648 152 15.8478 152 16.3114C152 16.5331 151.943 16.7649 151.827 17.0068L143.941 34.3011C143.613 34.9864 143.104 35.3291 142.409 35.3291C141.967 35.3291 141.572 35.1779 141.226 34.8755C140.898 34.5933 140.734 34.2305 140.734 33.787C140.734 33.5653 140.792 33.3134 140.908 33.0313L142.872 28.7076L137.5 17.0068C137.404 16.8052 137.355 16.5734 137.355 16.3114C137.355 15.8478 137.538 15.4547 137.904 15.1322C138.289 14.8097 138.722 14.6484 139.204 14.6484C139.532 14.6484 139.83 14.7391 140.099 14.9206C140.369 15.0818 140.581 15.3438 140.734 15.7067L144.779 25.0492L148.793 15.7369Z" fill="white"/>
<path d="M24.2641 20.5484C24.2641 17.186 20.5625 15.7132 20.5625 15.7132C20.5625 15.7132 22.6583 14.0459 27.0132 15.8521C31.3682 17.6584 31.9125 20.993 31.9125 20.993C31.9125 20.993 31.8853 24.3555 28.0748 25.4114C24.2641 26.4674 21.2702 25.1613 21.2702 25.1613C21.2702 25.1613 24.2641 23.9108 24.2641 20.5484Z" fill="url(#paint0_linear_15561_508)"/>
<path d="M24.8086 14.9629C24.8086 14.9629 27.1494 16.4079 27.5032 19.1311C27.8571 21.8544 26.3601 23.2161 26.3601 23.2161" stroke="url(#paint1_linear_15561_508)" stroke-width="0.216912" stroke-linecap="round"/>
<path d="M0.586691 31.331H9.09202C9.21696 31.331 9.33087 31.2625 9.39053 31.1505C9.85537 30.2783 11.9649 26.38 14.6025 22.4386C17.1611 18.8539 19.039 15.2414 23.2579 15.2414C29.6542 15.2414 31.9133 21.0492 31.9133 21.0492C31.9133 21.0492 32.3216 17.1032 30.8519 13.9353C29.382 10.7675 23.6118 6.25546 17.3788 8.96122C11.1311 11.6733 1.99382 27.7522 0.291851 30.8239C0.164991 31.0529 0.329036 31.331 0.586691 31.331Z" fill="url(#paint2_linear_15561_508)"/>
<path d="M0.586691 31.331H9.09202C9.21696 31.331 9.33087 31.2625 9.39053 31.1505C9.85537 30.2783 11.9649 26.38 14.6025 22.4386C17.1611 18.8539 19.039 15.2414 23.2579 15.2414C29.6542 15.2414 31.9133 21.0492 31.9133 21.0492C31.9133 21.0492 32.3216 17.1032 30.8519 13.9353C29.382 10.7675 23.6118 6.25546 17.3788 8.96122C11.1311 11.6733 1.99382 27.7522 0.291851 30.8239C0.164991 31.0529 0.329036 31.331 0.586691 31.331Z" fill="url(#paint3_linear_15561_508)" fill-opacity="0.2"/>
<path d="M5.86523 29.1909C5.86523 29.1909 8.42375 24.439 10.3563 21.4101C12.2888 18.3812 16.2354 12.2121 20.9441 11.5174C24.6495 10.9707 27.0955 12.6567 28.2931 13.7682C29.5575 14.9418 30.4161 17.0751 30.4161 17.0751" stroke="url(#paint4_linear_15561_508)" stroke-width="0.216912" stroke-linecap="round"/>
<path d="M27.1486 25.4655C31.3675 24.5889 31.9118 21.0012 31.9118 21.0012C31.9118 21.0012 31.0953 26.7526 28.2373 29.1901C25.3794 31.6276 21.3512 32.1479 17.8944 30.0665C14.4378 27.985 10.5183 23.6031 8.93964 21.5764C7.55859 19.8033 4.67764 15.2845 3.97813 14.1811C3.89076 14.0433 3.92466 13.86 4.05498 13.7638C4.16012 13.6862 4.29886 13.6834 4.4045 13.7603C5.32889 14.4332 9.70172 17.6217 11.607 19.1115C13.7437 20.7821 15.9892 22.2885 17.4317 23.1101C18.8743 23.9316 22.9299 26.3418 27.1486 25.4655Z" fill="url(#paint5_linear_15561_508)"/>
<path d="M3.98633 13.6338C3.98633 13.6338 9.89985 20.1343 11.7256 21.8948C13.5515 23.6555 16.7944 27.014 20.3915 28.0162C23.9887 29.0184 26.523 27.8266 26.523 27.8266" stroke="url(#paint6_linear_15561_508)" stroke-width="0.216912" stroke-linecap="round"/>
<path d="M1.83729 12.4629C2.84445 12.4629 3.66091 11.6293 3.66091 10.6011C3.66091 9.57282 2.84445 8.73926 1.83729 8.73926C0.830134 8.73926 0.0136719 9.57282 0.0136719 10.6011C0.0136719 11.6293 0.830134 12.4629 1.83729 12.4629Z" fill="url(#paint7_radial_15561_508)"/>
</g>
<defs>
<linearGradient id="paint0_linear_15561_508" x1="26.2511" y1="13.5179" x2="29.7031" y2="26.5715" gradientUnits="userSpaceOnUse">
<stop offset="0.333333" stop-color="#432D78"/>
<stop offset="0.578125" stop-color="#66638E"/>
<stop offset="0.744792" stop-color="#8EA1A6"/>
<stop offset="1" stop-color="#BBFFBB"/>
</linearGradient>
<linearGradient id="paint1_linear_15561_508" x1="27.0134" y1="23.2438" x2="26.1747" y2="16.2593" gradientUnits="userSpaceOnUse">
<stop stop-color="#AD95E0" stop-opacity="0"/>
<stop offset="1" stop-color="#8059D2"/>
</linearGradient>
<linearGradient id="paint2_linear_15561_508" x1="4.85839" y1="18.3537" x2="33.2476" y2="17.7672" gradientUnits="userSpaceOnUse">
<stop offset="0.0975669" stop-color="#583E88"/>
<stop offset="0.375" stop-color="#6F4FAA"/>
<stop offset="0.661458" stop-color="#A27CE8"/>
<stop offset="0.833333" stop-color="#86A6CB"/>
<stop offset="1" stop-color="#4BEB30"/>
</linearGradient>
<linearGradient id="paint3_linear_15561_508" x1="6.40983" y1="26.8848" x2="15.3214" y2="22.7756" gradientUnits="userSpaceOnUse">
<stop stop-color="#413588" stop-opacity="0"/>
<stop offset="0.385417" stop-color="#120F26"/>
<stop offset="0.536784"/>
<stop offset="1" stop-color="#413588" stop-opacity="0"/>
</linearGradient>
<linearGradient id="paint4_linear_15561_508" x1="4.93981" y1="29.1909" x2="30.3603" y2="15.3552" gradientUnits="userSpaceOnUse">
<stop stop-color="#946CE8" stop-opacity="0"/>
<stop offset="0.58438" stop-color="#9F7EE7"/>
<stop offset="1" stop-color="#E6DAFF" stop-opacity="0"/>
</linearGradient>
<linearGradient id="paint5_linear_15561_508" x1="31.4491" y1="23.4935" x2="3.35371" y2="14.3668" gradientUnits="userSpaceOnUse">
<stop stop-color="#593F89"/>
<stop offset="0.327559" stop-color="#CD56C1"/>
<stop offset="1" stop-color="#F18281"/>
</linearGradient>
<linearGradient id="paint6_linear_15561_508" x1="23.2959" y1="29.5307" x2="5.64159" y2="15.542" gradientUnits="userSpaceOnUse">
<stop stop-color="#BE8CF1" stop-opacity="0"/>
<stop offset="1" stop-color="#FFBDC5"/>
</linearGradient>
<radialGradient id="paint7_radial_15561_508" cx="0" cy="0" r="1" gradientUnits="userSpaceOnUse" gradientTransform="translate(1.81008 9.82301) rotate(90) scale(2.30644 2.84846)">
<stop stop-color="#8967C7"/>
<stop offset="1" stop-color="#413588"/>
</radialGradient>
<clipPath id="clip0_15561_508">
<rect width="152" height="42" fill="white"/>
</clipPath>
</defs>
</svg>
