<svg xmlns="http://www.w3.org/2000/svg" width="38" height="37" fill="none" xmlns:v="https://vecta.io/nano"><g clip-path="url(#A)" fill="#3e3465"><path d="M37.793 25.084c-.485-.992-1.674-1.467-2.765-1.104l-1.681.559-1.799-1.5c-2.314-1.929-5.479-2.592-8.381-1.872v-1.479l3.31-3.234.539-.582c.191-.227.151-.558-.089-.739a.58.58 0 0 0-.782.084l-.468.505-2.816 2.752-1.238-3.716c-.379-1.137-.078-2.384.785-3.254l2-2.016a3.03 3.03 0 0 0 .473-.618l1.245-2.158c.004-.006.012-.021.037-.023s.036.011.041.017c1.56 1.907 1.955 4.393 1.058 6.65-.108.272.038.575.325.677s.609-.035.717-.307c1.034-2.601.578-5.466-1.219-7.663-.241-.294-.618-.452-1.01-.422s-.738.242-.926.568l-1.245 2.158a1.98 1.98 0 0 1-.308.403l-.198.2c-.008-.349-.055-.691-.141-1.025-.064-.25-.255-.451-.511-.54a.85.85 0 0 0-.76.101l-1.885 1.3c-1.628 1.123-2.566 2.86-2.572 4.765s.919 3.648 2.539 4.781l1.987 1.39v1.776a9.34 9.34 0 0 0-.952.427l-4.887 2.532h-.34c-.766-.647-1.744-1.001-2.779-1.001H6.141c-.268-.443-.772-.743-1.35-.743H.557c-.307 0-.557.235-.557.526s.249.526.557.526h4.235c.244 0 .442.187.442.418v1.547c0 .29.249.526.557.526s.557-.235.557-.526v-1.222h6.75c.818 0 1.586.301 2.165.847a.57.57 0 0 0 .393.154h6.87c.794 0 1.439.61 1.439 1.36s-.646 1.36-1.439 1.36h-5.571c-.258 0-.5.095-.682.267l-.958.905c-.217.205-.217.538 0 .744a.57.57 0 0 0 .393.154.57.57 0 0 0 .394-.154l.914-.864h5.509a2.63 2.63 0 0 0 1.694-.61l11.18-3.715c.547-.182 1.142.056 1.386.553.252.514.032 1.121-.501 1.381l-12.06 5.901c-.706.345-1.499.528-2.294.528h-.973c-.307 0-.556.236-.556.526s.249.526.556.526h.973a6.42 6.42 0 0 0 2.806-.646l12.06-5.901c1.062-.52 1.501-1.731.999-2.757zM18.64 13.572c.005-1.567.777-2.995 2.116-3.919l1.5-1.035c.066.522.016 1.074-.147 1.646l-.514.519c-1.138 1.147-1.534 2.79-1.034 4.289l1.005 3.016-.836-.585c-1.333-.932-2.094-2.365-2.089-3.932zm3.883 10.902H18.53l3.107-1.61c2.958-1.533 6.644-1.146 9.174.963l1.333 1.111-7.106 2.361a2.28 2.28 0 0 0 .039-.415c0-1.33-1.145-2.412-2.552-2.412zm-3.94 8.862h-7.036a5.17 5.17 0 0 1-3.256-1.142l-.327-.266c-.101-.082-.23-.127-.363-.127H6.346V27.99c0-.29-.249-.526-.557-.526s-.557.235-.557.526v4.204c0 .23-.198.418-.442.418H.557c-.307 0-.557.235-.557.526s.249.526.557.526h4.235c.607 0 1.132-.331 1.388-.811h1.215l.171.139a6.32 6.32 0 0 0 3.982 1.397h7.036c.307 0 .557-.236.557-.526s-.249-.526-.556-.526zm-3.686-11.899c.106.088.237.131.367.131a.57.57 0 0 0 .418-.178c.203-.218.181-.55-.05-.742-2.28-1.896-3.587-4.628-3.587-7.495s1.307-5.598 3.587-7.495c.231-.192.253-.524.05-.742a.58.58 0 0 0-.785-.047c-2.519 2.096-3.965 5.116-3.965 8.284s1.445 6.188 3.965 8.284zm14.745-.835c-.229.193-.249.526-.045.742a.57.57 0 0 0 .415.176.57.57 0 0 0 .37-.134c2.481-2.093 3.904-5.094 3.904-8.234s-1.423-6.141-3.904-8.234a.58.58 0 0 0-.786.042c-.205.217-.185.549.045.743 2.245 1.894 3.533 4.609 3.533 7.449s-1.288 5.556-3.533 7.449zM20.979 3.289a11.32 11.32 0 0 1 3.703.074.59.59 0 0 0 .109.01.55.55 0 0 0 .545-.423c.06-.285-.136-.562-.437-.618-1.34-.252-2.741-.279-4.09-.082-.304.044-.512.313-.465.6s.331.484.635.439z"/></g><defs><clipPath id="A"><path fill="#fff" transform="translate(0 .3)" d="M0 0h38v35.907H0z"/></clipPath></defs></svg>