<svg width="36" height="37" viewBox="0 0 36 37" fill="none" xmlns="http://www.w3.org/2000/svg">
<path d="M35.4727 19.0027H34.4074L30.5733 9.56979H32.1342C33.0515 9.56979 33.7978 8.82541 33.7978 7.91048C33.7978 6.99512 33.0515 6.25046 32.1342 6.25046H25.7918L24.5746 5.03628C24.2605 4.72307 23.8426 4.55055 23.398 4.55055H20.1184C20.4569 4.10563 20.6582 3.55145 20.6582 2.95113C20.6582 1.48916 19.4657 0.299805 18 0.299805C16.5343 0.299805 15.3418 1.48916 15.3418 2.95113C15.3418 3.55145 15.5432 4.10556 15.8817 4.55055H12.6021C12.1575 4.55055 11.7395 4.72307 11.4255 5.03628L10.2083 6.25046H8.88117C8.58987 6.25046 8.35383 6.48589 8.35383 6.77645C8.35383 7.067 8.58987 7.30244 8.88117 7.30244H10.4266C10.5665 7.30244 10.7006 7.24703 10.7996 7.14843L12.1714 5.78016C12.2862 5.66557 12.4392 5.60252 12.6022 5.60252H23.3979C23.5609 5.60252 23.7139 5.66557 23.8287 5.78016L25.2005 7.14843C25.2994 7.24703 25.4335 7.30244 25.5734 7.30244H32.1343C32.47 7.30244 32.7432 7.57525 32.7432 7.91048C32.7432 8.24535 32.47 8.51781 32.1343 8.51781H25.103C24.9402 8.51781 24.7874 8.4547 24.6723 8.33954L23.3005 6.9712C23.2016 6.87253 23.0675 6.81713 22.9276 6.81713H13.0725C12.9326 6.81713 12.7986 6.87253 12.6996 6.9712L11.3272 8.3401C11.2127 8.4547 11.0599 8.51781 10.897 8.51781H3.86578C3.53004 8.51781 3.25688 8.24535 3.25688 7.91048C3.25688 7.74798 3.32009 7.59538 3.43491 7.48085C3.55029 7.36576 3.70329 7.30244 3.86578 7.30244H6.42023C6.71154 7.30244 6.94758 7.067 6.94758 6.77645C6.94758 6.48589 6.71154 6.25046 6.42023 6.25046H3.86578C3.42169 6.25046 3.00382 6.4232 2.68917 6.73697C2.37516 7.05024 2.20219 7.46696 2.20219 7.91048C2.20219 8.82541 2.94848 9.56979 3.86578 9.56979H5.42672L1.59265 19.0027H0.527344C0.236039 19.0027 0 19.2381 0 19.5287V21.7957C0 22.0862 0.236039 22.3217 0.527344 22.3217H0.710297V23.9211C0.710297 25.383 1.90273 26.5724 3.36846 26.5724H9.05062C10.5164 26.5724 11.7088 25.383 11.7088 23.9211V22.3217H11.8917C12.183 22.3217 12.4191 22.0862 12.4191 21.7957V19.5287C12.4191 19.2381 12.183 19.0027 11.8917 19.0027H10.8264L6.99237 9.56979H10.8971C11.3423 9.56979 11.7603 9.39684 12.0736 9.08329L13.2909 7.8691H16.0521V29.4876H11.6075C11.3162 29.4876 11.0802 29.7231 11.0802 30.0136V32.3212H9.47672C9.18541 32.3212 8.94938 32.5566 8.94938 32.8471V35.6812C8.94938 35.9717 9.18541 36.2071 9.47672 36.2071H26.5233C26.8146 36.2071 27.0506 35.9717 27.0506 35.6812V32.8471C27.0506 32.5566 26.8146 32.3212 26.5233 32.3212H24.9198V30.0136C24.9198 29.7231 24.6838 29.4876 24.3925 29.4876H19.9477V13.3443C19.9477 13.0537 19.7116 12.8183 19.4203 12.8183C19.129 12.8183 18.893 13.0537 18.893 13.3443V29.4876H17.1068V7.8691H18.893V10.8897C18.893 11.1802 19.129 11.4156 19.4203 11.4156C19.7116 11.4156 19.9477 11.1802 19.9477 10.8897V7.8691H22.709L23.9258 9.08279C24.2397 9.39691 24.6577 9.56979 25.1029 9.56979H29.0076L25.1736 19.0027H24.1083C23.817 19.0027 23.581 19.2381 23.581 19.5287V21.7957C23.581 22.0862 23.817 22.3217 24.1083 22.3217H24.2913V23.9211C24.2913 25.383 25.4837 26.5724 26.9494 26.5724H32.6316C34.0973 26.5724 35.2898 25.383 35.2898 23.9211V22.3217H35.4727C35.764 22.3217 36.0001 22.0862 36.0001 21.7957V19.5287C36 19.2381 35.764 19.0027 35.4727 19.0027ZM18 1.35178C18.8841 1.35178 19.6035 2.06922 19.6035 2.95113C19.6035 3.83303 18.8841 4.55041 18 4.55041C17.1159 4.55041 16.3965 3.83296 16.3965 2.95106C16.3965 2.06915 17.1159 1.35178 18 1.35178ZM10.654 23.921C10.654 24.8028 9.93473 25.5204 9.05055 25.5204H3.36839C2.48428 25.5204 1.76491 24.8029 1.76491 23.921V22.3216H10.654V23.921ZM11.3643 21.2697H1.05469V20.0547H11.3643V21.2697ZM2.73066 19.0027L6.20951 10.4437L9.68829 19.0027H2.73066ZM23.8651 32.3212H16.3076C16.0163 32.3212 15.7802 32.5566 15.7802 32.8471C15.7802 33.1377 16.0163 33.3731 16.3076 33.3731H25.9959V35.1552H10.0041V33.3731H13.8466C14.1379 33.3731 14.3739 33.1377 14.3739 32.8471C14.3739 32.5566 14.1379 32.3212 13.8466 32.3212H12.1348V30.5396H23.865V32.3212H23.8651ZM29.7905 10.4437L33.2693 19.0027H26.3116L29.7905 10.4437ZM24.6357 20.0547H34.9453V21.2697H24.6357V20.0547ZM34.235 23.921C34.235 24.8028 33.5157 25.5204 32.6315 25.5204H26.9494C26.0653 25.5204 25.3459 24.8029 25.3459 23.921V22.3216H34.235V23.921Z" fill="#3E3465"/>
</svg>
