<svg width="34" height="33" viewBox="0 0 34 33" fill="none" xmlns="http://www.w3.org/2000/svg">
<path fill-rule="evenodd" clip-rule="evenodd" d="M15.6426 -0.72169C14.6023 -0.586021 13.4814 -0.207 12.6016 0.306884C12.0753 0.614262 11.002 1.44322 11.002 1.54233C11.002 1.57449 11.1271 1.7284 11.2801 1.88428C11.7964 2.41069 11.7599 2.40425 12.1734 2.04251C13.5415 0.845748 15.6028 0.219271 17.4326 0.444164C18.7745 0.609061 20.1625 1.21202 21.1118 2.04251C21.5254 2.40425 21.4889 2.41069 22.0052 1.88428C22.1581 1.7284 22.2833 1.57222 22.2833 1.5372C22.2833 1.4364 21.2274 0.624444 20.6821 0.306005C19.1954 -0.562287 17.3333 -0.942041 15.6426 -0.72169ZM15.8718 1.75931C14.9133 1.91256 13.8504 2.37714 13.163 2.94311C12.9616 3.10896 12.7882 3.26697 12.7778 3.29422C12.7674 3.3214 12.9397 3.52234 13.1608 3.74064L13.5628 4.13761L13.7291 3.98494C14.0611 3.68035 14.739 3.30184 15.3 3.10779C15.7817 2.94113 15.9965 2.90941 16.6426 2.90941C17.2899 2.90941 17.5047 2.94128 17.9978 3.11035C18.5596 3.30287 19.2028 3.66438 19.5561 3.98612L19.7225 4.13761L20.1244 3.74064C20.3455 3.52234 20.5179 3.3214 20.5075 3.29422C20.497 3.26697 20.3237 3.10896 20.1222 2.94311C19.6298 2.53765 18.7725 2.10061 18.1086 1.91666C17.4944 1.74642 16.4232 1.67111 15.8718 1.75931ZM15.7845 4.35774C15.4109 4.47956 14.894 4.77537 14.7212 4.96634C14.5996 5.10062 14.6099 5.12128 14.9829 5.4896L15.3712 5.87309L15.7946 5.6504C16.125 5.47664 16.3112 5.4277 16.6426 5.4277C16.974 5.4277 17.1602 5.47664 17.4906 5.6504L17.914 5.87309L18.3028 5.48916L18.6916 5.10516L18.5304 4.93367C18.4418 4.83932 18.1572 4.65772 17.898 4.53011C17.4903 4.32932 17.3368 4.29533 16.76 4.2776C16.3394 4.26471 15.9793 4.2943 15.7845 4.35774ZM15.3607 6.75633C13.238 7.02451 11.1567 8.05411 9.6089 9.60199C5.7228 13.488 5.71525 19.7306 9.59184 23.6387L10.1962 24.2479V25.8787V27.5095L8.73109 28.9809L7.26599 30.4524V31.1626V31.8728H7.85203H8.43807V31.4172V30.9616L9.90317 29.4902L11.3683 28.0187V26.5413V25.0639L11.7529 25.2917C11.9643 25.417 12.3517 25.6113 12.6136 25.7235L13.0898 25.9275L13.1098 27.3016L13.1297 28.6756L12.249 29.5665L11.3683 30.4573V31.165V31.8728H11.9543H12.5403V31.4185V30.9642L13.4194 30.0751L14.2985 29.1859V27.7378C14.2985 26.5716 14.3172 26.2969 14.3947 26.3266C14.5019 26.3678 15.4582 26.5154 15.8002 26.5436L16.02 26.5618L16.0392 29.2173L16.0584 31.8728H16.6426H17.2268L17.2461 29.2173L17.2653 26.5618L17.4851 26.5436C17.8271 26.5154 18.7834 26.3678 18.8905 26.3266C18.968 26.2969 18.9868 26.5716 18.9868 27.7378V29.1859L19.8659 30.0751L20.7449 30.9642V31.4185V31.8728H21.331H21.917V31.165V30.4573L21.0379 29.5682L20.1589 28.679V27.3186V25.9582L20.6077 25.7636C20.8545 25.6566 21.2501 25.4555 21.4868 25.3168L21.917 25.0647V26.5417V28.0187L23.3821 29.4902L24.8472 30.9616V31.4172V31.8728H25.4332H26.0193V31.1626V30.4524L24.5542 28.9809L23.0891 27.5095V25.8836V24.2578L23.6934 23.6433C25.1192 22.1934 26.1136 20.2859 26.4681 18.3206C26.6117 17.5245 26.5934 15.5867 26.4348 14.7867C25.7847 11.5079 23.5937 8.79406 20.5311 7.47364C18.963 6.79757 17.0905 6.53781 15.3607 6.75633ZM17.1211 7.95126C17.9419 8.29417 18.7733 9.47138 19.3108 11.0519C19.5151 11.6525 19.5747 11.5862 18.6938 11.7384C17.9718 11.8632 15.3978 11.8642 14.6281 11.74C13.6993 11.5901 13.7592 11.6687 14.015 10.9363C14.7924 8.71099 16.049 7.50331 17.1211 7.95126ZM13.9363 8.44947C13.6297 8.91515 13.1346 9.95325 12.9033 10.6157C12.7742 10.9855 12.6428 11.2881 12.6115 11.2881C12.4911 11.2881 11.0288 10.7545 10.7225 10.5988L10.4004 10.4352L10.7561 10.1208C11.6633 9.31908 13.1479 8.46617 14.0676 8.21828C14.0816 8.21447 14.0225 8.31856 13.9363 8.44947ZM20.635 8.81721C21.2141 9.11067 22.0007 9.65166 22.5291 10.1199L22.8848 10.4352L22.5628 10.5988C22.2565 10.7545 20.7941 11.2881 20.6738 11.2881C20.6424 11.2881 20.5111 10.9855 20.3819 10.6157C20.1502 9.95193 19.6557 8.91537 19.3472 8.44676L19.1887 8.20597L19.6555 8.38164C19.9122 8.47826 20.353 8.67429 20.635 8.81721ZM1.04781 11.5457C-1.38345 14.5679 -1.38345 18.7036 1.04781 21.7258C1.29138 22.0286 1.51298 22.2764 1.54016 22.2764C1.59407 22.2764 2.1147 21.7943 2.27373 21.5971C2.36017 21.4898 2.33197 21.4279 2.04943 21.1049C1.21893 20.1555 0.615972 18.7676 0.451075 17.4257C0.230358 15.6297 0.819108 13.6296 1.97126 12.2616C2.43116 11.7155 2.42779 11.767 2.02972 11.3628C1.83047 11.1606 1.6277 10.9951 1.57913 10.9951C1.53049 10.9951 1.29138 11.2428 1.04781 11.5457ZM31.2725 11.3455C31.0827 11.5383 30.9274 11.7303 30.9274 11.7723C30.9274 11.8143 31.0132 11.9285 31.1181 12.0262C31.4486 12.3338 32.1619 13.4855 32.3927 14.0839C32.7412 14.9875 32.8541 15.6121 32.8541 16.6357C32.8541 17.6585 32.7408 18.2862 32.3945 19.1808C32.1527 19.8056 31.6105 20.6955 31.1841 21.1675C30.9433 21.4341 30.9221 21.4862 31.0101 21.5954C31.167 21.7897 31.6905 22.2764 31.7428 22.2764C31.7686 22.2764 31.972 22.0537 32.1947 21.7814C34.6746 18.7501 34.6746 14.5213 32.1947 11.49C31.972 11.2178 31.7511 10.9951 31.7038 10.9951C31.6565 10.9951 31.4624 11.1528 31.2725 11.3455ZM11.5966 12.2001L12.3744 12.4733L12.2792 12.9726C12.1824 13.4803 12.0688 14.4563 11.9871 15.482L11.9418 16.0497H9.91013H7.87855L7.94059 15.5186C8.08615 14.2723 8.55813 12.989 9.28651 11.859L9.60319 11.3676L10.211 11.6473C10.5453 11.801 11.1689 12.0499 11.5966 12.2001ZM24.0837 11.9894C24.7296 13.0256 25.2091 14.368 25.3443 15.5186L25.4067 16.0497H23.3751H21.3435L21.2984 15.482C21.2233 14.5368 21.0987 13.4771 21.0015 12.9577L20.9096 12.4662L21.5781 12.2428C21.9458 12.12 22.5598 11.8768 22.9426 11.7024C23.3253 11.5282 23.6613 11.3973 23.6893 11.4118C23.7173 11.4263 23.8948 11.6862 24.0837 11.9894ZM2.96204 13.1379C2.53701 13.6623 2.10539 14.5118 1.90834 15.2114C1.7819 15.6603 1.74447 15.9858 1.74447 16.6357C1.74447 17.6354 1.91303 18.3361 2.36032 19.1955C2.61532 19.6855 3.16547 20.4486 3.30113 20.5006C3.32831 20.511 3.52925 20.3386 3.74755 20.1175L4.14452 19.7156L3.99303 19.5492C3.67129 19.1959 3.30978 18.5527 3.11726 17.9909C2.94819 17.4978 2.91633 17.283 2.91633 16.6357C2.91633 15.9884 2.94819 15.7737 3.11726 15.2805C3.30978 14.7187 3.67129 14.0755 3.99303 13.7222L4.14452 13.5559L3.74821 13.1545C3.5302 12.9338 3.33425 12.7533 3.31271 12.7533C3.29117 12.7535 3.13338 12.9265 2.96204 13.1379ZM14.8845 12.9369C16.2683 13.1089 18.0219 13.0511 19.509 12.7846L19.7747 12.7369L19.8534 13.2029C19.9603 13.8361 20.0659 14.7177 20.1222 15.4453L20.1689 16.0497H16.6414H13.1139L13.1604 15.482C13.238 14.5327 13.3454 13.6186 13.4323 13.1667L13.5148 12.7376L13.7784 12.7849C13.9234 12.8109 14.4212 12.8793 14.8845 12.9369ZM29.5377 13.1539L29.1407 13.5559L29.2934 13.7222C29.5992 14.0555 29.9768 14.7328 30.169 15.2931C30.3337 15.7728 30.3659 15.9922 30.3659 16.6357C30.3659 17.7295 30.0789 18.5365 29.3672 19.4441L29.1469 19.7251L29.554 20.1322L29.9611 20.5393L30.2061 20.2619C30.5432 19.8805 30.6751 19.6811 30.9673 19.1111C31.379 18.3078 31.5408 17.6096 31.5408 16.6357C31.5408 15.6361 31.3722 14.9353 30.9249 14.076C30.6699 13.586 30.1198 12.8228 29.9841 12.7709C29.9569 12.7605 29.756 12.9328 29.5377 13.1539ZM4.88505 14.8166C4.77151 14.9509 4.59328 15.242 4.48889 15.4636C4.32231 15.8174 4.29916 15.9605 4.29916 16.6373C4.29916 17.3566 4.31484 17.4398 4.53409 17.8852C4.66331 18.1476 4.84623 18.4349 4.94058 18.5235L5.11207 18.6847L5.49607 18.2959L5.88 17.9071L5.65731 17.4837C5.34788 16.8955 5.34803 16.3756 5.65782 15.7867L5.8811 15.3623L5.48626 14.9675L5.09141 14.5726L4.88505 14.8166ZM27.7892 14.9755L27.4053 15.3643L27.628 15.7877C27.8017 16.1181 27.8506 16.3043 27.8506 16.6357C27.8506 16.9671 27.8017 17.1533 27.628 17.4837L27.4053 17.9071L27.7892 18.2959L28.1732 18.6847L28.3447 18.5235C28.439 18.4349 28.6219 18.1476 28.7512 17.8852C28.9706 17.4396 28.9861 17.3568 28.9861 16.6357C28.9861 15.9146 28.9706 15.8318 28.7512 15.3863C28.6219 15.1238 28.439 14.8366 28.3447 14.7479L28.1732 14.5868L27.7892 14.9755ZM11.9869 17.7895C12.0617 18.7325 12.1865 19.7939 12.283 20.3103L12.3744 20.7981L11.5966 21.0713C11.1689 21.2216 10.5453 21.4704 10.211 21.6242L9.60319 21.9039L9.28651 21.4125C8.55813 20.2824 8.08615 18.9991 7.94059 17.7529L7.87855 17.2218H9.91013H11.9418L11.9869 17.7895ZM20.1198 17.8627C20.0713 18.5283 19.8163 20.4456 19.7703 20.4917C19.7557 20.5062 19.4005 20.4628 18.9808 20.3952C18.4465 20.3092 17.7561 20.2716 16.6793 20.2698C15.3155 20.2676 14.87 20.3012 13.7784 20.4886L13.5148 20.5338L13.4323 20.1048C13.3454 19.6528 13.238 18.7387 13.1604 17.7895L13.1139 17.2218H16.6402H20.1665L20.1198 17.8627ZM25.3447 17.7529C25.1991 18.9991 24.7271 20.2824 23.9988 21.4125L23.6821 21.9039L23.0541 21.6138C22.7088 21.4541 22.0852 21.2058 21.6684 21.0619L20.9105 20.8L21.0027 20.3112C21.0905 19.8458 21.1987 18.9134 21.2996 17.7529L21.3458 17.2218H23.3763H25.4067L25.3447 17.7529ZM18.7304 21.5412C18.9721 21.585 19.2421 21.6367 19.3303 21.6559L19.4906 21.6909L19.3109 22.2217C18.8732 23.5137 18.1274 24.6927 17.4736 25.1257C16.8833 25.5166 16.4019 25.5166 15.8117 25.1257C15.1585 24.693 14.412 23.5137 13.9754 22.2246C13.7681 21.6125 13.7149 21.6676 14.6281 21.5482C14.9504 21.506 15.3131 21.4574 15.4339 21.4401C15.8269 21.3842 18.2789 21.4593 18.7304 21.5412ZM12.8301 22.4778C13.0066 23.0128 13.6778 24.4396 13.9306 24.8169L14.0866 25.0499L13.6248 24.8822C12.645 24.5264 11.5881 23.8888 10.7564 23.1518L10.4009 22.8367L10.6831 22.6902C10.9822 22.5349 12.4472 21.9935 12.5854 21.9871C12.6303 21.985 12.7405 22.2059 12.8301 22.4778ZM21.4857 22.2462C21.901 22.3907 22.3857 22.5826 22.5628 22.6726L22.8848 22.8362L22.5291 23.1515C21.7038 23.8829 20.6716 24.5073 19.6555 24.8898L19.1887 25.0655L19.3472 24.8247C19.6557 24.3561 20.1502 23.3195 20.3819 22.6557C20.5111 22.2859 20.6424 21.9833 20.6738 21.9833C20.7051 21.9833 21.0705 22.1016 21.4857 22.2462ZM7.26599 33.6309V34.2169H7.85203H8.43807V33.6309V33.0448H7.85203H7.26599V33.6309ZM11.3683 33.6309V34.2169H11.9543H12.5403V33.6309V33.0448H11.9543H11.3683V33.6309ZM16.0566 33.6309V34.2169H16.6426H17.2287V33.6309V33.0448H16.6426H16.0566V33.6309ZM20.7449 33.6309V34.2169H21.331H21.917V33.6309V33.0448H21.331H20.7449V33.6309ZM24.8472 33.6309V34.2169H25.4332H26.0193V33.6309V33.0448H25.4332H24.8472V33.6309Z" fill="#3E3465"/>
</svg>
