<svg width="35" height="35" viewBox="0 0 35 35" fill="none" xmlns="http://www.w3.org/2000/svg">
<g clip-path="url(#clip0)">
<path fill-rule="evenodd" clip-rule="evenodd" d="M11.3134 0.478176C9.72799 0.919935 8.24519 2.14894 7.52599 3.61744C6.63805 5.43041 7.14819 9.90584 8.14806 9.07591C8.35049 8.90801 8.35049 8.76496 8.14806 8.09254C7.76771 6.82849 7.84239 5.04546 8.31783 4.0427C9.15372 2.27975 10.8852 1.18019 12.8443 1.16846C13.657 1.16369 14.1338 1.25895 14.6443 1.52806C15.3234 1.88612 17.267 3.81987 17.267 4.13745C17.267 4.53073 17.9489 4.2504 18.2749 3.72308C18.7153 3.01051 19.9305 1.87677 20.6922 1.46801C22.0879 0.718703 24.6357 1.30165 26.0212 2.68697C27.3992 4.06516 27.7622 6.28127 26.9741 8.5047C26.7676 9.08747 26.6467 9.64252 26.7057 9.73795C27.1107 10.3934 27.8145 9.23053 28.1574 7.33898C28.7446 4.10122 26.9296 1.27664 23.7367 0.458613C21.7336 -0.0545906 20.0802 0.472052 18.522 2.11951L17.6514 3.04011L16.7239 2.08277C15.1358 0.443644 13.3441 -0.0875899 11.3134 0.478176ZM18.9042 6.12648C18.8564 6.29029 18.6089 7.802 18.3541 9.48603C18.0991 11.1701 17.8435 12.604 17.786 12.6726C17.7283 12.7411 17.3442 11.6807 16.9322 10.3161C15.9133 6.93991 15.632 6.86217 15.024 9.78881C14.8156 10.7917 14.5996 11.6123 14.544 11.6123C14.4885 11.6123 14.2757 11.2679 14.0711 10.8469L13.6992 10.0814H10.4858C7.87998 10.0814 7.23359 10.1282 7.06688 10.3291C6.6355 10.8489 7.05753 10.9319 10.1303 10.9319H13.1796L13.6787 11.91C13.953 12.4479 14.2903 13.0383 14.4281 13.2218C14.8411 13.7723 15.1599 13.2919 15.501 11.6052C15.6704 10.7671 15.8691 10.0814 15.9426 10.0814C16.016 10.0814 16.0763 10.1707 16.0763 10.2797C16.0763 10.3889 16.4234 11.5754 16.8479 12.9163C17.6325 15.3963 17.9329 15.8273 18.2801 14.9719C18.3655 14.7613 18.6469 13.2144 18.9053 11.5341L19.3753 8.47901L19.7413 9.93527C19.9426 10.7361 20.1616 11.4795 20.2282 11.587C20.4199 11.8971 27.9175 11.8597 28.0371 11.548C28.2433 11.0105 27.767 10.9319 24.3052 10.9319H20.8649L20.3183 8.59298C20.0176 7.30666 19.6962 6.15845 19.6042 6.04142C19.3637 5.73609 19.0053 5.77963 18.9042 6.12648ZM9.14045 11.9114C8.66875 12.0685 8.99467 12.6675 10.0801 13.6378C12.3139 15.6344 17.0236 19.0996 17.5582 19.1399C18.0554 19.1774 22.661 15.883 24.8366 13.9334C25.6325 13.2203 25.6689 13.1528 25.4046 12.881C25.1392 12.6079 25.036 12.6622 23.7036 13.774C22.051 15.153 19.1633 17.3285 18.2449 17.8866L17.6069 18.2743L16.6289 17.619C14.9134 16.4696 12.3854 14.5214 10.844 13.1611C10.0219 12.4355 9.25527 11.8731 9.14045 11.9114ZM1.10712 12.5908C0.143316 13.0722 0.0587747 13.5849 0.119162 18.5866C0.164069 22.304 0.213399 23.0008 0.464472 23.4594C0.625561 23.7537 2.27132 25.241 4.12171 26.7645C5.9721 28.2881 7.49572 29.5399 7.50745 29.5465C7.51919 29.553 7.57601 29.7126 7.63384 29.9012C7.71073 30.1523 7.63656 30.2889 7.35725 30.4115C6.99697 30.5695 6.97299 30.6915 6.92757 32.6006C6.8597 35.45 6.545 35.2568 11.2547 35.2568C15.9756 35.2568 15.7361 35.3866 15.7361 32.8282C15.7361 30.1991 15.923 30.3238 11.9771 30.3238H8.74785L8.45714 29.659C8.23244 29.1449 7.386 28.3512 4.72693 26.161C1.79928 23.7498 1.26141 23.2347 1.11308 22.7009C1.01612 22.3517 0.938551 20.2194 0.938041 17.89C0.93702 14.0523 0.962706 13.683 1.24814 13.4248C1.64839 13.0625 2.0068 13.0677 2.34395 13.4409C2.62547 13.7527 3.49283 18.3063 3.56802 19.8675C3.59064 20.3381 3.70563 20.874 3.82351 21.0582C4.21696 21.6733 7.22491 24.0216 7.48925 23.92C7.94666 23.7446 7.75342 23.3793 6.76529 22.5514C4.85553 20.951 4.34658 20.3808 4.45579 19.9634C4.51107 19.7516 4.73408 19.4975 4.95113 19.3985C5.42079 19.1847 5.7018 19.3446 7.51919 20.8599C8.28313 21.4969 9.11817 22.0162 9.74143 22.2418C10.8964 22.6601 13.0681 24.332 13.4728 25.1145C13.6208 25.4009 13.8365 26.5042 13.9518 27.5665C14.1713 29.5862 14.3672 30.0746 14.7823 29.636C14.9801 29.427 14.9823 29.0781 14.7959 27.4039C14.6744 26.3127 14.4419 25.1392 14.2793 24.7964C13.7623 23.7072 10.601 21.3176 9.66641 21.3099C9.55601 21.3089 8.63745 20.6506 7.62516 19.8469C5.83669 18.4265 5.76474 18.3881 5.06442 18.4825C4.22938 18.5949 4.35237 18.8601 3.81416 15.7841C3.39621 13.396 3.15994 12.8616 2.37712 12.5345C1.67527 12.2412 1.81935 12.2349 1.10712 12.5908ZM32.8 12.5431C32.0567 12.8645 31.8303 13.3991 31.3934 15.8649C30.8877 18.7198 30.9182 18.6342 30.4506 18.5168C29.6975 18.3279 29.0703 18.6225 27.5613 19.8739C26.6236 20.6518 25.7326 21.237 25.2336 21.4027C23.8044 21.8774 21.4276 23.7586 20.9286 24.81C20.7696 25.1453 20.54 26.3127 20.4185 27.4039C20.2321 29.0781 20.2343 29.427 20.4321 29.636C20.8434 30.0708 21.0328 29.5993 21.2717 27.5444C21.3973 26.4649 21.6166 25.3564 21.7589 25.081C22.1525 24.3199 24.4719 22.5509 25.5016 22.2263C26.1093 22.0348 26.8588 21.5539 27.9021 20.6863C28.7362 19.9925 29.5944 19.3808 29.8091 19.3269C30.2624 19.2132 30.6283 19.4647 30.7639 19.9833C30.867 20.3778 30.3235 20.9808 28.4491 22.5514C27.4589 23.3811 27.2677 23.7445 27.7284 23.9214C27.9631 24.0114 30.7994 21.831 31.3376 21.1465C31.4516 21.0016 31.5474 20.4926 31.5503 20.0153C31.5533 19.5381 31.628 18.9258 31.7165 18.6545C31.8048 18.3833 31.9116 17.8934 31.9538 17.566C32.2009 15.6457 32.6597 13.7403 32.9431 13.4569C33.3422 13.0579 33.5162 13.0625 33.9372 13.4835C34.2592 13.8055 34.2774 14.0504 34.2774 18.0509C34.2774 20.6734 34.2068 22.4808 34.0913 22.8121C33.9557 23.2007 32.9708 24.1156 30.4766 26.1702C27.8267 28.3528 26.982 29.1451 26.7573 29.659L26.4666 30.3238H23.2373C19.2914 30.3238 19.4783 30.1991 19.4783 32.8282C19.4783 35.3866 19.2388 35.2568 23.9597 35.2568C28.6668 35.2568 28.3547 35.4469 28.2868 32.6188C28.2372 30.5498 28.2472 30.5808 27.502 30.2108C27.2533 30.0873 28.2913 29.0968 31.1369 26.7419C32.963 25.2308 34.5885 23.7537 34.7492 23.4594C34.9995 23.0011 35.0493 22.2937 35.0963 18.5393C35.1339 15.5359 35.0891 13.9664 34.9542 13.5576C34.6383 12.6006 33.6948 12.1563 32.8 12.5431ZM14.8495 32.7477L14.8005 34.3212L11.2708 34.3671L7.74118 34.4132V32.7937V31.1743H11.3198H14.8983L14.8495 32.7477ZM27.4732 32.7937V34.4132L23.9436 34.3671L20.4139 34.3212L20.3649 32.7477L20.3161 31.1743H23.8946H27.4732V32.7937Z" fill="#3E3465"/>
</g>
<defs>
<clipPath id="clip0">
<rect width="35" height="35" fill="white"/>
</clipPath>
</defs>
</svg>
