<svg width="35" height="35" viewBox="0 0 35 35" fill="none" xmlns="http://www.w3.org/2000/svg">
<path d="M34.2929 17.1132L17.8866 0.706993C17.7841 0.604469 17.645 0.546875 17.5 0.546875C17.355 0.546875 17.2159 0.604469 17.1134 0.706993L0.707115 17.1132C0.630657 17.1897 0.578591 17.2872 0.557499 17.3932C0.536407 17.4993 0.547237 17.6092 0.588619 17.7091C0.630001 17.8091 0.700078 17.8945 0.789989 17.9546C0.879901 18.0146 0.985611 18.0467 1.09376 18.0468H3.82813V31.1718H3.28126C3.13622 31.1718 2.99712 31.2294 2.89456 31.3319C2.792 31.4345 2.73438 31.5736 2.73438 31.7186V33.9061C2.73438 34.0512 2.792 34.1903 2.89456 34.2928C2.99712 34.3954 3.13622 34.453 3.28126 34.453H31.7188C31.8638 34.453 32.0029 34.3954 32.1055 34.2928C32.208 34.1903 32.2656 34.0512 32.2656 33.9061V31.7186C32.2656 31.5736 32.208 31.4345 32.1055 31.3319C32.0029 31.2294 31.8638 31.1718 31.7188 31.1718H31.1719V18.0468H33.9063C34.0144 18.0467 34.1201 18.0146 34.21 17.9546C34.2999 17.8945 34.37 17.8091 34.4114 17.7091C34.4528 17.6092 34.4636 17.4993 34.4425 17.3932C34.4214 17.2872 34.3694 17.1897 34.2929 17.1132ZM31.1719 33.3593H3.82813V32.2655H31.1719V33.3593ZM14.7656 31.1718H8.20313V21.328H14.7656V31.1718ZM15.8594 31.1718V20.7811C15.8594 20.6361 15.8018 20.497 15.6992 20.3944C15.5966 20.2919 15.4575 20.2343 15.3125 20.2343H7.65626C7.51122 20.2343 7.37212 20.2919 7.26956 20.3944C7.167 20.497 7.10938 20.6361 7.10938 20.7811V31.1718H4.92188V17.7263L17.5 5.14816L30.0781 17.7263V31.1718H15.8594ZM30.8514 16.953L17.8866 3.98824C17.7841 3.88572 17.645 3.82812 17.5 3.82812C17.355 3.82812 17.2159 3.88572 17.1134 3.98824L4.1486 16.953H2.41391L17.5 1.86691L32.5861 16.953H30.8514Z" fill="#3E3465"/>
<path d="M21.3281 14.2188C21.3281 13.4616 21.1036 12.7215 20.683 12.092C20.2623 11.4624 19.6645 10.9718 18.965 10.682C18.2655 10.3923 17.4958 10.3165 16.7532 10.4642C16.0106 10.6119 15.3285 10.9765 14.7931 11.5119C14.2577 12.0472 13.8931 12.7293 13.7454 13.4719C13.5977 14.2145 13.6735 14.9842 13.9633 15.6837C14.253 16.3832 14.7437 16.9811 15.3732 17.4017C16.0027 17.8224 16.7429 18.0469 17.5 18.0469C18.5149 18.0457 19.488 17.642 20.2056 16.9244C20.9233 16.2067 21.327 15.2337 21.3281 14.2188ZM14.7656 14.2188C14.7656 13.6779 14.926 13.1493 15.2265 12.6996C15.5269 12.2499 15.954 11.8995 16.4536 11.6925C16.9532 11.4856 17.503 11.4314 18.0335 11.5369C18.5639 11.6424 19.0511 11.9028 19.4335 12.2853C19.8159 12.6677 20.0763 13.1549 20.1818 13.6853C20.2873 14.2157 20.2332 14.7655 20.0262 15.2652C19.8193 15.7648 19.4688 16.1918 19.0191 16.4923C18.5695 16.7928 18.0408 16.9531 17.5 16.9531C16.7751 16.9523 16.0801 16.6639 15.5675 16.1513C15.0549 15.6387 14.7665 14.9437 14.7656 14.2188Z" fill="#3E3465"/>
<path d="M28.4375 20.2344H17.5C17.355 20.2344 17.2159 20.292 17.1133 20.3946C17.0107 20.4971 16.9531 20.6362 16.9531 20.7812V28.4375C16.9531 28.5825 17.0107 28.7216 17.1133 28.8242C17.2159 28.9268 17.355 28.9844 17.5 28.9844H28.4375C28.5825 28.9844 28.7216 28.9268 28.8242 28.8242C28.9268 28.7216 28.9844 28.5825 28.9844 28.4375V20.7812C28.9844 20.6362 28.9268 20.4971 28.8242 20.3946C28.7216 20.292 28.5825 20.2344 28.4375 20.2344ZM27.8906 24.0625H23.5156V21.3281H27.8906V24.0625ZM22.4219 21.3281V24.0625H18.0469V21.3281H22.4219ZM18.0469 25.1562H22.4219V27.8906H18.0469V25.1562ZM23.5156 27.8906V25.1562H27.8906V27.8906H23.5156Z" fill="#3E3465"/>
<path d="M10.3906 24.6094H9.29688V26.7969H10.3906V24.6094Z" fill="#3E3465"/>
</svg>
