<svg width="36" height="35" viewBox="0 0 36 35" fill="none" xmlns="http://www.w3.org/2000/svg">
<path fill-rule="evenodd" clip-rule="evenodd" d="M15.9304 1.12873C15.8356 1.22327 15.7581 2.95263 15.7581 4.97155C15.7581 8.02913 15.8276 8.69995 16.1735 8.98718C16.9936 9.66756 17.308 8.64519 17.308 5.29831V2.24797H20.2785H23.249V5.44529C23.249 8.06761 23.3237 8.70434 23.6644 8.98718C24.0175 9.2801 24.134 9.25789 24.4393 8.84021C24.9135 8.19186 24.9556 1.73317 24.4889 1.26641C24.1549 0.932415 16.2538 0.805328 15.9304 1.12873ZM10.4796 3.03167C9.81062 3.74692 9.31028 4.47328 9.36788 4.64609C9.57815 5.2779 10.4052 5.12137 11.2667 4.28652L12.1449 3.43515L13.2761 4.54509C14.3767 5.62533 15.2007 5.85858 15.4345 5.1565C15.5781 4.72539 12.6962 1.73136 12.138 1.73136C11.8949 1.73136 11.1486 2.31642 10.4796 3.03167ZM6.53633 5.58038C5.1983 6.42065 4.47556 8.28252 5.24092 8.91744C5.68676 9.28759 6.12278 8.97763 6.33279 8.14097C6.57843 7.16199 7.3549 6.55678 8.32898 6.58442C9.2284 6.60999 10.0754 7.38672 10.0754 8.18592C10.0754 8.43699 10.2557 8.7919 10.4758 8.97478C10.8061 9.24885 10.949 9.23438 11.2915 8.89187C11.6728 8.51035 11.6707 8.38249 11.2651 7.32059C11.0223 6.68464 10.5176 5.96397 10.1436 5.71909C9.08891 5.02786 7.51247 4.96742 6.53633 5.58038ZM29.9934 6.82335C29.8531 7.3614 29.6367 8.20839 29.5124 8.70563L29.2864 9.6097L15.0106 9.73886C1.25629 9.86336 0.721078 9.88635 0.367974 10.3694C0.166495 10.6453 0.00169512 11.1102 0.00195343 11.4026C0.00247004 11.6953 1.1385 15.0729 2.52664 18.9087L5.05081 25.883L15.2103 25.9507L25.37 26.0181L25.2016 26.6894C25.1088 27.0588 24.4494 27.9291 23.7364 28.6236L22.4397 29.8868H17.022H11.6046L10.6439 28.877C9.43763 27.6088 8.21558 27.3171 6.84113 27.9693C5.03634 28.8259 4.38567 30.9621 5.41554 32.6509C6.81013 34.9385 10.0759 34.7357 11.1556 32.2947L11.6495 31.1783H17.0119H22.3746L22.8396 32.2322C23.9459 34.7398 27.2654 34.9777 28.6838 32.6509C29.662 31.0471 29.0296 28.9026 27.3168 28.0138L26.3949 27.5354L26.7568 26.1925C27.2119 24.5034 31.2565 7.55772 31.2565 7.3397C31.2565 7.25085 32.0991 7.14417 33.1292 7.10258C34.8043 7.03465 35.002 6.97214 35.002 6.51003C35.002 6.03629 34.8051 5.98721 32.625 5.91928L30.2483 5.84515L29.9934 6.82335ZM28.7747 11.7407C28.6957 12.1315 27.968 15.1827 27.1582 18.5213L25.6859 24.5915H15.8793H6.07293L3.7071 18.0057C2.40575 14.3835 1.39526 11.3321 1.46138 11.2252C1.52751 11.118 7.73255 11.0304 15.2503 11.0304H28.9188L28.7747 11.7407ZM6.81685 15.2767C6.73704 15.4849 6.74685 15.777 6.83881 15.9258C6.95014 16.1059 9.90645 16.1965 15.6623 16.1965H24.3181L24.2357 15.6153L24.1531 15.0341L15.5577 14.9659C8.20163 14.9078 6.9411 14.9525 6.81685 15.2767ZM9.81708 19.6837C9.56032 19.9931 9.5611 20.1502 9.82121 20.4635C10.0976 20.7964 10.9921 20.8453 15.7258 20.7864C20.9511 20.7213 21.3109 20.6861 21.3982 20.2313C21.4497 19.9642 21.335 19.6462 21.1433 19.5248C20.9519 19.4034 18.3975 19.3024 15.4668 19.3001C11.0425 19.297 10.0842 19.3618 9.81708 19.6837ZM9.55877 29.6284C10.6772 30.7469 9.89044 32.7385 8.31219 32.7834C7.2025 32.8149 6.37308 32.0069 6.37308 30.8941C6.37308 29.3304 8.43953 28.5092 9.55877 29.6284ZM27.066 29.514C27.8324 30.0508 27.8634 31.6711 27.1202 32.3438C26.3838 33.0102 25.0882 32.9521 24.5002 32.226C23.048 30.4326 25.1721 28.1874 27.066 29.514Z" fill="#3E3465"/>
</svg>
