<svg width="35" height="35" viewBox="0 0 35 35" fill="none" xmlns="http://www.w3.org/2000/svg">
<g clip-path="url(#clip0)">
<path fill-rule="evenodd" clip-rule="evenodd" d="M16.193 0.664744C15.4868 0.973354 12.9656 2.05232 10.5903 3.06242C8.21508 4.07253 6.17969 4.97887 6.06741 5.07645C5.80385 5.30534 5.80759 5.59807 6.07721 5.84213C6.19487 5.94858 7.33733 6.43263 8.61589 6.91761C9.89446 7.40258 10.9878 7.84612 11.0454 7.90331C11.1075 7.96471 11.1075 8.25254 11.0454 8.60843C10.9476 9.1688 10.9101 9.22005 10.4917 9.36303C9.95107 9.54792 9.55772 9.89878 9.31296 10.4145C9.16776 10.7205 9.13134 11.2568 9.13134 13.0895C9.13134 15.1287 9.15632 15.4308 9.35801 15.8261C9.61386 16.3274 10.0204 16.6333 10.6966 16.8329C11.1464 16.9658 11.1615 16.9876 11.3067 17.7173C11.3885 18.1288 11.5689 18.7439 11.7076 19.0841C11.8464 19.4244 11.9391 19.7235 11.9136 19.749C11.8883 19.7743 11.4488 19.8812 10.9371 19.9865C8.20527 20.5485 5.84856 22.1048 4.41803 24.2915C3.57892 25.5742 3.2263 26.4621 2.89143 28.1357C2.55387 29.8226 2.09644 33.4031 2.1492 33.9467C2.18153 34.2805 2.23943 34.342 2.58702 34.4126C2.80727 34.4572 4.76107 34.4975 6.92881 34.5019C10.3424 34.5091 10.8943 34.4858 11.0512 34.329C11.2844 34.0959 11.2822 33.7642 11.0459 33.5279C10.8826 33.3646 10.3975 33.3427 7.12256 33.3507C5.06722 33.3557 3.36158 33.336 3.33229 33.3067C3.30299 33.2774 3.33485 32.9463 3.40301 32.5709C3.4713 32.1955 3.63436 31.1006 3.76544 30.1376C4.22614 26.7525 4.89156 25.1983 6.60047 23.5157C7.88196 22.2539 10.1224 21.212 11.9582 21.0239L12.7099 20.9469L13.3425 21.621C14.6156 22.9771 16.099 23.6621 17.7518 23.6568C19.4943 23.6512 20.7157 23.1334 22.0818 21.8212C22.5664 21.3559 23.0569 20.9751 23.1719 20.975C23.6575 20.975 25.2434 21.369 26.0473 21.6894C28.6086 22.7103 30.6701 25.0243 31.3113 27.5979C31.5526 28.5669 32.1241 32.3386 32.1249 32.9681L32.1254 33.3475H28.9973C25.6956 33.3475 25.589 33.3644 25.589 33.8878C25.589 34.5008 25.6746 34.5147 29.4568 34.5147C31.6469 34.5147 33.0423 34.4694 33.1836 34.3939C33.4828 34.2337 33.4761 33.8834 33.123 31.2349C32.645 27.6502 32.4089 26.6635 31.6873 25.2341C30.245 22.3768 27.6351 20.5796 23.8806 19.8579L23.631 19.8099L23.9193 19.0962C24.0779 18.7035 24.2715 18.0369 24.3493 17.6149C24.4363 17.1434 24.5565 16.8264 24.6606 16.7933C25.0256 16.6769 25.7439 16.0099 25.8959 15.6462C26.1292 15.0877 26.1215 11.0865 25.8859 10.5229C25.7047 10.0889 25.0499 9.41964 24.8065 9.41964C24.6356 9.41964 24.5547 9.11943 24.5113 8.32363L24.4802 7.75286L26.1726 7.07588C27.1035 6.70354 27.9308 6.39575 28.011 6.39189C28.1256 6.38641 28.1569 7.5165 28.1569 11.6724C28.1569 15.6292 28.1921 16.9951 28.2969 17.0999C28.5227 17.3256 29.0665 17.2697 29.2075 17.0064C29.3845 16.6755 29.3161 5.27954 29.136 5.09956C28.975 4.9386 17.7792 0.0778675 17.604 0.0928078C17.5341 0.0987606 16.8991 0.356133 16.193 0.664744ZM22.3439 3.37932C24.8986 4.48666 26.988 5.41902 26.9872 5.45112C26.9852 5.52722 24.309 6.54923 24.2692 6.48912C24.2527 6.46391 24.162 6.28965 24.0678 6.10196C23.7293 5.42743 22.3303 4.78523 20.57 4.49646C20.0885 4.41756 18.8279 4.35453 17.7687 4.35651C15.6039 4.36048 14.115 4.57349 12.953 5.04575C12.2614 5.32669 11.4677 5.94392 11.464 6.2035C11.463 6.2712 11.4157 6.39995 11.3588 6.48971C11.2743 6.62324 10.9784 6.549 9.72836 6.08118C8.88832 5.76674 8.20025 5.48053 8.19932 5.44517C8.19757 5.38004 17.3829 1.40125 17.588 1.37837C17.6492 1.37149 19.7894 2.27199 22.3439 3.37932ZM20.8618 5.79755C22.1513 6.05294 22.7179 6.28218 22.9386 6.63771C23.0992 6.8966 23.4368 8.92614 23.3359 9.02699C23.3097 9.05325 22.7686 8.99115 22.1334 8.88902C20.3335 8.59944 15.9777 8.53267 13.9882 8.76413C13.0965 8.8679 12.3322 8.95275 12.2897 8.95275C12.2173 8.95275 12.4613 6.95939 12.5712 6.65276C12.6491 6.43566 13.4236 6.08585 14.3254 5.86069C16.0451 5.43128 18.8742 5.40397 20.8618 5.79755ZM20.4701 9.88991C21.1349 9.95597 22.2829 10.1145 23.0211 10.2422C24.9384 10.574 24.8887 10.4977 24.8887 13.1081C24.8887 15.0978 24.8817 15.1566 24.6132 15.4251C24.2898 15.7485 23.4609 15.8696 21.4544 15.8868L20.1796 15.8977L19.5869 15.0288C18.376 13.2536 17.1446 13.2231 16.0241 14.9408C15.2759 16.0876 15.4996 16.001 13.5167 15.9115C11.3719 15.815 10.7808 15.7087 10.507 15.3705C10.3247 15.1454 10.2985 14.8579 10.2985 13.0757C10.2985 11.9552 10.35 10.9423 10.4128 10.8248C10.4756 10.7074 10.6882 10.5552 10.8852 10.4866C11.2604 10.3557 14.0643 9.91874 14.9674 9.85034C16.2061 9.7565 19.3556 9.77914 20.4701 9.88991ZM15.2269 10.8853C15.082 10.9867 14.9674 11.1899 14.9674 11.3455C14.9674 11.5956 15.3396 11.9875 15.577 11.9875C15.7352 11.9875 16.1346 11.5277 16.1346 11.3455C16.1346 11.1633 15.7352 10.7036 15.577 10.7036C15.5271 10.7036 15.3695 10.7854 15.2269 10.8853ZM19.3981 10.9173C18.8495 11.3616 19.4622 12.2048 20.0526 11.818C20.4129 11.582 20.4248 11.1288 20.0771 10.8853C19.7501 10.6562 19.7188 10.6577 19.3981 10.9173ZM17.3893 10.944C17.1549 11.0833 17.1155 11.6378 17.3252 11.8474C17.5396 12.0619 17.9416 12.0145 18.1845 11.7461C18.3839 11.5256 18.3877 11.4774 18.2278 11.1917C18.0369 10.8504 17.7096 10.7538 17.3893 10.944ZM13.476 11.1187C13.1929 11.3171 13.1307 11.7757 13.3625 11.9551C13.6829 12.203 13.9258 12.2121 14.153 11.9848C14.4458 11.6921 14.4451 11.4652 14.1503 11.1705C13.8693 10.8894 13.8099 10.8848 13.476 11.1187ZM21.1729 11.1234C20.8484 11.3507 20.869 11.8304 21.213 12.0574C21.796 12.442 22.4068 11.5242 21.8347 11.1234C21.6883 11.0209 21.5394 10.937 21.5038 10.937C21.4682 10.937 21.3192 11.0209 21.1729 11.1234ZM11.7252 11.3522C11.3965 11.5824 11.3902 12.0382 11.7126 12.2639C11.9836 12.4537 12.2619 12.4034 12.4871 12.1239C12.6927 11.8687 12.669 11.6734 12.3995 11.4039C12.1185 11.1228 12.0591 11.1183 11.7252 11.3522ZM22.8905 11.3916C22.6557 11.5819 22.6336 11.6596 22.7339 11.9461C22.9426 12.543 23.8382 12.4282 23.8382 11.8047C23.8382 11.5682 23.464 11.1705 23.2415 11.1705C23.1988 11.1705 23.0407 11.27 22.8905 11.3916ZM16.3139 12.333C16.0258 12.6513 16.1581 13.1268 16.563 13.2285C16.9689 13.3304 17.2343 13.1503 17.2827 12.7401C17.3506 12.1633 16.7109 11.8944 16.3139 12.333ZM18.2908 12.3412C18.1211 12.5286 18.0995 12.6445 18.1873 12.8956C18.3906 13.4773 19.2861 13.3507 19.2861 12.7402C19.2861 12.1612 18.6753 11.9163 18.2908 12.3412ZM14.6172 12.4544C14.3362 12.7354 14.3213 12.9589 14.5672 13.2048C14.7848 13.4225 15.2145 13.4445 15.4109 13.2481C15.6328 13.0262 15.5811 12.4787 15.3253 12.3417C15.0045 12.1702 14.8821 12.1895 14.6172 12.4544ZM19.8052 12.5057C19.6235 12.7831 19.6232 12.8256 19.8006 13.0964C20.0352 13.4545 20.4537 13.4766 20.7523 13.1468C20.9517 12.9264 20.9555 12.878 20.7959 12.5924C20.5511 12.1542 20.0634 12.1116 19.8052 12.5057ZM12.8605 12.6938C12.6137 12.9405 12.6387 13.3527 12.9113 13.5323C13.1603 13.6963 13.5546 13.6201 13.7264 13.3747C13.9162 13.1037 13.8659 12.8254 13.5865 12.6003C13.3299 12.3936 13.1357 12.4186 12.8605 12.6938ZM21.6205 12.6878C21.4921 12.8162 21.387 12.9621 21.387 13.012C21.387 13.2494 21.779 13.6216 22.029 13.6216C22.279 13.6216 22.671 13.2494 22.671 13.012C22.671 12.8538 22.2112 12.4544 22.029 12.4544C21.9327 12.4544 21.7489 12.5594 21.6205 12.6878ZM11.0639 12.9473C10.8285 13.2833 10.8348 13.4259 11.0956 13.6619C11.4039 13.9408 11.7813 13.8997 12.0017 13.5632C12.1788 13.2929 12.1788 13.25 12.0017 12.9796C11.7606 12.6117 11.3098 12.5961 11.0639 12.9473ZM23.3022 12.9796C23.1251 13.25 23.1251 13.2929 23.3022 13.5632C23.6408 14.0801 24.3051 13.8868 24.3051 13.2714C24.3051 12.6561 23.6408 12.4628 23.3022 12.9796ZM14.1212 13.8644C13.7018 14.1087 13.9921 14.9055 14.5005 14.9055C14.6197 14.9055 14.7998 14.823 14.9007 14.7222C15.4144 14.2084 14.7624 13.4909 14.1212 13.8644ZM20.4032 13.9217C20.3024 14.0226 20.2198 14.2028 20.2198 14.3219C20.2198 14.4411 20.3024 14.6212 20.4032 14.7222C20.5042 14.823 20.6843 14.9055 20.8034 14.9055C20.9226 14.9055 21.1027 14.823 21.2037 14.7222C21.3045 14.6212 21.387 14.4411 21.387 14.3219C21.387 14.2028 21.3045 14.0226 21.2037 13.9217C21.1027 13.8208 20.9226 13.7383 20.8034 13.7383C20.6843 13.7383 20.5042 13.8208 20.4032 13.9217ZM12.3495 14.1551C12.2486 14.2561 12.1661 14.4362 12.1661 14.5554C12.1661 14.6745 12.2486 14.8546 12.3495 14.9556C12.4504 15.0564 12.6305 15.139 12.7497 15.139C12.8689 15.139 13.049 15.0564 13.1499 14.9556C13.2508 14.8546 13.3333 14.6745 13.3333 14.5554C13.3333 14.4362 13.2508 14.2561 13.1499 14.1551C13.049 14.0543 12.8689 13.9718 12.7497 13.9718C12.6305 13.9718 12.4504 14.0543 12.3495 14.1551ZM22.154 14.1551C21.7681 14.5411 22.0371 15.139 22.5966 15.139C22.8384 15.139 23.1379 14.816 23.1379 14.5554C23.1379 14.4362 23.0553 14.2561 22.9545 14.1551C22.8535 14.0543 22.6734 13.9718 22.5543 13.9718C22.4351 13.9718 22.255 14.0543 22.154 14.1551ZM18.1995 15.1681C18.3304 15.3125 18.6261 15.7303 18.8568 16.0963C19.4181 16.9874 19.7898 17.1716 20.9785 17.1475C21.4921 17.137 22.2178 17.0954 22.591 17.0552L23.2698 16.9819L23.1868 17.4318C22.8777 19.108 21.5865 21.0091 20.2091 21.8163C17.9505 23.14 15.2956 22.4468 13.6177 20.0954C13.1228 19.4019 12.4055 17.7185 12.401 17.2399C12.3996 17.0902 12.589 17.0758 13.7125 17.1406C15.6333 17.2515 16.2339 17.0313 16.7343 16.0325C17.0367 15.4288 17.5177 14.9055 17.7702 14.9055C17.8754 14.9055 18.0685 15.0238 18.1995 15.1681ZM11.5241 24.7018C10.9692 24.8357 10.6535 25.0468 10.4094 25.4471C10.1089 25.9401 10.1223 26.4445 10.4663 27.5698C10.9795 29.2496 11.4312 30.8102 11.8807 32.4576C12.356 34.1992 12.6159 34.6554 13.2949 34.9391C14.0571 35.2575 14.9916 35.0687 15.5264 34.4882C15.7688 34.2251 16.5226 31.846 17.5522 28.095C17.6843 27.6135 17.833 27.1763 17.8825 27.1234C17.9321 27.0705 17.9756 28.5896 17.9793 30.4989C17.9866 34.3088 17.971 34.2196 18.7301 34.7864C19.338 35.2402 20.7401 35.1528 21.2117 34.6316C21.4113 34.4111 21.4215 34.4123 21.8053 34.705C22.3828 35.1455 23.3724 35.2065 24.063 34.8442C24.8631 34.4243 25.0071 34.0403 24.9964 32.3572C24.9915 31.5858 24.9226 30.7446 24.8433 30.4878C24.724 30.1012 24.7287 29.9506 24.8707 29.6124C25.1204 29.018 25.114 27.3627 24.8591 26.636C24.3525 25.1912 23.1169 24.6087 20.5342 24.597C19.3412 24.5916 18.7642 24.7759 18.3089 25.3078L17.9224 25.7594L17.7925 25.4744C17.3972 24.6068 15.6458 24.3508 14.8258 25.0408C14.6287 25.2066 14.3756 25.5471 14.2636 25.7974L14.0599 26.2523L13.9223 25.8352C13.7556 25.3303 13.2455 24.8783 12.6585 24.7152C12.1752 24.581 12.0316 24.5793 11.5241 24.7018ZM12.6823 25.9796C12.7171 26.0357 12.9845 26.9146 13.2768 27.9326C13.569 28.9507 13.8553 29.8309 13.9129 29.8885C14.1693 30.1449 14.3643 29.7635 14.8385 28.0791C15.1163 27.0928 15.392 26.1939 15.4513 26.0816C15.6083 25.7844 16.6744 25.7889 16.7691 26.0872C16.8236 26.259 14.8536 33.4096 14.6699 33.707C14.5676 33.8722 13.9328 33.9478 13.6987 33.8225C13.5558 33.7459 13.394 33.4408 13.2769 33.0268C13.0325 32.1627 12.6952 31.0049 12.2821 29.6124C11.5448 27.1272 11.343 26.3138 11.4105 26.1009C11.4676 25.9208 11.5923 25.8773 12.0503 25.8773C12.3632 25.8773 12.6476 25.9233 12.6823 25.9796ZM22.8661 26.1035C23.4748 26.3799 23.6995 26.7175 23.837 27.5623C23.9687 28.3713 23.8368 29.1656 23.494 29.6293L23.241 29.9714L23.5086 30.4042C23.7309 30.7641 23.7836 31.0389 23.8203 32.0319C23.8782 33.5983 23.8272 33.7839 23.3115 33.8806C23.0252 33.9343 22.8164 33.9002 22.6121 33.7664C22.331 33.5822 22.3208 33.5309 22.3208 32.3028C22.3208 31.0667 22.3119 31.023 22.0133 30.7881C21.6713 30.5191 20.9348 30.4615 20.7101 30.6862C20.6177 30.7785 20.57 31.2729 20.57 32.1357C20.57 32.8558 20.5387 33.5267 20.5003 33.6265C20.4087 33.8653 19.7265 33.9876 19.415 33.8209C19.173 33.6913 19.1693 33.6338 19.1693 29.8611C19.1693 27.7557 19.2044 25.9979 19.2472 25.9552C19.2899 25.9123 20.0122 25.8785 20.8521 25.8799C22.0978 25.882 22.4689 25.9232 22.8661 26.1035ZM20.7101 27.1846C20.5433 27.3514 20.5221 28.8889 20.6831 29.1435C20.757 29.2606 20.9722 29.3124 21.3465 29.3033C22.0993 29.285 22.4375 28.9083 22.4375 28.0885C22.4375 27.3132 22.1733 27.0445 21.4104 27.0445C21.1022 27.0445 20.7871 27.1075 20.7101 27.1846ZM11.3893 28.5086C11.3513 28.6076 11.2951 28.6637 11.2645 28.6331C11.2339 28.6025 11.2435 28.5214 11.2859 28.453C11.401 28.2667 11.4682 28.3029 11.3893 28.5086ZM3.76217 33.5156C3.76217 33.544 3.70147 33.6046 3.62735 33.6503C3.5439 33.702 3.52429 33.6824 3.576 33.599C3.65911 33.4644 3.76217 33.4183 3.76217 33.5156ZM7.46561 33.5347C7.42686 33.5734 7.32613 33.5776 7.24197 33.5439C7.14883 33.5067 7.17649 33.479 7.31247 33.4734C7.43549 33.4684 7.50436 33.4959 7.46561 33.5347ZM7.80854 33.6587C7.7657 33.7015 7.73068 33.6665 7.73068 33.5809C7.73068 33.4953 7.7657 33.4603 7.80854 33.503C7.85125 33.5459 7.85125 33.6159 7.80854 33.6587Z" fill="#3E3465"/>
</g>
<defs>
<clipPath id="clip0">
<rect width="35" height="35" fill="white"/>
</clipPath>
</defs>
</svg>
