<svg width="186" height="47" viewBox="0 0 186 47" fill="none" xmlns="http://www.w3.org/2000/svg">
<path d="M13.8052 30.2598C13.8052 28.8723 13.3304 27.8718 12.3807 27.2821C11.4457 26.6924 10.079 26.3972 8.27991 26.3972V21.2326C9.17176 21.2326 9.96341 21.1686 10.6541 21.0383C11.3594 20.895 11.9491 20.6714 12.4239 20.3693C12.8987 20.0609 13.251 19.6501 13.4815 19.1606C13.7258 18.6711 13.8338 18.0814 13.8052 17.3915V10.5288C13.8052 9.46505 13.9417 8.55778 14.2153 7.81007C14.489 7.03923 14.9862 6.42873 15.683 5.9539C16.4022 5.46519 17.3734 5.10598 18.5967 4.87473C19.8201 4.64348 21.3725 4.53711 23.258 4.53711V9.39336C22.7298 9.40466 22.2031 9.45516 21.6824 9.54444C21.2222 9.63155 20.8345 9.7888 20.4953 10.0193C20.187 10.2351 19.9341 10.5373 19.7615 10.9258C19.5888 11.3143 19.5025 11.8176 19.5025 12.4366V18.8885C19.4161 21.5864 17.7326 23.1759 14.4535 23.6792V23.9382C16.1077 24.1826 17.3827 24.709 18.2514 25.4922C19.1201 26.2754 19.5464 27.3553 19.5032 28.7066V35.1585C19.5032 35.7774 19.5896 36.2808 19.7622 36.6693C19.9349 37.0578 20.1785 37.36 20.4961 37.5758C20.8275 37.807 21.223 37.9643 21.6832 38.0506C22.158 38.1377 22.6829 38.1871 23.2587 38.2017V43.0788C21.3741 43.0788 19.8208 42.9631 18.5975 42.7334C17.3742 42.5037 16.4037 42.1438 15.6838 41.6543C14.9784 41.1794 14.489 40.5597 14.2161 39.7981C13.9432 39.0365 13.806 38.1223 13.806 37.0578V30.259M174.941 37.0578C174.941 38.1215 174.805 39.0358 174.531 39.7981C174.257 40.5605 173.76 41.1794 173.042 41.6543C172.336 42.143 171.373 42.5022 170.151 42.7334C168.929 42.9647 167.381 43.0788 165.488 43.0788V38.2017C166.064 38.1848 166.581 38.1362 167.042 38.0506C167.503 37.9651 167.89 37.8063 168.208 37.5758C168.539 37.36 168.791 37.0578 168.963 36.6693C169.151 36.2808 169.244 35.7774 169.244 35.1585V28.7066C169.201 27.3545 169.618 26.2823 170.496 25.4922C171.374 24.7021 172.632 24.1833 174.273 23.9382V23.6792C171.007 23.1759 169.339 21.5787 169.245 18.8885V12.4366C169.245 11.8184 169.152 11.3143 168.964 10.9258C168.807 10.5559 168.544 10.2406 168.209 10.0193C167.9 9.78957 167.503 9.63078 167.043 9.54444C166.53 9.45301 166.01 9.40249 165.489 9.39336V4.53711C167.374 4.53711 168.927 4.65273 170.15 4.88244C171.374 5.11215 172.337 5.47213 173.041 5.96161C173.76 6.43644 174.257 7.05465 174.53 7.81778C174.804 8.56548 174.94 9.47198 174.94 10.5365V17.3992C174.925 18.0899 175.033 18.6788 175.264 19.1683C175.495 19.6578 175.847 20.0601 176.322 20.377C176.796 20.6791 177.379 20.9011 178.07 21.046C178.775 21.1755 179.573 21.2403 180.466 21.2403V26.4049C178.667 26.4049 177.294 26.6993 176.344 27.2898C175.409 27.8795 174.941 28.8723 174.941 30.2675V37.0663" fill="#555588"/>
<path d="M32.4848 38.3936C31.9946 38.3936 31.5598 38.3604 31.2006 38.2918C30.8353 38.234 30.5177 38.1531 30.2487 38.0467V35.7396C30.5948 35.8302 30.9465 35.8977 31.3016 35.9416C31.7027 36.0014 32.1078 36.0305 32.5134 36.0287C32.8741 36.0284 33.2331 35.9799 33.581 35.8845C33.9419 35.8002 34.2781 35.6323 34.5622 35.3943C34.8606 35.1538 35.1018 34.8223 35.2837 34.3922C35.4657 33.9621 35.5582 33.4302 35.5582 32.7765V11.6865H38.2561V32.4944C38.2561 33.4965 38.1119 34.3791 37.8244 35.1199C37.5454 35.8599 37.1515 36.4711 36.6412 36.9521C36.1401 37.4424 35.535 37.8031 34.8236 38.0344C34.1298 38.2749 33.1632 38.3951 32.3068 38.3951M51.6647 30.5904H51.5491C51.2315 31.0221 50.9147 31.3983 50.5971 31.7159C50.2881 32.0176 49.9386 32.2749 49.5588 32.4805C49.1834 32.6825 48.7648 32.8312 48.3039 32.9276C47.8429 33.024 47.3018 33.0718 46.7029 33.0718C46.0399 33.0718 45.4287 32.9746 44.8706 32.7835C44.3285 32.6099 43.8311 32.3194 43.4137 31.9325C43.0098 31.547 42.6922 31.0475 42.4617 30.4679C42.2305 29.872 42.1149 29.1698 42.1149 28.362C42.1149 26.7848 42.6676 25.5731 43.7737 24.7267C44.8891 23.8803 46.5818 23.4186 48.8512 23.3415L51.5052 23.2398V22.2377C51.5052 21.5933 51.4327 21.0545 51.2893 20.622C51.1544 20.1904 50.9525 19.8512 50.6834 19.5837C50.4237 19.3139 50.0976 19.1212 49.7022 19.0056C49.3168 18.89 48.8751 18.8329 48.3748 18.8329C47.6156 18.8265 46.8604 18.9434 46.1386 19.179C45.4557 19.4103 44.7974 19.6878 44.1622 20.0154L43.2387 18.039C43.9502 17.6535 44.7434 17.3275 45.6191 17.0577C46.512 16.7858 47.4407 16.6497 48.374 16.6538C49.3553 16.6538 50.2009 16.7555 50.9132 16.9567C51.6347 17.1494 52.2259 17.4616 52.6876 17.894C53.1501 18.318 53.5101 18.8607 53.7406 19.5244C53.9711 20.188 54.0874 20.9913 54.0874 21.9332V32.7811H52.1927L51.6647 30.5904ZM47.3804 30.9435C47.9663 30.9435 48.5105 30.851 49.0107 30.6691C49.511 30.4871 49.9357 30.212 50.3088 29.8466C50.6742 29.4712 50.9579 29.0048 51.1598 28.4475C51.371 27.8802 51.4774 27.2165 51.4774 26.4565V25.0281L49.4147 25.1299C48.549 25.1684 47.8229 25.2647 47.2363 25.4181C46.6497 25.5715 46.1787 25.7881 45.8226 26.0672C45.4859 26.3237 45.2264 26.668 45.0726 27.0623C44.9184 27.4478 44.8413 27.8848 44.8413 28.3751C44.8413 29.26 45.0726 29.9167 45.5335 30.3222C45.996 30.7361 46.6127 30.9427 47.3797 30.9427M56.2905 16.9444H59.0023L61.8729 25.7573L62.2483 26.9906L62.6799 28.52L63.0692 29.9846L63.3143 31.0375H63.4145L63.6597 29.9846L64.0489 28.52L64.4806 26.9906L64.856 25.7573L67.7266 16.9436H70.4384L65.0287 32.7827H61.6956L56.2905 16.9444ZM81.1668 30.5904H81.0512C80.7336 31.0221 80.4168 31.3983 80.0992 31.7159C79.7902 32.0176 79.4408 32.2749 79.0609 32.4805C78.6855 32.6825 78.2669 32.8312 77.806 32.9276C77.345 33.024 76.8039 33.0718 76.205 33.0718C75.5421 33.0718 74.9308 32.9746 74.3727 32.7835C73.8306 32.6099 73.3332 32.3194 72.9158 31.9325C72.5119 31.547 72.1943 31.0475 71.9638 30.4679C71.7326 29.872 71.617 29.1698 71.617 28.362C71.617 26.7848 72.1697 25.5731 73.2758 24.7267C74.3912 23.8803 76.084 23.4186 78.3533 23.3415L81.0073 23.2398V22.2377C81.0073 21.5933 80.9348 21.0545 80.7914 20.622C80.6565 20.1904 80.4546 19.8512 80.1856 19.5837C79.9258 19.3139 79.5997 19.1212 79.2043 19.0056C78.8189 18.89 78.3772 18.8329 77.8769 18.8329C77.1177 18.8265 76.3625 18.9434 75.6407 19.179C74.9578 19.4103 74.2995 19.6878 73.6643 20.0154L72.7408 18.039C73.4523 17.6535 74.2455 17.3275 75.1212 17.0577C76.0141 16.7858 76.9428 16.6497 77.8761 16.6538C78.8574 16.6538 79.703 16.7555 80.4153 16.9567C81.1368 17.1494 81.728 17.4616 82.1897 17.894C82.6522 18.318 83.0122 18.8607 83.2427 19.5244C83.4732 20.188 83.5896 20.9913 83.5896 21.9332V32.7811H81.701L81.1668 30.5904ZM76.8825 30.9504C77.4684 30.9504 78.0126 30.8579 78.5128 30.676C79.0131 30.4941 79.4378 30.2189 79.8109 29.8535C80.1763 29.4781 80.46 29.0118 80.6619 28.4545C80.8731 27.8871 80.9795 27.2234 80.9795 26.4634V25.035L78.9168 25.1368C78.0511 25.1753 77.325 25.2717 76.7384 25.4251C76.1518 25.5785 75.6808 25.7951 75.3247 26.0741C74.988 26.3307 74.7285 26.675 74.5747 27.0693C74.4205 27.4547 74.3434 27.8918 74.3434 28.382C74.3434 29.2669 74.5747 29.9237 75.0356 30.3291C75.4981 30.7431 76.1148 30.9496 76.8818 30.9496M99.7709 27.1417C99.7709 28.0667 99.6028 28.9108 99.266 29.6516C98.9392 30.3823 98.4674 31.0028 97.8523 31.5124C97.2372 32.0219 96.4864 32.4119 95.6014 32.6809C94.7165 32.9407 93.7206 33.0702 92.6152 33.0702C91.5476 33.0702 90.5479 32.9831 89.6152 32.8104C88.6917 32.6462 87.9178 32.4019 87.2926 32.0743V29.5074L88.4026 29.9699L89.73 30.3592L91.1584 30.6475C91.6437 30.7147 92.133 30.7487 92.6229 30.7492C94.1615 30.7492 95.2962 30.4609 96.0269 29.8836C96.7669 29.3055 97.1369 28.4791 97.1369 27.4015C97.1369 26.882 97.0645 26.4302 96.9211 26.0448C96.7862 25.6594 96.5411 25.3095 96.1857 24.9919C95.8389 24.665 95.3733 24.3521 94.7867 24.0545C94.2008 23.7462 93.4593 23.4148 92.5651 23.0525C91.7172 22.7156 90.9641 22.3587 90.3297 21.9563C89.713 21.5524 89.185 21.1084 88.7726 20.5997C88.3661 20.0939 88.0576 19.5167 87.863 18.8977C87.6703 18.2633 87.5748 17.541 87.5748 16.7339C87.5748 15.8876 87.7289 15.1329 88.0373 14.4692C88.3456 13.8055 88.7773 13.2475 89.3353 12.7965C89.8934 12.334 90.5563 11.9841 91.3256 11.7436C92.0949 11.5031 92.9598 11.3828 93.8925 11.3828C95.0372 11.3828 96.0663 11.493 96.9797 11.7143C97.8931 11.9255 98.7064 12.1999 99.4178 12.5367L98.4512 14.7876C97.8346 14.5085 97.1146 14.268 96.316 14.0661C95.5164 13.8532 94.6922 13.7464 93.8648 13.7485C92.6915 13.7485 91.7835 14.0229 91.1383 14.571C90.4939 15.1106 90.1717 15.8405 90.1717 16.7632C90.1717 17.3028 90.2442 17.7884 90.3875 18.1916C90.5317 18.5862 90.7729 18.947 91.109 19.2738C91.4459 19.5914 91.8799 19.8944 92.4364 20.1834C93.1049 20.5131 93.7883 20.8114 94.4845 21.0776C95.3594 21.4245 96.1241 21.7713 96.7777 22.1452C97.4407 22.5106 97.9941 22.916 98.4366 23.3785C98.8766 23.8367 99.2157 24.3821 99.4317 24.9795C99.663 25.5854 99.7848 26.3285 99.7848 27.1564M109.546 33.0548C108.575 33.0548 107.665 32.9052 106.819 32.6077C105.981 32.3054 105.226 31.8115 104.612 31.1655C103.996 30.5026 103.497 29.6608 103.148 28.641C102.792 27.6119 102.614 26.3763 102.614 24.941C102.614 23.4302 102.797 22.1521 103.154 21.1038C103.519 20.0462 104.02 19.1898 104.654 18.5369C105.299 17.874 106.042 17.3922 106.905 17.0955C107.768 16.7987 108.679 16.6484 109.66 16.6484C110.398 16.6472 111.133 16.7294 111.852 16.8935C112.574 17.0577 113.174 17.2589 113.656 17.4994L112.885 19.7209C112.645 19.6171 112.399 19.5255 112.15 19.4465C111.876 19.3477 111.597 19.2659 111.313 19.2014C111.034 19.126 110.749 19.0681 110.462 19.0279C110.183 18.9801 109.919 18.9555 109.668 18.9555C108.158 18.9555 107.058 19.4411 106.365 20.4201C105.673 21.3813 105.327 22.8821 105.327 24.9202C105.327 26.9498 105.674 28.4352 106.365 29.3779C107.059 30.3029 108.138 30.777 109.554 30.777C110.324 30.777 111.034 30.6899 111.659 30.5172C112.294 30.3345 112.871 30.1318 113.391 29.8828V32.22C112.862 32.5022 112.3 32.7154 111.717 32.8544C111.131 32.9985 110.371 33.0702 109.515 33.0702M123.85 16.6545L124.788 16.6969C125.088 16.7107 125.386 16.7447 125.682 16.7987L125.335 19.2222L124.498 19.1066C124.219 19.068 123.955 19.0487 123.704 19.0487C123.099 19.0487 122.546 19.1736 122.046 19.4241C121.545 19.6646 121.121 20.0154 120.748 20.4771C120.391 20.9288 120.113 21.4776 119.911 22.1213C119.719 22.7557 119.623 23.4625 119.623 24.2411V32.7804H116.997V16.9451H119.133L119.45 19.8435H119.566L120.331 18.6464C120.595 18.275 120.905 17.9383 121.254 17.6443C121.598 17.3476 121.988 17.1089 122.408 16.9374C122.832 16.7547 123.356 16.663 123.896 16.663" fill="black"/>
<path d="M32.4848 38.3936C31.9946 38.3936 31.5598 38.3604 31.2006 38.2918C30.8353 38.234 30.5177 38.1531 30.2487 38.0467V35.7396C30.5948 35.8302 30.9465 35.8977 31.3016 35.9416C31.7027 36.0014 32.1078 36.0305 32.5134 36.0287C32.8741 36.0284 33.2331 35.9799 33.581 35.8845C33.9419 35.8002 34.2781 35.6323 34.5622 35.3943C34.8606 35.1538 35.1018 34.8223 35.2837 34.3922C35.4657 33.9621 35.5582 33.4302 35.5582 32.7765V11.6865H38.2561V32.4944C38.2561 33.4965 38.1119 34.3791 37.8244 35.1199C37.5454 35.8599 37.1515 36.4711 36.6412 36.9521C36.1401 37.4424 35.535 37.8031 34.8236 38.0344C34.1298 38.2749 33.1632 38.3951 32.3068 38.3951M47.3804 30.9435C47.9663 30.9435 48.5105 30.851 49.0107 30.6691C49.511 30.4871 49.9357 30.212 50.3088 29.8466C50.6742 29.4712 50.9579 29.0048 51.1598 28.4475C51.371 27.8802 51.4774 27.2165 51.4774 26.4565V25.0281L49.4147 25.1299C48.549 25.1684 47.8229 25.2647 47.2363 25.4181C46.6497 25.5715 46.1787 25.7881 45.8226 26.0672C45.4859 26.3237 45.2264 26.668 45.0726 27.0623C44.9184 27.4477 44.8413 27.8848 44.8413 28.3751C44.8413 29.26 45.0726 29.9167 45.5335 30.3222C45.996 30.7361 46.6127 30.9427 47.3797 30.9427M76.8825 30.9504C77.4684 30.9504 78.0126 30.8579 78.5128 30.676C79.0131 30.4941 79.4378 30.2189 79.8109 29.8535C80.1763 29.4781 80.46 29.0118 80.6619 28.4545C80.8731 27.8871 80.9795 27.2234 80.9795 26.4634V25.035L78.9168 25.1368C78.0511 25.1753 77.325 25.2717 76.7384 25.4251C76.1518 25.5785 75.6808 25.7951 75.3247 26.0741C74.988 26.3307 74.7285 26.675 74.5747 27.0693C74.4205 27.4547 74.3434 27.8918 74.3434 28.382C74.3434 29.2669 74.5747 29.9237 75.0356 30.3291C75.4981 30.7431 76.1148 30.9496 76.8818 30.9496M99.7709 27.1417C99.7709 28.0667 99.6028 28.9108 99.266 29.6516C98.9392 30.3823 98.4674 31.0028 97.8523 31.5124C97.2372 32.0219 96.4864 32.4119 95.6014 32.6809C94.7165 32.9407 93.7206 33.0702 92.6152 33.0702C91.5476 33.0702 90.5479 32.9831 89.6151 32.8104C88.6917 32.6462 87.9178 32.4019 87.2926 32.0743V29.5074L88.4026 29.9699L89.73 30.3592L91.1584 30.6475C91.6437 30.7147 92.133 30.7487 92.6229 30.7492C94.1615 30.7492 95.2962 30.4609 96.0269 29.8836C96.7669 29.3055 97.1369 28.4791 97.1369 27.4015C97.1369 26.882 97.0645 26.4302 96.9211 26.0448C96.7862 25.6594 96.5411 25.3095 96.1857 24.9919C95.8389 24.665 95.3733 24.3521 94.7867 24.0545C94.2008 23.7462 93.4593 23.4147 92.5651 23.0525C91.7172 22.7156 90.9641 22.3587 90.3297 21.9563C89.713 21.5524 89.185 21.1084 88.7726 20.5997C88.3661 20.0939 88.0576 19.5167 87.863 18.8977C87.6703 18.2633 87.5748 17.541 87.5748 16.7339C87.5748 15.8876 87.7289 15.1329 88.0373 14.4692C88.3456 13.8055 88.7773 13.2475 89.3353 12.7965C89.8934 12.334 90.5563 11.9841 91.3256 11.7436C92.0949 11.5031 92.9598 11.3828 93.8925 11.3828C95.0372 11.3828 96.0663 11.493 96.9797 11.7143C97.8931 11.9255 98.7064 12.1999 99.4178 12.5367L98.4512 14.7876C97.8346 14.5085 97.1146 14.268 96.316 14.0661C95.5164 13.8532 94.6922 13.7464 93.8648 13.7485C92.6915 13.7485 91.7835 14.0229 91.1383 14.571C90.4939 15.1106 90.1717 15.8405 90.1717 16.7632C90.1717 17.3028 90.2442 17.7884 90.3875 18.1916C90.5317 18.5862 90.7729 18.947 91.109 19.2738C91.4459 19.5914 91.8799 19.8944 92.4364 20.1834C93.1049 20.5131 93.7883 20.8114 94.4845 21.0776C95.3594 21.4245 96.1241 21.7713 96.7777 22.1452C97.4407 22.5106 97.9941 22.916 98.4366 23.3785C98.8766 23.8367 99.2157 24.3821 99.4317 24.9795C99.663 25.5854 99.7848 26.3285 99.7848 27.1564M109.546 33.0548C108.575 33.0548 107.665 32.9052 106.819 32.6077C105.981 32.3054 105.226 31.8115 104.612 31.1655C103.996 30.5026 103.497 29.6608 103.148 28.641C102.792 27.6119 102.614 26.3763 102.614 24.941C102.614 23.4302 102.797 22.1521 103.154 21.1038C103.519 20.0462 104.02 19.1898 104.654 18.5369C105.299 17.874 106.042 17.3922 106.905 17.0955C107.768 16.7987 108.679 16.6484 109.66 16.6484C110.398 16.6472 111.133 16.7294 111.852 16.8935C112.574 17.0577 113.174 17.2589 113.656 17.4994L112.885 19.7209C112.645 19.6171 112.399 19.5255 112.15 19.4465C111.876 19.3477 111.597 19.2659 111.313 19.2014C111.034 19.126 110.749 19.0681 110.462 19.0279C110.183 18.9801 109.919 18.9555 109.668 18.9555C108.158 18.9555 107.058 19.4411 106.365 20.4201C105.673 21.3813 105.327 22.8821 105.327 24.9202C105.327 26.9498 105.674 28.4352 106.365 29.3779C107.059 30.3029 108.138 30.777 109.554 30.777C110.324 30.777 111.034 30.6899 111.659 30.5172C112.294 30.3345 112.871 30.1318 113.391 29.8828V32.22C112.862 32.5022 112.3 32.7154 111.717 32.8544C111.131 32.9985 110.371 33.0702 109.515 33.0702M123.85 16.6545L124.788 16.6969C125.088 16.7107 125.386 16.7447 125.682 16.7987L125.335 19.2222L124.498 19.1066C124.219 19.068 123.955 19.0487 123.704 19.0487C123.099 19.0487 122.546 19.1736 122.046 19.4241C121.545 19.6646 121.121 20.0154 120.748 20.4771C120.391 20.9288 120.113 21.4776 119.911 22.1213C119.719 22.7557 119.623 23.4625 119.623 24.2411V32.7804H116.997V16.9451H119.133L119.45 19.8435H119.566L120.331 18.6464C120.595 18.275 120.905 17.9383 121.254 17.6443C121.598 17.3476 121.988 17.1089 122.408 16.9374C122.832 16.7547 123.356 16.663 123.896 16.663M51.6647 30.5904H51.5491C51.2315 31.0221 50.9147 31.3983 50.5971 31.7159C50.2881 32.0176 49.9386 32.2749 49.5588 32.4805C49.1834 32.6825 48.7648 32.8313 48.3039 32.9276C47.8429 33.024 47.3018 33.0718 46.7029 33.0718C46.0399 33.0718 45.4287 32.9746 44.8706 32.7835C44.3285 32.6099 43.8311 32.3194 43.4137 31.9325C43.0098 31.547 42.6922 31.0475 42.4617 30.4679C42.2305 29.872 42.1149 29.1698 42.1149 28.362C42.1149 26.7848 42.6676 25.5731 43.7737 24.7267C44.8891 23.8803 46.5818 23.4186 48.8512 23.3415L51.5052 23.2398V22.2377C51.5052 21.5933 51.4327 21.0545 51.2893 20.622C51.1544 20.1904 50.9525 19.8512 50.6834 19.5837C50.4237 19.3139 50.0976 19.1212 49.7022 19.0056C49.3168 18.89 48.8751 18.8329 48.3748 18.8329C47.6156 18.8265 46.8604 18.9434 46.1386 19.179C45.4557 19.4103 44.7974 19.6878 44.1622 20.0154L43.2387 18.039C43.9502 17.6535 44.7434 17.3275 45.6191 17.0577C46.512 16.7858 47.4407 16.6497 48.374 16.6538C49.3553 16.6538 50.2009 16.7555 50.9132 16.9567C51.6347 17.1494 52.2259 17.4616 52.6876 17.894C53.1501 18.318 53.5101 18.8607 53.7406 19.5244C53.9711 20.188 54.0874 20.9912 54.0874 21.9332V32.7811H52.1927L51.6647 30.5904ZM56.2905 16.9444H59.0023L61.8729 25.7573L62.2483 26.9906L62.6799 28.52L63.0692 29.9846L63.3143 31.0375H63.4145L63.6597 29.9846L64.0489 28.52L64.4806 26.9906L64.856 25.7573L67.7266 16.9436H70.4384L65.0287 32.7827H61.6956L56.2905 16.9444ZM81.1668 30.5904H81.0512C80.7336 31.0221 80.4168 31.3983 80.0992 31.7159C79.7902 32.0176 79.4408 32.2749 79.0609 32.4805C78.6855 32.6825 78.2669 32.8313 77.806 32.9276C77.345 33.024 76.8039 33.0718 76.205 33.0718C75.5421 33.0718 74.9308 32.9746 74.3727 32.7835C73.8306 32.6099 73.3332 32.3194 72.9158 31.9325C72.5119 31.547 72.1943 31.0475 71.9638 30.4679C71.7326 29.872 71.617 29.1698 71.617 28.362C71.617 26.7848 72.1697 25.5731 73.2758 24.7267C74.3912 23.8803 76.0839 23.4186 78.3533 23.3415L81.0073 23.2398V22.2377C81.0073 21.5933 80.9348 21.0545 80.7914 20.622C80.6565 20.1904 80.4546 19.8512 80.1856 19.5837C79.9258 19.3139 79.5997 19.1212 79.2043 19.0056C78.8189 18.89 78.3772 18.8329 77.8769 18.8329C77.1177 18.8265 76.3625 18.9434 75.6407 19.179C74.9578 19.4103 74.2995 19.6878 73.6643 20.0154L72.7408 18.039C73.4523 17.6535 74.2455 17.3275 75.1212 17.0577C76.0141 16.7858 76.9428 16.6497 77.8761 16.6538C78.8574 16.6538 79.703 16.7555 80.4153 16.9567C81.1368 17.1494 81.728 17.4616 82.1897 17.894C82.6522 18.318 83.0122 18.8607 83.2427 19.5244C83.4732 20.188 83.5896 20.9912 83.5896 21.9332V32.7811H81.701L81.1668 30.5904Z" stroke="black" stroke-width="1.6411"/>
<path d="M131.23 32.7831H128.604V16.944H131.229V32.7831M128.835 11.3971C129.133 11.1373 129.498 11.0078 129.931 11.0078C130.142 11.0078 130.34 11.041 130.522 11.1096C130.707 11.163 130.876 11.2622 131.013 11.3979C131.157 11.5327 131.267 11.7062 131.344 11.9174C131.43 12.1194 131.473 12.3645 131.473 12.6528C131.473 13.2109 131.319 13.6286 131.011 13.9077C130.713 14.1775 130.352 14.3116 129.929 14.3116C129.497 14.3116 129.119 14.1089 128.821 13.8399C128.533 13.5701 128.397 13.1523 128.397 12.6181C128.399 12.0746 128.544 11.6569 128.832 11.3971H128.835Z" fill="black"/>
<path d="M131.23 32.7831H128.604V16.944H131.229V32.7831M128.835 11.3971C129.133 11.1373 129.498 11.0078 129.931 11.0078C130.142 11.0078 130.34 11.041 130.522 11.1096C130.707 11.163 130.876 11.2622 131.013 11.3979C131.157 11.5327 131.267 11.7062 131.344 11.9174C131.43 12.1194 131.473 12.3645 131.473 12.6528C131.473 13.2109 131.319 13.6286 131.011 13.9077C130.713 14.1775 130.352 14.3116 129.929 14.3116C129.497 14.3116 129.119 14.1089 128.821 13.8399C128.533 13.5701 128.397 13.1523 128.397 12.6181C128.399 12.0746 128.544 11.6569 128.832 11.3971H128.835Z" stroke="black" stroke-width="1.6411" stroke-linecap="square"/>
<path d="M143.271 33.0718C142.704 33.0718 142.189 33.0101 141.728 32.8845C141.267 32.7588 140.848 32.5962 140.473 32.3942C140.108 32.183 139.781 31.9371 139.492 31.6581C139.219 31.3857 138.968 31.0916 138.742 30.7786H138.569L138.655 31.7159L138.713 32.4867L138.741 33.1072V39.8728H136.116V16.9444H138.251L138.626 19.0796H138.742C138.962 18.7444 139.213 18.4306 139.492 18.1423C139.775 17.8411 140.101 17.5834 140.459 17.3776C140.834 17.1564 141.253 16.9829 141.714 16.8581C142.176 16.7232 142.695 16.6561 143.271 16.6561C144.175 16.6561 144.997 16.8296 145.737 17.1757C146.487 17.5296 147.136 18.0651 147.627 18.7335C148.155 19.4165 148.564 20.2752 148.86 21.2865C149.156 22.2978 149.292 23.4888 149.292 24.8354C149.292 26.1921 149.148 27.3838 148.86 28.4121C148.572 29.4311 148.162 30.2875 147.627 30.979C147.107 31.6712 146.47 32.1953 145.738 32.5515C144.998 32.8983 143.993 33.071 143.09 33.071M142.766 18.8337C142.035 18.8337 141.415 18.9439 140.905 19.1652C140.411 19.3817 139.986 19.7313 139.679 20.175C139.37 20.6267 139.139 21.1894 138.986 21.8708C138.842 22.5437 138.761 23.3369 138.741 24.2511V24.8424C138.741 25.8136 138.803 26.6793 138.929 27.4385C139.064 28.1886 139.285 28.8237 139.592 29.3425C139.895 29.8395 140.329 30.2437 140.846 30.5111C141.366 30.7708 142.015 30.9003 142.794 30.9003C144.092 30.9003 145.044 30.3762 145.65 29.3278C146.265 28.2795 146.573 26.7748 146.573 24.8131C146.573 22.8128 146.265 21.3173 145.65 20.3268C145.044 19.3363 144.082 18.8414 142.764 18.8414M158.051 30.9227C158.225 30.9227 158.417 30.9073 158.63 30.8934L159.264 30.8209L159.804 30.7192L160.193 30.6174V32.6085C160.068 32.6663 159.909 32.7241 159.716 32.7819C159.524 32.8398 159.313 32.8868 159.082 32.9261C158.844 32.975 158.603 33.009 158.361 33.0278C158.116 33.0564 157.871 33.0706 157.625 33.0702C157.064 33.075 156.505 32.9971 155.966 32.839C155.465 32.6898 155.008 32.4171 154.639 32.0458C154.274 31.6704 153.985 31.1671 153.773 30.5311C153.562 29.8867 153.456 29.0789 153.456 28.1076V18.9193H151.22V17.7507L153.456 16.6253L154.581 13.3076H156.096V16.9429H160.077V18.9193H156.096V28.1076C156.096 29.0326 156.245 29.7418 156.543 30.2135C156.851 30.676 157.351 30.9204 158.043 30.9204" fill="black"/>
<path d="M143.271 33.0718C142.704 33.0718 142.189 33.0101 141.728 32.8845C141.267 32.7588 140.848 32.5962 140.473 32.3942C140.108 32.183 139.781 31.9371 139.492 31.6581C139.219 31.3857 138.968 31.0916 138.742 30.7786H138.569L138.655 31.7159L138.713 32.4867L138.741 33.1072V39.8728H136.116V16.9444H138.251L138.626 19.0796H138.742C138.962 18.7444 139.213 18.4306 139.492 18.1423C139.775 17.8411 140.101 17.5834 140.459 17.3776C140.834 17.1564 141.253 16.9829 141.714 16.8581C142.176 16.7232 142.695 16.6561 143.271 16.6561C144.175 16.6561 144.997 16.8296 145.737 17.1757C146.487 17.5296 147.136 18.0651 147.627 18.7335C148.155 19.4165 148.564 20.2752 148.86 21.2865C149.156 22.2978 149.292 23.4888 149.292 24.8354C149.292 26.1921 149.148 27.3838 148.86 28.4121C148.572 29.4311 148.162 30.2875 147.627 30.979C147.107 31.6712 146.47 32.1953 145.738 32.5515C144.998 32.8983 143.993 33.071 143.09 33.071M142.766 18.8337C142.035 18.8337 141.415 18.9439 140.905 19.1652C140.411 19.3817 139.986 19.7313 139.679 20.175C139.37 20.6267 139.139 21.1894 138.986 21.8708C138.842 22.5437 138.761 23.3369 138.741 24.2511V24.8424C138.741 25.8136 138.803 26.6793 138.929 27.4385C139.064 28.1886 139.285 28.8237 139.592 29.3425C139.895 29.8395 140.329 30.2437 140.846 30.5111C141.366 30.7708 142.015 30.9003 142.794 30.9003C144.092 30.9003 145.044 30.3762 145.65 29.3278C146.265 28.2795 146.573 26.7748 146.573 24.8131C146.573 22.8128 146.265 21.3173 145.65 20.3268C145.044 19.3363 144.082 18.8414 142.764 18.8414M158.051 30.9227C158.225 30.9227 158.417 30.9073 158.63 30.8934L159.264 30.8209L159.804 30.7192L160.193 30.6174V32.6085C160.068 32.6663 159.909 32.7241 159.716 32.7819C159.524 32.8398 159.313 32.8868 159.082 32.9261C158.844 32.975 158.603 33.009 158.361 33.0278C158.116 33.0564 157.871 33.0706 157.625 33.0702C157.064 33.075 156.505 32.9971 155.966 32.839C155.465 32.6898 155.008 32.4171 154.639 32.0458C154.274 31.6704 153.985 31.1671 153.773 30.5311C153.562 29.8867 153.456 29.0789 153.456 28.1076V18.9193H151.22V17.7507L153.456 16.6253L154.581 13.3076H156.096V16.9429H160.077V18.9193H156.096V28.1076C156.096 29.0326 156.245 29.7418 156.543 30.2135C156.851 30.676 157.351 30.9204 158.043 30.9204" stroke="black" stroke-width="1.6411"/>
</svg>
