<svg width="139" height="70" viewBox="0 0 139 70" fill="none" xmlns="http://www.w3.org/2000/svg">
<path d="M122.947 29.5068C122.635 29.5068 122.332 29.5713 122.064 29.7231L113.57 34.6281C113.02 34.9447 112.686 35.5429 112.686 36.1791V45.9715C112.686 46.6074 113.02 47.2046 113.57 47.5222L115.788 48.8004C116.866 49.3318 117.263 49.3233 117.754 49.3233C119.349 49.3233 120.26 48.3551 120.26 46.6723V37.0114C120.26 36.8748 120.142 36.7771 120.008 36.7771H118.944C118.807 36.7771 118.691 36.8773 118.691 37.0114V46.6773C118.691 47.4232 117.914 48.1736 116.654 47.543L114.348 46.1905C114.266 46.1462 114.204 46.0652 114.204 45.9742V36.1818C114.204 36.0891 114.266 35.9943 114.348 35.9475L122.824 31.06C122.903 31.0144 122.998 31.0144 123.076 31.06L131.552 35.9475C131.633 35.9959 131.696 36.0861 131.696 36.1818V45.9742C131.696 46.0677 131.649 46.1635 131.57 46.2086L123.076 51.096C123.001 51.1394 122.901 51.1394 122.824 51.096L120.642 49.7977C120.577 49.7596 120.488 49.7626 120.426 49.7977C119.823 50.1391 119.71 50.1787 119.145 50.3747C119.006 50.4231 118.794 50.4985 119.218 50.7356L122.067 52.4149C122.338 52.5718 122.64 52.6492 122.951 52.6492C123.265 52.6492 123.563 52.574 123.834 52.4149L132.328 47.5275C132.878 47.2076 133.212 46.6126 133.212 45.9768V36.1843C133.212 35.5482 132.878 34.9512 132.328 34.6334L123.834 29.7284C123.568 29.5765 123.263 29.5121 122.951 29.5121L122.947 29.5068ZM125.22 36.5041C122.801 36.5041 121.36 37.5335 121.36 39.2451C121.36 41.0998 122.79 41.6121 125.112 41.8417C127.889 42.1137 128.105 42.5215 128.105 43.0681C128.105 44.0163 127.349 44.4205 125.562 44.4205C123.318 44.4205 122.824 43.8601 122.659 42.7413C122.639 42.6215 122.547 42.525 122.425 42.525H121.322C121.255 42.5264 121.192 42.5535 121.145 42.6005C121.098 42.6475 121.071 42.7109 121.07 42.7774C121.07 44.2067 121.847 45.8971 125.56 45.8971C128.248 45.8971 129.798 44.8444 129.798 42.9937C129.798 41.164 128.546 40.6695 125.939 40.3244C123.307 39.9735 123.053 39.8055 123.053 39.1882C123.053 38.6789 123.266 37.9977 125.217 37.9977C126.96 37.9977 127.604 38.3737 127.868 39.5486C127.891 39.6589 127.989 39.7492 128.103 39.7492H129.205C129.273 39.7492 129.339 39.7075 129.386 39.6589C129.432 39.607 129.465 39.5486 129.458 39.4785C129.288 37.4548 127.938 36.5029 125.22 36.5029L125.22 36.5041Z" fill="#83CD29"/>
<path d="M73.006 16.6702C72.9111 16.6704 72.8179 16.6953 72.7356 16.7424C72.6536 16.7904 72.5856 16.8588 72.5382 16.9411C72.4908 17.0233 72.4656 17.1165 72.4651 17.2114V31.007C72.4651 31.1423 72.402 31.2636 72.2847 31.3316C72.2272 31.3651 72.1618 31.3827 72.0953 31.3827C72.0288 31.3827 71.9634 31.3651 71.906 31.3316L69.6517 30.0333C69.4873 29.9381 69.3007 29.888 69.1107 29.888C68.9208 29.888 68.7341 29.9381 68.5697 30.0333L59.5713 35.2267C59.235 35.4207 59.0299 35.7942 59.0299 36.1824V46.5696C59.0297 46.7597 59.0796 46.9465 59.1746 47.1111C59.2696 47.2757 59.4063 47.4124 59.5711 47.5072L68.5697 52.701C68.7341 52.7963 68.9207 52.8466 69.1107 52.8466C69.3007 52.8466 69.4874 52.7963 69.6517 52.701L78.6504 47.5072C78.8151 47.4124 78.9519 47.2757 79.0469 47.1111C79.1419 46.9465 79.1918 46.7597 79.1915 46.5696V20.6737C79.1915 20.2797 78.9764 19.91 78.6326 19.718L73.2767 16.7241C73.1925 16.6773 73.0992 16.669 73.006 16.67V16.6702ZM15.1187 29.6362C14.947 29.6433 14.7858 29.6731 14.6317 29.7626L5.63329 34.956C5.46845 35.0507 5.33159 35.1874 5.2366 35.352C5.1416 35.5167 5.09186 35.7036 5.09241 35.8937L5.11071 49.8339C5.11071 50.0279 5.21096 50.2079 5.3814 50.3026C5.54857 50.4029 5.75585 50.4029 5.92227 50.3026L11.2601 47.2368C11.5985 47.0363 11.819 46.6864 11.819 46.2994V39.7891C11.819 39.4006 12.0233 39.0447 12.3604 38.8517L14.6327 37.5354C14.7969 37.4399 14.9836 37.39 15.1736 37.391C15.3636 37.3899 15.5505 37.4397 15.7147 37.5354L17.986 38.851C18.3226 39.0439 18.5269 39.4004 18.5269 39.7883V46.2984C18.5269 46.6859 18.7524 47.0378 19.0858 47.2358L24.4236 50.3016C24.5915 50.4018 24.7983 50.4018 24.9645 50.3016C25.1299 50.2063 25.2352 50.0266 25.2352 49.8329L25.2532 35.8932C25.2543 35.703 25.2048 35.5159 25.1097 35.3511C25.0147 35.1864 24.8775 35.0498 24.7123 34.9555L15.7139 29.7623C15.5618 29.6731 15.3999 29.643 15.227 29.636H15.1192L15.1187 29.6362ZM95.9805 29.7626C95.7905 29.762 95.6038 29.8119 95.4394 29.9069L86.4407 35.1007C86.1048 35.2949 85.8993 35.6501 85.8993 36.038V46.4252C85.8993 46.8157 86.1194 47.1696 86.4582 47.3626L95.3847 52.4506C95.7143 52.6385 96.1166 52.6528 96.4487 52.4681L101.859 49.4564C102.03 49.3612 102.146 49.1832 102.147 48.9878C102.147 48.7923 102.046 48.6163 101.876 48.5191L92.8232 43.3253C92.6538 43.2286 92.535 43.0328 92.535 42.8384V39.5903C92.535 39.3963 92.6553 39.2184 92.8232 39.1216L95.6363 37.4985C95.8038 37.4018 96.0093 37.4018 96.1777 37.4985L98.9921 39.1216C99.0745 39.169 99.143 39.2373 99.1905 39.3196C99.2379 39.4019 99.2628 39.4953 99.2626 39.5903V42.1511C99.2623 42.2461 99.2872 42.3395 99.3347 42.4219C99.3822 42.5042 99.4506 42.5725 99.533 42.6198C99.7017 42.717 99.906 42.7175 100.074 42.6198L105.466 39.4826C105.801 39.2881 106.007 38.9319 106.007 38.5452V36.0388C106.008 35.8488 105.958 35.6621 105.863 35.4975C105.768 35.3329 105.631 35.1962 105.466 35.1012L96.5219 29.9074C96.3574 29.8122 96.1707 29.7624 95.9807 29.7631L95.9805 29.7626ZM69.0745 37.5173C69.1249 37.5171 69.1745 37.5294 69.2189 37.5531L72.3025 39.3384C72.3862 39.3868 72.4468 39.4763 72.4468 39.5728V43.1434C72.4468 43.2404 72.3867 43.3296 72.3025 43.3777L69.2189 45.163C69.1349 45.2106 69.0324 45.2106 68.9482 45.163L65.8646 43.3777C65.7806 43.3293 65.7202 43.2399 65.7202 43.1434V39.5723C65.7202 39.4755 65.7809 39.3868 65.8646 39.3379L68.9482 37.5529C68.9903 37.5286 69.0274 37.5171 69.0745 37.5171V37.5168V37.5173Z" fill="#404137"/>
<path d="M42.1499 29.7083C41.9599 29.7079 41.7731 29.7577 41.6085 29.8526L32.6099 35.0283C32.2735 35.2223 32.069 35.596 32.069 35.984V46.3712C32.0685 46.5612 32.1182 46.7481 32.2132 46.9127C32.3082 47.0773 32.445 47.2139 32.6099 47.3086L41.6085 52.5023C41.7728 52.5977 41.9595 52.6479 42.1495 52.6479C42.3395 52.6479 42.5262 52.5977 42.6905 52.5023L51.6892 47.3086C51.8539 47.2137 51.9906 47.0771 52.0857 46.9124C52.1807 46.7478 52.2306 46.561 52.2303 46.3709V35.9837C52.2303 35.5953 52.0258 35.2218 51.6889 35.0281L42.6903 29.8524C42.5258 29.757 42.339 29.7072 42.1489 29.708L42.1499 29.7083ZM95.9618 38.9776C95.926 38.9776 95.8862 38.9776 95.8536 38.9952L94.1224 40.0052C94.0902 40.0231 94.0632 40.0492 94.0442 40.0808C94.0252 40.1125 94.0148 40.1485 94.0141 40.1854V42.1692C94.0141 42.2439 94.0575 42.3121 94.1224 42.3497L95.8536 43.3415C95.8833 43.3599 95.9176 43.3696 95.9526 43.3696C95.9876 43.3696 96.0218 43.3599 96.0516 43.3415L97.7827 42.3497C97.8469 42.3128 97.891 42.2439 97.891 42.1692V40.1854C97.891 40.1107 97.8471 40.0426 97.7827 40.005L96.0516 38.9949C96.0195 38.9759 95.9974 38.9774 95.9613 38.9774L95.9618 38.9776Z" fill="#83CD29"/>
</svg>
