<svg width="121" height="61" viewBox="0 0 121 61" fill="none" xmlns="http://www.w3.org/2000/svg">
<path d="M47.0955 20.4589C47.0955 19.5746 47.0109 18.6925 46.8427 17.8259C46.5311 16.0473 45.6999 14.4174 44.4686 13.1659C43.8415 12.5112 43.1149 11.9787 42.3146 11.5925C41.534 11.1803 40.7049 10.8937 39.852 10.7415C39.0059 10.5662 38.0702 10.5662 37.2241 10.4863H16.3168C15.6655 10.4989 15.0155 10.5575 14.3708 10.6616C13.7288 10.7393 13.0997 10.9135 12.5025 11.1742L11.9092 11.4294C11.3429 11.7456 10.8024 12.1161 10.2937 12.5368C10.1285 12.7121 9.95327 12.792 9.78803 12.9562C9.16065 13.5527 8.63554 14.2711 8.2382 15.0765C7.82013 15.8687 7.53346 16.7319 7.39211 17.6284C7.26637 18.4968 7.18197 19.372 7.13928 20.2503V40.5604C7.13928 41.4447 7.22389 42.3268 7.39211 43.1933C7.70367 44.9719 8.53483 46.6018 9.76613 47.8534C10.3853 48.4858 11.103 49.004 11.8863 49.3801C12.6669 49.7924 13.496 50.0789 14.3489 50.2311C15.195 50.4064 16.1307 50.4064 16.9768 50.4863H37.2669C38.1479 50.4852 39.0288 50.3998 39.8948 50.2311C40.7349 50.0758 41.5501 49.7951 42.3136 49.3923C43.1044 48.9951 43.8439 48.4816 44.5124 47.8656C45.1365 47.2609 45.6542 46.5419 46.0404 45.7464C46.4584 44.9542 46.7451 44.0909 46.8865 43.1944C47.0126 42.3224 47.0969 41.4435 47.1393 40.5615V20.4589H47.0955Z" fill="#F05138"/>
<path d="M34.0489 40.3537C30.4709 42.2137 25.5569 42.4017 20.6189 40.5007C16.7689 39.0277 13.4709 36.4877 11.1549 33.2127C12.2349 33.9797 13.4099 34.6147 14.6549 35.1127C19.7569 37.2127 24.8699 37.1187 28.4589 35.1127C23.7209 31.6847 19.4549 27.7047 15.7589 23.2667C15.1189 22.6227 14.5489 21.9187 14.0589 21.1667C17.9389 24.2667 22.0689 27.0767 26.4049 29.5687C23.2449 26.5217 20.3389 23.2457 17.7149 19.7707C22.0949 23.7657 26.9049 27.3067 32.0709 30.3357L32.6229 30.6297C32.7724 30.2876 32.9016 29.937 33.0099 29.5797C34.2029 25.6727 32.8439 21.2297 29.8629 17.5547C36.7649 21.3047 40.8509 28.3507 39.1499 34.2527C39.1499 34.4107 39.0619 34.5677 39.0059 34.7257L39.0609 34.7887C42.4729 38.6217 41.5349 42.6757 41.1039 41.9087C39.2379 38.7057 35.7809 39.6927 34.0469 40.3647L34.0489 40.3537Z" fill="#FEFEFE"/>
<path d="M107.331 26.6944H100.629V25.8784C100.629 25.2284 100.689 24.5784 100.741 23.9164C100.785 23.3442 100.943 22.7865 101.205 22.2764C101.438 21.8364 101.775 21.4624 102.185 21.1834C102.712 20.8855 103.31 20.7356 103.915 20.7494C104.285 20.7504 104.654 20.7879 105.016 20.8614L105.766 21.1314L106.23 20.0384C105.934 19.9014 105.626 19.7913 105.309 19.7094C104.895 19.5934 104.466 19.5394 104.036 19.5444C103.236 19.5194 102.442 19.6884 101.722 20.0384C101.106 20.3684 100.572 20.8344 100.164 21.4014C99.7837 22.0255 99.5103 22.709 99.3553 23.4234C99.1873 24.2484 99.1093 25.0894 99.1233 25.9334V26.7494H96.9393V27.8424H99.1333V41.0564H100.631V27.7864H107.333V36.8464C107.328 37.4524 107.385 38.0564 107.505 38.6514C107.572 39.1577 107.749 39.6433 108.022 40.0744C108.269 40.4804 108.622 40.8044 109.062 41.0044C109.608 41.2396 110.199 41.352 110.792 41.3334C111.482 41.3604 112.169 41.2484 112.814 41.0034L112.657 39.9404C112.427 40.0084 112.197 40.0634 111.961 40.1054C111.637 40.1534 111.308 40.1708 110.98 40.1574C110.66 40.1864 110.338 40.1328 110.044 40.0016C109.751 39.8705 109.495 39.6663 109.303 39.4084C108.966 38.7304 108.807 37.9784 108.839 37.2214V27.8384H113.077V26.7524H108.861V23.5864L107.363 24.0204L107.331 26.6944ZM55.0313 38.8704C55.6709 39.2899 56.3739 39.6036 57.1133 39.7994C57.9203 40.0414 58.7573 40.1694 59.5993 40.1814C60.9313 40.2634 62.2463 39.8554 63.2993 39.0354C64.1593 38.2804 64.6443 37.1854 64.6243 36.0404C64.6643 35.0184 64.3123 34.0204 63.6443 33.2474C62.7224 32.3648 61.6181 31.6951 60.4093 31.2854C58.9731 30.8439 57.6392 30.1208 56.4853 29.1584C56.0106 28.735 55.635 28.2121 55.3853 27.6271C55.1355 27.042 55.0178 26.4091 55.0403 25.7734C55.0438 25.0734 55.2023 24.3829 55.5043 23.7514C55.814 23.1419 56.2476 22.6037 56.7773 22.1714C57.3342 21.6946 57.9849 21.34 58.6873 21.1304C59.4674 20.8619 60.2885 20.7326 61.1133 20.7484C61.9673 20.7414 62.8183 20.8324 63.6533 21.0184C64.1938 21.1582 64.7165 21.3592 65.2113 21.6174L64.6343 22.8154C64.2023 22.5524 63.7363 22.3504 63.2493 22.2154C62.5235 21.9831 61.7643 21.872 61.0023 21.8864C60.2769 21.8659 59.5539 21.9774 58.8683 22.2154C58.3345 22.4068 57.8453 22.7049 57.4303 23.0914C57.1083 23.4414 56.8543 23.8474 56.6803 24.2894C56.5197 24.689 56.4408 25.1168 56.4483 25.5474C56.4043 26.5454 56.7823 27.5154 57.4883 28.2204C58.4663 29.0324 59.5823 29.6604 60.7833 30.0774C61.5636 30.3736 62.3156 30.7395 63.0303 31.1704C63.6333 31.5364 64.1953 31.9654 64.7073 32.4504C65.1338 32.877 65.4677 33.387 65.6883 33.9484C65.923 34.5756 66.0396 35.2408 66.0323 35.9104C66.0381 36.639 65.9008 37.3617 65.6283 38.0374C65.3554 38.7104 64.9327 39.3123 64.3923 39.7974C63.7807 40.3254 63.0741 40.7319 62.3103 40.9954C61.3763 41.2954 60.4103 41.4414 59.4203 41.4294C58.9563 41.4194 58.4943 41.3814 58.0353 41.3174C57.5689 41.2537 57.1065 41.1636 56.6503 41.0474C56.2153 40.9364 55.7896 40.7912 55.3773 40.6134C55.0333 40.4834 54.7043 40.3184 54.3973 40.1194L55.0313 38.8704ZM68.8853 26.7544L71.3713 34.8864L72.0673 37.2364C72.2993 37.9464 72.4713 38.7344 72.6443 39.3634H72.7563L73.3933 37.2364L74.2033 34.8864L77.1233 26.7544H78.5083L81.3383 34.7744L82.1483 37.2304L82.7853 39.3574H82.8973L83.4743 37.2304L84.2243 34.8264L86.8603 26.7534H88.3583L83.3893 41.0564H82.2063L79.3683 33.0814C79.079 32.2147 78.789 31.3961 78.4983 30.6254L77.8613 28.2214H77.8013C77.5935 29.0523 77.3435 29.872 77.0523 30.6774C76.763 31.4414 76.473 32.2601 76.1823 33.1334L73.2473 41.0564H71.9793L67.3793 26.7534L68.8853 26.7544ZM91.5823 26.7544H93.0803V41.0564H91.5823V26.7544ZM91.0053 22.3884C91.0013 22.0504 91.1353 21.7264 91.3753 21.4884C91.6153 21.2504 91.9413 21.1214 92.2793 21.1284C92.6153 21.1355 92.9366 21.2676 93.1803 21.499C93.4241 21.7303 93.5728 22.0443 93.5973 22.3794C93.5988 22.5462 93.5634 22.7112 93.4935 22.8627C93.4237 23.0141 93.3212 23.1483 93.1933 23.2554C92.9383 23.4754 92.6093 23.5934 92.2733 23.5854C91.9382 23.5817 91.614 23.4659 91.3523 23.2564C91.1223 23.0214 90.9923 22.7084 90.9853 22.3804L91.0053 22.3884Z" fill="#221F20"/>
</svg>
