<svg width="121" height="61" viewBox="0 0 121 61" fill="none" xmlns="http://www.w3.org/2000/svg">
<path d="M18.7734 20.2551H13.1334V37.7211H10.8334V20.2551H5.21741V18.1821H18.7734V20.2551ZM27.6714 23.7701L21.2534 39.9531C20.1104 42.8401 18.5034 44.2861 16.4284 44.2861C15.8484 44.2861 15.3624 44.2281 14.9714 44.1081V42.1041C15.4514 42.2671 15.8934 42.3481 16.2914 42.3481C17.4194 42.3481 18.2644 41.6781 18.8254 40.3331L19.9414 37.6901L14.4914 23.7701H16.9714L20.7464 34.5051C20.7934 34.6411 20.8864 34.9971 21.0334 35.5671H21.1134L21.3834 34.5321L25.3474 23.7701H27.6714ZM31.3254 35.7061H31.2714V44.1391H29.0354V23.7691H31.2714V26.2221H31.3254C32.4254 24.3701 34.0304 23.4421 36.1504 23.4421C37.9484 23.4421 39.3504 24.0661 40.3604 25.3141C41.3704 26.5621 41.8704 28.2361 41.8704 30.3361C41.8704 32.6691 41.3044 34.5411 40.1704 35.9441C39.0364 37.3471 37.4804 38.0481 35.5124 38.0481C33.7124 38.0441 32.3074 37.2651 31.3274 35.7031L31.3254 35.7061ZM31.2714 30.0781V32.0281C31.2714 33.1831 31.6474 34.1581 32.3954 34.9661C33.1434 35.7741 34.0954 36.1711 35.2514 36.1711C36.6034 36.1711 37.6654 35.6511 38.4334 34.6171C39.2014 33.5831 39.5834 32.1411 39.5834 30.3001C39.5834 28.7461 39.2234 27.5301 38.5064 26.6501C37.7894 25.7701 36.8064 25.3301 35.5924 25.3301C34.2944 25.3301 33.2474 25.7831 32.4574 26.6861C31.6674 27.5891 31.2714 28.7151 31.2714 30.0781ZM55.4264 31.3031H45.5764C45.6114 32.8571 46.0294 34.0531 46.8284 34.8991C47.6274 35.7451 48.7284 36.1661 50.1264 36.1661C51.6964 36.1661 53.1414 35.6461 54.4594 34.6121V36.7091C53.2344 37.5991 51.6114 38.0461 49.5954 38.0461C47.6224 38.0461 46.0754 37.4141 44.9484 36.1461C43.8214 34.8781 43.2484 33.0961 43.2484 30.7981C43.2484 28.6281 43.8644 26.8581 45.0934 25.4931C46.3224 24.1281 47.8534 23.4431 49.6784 23.4431C51.5034 23.4431 52.9144 24.0331 53.9144 25.2131C54.9144 26.3931 55.4144 28.0331 55.4144 30.1311V31.3011L55.4264 31.3031ZM53.1264 29.4081C53.1184 28.1081 52.8044 27.1141 52.1924 26.3981C51.5804 25.6821 50.7274 25.3211 49.6384 25.3211C48.5844 25.3211 47.6884 25.6971 46.9524 26.4531C46.2164 27.2091 45.7524 28.1931 45.5884 29.4101L53.1264 29.4081ZM57.3704 36.9301V34.2331C57.6534 34.5031 57.9904 34.7531 58.3854 34.9691C58.7804 35.1851 59.1854 35.3721 59.6334 35.5191C60.0814 35.6661 60.5094 35.7861 60.9474 35.8691C61.3854 35.9521 61.7974 35.9931 62.1674 35.9931C63.4544 35.9931 64.4194 35.7331 65.0544 35.2101C65.6894 34.6871 66.0074 33.9351 66.0074 32.9551C66.0074 32.4281 65.9024 31.9711 65.6894 31.5791C65.4643 31.1714 65.166 30.8087 64.8094 30.5091C64.4334 30.1871 63.9914 29.8771 63.4794 29.5831L61.8294 28.6491L60.0854 27.5991C59.5707 27.2676 59.0982 26.8747 58.6784 26.4291C58.2784 26.0031 57.9654 25.5191 57.7364 24.9791C57.5074 24.4391 57.3964 23.8051 57.3964 23.0791C57.3964 22.1891 57.5744 21.4161 57.9314 20.7591C58.2884 20.1021 58.7564 19.5591 59.3414 19.1311C59.9264 18.7031 60.5854 18.3871 61.3294 18.1781C62.0697 17.9694 62.8352 17.8637 63.6044 17.8641C65.3674 17.8641 66.6504 18.0971 67.4564 18.5581V21.1311C66.4024 20.3331 65.0564 19.9341 63.3914 19.9341C62.9344 19.9341 62.4764 19.9881 62.0194 20.0891C61.5624 20.1901 61.1554 20.3641 60.7994 20.6011C60.4434 20.8381 60.1524 21.1411 59.9274 21.5161C59.7024 21.8911 59.5904 22.3411 59.5904 22.8801C59.5904 23.3801 59.6754 23.8101 59.8464 24.1741C60.0174 24.5381 60.2684 24.8681 60.6024 25.1701C60.9364 25.4721 61.3384 25.7601 61.8194 26.0421L63.4694 26.9681L65.2894 28.0581C65.8634 28.4381 66.3664 28.8601 66.7974 29.3251C67.2284 29.7901 67.5724 30.3021 67.8244 30.8651C68.0764 31.4281 68.2044 32.0751 68.2044 32.7991C68.2044 33.7591 68.0304 34.5791 67.6894 35.2441C67.3617 35.8908 66.8832 36.4492 66.2944 36.8721C65.7094 37.2921 65.0344 37.5921 64.2674 37.7791C63.5004 37.9661 62.6974 38.0591 61.8494 38.0591C61.5664 38.0591 61.2174 38.0361 60.8034 37.9851L59.5334 37.7681C59.0994 37.6711 58.6934 37.5551 58.3054 37.4151C57.9154 37.2651 57.6074 37.1151 57.3714 36.9351L57.3704 36.9301ZM80.1004 37.0801C79.0274 37.7231 77.7554 38.0501 76.2874 38.0501C74.2994 38.0501 72.6914 37.4031 71.4704 36.1081C70.2494 34.8131 69.6374 33.1361 69.6374 31.0741C69.6374 28.7761 70.2974 26.9311 71.6134 25.5361C72.9294 24.1411 74.6864 23.4431 76.8874 23.4431C78.1124 23.4431 79.1934 23.6731 80.1314 24.1251V26.4251C79.0964 25.6951 77.9884 25.3351 76.8064 25.3351C75.3804 25.3351 74.2104 25.8471 73.2994 26.8701C72.3884 27.8931 71.9314 29.2341 71.9314 30.8961C71.9314 32.5311 72.3614 33.8221 73.2184 34.7641C74.0754 35.7061 75.2284 36.1821 76.6714 36.1821C77.8884 36.1821 79.0314 35.7791 80.1054 34.9691V37.0891L80.1004 37.0801ZM88.7464 26.0281C88.3564 25.7301 87.7934 25.5781 87.0464 25.5781C86.0934 25.5781 85.2944 26.0281 84.6564 26.9281C84.0184 27.8281 83.6964 29.0521 83.6964 30.6061V37.7161H81.4604V23.7661H83.6964V26.6421H83.7504C84.0684 25.6621 84.5524 24.8941 85.2074 24.3481C85.8624 23.8021 86.5904 23.5231 87.4004 23.5231C87.9804 23.5231 88.4274 23.5851 88.7374 23.7231L88.7464 26.0281ZM91.3114 20.2281C90.9114 20.2281 90.5714 20.0921 90.2884 19.8211C90.0054 19.5501 89.8664 19.2051 89.8664 18.7861C89.8664 18.3671 90.0064 18.0231 90.2884 17.7441C90.5704 17.4651 90.9124 17.3291 91.3114 17.3291C91.7184 17.3291 92.0674 17.4691 92.3534 17.7441C92.4939 17.8781 92.6047 18.0401 92.6788 18.2196C92.7528 18.399 92.7885 18.592 92.7834 18.7861C92.7834 19.1861 92.6404 19.5261 92.3534 19.8091C92.0664 20.0841 91.7174 20.2291 91.3114 20.2291V20.2281ZM92.4014 37.7211H90.1654V23.7711H92.4014V37.7211ZM96.0054 35.7061H95.9514V44.1391H93.7154V23.7691H95.9514V26.2221H96.0054C97.1054 24.3701 98.7104 23.4421 100.83 23.4421C102.628 23.4421 104.03 24.0661 105.04 25.3141C106.05 26.5621 106.55 28.2361 106.55 30.3361C106.55 32.6691 105.984 34.5411 104.85 35.9441C103.716 37.3471 102.15 38.0481 100.192 38.0481C98.3924 38.0441 96.9874 37.2651 96.0074 35.7031L96.0054 35.7061ZM95.9514 30.0791V32.0291C95.9514 33.1841 96.3274 34.1591 97.0754 34.9671C97.8234 35.7751 98.7754 36.1721 99.9314 36.1721C101.283 36.1721 102.345 35.6521 103.113 34.6181C103.881 33.5841 104.263 32.1421 104.263 30.3011C104.263 28.7471 103.903 27.5311 103.186 26.6511C102.469 25.7711 101.486 25.3311 100.272 25.3311C98.9744 25.3311 97.9274 25.7841 97.1374 26.6871C96.3474 27.5901 95.9514 28.7171 95.9514 30.0821V30.0791ZM114.917 37.5861C114.39 37.8761 113.697 38.0201 112.832 38.0201C110.392 38.0201 109.166 36.6561 109.166 33.9321V25.6781H106.766V23.7711H109.166V20.3651L111.402 19.6451V23.7721H114.917V25.6791H111.402V33.5391C111.402 34.4731 111.562 35.1431 111.879 35.5431C112.196 35.9431 112.724 36.1431 113.459 36.1431C114.021 36.1431 114.509 35.9881 114.916 35.6781L114.917 37.5861Z" fill="#007ACC"/>
</svg>
