<svg width="45" height="45" viewBox="0 0 45 45" fill="none" xmlns="http://www.w3.org/2000/svg">
<path d="M31.8008 11.5687C35.5508 14.175 38.1383 18.3187 38.6633 23.1" stroke="white" stroke-width="2" stroke-linecap="round" stroke-linejoin="round"/>
<path d="M6.54297 23.1937C7.03047 18.4312 9.58047 14.2875 13.293 11.6625" stroke="white" stroke-width="2" stroke-linecap="round" stroke-linejoin="round"/>
<path d="M15.3555 39.2625C17.5305 40.3688 20.0055 40.9875 22.6117 40.9875C25.1242 40.9875 27.4867 40.425 29.6055 39.3938" stroke="white" stroke-width="2" stroke-linecap="round" stroke-linejoin="round"/>
<path d="M22.6129 14.4375C25.4917 14.4375 27.8254 12.1038 27.8254 9.22501C27.8254 6.34623 25.4917 4.01251 22.6129 4.01251C19.7341 4.01251 17.4004 6.34623 17.4004 9.22501C17.4004 12.1038 19.7341 14.4375 22.6129 14.4375Z" stroke="white" stroke-width="2" stroke-linecap="round" stroke-linejoin="round"/>
<path d="M9.05625 37.35C11.935 37.35 14.2688 35.0163 14.2688 32.1375C14.2688 29.2587 11.935 26.925 9.05625 26.925C6.17747 26.925 3.84375 29.2587 3.84375 32.1375C3.84375 35.0163 6.17747 37.35 9.05625 37.35Z" stroke="white" stroke-width="2" stroke-linecap="round" stroke-linejoin="round"/>
<path d="M35.943 37.35C38.8218 37.35 41.1555 35.0163 41.1555 32.1375C41.1555 29.2587 38.8218 26.925 35.943 26.925C33.0642 26.925 30.7305 29.2587 30.7305 32.1375C30.7305 35.0163 33.0642 37.35 35.943 37.35Z" stroke="white" stroke-width="2" stroke-linecap="round" stroke-linejoin="round"/>
</svg>
