<svg width="45" height="45" viewBox="0 0 45 45" fill="none" xmlns="http://www.w3.org/2000/svg">
<path d="M22.7812 30.9375V34.875" stroke="white" stroke-width="2" stroke-linecap="round" stroke-linejoin="round"/>
<path d="M13.4062 41.25H32.1562V39.375C32.1562 37.3125 30.4687 35.625 28.4062 35.625H17.1562C15.0937 35.625 13.4062 37.3125 13.4062 39.375V41.25V41.25Z" stroke="white" stroke-width="2" stroke-miterlimit="10"/>
<path d="M11.5312 41.25H34.0312" stroke="white" stroke-width="2" stroke-linecap="round" stroke-linejoin="round"/>
<path d="M22.5 30C15.2438 30 9.375 24.1312 9.375 16.875V11.25C9.375 7.10625 12.7312 3.75 16.875 3.75H28.125C32.2688 3.75 35.625 7.10625 35.625 11.25V16.875C35.625 24.1312 29.7562 30 22.5 30Z" stroke="white" stroke-width="2" stroke-linecap="round" stroke-linejoin="round"/>
<path d="M10.2564 21.8437C8.85019 21.3937 7.6127 20.5687 6.6377 19.5937C4.9502 17.7187 3.8252 15.4687 3.8252 12.8438C3.8252 10.2188 5.8877 8.15625 8.5127 8.15625H9.73145C9.35645 9.01875 9.16895 9.975 9.16895 10.9688V16.5938C9.16895 18.4688 9.56269 20.2312 10.2564 21.8437Z" stroke="white" stroke-width="2" stroke-linecap="round" stroke-linejoin="round"/>
<path d="M34.7441 21.8437C36.1504 21.3937 37.3879 20.5687 38.3629 19.5937C40.0504 17.7187 41.1754 15.4687 41.1754 12.8438C41.1754 10.2188 39.1129 8.15625 36.4879 8.15625H35.2691C35.6441 9.01875 35.8316 9.975 35.8316 10.9688V16.5938C35.8316 18.4688 35.4379 20.2312 34.7441 21.8437Z" stroke="white" stroke-width="2" stroke-linecap="round" stroke-linejoin="round"/>
</svg>
