<?xml version="1.0" encoding="UTF-8"?>
<svg xmlns="http://www.w3.org/2000/svg" width="66" height="74" viewBox="0 0 66 74" fill="none">
  <g clip-path="url(#clip0_1605_16426)">
    <path d="M65.1603 55.5C65.6782 54.6063 66 53.5993 66 52.695V21.3051C66 20.4008 65.6786 19.394 65.1605 18.5002L33 37.0001L65.1603 55.5Z" fill="#00599C"></path>
    <path d="M35.858 73.3216L63.1423 57.6267C63.9283 57.1746 64.6426 56.3939 65.1605 55.4999L33.0002 37L0.839844 55.5001C1.35771 56.3939 2.07228 57.1748 2.85802 57.6267L30.1423 73.3216C31.714 74.2259 34.2863 74.2259 35.858 73.3216Z" fill="#004482"></path>
    <path d="M65.1606 18.4999C64.6425 17.6059 63.9279 16.8252 63.1422 16.3731L35.8578 0.678217C34.2861 -0.226072 31.7139 -0.226072 30.1422 0.678217L2.85784 16.3731C1.28592 17.2771 0 19.4966 0 21.305V52.6948C0 53.5991 0.321588 54.6061 0.839667 55.4999L33 37L65.1606 18.4999Z" fill="#659AD2"></path>
    <path d="M33 58.9197C20.8692 58.9197 11 49.0866 11 37.0001C11 24.9136 20.8692 15.0806 33 15.0806C40.8277 15.0806 48.128 19.2775 52.0518 26.0335L42.5307 31.5228C40.5669 28.1412 36.9147 26.0403 33 26.0403C26.9345 26.0403 22 30.9568 22 37.0001C22 43.0433 26.9345 47.9599 33 47.9599C36.9151 47.9599 40.5674 45.8591 42.5314 42.4768L52.0524 47.9659C48.1287 54.7225 40.8281 58.9197 33 58.9197Z" fill="white"></path>
    <path d="M55.0013 35.7821H52.5567V33.3467H50.1126V35.7821H47.668V38.2175H50.1126V40.6532H52.5567V38.2175H55.0013V35.7821Z" fill="white"></path>
    <path d="M64.1654 35.7821H61.7208V33.3467H59.2766V35.7821H56.832V38.2175H59.2766V40.6532H61.7208V38.2175H64.1654V35.7821Z" fill="white"></path>
  </g>
  <defs>
    <clipPath id="clip0_1605_16426">
      <rect width="66" height="74" fill="white"></rect>
    </clipPath>
  </defs>
</svg>
