<?xml version="1.0" encoding="UTF-8"?>
<svg xmlns="http://www.w3.org/2000/svg" width="58" height="58" viewBox="0 0 58 58" fill="none">
  <path d="M24.384 19.7176C26.5074 21.8411 26.5074 25.2839 24.384 27.4074C22.2605 29.5309 18.8176 29.5309 16.6942 27.4074C14.5707 25.2839 14.5707 21.8411 16.6942 19.7176C18.8176 17.5941 22.2605 17.5941 24.384 19.7176" stroke="#231D36" stroke-width="1.7" stroke-linecap="round" stroke-linejoin="round"></path>
  <path fill-rule="evenodd" clip-rule="evenodd" d="M4.83203 44.7084V13.3908C4.83203 10.6672 7.04086 8.45837 9.76445 8.45837H48.332C51.0024 8.45837 53.1654 10.6213 53.1654 13.2917V44.7084C53.1654 47.3788 51.0024 49.5417 48.332 49.5417H9.66536C6.99495 49.5417 4.83203 47.3788 4.83203 44.7084Z" stroke="#231D36" stroke-width="1.7" stroke-linecap="round" stroke-linejoin="round"></path>
  <path d="M36.25 22.9583H45.9167" stroke="#231D36" stroke-width="1.7" stroke-linecap="round" stroke-linejoin="round"></path>
  <path d="M42.05 32.6251H36.25" stroke="#231D36" stroke-width="1.7" stroke-linecap="round" stroke-linejoin="round"></path>
  <path d="M29.2274 39.8751C28.8045 38.8142 28.152 37.862 27.3134 37.0862V37.0862C25.8948 35.7716 24.034 35.0417 22.1006 35.0417H18.9783C17.045 35.0417 15.1841 35.7716 13.7656 37.0862V37.0862C12.927 37.862 12.2745 38.8142 11.8516 39.8751" stroke="#231D36" stroke-width="1.7" stroke-linecap="round" stroke-linejoin="round"></path>
</svg>
