<?xml version="1.0" encoding="UTF-8"?>
<svg xmlns="http://www.w3.org/2000/svg" width="58" height="58" viewBox="0 0 58 58" fill="none">
  <path d="M31.1146 45.9167H12.0833C9.41292 45.9167 7.25 43.7538 7.25 41.0833V12.0833C7.25 9.41292 9.41292 7.25 12.0833 7.25H33.8333C36.5037 7.25 38.6667 9.41292 38.6667 12.0833" stroke="#231D36" stroke-width="1.7" stroke-linecap="round" stroke-linejoin="round"></path>
  <path d="M38.6654 12.0834V19.3334" stroke="#231D36" stroke-width="1.7" stroke-linecap="round" stroke-linejoin="round"></path>
  <path d="M22.9559 38.2631C22.7336 38.2631 22.5523 38.4444 22.5548 38.6667C22.5548 38.889 22.736 39.0703 22.9583 39.0703C23.1807 39.0703 23.3619 38.889 23.3619 38.6667C23.3619 38.4444 23.1807 38.2631 22.9559 38.2631" stroke="#231D36" stroke-width="1.7" stroke-linecap="round" stroke-linejoin="round"></path>
  <path fill-rule="evenodd" clip-rule="evenodd" d="M35.9466 19.3334H45.9154C48.5858 19.3334 50.7487 21.4963 50.7487 24.1667V45.9167C50.7487 48.5871 48.5858 50.75 45.9154 50.75H35.9466C33.2762 50.75 31.1133 48.5871 31.1133 45.9167V24.1667C31.1133 21.4963 33.2762 19.3334 35.9466 19.3334Z" stroke="#231D36" stroke-width="1.7" stroke-linecap="round" stroke-linejoin="round"></path>
  <path d="M38.8125 45.3125H43.0417" stroke="#231D36" stroke-width="1.7" stroke-linecap="round" stroke-linejoin="round"></path>
</svg>
