<?xml version="1.0" encoding="UTF-8"?>
<svg xmlns="http://www.w3.org/2000/svg" width="136" height="82" viewBox="0 0 136 82" fill="none">
  <g clip-path="url(#clip0_1605_16463)">
    <path d="M32.1222 21.3782H57.7487V23.4151H34.4713V38.7448H56.3606V40.7817H34.4713V57.6123H58.0156V59.6491H32.1222V21.3782ZM60.0444 21.3782H62.7672L74.8329 38.2088L87.1657 21.3782L103.94 -0.000488281L76.3812 39.9777L90.5825 59.6491H87.7529L74.8329 41.7465L61.8596 59.6491H59.0834L73.3915 39.9777L60.0444 21.3782ZM91.5969 23.4151V21.3782H120.8V23.4151H107.346V59.6491H104.997V23.4151H91.5969ZM0.0625 21.3782H2.99886L43.4896 81.9687L26.7567 59.6491L2.51837 24.2727L2.41159 59.6491H0.0625V21.3782ZM120.564 56.9976C120.084 56.9976 119.724 56.6257 119.724 56.1452C119.724 55.6646 120.084 55.2927 120.564 55.2927C121.049 55.2927 121.404 55.6646 121.404 56.1452C121.404 56.6257 121.049 56.9976 120.564 56.9976ZM122.872 54.755H124.129C124.146 55.4358 124.643 55.8934 125.374 55.8934C126.191 55.8934 126.654 55.4014 126.654 54.4804V48.645H127.934V54.4861C127.934 56.1452 126.974 57.1006 125.386 57.1006C123.895 57.1006 122.872 56.1738 122.872 54.755ZM129.608 54.6806H130.877C130.985 55.4644 131.751 55.9621 132.853 55.9621C133.882 55.9621 134.636 55.43 134.636 54.6978C134.636 54.0685 134.156 53.6909 133.065 53.4334L132.002 53.176C130.511 52.827 129.831 52.1062 129.831 50.8933C129.831 49.423 131.031 48.4447 132.831 48.4447C134.505 48.4447 135.727 49.423 135.802 50.8132H134.556C134.436 50.0523 133.773 49.5775 132.813 49.5775C131.802 49.5775 131.128 50.0638 131.128 50.8075C131.128 51.3968 131.562 51.7343 132.636 51.986L133.545 52.2091C135.236 52.6039 135.933 53.2904 135.933 54.5319C135.933 56.1108 134.71 57.1006 132.756 57.1006C130.928 57.1006 129.7 56.1566 129.608 54.6806Z" fill="black"></path>
  </g>
  <defs>
    <clipPath id="clip0_1605_16463">
      <rect width="135.871" height="82" fill="white" transform="translate(0.0664062 -0.000488281)"></rect>
    </clipPath>
  </defs>
</svg>
