<?xml version="1.0" encoding="UTF-8"?>
<svg xmlns="http://www.w3.org/2000/svg" width="138" height="70" viewBox="0 0 138 70" fill="none">
  <path d="M122.808 29.6311C122.496 29.6311 122.193 29.6955 121.924 29.8474L113.431 34.7524C112.881 35.0689 112.547 35.6672 112.547 36.3033V46.0958C112.547 46.7316 112.881 47.3289 113.431 47.6465L115.649 48.9247C116.727 49.4561 117.124 49.4475 117.615 49.4475C119.21 49.4475 120.121 48.4793 120.121 46.7965V37.1357C120.121 36.9991 120.003 36.9014 119.869 36.9014H118.805C118.668 36.9014 118.552 37.0016 118.552 37.1357V46.8016C118.552 47.5475 117.775 48.2979 116.514 47.6673L114.209 46.3148C114.127 46.2705 114.064 46.1895 114.064 46.0985V36.3061C114.064 36.2134 114.126 36.1186 114.209 36.0717L122.684 31.1843C122.764 31.1387 122.858 31.1387 122.937 31.1843L131.413 36.0717C131.493 36.1201 131.557 36.2103 131.557 36.3061V46.0985C131.557 46.192 131.51 46.2877 131.431 46.3329L122.937 51.2203C122.862 51.2637 122.762 51.2637 122.685 51.2203L120.503 49.922C120.437 49.8839 120.349 49.8869 120.286 49.922C119.684 50.2634 119.571 50.303 119.006 50.499C118.867 50.5473 118.655 50.6228 119.078 50.8599L121.928 52.5392C122.199 52.6961 122.501 52.7735 122.811 52.7735C123.126 52.7735 123.424 52.6983 123.695 52.5392L132.189 47.6517C132.738 47.3319 133.072 46.7369 133.072 46.101V36.3086C133.072 35.6725 132.738 35.0755 132.189 34.7577L123.695 29.8527C123.429 29.7008 123.124 29.6364 122.811 29.6364L122.808 29.6311ZM125.08 36.6284C122.662 36.6284 121.221 37.6578 121.221 39.3694C121.221 41.2241 122.651 41.7364 124.972 41.966C127.749 42.2379 127.966 42.6457 127.966 43.1924C127.966 44.1405 127.21 44.5448 125.423 44.5448C123.178 44.5448 122.685 43.9844 122.52 42.8655C122.5 42.7457 122.408 42.6492 122.285 42.6492H121.183C121.116 42.6507 121.053 42.6778 121.006 42.7248C120.959 42.7718 120.932 42.8351 120.93 42.9016C120.93 44.331 121.708 46.0213 125.421 46.0213C128.108 46.0213 129.658 44.9686 129.658 43.1179C129.658 41.2883 128.406 40.7938 125.799 40.4486C123.168 40.0977 122.914 39.9298 122.914 39.3125C122.914 38.8032 123.127 38.122 125.078 38.122C126.821 38.122 127.465 38.4979 127.729 39.6729C127.752 39.7832 127.849 39.8734 127.963 39.8734H129.066C129.134 39.8734 129.2 39.8318 129.247 39.7832C129.293 39.7313 129.325 39.6729 129.319 39.6027C129.148 37.5791 127.799 36.6272 125.081 36.6272L125.08 36.6284Z" fill="#83CD29"></path>
  <path d="M72.8706 16.7943C72.7757 16.7944 72.6825 16.8193 72.6002 16.8665C72.5183 16.9144 72.4502 16.9829 72.4028 17.0651C72.3554 17.1473 72.3302 17.2405 72.3298 17.3354V31.131C72.3298 31.2664 72.2666 31.3877 72.1493 31.4556C72.0918 31.4891 72.0265 31.5068 71.9599 31.5068C71.8934 31.5068 71.8281 31.4891 71.7706 31.4556L69.5163 30.1573C69.3519 30.0621 69.1653 30.012 68.9753 30.012C68.7854 30.012 68.5988 30.0621 68.4343 30.1573L59.4359 35.3507C59.0996 35.5447 58.8946 35.9182 58.8946 36.3064V46.6936C58.8943 46.8837 58.9442 47.0705 59.0392 47.2351C59.1342 47.3997 59.271 47.5364 59.4357 47.6313L68.4343 52.825C68.5987 52.9204 68.7853 52.9706 68.9753 52.9706C69.1654 52.9706 69.352 52.9204 69.5163 52.825L78.515 47.6313C78.6797 47.5364 78.8165 47.3997 78.9115 47.2351C79.0065 47.0705 79.0564 46.8837 79.0561 46.6936V20.7977C79.0561 20.4037 78.8411 20.034 78.4972 19.842L73.1413 16.8482C73.0571 16.8013 72.9639 16.793 72.8706 16.794V16.7943ZM14.9833 29.7603C14.8116 29.7673 14.6505 29.7971 14.4963 29.8866L5.49791 35.0801C5.33307 35.1748 5.19621 35.3114 5.10122 35.476C5.00623 35.6407 4.95648 35.8276 4.95704 36.0177L4.97533 49.9579C4.97533 50.1519 5.07559 50.3319 5.24602 50.4266C5.4132 50.5269 5.62047 50.5269 5.7869 50.4266L11.1247 47.3608C11.4631 47.1603 11.6837 46.8104 11.6837 46.4234V39.9131C11.6837 39.5246 11.8879 39.1687 12.225 38.9757L14.4973 37.6594C14.6615 37.5639 14.8483 37.514 15.0382 37.515C15.2282 37.5139 15.4151 37.5637 15.5793 37.6594L17.8506 38.975C18.1872 39.168 18.3915 39.5244 18.3915 39.9124V46.4224C18.3915 46.8099 18.6171 47.1618 18.9504 47.3598L24.2882 50.4256C24.4562 50.5259 24.6629 50.5259 24.8291 50.4256C24.9945 50.3304 25.0998 50.1507 25.0998 49.9569L25.1178 36.0172C25.1189 35.827 25.0694 35.6399 24.9743 35.4752C24.8793 35.3104 24.7422 35.1739 24.577 35.0796L15.5786 29.8863C15.4264 29.7971 15.2645 29.767 15.0916 29.76H14.9838L14.9833 29.7603ZM95.8451 29.8866C95.6551 29.8861 95.4684 29.9359 95.304 30.031L86.3053 35.2247C85.9695 35.4189 85.7639 35.7741 85.7639 36.1621V46.5493C85.7639 46.9397 85.984 47.2936 86.3229 47.4866L95.2493 52.5746C95.5789 52.7626 95.9812 52.7769 96.3133 52.5921L101.723 49.5805C101.895 49.4852 102.011 49.3073 102.012 49.1118C102.012 48.9163 101.911 48.7403 101.741 48.6431L92.6878 43.4494C92.5184 43.3526 92.3996 43.1569 92.3996 42.9624V39.7144C92.3996 39.5204 92.5199 39.3424 92.6878 39.2457L95.501 37.6225C95.6684 37.5258 95.8739 37.5258 96.0424 37.6225L98.8568 39.2457C98.9392 39.293 99.0076 39.3613 99.0551 39.4436C99.1026 39.5259 99.1275 39.6193 99.1272 39.7144V42.2751C99.127 42.3702 99.1518 42.4636 99.1993 42.5459C99.2468 42.6282 99.3152 42.6965 99.3976 42.7438C99.5663 42.8411 99.7706 42.8416 99.939 42.7438L105.331 39.6066C105.665 39.4121 105.872 39.0559 105.872 38.6692V36.1628C105.872 35.9728 105.822 35.7861 105.727 35.6215C105.632 35.4569 105.496 35.3202 105.331 35.2252L96.3865 30.0315C96.2221 29.9363 96.0353 29.8865 95.8453 29.8871L95.8451 29.8866ZM68.9391 37.6413C68.9895 37.6411 69.0391 37.6534 69.0835 37.6772L72.1671 39.4625C72.2508 39.5108 72.3115 39.6003 72.3115 39.6968V43.2674C72.3115 43.3644 72.2513 43.4536 72.1671 43.5017L69.0835 45.287C68.9995 45.3347 68.897 45.3347 68.8128 45.287L65.7292 43.5017C65.6452 43.4534 65.5848 43.3639 65.5848 43.2674V39.6963C65.5848 39.5996 65.6455 39.5108 65.7292 39.462L68.8128 37.6769C68.8549 37.6526 68.892 37.6411 68.9391 37.6411V37.6408V37.6413Z" fill="#404137"></path>
  <path d="M42.0145 29.8323C41.8245 29.832 41.6377 29.8818 41.4731 29.9767L32.4745 35.1523C32.1381 35.3463 31.9336 35.72 31.9336 36.108V46.4952C31.9331 46.6853 31.9829 46.8721 32.0778 47.0367C32.1728 47.2013 32.3097 47.3379 32.4745 47.4326L41.4731 52.6263C41.6375 52.7217 41.8241 52.7719 42.0141 52.7719C42.2041 52.7719 42.3908 52.7217 42.5551 52.6263L51.5538 47.4326C51.7185 47.3377 51.8553 47.2011 51.9503 47.0364C52.0453 46.8718 52.0952 46.685 52.0949 46.4949V36.1078C52.0949 35.7193 51.8904 35.3458 51.5535 35.1521L42.5549 29.9764C42.3904 29.8811 42.2036 29.8312 42.0135 29.832L42.0145 29.8323ZM95.8265 39.1016C95.7906 39.1016 95.7508 39.1016 95.7182 39.1192L93.987 40.1292C93.9548 40.1472 93.9278 40.1732 93.9088 40.2049C93.8898 40.2365 93.8794 40.2726 93.8788 40.3095V42.2933C93.8788 42.3679 93.9221 42.4361 93.987 42.4737L95.7182 43.4655C95.7479 43.4839 95.7822 43.4937 95.8172 43.4937C95.8522 43.4937 95.8865 43.4839 95.9162 43.4655L97.6473 42.4737C97.7115 42.4369 97.7556 42.3679 97.7556 42.2933V40.3095C97.7556 40.2348 97.7118 40.1666 97.6473 40.129L95.9162 39.1189C95.8841 39.0999 95.8621 39.1014 95.826 39.1014L95.8265 39.1016Z" fill="#83CD29"></path>
</svg>
