<?xml version="1.0" encoding="UTF-8"?>
<svg xmlns="http://www.w3.org/2000/svg" width="148" height="74" viewBox="0 0 148 74" fill="none">
  <path d="M59.5125 35.8378C59.5125 31.5952 58.303 29.4183 55.8836 29.2986C54.9211 29.2534 53.9814 29.403 53.0668 29.7611C52.3372 30.022 51.8497 30.2807 51.5875 30.5419V40.6674C53.135 41.6383 54.5093 42.0932 55.7077 42.0191C58.2463 41.8515 59.5121 39.7935 59.5121 35.8375L59.5125 35.8378ZM62.4969 36.0138C62.4969 38.1688 61.9916 39.9573 60.9748 41.3803C59.8418 42.9904 58.2717 43.8195 56.2641 43.865C54.7507 43.9137 53.1917 43.439 51.5875 42.4451V51.6478L48.9922 50.722V30.2956C49.4182 29.7733 49.9659 29.3247 50.6266 28.9439C52.1714 28.0439 54.0485 27.5807 56.2603 27.5581L56.2971 27.595C58.3158 27.5696 59.872 28.3948 60.965 30.0793C61.9839 31.6213 62.4951 33.5976 62.4951 36.0138H62.4969ZM78.3545 42.0532C78.3545 44.9438 78.0648 46.9461 77.4851 48.0589C76.903 49.1718 75.7957 50.0606 74.1606 50.7227C72.8346 51.2451 71.4004 51.5295 69.8616 51.5775L69.4328 49.942C70.9977 49.7292 72.0991 49.516 72.7379 49.3032C73.9957 48.8772 74.8592 48.2241 75.3332 47.3495C75.7136 46.6366 75.9011 45.2769 75.9011 43.2634V42.5877C74.1501 43.3881 72.2466 43.7998 70.3214 43.7944C69.0437 43.7944 67.9163 43.3945 66.9454 42.5877C65.8551 41.7103 65.3099 40.5972 65.3099 39.2486V28.4473L67.9052 27.5585V38.4307C67.9052 39.5922 68.28 40.4866 69.0294 41.1139C69.7789 41.7413 70.7501 42.0424 71.9402 42.0198C73.1295 41.9945 74.4047 41.5344 75.7592 40.634V27.95H78.3545V42.0532ZM88.4891 43.7231L87.6343 43.76C86.1668 43.76 85.022 43.4109 84.2044 42.7098C83.3896 42.0084 82.9803 41.0406 82.9803 39.805V29.5793H81.2068V27.9466H82.9803V23.6139L85.5728 22.691V27.9497H88.4891V29.5824H85.5728V39.7368C85.5728 40.7105 85.8336 41.4008 86.3567 41.8039C86.8087 42.136 87.5182 42.3262 88.4891 42.3742V43.7259V43.7231ZM104.203 43.5103H101.608V33.4926C101.608 32.4736 101.369 31.5959 100.895 30.8635C100.347 30.0345 99.5859 29.62 98.6091 29.62C97.4198 29.62 95.9314 30.2473 94.1453 31.5024V43.5103H91.55V19.565L94.1453 18.7471V29.6533C95.8034 28.4466 97.6152 27.845 99.5828 27.845C100.957 27.845 102.07 28.3075 102.922 29.2308C103.777 30.1538 104.202 31.3034 104.202 32.6778V43.5138L104.203 43.5103ZM117.997 35.4292C117.997 33.7993 117.684 32.4535 117.071 31.3883C116.339 30.0912 115.2 29.4061 113.661 29.3355C110.817 29.5003 109.396 31.5389 109.396 35.4455C109.396 37.2372 109.692 38.7336 110.288 39.9316C111.049 41.4617 112.19 42.2174 113.712 42.192C116.569 42.1694 117.997 39.9149 117.997 35.4254L117.997 35.4292ZM120.839 35.4466C120.839 37.7661 120.246 39.6972 119.066 41.2391C117.762 42.9654 115.962 43.8316 113.665 43.8316C111.388 43.8316 109.613 42.9622 108.333 41.2391C107.171 39.6972 106.592 37.7665 106.592 35.4466C106.592 33.2662 107.22 31.4314 108.475 29.9382C109.801 28.3538 111.544 27.5588 113.699 27.5588C115.854 27.5588 117.609 28.3538 118.961 29.9382C120.213 31.4318 120.843 33.2662 120.843 35.4466H120.839ZM135.718 43.5103H133.123V32.9247C133.123 31.7632 132.774 30.8576 132.075 30.2045C131.379 29.5542 130.445 29.2392 129.284 29.2646C128.051 29.2872 126.879 29.6906 125.766 30.4713V43.5103H123.17V30.1506C124.664 29.0632 126.038 28.3527 127.293 28.021C128.477 27.708 129.519 27.5585 130.422 27.5585C131.039 27.5585 131.618 27.6176 132.163 27.7372C133.182 27.973 134.011 28.4101 134.65 29.0517C135.363 29.7611 135.718 30.6166 135.718 31.6102V43.5103Z" fill="#646464"></path>
  <path d="M23.361 19.6613C22.0256 19.6675 20.7504 19.7812 19.6286 19.9798C16.3232 20.564 15.7233 21.786 15.7233 24.0398V27.0166H23.5338V28.0088H12.7882C10.5181 28.0088 8.53033 29.3733 7.90924 31.9686C7.19217 34.9437 7.16018 36.8003 7.90924 39.9068C8.4646 42.2194 9.79059 43.8667 12.0604 43.8667H14.7461V40.2984C14.7461 37.7201 16.9766 35.4462 19.6251 35.4462H27.427C29.5987 35.4462 31.3322 33.658 31.3322 31.4769V24.0395C31.3322 21.9227 29.5465 20.3324 27.427 19.9795C26.0853 19.7562 24.6929 19.6547 23.3575 19.6609L23.361 19.6613ZM19.1334 22.0549C19.9402 22.0549 20.5991 22.7246 20.5991 23.5478C20.5991 24.3685 19.9402 25.0316 19.1334 25.0316C18.3238 25.0316 17.6676 24.3681 17.6676 23.5478C17.6676 22.7243 18.3234 22.0549 19.1334 22.0549Z" fill="url(#paint0_linear_1605_16391)"></path>
  <path d="M32.3127 28.0088V31.4773C32.3127 34.1665 30.0328 36.4293 27.4337 36.4293H19.6318C17.4949 36.4293 15.7266 38.2585 15.7266 40.3986V47.8364C15.7266 49.9531 17.5672 51.1981 19.6318 51.8056C22.1009 52.5324 24.4754 52.6639 27.4337 51.8056C29.4003 51.2363 31.339 50.0905 31.339 47.8364V44.8596H23.5371V43.8674H35.2443C37.5144 43.8674 38.3602 42.2841 39.1496 39.9076C39.965 37.4608 39.9303 35.1078 39.1496 31.9694C38.5886 29.7097 37.5172 28.0095 35.2443 28.0095H32.3127V28.0088ZM27.9247 46.8442C28.7343 46.8442 29.3905 47.5077 29.3905 48.3281C29.3905 49.1516 28.7347 49.821 27.9247 49.821C27.118 49.821 26.459 49.1512 26.459 48.3281C26.459 47.5074 27.118 46.8442 27.9247 46.8442Z" fill="url(#paint1_linear_1605_16391)"></path>
  <path d="M140.773 25.6357H141.228V22.7823H142.306V22.4422H139.695V22.7823H140.773V25.6357ZM142.71 25.6357H143.098V23.0296L143.942 25.6357H144.375L145.255 23.0379V25.6357H145.679V22.4419H145.118L144.157 25.178L143.338 22.4419H142.71V25.6357" fill="#646464"></path>
  <path opacity="0.444" d="M34.0905 56.8618C34.0905 57.9827 29.4042 58.8915 23.6234 58.8915C17.8426 58.8915 13.1562 57.9829 13.1562 56.8618C13.1562 55.7407 17.8426 54.832 23.6234 54.832C29.4042 54.832 34.0905 55.7407 34.0905 56.8618Z" fill="url(#paint2_radial_1605_16391)"></path>
  <defs>
    <linearGradient id="paint0_linear_1605_16391" x1="7.36222" y1="19.6606" x2="25.2274" y2="35.1795" gradientUnits="userSpaceOnUse">
      <stop stop-color="#5A9FD4"></stop>
      <stop offset="1" stop-color="#306998"></stop>
    </linearGradient>
    <linearGradient id="paint1_linear_1605_16391" x1="27.7335" y1="48.0777" x2="21.3539" y2="38.9644" gradientUnits="userSpaceOnUse">
      <stop stop-color="#FFD43B"></stop>
      <stop offset="1" stop-color="#FFE873"></stop>
    </linearGradient>
    <radialGradient id="paint2_radial_1605_16391" cx="0" cy="0" r="1" gradientUnits="userSpaceOnUse" gradientTransform="translate(23.6234 56.8617) rotate(-90) scale(2.02968 8.92131)">
      <stop stop-color="#B8B8B8" stop-opacity="0.498"></stop>
      <stop offset="1" stop-color="#7F7F7F" stop-opacity="0"></stop>
    </radialGradient>
  </defs>
</svg>
