<?xml version="1.0" encoding="UTF-8"?>
<svg xmlns="http://www.w3.org/2000/svg" width="138" height="70" viewBox="0 0 138 70" fill="none">
  <path d="M29.9461 38.9604C32.1536 38.9604 33.943 37.1709 33.943 34.9635C33.943 32.756 32.1536 30.9666 29.9461 30.9666C27.7387 30.9666 25.9492 32.756 25.9492 34.9635C25.9492 37.1709 27.7387 38.9604 29.9461 38.9604Z" fill="#00D8FF"></path>
  <path fill-rule="evenodd" clip-rule="evenodd" d="M29.9441 26.8369C35.3105 26.8369 40.2958 27.6069 44.0546 28.901C48.5835 30.4602 51.368 32.8235 51.368 34.9635C51.368 37.1935 48.417 39.7042 43.5535 41.3155C39.8767 42.5337 35.0382 43.1697 29.9441 43.1697C24.7213 43.1697 19.7756 42.5728 16.0573 41.3022C11.353 39.6942 8.51953 37.151 8.51953 34.9635C8.51953 32.8408 11.1782 30.4958 15.6434 28.939C19.4163 27.6236 24.5246 26.8369 29.9434 26.8369H29.9441Z" stroke="#00D8FF" stroke-width="1.91213"></path>
  <path fill-rule="evenodd" clip-rule="evenodd" d="M22.8694 30.9235C25.5503 26.2748 28.7077 22.341 31.7066 19.7312C35.3197 16.5869 38.7581 15.3555 40.6119 16.4244C42.5437 17.5385 43.2444 21.3493 42.2106 26.3672C41.4298 30.161 39.5628 34.67 37.0179 39.0828C34.4087 43.6072 31.421 47.5934 28.463 50.1789C24.72 53.4509 21.1013 54.635 19.2063 53.5421C17.3675 52.4825 16.6643 49.0072 17.5464 44.3613C18.2917 40.4358 20.1622 35.6177 22.8685 30.9235L22.8694 30.9235Z" stroke="#00D8FF" stroke-width="1.91213"></path>
  <path fill-rule="evenodd" clip-rule="evenodd" d="M22.8766 39.0948C20.1881 34.4513 18.3576 29.7503 17.5935 25.8489C16.6738 21.1483 17.3241 17.5543 19.1762 16.4822C21.1061 15.3649 24.7576 16.661 28.5886 20.0627C31.4852 22.6345 34.4595 26.5031 37.0118 30.9118C39.6285 35.4319 41.5897 40.0112 42.3527 43.8651C43.318 48.742 42.5367 52.4684 40.6435 53.5643C38.8065 54.6278 35.4449 53.5019 31.8604 50.4173C28.8318 47.8112 25.5917 43.7844 22.8766 39.0947V39.0948Z" stroke="#00D8FF" stroke-width="1.91213"></path>
  <path fill-rule="evenodd" clip-rule="evenodd" d="M74.3143 45.1752L69.4153 37.7738C71.8913 37.5553 74.1223 35.7613 74.1223 32.4838C74.1223 29.1488 71.7556 27.0144 68.4355 27.0144H61.1445V45.1614H63.4031V37.9509H67.0222L71.6475 45.1614L74.3143 45.1752ZM68.1653 35.9787H63.4043V29.0407H68.1653C70.3158 29.0407 71.7843 30.4552 71.7843 32.4965C71.7843 34.5377 70.3146 35.981 68.1653 35.981V35.9787ZM82.722 45.5007C84.8725 45.5007 86.64 44.7934 87.9464 43.4882L86.9666 42.1542C85.9316 43.2156 84.409 43.8136 82.9129 43.8136C80.0839 43.8136 78.3416 41.7459 78.1783 39.2711H88.8158V38.7536C88.8158 34.8091 86.4756 31.7064 82.5023 31.7064C78.7476 31.7064 76.0278 34.7815 76.0278 38.5903C76.0278 42.6993 78.8304 45.4903 82.7208 45.4903L82.722 45.5007ZM86.8045 37.7727H78.1795C78.2887 35.7602 79.6745 33.3912 82.4782 33.3912C85.4716 33.3912 86.7769 35.8131 86.8045 37.7727ZM102.369 45.1741V36.1408C102.369 32.9576 100.057 31.7053 97.281 31.7053C95.1305 31.7053 93.4446 32.4125 92.0301 33.8822L92.9823 35.2967C94.1518 34.0455 95.4318 33.474 97.0096 33.474C98.914 33.474 100.33 34.4802 100.33 36.2489V38.6156C99.2682 37.3909 97.772 36.8193 95.9757 36.8193C93.7447 36.8193 91.3757 38.2074 91.3757 41.1456C91.3757 44.0022 93.7424 45.4995 95.9757 45.4995C97.7444 45.4995 99.2417 44.8739 100.33 43.6768V45.1718L102.369 45.1741ZM96.7106 44.031C94.8062 44.031 93.4722 42.835 93.4722 41.1744C93.4722 39.4873 94.8062 38.2902 96.7106 38.2902C98.1527 38.2902 99.5396 38.8341 100.33 39.9232V42.3991C99.5407 43.487 98.1527 44.0321 96.7106 44.0321V44.031ZM112.236 45.5007C114.63 45.5007 116.044 44.5209 117.052 43.2156L115.691 41.9644C114.821 43.134 113.705 43.6779 112.356 43.6779C109.554 43.6779 107.814 41.501 107.814 38.5903C107.814 35.6797 109.555 33.5303 112.356 33.5303C113.717 33.5303 114.832 34.0478 115.691 35.2438L117.052 33.9926C116.046 32.6862 114.63 31.7076 112.236 31.7076C108.318 31.7076 105.678 34.701 105.678 38.5915C105.678 42.5095 108.318 45.4915 112.236 45.4915V45.5007ZM123.23 45.5007C124.426 45.5007 125.162 45.1465 125.679 44.6577L125.081 43.134C124.809 43.433 124.276 43.6779 123.693 43.6779C122.796 43.6779 122.359 42.9707 122.359 41.9909V33.8282H125.027V32.033H122.359V28.4416H120.318V32.033H118.141V33.8293H120.318V42.4279C120.318 44.3875 121.298 45.503 123.23 45.503V45.5007Z" fill="#00D8FF"></path>
</svg>
