<?xml version="1.0" encoding="UTF-8"?>
<svg xmlns="http://www.w3.org/2000/svg" width="66" height="67" viewBox="0 0 66 67" fill="none">
  <path fill-rule="evenodd" clip-rule="evenodd" d="M38.5 33.4858H27.5C24.4612 33.4858 22 31.0246 22 27.9858V22.4858C22 19.4471 24.4612 16.9858 27.5 16.9858H38.5C41.5388 16.9858 44 19.4471 44 22.4858V27.9858C44 31.0246 41.5388 33.4858 38.5 33.4858Z" stroke="#6579F4" stroke-width="3" stroke-linecap="round" stroke-linejoin="round"></path>
  <path fill-rule="evenodd" clip-rule="evenodd" d="M46.75 58.2358H19.25C14.6932 58.2358 11 54.5426 11 49.9858V49.9858C11 45.4291 14.6932 41.7358 19.25 41.7358H46.75C51.3068 41.7358 55 45.4291 55 49.9858V49.9858C55 54.5426 51.3068 58.2358 46.75 58.2358Z" stroke="#6579F4" stroke-width="3" stroke-linecap="round" stroke-linejoin="round"></path>
  <path d="M20.625 49.9584C20.6167 49.9584 20.6113 49.9639 20.6113 49.9721C20.6113 49.9804 20.6167 49.9859 20.625 49.9859C20.6333 49.9859 20.6387 49.9804 20.6387 49.9721C20.6387 49.9639 20.6333 49.9584 20.625 49.9584" stroke="#6579F4" stroke-width="3" stroke-linecap="round" stroke-linejoin="round"></path>
  <path d="M28.875 49.9858C28.8667 49.9858 28.8613 49.9913 28.8613 49.9996C28.8613 50.0078 28.8667 50.0133 28.875 50.0133C28.8833 50.0133 28.8887 50.0078 28.8887 49.9996C28.8887 49.9913 28.8833 49.9858 28.875 49.9858" stroke="#6579F4" stroke-width="3" stroke-linecap="round" stroke-linejoin="round"></path>
  <path d="M37.1094 49.9721C37.1011 49.9721 37.0956 49.9776 37.0956 49.9858C37.0956 49.9941 37.1011 49.9996 37.1094 49.9996C37.1176 49.9996 37.1231 49.9941 37.1231 49.9858C37.1231 49.9776 37.1176 49.9721 37.1094 49.9721" stroke="#6579F4" stroke-width="3" stroke-linecap="round" stroke-linejoin="round"></path>
  <path d="M45.3594 49.9721C45.3511 49.9721 45.3456 49.9776 45.3456 49.9858C45.3456 49.9941 45.3511 49.9996 45.3594 49.9996C45.3676 49.9996 45.3731 49.9941 45.3731 49.9858C45.3731 49.9776 45.3676 49.9721 45.3594 49.9721" stroke="#6579F4" stroke-width="3" stroke-linecap="round" stroke-linejoin="round"></path>
  <path d="M38.5 16.9858V11.1421C38.5 8.29309 36.0388 5.98584 33 5.98584C29.9612 5.98584 27.5 8.29309 27.5 11.1421V16.9858" stroke="#6579F4" stroke-width="3" stroke-linecap="round" stroke-linejoin="round"></path>
</svg>
