<?xml version="1.0" encoding="UTF-8"?>
<svg xmlns="http://www.w3.org/2000/svg" width="66" height="67" viewBox="0 0 66 67" fill="none">
  <path fill-rule="evenodd" clip-rule="evenodd" d="M28.8453 38.9858H37.1558C39.5868 38.9858 41.5558 40.9548 41.5558 43.3858V52.4306C41.5558 57.1551 37.7251 60.9858 33.0006 60.9858V60.9858C28.2761 60.9858 24.4453 57.1551 24.4453 52.4306V43.3858C24.4453 40.9548 26.4143 38.9858 28.8453 38.9858V38.9858Z" stroke="#6579F4" stroke-width="3" stroke-linecap="round" stroke-linejoin="round"></path>
  <path d="M25.0085 55.4858H16.5C11.9432 55.4858 8.25 51.7926 8.25 47.2358V27.0701C8.25 24.5236 9.42425 22.1201 11.4345 20.5581L27.9345 7.72383C30.9155 5.40558 35.0872 5.40558 38.0655 7.72383L54.5655 20.5581C56.5758 22.1201 57.75 24.5236 57.75 27.0701V47.2358C57.75 51.7926 54.0568 55.4858 49.5 55.4858H40.9915" stroke="#6579F4" stroke-width="3" stroke-linecap="round" stroke-linejoin="round"></path>
  <path d="M24.75 25.2358C29.3068 20.6791 36.6932 20.6791 41.25 25.2358" stroke="#6579F4" stroke-width="3" stroke-linecap="round" stroke-linejoin="round"></path>
  <path d="M28.875 30.7358C31.152 28.4588 34.848 28.4588 37.125 30.7358" stroke="#6579F4" stroke-width="3" stroke-linecap="round" stroke-linejoin="round"></path>
  <path d="M32.9986 48.9161C32.7044 48.9161 32.4651 49.1553 32.4651 49.4496C32.4679 49.7466 32.7071 49.9858 33.0014 49.9858C33.2956 49.9858 33.5349 49.7466 33.5349 49.4523C33.5349 49.1581 33.2956 48.9161 32.9986 48.9161" stroke="#6579F4" stroke-width="3" stroke-linecap="round" stroke-linejoin="round"></path>
</svg>
