<svg width="66" height="67" viewBox="0 0 66 67" fill="none" xmlns="http://www.w3.org/2000/svg">
<path d="M38.5 53.7463H45.8343C50.897 53.7463 55 49.6433 55 44.5806" stroke="#6579F4" stroke-width="3" stroke-linecap="round" stroke-linejoin="round"/>
<path d="M43.0843 58.3305L38.5 53.7463L43.0843 49.1648" stroke="#6579F4" stroke-width="3" stroke-linecap="round" stroke-linejoin="round"/>
<path d="M27.5 13.4148H20.1657C15.103 13.4148 11 17.5178 11 22.5805" stroke="#6579F4" stroke-width="3" stroke-linecap="round" stroke-linejoin="round"/>
<path d="M22.9155 8.83057L27.4998 13.4148L22.9155 17.9963" stroke="#6579F4" stroke-width="3" stroke-linecap="round" stroke-linejoin="round"/>
<path d="M11 49.3958V49.7341C11 52.2036 13.002 54.2056 15.4715 54.2056H20.2812C22.748 54.2056 24.75 52.2036 24.75 49.7341V49.7341C24.75 47.6578 23.32 45.8538 21.2988 45.3808L14.454 43.7776C12.43 43.3073 11 41.5033 11 39.4271V39.4271C11 36.9576 13.002 34.9556 15.4715 34.9556H20.2812C22.748 34.9556 24.75 36.9576 24.75 39.4271V39.7653" stroke="#6579F4" stroke-width="3" stroke-linecap="round" stroke-linejoin="round"/>
<path fill-rule="evenodd" clip-rule="evenodd" d="M50.2617 32.2056H41.272C41.261 32.2056 41.25 32.1946 41.25 32.1836V22.7511C41.25 22.7401 41.261 22.7291 41.272 22.7291H50.2617C52.8797 22.7291 55 24.8494 55 27.4674V27.4674C55 30.0854 52.8797 32.2056 50.2617 32.2056V32.2056Z" stroke="#6579F4" stroke-width="3" stroke-linecap="round" stroke-linejoin="round"/>
<path d="M41.25 22.7291V12.9556H49.0572C51.755 12.9556 53.944 15.1446 53.944 17.8423V17.8423C53.944 20.5401 51.7413 22.7291 49.027 22.7291" stroke="#6579F4" stroke-width="3" stroke-linecap="round" stroke-linejoin="round"/>
<path d="M46.75 12.9556V10.2056" stroke="#6579F4" stroke-width="3" stroke-linecap="round" stroke-linejoin="round"/>
<path d="M46.75 34.9556V32.2056" stroke="#6579F4" stroke-width="3" stroke-linecap="round" stroke-linejoin="round"/>
<path d="M17.875 34.9556V32.2056" stroke="#6579F4" stroke-width="3" stroke-linecap="round" stroke-linejoin="round"/>
<path d="M17.875 56.9556V54.2056" stroke="#6579F4" stroke-width="3" stroke-linecap="round" stroke-linejoin="round"/>
</svg>
