<svg width="59" height="59" viewBox="0 0 59 59" fill="none" xmlns="http://www.w3.org/2000/svg">
<path d="M29.1643 5.11523C42.6174 5.11523 53.5226 16.0205 53.5226 29.4736C53.5226 41.2581 45.1531 51.0867 34.036 53.3423" stroke="#231D36" stroke-width="1.7" stroke-linecap="round" stroke-linejoin="round"/>
<path d="M24.2924 53.3448C19.5986 52.3924 15.4041 50.0856 12.1133 46.8582" stroke="#231D36" stroke-width="1.7" stroke-linecap="round" stroke-linejoin="round"/>
<path d="M8.08946 17.2944C7.20282 18.8241 6.46232 20.4488 5.92157 22.1661" stroke="#231D36" stroke-width="1.7" stroke-linecap="round" stroke-linejoin="round"/>
<path d="M16.9851 8.39874C16.1375 8.89078 15.3288 9.44128 14.5493 10.0307" stroke="#231D36" stroke-width="1.7" stroke-linecap="round" stroke-linejoin="round"/>
<path d="M4.93738 31.9094C5.20045 34.4622 5.85325 36.8956 6.8422 39.1536" stroke="#231D36" stroke-width="1.7" stroke-linecap="round" stroke-linejoin="round"/>
<path d="M17.3406 41.185C10.6908 34.5352 10.6883 23.7518 17.3406 17.0995C23.1671 11.273 32.1626 10.552 38.7759 14.9341" stroke="#231D36" stroke-width="1.7" stroke-linecap="round" stroke-linejoin="round"/>
<path d="M43.594 19.7498C45.4428 22.5412 46.3782 25.7565 46.4074 28.9791" stroke="#231D36" stroke-width="1.7" stroke-linecap="round" stroke-linejoin="round"/>
<path d="M33.78 45.5819C34.9736 45.2628 36.1428 44.8268 37.2608 44.2446" stroke="#231D36" stroke-width="1.7" stroke-linecap="round" stroke-linejoin="round"/>
<path d="M24.9868 45.5817C25.6494 45.757 26.3217 45.8837 26.9988 45.9787" stroke="#231D36" stroke-width="1.7" stroke-linecap="round" stroke-linejoin="round"/>
<path d="M42.5637 39.9135C43.6964 38.5226 44.5757 36.9954 45.2042 35.3901" stroke="#231D36" stroke-width="1.7" stroke-linecap="round" stroke-linejoin="round"/>
<path fill-rule="evenodd" clip-rule="evenodd" d="M29.1631 22.6897L35.9493 29.4759L29.1631 36.262L22.3769 29.4759L29.1631 22.6897Z" stroke="#231D36" stroke-width="1.7" stroke-linecap="round" stroke-linejoin="round"/>
</svg>
