<svg width="59" height="60" viewBox="0 0 59 60" fill="none" xmlns="http://www.w3.org/2000/svg">
<path d="M51.4323 27.3416V39.5261C51.4323 46.2555 45.9771 51.7107 39.2477 51.7107H19.7524C13.0231 51.7107 7.56787 46.2555 7.56787 39.5261V37.0892" stroke="#231D36" stroke-width="1.7" stroke-linecap="round" stroke-linejoin="round"/>
<path d="M31.937 7.84619H19.7524C13.0231 7.84619 7.56787 13.3014 7.56787 20.0308V22.4677" stroke="#231D36" stroke-width="1.7" stroke-linecap="round" stroke-linejoin="round"/>
<path d="M44.1216 29.7784H35.0246L30.8014 39.5261L22.3502 20.0308L17.8029 29.7784H7.56787" stroke="#231D36" stroke-width="1.7" stroke-linecap="round" stroke-linejoin="round"/>
<path fill-rule="evenodd" clip-rule="evenodd" d="M46.5974 9.14997C47.3565 8.30332 48.4457 7.82767 49.5826 7.84623C51.9633 7.90691 53.8634 9.85122 53.8692 12.2327C53.8692 16.6459 48.0352 20.0308 46.5974 20.0308C45.1597 20.0308 39.3257 16.6459 39.3257 12.2327C39.3251 9.84859 41.2288 7.90053 43.6122 7.84623C44.749 7.82864 45.8377 8.30412 46.5974 9.14997Z" stroke="#231D36" stroke-width="1.7" stroke-linecap="round" stroke-linejoin="round"/>
</svg>
