<svg width="59" height="60" viewBox="0 0 59 60" fill="none" xmlns="http://www.w3.org/2000/svg">
<path d="M17.3206 49.833C24.6697 54.756 34.3304 54.756 41.6795 49.833" stroke="#231D36" stroke-width="1.7" stroke-linecap="round" stroke-linejoin="round"/>
<path d="M19.8052 11.9475C11.8691 15.8498 7.03867 24.2171 7.62572 33.0424" stroke="#231D36" stroke-width="1.7" stroke-linecap="round" stroke-linejoin="round"/>
<path d="M39.1949 11.9475C47.1311 15.8498 51.9615 24.2171 51.3744 33.0424" stroke="#231D36" stroke-width="1.7" stroke-linecap="round" stroke-linejoin="round"/>
<path d="M13.0983 39.9855C14.5253 41.4124 14.5253 43.7259 13.0983 45.1528C11.6714 46.5797 9.35795 46.5797 7.93103 45.1528C6.50411 43.7259 6.50411 41.4124 7.93103 39.9855C9.35794 38.5586 11.6714 38.5586 13.0983 39.9855" stroke="#231D36" stroke-width="1.7" stroke-linecap="round" stroke-linejoin="round"/>
<path d="M51.0546 39.9855C52.4816 41.4124 52.4816 43.7259 51.0546 45.1528C49.6277 46.5797 47.3143 46.5797 45.8873 45.1528C44.4604 43.7259 44.4604 41.4124 45.8873 39.9855C47.3142 38.5586 49.6277 38.5586 51.0546 39.9855" stroke="#231D36" stroke-width="1.7" stroke-linecap="round" stroke-linejoin="round"/>
<path fill-rule="evenodd" clip-rule="evenodd" d="M38.9246 33.6343L31.8775 22.1807C30.7838 20.4049 28.2017 20.4049 27.1105 22.1807L20.0634 33.6343C18.9161 35.5002 20.2583 37.8995 22.4482 37.8995H36.5423C38.7297 37.8995 40.0719 35.5002 38.9246 33.6343V33.6343Z" stroke="#231D36" stroke-width="1.7" stroke-linecap="round" stroke-linejoin="round"/>
<path d="M32.0765 7.10095C33.5034 8.52786 33.5034 10.8413 32.0765 12.2683C30.6496 13.6952 28.3361 13.6952 26.9092 12.2683C25.4823 10.8414 25.4823 8.52787 26.9092 7.10095C28.3361 5.67403 30.6496 5.67403 32.0765 7.10095" stroke="#231D36" stroke-width="1.7" stroke-linecap="round" stroke-linejoin="round"/>
</svg>
