<svg width="58" height="58" viewBox="0 0 58 58" fill="none" xmlns="http://www.w3.org/2000/svg">
<path d="M48.3333 29V48.3333" stroke="#323232" stroke-width="1.7" stroke-linecap="round" stroke-linejoin="round"/>
<path d="M35.5247 35.4526V48.3335" stroke="#323232" stroke-width="1.7" stroke-linecap="round" stroke-linejoin="round"/>
<path d="M9.66536 41.0835V48.3335" stroke="#323232" stroke-width="1.7" stroke-linecap="round" stroke-linejoin="round"/>
<path d="M22.474 32.8667V48.3334" stroke="#323232" stroke-width="1.7" stroke-linecap="round" stroke-linejoin="round"/>
<path d="M38.5204 20.5624C40.172 22.214 40.172 24.8918 38.5204 26.5434C36.8688 28.195 34.1911 28.195 32.5395 26.5434C30.8879 24.8918 30.8879 22.214 32.5395 20.5624C34.1911 18.9108 36.8688 18.9108 38.5204 20.5624" stroke="#323232" stroke-width="1.7" stroke-linecap="round" stroke-linejoin="round"/>
<path d="M51.579 9.6801C53.2306 11.3317 53.2306 14.0095 51.579 15.661C49.9274 17.3126 47.2496 17.3126 45.5981 15.661C43.9465 14.0094 43.9465 11.3317 45.5981 9.6801C47.2497 8.02851 49.9274 8.02851 51.579 9.6801" stroke="#323232" stroke-width="1.7" stroke-linecap="round" stroke-linejoin="round"/>
<path d="M12.4032 22.7231C14.0548 24.3747 14.0548 27.0524 12.4032 28.704C10.7516 30.3556 8.07386 30.3556 6.42229 28.704C4.7707 27.0524 4.7707 24.3746 6.42229 22.7231C8.07388 21.0715 10.7517 21.0715 12.4032 22.7231" stroke="#323232" stroke-width="1.7" stroke-linecap="round" stroke-linejoin="round"/>
<path d="M25.4618 11.8432C27.1134 13.4948 27.1134 16.1725 25.4618 17.8241C23.8102 19.4757 21.1325 19.4757 19.4809 17.8241C17.8293 16.1725 17.8293 13.4948 19.4809 11.8432C21.1325 10.1916 23.8102 10.1916 25.4618 11.8432" stroke="#323232" stroke-width="1.7" stroke-linecap="round" stroke-linejoin="round"/>
<path d="M45.3592 15.3701L38.7617 20.856" stroke="#323232" stroke-width="1.7" stroke-linecap="round" stroke-linejoin="round"/>
<path d="M31.998 21.2185L25.9805 17.1826" stroke="#323232" stroke-width="1.7" stroke-linecap="round" stroke-linejoin="round"/>
<path d="M12.6641 23.0308L19.2374 17.5449" stroke="#323232" stroke-width="1.7" stroke-linecap="round" stroke-linejoin="round"/>
</svg>
