<svg width="58" height="58" viewBox="0 0 58 58" fill="none" xmlns="http://www.w3.org/2000/svg">
<path d="M15.707 6.04175L19.332 9.66675L15.707 13.2917" stroke="#231D36" stroke-width="2" stroke-linecap="round" stroke-linejoin="round"/>
<path d="M19.3333 9.66675H14.5C10.4956 9.66675 7.25 12.9123 7.25 16.9167" stroke="#231D36" stroke-width="2" stroke-linecap="round" stroke-linejoin="round"/>
<path d="M42.293 51.9585L38.668 48.3335L42.293 44.7085" stroke="#231D36" stroke-width="2" stroke-linecap="round" stroke-linejoin="round"/>
<path d="M38.668 48.3335H43.5013C47.5057 48.3335 50.7513 45.0879 50.7513 41.0835" stroke="#231D36" stroke-width="2" stroke-linecap="round" stroke-linejoin="round"/>
<path d="M26.582 24.1667V14.5001C26.582 11.8297 28.7449 9.66675 31.4154 9.66675H45.9154C48.5858 9.66675 50.7487 11.8297 50.7487 14.5001V29.0001C50.7487 31.6705 48.5858 33.8334 45.9154 33.8334H31.4154" stroke="#231D36" stroke-width="2" stroke-linecap="round" stroke-linejoin="round"/>
<path fill-rule="evenodd" clip-rule="evenodd" d="M26.8081 48.3334H11.8586C9.31383 48.3334 7.25 46.2696 7.25 43.7248V28.7753C7.25 26.2306 9.31383 24.1667 11.8586 24.1667H26.8081C29.3528 24.1667 31.4167 26.2306 31.4167 28.7753V43.7248C31.4167 46.2696 29.3528 48.3334 26.8081 48.3334Z" stroke="#231D36" stroke-width="2" stroke-linecap="round" stroke-linejoin="round"/>
<path d="M17.7227 31.4167L22.556 36.2501L17.7227 41.0834" stroke="#231D36" stroke-width="2" stroke-linecap="round" stroke-linejoin="round"/>
</svg>
