<svg width="58" height="58" viewBox="0 0 58 58" fill="none" xmlns="http://www.w3.org/2000/svg">
<path d="M31.2733 26.7285L14.1875 43.8143" stroke="#231D36" stroke-width="1.7" stroke-linecap="round" stroke-linejoin="round"/>
<path d="M16.0305 31.4142L7.66157 29.4373C6.74082 29.2198 6.41699 28.0768 7.08399 27.4073L13.7395 20.7518C14.1866 20.3048 14.7932 20.0486 15.4287 20.0438L22.9325 19.9785" stroke="#231D36" stroke-width="1.7" stroke-linecap="round" stroke-linejoin="round"/>
<path fill-rule="evenodd" clip-rule="evenodd" d="M48.0404 21.6896L49.9931 12.2936C50.5248 9.73675 48.2628 7.47475 45.7059 8.00641L36.3099 9.95908C33.5429 10.5342 31.0054 11.9045 29.0092 13.9031L21.3 21.6098C18.3589 24.5509 16.4449 28.3644 15.8408 32.48L15.8142 32.6564C15.4324 35.2833 16.312 37.9344 18.1874 39.8122V39.8122C20.0627 41.6875 22.7162 42.5672 25.3431 42.1829L25.5195 42.1563C29.6351 41.5546 33.4486 39.6382 36.3897 36.6971L44.0964 28.9903C46.095 26.9942 47.4653 24.4567 48.0404 21.6896V21.6896Z" stroke="#231D36" stroke-width="1.7" stroke-linecap="round" stroke-linejoin="round"/>
<path d="M32.3828 11.3921C37.9677 15.2008 42.7986 20.0317 46.6073 25.6166" stroke="#231D36" stroke-width="1.7" stroke-linecap="round" stroke-linejoin="round"/>
<path d="M26.582 41.9704L28.5589 50.3393C28.7764 51.26 29.9194 51.5839 30.5889 50.9169L37.2444 44.2614C37.6914 43.8143 37.9476 43.2077 37.9524 42.5721L38.0177 35.0684" stroke="#231D36" stroke-width="1.7" stroke-linecap="round" stroke-linejoin="round"/>
</svg>
