<svg width="66" height="67" viewBox="0 0 66 67" fill="none" xmlns="http://www.w3.org/2000/svg">
<path fill-rule="evenodd" clip-rule="evenodd" d="M32.9992 17.9484C25.6044 25.6236 25.6044 38.0014 32.9992 45.6766C40.3939 38.0041 40.3939 25.6236 32.9992 17.9484Z" stroke="#6579F4" stroke-width="2" stroke-linecap="round" stroke-linejoin="round"/>
<path fill-rule="evenodd" clip-rule="evenodd" d="M32.9983 17.9484C25.3231 17.9484 19.1328 24.1386 19.1328 31.8139C19.1328 39.4891 25.3231 45.6794 32.9983 45.6794C40.6736 45.6794 46.8638 39.4891 46.8638 31.8139C46.8638 24.1386 40.6736 17.9484 32.9983 17.9484V17.9484Z" stroke="#6579F4" stroke-width="2" stroke-linecap="round" stroke-linejoin="round"/>
<path d="M19.1406 31.8138H46.8606" stroke="#6579F4" stroke-width="2" stroke-linecap="round" stroke-linejoin="round"/>
<path fill-rule="evenodd" clip-rule="evenodd" d="M55 31.3189C55 43.3309 46.3183 54.6746 34.43 58.0379C33.5005 58.3019 32.4995 58.3019 31.57 58.0379C19.6818 54.6746 11 43.3309 11 31.3189V20.3244C11 18.0914 12.3503 16.0784 14.4183 15.2341L27.7942 9.76163C31.1327 8.39488 34.8727 8.39488 38.2085 9.76163L51.5845 15.2341C53.6498 16.0784 55 18.0914 55 20.3244V31.3189Z" stroke="#6579F4" stroke-width="2" stroke-linecap="round" stroke-linejoin="round"/>
</svg>
