<svg xmlns="http://www.w3.org/2000/svg" width="35" height="35" fill="none" xmlns:v="https://vecta.io/nano"><path d="M34.487 25.187h-7.264c-.431 0-.782.351-.782.782v.489h-2.186c-.561 0-1.032.384-1.17.902l-2.401-.673c-.181-.05-.296-.229-.269-.414l.489-3.314a1.59 1.59 0 0 0-.087-.796h4.116a1.95 1.95 0 0 0 1.949-1.948v-1.499c0-.283-.229-.513-.513-.513h-4.601c.009-.057.014-.116.014-.176V8.514c0-.188-.011-.381-.034-.572-.033-.281-.288-.482-.569-.449s-.482.288-.449.569a3.88 3.88 0 0 1 .027.452v1.773h-6.015V8.514c0-1.192.538-2.299 1.476-3.035.471-.369.741-.924.741-1.522V2.636h1.582v1.321c0 .598.27 1.153.741 1.522.314.246 1.241 2.46 1.468 2.797.158.235.477.297.712.138s.297-.477.139-.712c-.287-.426-1.287-2.718-1.686-3.03-.221-.174-.348-.434-.348-.716V2.63c.36-.042.64-.348.64-.719V.724c0-.399-.325-.724-.724-.724h-3.465c-.399 0-.724.325-.724.724v1.187c0 .371.28.677.64.719v1.326c0 .281-.127.542-.348.716-1.187.932-1.868 2.332-1.868 3.841v9.512c0 .06.006.118.014.176h-2.358v-.403a1.15 1.15 0 0 0-1.146-1.146H8.865v-2.122a3.26 3.26 0 0 0 2.74-3.212V8.58c0-.283-.229-.513-.513-.513h-5.48c-.283 0-.513.229-.513.513v2.74a3.26 3.26 0 0 0 2.74 3.212v2.122H6.479a1.15 1.15 0 0 0-1.146 1.146v.403H.513c-.283 0-.513.23-.513.513v1.499a1.95 1.95 0 0 0 1.949 1.948h3.623c-.159.51-.03 1.051.352 1.44l2.51 2.552a21.66 21.66 0 0 0 5.54 4.078c2.055 1.058 4.255 1.777 6.538 2.139l2.559.405c.119.545.604.954 1.184.954h2.185v.489c0 .431.351.782.782.782h4.523c.283 0 .513-.23.513-.513s-.23-.513-.513-.513h-4.28v-7.762h6.509v7.762h-2.229c-.283 0-.513.229-.513.513s.229.513.513.513h2.742c.283 0 .513-.23.513-.513V25.7c0-.283-.23-.513-.513-.513zM16.317 1.025h2.863v.585h-2.863v-.585zM6.125 11.32V9.092h4.454v2.227a2.23 2.23 0 0 1-2.227 2.227 2.23 2.23 0 0 1-2.227-2.227zm14.631-.008v3.241h-6.015v-3.241h6.015zm-6.015 6.714v-2.447h6.015v2.448c0 .097-.079.176-.176.176h-5.664c-.097 0-.176-.079-.176-.176zm-8.383-.227c0-.067.054-.121.121-.121h3.747c.067 0 .121.054.121.121v.402H6.358v-.402zm-5.333 2.414v-.986h24.831v.986c0 .509-.414.923-.923.923h-9.12c-.283 0-.513.23-.513.513s.229.513.513.513h1.994l-1.765 2.774a.89.89 0 0 1-1.172.303l-5.658-3.077h6.602c.283 0 .513-.229.513-.513s-.229-.513-.513-.513H1.949c-.509 0-.923-.414-.923-.923zm13.418 9.106a20.64 20.64 0 0 1-5.279-3.885l-2.51-2.552c-.339-.344.075-.903.504-.669l7.219 3.927a1.92 1.92 0 0 0 2.528-.654l1.949-3.063c.325-.511 1.123-.216 1.035.385l-.489 3.315a1.4 1.4 0 0 0 1.007 1.551l2.636.739v3.319l-2.37-.375c-2.175-.344-4.271-1.03-6.229-2.038zm9.811 3.384c-.103 0-.186-.084-.186-.187V27.67c0-.103.084-.187.186-.187h2.186v5.22h-2.186z" fill="#3e3465"/></svg>