<svg xmlns="http://www.w3.org/2000/svg" width="39" height="19" fill="none" xmlns:v="https://vecta.io/nano"><path fill-rule="evenodd" d="M9.849.163c-.176.176-.198 11.74-.023 11.74.062 0 .113.054.113.12s-.051.088-.113.05-.113.072-.113.269c0 .187.051.371.113.409s.112.13.111.205c-.001.093-.027.097-.085.012s-.209-.089-.457-.023c-.356.095-.372.122-.339.575.027.372.078.472.232.46.272-.022.25.145-.028.218-.205.053-.226.154-.226 1.065 0 .631.051 1.056.136 1.142.1.1 1.085.136 3.73.136h3.594l.064-.311c.236-1.149.536-1.662 1.263-2.159.602-.411 1.725-.48 2.379-.147.711.363 1.239 1.058 1.419 1.869l.154.692h4.111 4.111l.124-.624c.253-1.268 1.067-2.039 2.244-2.127 1.346-.1 2.414.709 2.712 2.053l.155.697 1.793.031c1.359.024 1.816-.004 1.885-.113.114-.18.122-3.152.009-3.324-.046-.069-.198-.162-.338-.206-.252-.079-.254-.102-.254-2.142V8.667l-2.16-2.651-2.451-2.96-.291-.309-2.271-.031-2.271-.031-.032-1.24c-.021-.817-.079-1.27-.17-1.327C28.606.07 24.368.03 19.264.029 12.196.028 9.952.059 9.849.163zM27.922 6.29c0 5.705-.011 5.611.619 5.453l.283-.071.03-3.928.03-3.928 2.07-.031c1.56-.023 2.104.005 2.211.113.078.079.343.399.588.712s1.147 1.415 2.002 2.45l1.555 1.882v2.263c0 1.244.031 2.343.069 2.441s.191.179.339.179c.261 0 .271.029.271.848v.848h-.965c-.82 0-.974-.03-1.026-.198-.316-1.02-.863-1.698-1.764-2.187-.642-.348-.802-.386-1.617-.386-.762 0-1.006.05-1.551.317-.78.383-1.467 1.13-1.742 1.893l-.201.56H25.86c-3.006 0-3.266-.015-3.324-.198-.623-1.97-2.478-3.023-4.361-2.475-1.102.32-2.097 1.265-2.36 2.238l-.117.435h-2.823-2.823l-.008-.65c-.005-.358-.029-.758-.053-.889-.038-.202-.001-.23.247-.182.178.034.33-.005.391-.101.055-.086.1-2.969.101-6.406l.002-6.249h8.595 8.595V6.29zm-9.354-4.098c-.823 1.969-.91 3.692-.288 5.639.685 2.14.58 2.225-.358.289-.455-.939-.787-1.455-1.222-1.899-.553-.565-1.628-1.263-2.384-1.548l-.316-.119.078.423a8.28 8.28 0 0 0 1.113 2.619c.435.593 1.141 1.112 2.309 1.699.395.199.693.386.663.417s-.608-.127-1.284-.351-1.542-.451-1.925-.506c-.772-.109-2.074-.031-2.074.126 0 .165 1.332.974 1.902 1.155.822.261 1.353.307 2.425.209.544-.05.99-.054.99-.01s-.369.164-.82.265c-1.132.255-1.875.618-2.466 1.202l-.503.497.713.034c.903.043 1.629-.27 2.727-1.173.429-.353.823-.622.875-.599s.096.368.096.767c0 .48.048.742.141.773.105.035.141-.175.141-.811v-.858l.959.732c1.313 1.002 1.55 1.109 2.599 1.171l.901.053-.175-.264c-.38-.572-1.402-1.15-2.61-1.476l-1.165-.314 1.47.022c1.704.025 2.237-.111 3.346-.851.89-.595.78-.711-.664-.701-.973.007-1.258.061-2.507.475-.775.257-1.426.45-1.447.429s.374-.281.879-.576c1.678-.984 2.526-1.993 2.984-3.554.255-.869.242-.952-.131-.86-.543.134-1.917 1.065-2.456 1.664-.316.352-.768 1.093-1.153 1.891-.348.722-.655 1.251-.683 1.176s.062-.508.198-.961c.653-2.177.692-2.382.63-3.313-.082-1.225-.588-3.033-1.01-3.61-.133-.183-.184-.118-.496.629zm11.101 2.391c-.031.08-.042 1.11-.025 2.29l.031 2.145h3.11c2.846 0 3.11-.016 3.11-.191 0-.105-.784-1.136-1.742-2.29l-1.741-2.099h-1.344c-.988 0-1.359.038-1.399.145zm2.739.846c.135.171.733.895 1.328 1.611s1.083 1.34 1.084 1.388-1.03.073-2.29.057l-2.29-.031-.031-1.668-.031-1.668.993.001c.946.001 1.004.015 1.238.311zM2.779 8.583c-.043.043-.078.172-.078.287 0 .198.13.208 2.46.179 2.374-.03 2.46-.038 2.46-.257s-.086-.227-2.382-.257c-1.31-.017-2.417.004-2.46.047zm-1.396 3.834c-.038.098-.02.227.039.287s1.338.095 3.154.077c2.961-.029 3.046-.036 3.046-.256s-.085-.227-3.085-.256c-2.728-.027-3.093-.009-3.153.149zm8.634.072c-.036.09-.063.063-.068-.068-.005-.119.022-.186.059-.148s.042.135.009.217zm-.228 1.411c-.042.041-.075.007-.075-.075s.034-.117.075-.075.041.109 0 .151zm9.255-.02c-.062.022-.305.072-.54.111-.519.087-1.145.614-1.458 1.228-.332.652-.257 1.696.166 2.307.457.659 1.114.991 1.945.982.788-.009 1.235-.207 1.73-.772.985-1.122.665-2.901-.642-3.563-.432-.218-1.011-.36-1.202-.293zm12.851.112c-.941.298-1.598 1.206-1.598 2.207 0 .754.204 1.21.768 1.72.854.77 1.992.837 2.88.167.706-.533 1.02-1.207.95-2.045-.125-1.502-1.584-2.498-3-2.049zm-12.005.71c1.169.588 1.22 2.279.088 2.969-.803.489-1.93.128-2.358-.756-.688-1.422.853-2.925 2.27-2.213zm13.463.011c1.21.643 1.208 2.377-.004 2.985-.977.491-2.074-.006-2.375-1.074-.386-1.371 1.119-2.581 2.379-1.911zM.117 15.961c-.084.053-.134.192-.112.309.039.202.223.214 3.803.242 3.287.026 3.77.008 3.828-.143.036-.095.003-.248-.073-.341-.118-.142-.687-.168-3.716-.166-1.967.001-3.646.045-3.73.098z" fill="#3e3465"/></svg>