<svg xmlns="http://www.w3.org/2000/svg" width="28" height="35" fill="none" xmlns:v="https://vecta.io/nano"><path fill-rule="evenodd" d="M12.92-.224c-1.592.141-3.439.972-3.85 1.39-.605.311-1.484 1.175-1.793 1.762-.455.866-.52 1.174-.555 2.637-.031 1.328-.033 1.336-.224 1.614-.301.438-.428.909-.382 1.414.048.521.048.505 0 1.504-.035.721-.024.83.114 1.15.247.573.983 1.103 1.535 1.103.126 0 .154.064.226.516.161 1.013.603 1.84 1.439 2.696l.565.579v1.118c0 1.104-.002 1.119-.154 1.152-.085.018-.509.082-.942.141-1.569.215-3.421.604-4.454.938a7.66 7.66 0 0 0-1.621.769 5.6 5.6 0 0 0-1.833 2.299c-.382.94-.39 1.076-.369 5.964l.172 4.814c.212.455.698.95 1.165 1.187l.396.2h11.478H25.31l.396-.2c.467-.237.953-.731 1.165-1.187l.152-.326v-4.66l-.094-5.036c-.413-1.648-1.599-2.997-3.197-3.637-.959-.384-2.789-.805-4.726-1.088l-1.182-.181c-.152-.03-.154-.044-.154-1.149V16.14l.565-.579c.837-.856 1.278-1.683 1.439-2.696.072-.452.1-.516.226-.516.551 0 1.288-.529 1.535-1.103.138-.32.149-.43.114-1.15V8.593c.046-.505-.081-.977-.382-1.414-.191-.278-.193-.287-.224-1.614-.035-1.463-.099-1.77-.555-2.637-.34-.647-1.189-1.459-1.886-1.805-.663-.329-.842-.348-1.074-.116-.348.348-.202.631.5.968.935.45 1.635 1.31 1.902 2.338.061.234.102.701.102 1.159v.767l-.36-.093c-.563-.146-1.842-.358-2.929-.486-1.387-.163-4.264-.162-5.618.001l-2.93.485-.36.093v-.767c0-.871.101-1.346.418-1.974.243-.482.7-.956 1.311-1.379.686-.475.988-.626 1.903-.952 0 0 1.061-.356 1.747-.423.28-.027.72.001.72.001.567.001.806.033 1.124.15.542.199.75.192.926-.032.322-.409.125-.7-.646-.955-.685-.227-1.414-.211-2.317-.131zm3.688 6.92c1.395.162 2.845.439 3.186.608.373.186.682.603.734.991.046.343.036.345-.741.147-3.033-.774-6.345-.941-9.489-.478-.862.127-2.2.398-2.7.546-.443.132-.503.106-.462-.201.048-.358.281-.725.591-.93.405-.268 2.535-.648 4.406-.786 1.044-.077 3.381-.023 4.475.104zm-.343 2.156l1.525.222.908.151v1.719c0 2.426-.1 2.739-1.231 3.879-.71.715-1.159 1.012-2.102 1.389-1.17.468-1.835.477-2.971.039-1.2-.463-2.223-1.221-2.79-2.068s-.602-1.032-.602-3.133V9.234l.617-.118c.57-.109 2.001-.29 2.809-.355a41.07 41.07 0 0 1 3.837.092zM7.94 10.435c0 .974-.009.992-.41.784-.338-.175-.412-.349-.412-.977 0-.397.026-.577.086-.593.307-.086.642-.148.685-.126.028.014.051.424.051.912zm12.523-.785c.128.034.114 1.008-.018 1.263-.104.202-.414.409-.612.409-.09 0-.106-.131-.106-.879l.036-.915c.03-.03.313.02.701.123zm-9.043 7.317a9.42 9.42 0 0 0 1.008.386c1.2.39 2.344.292 3.654-.313l.536-.236c.014 0 .025.412.025.916v.916l-1.404 1.282-1.404 1.282-1.405-1.283-1.405-1.283v-.915l.037-.915c.02 0 .182.073.36.163zm.123 3.535l1.213 1.145c.008.028-.309.154-.705.279-.537.171-.81.222-1.074.203-.555-.04-.727-.218-1.411-1.463l-.598-1.088.497-.077c.9-.139.757-.208 2.079 1zm6.59-1.003l.566.081-.598 1.088c-.685 1.245-.857 1.423-1.412 1.463-.265.019-.538-.033-1.074-.203l-.719-.262c0-.018.54-.532 1.199-1.141.727-.672 1.253-1.107 1.336-1.106.075.001.392.038.703.082zm-9.567 1.486l.9 1.474c.376.434.872.669 1.487.702.476.026.608-.001 1.699-.348l1.182-.376 1.182.376c1.09.347 1.222.374 1.699.348.599-.033 1.09-.257 1.462-.669.123-.137.526-.794.895-1.461l.722-1.245c.12-.074 2.352.426 3.23.724 1.148.39 2.086 1.168 2.551 2.119.416.85.453 1.164.454 3.889l.001 2.415h-1.156l-1.37.043-.214.043-.002-1.362c-.001-1.174-.019-1.4-.127-1.636-.16-.349-.447-.636-.796-.796-.259-.119-.607-.126-6.453-.127l-6.179-.002-.142.181c-.188.239-.179.474.026.679.159.159.211.168.959.168h.791v2.28c0 2.507-.006 2.472.426 2.695.312.162.562.09 1.322-.378l.729-.418c.028 0 .349.187.712.416.74.466 1.004.542 1.319.379.431-.223.426-.188.426-2.695v-2.28h2.822c2.803 0 2.823.001 2.981.149l.159.149v2.15 2.15l-.168.168c-.12.12-.243.168-.431.168-.708 0-1.597.408-2.09.959-.322.36-.665 1.048-.718 1.439l-.037.274h-4.984-4.984l-.037-.274c-.052-.391-.396-1.079-.718-1.439-.494-.552-1.382-.959-2.09-.959-.188 0-.311-.048-.431-.168l-.168-.168v-2.14c0-2.676-.111-2.457 1.242-2.457.556 0 1.014-.032 1.114-.078.348-.158.379-.702.05-.878-.079-.042-.578-.073-1.189-.073-.99 0-1.074.011-1.401.174-.347.173-.626.49-.771.876-.042.111-.072.76-.072 1.533v1.34l-.214-.043c-.118-.024-.734-.043-1.37-.043H1.636v-2.456l.135-2.985a3.99 3.99 0 0 1 1.005-1.821c.531-.564 1.1-.902 2.012-1.195.86-.276 2.792-.725 3.014-.701.056.006.4.551.763 1.21zm11.204 2.197a.46.46 0 0 0 0 .744c.17.134.267.142 1.682.142h1.501l.168-.168c.093-.093.168-.248.168-.346s-.076-.253-.168-.346l-.168-.168h-1.501c-1.415 0-1.512.008-1.682.142zm-4.498 4.857v1.916l-.596-.374c-.777-.488-.888-.488-1.677.002l-.606.376v-1.918-1.918h1.439 1.439v1.916zM4.06 30.038c.193.088.287.293.349.756.051.382.336.804.709 1.051.193.128.413.191.826.238.884.101 1.465.495 1.756 1.192.203.486.377.454-2.436.454-2.724 0-2.827-.012-3.209-.363-.367-.337-.417-.585-.419-2.052l-.002-1.353h1.127c.692 0 1.193.03 1.297.077zm21.968 1.276c-.002 1.468-.052 1.715-.419 2.052-.382.351-.486.363-3.209.363-2.812 0-2.639.032-2.436-.454.283-.678.878-1.093 1.7-1.185.277-.031.619-.111.758-.177.468-.222.865-.825.866-1.316.001-.227.135-.477.299-.557.082-.04.654-.073 1.294-.075l1.148-.005-.002 1.353z" fill="#3e3465"/></svg>