<svg xmlns="http://www.w3.org/2000/svg" width="36" height="37" fill="none" xmlns:v="https://vecta.io/nano"><g clip-path="url(#A)" fill="#3e3465"><path d="M28.88 18.107v-3.181H5.003v14.71h11.182v-1.052h-.999v-3.501h1.567v-1.052h-1.567V20.53h4.565v-4.553h3.51v2.24h1.054v-2.24h3.51v2.129h1.054zM10.622 20.53h3.51v3.501h-3.51V20.53zm4.565-4.553h3.51v3.501h-3.51v-3.501zm-4.565 0h3.51v3.501h-3.51v-3.501zm-4.565 0h3.51v3.501h-3.51v-3.501zm0 4.553h3.51v3.501h-3.51V20.53zm3.51 8.054h-3.51v-3.501h3.51v3.501h0zm1.054 0v-3.501h3.51v3.501h-3.51zm15.691-9.105c-4.742 0-8.6 3.848-8.6 8.578a8.54 8.54 0 0 0 2.268 5.804l.776-.712a7.49 7.49 0 0 1-1.99-5.092c0-4.15 3.385-7.527 7.546-7.527s7.546 3.376 7.546 7.527-3.385 7.526-7.546 7.526a7.56 7.56 0 0 1-4.843-1.755l-.678.806a8.62 8.62 0 0 0 5.52 2.001c4.742 0 8.6-3.848 8.6-8.578s-3.858-8.578-8.6-8.578zm-.56 2.772v6.848h4.931v-1.052h-3.877V22.25h-1.054zm-23.61-9.203h2.862v-1.052H2.142V4.153h2.296v2.614h0 0H8.67h0 0V4.153h2.693v2.614h0 0 4.232V4.153h2.693v2.615h4.232 0 0V4.153h2.693v2.614h0 0 4.232 0 0V4.153h2.296v7.843H6.058v1.052h25.684v6.778h1.054V3.101h-3.35V2.038l-.977-1.31H26.19l-.977 1.31v1.063H22.52V2.038l-.977-1.31h-2.279l-.977 1.31v1.063h-2.693V2.038l-.977-1.31h-2.279l-.977 1.31v1.063H8.67V2.038L7.693.728H5.414l-.977 1.31v1.063h-3.35v29.293h15.787v-1.052H2.142V13.048zM26.72 1.78h1.22l.452.606v3.329h-2.123V2.386l.452-.606zm-7.377.606l.452-.606h1.22l.452.606v3.329h-2.123V3.101h0v-.715h0zm-6.474-.606h1.219l.452.606v.715h0v2.614h-2.123V2.386l.452-.606zm-6.925 0h1.22l.452.606v3.329H5.492V2.386l.452-.606zm14.653 8.488h-1.054V9.217h1.054v1.052zm-3.163 0H16.38V9.217h1.054v1.052zm-3.163 0h-1.054V9.217h1.054v1.052zm5.946 17.779h1.054v1.052h-1.054v-1.052zm5.576 5.094h1.054v1.052h-1.054v-1.052z"/></g><defs><clipPath id="A"><path fill="#fff" transform="translate(0 .728)" d="M0 0h36v35.907H0z"/></clipPath></defs></svg>