<svg xmlns="http://www.w3.org/2000/svg" xmlns:xlink="http://www.w3.org/1999/xlink" width="35" height="35" fill="none" xmlns:v="https://vecta.io/nano"><g fill="#3e3465"><path d="M33.359 20.781h-.547v-4.375c0-.716-.137-1.66-.79-2.096L32 14.297l-2.506-1.504-.518-4.141c-.184-1.009-1.103-2.09-2.179-2.09H2.734c-.145 0-.284.058-.387.16s-.16.242-.16.387v13.672h-.547c-.145 0-.284.058-.387.16s-.16.242-.16.387v2.188c0 .145.058.284.16.387s.242.16.387.16h3.872a3.83 3.83 0 0 0 .881 3.072 3.83 3.83 0 0 0 2.904 1.334 3.83 3.83 0 0 0 1.598-.349c.501-.23.947-.566 1.306-.984a3.83 3.83 0 0 0 .881-3.072h8.838a3.83 3.83 0 0 0 .881 3.072c.359.418.805.754 1.306.984a3.83 3.83 0 0 0 3.195 0 3.83 3.83 0 0 0 2.082-2.424 3.83 3.83 0 0 0 .105-1.632h3.872c.145 0 .284-.058.387-.16s.16-.242.16-.387v-2.187c0-.145-.058-.284-.16-.387s-.242-.16-.387-.16zM21.875 7.656h4.922c.477 0 1.005.656 1.098 1.162l.47 3.76h-6.49V7.656zm-2.187 0h1.094v5.469c0 .145.058.284.16.387s.242.16.387.16h7.505l2.589 1.554a1.08 1.08 0 0 1 .252.634h-2.689c-.145 0-.284.058-.387.16s-.16.242-.16.387v2.188c0 .145.058.284.16.387s.242.16.387.16h2.734v1.641H19.688V7.656zm12.031 9.297v1.094h-2.188v-1.094h2.188zM3.281 7.656h15.313v1.641c0 1.951-1.522 3.691-4.047 4.795a1.75 1.75 0 0 0 .213-.852 2.3 2.3 0 0 0-.691-1.606c-.244-.25-.542-.441-.872-.557s-.682-.153-1.029-.11a1.56 1.56 0 0 0-1.174.82l-.604 1.21-.608-1.216a1.6 1.6 0 0 0-.613-.628c-.259-.148-.554-.221-.852-.21a2.3 2.3 0 0 0-1.606.691c-.25.235-.442.526-.559.849s-.157.669-.117 1.01c.034.24.126.468.266.666s.326.359.541.471l1.258.668-.018.009a15.63 15.63 0 0 1-4.801-.774V7.656zm5.564 9.203c.154.15.33.277.521.375l-.555 1.109c-.038.066-.091.121-.155.162s-.136.066-.212.073c-.177.016-.355-.008-.521-.07a1.17 1.17 0 0 1-.438-.291 1.22 1.22 0 0 1-.37-.832.54.54 0 0 1 .239-.489l1.115-.558c.098.191.225.367.375.521zM7.349 13.66c-.064-.032-.118-.08-.158-.139s-.065-.127-.073-.198c-.014-.171.013-.342.077-.501s.164-.301.292-.415c.219-.227.517-.36.832-.371a.54.54 0 0 1 .492.239l.558 1.123c-.193.094-.37.218-.524.367a2.16 2.16 0 0 0-.362.497l-1.135-.603zm1.948 1.652c0-.18.044-.357.129-.516s.207-.294.357-.394.321-.162.5-.179.36.009.526.078.313.178.427.317.192.304.227.481.026.359-.026.531-.146.329-.273.456a1.12 1.12 0 0 1-1.547 0c-.102-.101-.183-.222-.238-.354s-.083-.275-.083-.419zm2.64 1.547c.144-.148.265-.315.362-.497l1.134.602a.43.43 0 0 1 .231.337c.014.171-.013.343-.077.502s-.164.301-.293.415c-.208.226-.496.361-.803.377a.47.47 0 0 1-.452-.246l-.599-1.127a2.16 2.16 0 0 0 .498-.362h-.002zm0-3.093a2.04 2.04 0 0 0-.525-.367l.558-1.117a.48.48 0 0 1 .155-.162c.064-.041.136-.066.212-.073.177-.016.355.008.521.071s.316.162.438.29c.227.219.36.517.371.832.007.095-.012.191-.053.277a.54.54 0 0 1-.185.213l-1.116.558a2.16 2.16 0 0 0-.373-.521h-.002zm-8.656 1.929a16.43 16.43 0 0 0 3.124.611c-.251.304-.386.686-.383 1.08a2.36 2.36 0 0 0 2.3 2.297c.098 0 .195-.007.292-.022a1.56 1.56 0 0 0 1.173-.82l.618-1.236.662 1.247c.134.26.339.477.591.625s.541.221.834.212a2.27 2.27 0 0 0 1.578-.696c.25-.235.442-.526.56-.849s.158-.669.117-1.01c-.034-.24-.126-.468-.266-.666s-.326-.359-.541-.471l-.592-.314c2.347-.697 4.171-1.845 5.246-3.272v8.372H3.281v-5.086zm-1.094 7.274v-1.094h4.436c-.322.316-.586.686-.78 1.094H2.188zm7.109 4.375c-.541 0-1.069-.16-1.519-.461s-.8-.727-1.007-1.227-.261-1.049-.156-1.58.366-1.018.748-1.4.87-.643 1.4-.748 1.08-.051 1.58.156.927.557 1.227 1.007.461.978.461 1.519c-.001.725-.289 1.42-.802 1.932a2.74 2.74 0 0 1-1.933.802zm3.454-4.375c-.194-.408-.458-.778-.78-1.094H23.03c-.322.316-.586.686-.78 1.094H12.75zm12.953 4.375c-.541 0-1.069-.16-1.519-.461s-.8-.727-1.007-1.227-.261-1.049-.156-1.58.366-1.018.748-1.4.87-.643 1.4-.748 1.08-.051 1.58.156.927.557 1.227 1.007.461.978.461 1.519a2.74 2.74 0 0 1-2.734 2.734zm7.109-4.375h-3.656c-.194-.408-.458-.778-.78-1.094h4.436v1.094z"/><path d="M22.969 14.766h-2.188v1.094h2.188v-1.094z"/><use xlink:href="#B"/><use xlink:href="#B" x="16.406"/><path d="M26.797 8.75h-3.828v1.094h3.828V8.75z"/></g><defs ><path id="B" d="M9.297 22.969a1.64 1.64 0 0 0-1.516 1.013 1.64 1.64 0 0 0 .356 1.788 1.64 1.64 0 0 0 1.788.356 1.64 1.64 0 0 0 1.013-1.516 1.64 1.64 0 0 0-1.641-1.641zm0 2.188c-.108 0-.214-.032-.304-.092s-.16-.145-.201-.245-.052-.21-.031-.316.073-.204.15-.28.174-.129.28-.15.216-.01.316.031.185.111.245.201.092.196.092.304c0 .145-.058.284-.16.387s-.242.16-.387.16z"/></defs></svg>