<svg xmlns="http://www.w3.org/2000/svg" width="31" height="35" fill="none" xmlns:v="https://vecta.io/nano"><path d="M20.425 20.808v6.811 4.877c0 .69-.281 1.316-.734 1.769S18.611 35 17.921 35H3.456c-.69 0-1.316-.281-1.769-.734s-.734-1.079-.734-1.769v-4.877-10.704c0-.283.231-.514.514-.514s.512.231.512.514v10.193H19.4v-6.3h-2.124l-3.234 3.234a.51.51 0 0 1-.725 0c-.101-.099-.151-.231-.151-.362v-2.872h-.151c-.434 0-.829-.176-1.114-.463s-.463-.68-.463-1.114V8.241a1.57 1.57 0 0 1 .463-1.116c.285-.287.68-.463 1.114-.463H19.4V5.24H1.977v11.675a.51.51 0 0 1-.512.514c-.283 0-.514-.229-.514-.514V2.504c0-.69.281-1.316.734-1.769S2.766 0 3.456 0h14.465c.69 0 1.316.281 1.769.734s.734 1.079.734 1.769v4.158h8.044c.434 0 .829.176 1.114.463s.465.68.465 1.116v10.989a1.57 1.57 0 0 1-.465 1.114c-.285.287-.68.463-1.114.463h-8.044zm-6.745 4.329c.283 0 .512.23.512.514a.51.51 0 0 1-.512.511h-8.02a2.41 2.41 0 0 1-1.707-.709 2.41 2.41 0 0 1 0-3.416 2.41 2.41 0 0 1 1.707-.709h2.277c.382 0 .729-.157.982-.409s.409-.601.409-.982-.157-.73-.409-.984-.601-.409-.982-.409H6.69a.51.51 0 1 1 0-1.025h1.246a2.41 2.41 0 0 1 2.416 2.418 2.41 2.41 0 0 1-2.416 2.416H5.659a1.39 1.39 0 0 0-.982.409c-.252.254-.409.601-.409.984a1.39 1.39 0 0 0 1.391 1.391h8.02zM6.69 8.685a1.72 1.72 0 0 1 1.725 1.725c0 .477-.194.907-.506 1.219s-.742.504-1.219.504a1.72 1.72 0 0 1-1.219-.504c-.312-.312-.504-.742-.504-1.219s.192-.907.504-1.219a1.72 1.72 0 0 1 1.219-.506zm.494 1.23c-.126-.126-.3-.203-.494-.203s-.366.078-.492.203a.69.69 0 0 0-.205.494c0 .192.078.368.205.494s.3.203.492.203.368-.078.494-.203a.7.7 0 0 0 .205-.494c0-.194-.079-.368-.205-.494zM6.69 6.662c1.035 0 1.973.419 2.651 1.097s1.097 1.616 1.097 2.651c0 1.957-2.133 4.443-3.356 5.887a.51.51 0 0 1-.787-.006c-1.221-1.444-3.352-3.926-3.352-5.881a3.74 3.74 0 0 1 1.099-2.651c.678-.678 1.614-1.097 2.649-1.097zm1.926 1.823a2.71 2.71 0 0 0-1.926-.798c-.752 0-1.432.304-1.924.798a2.71 2.71 0 0 0-.796 1.924c0 1.42 1.606 3.438 2.721 4.765 1.116-1.327 2.723-3.345 2.723-4.765a2.71 2.71 0 0 0-.796-1.924zM20.229 9.97v-.572c0-.283.229-.514.514-.514s.512.231.512.514v.572c1.366.122 2.595.727 3.509 1.643a5.67 5.67 0 0 1 1.643 3.509h.273c.285 0 .514.231.514.514a.51.51 0 0 1-.514.512h-.298a2.71 2.71 0 0 1-.742 1.393c-.488.488-1.163.791-1.905.791h-5.984c-.742 0-1.417-.302-1.905-.791a2.7 2.7 0 0 1-.744-1.393h-.298c-.283 0-.514-.229-.514-.512s.231-.514.514-.514h.273a5.81 5.81 0 0 1 .31-1.407 5.74 5.74 0 0 1 .963-1.694c.18-.217.502-.248.719-.07a.51.51 0 0 1 .07.719 4.67 4.67 0 0 0-.789 1.389 4.56 4.56 0 0 0-.244 1.062h9.272c-.118-1.083-.608-2.054-1.339-2.784a4.65 4.65 0 0 0-3.296-1.366c-.347 0-.684.037-1.006.108-.333.074-.651.182-.951.32-.258.118-.562.006-.68-.25a.51.51 0 0 1 .252-.678 5.66 5.66 0 0 1 1.163-.393c.233-.05.469-.087.709-.109zm4.686 6.846c.184-.186.327-.415.409-.668H16.16a1.69 1.69 0 0 0 .411.668c.302.302.721.49 1.18.49h5.984c.457 0 .876-.188 1.18-.49zm3.554-9.129H13.015a.55.55 0 0 0-.552.554V19.23a.55.55 0 0 0 .552.552h.665c.283 0 .512.231.512.514v2.145l2.507-2.505c.093-.095.221-.153.364-.153h11.406a.55.55 0 0 0 .552-.552V8.241a.55.55 0 0 0-.552-.554zM9.13 3.133c-.283 0-.514-.231-.514-.514s.231-.514.514-.514h3.118c.283 0 .513.231.513.514s-.231.514-.513.514H9.13zm1.56 25.964c.539 0 1.029.219 1.382.574a1.95 1.95 0 0 1 .574 1.384c0 .539-.219 1.029-.574 1.382s-.843.574-1.382.574a1.95 1.95 0 0 1-1.384-.574c-.355-.353-.574-.843-.574-1.382a1.95 1.95 0 0 1 1.957-1.957zm.657 1.298c-.168-.169-.401-.273-.657-.273a.93.93 0 0 0-.932.932c0 .256.105.488.273.657a.93.93 0 0 0 .659.273c.256 0 .488-.105.657-.273s.273-.401.273-.657a.93.93 0 0 0-.273-.659zM1.977 4.215H19.4V2.504c0-.405-.167-.775-.434-1.043a1.47 1.47 0 0 0-1.044-.436H3.456a1.47 1.47 0 0 0-1.043.436c-.269.267-.436.638-.436 1.043v1.711zm0 23.918v4.364a1.47 1.47 0 0 0 .436 1.044c.267.267.638.434 1.043.434h14.465a1.48 1.48 0 0 0 1.045-.434c.267-.267.434-.637.434-1.044v-4.364H1.977z" fill="#3e3465"/></svg>