<svg xmlns="http://www.w3.org/2000/svg" width="32" height="36" fill="none" xmlns:v="https://vecta.io/nano"><path fill-rule="evenodd" d="M2.082.344C1.125.71.486 1.826.188 3.651c-.401 2.458-.049 6.934.834 10.606l.261 1.112c0 .015-.201.007-.446-.019-.411-.043-.462-.031-.642.149L0 15.695v9.592 9.592l.185.185.185.185h15.328 15.328l.185-.185.185-.185v-9.592-9.592l-.195-.195c-.178-.178-.235-.192-.64-.155-.277.025-.577.114-.796.236a4.77 4.77 0 0 1-.371.196c-.011 0 .017-.144.061-.321s.081-.847.079-1.49c-.002-1.051-.023-1.239-.207-1.849-.641-2.125-2.167-3.219-4.026-2.886-.189.034-.321.029-.321-.013 0-.166.525-.739.834-.91.271-.15.471-.192 1.036-.217.639-.028.713-.047.849-.22.198-.252.188-.493-.031-.748-.162-.189-.238-.213-.752-.239-1.306-.066-2.472.633-3.027 1.814l-.167.355-.257-.266c-.141-.146-.505-.389-.809-.539a2.36 2.36 0 0 0-1.177-.306 3.41 3.41 0 0 0-1.783.364l-.271.138-.433-.484a6.14 6.14 0 0 0-1.727-1.324l-.358-.174v-.702c0-.583.02-.702.117-.702.064 0 .2-.083.302-.185.184-.184.185-.197.185-1.626s-.002-1.442-.185-1.626l-.185-.185h-2.648-2.648l-.185.185c-.184.184-.185.197-.185 1.626s.002 1.442.185 1.626c.102.102.238.185.302.185.097 0 .117.119.117.701v.701l-.428.21c-.778.382-1.764 1.257-2.157 1.916-.081.135-.169.245-.196.245s-.2-.382-.384-.849a34.19 34.19 0 0 0-2.432-4.735C5.664 2.017 4.565.889 3.834.534 3.23.241 2.547.166 2.082.344zm1.244 1.285c1.448.734 3.613 4.309 5.091 8.406.172.477.183.572.113 1.002-.042.261-.077 1.526-.078 2.811v2.336l-.245-.237c-.405-.392-.915-.581-1.566-.583-.757-.001-1.243.225-1.852.86-.533.557-.752.685-1.167.685-.617 0-.695-.097-1.013-1.249C.924 9.545.761 2.902 2.266 1.636c.298-.251.575-.253 1.06-.007zm12.975 1.62v.604h-1.811-1.811v-.604-.604h1.811 1.811v.604zM4.355 4.475c-.175.13-1.659 4.492-1.603 4.713.113.449.66.618.976.302.225-.225 1.66-4.486 1.583-4.701-.1-.281-.274-.408-.554-.408-.152 0-.333.042-.402.094zm11.343 1.587c0 1.16.034 1.245.581 1.449.603.225 1.173.609 1.667 1.123.258.269.469.511.469.539s-.147.226-.327.441c-1.538 1.83-2.247 4.5-1.774 6.691.066.305.057.352-.091.472-.201.162-.751.176-1.037.026-.112-.059-.4-.316-.639-.571-.607-.647-1.101-.871-1.904-.865-.787.006-1.194.198-1.849.872-.518.533-.719.67-.981.67h-.161l.026-2.962c.025-2.808.035-2.988.191-3.453.451-1.342 1.496-2.462 2.749-2.946.64-.247.665-.305.665-1.478V5.06h1.208 1.208v1.002zM22.1 9.317c.459.232.959.775 1.184 1.283.132.298.237.423.419.499.219.091.271.085.515-.061.867-.515 1.163-.62 1.744-.62.488.001.62.031.953.223 1.404.805 1.874 3.524 1.008 5.837-.121.324-.198.43-.31.43-.252 0-.538-.194-.983-.668-.234-.25-.608-.548-.83-.663-.347-.18-.495-.21-1.046-.212-.824-.003-1.213.176-1.887.87-.573.59-.712.672-1.132.672s-.543-.075-1.208-.715c-.692-.665-1.075-.833-1.887-.83-.434.002-.64.041-.882.169l-.315.166-.052-.416c-.069-.549.085-1.733.322-2.487.341-1.083.917-2.061 1.58-2.682.575-.539.665-.601 1.133-.794.597-.245 1.192-.246 1.672-.003zm-16.349.444c-.172.183-1.6 4.297-1.6 4.609 0 .423.679.687.982.381.178-.18 1.584-4.266 1.584-4.604 0-.483-.636-.738-.966-.387zm1.299 6.843c.105.04.422.307.703.594.737.75 1.018.88 1.908.88s1.165-.127 1.943-.912c.864-.871 1.287-.871 2.151 0 .779.785 1.05.912 1.943.912s1.171-.13 1.908-.88c.281-.287.598-.554.703-.594.51-.194 1.053.032 1.585.659.17.2.493.466.717.59.373.206.47.226 1.125.226s.752-.02 1.124-.226c.224-.124.56-.402.747-.619s.385-.411.442-.432c.085-.033.102 1.369.102 8.6v8.639H12.679 1.208V25.39l.126-8.547c.069.057.299.275.509.485.578.575.997.751 1.78.75.839-.002 1.187-.161 1.892-.866.297-.297.612-.569.701-.604.221-.089.603-.09.834-.002zm18.894.687a3.38 3.38 0 0 0 .714.566c.363.201.464.221 1.116.221s.752-.02 1.125-.226a3.32 3.32 0 0 0 .747-.619c.187-.216.385-.411.442-.432.085-.033.102 1.369.102 8.6v8.639h-2.415-2.415v-8.646c0-8.299.005-8.642.135-8.547.074.054.277.254.45.444z" fill="#3e3465"/></svg>