<svg xmlns="http://www.w3.org/2000/svg" width="29" height="35" fill="none" xmlns:v="https://vecta.io/nano"><path d="M1.793 21.181h1.946v6.016a1.84 1.84 0 0 0 .541 1.3 1.85 1.85 0 0 0 1.303.539h5.469v4.489a.56.56 0 0 0 .165.397c.105.105.248.164.398.164h9.562c.149 0 .292-.059.398-.164a.56.56 0 0 0 .165-.397v-7.658l3.981-4.963a12.5 12.5 0 0 0 2.5-5.264 12.48 12.48 0 0 0-.16-5.822.56.56 0 0 0-.2-.302c-.098-.076-.219-.117-.343-.117H15.563V7.387l1.358-1.354h3.147c1.043-.001 2.042-.415 2.78-1.15A3.92 3.92 0 0 0 24 2.11V.983a.56.56 0 0 0-.165-.397c-.105-.105-.249-.164-.398-.164h-3.379c-1.043.001-2.042.415-2.78 1.15s-1.152 1.733-1.153 2.773v.894L15 6.361l-1.125-1.122v-.894a3.92 3.92 0 0 0-1.153-2.773C11.984.837 10.985.423 9.942.422h-3.38c-.149 0-.292.059-.398.164A.56.56 0 0 0 6 .983V2.11a3.92 3.92 0 0 0 1.153 2.773c.737.735 1.737 1.149 2.78 1.15h3.147l1.358 1.354v2.012H4.319c-.145 0-.285.056-.39.156a.56.56 0 0 0-.173.382l-.006.126-.011.261v2.861L.544 19.098a1.41 1.41 0 0 0 .031 1.396c.126.21.304.384.518.504a1.42 1.42 0 0 0 .7.183zM17.25 4.345a2.8 2.8 0 0 1 .824-1.979c.526-.525 1.24-.82 1.984-.822h2.817v.566a2.8 2.8 0 0 1-.824 1.979c-.526.525-1.24.82-1.984.822H17.25v-.566zm-4.5.566H9.933c-.744-.001-1.458-.297-1.984-.822a2.8 2.8 0 0 1-.824-1.979v-.566h2.817c.744.001 1.458.297 1.984.822a2.8 2.8 0 0 1 .824 1.979v.566zM15 13.326c.779 0 1.54.23 2.188.662a3.93 3.93 0 0 1 1.45 1.763 3.92 3.92 0 0 1 .224 2.269c-.152.762-.527 1.462-1.078 2.011a3.94 3.94 0 0 1-2.016 1.075c-.764.152-1.556.074-2.275-.223s-1.334-.801-1.767-1.447a3.92 3.92 0 0 1-.664-2.182c.001-1.041.416-2.039 1.155-2.776s1.739-1.15 2.783-1.152zM1.536 19.631l3.263-6.039c.044-.082.068-.173.067-.266v-2.805h9.571v1.716a5.07 5.07 0 0 0-3.085 1.523 5.05 5.05 0 0 0-1.397 3.138l-1.838.917H6.795l-.96-.958-.795.793 1.125 1.122c.105.105.249.164.398.164h1.125v1.451l-.96.958.795.793 1.125-1.122a.56.56 0 0 0 .165-.397v-1.898l1.205-.601c.145.835.5 1.619 1.031 2.28L9.54 21.906a.56.56 0 0 0-.165.397v1.451l-1.523 1.519.795.793 1.29-1.287 1.29 1.287.795-.793-1.523-1.519v-1.219l1.344-1.34c.441.351.937.626 1.469.814v2.539c0 .111.033.219.095.311l1.125 1.683.936-.623-1.03-1.54V22.27c.187.021.375.033.563.033.261-.002.522-.024.78-.066l.908 1.357v3.525l-.96.958.795.793.727-.724 1.29 1.287.795-.793-1.523-1.519v-3.695c0-.111-.033-.219-.095-.311l-.796-1.191a5.07 5.07 0 0 0 1.813-1.273l1.328 1.324v1.451h1.125v-1.122h1.125v-1.122h-1.455l-1.452-1.449c.336-.59.548-1.243.624-1.918h1.488l.96.958c.105.105.249.164.398.164h1.688v-1.122h-1.455l-.96-.958c-.105-.105-.248-.164-.398-.164h-1.721a5.05 5.05 0 0 0-1.453-3.006c-.811-.809-1.874-1.32-3.014-1.449v-1.716h11.512c.189.822.286 1.664.289 2.507-.003 2.607-.893 5.136-2.523 7.174l-4.106 5.116c-.079.1-.123.223-.123.351v7.294h-8.437v-4.488a.56.56 0 0 0-.165-.397c-.105-.105-.248-.164-.398-.164H5.582a.72.72 0 0 1-.508-.21c-.135-.134-.211-.317-.211-.507V20.62a.56.56 0 0 0-.165-.397c-.105-.105-.249-.164-.398-.164H1.793a.29.29 0 0 1-.25-.141.29.29 0 0 1-.006-.287z" fill="#3e3465"/></svg>