<svg xmlns="http://www.w3.org/2000/svg" width="40" height="20" fill="none" xmlns:v="https://vecta.io/nano"><path fill-rule="evenodd" d="M8.438.089c-.13.076-.144.247-.144 1.688v1.604H6.073c-1.909 0-2.239.018-2.35.13-.158.158-.169.477-.02.601.073.06.861.099 2.33.113l2.22.022.023 1.258.023 1.258H4.302l-4.126.13c-.159.159-.169.478-.019.602.077.064 1.322.098 4.103.113l3.992.021.023 1.051.023 1.052H5.876c-2.242 0-2.433.011-2.559.151-.177.196-.173.368.014.537.133.12.434.136 2.557.136h2.406v1.896 1.896l-.309.129c-1.219.509-1.318 2.109-.165 2.667.33.16.5.175 1.937.175h1.576l.199.433c.267.579.811 1.105 1.456 1.409 1.383.65 3.101.036 3.806-1.359l.244-.483h6.429 6.429l.226.461c.29.593.956 1.204 1.573 1.444.692.269 1.558.258 2.184-.029.612-.28 1.243-.877 1.515-1.433l.217-.443h1.139c.627 0 1.244-.04 1.372-.088.285-.107.661-.455.817-.753.148-.283.15-.899.004-1.248-.138-.331-.572-.708-.889-.771l-.236-.047v-1.044c0-.672-.045-1.217-.126-1.529-.405-1.557-1.749-2.77-3.23-2.917l-.558-.055-1.752-2.474-1.964-2.742-.212-.268h-1.976-1.976V1.874c0-1.231-.024-1.541-.128-1.691L25.768 0l-8.593.002-8.737.087zm16.68 7.498v6.763h-4.433-4.433l-.409-.291c-.999-.71-2.287-.709-3.345.003l-.427.287h-1.476-1.476v-1.897-1.897h.921c.973 0 1.223-.086 1.223-.419s-.21-.405-1.202-.405h-.943V8.659 7.587h.613c.635 0 .872-.106.872-.391 0-.311-.248-.434-.879-.434h-.606V5.484 4.206h1.592c1.128 0 1.621-.029 1.691-.099.157-.157.12-.544-.061-.64-.093-.05-.793-.085-1.691-.085H9.118V2.103.825h8 8v6.763zm-9.09-5.591c-.148.111-3.94 10.002-3.94 10.277 0 .085.072.22.161.3.137.124.202.132.433.051.982-.342 9.941-3.759 10.024-3.823.182-.14.112-.475-.263-1.266-1.13-2.385-2.827-4.112-5.092-5.182-.935-.441-1.138-.496-1.323-.357zm1.325 1.302c1.805.932 3.217 2.38 4.173 4.279.169.334.275.64.236.678s-.217.121-.398.183l-.328.113-.444-.667c-1.102-1.656-2.519-3.043-4.01-3.925l-.359-.217c-.041-.03.239-.857.29-.857.023 0 .4.185.839.412zM.857 3.484c-.197.159-.233.356-.099.547.111.158.2.174.967.174.89 0 1.043-.055 1.043-.375 0-.346-.24-.45-1.042-.45-.469 0-.787.038-.868.103zm30.372 3.072l1.637 2.309-2.286.022c-1.257.012-2.332.004-2.388-.017-.075-.029-.108-.456-.125-1.628l-.022-1.589-.224-.079c-.178-.062-.259-.047-.392.073-.159.143-.167.247-.167 1.967 0 1.574.018 1.836.136 1.967.128.142.349.151 3.573.151 3.794 0 3.925.015 4.672.516.219.147.529.442.69.656.49.651.597 1.039.64 2.312l.039 1.134h-1.073-1.073l-.427-.287c-1.059-.713-2.283-.715-3.351-.006l-.442.294h-2.311-2.31V9.276 4.203l1.784.022 1.784.022 1.637 2.309zM16.806 5.13l.271.223-.165.313c-.222.422-.773.709-1.262.658-.195-.02-.37-.052-.389-.071-.031-.031.492-1.494.59-1.653.047-.075.575.218.955.53zm1.331 1.114c.488.441 1.049 1.099 1.53 1.795.558.808.564.831.25.94-.305.106-.408.065-.408-.162s-.273-.737-.508-.957c-.41-.382-1.171-.547-1.662-.36-.329.125-.813.598-.974.953a1.79 1.79 0 0 0 .014 1.436c.09.199.155.368.142.375-.127.07-.5.211-.511.193a13.29 13.29 0 0 1-.169-.38c-.154-.354-.954-1.17-1.147-1.17-.056 0-.168-.049-.251-.109-.142-.104-.134-.15.159-.939l.308-.83.3.083c.413.114 1.153.033 1.549-.169.329-.168.937-.766.937-.923 0-.14.091-.094.442.224zm.128 2.123c.242.125.395.414.436.824.023.231-.005.255-.553.469-.75.294-.822.29-.98-.044-.176-.371-.168-.611.033-.939.252-.413.644-.527 1.064-.31zm-3.642 1.502c.273.205.515.581.515.801 0 .078-.31.241-.87.458-.478.185-.904.336-.946.336-.069 0 .195-.8.527-1.595.112-.269.158-.306.319-.258.103.031.308.147.455.258zm.153 4.603c.497.148 1.046.599 1.29 1.062.281.533.257 1.364-.056 1.93-.399.721-1.025 1.093-1.839 1.092-1.423-.002-2.392-1.325-2.001-2.731.099-.356.657-1.014 1.018-1.201.573-.296.972-.335 1.588-.152zm18.903.12c1.548.798 1.546 2.98-.004 3.752-1.466.73-3.199-.476-3.008-2.093.17-1.437 1.752-2.308 3.011-1.659zm-22.244.748c-.067.254-.172.708-.215.928l-.044.227H9.746c-1.322 0-1.447-.013-1.648-.171-.381-.299-.271-.916.195-1.091.068-.026.81-.04 1.649-.031 1.311.013 1.521.032 1.493.139zm2.357-.046c-.799.287-1.107 1.091-.694 1.811.582 1.015 2.132.719 2.328-.444.045-.264.016-.417-.136-.723-.297-.597-.903-.857-1.498-.643zm16.272-.098a10.35 10.35 0 0 1-.124.425c-.067.223-.123.51-.123.639v.234h-6.35-6.35v-.234c0-.129-.055-.416-.123-.639l-.124-.425c-.001-.011 2.968-.021 6.597-.021l6.597.021zm2.284.098c-.423.152-.602.328-.764.754-.405 1.06.706 2.045 1.75 1.55.421-.2.722-.758.668-1.24-.092-.814-.901-1.335-1.654-1.064zm5.459-.027c.461.161.571.676.218 1.028-.2.2-.232.204-1.257.182l-1.052-.023-.063-.439c-.035-.241-.099-.505-.142-.587s-.056-.172-.027-.201c.09-.09 2.048-.057 2.323.039zm-23.333.935c.175.211.072.57-.19.661-.202.071-.257.055-.392-.111-.19-.235-.197-.37-.027-.54.162-.162.479-.168.609-.011zm18.602.046c.124.137.133.201.055.373-.12.263-.299.333-.555.216-.144-.066-.201-.158-.201-.324 0-.429.412-.585.701-.265z" fill="#3e3465"/></svg>