<svg xmlns="http://www.w3.org/2000/svg" width="37" height="32" fill="none" xmlns:v="https://vecta.io/nano"><path d="M36.392 15.424c-.285-.286-.637-.483-1.022-.578a2.04 2.04 0 0 0 .328-1.193c-.041-1.118-1.03-2.028-2.206-2.028H29.2l-.004-6.242c0-1.353-1.134-2.455-2.529-2.455s-2.529 1.101-2.529 2.455v1.652c0 .424-.092.833-.262 1.206-3.183-.116-5.736-2.664-5.736-5.78v-.76c0-.484-.405-.877-.903-.877H7.913c-.498 0-.903.393-.903.877v.596c0 3.19-2.674 5.786-5.962 5.786H.903c-.498 0-.903.393-.903.877v10.52c0 6.729 5.641 12.203 12.574 12.203 4.918 0 9.362-2.769 11.417-7.083h7.556c.493 0 .975-.197 1.323-.541.342-.338.526-.781.517-1.246-.005-.237-.058-.462-.152-.668h.258c1.175 0 2.165-.91 2.206-2.028a2.04 2.04 0 0 0-.334-1.201c.909-.237 1.601-1.024 1.635-1.955.021-.577-.194-1.123-.606-1.537zM12.574 30.631c-6.336 0-11.49-5.002-11.49-11.151V9.135c3.868-.019 7.01-3.079 7.01-6.838v-.421h8.961v.584c0 3.453 2.651 6.316 6.082 6.774a3.09 3.09 0 0 1-.423.315l-2.961 1.828a1.66 1.66 0 0 1-.873.247h-.667c-.202-.648-.823-1.122-1.557-1.122h-3.035c-.707 0-1.309.44-1.533 1.052H9.431c-.777 0-1.409.614-1.409 1.368v9.047c0 .754.632 1.368 1.409 1.368h2.565v5.175c-4.869-.273-8.744-4.204-8.744-8.997v-8.715c3.723-.263 6.69-3.212 6.847-6.854h1.898v4.629c0 .291.243.526.542.526s.542-.235.542-.526V3.419c0-.291-.243-.526-.542-.526H9.563c-.299 0-.542.235-.542.526v.222c0 3.377-2.831 6.125-6.311 6.125-.299 0-.542.235-.542.526v9.222c0 5.549 4.652 10.064 10.37 10.064.299 0 .542-.235.542-.526v-4.718a1.52 1.52 0 0 0 .397.054h3.18a1.64 1.64 0 0 0 1.3-.632l.578.318a4.26 4.26 0 0 0 2.049.525h2.2c-1.964 3.689-5.886 6.031-10.21 6.031zm-.578-8.346H9.431c-.179 0-.325-.142-.325-.316v-9.047c0-.174.146-.316.325-.316h2.565v9.678zm22.797-4.348h-4.225c-.299 0-.542.235-.542.526s.243.526.542.526h2.963a1.09 1.09 0 0 1 .78.322c.206.207.314.48.303.769-.02.559-.524 1.013-1.122 1.013H31.58c-.012 0-.024.001-.036.002s-.024-.002-.036-.002h-.939c-.299 0-.542.235-.542.526s.243.526.542.526h.939c.012 0 .024-.001.036-.002s.024.002.036.002c.391 0 .715.308.723.688a.67.67 0 0 1-.207.489c-.145.143-.345.226-.549.226H20.585a3.15 3.15 0 0 1-1.515-.388l-.787-.433v-1.19c0-.29-.243-.526-.542-.526s-.542.236-.542.526v1.274c0 .29-.243.526-.542.526h-3.18c-.219 0-.397-.173-.397-.386v-10.87c0-.29.243-.526.542-.526h3.035c.299 0 .542.236.542.526v7.001c0 .291.243.526.542.526s.542-.235.542-.526v-6.405h.597c.516 0 1.019-.142 1.455-.411l2.961-1.829c1.205-.744 1.924-2.016 1.924-3.402V5.383c0-.773.648-1.403 1.445-1.403s1.445.629 1.445 1.403l.004 6.417c0 .483.406.876.903.876h4.473c.598 0 1.102.454 1.122 1.013a1.03 1.03 0 0 1-.303.769 1.09 1.09 0 0 1-.78.322h-2.963c-.299 0-.542.235-.542.526s.243.526.542.526h4.264c.297 0 .574.114.78.322s.314.481.303.769c-.02.559-.524 1.013-1.122 1.013z" fill="#3e3465"/></svg>