<svg xmlns="http://www.w3.org/2000/svg" width="33" height="29" fill="none" xmlns:v="https://vecta.io/nano"><path d="M32.906 13.406v-1.094c-.001-.435-.175-.851-.482-1.159s-.724-.481-1.159-.482H29.1l-1.132-3.97-.339-1.351a1.64 1.64 0 0 0-1.591-1.241h-4.616V1.922c-.001-.29-.116-.568-.321-.772s-.483-.32-.773-.321h-7.656c-.29.001-.568.116-.773.321s-.32.483-.321.772v2.188H6.963a1.64 1.64 0 0 0-1.591 1.241l-.334 1.345L3.9 10.672H1.734c-.435.001-.851.174-1.159.482s-.481.724-.482 1.159v1.094c.001.277.072.549.207.791s.329.446.564.592a2.72 2.72 0 0 0-.771 1.898v6.563c.001.229.05.456.144.665s.231.396.403.549v2.067c.001.435.175.851.482 1.159s.724.481 1.159.482h4.375c.435-.001.851-.175 1.159-.482s.481-.724.482-1.159v-1.641h16.406v1.641c.001.435.175.851.482 1.159s.724.481 1.159.482h4.375c.435-.001.851-.175 1.159-.482s.481-.724.482-1.159v-2.067c.171-.153.309-.34.403-.549s.143-.436.144-.665v-6.562a2.72 2.72 0 0 0-.771-1.898c.235-.146.429-.35.564-.592s.206-.514.207-.791zM12.672 1.922h7.656v2.188h-7.656V1.922zm-6.24 3.697c.029-.119.097-.224.194-.299s.215-.116.337-.116h19.075c.122 0 .241.041.337.116s.164.181.194.299l.169.678H6.263l.17-.678zm-.459 1.772h21.055l1.87 6.562H13.17c-.128-.764-.524-1.458-1.115-1.959s-1.342-.775-2.117-.775-1.525.275-2.117.775-.987 1.194-1.115 1.959H4.102l1.87-6.562zm6.076 6.562H7.827a2.18 2.18 0 0 1 2.111-1.641 2.18 2.18 0 0 1 2.111 1.641zM1.188 12.313c0-.145.058-.284.16-.387s.242-.16.387-.16h1.854l-.623 2.188h-1.23c-.145 0-.284-.058-.387-.16s-.16-.242-.16-.387v-1.094zm6.016 14.219c0 .145-.058.284-.16.387s-.242.16-.387.16H2.281c-.145 0-.284-.058-.387-.16s-.16-.242-.16-.387v-1.641h5.469v1.641zm24.062 0c0 .145-.058.284-.16.387s-.242.16-.387.16h-4.375c-.145 0-.284-.058-.387-.16s-.16-.242-.16-.387v-1.641h5.469v1.641zm.547-3.281c0 .145-.058.284-.16.387s-.242.16-.387.16H1.734c-.145 0-.284-.058-.387-.16s-.16-.242-.16-.387v-.547h30.625v.547zm0-1.641H1.188v-4.922c.001-.435.175-.851.482-1.159s.724-.481 1.159-.482h27.344c.435.001.851.174 1.159.482s.481.724.482 1.159v4.922zm0-8.203c0 .145-.058.284-.16.387s-.242.16-.387.16h-1.23l-.623-2.187h1.854c.145 0 .284.058.387.16s.16.242.16.387v1.094z" fill="#3e3465"/></svg>