<svg xmlns="http://www.w3.org/2000/svg" width="36" height="36" fill="none" xmlns:v="https://vecta.io/nano"><g clip-path="url(#A)"><path d="M36 15.368h-1.305l-1.945.992c-.219-.117-.447-.216-.692-.276l-2.446-.593v-.27c1.082-.732 1.742-1.942 1.742-3.231v-.984c0-2.187-1.767-4.018-3.94-4.082-.11-.003-.219.001-.328.006l.634-1.44-3.075-2.981-1.812 1.144c-.689-.376-1.417-.669-2.174-.874L20.213.728h-4.425L15.34 2.78a9.98 9.98 0 0 0-2.173.874L11.354 2.51 8.282 5.489l.623 1.441-.07-.006c-1.112-.031-2.159.362-2.955 1.111s-1.235 1.753-1.235 2.828v1.126c0 1.289.66 2.498 1.742 3.231v.27l-1.596.387-2.892-1.636H0v11.667l5.712 1.846h1.113l.139-.472 1.751 1.019c.029.923.792 1.666 1.743 1.699.034.918.795 1.657 1.742 1.689.033.919.795 1.657 1.742 1.689.035.94.828 1.696 1.806 1.696a1.87 1.87 0 0 0 1.018-.305l.514.44a1.8 1.8 0 0 0 1.168.428h.108c.966 0 1.752-.757 1.765-1.691.956-.012 1.73-.762 1.742-1.689.956-.012 1.731-.764 1.742-1.691.965-.022 1.744-.787 1.744-1.728a1.59 1.59 0 0 0-.009-.169L36 23.599v-8.231zm-5.806-4.363v.984c0 .999-.557 1.933-1.453 2.436l-.29.163.002 1.782 2.901.703-6.385 3.259v-1.517c0-.757-.315-1.45-.832-1.962l1.993-.483v-1.783l-.29-.162c-.896-.502-1.452-1.436-1.452-2.435v-1.126a2.75 2.75 0 0 1 .882-2.021c.568-.534 1.323-.823 2.111-.793 1.551.045 2.813 1.371 2.813 2.956zM18.876 19.89l-2.628-.815c-1.198-.372-2.494-.428-3.721-.164l-.333.072v-.167c0-.776.543-1.451 1.319-1.639l3.326-.806v-1.783l-.29-.162c-.896-.502-1.452-1.436-1.452-2.435v-1.126a2.75 2.75 0 0 1 .882-2.021 2.92 2.92 0 0 1 2.111-.793c1.551.045 2.813 1.371 2.813 2.956v.984c0 .999-.557 1.933-1.453 2.436l-.29.163.002 1.782 3.325.806c.776.189 1.319.863 1.319 1.639v2.11l-.143.073h-.356l-3.57-.989c-.281-.077-.571-.109-.862-.12zM12.324 9.156c1.09-2.049 3.285-3.36 5.676-3.36 2.369 0 4.554 1.293 5.653 3.314a3.82 3.82 0 0 0-.427 1.753v1.126c0 1.289.66 2.498 1.742 3.231v.27l-2.323.564-2.323-.564v-.27c1.082-.732 1.742-1.942 1.742-3.231v-.984c0-2.187-1.767-4.018-3.94-4.082-1.111-.032-2.159.362-2.955 1.111s-1.234 1.753-1.234 2.829v1.126c0 1.289.66 2.498 1.742 3.231v.27l-2.323.564-2.323-.564v-.27c1.082-.732 1.742-1.942 1.742-3.231v-.984c0-.663-.164-1.292-.45-1.85zM9.653 5.75l1.855-1.799 1.633 1.03.312-.186c.783-.465 1.629-.806 2.514-1.011l.357-.083.404-1.847h2.543l.403 1.847.357.083c.885.206 1.731.546 2.514 1.011l.313.186 1.633-1.03 1.853 1.797-.659 1.495a4.07 4.07 0 0 0-1.226.79l-.068.07C23.024 5.995 20.606 4.67 18 4.67c-2.624 0-5.05 1.337-6.414 3.467-.365-.371-.8-.671-1.281-.881L9.653 5.75zm-2.105 10.62v-1.783l-.29-.162c-.896-.502-1.452-1.436-1.452-2.435v-1.126a2.75 2.75 0 0 1 .882-2.021c.568-.534 1.324-.823 2.111-.793 1.551.045 2.813 1.371 2.813 2.956v.984c0 .999-.557 1.933-1.453 2.436l-.29.163.002 1.782 1.992.483c-.516.512-.832 1.205-.832 1.962v.417l-1.811.39.047-.16.022-1.041-3.062-1.732 1.32-.32zm-6.387-1.003h.423l4.176 2.362-2.107 8.173-2.492-.806v-9.729zm4.739 11.261l-1.143-.369 2.047-7.939 1.324.749v.161l-2.18 7.399h-.049zm3.97 1.621c0-.166.069-.329.191-.447l1.021-.99c.121-.118.289-.185.46-.185.359 0 .651.283.651.631 0 .166-.069.329-.191.447l-1.021.99c-.121.118-.289.185-.46.185-.359 0-.651-.283-.651-.631zm1.742 1.689c0-.166.069-.329.191-.447l1.021-.99c.121-.118.289-.185.46-.185.359 0 .651.283.651.631 0 .166-.069.329-.191.447l-1.021.99c-.121.118-.289.185-.46.185-.359 0-.651-.283-.651-.631zm1.742 1.689c0-.166.069-.329.191-.446l1.021-.99c.121-.118.289-.185.46-.185.359 0 .651.283.651.631 0 .166-.069.329-.191.447l-1.021.99c-.121.118-.289.185-.46.185-.359 0-.651-.283-.651-.631zm2.393 2.32c-.359 0-.651-.283-.651-.631 0-.166.069-.329.191-.447l1.021-.99c.121-.118.289-.185.46-.185.359 0 .651.283.651.631 0 .166-.069.329-.191.447l-1.021.99c-.121.118-.289.185-.461.185zm2.808.563h-.108c-.148 0-.29-.052-.4-.147l-.434-.371.436-.423a1.75 1.75 0 0 0 .366-.523l.528.426a.58.58 0 0 1 .218.451c0 .324-.272.587-.606.587zm5.207-5.068h-.1c-.146 0-.288-.05-.4-.141l-3.149-2.544-.744.866 3.058 2.471a.58.58 0 0 1 .217.451c0 .324-.272.587-.606.587h-.127c-.141 0-.279-.048-.387-.136l-3.154-2.548-.744.865 3.058 2.471c.138.111.218.275.218.45 0 .324-.272.587-.606.587-.223 0-.44-.077-.611-.215l-1.296-1.047a1.81 1.81 0 0 0-1.559-.984c-.033-.919-.795-1.657-1.742-1.689-.034-.919-.795-1.657-1.742-1.689-.034-.94-.828-1.695-1.805-1.695-.477 0-.944.188-1.281.515l-1.021.99c-.061.059-.111.126-.163.193l-1.784-1.038 1.564-5.307 3.92-.845a6.16 6.16 0 0 1 3.115.137l.855.265-2.9 1.406c-.662.322-1.074.968-1.074 1.687v.111c0 1.04.873 1.886 1.945 1.886.352 0 .699-.093 1.001-.269l2.162-1.257a1.23 1.23 0 0 1 1.392.13l4.906 4.282a.6.6 0 0 1 .207.451c0 .334-.28.605-.624.605zm11.076-6.542l-9.782 4.743-.1-.094-4.905-4.281c-.43-.376-.986-.583-1.564-.583-.423 0-.839.112-1.203.323l-2.163 1.258c-.121.071-.26.108-.402.108-.433 0-.784-.341-.784-.76v-.111c0-.29.166-.55.433-.68l3.239-1.57c.554-.269 1.212-.329 1.81-.163l3.649 1.011.884.021 10.889-5.558v6.336z" fill="#3e3465"/></g><defs><clipPath id="A"><path fill="#fff" transform="translate(0 .728)" d="M0 0h36v34.91H0z"/></clipPath></defs></svg>