<svg width="197" height="125" viewBox="0 0 197 125" fill="none" xmlns="http://www.w3.org/2000/svg">
<path d="M190.932 0.748199C190.793 0.50963 190.487 0.428966 190.248 0.568032L186.36 2.83424C186.122 2.9733 186.041 3.27944 186.18 3.51801C186.319 3.75657 186.626 3.83724 186.864 3.69817L190.32 1.68377L192.334 5.13951C192.473 5.37808 192.779 5.45875 193.018 5.31968C193.257 5.18062 193.337 4.87448 193.198 4.63591L190.932 0.748199ZM0.871067 119.483C2.8134 120.001 4.84415 120.491 6.95537 120.947L7.16621 119.969C5.07026 119.517 3.0552 119.031 1.12893 118.517L0.871067 119.483ZM19.3308 123.065C23.3267 123.582 27.5092 123.969 31.8409 124.198L31.8937 123.2C27.5875 122.972 23.4301 122.587 19.4591 122.073L19.3308 123.065ZM44.3958 124.401C48.4916 124.317 52.6789 124.084 56.9307 123.681L56.8365 122.686C52.6099 123.086 48.4472 123.317 44.3753 123.401L44.3958 124.401ZM69.3798 122.025C73.4494 121.324 77.553 120.457 81.6686 119.406L81.4212 118.437C77.3322 119.481 73.2545 120.343 69.21 121.04L69.3798 122.025ZM93.6951 115.802C97.6021 114.451 101.501 112.92 105.372 111.194L104.965 110.281C101.121 111.995 97.2489 113.515 93.3683 114.857L93.6951 115.802ZM116.611 105.569C120.215 103.557 123.778 101.358 127.283 98.9579L126.718 98.1328C123.238 100.515 119.702 102.699 116.124 104.695L116.611 105.569ZM137.31 91.3929C140.476 88.7679 143.578 85.9561 146.603 82.9473L145.898 82.2384C142.895 85.2257 139.815 88.0172 136.672 90.623L137.31 91.3929ZM155.111 73.7018C157.748 70.5737 160.308 67.2704 162.781 63.7839L161.966 63.2052C159.508 66.6693 156.965 69.9506 154.347 73.0574L155.111 73.7018ZM169.644 53.25C171.741 49.7399 173.758 46.0708 175.687 42.2369L174.794 41.7874C172.876 45.6002 170.87 49.248 168.785 52.737L169.644 53.25ZM180.935 30.8675C182.521 27.1116 184.029 23.2161 185.453 19.1766L184.51 18.8441C183.093 22.865 181.592 26.7415 180.013 30.4784L180.935 30.8675ZM189.289 7.23876C189.873 5.23376 190.438 3.19679 190.983 1.1274L190.017 0.872602C189.473 2.93372 188.911 4.96233 188.329 6.9589L189.289 7.23876ZM191.364 0.496399C191.086 0.01926 190.474 -0.142068 189.996 0.136064L182.221 4.66847C181.744 4.9466 181.583 5.55887 181.861 6.03601C182.139 6.51315 182.751 6.67448 183.228 6.39635L190.14 2.36754L194.168 9.27903C194.447 9.75617 195.059 9.91749 195.536 9.63936C196.013 9.36123 196.174 8.74896 195.896 8.27183L191.364 0.496399ZM0.742134 119.966C2.6925 120.487 4.7311 120.979 6.84996 121.436L7.27162 119.48C5.18331 119.03 3.17611 118.546 1.25787 118.034L0.742134 119.966ZM19.2667 123.561C23.275 124.079 27.4701 124.468 31.8144 124.698L31.9201 122.701C27.6266 122.473 23.4818 122.089 19.5232 121.577L19.2667 123.561ZM44.4061 124.901C48.5138 124.816 52.7134 124.583 56.9779 124.179L56.7893 122.188C52.5754 122.587 48.425 122.818 44.365 122.901L44.4061 124.901ZM69.4647 122.518C73.5468 121.815 77.6634 120.945 81.7923 119.891L81.2975 117.953C77.2218 118.993 73.1571 119.852 69.1252 120.547L69.4647 122.518ZM93.8585 116.275C97.7787 114.919 101.691 113.383 105.576 111.65L104.761 109.824C100.931 111.532 97.0723 113.047 93.2049 114.385L93.8585 116.275ZM116.855 106.005C120.472 103.987 124.047 101.779 127.565 99.3704L126.435 97.7202C122.969 100.094 119.445 102.269 115.88 104.259L116.855 106.005ZM137.629 91.7778C140.807 89.1432 143.92 86.3213 146.956 83.3018L145.545 81.8839C142.553 84.8605 139.484 87.6418 136.353 90.2381L137.629 91.7778ZM155.494 74.0241C158.139 70.8853 160.708 67.5709 163.189 64.0732L161.558 62.9159C159.108 66.3687 156.574 69.6391 153.964 72.7351L155.494 74.0241ZM170.073 53.5065C172.177 49.9858 174.2 46.3062 176.134 42.4616L174.347 41.5627C172.434 45.3648 170.435 49.002 168.356 52.4805L170.073 53.5065ZM181.395 31.0621C182.986 27.2966 184.498 23.3917 185.925 19.3428L184.039 18.6779C182.625 22.6894 181.127 26.5565 179.553 30.2838L181.395 31.0621ZM189.769 7.37869C190.354 5.36948 190.921 3.32833 191.467 1.2548L189.533 0.745205C188.991 2.80218 188.429 4.82662 187.849 6.81897L189.769 7.37869Z" fill="#687AF5"/>
</svg>
