<svg width="85" height="84" viewBox="0 0 85 84" fill="none" xmlns="http://www.w3.org/2000/svg">
<path d="M28.3778 28.6475C27.8447 28.5051 27.297 28.8214 27.1545 29.3544C26.9256 30.2101 26.8893 30.2965 26.8769 30.5465C20.7914 35.2739 17 42.6095 17 50.693C17 64.5505 28.1658 76.2029 42.5886 76.2029C56.3618 76.2029 68 65.001 68 50.7088C68 46.4267 66.9346 42.1066 64.7312 38.1975C64.4605 37.7168 63.8512 37.547 63.3703 37.8177C62.8897 38.0886 62.7196 38.6979 62.9906 39.1785C64.7994 42.3878 65.8259 46.0068 65.983 49.7028H54.3585C54.3404 48.678 54.2947 47.6559 54.2216 46.6482C54.3011 46.6105 54.3798 46.5708 54.458 46.5293C54.9358 46.2752 55.1925 45.7467 55.0965 45.2138C55.0965 45.1994 55.1388 45.448 54.3974 41.3433C54.4539 41.208 54.4851 41.0596 54.4851 40.904C54.4851 39.2998 54.5046 39.1512 54.4264 38.7818C56.4082 37.733 58.2391 36.4279 59.8891 34.8887C60.0589 35.0753 60.2259 35.2646 60.3898 35.4566C60.5873 35.6882 60.8679 35.8072 61.1503 35.8072C61.9914 35.8072 62.4668 34.8126 61.9097 34.1596C60.8279 32.8916 59.5651 31.6642 58.1254 30.5465C58.1119 30.2774 58.2326 30.7933 56.2599 23.417L63.0666 20.2584C64.2921 19.6898 64.2905 17.9491 63.0668 17.3809L60.8368 16.3462C60.336 16.114 59.7423 16.3314 59.5101 16.8319C59.2778 17.3323 59.4953 17.9263 59.9958 18.1586L61.4202 18.8196C53.2439 22.6136 69.9195 14.8755 51.8393 23.2654L43.0158 17.9632C42.5425 17.6789 41.9289 17.8321 41.6448 18.3049C41.3607 18.7779 41.5136 19.3916 41.9865 19.6759L49.6502 24.2811L42.5011 27.5986C26.4233 20.138 48.7769 30.5108 23.5821 18.8195L42.5011 10.0405L55.7841 16.2042C56.2852 16.4366 56.8787 16.2191 57.111 15.7185C57.3432 15.218 57.1256 14.6241 56.6253 14.3917L43.1688 8.14771C42.7446 7.9507 42.2578 7.95083 41.8336 8.14771L21.9354 17.3811C20.7101 17.9497 20.7119 19.6906 21.9355 20.2584L28.7423 23.417L28.369 24.8134C28.2264 25.3464 28.5431 25.8942 29.076 26.0367C29.6123 26.18 30.1576 25.8595 30.2993 25.3296L30.5824 24.2709L41.8338 29.4919C42.2576 29.6885 42.7444 29.6886 43.1687 29.4917L50.78 25.9598V33.5104C50.3349 33.6875 50.4807 33.6145 50.3329 33.6717C48.1001 34.5359 45.4523 35.0722 42.7241 35.0994C42.5811 35.0668 42.4278 35.0655 42.2783 35.0994C37.9505 35.0561 33.6155 33.7527 29.8173 31.168L28.9041 30.5465L29.0848 29.8706C29.2274 29.3376 28.9109 28.79 28.3778 28.6475V28.6475ZM25.1172 34.8928C27.1129 36.7553 29.3647 38.2679 31.8312 39.4029C31.114 42.5901 30.7076 46.1155 30.6438 49.7028H19.0197C19.2572 44.1945 21.45 38.9405 25.1172 34.8928V34.8928ZM41.5021 37.0524V39.718C39.0121 39.6128 36.5397 39.1126 34.1817 38.2217C34.4028 37.4053 34.6451 36.6199 34.9063 35.8724C37.0283 36.5631 39.2436 36.9617 41.5021 37.0524ZM50.096 35.8724C50.2222 36.2337 50.3441 36.6036 50.4611 36.9807C49.7894 37.3569 49.2936 38.0112 49.1309 38.7865C47.2873 39.3272 45.3962 39.6369 43.5003 39.7176V37.0524C45.7587 36.9617 47.9739 36.5631 50.096 35.8724ZM57.1002 32.2818C57.5758 32.6593 58.0368 33.0553 58.4822 33.4685C56.9216 34.9172 55.1869 36.1387 53.308 37.1121C53.1435 36.999 52.9659 36.9037 52.7781 36.8287V34.8205C54.7067 33.9292 55.8755 33.115 57.1002 32.2818ZM52.4869 40.0515H51.0712C51.0712 39.4176 51.0712 40.8189 51.0712 39.3436C51.0712 38.9734 51.3568 38.6689 51.7191 38.6382C51.7358 38.6378 51.7524 38.637 51.7692 38.6358C51.9935 38.6325 52.198 38.7352 52.3313 38.9013C52.3395 38.9124 52.3477 38.9233 52.3561 38.9341C52.4384 39.0497 52.4869 39.1912 52.4869 39.3437V40.0515ZM51.0636 42.0496H52.4945L53.0246 44.9843C52.2188 45.2727 51.3393 45.2727 50.5335 44.9843L51.0636 42.0496ZM59.8809 66.508C57.8732 64.6346 55.6144 63.1203 53.182 61.9973C53.8807 58.8878 54.2956 55.4072 54.359 51.7009H65.9834C65.7441 57.389 63.474 62.5607 59.8809 66.508V66.508ZM19.0192 51.7009H30.6435C30.7069 55.4072 31.1218 58.8878 31.8204 61.9973C29.3879 63.1203 27.1292 64.6346 25.1215 66.5079C21.5283 62.5607 19.2582 57.389 19.0192 51.7009V51.7009ZM32.3163 63.9739C33.4706 68.1187 35.1591 71.4634 37.1923 73.6003C33.1373 72.6605 29.4811 70.6683 26.5282 67.9282C28.2731 66.3085 30.2223 64.9823 32.3163 63.9739ZM41.5021 74.0731C39.3928 73.5187 37.3327 71.2364 35.7299 67.6226C35.1288 66.2671 34.6089 64.775 34.1759 63.1766C36.4966 62.2994 38.9626 61.7931 41.5021 61.6877V74.0731ZM43.5003 61.6877C46.0398 61.7931 48.5058 62.2994 50.8265 63.1766C50.3934 64.775 49.8736 66.2671 49.2723 67.6226C47.6697 71.2365 45.6096 73.5188 43.5003 74.0731V61.6877ZM52.6859 63.9739C54.7801 64.9823 56.7294 66.3085 58.4741 67.9282C55.5211 70.6683 51.8648 72.6605 47.8098 73.6003C49.8431 71.4634 51.5317 68.1188 52.6859 63.9739ZM51.3016 61.2202C48.8258 60.3121 46.2008 59.7912 43.5001 59.688V51.7009H52.3602C52.3 55.055 51.9373 58.2821 51.3016 61.2202V61.2202ZM41.5021 59.688C38.8015 59.7912 36.1765 60.3121 33.7006 61.2202C33.065 58.2821 32.7022 55.0551 32.6422 51.7011H41.5023V59.688H41.5021ZM32.6423 49.7028C32.7033 46.3877 33.067 43.1339 33.7066 40.1768C36.222 41.0994 38.8534 41.6144 41.5021 41.7176V49.7028H32.6423ZM52.3601 49.7028H43.5003V41.7175C45.3733 41.644 47.2426 41.3644 49.0732 40.8773C49.0732 41.0341 49.0924 41.1789 49.1607 41.3432L48.4618 45.2138C48.3657 45.7464 48.6221 46.2748 49.0994 46.5289C50.0585 47.0397 51.1514 47.272 52.2554 47.1792C52.3096 48.0136 52.3447 48.8571 52.3601 49.7028V49.7028ZM52.7781 25.0327L54.42 24.2708L56.0983 30.5466C54.9679 31.3158 54.1736 31.8815 52.7781 32.6004V25.0327ZM33.0329 35.1765C32.78 35.8969 32.5443 36.6493 32.3273 37.4284C30.2043 36.4101 28.2583 35.0834 26.5211 33.4699C26.9644 33.0573 27.425 32.6609 27.9022 32.2818L28.6931 32.82C30.0686 33.756 31.5217 34.5435 33.0329 35.1765Z" fill="black"/>
</svg>
