<svg width="95" height="95" viewBox="0 0 95 95" fill="none" xmlns="http://www.w3.org/2000/svg">
<rect width="95" height="95" rx="47.5" fill="#F0FFCF"/>
<g clip-path="url(#clip0_193_3556)">
<path d="M38.0703 58.5704L38.0705 58.5703L38.0659 58.5667C34.117 55.4954 32.1424 51.1092 32.142 46.2803C32.3621 37.9439 39.1632 31.3616 47.2808 31.1415C51.4518 31.1418 55.4002 32.6786 58.2504 35.5289C61.1036 38.382 62.8587 42.332 62.8587 46.4998C62.8587 51.1088 60.8837 55.495 57.1562 58.3454L57.1556 58.3459C55.1436 59.9108 54.0253 62.3692 54.0253 64.6082V69.6873C54.0253 71.3988 52.5243 72.8998 50.8128 72.8998H44.1878C42.7012 72.8998 40.9753 71.6237 40.9753 69.0248V64.3873C40.9753 62.1434 39.853 60.1303 38.0703 58.5704ZM34.1504 46.2759L34.1503 46.2759V46.279C34.1503 50.5012 35.9279 54.5073 39.2682 56.958C41.6753 58.9284 42.9837 61.5503 42.9837 64.3873V69.0248V69.0285C42.9837 69.249 42.9836 69.7046 43.1275 70.1074C43.2003 70.3112 43.312 70.5079 43.485 70.654C43.6597 70.8015 43.8901 70.8915 44.1878 70.8915H50.8128C51.1668 70.8915 51.4696 70.7731 51.6841 70.5586C51.8986 70.3441 52.017 70.0413 52.017 69.6873V64.6082C52.017 61.7707 53.5466 58.7067 55.9545 56.7362C59.0708 54.2873 60.8503 50.504 60.8503 46.4998C60.8503 42.94 59.5148 39.6021 56.846 36.9333C54.3972 34.4844 51.0588 33.1498 47.5003 33.1498C40.3778 33.1498 34.3728 39.1571 34.1504 46.2759Z" fill="#231D36" stroke="#F0FFCF" stroke-width="0.2"/>
<path d="M53.0208 66.2748H41.9792C41.6706 66.2748 41.4213 66.1724 41.2494 66.0005C41.0774 65.8285 40.975 65.5792 40.975 65.2707C40.975 64.9621 41.0774 64.7128 41.2494 64.5409C41.4213 64.3689 41.6706 64.2665 41.9792 64.2665H53.0208C53.3294 64.2665 53.5787 64.3689 53.7506 64.5409C53.9226 64.7128 54.025 64.9621 54.025 65.2707C54.025 65.5792 53.9226 65.8285 53.7506 66.0005C53.5787 66.1724 53.3294 66.2748 53.0208 66.2748Z" fill="#231D36" stroke="#F0FFCF" stroke-width="0.2"/>
<path d="M47.4997 26.525C47.1911 26.525 46.9418 26.4226 46.7699 26.2506C46.5979 26.0787 46.4955 25.8294 46.4955 25.5208V21.1042C46.4955 20.7956 46.5979 20.5463 46.7699 20.3744C46.9418 20.2024 47.1911 20.1 47.4997 20.1C47.8082 20.1 48.0575 20.2024 48.2295 20.3744C48.4014 20.5463 48.5038 20.7956 48.5038 21.1042V25.5208C48.5038 25.8294 48.4014 26.0787 48.2295 26.2506C48.0575 26.4226 47.8082 26.525 47.4997 26.525Z" fill="#231D36" stroke="#F0FFCF" stroke-width="0.2"/>
<path d="M62.2956 32.7082C62.1846 32.7082 62.0268 32.7081 61.8704 32.682C61.7117 32.6555 61.5713 32.6049 61.483 32.5167C61.0804 32.1141 61.0804 31.5149 61.483 31.1123L64.5747 28.0206C64.9773 27.618 65.5765 27.618 65.9791 28.0206C66.3817 28.4232 66.3817 29.0224 65.9791 29.425L62.8992 32.5049L62.8953 32.5068C62.8832 32.5127 62.8656 32.521 62.8438 32.5311C62.8 32.5513 62.7395 32.5782 62.6726 32.605C62.6054 32.6318 62.5329 32.6581 62.4648 32.6776C62.3953 32.6975 62.3369 32.7082 62.2956 32.7082Z" fill="#231D36" stroke="#F0FFCF" stroke-width="0.2"/>
<path d="M72.8958 47.5043H68.4792C68.1706 47.5043 67.9213 47.4019 67.7494 47.23C67.5774 47.058 67.475 46.8087 67.475 46.5002C67.475 46.1916 67.5774 45.9423 67.7494 45.7704C67.9213 45.5984 68.1706 45.496 68.4792 45.496H72.8958C73.2044 45.496 73.4537 45.5984 73.6256 45.7704C73.7976 45.9423 73.9 46.1916 73.9 46.5002C73.9 46.8087 73.7976 47.058 73.6256 47.23C73.4537 47.4019 73.2044 47.5043 72.8958 47.5043Z" fill="#231D36" stroke="#F0FFCF" stroke-width="0.2"/>
<path d="M65.9791 65.2003L65.9498 65.2296V65.271C65.9498 65.3089 65.9408 65.3242 65.9337 65.3322C65.9248 65.3422 65.9052 65.3559 65.8599 65.3672C65.7645 65.3911 65.6144 65.3918 65.3873 65.3918C65.2763 65.3918 65.1185 65.3917 64.9621 65.3656C64.8034 65.3391 64.6629 65.2885 64.5747 65.2003L61.483 62.1086C61.0804 61.706 61.0804 61.1068 61.483 60.7042C61.8856 60.3016 62.4848 60.3016 62.8874 60.7042L65.9791 63.7959C66.3817 64.1985 66.3817 64.7977 65.9791 65.2003Z" fill="#231D36" stroke="#F0FFCF" stroke-width="0.2"/>
<path d="M29.612 65.3918C29.5011 65.3918 29.3432 65.3917 29.1868 65.3656C29.0281 65.3391 28.8877 65.2885 28.7994 65.2003C28.3968 64.7977 28.3968 64.1985 28.7994 63.7959L31.8911 60.7042C32.2937 60.3016 32.8929 60.3016 33.2955 60.7042C33.6981 61.1068 33.6981 61.706 33.2955 62.1086L30.2038 65.2003C30.0141 65.39 29.8314 65.3918 29.612 65.3918Z" fill="#231D36" stroke="#F0FFCF" stroke-width="0.2"/>
<path d="M26.5208 47.5043H22.1042C21.7956 47.5043 21.5463 47.4019 21.3744 47.23C21.2024 47.058 21.1 46.8087 21.1 46.5002C21.1 46.1916 21.2024 45.9423 21.3744 45.7704C21.5463 45.5984 21.7956 45.496 22.1042 45.496H26.5208C26.8294 45.496 27.0787 45.5984 27.2506 45.7704C27.4226 45.9423 27.525 46.1916 27.525 46.5002C27.525 46.8087 27.4226 47.058 27.2506 47.23C27.0787 47.4019 26.8294 47.5043 26.5208 47.5043Z" fill="#231D36" stroke="#F0FFCF" stroke-width="0.2"/>
<path d="M28.8018 29.2068L28.8019 29.2068L28.7994 29.2043C28.3968 28.8017 28.3968 28.2025 28.7994 27.7999C29.202 27.3973 29.8012 27.3973 30.2038 27.7999L33.2955 30.8916C33.6981 31.2942 33.6981 31.8934 33.2955 32.296C33.1838 32.4077 33.0786 32.5126 32.975 32.5903C32.8703 32.6688 32.7815 32.7084 32.7037 32.7084C32.5927 32.7084 32.4349 32.7082 32.2785 32.6821C32.1205 32.6558 31.9806 32.6055 31.8922 32.518L28.8018 29.2068Z" fill="#231D36" stroke="#F0FFCF" stroke-width="0.2"/>
<path d="M56.333 47.5042C56.0245 47.5042 55.7751 47.4018 55.6032 47.2298C55.4312 47.0579 55.3288 46.8085 55.3288 46.5C55.3288 42.2489 51.7507 38.6708 47.4997 38.6708C47.1911 38.6708 46.9418 38.5684 46.7699 38.3965C46.5979 38.2245 46.4955 37.9752 46.4955 37.6667C46.4955 37.3581 46.5979 37.1088 46.7699 36.9369C46.9418 36.7649 47.1911 36.6625 47.4997 36.6625C52.9653 36.6625 57.3372 41.0344 57.3372 46.5C57.3372 46.8085 57.2348 47.0579 57.0628 47.2298C56.8909 47.4018 56.6415 47.5042 56.333 47.5042Z" fill="#231D36" stroke="#F0FFCF" stroke-width="0.2"/>
</g>
<defs>
<clipPath id="clip0_193_3556">
<rect width="53" height="53" fill="white" transform="translate(21 20)"/>
</clipPath>
</defs>
</svg>
