<svg width="95" height="95" viewBox="0 0 95 95" fill="none" xmlns="http://www.w3.org/2000/svg">
<rect width="95" height="95" rx="47.5" fill="#FFD1F2"/>
<path d="M48.1916 74.8999C35.4588 74.8999 25.1 64.5408 25.1 51.8083C25.1 40.3491 33.6246 30.5373 44.9444 28.9439L45.1789 30.6611C34.7128 32.1384 26.8334 41.2114 26.8334 51.8085C26.8334 63.5856 36.4145 73.1667 48.1916 73.1667C59.9681 73.1667 69.5492 63.5856 69.5492 51.8085C69.5492 46.9094 67.8487 42.1278 64.7589 38.3329L66.0978 37.2318C69.442 41.3363 71.2826 46.5087 71.2826 51.8085C71.2826 64.5408 60.924 74.8999 48.1916 74.8999Z" fill="#231D36" stroke="#FFD1F2" stroke-width="0.2"/>
<path d="M48.1916 67.2368C39.6851 67.2368 32.7641 60.3157 32.7641 51.8087C32.7641 44.6029 37.8551 38.2808 44.8829 36.7386L45.2435 38.4338C39.0103 39.8074 34.4974 45.4158 34.4974 51.8087C34.4974 59.3598 40.6405 65.5034 48.1916 65.5034C55.7427 65.5034 61.8857 59.3598 61.8857 51.8087C61.8857 45.4157 57.3725 39.8073 51.1393 38.4338L51.4998 36.7386C58.528 38.2813 63.6191 44.6031 63.6191 51.8087C63.6191 60.3155 56.698 67.2368 48.1916 67.2368Z" fill="#231D36" stroke="#FFD1F2" stroke-width="0.2"/>
<path d="M48.1917 57.2215C45.2072 57.2215 42.7787 54.793 42.7787 51.8085C42.7787 48.8241 45.2072 46.3959 48.1917 46.3959C51.1762 46.3959 53.6043 48.8241 53.6043 51.8085C53.6043 54.793 51.1761 57.2215 48.1917 57.2215ZM48.1917 48.1292C46.1626 48.1292 44.5121 49.7798 44.5121 51.8085C44.5121 53.8376 46.1626 55.4881 48.1917 55.4881C50.2204 55.4881 51.871 53.8376 51.871 51.8085C51.871 49.7798 50.2204 48.1292 48.1917 48.1292Z" fill="#231D36" stroke="#FFD1F2" stroke-width="0.2"/>
<path d="M48.1917 21.359C47.7131 21.359 47.3251 20.971 47.3251 20.4925V17.9666C47.3251 17.488 47.7131 17.1 48.1917 17.1C48.6703 17.1 49.0583 17.488 49.0583 17.9666V20.4923C49.0583 20.9711 48.6703 21.359 48.1917 21.359Z" fill="#231D36" stroke="#FFD1F2" stroke-width="0.2"/>
<path d="M48.1917 48.1291C47.7131 48.1291 47.3251 47.7411 47.3251 47.2625V33.6248C47.3251 33.1462 47.7131 32.7582 48.1917 32.7582C48.6703 32.7582 49.0583 33.1462 49.0583 33.6248V47.2625C49.0583 47.7411 48.6703 48.1291 48.1917 48.1291Z" fill="#231D36" stroke="#FFD1F2" stroke-width="0.2"/>
<path d="M68.0972 20.9872L68.0973 20.9871C68.2817 20.7223 68.3033 20.3771 68.1539 20.0909L68.0972 20.9872ZM68.0972 20.9872L63.9148 27.001L63.8751 27.0581M68.0972 20.9872L63.8751 27.0581M63.8751 27.0581L63.9148 27.1152M63.8751 27.0581L63.9148 27.1152M63.9148 27.1152L68.0972 33.1305L68.0973 33.1305M63.9148 27.1152L68.0973 33.1305M68.0973 33.1305C68.2817 33.3954 68.3033 33.7405 68.1539 34.0268C68.0046 34.3122 67.7088 34.4916 67.3858 34.4916H48.1917M68.0973 33.1305L48.1917 34.4916M48.1917 34.4916C47.7131 34.4916 47.3251 34.1036 47.3251 33.625M48.1917 34.4916L47.3251 33.625M47.3251 33.625V20.4925M47.3251 33.625V20.4925M47.3251 20.4925C47.3251 20.0139 47.7131 19.6259 48.1917 19.6259M47.3251 20.4925L48.1917 19.6259M48.1917 19.6259H67.3858M48.1917 19.6259H67.3858M67.3858 19.6259C67.7087 19.6259 68.0045 19.8053 68.1539 20.0908L67.3858 19.6259ZM49.0583 32.6583V32.7583H49.1583H65.536H65.7273L65.6181 32.6012L62.1078 27.5527L62.1078 27.5526C61.9008 27.2552 61.9008 26.8603 62.1078 26.5635L62.1078 26.5634L65.6181 21.5161L65.7274 21.3591H65.536H49.1583H49.0583V21.4591V32.6583Z" fill="#231D36" stroke="#FFD1F2" stroke-width="0.2"/>
</svg>
