<svg width="95" height="95" viewBox="0 0 95 95" fill="none" xmlns="http://www.w3.org/2000/svg">
<rect width="95" height="95" rx="47.5" fill="#E8E8FF"/>
<path d="M26.5123 51.2273C21.8184 51.2273 18 47.4087 18 42.7149C18 38.0212 21.8184 34.2026 26.5123 34.2026C31.2058 34.2026 35.0241 38.021 35.0241 42.7149C35.0241 47.4089 31.2058 51.2273 26.5123 51.2273ZM26.5123 36.036C22.8296 36.036 19.8334 39.0322 19.8334 42.7149C19.8334 46.3977 22.8296 49.3939 26.5123 49.3939C30.1947 49.3939 33.1908 46.3977 33.1908 42.7149C33.1908 39.0322 30.1946 36.036 26.5123 36.036Z" fill="#231D36"/>
<path d="M22.4619 44.3306H30.5633V46.1639H22.4619V44.3306Z" fill="#231D36"/>
<path d="M29.55 42.2089C30.1094 42.2089 30.5629 41.7554 30.5629 41.196C30.5629 40.6366 30.1094 40.1831 29.55 40.1831C28.9906 40.1831 28.5371 40.6366 28.5371 41.196C28.5371 41.7554 28.9906 42.2089 29.55 42.2089Z" fill="#231D36"/>
<path d="M23.4738 42.2089C24.0333 42.2089 24.4868 41.7554 24.4868 41.196C24.4868 40.6366 24.0333 40.1831 23.4738 40.1831C22.9144 40.1831 22.4609 40.6366 22.4609 41.196C22.4609 41.7554 22.9144 42.2089 23.4738 42.2089Z" fill="#231D36"/>
<path d="M46.2604 72.4944C41.5664 72.4944 37.748 68.6755 37.748 63.982C37.748 59.2881 41.5664 55.4697 46.2604 55.4697C50.9543 55.4697 54.7727 59.2881 54.7727 63.982C54.7727 68.6755 50.9543 72.4944 46.2604 72.4944ZM46.2604 57.3031C42.5776 57.3031 39.5814 60.2993 39.5814 63.982C39.5814 67.6648 42.5776 70.661 46.2604 70.661C49.9431 70.661 52.9393 67.6648 52.9393 63.982C52.9393 60.2993 49.9431 57.3031 46.2604 57.3031Z" fill="#231D36"/>
<path d="M49.2981 63.476C49.8575 63.476 50.311 63.0225 50.311 62.4631C50.311 61.9037 49.8575 61.4502 49.2981 61.4502C48.7387 61.4502 48.2852 61.9037 48.2852 62.4631C48.2852 63.0225 48.7387 63.476 49.2981 63.476Z" fill="#231D36"/>
<path d="M43.2209 63.476C43.7803 63.476 44.2338 63.0225 44.2338 62.4631C44.2338 61.9037 43.7803 61.4502 43.2209 61.4502C42.6615 61.4502 42.208 61.9037 42.208 62.4631C42.208 63.0225 42.6615 63.476 43.2209 63.476Z" fill="#231D36"/>
<path d="M49.287 68.0362C48.6085 67.0227 47.4765 66.4176 46.2595 66.4176C45.042 66.4176 43.9101 67.0227 43.2316 68.0362L41.708 67.0157C42.7276 65.493 44.4294 64.5845 46.2595 64.5845C48.0896 64.5845 49.791 65.493 50.8107 67.0157L49.287 68.0362Z" fill="#231D36"/>
<path d="M64.4874 35.0241C59.7939 35.0241 55.9756 31.2058 55.9756 26.5123C55.9756 21.8184 59.7939 18 64.4874 18C69.1813 18 72.9997 21.8184 72.9997 26.5123C72.9997 31.2058 69.1813 35.0241 64.4874 35.0241ZM64.4874 19.8334C60.805 19.8334 57.8089 22.8296 57.8089 26.5123C57.8089 30.1947 60.8051 33.1908 64.4874 33.1908C68.1701 33.1908 71.1664 30.1946 71.1664 26.5123C71.1665 22.8296 68.1703 19.8334 64.4874 19.8334Z" fill="#231D36"/>
<path d="M67.5266 26.0063C68.086 26.0063 68.5395 25.5528 68.5395 24.9934C68.5395 24.434 68.086 23.9805 67.5266 23.9805C66.9672 23.9805 66.5137 24.434 66.5137 24.9934C66.5137 25.5528 66.9672 26.0063 67.5266 26.0063Z" fill="#231D36"/>
<path d="M61.4504 26.0063C62.0098 26.0063 62.4633 25.5528 62.4633 24.9934C62.4633 24.434 62.0098 23.9805 61.4504 23.9805C60.891 23.9805 60.4375 24.434 60.4375 24.9934C60.4375 25.5528 60.891 26.0063 61.4504 26.0063Z" fill="#231D36"/>
<path d="M64.4877 30.9727C62.6574 30.9727 60.9563 30.0636 59.9365 28.5414L61.4601 27.521C62.1386 28.5344 63.2705 29.1395 64.4875 29.1395C65.705 29.1395 66.837 28.5344 67.5155 27.521L69.0391 28.5414C68.0197 30.0636 66.318 30.9727 64.4877 30.9727Z" fill="#231D36"/>
<path d="M40.1545 59.9104C40.0754 59.9823 39.953 59.9765 39.8811 59.8974C39.8092 59.8184 39.815 59.6959 39.894 59.624L40.9639 58.6509C41.0429 58.579 41.1654 58.5848 41.2373 58.6639C41.3092 58.743 41.3034 58.8654 41.2243 58.9373L40.1545 59.9104ZM39.196 57.7807C38.8215 58.1213 38.2415 58.0937 37.9009 57.7191C37.5604 57.3446 37.5878 56.7648 37.9622 56.4242C38.3368 56.0835 38.9167 56.1112 39.2573 56.4858C39.5979 56.8603 39.5705 57.4401 39.196 57.7807ZM36.7293 55.0675C36.3546 55.408 35.7746 55.3806 35.4341 55.0059C35.0936 54.6313 35.1215 54.0514 35.4961 53.7109C35.8707 53.3704 36.4507 53.3978 36.7913 53.7725C37.1317 54.1471 37.1039 54.727 36.7293 55.0675ZM34.263 52.3542C33.8885 52.6948 33.3088 52.6673 32.9682 52.2928C32.6275 51.9183 32.655 51.3386 33.0295 50.998C33.404 50.6573 33.9837 50.6848 34.3243 51.0593C34.665 51.4338 34.6375 52.0135 34.263 52.3542ZM31.7964 49.6414C31.4218 49.9819 30.8418 49.9545 30.5012 49.5798C30.1608 49.2052 30.1886 48.6253 30.5632 48.2848C30.9379 47.9443 31.5179 47.9717 31.8584 48.3464C32.1989 48.721 32.171 49.3009 31.7964 49.6414Z" fill="#231D36"/>
<path d="M51.0531 57.0521C50.804 57.493 50.2445 57.6483 49.8037 57.3991C49.3631 57.1499 49.2077 56.5908 49.4567 56.1501C49.7058 55.7093 50.2652 55.5539 50.706 55.8031C51.1466 56.0523 51.3021 56.6114 51.0531 57.0521ZM52.8571 53.8602C52.6081 54.3009 52.0486 54.456 51.608 54.2069C51.1674 53.9578 51.0119 53.3986 51.2609 52.958C51.51 52.5173 52.0694 52.3622 52.5101 52.6113C52.9506 52.8604 53.1062 53.4196 52.8571 53.8602ZM54.6615 50.6681C54.4124 51.1089 53.853 51.2642 53.4122 51.015C52.9716 50.7659 52.8162 50.2068 53.0652 49.7661C53.3143 49.3252 53.8737 49.1699 54.3145 49.4191C54.7551 49.6682 54.9105 50.2274 54.6615 50.6681ZM56.4658 47.4758C56.2167 47.9167 55.6573 48.072 55.2165 47.8228C54.7759 47.5737 54.6205 47.0145 54.8695 46.5738C55.1186 46.133 55.678 45.9777 56.1188 46.2269C56.5594 46.476 56.7148 47.0351 56.4658 47.4758ZM58.2699 44.2841C58.0208 44.7247 57.4614 44.8799 57.0208 44.6307C56.5802 44.3817 56.4247 43.8224 56.6737 43.3818C56.9228 42.9412 57.4822 42.7861 57.9228 43.0352C58.3634 43.2843 58.519 43.8435 58.2699 44.2841ZM60.0743 41.0918C59.8252 41.5326 59.2658 41.688 58.825 41.4387C58.3844 41.1896 58.2289 40.6305 58.4779 40.1898C58.727 39.7489 59.2865 39.5936 59.7273 39.8428C60.1679 40.092 60.3233 40.6511 60.0743 41.0918ZM61.8784 37.8997C61.6294 38.3405 61.0699 38.4959 60.6291 38.2467C60.1885 37.9975 60.0331 37.4384 60.2821 36.9977C60.5312 36.5568 61.0906 36.4015 61.5314 36.6507C61.972 36.8999 62.1275 37.459 61.8784 37.8997ZM63.4996 35.0316C63.3517 35.2934 63.0194 35.3857 62.7577 35.2377L62.1094 34.8712C61.8477 34.7232 61.7555 34.3911 61.9034 34.1294C62.0514 33.8675 62.3836 33.7753 62.6454 33.9233L63.2936 34.2898C63.5553 34.4377 63.6475 34.7699 63.4996 35.0316Z" fill="#231D36"/>
</svg>
