<svg width="95" height="95" viewBox="0 0 95 95" fill="none" xmlns="http://www.w3.org/2000/svg">
<rect width="95" height="95" rx="47.5" fill="#E6C2FF"/>
<g clip-path="url(#clip0_193_3605)">
<path d="M42.5108 71.4059C42.5101 71.4057 42.5066 71.405 42.503 71.4044C42.4995 71.4037 42.4959 71.4031 42.4953 71.4028C42.0346 71.3121 41.735 70.8656 41.8258 70.405C41.9132 69.9612 42.3319 69.6669 42.7743 69.7277L42.7646 69.7768M42.5108 71.4059C42.5647 71.4161 42.6183 71.4214 42.6714 71.4214C43.071 71.4214 43.4272 71.1382 43.5046 70.7311C43.59 70.2865 43.312 69.8567 42.8786 69.7476L42.8686 69.7966M42.5108 71.4059L42.5266 71.3585L42.5222 71.3572L42.5203 71.3568L42.5176 71.3563L42.5122 71.3552L42.5112 71.355M42.5108 71.4059L42.52 71.3568C42.5712 71.3664 42.6216 71.3714 42.6714 71.3714C43.0474 71.3714 43.3826 71.1048 43.4555 70.7218L43.4555 70.7217C43.5357 70.304 43.2752 69.9002 42.8686 69.7966M42.8686 69.7966C42.8667 69.7962 42.8648 69.7957 42.8629 69.7952L42.7085 70.5788M42.8686 69.7966L42.7085 70.5788M42.7085 70.5788L42.6594 70.5692L42.6105 70.5591L42.7704 69.7776C42.7685 69.7773 42.7665 69.7771 42.7646 69.7768M42.7085 70.5788L42.7084 70.5792L42.6104 70.5595L42.7646 69.7768M42.7646 69.7768C42.3493 69.7213 41.9569 69.998 41.8748 70.4146C41.7894 70.8482 42.0714 71.2684 42.5049 71.3538L42.5112 71.355L42.5112 71.355M42.5112 71.355L42.5077 71.3544L42.507 71.3542C42.5069 71.3542 42.5069 71.3542 42.5068 71.3542L42.507 71.3542L42.5075 71.3544L42.5111 71.3554L42.5112 71.355Z" fill="#231D36" stroke="#E6C2FF" stroke-width="0.1"/>
<path d="M49.2735 70.017L49.2787 70.0669C49.2795 70.0667 49.2803 70.0666 49.2812 70.0665M49.2735 70.017L49.3339 70.0093L49.3258 70.0101M49.2735 70.017C49.2744 70.0169 49.2753 70.0168 49.2762 70.0166L49.2812 70.0665M49.2735 70.017L49.3258 70.0101M49.2812 70.0665L49.3605 70.8602L49.4103 70.8553M49.2812 70.0665C49.2967 70.064 49.3124 70.0619 49.3282 70.0603L49.3231 70.0105L49.4103 70.8553M49.4103 70.8553L49.46 70.8501L49.3781 70.0562M49.4103 70.8553L49.3258 70.0102L49.3258 70.0101M49.3781 70.0562C49.3789 70.0562 49.3798 70.0562 49.3806 70.0561L49.3757 70.0063C49.3748 70.0063 49.3739 70.0064 49.373 70.0064L49.3781 70.0562ZM49.3781 70.0562C49.3625 70.057 49.3468 70.0582 49.331 70.0598L49.3258 70.0102L49.3258 70.0101M49.492 71.6511L49.4914 71.6512L49.497 71.7009L49.4925 71.6511C49.4923 71.6511 49.4921 71.6511 49.492 71.6511ZM49.5147 71.6486L49.5205 71.6982L49.5149 71.6485L49.5147 71.6486ZM50.263 70.7601L50.2133 70.7657C50.2133 70.7657 50.2133 70.7657 50.2133 70.7657L50.263 70.7601Z" fill="#231D36" stroke="#E6C2FF" stroke-width="0.1"/>
<path d="M46.0588 70.1666L46.0588 70.1666H46.0611C46.0604 70.1666 46.061 70.1666 46.0631 70.1667C46.0638 70.1667 46.0646 70.1668 46.0657 70.1668L46.0698 70.1669L46.0711 70.167L46.0714 70.167C46.5128 70.1871 46.8538 70.561 46.8338 71.002L46.8338 71.002C46.8146 71.4309 46.4607 71.7654 46.0359 71.7654C46.0224 71.7654 46.0112 71.7654 45.9998 71.7646L45.9998 71.7646L45.9988 71.7645C45.5573 71.7445 45.2109 71.3706 45.2305 70.9299L45.1805 70.9277L45.2305 70.93C45.2505 70.4884 45.6188 70.1466 46.0588 70.1666Z" fill="#231D36" stroke="#E6C2FF" stroke-width="0.1"/>
<path d="M39.1169 70.473L39.1338 70.4259C38.7177 70.2763 38.4973 69.8161 38.6466 69.4009L38.6466 69.4009C38.7959 68.9849 39.2489 68.7679 39.6642 68.9168L39.6741 68.9206L39.6741 68.9206L39.6748 68.9208C40.0904 69.0699 40.3061 69.528 40.1566 69.9436L40.1566 69.9437C40.0396 70.2701 39.7319 70.473 39.404 70.473C39.3145 70.473 39.2233 70.458 39.1337 70.4259L39.1169 70.473ZM39.1169 70.473C39.212 70.507 39.3089 70.523 39.404 70.523C39.7523 70.523 40.0793 70.3075 40.2037 69.9606L39.6811 68.8698C39.2394 68.7114 38.758 68.9424 38.5996 69.384C38.4407 69.8256 38.6752 70.3141 39.1169 70.473Z" fill="#231D36" stroke="#E6C2FF" stroke-width="0.1"/>
<path d="M52.5934 69.4527L52.7901 70.2264L52.7901 70.2265L52.6932 70.2513L52.6932 70.2512L52.4941 69.4786C52.0954 69.6077 51.8612 70.0269 51.967 70.4384L52.5934 69.4527ZM52.5934 69.4527C53.0039 69.3723 53.4132 69.622 53.5221 70.0305C53.6354 70.4557 53.3875 70.8912 52.9638 71.0073C52.9592 71.0084 52.9495 71.0109 52.9445 71.0122C52.9429 71.0126 52.9418 71.0129 52.9415 71.013L52.9415 71.013L52.941 71.0131C52.8739 71.0306 52.8069 71.0389 52.7407 71.0389C52.3847 71.0389 52.0599 70.799 51.967 70.4384L52.5934 69.4527Z" fill="#231D36" stroke="#E6C2FF" stroke-width="0.1"/>
<path d="M55.2065 69.4433C55.037 69.0539 55.202 68.6032 55.5752 68.4123L55.894 69.1437L55.894 69.1439L55.9858 69.1041L55.9857 69.1039L55.6693 68.3714C56.062 68.2269 56.5057 68.4087 56.6779 68.7955L56.6779 68.7955C56.857 69.1976 56.6799 69.6672 56.279 69.8483L56.279 69.8482L56.2773 69.8491C56.2774 69.8491 56.2774 69.8491 56.2771 69.8492C56.2768 69.8493 56.2762 69.8496 56.2751 69.8501L56.2692 69.8527L56.2628 69.8555L56.2589 69.8573L56.2589 69.8573C56.1551 69.9023 56.0464 69.9239 55.9403 69.9239C55.6316 69.9239 55.3376 69.7444 55.2065 69.4433Z" fill="#231D36" stroke="#E6C2FF" stroke-width="0.1"/>
<path d="M36.072 28.0582L36.072 28.0582L36.0623 28.0633C35.6733 28.2709 35.5301 28.7524 35.7381 29.1427L35.7381 29.1427C35.8812 29.4113 36.1592 29.564 36.4458 29.564L36.072 28.0582ZM36.072 28.0582L36.0725 28.058C36.4622 27.8498 36.9461 27.9976 37.154 28.387C37.3618 28.7769 37.2147 29.2612 36.825 29.469L36.072 28.0582Z" fill="#231D36" stroke="#E6C2FF" stroke-width="0.1"/>
<path d="M27.3709 37.6237L27.371 37.6238C27.7673 37.8182 27.9306 38.2973 27.7359 38.6938L27.7211 38.7229C27.5783 38.9954 27.3003 39.1511 27.0124 39.1511C26.8872 39.1511 26.7602 39.1216 26.6413 39.0595L26.6182 39.1038L26.6414 39.0595C26.2508 38.8546 26.1 38.3719 26.3041 37.9813L26.3044 37.9807C26.5018 37.5896 26.9774 37.4297 27.3709 37.6237Z" fill="#231D36" stroke="#E6C2FF" stroke-width="0.1"/>
<path d="M25.4384 42.2523L25.4384 42.2523C25.0207 42.1112 24.7962 41.658 24.9365 41.2403L24.9368 41.2397C25.0704 40.8232 25.5148 40.5909 25.9333 40.72L25.9334 40.72C26.3555 40.8494 26.5925 41.2969 26.4628 41.7186L26.452 41.7515C26.3391 42.0845 26.0281 42.2948 25.6949 42.2948C25.6097 42.2948 25.5235 42.2811 25.4384 42.2523Z" fill="#231D36" stroke="#E6C2FF" stroke-width="0.1"/>
<path d="M28.3245 36.0909L28.3245 36.0909C27.9812 35.8413 27.8949 35.3689 28.1202 35.0153L28.7655 35.4848L28.7657 35.485L28.8248 35.4043L28.8246 35.4041L28.1813 34.9309C28.446 34.6062 28.9219 34.5392 29.2669 34.7865L29.2669 34.7865C29.6251 35.043 29.7088 35.5411 29.4523 35.9L29.4416 35.9145L29.4415 35.9147C29.2853 36.1296 29.0413 36.2441 28.7943 36.2441C28.6311 36.2441 28.4666 36.1942 28.3245 36.0909Z" fill="#231D36" stroke="#E6C2FF" stroke-width="0.1"/>
<path d="M34.0438 31.2358L34.0438 31.2358L34.0431 31.2364C33.8985 31.3464 33.7295 31.3992 33.5618 31.3992C33.3202 31.3992 33.0816 31.2897 32.9241 31.0823C32.6574 30.7305 32.7271 30.228 33.0783 29.9609L33.0992 29.9457L33.0993 29.9457C33.4553 29.685 33.9555 29.762 34.2166 30.1185C34.4774 30.4751 34.4002 30.9752 34.0438 31.2358Z" fill="#231D36" stroke="#E6C2FF" stroke-width="0.1"/>
<path d="M24.6643 55.185L24.7122 55.1706L24.712 55.1703L24.6643 55.185ZM25.2493 54.1044L25.2624 54.1526L25.2624 54.1526L25.2493 54.1044ZM24.7014 55.1347C24.7014 55.1345 24.7013 55.1343 24.7013 55.1341L24.7011 55.1334L24.6532 55.1478L24.7014 55.1347Z" fill="#231D36" stroke="#E6C2FF" stroke-width="0.1"/>
<path d="M31.5683 33.3979L31.568 33.3982C31.4109 33.5582 31.2032 33.6385 30.9952 33.6385C30.7931 33.6385 30.5912 33.5631 30.436 33.4108L30.4359 33.4108C30.1206 33.1017 30.1145 32.5961 30.4234 32.281L30.4372 32.2672C30.7495 31.9548 31.256 31.9548 31.5683 32.2672C31.8802 32.5791 31.8802 33.0855 31.5683 33.3979Z" fill="#231D36" stroke="#E6C2FF" stroke-width="0.1"/>
<path d="M25.5539 51.4868L25.5539 51.4868L25.554 51.4873C25.6152 51.9226 25.3132 52.3274 24.8781 52.3907L24.8781 52.3907C24.8383 52.3965 24.7992 52.3994 24.761 52.3994C24.3707 52.3994 24.0298 52.1145 23.9715 51.7174L23.9667 51.6841C23.915 51.2457 24.2281 50.8483 24.6661 50.7959L24.6601 50.7462L24.666 50.7959C25.1009 50.7442 25.4977 51.0525 25.5539 51.4868Z" fill="#231D36" stroke="#E6C2FF" stroke-width="0.1"/>
<path d="M23.7622 48.1768L23.7622 48.1761C23.7676 47.7392 24.1233 47.3869 24.5618 47.3869C25.0031 47.3869 25.3611 47.7443 25.3614 48.1859L25.3606 48.2214C25.3606 48.2214 25.3606 48.2215 25.3606 48.2215C25.348 48.6549 24.9924 48.9976 24.5618 48.9976L24.5505 48.9974L24.5376 48.9972L24.5376 48.9972C24.0975 48.9843 23.7505 48.6174 23.7622 48.1768Z" fill="#231D36" stroke="#E6C2FF" stroke-width="0.1"/>
<path d="M25.6651 44.9085L25.6651 44.9088C25.6633 44.9213 25.6617 44.9328 25.6596 44.9442C25.59 45.3311 25.2531 45.6031 24.8734 45.6031C24.8264 45.6031 24.7793 45.5989 24.7312 45.5906C24.2977 45.5126 24.0087 45.0991 24.0845 44.6652L24.0846 44.6645C24.1542 44.2339 24.5587 43.937 24.9904 44.0011L24.9905 44.0011C25.4278 44.0652 25.7297 44.4717 25.6651 44.9085Z" fill="#231D36" stroke="#E6C2FF" stroke-width="0.1"/>
<path d="M64.8408 36.3714L64.8408 36.3714L64.8405 36.3709L64.8302 36.3563C64.5827 35.9907 64.6781 35.4937 65.0437 35.246L65.0437 35.2459C65.395 35.0076 65.8685 35.0867 66.125 35.4187L65.4644 35.8662L65.4641 35.8663L65.52 35.9493L65.5202 35.9491L66.1839 35.505C66.3998 35.8645 66.3014 36.3349 65.9515 36.5754L65.9514 36.5754C65.8131 36.6708 65.655 36.7166 65.4988 36.7166C65.2446 36.7166 64.9957 36.5962 64.8408 36.3714ZM64.7997 36.3998C64.9643 36.6387 65.2289 36.7666 65.4988 36.7666C65.6648 36.7666 65.8329 36.7179 65.9798 36.6166L64.7997 36.3998Z" fill="#231D36" stroke="#E6C2FF" stroke-width="0.1"/>
<path d="M69.3552 46.6462L69.3482 46.5967C69.31 46.6021 69.2716 46.6046 69.234 46.6046C68.8427 46.6046 68.5005 46.3171 68.4432 45.9189L68.4389 45.8829C68.3894 45.444 68.7051 45.048 69.144 44.9989L69.144 44.9989C69.58 44.9498 69.9773 45.2639 70.0277 45.7015L70.0277 45.7015L70.0278 45.7022C70.084 46.1353 69.7816 46.5347 69.3481 46.5967L69.3552 46.6462ZM69.3552 46.6462C69.8159 46.5803 70.1371 46.1559 70.0774 45.6957L68.3937 45.9254C68.4543 46.3489 68.818 46.6546 69.234 46.6546C69.2738 46.6546 69.3145 46.652 69.3552 46.6462Z" fill="#231D36" stroke="#E6C2FF" stroke-width="0.1"/>
<path d="M67.7561 42.5487L67.7562 42.5487L67.7558 42.5476L67.7524 42.5371C67.6283 42.1133 67.8707 41.6692 68.294 41.5448L68.294 41.5448C68.718 41.4198 69.1623 41.6622 69.2868 42.0862L69.2868 42.0862L69.2872 42.0873L69.2906 42.0978C69.4147 42.5216 69.1723 42.9656 68.7486 43.0901L68.7484 43.0902C68.6731 43.1126 68.5973 43.123 68.5228 43.123C68.1771 43.123 67.8586 42.8972 67.7561 42.5487Z" fill="#231D36" stroke="#E6C2FF" stroke-width="0.1"/>
<path d="M66.9227 38.2655C67.3073 38.0852 67.7624 38.2375 67.9633 38.6052L67.241 38.944L67.2409 38.944L67.2832 39.0346L67.2833 39.0345L68.0075 38.697C68.1699 39.0838 68.0034 39.5324 67.6219 39.7201L67.6218 39.7202C67.509 39.7759 67.3892 39.8022 67.2714 39.8022C66.9747 39.8022 66.6894 39.6367 66.5498 39.3531C66.5498 39.3531 66.5498 39.3531 66.5498 39.3531L66.5377 39.3283C66.3506 38.9286 66.523 38.4528 66.9227 38.2655Z" fill="#231D36" stroke="#E6C2FF" stroke-width="0.1"/>
<path d="M63.8257 33.7226L63.8256 33.7226C63.6699 33.8754 63.468 33.9512 63.2659 33.9512C63.0585 33.9512 62.8518 33.8714 62.6952 33.7116L62.6701 33.6852C62.3709 33.3607 62.391 32.8549 62.7153 32.5556C63.0393 32.2565 63.544 32.2761 63.8434 32.5989L63.8434 32.5989L63.844 32.5994C64.1459 32.9151 64.1388 33.4161 63.8257 33.7226Z" fill="#231D36" stroke="#E6C2FF" stroke-width="0.1"/>
<path d="M68.5909 49.32L68.5909 49.3195C68.6063 48.8802 68.974 48.5356 69.4135 48.5468C69.8546 48.5598 70.2018 48.9263 70.1893 49.3672L70.188 49.4012C70.164 49.8271 69.8114 50.1563 69.3905 50.1563C69.3751 50.1563 69.3605 50.1558 69.345 50.155L69.3423 50.2049L69.3451 50.155C68.907 50.1304 68.5709 49.7577 68.5909 49.32Z" fill="#231D36" stroke="#E6C2FF" stroke-width="0.1"/>
<path d="M57.9748 28.1054C57.5955 27.9269 57.1379 28.0724 56.9336 28.4451L57.9748 28.1054ZM57.9748 28.1054L57.5912 28.8053L57.5911 28.8054L57.6787 28.8537L57.6788 28.8535L58.065 28.155C58.4194 28.3765 58.5474 28.8396 58.3471 29.2125C58.2026 29.4811 57.9273 29.6344 57.6429 29.6344C57.5172 29.6344 57.3895 29.6044 57.2703 29.5411L57.2505 29.5303C57.2505 29.5303 57.2505 29.5303 57.2505 29.5303C56.8632 29.3183 56.7216 28.832 56.9336 28.4451L57.9748 28.1054Z" fill="#231D36" stroke="#E6C2FF" stroke-width="0.1"/>
<path d="M61.104 30.1297L61.1041 30.1296C60.7538 29.8606 60.252 29.9264 59.983 30.2766C59.714 30.6268 59.7801 31.1291 60.1304 31.3982L61.104 30.1297ZM61.104 30.1297L61.1061 30.1311L61.1109 30.1344C61.4617 30.4016 61.5305 30.9024 61.2637 31.2541C61.1063 31.4615 60.8678 31.5706 60.6261 31.5706C60.4574 31.5706 60.288 31.5177 60.1434 31.4082L60.1304 31.3982L61.104 30.1297Z" fill="#231D36" stroke="#E6C2FF" stroke-width="0.1"/>
<mask id="path-26-inside-1_193_3605" fill="white">
<path d="M76.4756 61.3592L72.4873 57.3638C72.1479 57.024 71.697 56.8368 71.2169 56.8368C70.7372 56.8368 70.2859 57.024 69.9469 57.3638L69.8544 57.4563L69.5925 57.1944C69.269 56.87 69.0185 56.4926 68.8486 56.0815C68.8336 56.027 68.8137 55.9739 68.788 55.9239C68.6579 55.5584 68.5902 55.1695 68.5902 54.7699V53.6397C68.6676 53.6804 68.7522 53.7101 68.8429 53.7256C68.8915 53.734 68.9398 53.738 68.9876 53.738C69.3907 53.738 69.7473 53.4503 69.8221 53.0415C69.9128 52.5821 69.615 52.1357 69.1553 52.0436C68.953 52.0033 68.753 52.0383 68.5849 52.1295C68.5327 50.9223 68.0393 49.7948 67.1808 48.9346L63.3116 45.0587C62.4434 44.1891 61.2889 43.7104 60.0609 43.7104C59.1104 43.7104 58.205 43.9984 57.4413 44.5316L57.0306 44.1188V34.4014C57.0306 33.2301 56.6054 32.0999 55.8337 31.2198C55.2845 30.5941 54.9823 29.7905 54.9823 28.9568V28.2448H55.0407C56.031 28.2448 56.8368 27.439 56.8368 26.4482V20.7966C56.8368 19.8058 56.031 19 55.0407 19H39.1703C38.1799 19 37.3741 19.8058 37.3741 20.7966V26.4482C37.3741 27.439 38.1799 28.2448 39.1703 28.2448H39.3012V28.6174C39.3012 29.5334 38.945 30.3945 38.2985 31.0419L36.5856 32.7579C35.6767 33.6686 35.1762 34.8788 35.1762 36.1665V41.6478C35.1762 42.3926 35.355 43.0957 35.6696 43.7188C34.543 43.7838 33.4929 44.2533 32.6884 45.0587L28.8192 48.9346C27.9103 49.8452 27.4098 51.0559 27.4098 52.3432V54.7699C27.4098 55.6859 27.054 56.547 26.4075 57.1944L26.1487 57.4537C26.1473 57.4546 26.1465 57.4554 26.1456 57.4563L26.0535 57.3638C25.7141 57.024 25.2632 56.8368 24.7831 56.8368C24.3034 56.8368 23.8521 57.024 23.5131 57.3638L19.5244 61.3592C18.8252 62.0597 18.8252 63.1996 19.5244 63.9001L20.8904 65.2679C21.2218 65.6002 21.7599 65.6006 22.0918 65.2692C22.4237 64.9373 22.4245 64.3997 22.0927 64.0674L20.7271 62.6991C20.6886 62.6606 20.6886 62.5982 20.7271 62.5597L24.7158 58.5644C24.753 58.5272 24.8136 58.5267 24.8508 58.5644L25.5442 59.2591H25.5446L35.0129 68.7437L36.0736 69.8066C36.1121 69.8451 36.1121 69.9075 36.0736 69.946L32.0853 73.9414C32.0477 73.979 31.9871 73.979 31.9499 73.9414L24.4981 66.4768C24.1667 66.1445 23.6286 66.144 23.2967 66.4755C22.9644 66.8073 22.964 67.345 23.2954 67.6773L30.7476 75.1419C31.0866 75.4818 31.5379 75.6689 32.0181 75.6689C32.4977 75.6689 32.9486 75.4818 33.288 75.1419L37.2763 71.1465C37.9755 70.4465 37.9755 69.3066 37.2763 68.6061L37.233 68.5628L37.7361 68.0587C38.3237 67.4698 39.1043 67.1158 39.934 67.0622C41.1018 66.9866 42.2005 66.4883 43.0276 65.6595L46.6915 61.9876C47.7482 61.7101 48.5708 60.8495 48.7943 59.7715C49.1709 59.9507 49.5917 60.0516 50.036 60.0516C51.6339 60.0516 52.9339 58.7502 52.9339 57.1501V55.1327C53.2994 55.2996 53.7052 55.3934 54.1327 55.3934C55.7306 55.3934 57.0302 54.092 57.0302 52.4919V46.5278L59.6436 49.1541C59.8096 49.3209 60.0277 49.4041 60.2459 49.4041C60.4627 49.4041 60.6795 49.3218 60.8455 49.1567C61.1778 48.8257 61.1791 48.2881 60.8481 47.9553L58.6692 45.7658C59.0909 45.5335 59.5662 45.4096 60.0609 45.4096C60.8344 45.4096 61.5619 45.7114 62.1088 46.2596L65.9781 50.1351C66.5666 50.7249 66.891 51.5091 66.891 52.3432V54.7699C66.891 56.1394 67.4233 57.4267 68.3897 58.3949L68.6535 58.6591L67.4211 59.8936L59.9675 67.36L59.552 66.9436C59.5476 66.9397 59.5436 66.9352 59.5392 66.9312L59.4662 66.8578C58.5865 65.9768 57.4178 65.4471 56.1762 65.3665C55.4208 65.3174 54.7101 64.9953 54.1725 64.4572L51.3807 61.6805C51.048 61.3495 50.5099 61.3508 50.1789 61.6836C49.8483 62.0163 49.8497 62.5544 50.1824 62.885L52.9724 65.6595C53.7995 66.4883 54.8982 66.9866 56.0664 67.0622C56.8957 67.1158 57.6763 67.4698 58.2639 68.0583L58.3051 68.0995C58.3272 68.1247 58.3506 68.1481 58.3754 68.1703L58.767 68.5623L58.7237 68.6061C58.0245 69.3066 58.0245 70.4461 58.7237 71.1465L62.712 75.1419C63.0514 75.4818 63.5023 75.6689 63.9824 75.6689C64.4621 75.6689 64.9134 75.4818 65.2528 75.1419L76.4756 63.8996C77.1748 63.1992 77.1748 62.0597 76.4756 61.3592ZM69.1597 52.9109L69.1438 52.9083L68.9889 52.8768L69.1597 52.9109ZM41.8248 64.459C41.2899 64.9953 40.5792 65.3174 39.8243 65.3665C38.5822 65.4471 37.4135 65.9768 36.5338 66.8578L36.0325 67.36L35.5811 66.9078C35.5753 66.902 35.5696 66.8958 35.5638 66.8905L27.3465 58.6591L27.6103 58.3949C28.5767 57.4267 29.109 56.1394 29.109 54.7699V52.3432C29.109 51.5091 29.4329 50.7249 30.0219 50.1351L33.8912 46.2596C34.4381 45.7114 35.1656 45.4096 35.9391 45.4096C36.4351 45.4096 36.9122 45.5344 37.3352 45.7684L35.1528 47.9544C34.8213 48.2863 34.8218 48.8244 35.1536 49.1558C35.3196 49.3213 35.5368 49.4041 35.7541 49.4041C35.9718 49.4041 36.1895 49.3209 36.3555 49.1549L38.9623 46.5433V57.1501C38.9623 58.7502 40.2624 60.0516 41.8602 60.0516C42.3107 60.0516 42.7373 59.9481 43.1178 59.764C43.2904 60.6061 43.8285 61.3159 44.5578 61.7203L41.8248 64.459ZM55.3314 52.4923C55.3314 53.1552 54.7933 53.6946 54.1327 53.6946C53.4716 53.6946 52.9339 53.1552 52.9339 52.4923V43.0152C52.9339 42.5461 52.5538 42.1656 52.0843 42.1656C51.6148 42.1656 51.2347 42.5461 51.2347 43.0152V57.1506C51.2347 57.8134 50.6971 58.3524 50.036 58.3524C49.4426 58.3524 48.9501 57.9179 48.8549 57.3492V43.0054C48.8549 42.5359 48.4748 42.1558 48.0053 42.1558C47.8544 42.1558 47.7124 42.1957 47.5894 42.2647C47.3208 42.4076 47.138 42.6899 47.138 43.0152V57.1501C47.138 57.2581 47.1442 57.3638 47.1557 57.4687V59.1808C47.1557 59.8436 46.6181 60.3831 45.957 60.3831C45.2963 60.3831 44.7587 59.8436 44.7587 59.1808V42.9953C44.7587 42.5262 44.3781 42.1457 43.909 42.1457C43.4395 42.1457 43.059 42.5262 43.059 42.9953V57.1501C43.059 57.813 42.5213 58.3524 41.8607 58.3524C41.1996 58.3524 40.6619 57.813 40.6619 57.1501V41.3461C40.6619 40.8766 40.2814 40.496 39.8123 40.496C39.3428 40.496 38.9627 40.8766 38.9627 41.3461V44.2692C38.8915 44.2923 38.8224 44.3246 38.7583 44.367C37.6595 43.9542 36.8754 42.8913 36.8754 41.6478V36.1665C36.8754 35.3324 37.1998 34.5483 37.7883 33.9584L39.5013 32.2424C40.4681 31.2742 41.0005 29.987 41.0005 28.6174V28.2448H42.7085C43.178 28.2448 43.5581 27.8643 43.5581 27.3952C43.5581 26.9257 43.178 26.5456 42.7085 26.5456H39.1703C39.1167 26.5456 39.0733 26.5018 39.0733 26.4482V20.7966C39.0733 20.743 39.1167 20.6992 39.1703 20.6992H55.0403C55.0942 20.6992 55.1376 20.743 55.1376 20.7966V26.4482C55.1376 26.5022 55.0942 26.5456 55.0403 26.5456H46.6973C46.2282 26.5456 45.8477 26.9257 45.8477 27.3952C45.8477 27.8643 46.2282 28.2448 46.6973 28.2448H53.2831V28.9568C53.2831 30.2029 53.7349 31.4043 54.5557 32.3406C55.0557 32.9106 55.3314 33.6425 55.3314 34.4014V52.4923ZM75.2729 62.6991L64.0501 73.9414C64.0315 73.9604 64.0089 73.9697 63.9824 73.9697C63.9563 73.9697 63.9337 73.9604 63.9147 73.9414L59.9264 69.946C59.8879 69.9075 59.8879 69.8451 59.9264 69.8066L60.5685 69.1632L60.5689 69.1628L67.0839 62.6367L71.1492 58.5644C71.1864 58.5267 71.247 58.5267 71.2842 58.5644L75.2729 62.5597C75.3114 62.5982 75.3114 62.6606 75.2729 62.6991Z"/>
</mask>
<path d="M76.4756 61.3592L72.4873 57.3638C72.1479 57.024 71.697 56.8368 71.2169 56.8368C70.7372 56.8368 70.2859 57.024 69.9469 57.3638L69.8544 57.4563L69.5925 57.1944C69.269 56.87 69.0185 56.4926 68.8486 56.0815C68.8336 56.027 68.8137 55.9739 68.788 55.9239C68.6579 55.5584 68.5902 55.1695 68.5902 54.7699V53.6397C68.6676 53.6804 68.7522 53.7101 68.8429 53.7256C68.8915 53.734 68.9398 53.738 68.9876 53.738C69.3907 53.738 69.7473 53.4503 69.8221 53.0415C69.9128 52.5821 69.615 52.1357 69.1553 52.0436C68.953 52.0033 68.753 52.0383 68.5849 52.1295C68.5327 50.9223 68.0393 49.7948 67.1808 48.9346L63.3116 45.0587C62.4434 44.1891 61.2889 43.7104 60.0609 43.7104C59.1104 43.7104 58.205 43.9984 57.4413 44.5316L57.0306 44.1188V34.4014C57.0306 33.2301 56.6054 32.0999 55.8337 31.2198C55.2845 30.5941 54.9823 29.7905 54.9823 28.9568V28.2448H55.0407C56.031 28.2448 56.8368 27.439 56.8368 26.4482V20.7966C56.8368 19.8058 56.031 19 55.0407 19H39.1703C38.1799 19 37.3741 19.8058 37.3741 20.7966V26.4482C37.3741 27.439 38.1799 28.2448 39.1703 28.2448H39.3012V28.6174C39.3012 29.5334 38.945 30.3945 38.2985 31.0419L36.5856 32.7579C35.6767 33.6686 35.1762 34.8788 35.1762 36.1665V41.6478C35.1762 42.3926 35.355 43.0957 35.6696 43.7188C34.543 43.7838 33.4929 44.2533 32.6884 45.0587L28.8192 48.9346C27.9103 49.8452 27.4098 51.0559 27.4098 52.3432V54.7699C27.4098 55.6859 27.054 56.547 26.4075 57.1944L26.1487 57.4537C26.1473 57.4546 26.1465 57.4554 26.1456 57.4563L26.0535 57.3638C25.7141 57.024 25.2632 56.8368 24.7831 56.8368C24.3034 56.8368 23.8521 57.024 23.5131 57.3638L19.5244 61.3592C18.8252 62.0597 18.8252 63.1996 19.5244 63.9001L20.8904 65.2679C21.2218 65.6002 21.7599 65.6006 22.0918 65.2692C22.4237 64.9373 22.4245 64.3997 22.0927 64.0674L20.7271 62.6991C20.6886 62.6606 20.6886 62.5982 20.7271 62.5597L24.7158 58.5644C24.753 58.5272 24.8136 58.5267 24.8508 58.5644L25.5442 59.2591H25.5446L35.0129 68.7437L36.0736 69.8066C36.1121 69.8451 36.1121 69.9075 36.0736 69.946L32.0853 73.9414C32.0477 73.979 31.9871 73.979 31.9499 73.9414L24.4981 66.4768C24.1667 66.1445 23.6286 66.144 23.2967 66.4755C22.9644 66.8073 22.964 67.345 23.2954 67.6773L30.7476 75.1419C31.0866 75.4818 31.5379 75.6689 32.0181 75.6689C32.4977 75.6689 32.9486 75.4818 33.288 75.1419L37.2763 71.1465C37.9755 70.4465 37.9755 69.3066 37.2763 68.6061L37.233 68.5628L37.7361 68.0587C38.3237 67.4698 39.1043 67.1158 39.934 67.0622C41.1018 66.9866 42.2005 66.4883 43.0276 65.6595L46.6915 61.9876C47.7482 61.7101 48.5708 60.8495 48.7943 59.7715C49.1709 59.9507 49.5917 60.0516 50.036 60.0516C51.6339 60.0516 52.9339 58.7502 52.9339 57.1501V55.1327C53.2994 55.2996 53.7052 55.3934 54.1327 55.3934C55.7306 55.3934 57.0302 54.092 57.0302 52.4919V46.5278L59.6436 49.1541C59.8096 49.3209 60.0277 49.4041 60.2459 49.4041C60.4627 49.4041 60.6795 49.3218 60.8455 49.1567C61.1778 48.8257 61.1791 48.2881 60.8481 47.9553L58.6692 45.7658C59.0909 45.5335 59.5662 45.4096 60.0609 45.4096C60.8344 45.4096 61.5619 45.7114 62.1088 46.2596L65.9781 50.1351C66.5666 50.7249 66.891 51.5091 66.891 52.3432V54.7699C66.891 56.1394 67.4233 57.4267 68.3897 58.3949L68.6535 58.6591L67.4211 59.8936L59.9675 67.36L59.552 66.9436C59.5476 66.9397 59.5436 66.9352 59.5392 66.9312L59.4662 66.8578C58.5865 65.9768 57.4178 65.4471 56.1762 65.3665C55.4208 65.3174 54.7101 64.9953 54.1725 64.4572L51.3807 61.6805C51.048 61.3495 50.5099 61.3508 50.1789 61.6836C49.8483 62.0163 49.8497 62.5544 50.1824 62.885L52.9724 65.6595C53.7995 66.4883 54.8982 66.9866 56.0664 67.0622C56.8957 67.1158 57.6763 67.4698 58.2639 68.0583L58.3051 68.0995C58.3272 68.1247 58.3506 68.1481 58.3754 68.1703L58.767 68.5623L58.7237 68.6061C58.0245 69.3066 58.0245 70.4461 58.7237 71.1465L62.712 75.1419C63.0514 75.4818 63.5023 75.6689 63.9824 75.6689C64.4621 75.6689 64.9134 75.4818 65.2528 75.1419L76.4756 63.8996C77.1748 63.1992 77.1748 62.0597 76.4756 61.3592ZM69.1597 52.9109L69.1438 52.9083L68.9889 52.8768L69.1597 52.9109ZM41.8248 64.459C41.2899 64.9953 40.5792 65.3174 39.8243 65.3665C38.5822 65.4471 37.4135 65.9768 36.5338 66.8578L36.0325 67.36L35.5811 66.9078C35.5753 66.902 35.5696 66.8958 35.5638 66.8905L27.3465 58.6591L27.6103 58.3949C28.5767 57.4267 29.109 56.1394 29.109 54.7699V52.3432C29.109 51.5091 29.4329 50.7249 30.0219 50.1351L33.8912 46.2596C34.4381 45.7114 35.1656 45.4096 35.9391 45.4096C36.4351 45.4096 36.9122 45.5344 37.3352 45.7684L35.1528 47.9544C34.8213 48.2863 34.8218 48.8244 35.1536 49.1558C35.3196 49.3213 35.5368 49.4041 35.7541 49.4041C35.9718 49.4041 36.1895 49.3209 36.3555 49.1549L38.9623 46.5433V57.1501C38.9623 58.7502 40.2624 60.0516 41.8602 60.0516C42.3107 60.0516 42.7373 59.9481 43.1178 59.764C43.2904 60.6061 43.8285 61.3159 44.5578 61.7203L41.8248 64.459ZM55.3314 52.4923C55.3314 53.1552 54.7933 53.6946 54.1327 53.6946C53.4716 53.6946 52.9339 53.1552 52.9339 52.4923V43.0152C52.9339 42.5461 52.5538 42.1656 52.0843 42.1656C51.6148 42.1656 51.2347 42.5461 51.2347 43.0152V57.1506C51.2347 57.8134 50.6971 58.3524 50.036 58.3524C49.4426 58.3524 48.9501 57.9179 48.8549 57.3492V43.0054C48.8549 42.5359 48.4748 42.1558 48.0053 42.1558C47.8544 42.1558 47.7124 42.1957 47.5894 42.2647C47.3208 42.4076 47.138 42.6899 47.138 43.0152V57.1501C47.138 57.2581 47.1442 57.3638 47.1557 57.4687V59.1808C47.1557 59.8436 46.6181 60.3831 45.957 60.3831C45.2963 60.3831 44.7587 59.8436 44.7587 59.1808V42.9953C44.7587 42.5262 44.3781 42.1457 43.909 42.1457C43.4395 42.1457 43.059 42.5262 43.059 42.9953V57.1501C43.059 57.813 42.5213 58.3524 41.8607 58.3524C41.1996 58.3524 40.6619 57.813 40.6619 57.1501V41.3461C40.6619 40.8766 40.2814 40.496 39.8123 40.496C39.3428 40.496 38.9627 40.8766 38.9627 41.3461V44.2692C38.8915 44.2923 38.8224 44.3246 38.7583 44.367C37.6595 43.9542 36.8754 42.8913 36.8754 41.6478V36.1665C36.8754 35.3324 37.1998 34.5483 37.7883 33.9584L39.5013 32.2424C40.4681 31.2742 41.0005 29.987 41.0005 28.6174V28.2448H42.7085C43.178 28.2448 43.5581 27.8643 43.5581 27.3952C43.5581 26.9257 43.178 26.5456 42.7085 26.5456H39.1703C39.1167 26.5456 39.0733 26.5018 39.0733 26.4482V20.7966C39.0733 20.743 39.1167 20.6992 39.1703 20.6992H55.0403C55.0942 20.6992 55.1376 20.743 55.1376 20.7966V26.4482C55.1376 26.5022 55.0942 26.5456 55.0403 26.5456H46.6973C46.2282 26.5456 45.8477 26.9257 45.8477 27.3952C45.8477 27.8643 46.2282 28.2448 46.6973 28.2448H53.2831V28.9568C53.2831 30.2029 53.7349 31.4043 54.5557 32.3406C55.0557 32.9106 55.3314 33.6425 55.3314 34.4014V52.4923ZM75.2729 62.6991L64.0501 73.9414C64.0315 73.9604 64.0089 73.9697 63.9824 73.9697C63.9563 73.9697 63.9337 73.9604 63.9147 73.9414L59.9264 69.946C59.8879 69.9075 59.8879 69.8451 59.9264 69.8066L60.5685 69.1632L60.5689 69.1628L67.0839 62.6367L71.1492 58.5644C71.1864 58.5267 71.247 58.5267 71.2842 58.5644L75.2729 62.5597C75.3114 62.5982 75.3114 62.6606 75.2729 62.6991Z" fill="#231D36" stroke="#E6C2FF" stroke-width="0.2" mask="url(#path-26-inside-1_193_3605)"/>
<path d="M41.0061 23.6221C41.0061 23.15 41.3895 22.7658 41.8605 22.7658C42.332 22.7658 42.7155 23.15 42.7155 23.6221C42.7155 24.0946 42.332 24.4783 41.8605 24.4783C41.3895 24.4783 41.0061 24.0946 41.0061 23.6221Z" fill="#231D36" stroke="#E6C2FF" stroke-width="0.1"/>
<path d="M70.6398 62.3511C70.6398 61.879 71.0233 61.4948 71.4948 61.4948C71.9658 61.4948 72.3492 61.879 72.3492 62.3511C72.3492 62.8231 71.9658 63.2073 71.4948 63.2073C71.0233 63.2073 70.6398 62.8231 70.6398 62.3511Z" fill="#231D36" stroke="#E6C2FF" stroke-width="0.1"/>
<path d="M32.2536 69.2565C32.7245 69.2565 33.108 69.6407 33.108 70.1128C33.108 70.5849 32.7245 70.969 32.2536 70.969C31.7821 70.969 31.3986 70.5848 31.3986 70.1128C31.3986 69.6407 31.7821 69.2565 32.2536 69.2565Z" fill="#231D36" stroke="#E6C2FF" stroke-width="0.1"/>
</g>
<defs>
<clipPath id="clip0_193_3605">
<rect width="58" height="58" fill="white" transform="translate(19 19)"/>
</clipPath>
</defs>
</svg>
