<svg width="95" height="95" viewBox="0 0 95 95" fill="none" xmlns="http://www.w3.org/2000/svg">
<rect width="95" height="95" rx="47.5" fill="#BBC3FA"/>
<g clip-path="url(#clip0_193_3581)">
<path d="M32.3222 61.3399C30.6794 61.3399 29.0904 60.754 27.8483 59.6893C26.3065 58.378 25.4214 56.4633 25.4214 54.4391C25.4214 50.6338 28.5169 47.5381 32.3224 47.5381C36.1278 47.5381 39.2233 50.6336 39.2233 54.4391C39.2233 56.4626 38.3382 58.3768 36.7947 59.691C35.554 60.754 33.965 61.3399 32.3222 61.3399ZM32.3222 49.233C29.4516 49.233 27.1162 51.5685 27.1162 54.4391C27.1162 55.9655 27.784 57.4097 28.9484 58.4003C29.8861 59.2035 31.0836 59.6449 32.3222 59.6449C33.5608 59.6449 34.7583 59.2035 35.6939 58.4024C36.8604 57.4088 37.5282 55.965 37.5282 54.4391C37.5282 51.5685 35.1928 49.233 32.3222 49.233Z" fill="#231D36"/>
<path d="M41.6441 69.9371H39.9491V65.4326C39.9491 63.0672 38.5363 60.9421 36.3905 60.011C35.2166 60.8716 33.791 61.3401 32.322 61.3401C30.853 61.3401 29.4275 60.8716 28.2536 60.011C26.1076 60.9421 24.6949 63.0664 24.6949 65.4318V69.9363H23V65.4318C23 62.1925 25.0587 59.3043 28.1224 58.2449C28.405 58.1463 28.722 58.2063 28.9503 58.4026C29.886 59.2037 31.0834 59.6452 32.322 59.6452C33.5607 59.6452 34.7581 59.2037 35.6937 58.4026C35.9217 58.2065 36.2383 58.1465 36.5217 58.2449C39.5855 59.3041 41.6441 62.1925 41.6441 65.4326V69.9371Z" fill="#231D36"/>
<path d="M63.6782 61.3399C62.0353 61.3399 60.4463 60.754 59.2042 59.6893C57.6625 58.378 56.7773 56.4633 56.7773 54.4391C56.7773 50.6338 59.8729 47.5381 63.6783 47.5381C67.4837 47.5381 70.5793 50.6336 70.5793 54.4391C70.5793 56.4626 69.6942 58.3768 68.1507 59.691C66.91 60.754 65.321 61.3399 63.6782 61.3399ZM63.6782 49.233C60.8076 49.233 58.4721 51.5685 58.4721 54.4391C58.4721 55.9655 59.14 57.4097 60.3044 58.4003C61.2421 59.2035 62.4395 59.6449 63.6782 59.6449C64.9166 59.6449 66.1142 59.2035 67.0499 58.4024C68.2163 57.4088 68.8842 55.965 68.8842 54.4391C68.8842 51.5685 66.5487 49.233 63.6782 49.233Z" fill="#231D36"/>
<path d="M73 69.937H71.3051V65.4324C71.3051 63.0671 69.8923 60.9419 67.746 60.0109C66.5724 60.8707 65.147 61.3392 63.678 61.3392C62.209 61.3392 60.7834 60.8707 59.6095 60.0101C57.4635 60.9411 56.0509 63.0663 56.0509 65.4316V69.9362H54.356V65.4316C54.356 62.1916 56.4147 59.3034 59.4783 58.2439C59.7614 58.1462 60.0775 58.2051 60.3063 58.4017C61.2419 59.2028 62.4394 59.6442 63.678 59.6442C64.9165 59.6442 66.114 59.2028 67.0497 58.4017C67.2777 58.2051 67.5935 58.1451 67.8781 58.2444C70.9419 59.3046 73.0002 62.1934 73.0002 65.4324V69.937H73Z" fill="#231D36"/>
<path d="M46.3049 23.4382C45.8369 23.4382 45.4575 23.0588 45.4575 22.5908V20.9104C45.4575 20.4424 45.8369 20.063 46.3049 20.063C46.7729 20.063 47.1523 20.4424 47.1523 20.9104V22.5908C47.1524 23.0588 46.7729 23.4382 46.3049 23.4382Z" fill="#231D36"/>
<path d="M46.3049 41.2496C45.8369 41.2496 45.4575 40.8702 45.4575 40.4022V31.3283C45.4575 30.8604 45.8369 30.481 46.3049 30.481C46.7729 30.481 47.1523 30.8604 47.1523 31.3283V40.4022C47.1524 40.87 46.7729 41.2496 46.3049 41.2496Z" fill="#231D36"/>
<path d="M59.0751 32.1753H46.3049C45.8369 32.1753 45.4575 31.7959 45.4575 31.3279V22.5905C45.4575 22.1226 45.8369 21.7432 46.3049 21.7432H59.0751C59.3908 21.7432 59.6801 21.9186 59.8261 22.1979C59.9722 22.4777 59.951 22.8152 59.7707 23.0743L57.0694 26.9595L59.7707 30.8441C59.9512 31.1032 59.9722 31.4408 59.8261 31.7206C59.6801 31.9999 59.3908 32.1753 59.0751 32.1753ZM47.1524 30.4804H57.4535L55.3415 27.4431C55.1391 27.1523 55.1391 26.7665 55.3415 26.4757L57.4535 23.4379H47.1524V30.4804Z" fill="#231D36"/>
<path d="M34.7798 46.1645C34.4989 46.5389 33.9676 46.6148 33.5933 46.3339C33.2189 46.0531 33.1432 45.5219 33.424 45.1475C33.7049 44.7731 34.2362 44.6972 34.6105 44.9781C34.9848 45.2589 35.0606 45.7901 34.7798 46.1645ZM36.8136 43.4527C36.5328 43.827 36.0016 43.9028 35.6273 43.6219C35.2529 43.341 35.1771 42.8099 35.458 42.4355C35.7389 42.0612 36.27 41.9854 36.6444 42.2663C37.0187 42.5472 37.0945 43.0783 36.8136 43.4527ZM38.8474 40.7407C38.5666 41.1151 38.0353 41.191 37.6609 40.9101C37.2866 40.6293 37.2109 40.0981 37.4917 39.7237C37.7725 39.3493 38.3038 39.2734 38.6782 39.5543C39.0525 39.8351 39.1282 40.3663 38.8474 40.7407ZM40.8817 38.0287C40.601 38.4031 40.0696 38.4789 39.6951 38.1981C39.3207 37.9174 39.2445 37.3861 39.5252 37.0116C39.806 36.6372 40.3374 36.5615 40.7118 36.8422C41.0862 37.123 41.1624 37.6543 40.8817 38.0287ZM42.9156 35.3171C42.6349 35.6916 42.1035 35.7673 41.729 35.4865C41.3546 35.2058 41.2784 34.6745 41.5592 34.3001C41.8399 33.9256 42.3713 33.8499 42.7458 34.1307C43.1202 34.4114 43.1964 34.9427 42.9156 35.3171Z" fill="#231D36"/>
<path d="M63.2542 46.3342C62.8888 46.6267 62.3554 46.5676 62.0629 46.2022C61.7705 45.8368 61.8297 45.3035 62.1951 45.0111C62.5605 44.7186 63.0939 44.7776 63.3863 45.1431C63.6787 45.5085 63.6195 46.0417 63.2542 46.3342ZM61.1362 43.6872C60.7708 43.9795 60.2376 43.9202 59.9453 43.5548C59.653 43.1894 59.7123 42.6562 60.0777 42.3639C60.4431 42.0716 60.9763 42.1309 61.2686 42.4963C61.5609 42.8617 61.5016 43.3949 61.1362 43.6872ZM59.0189 41.04C58.6535 41.3325 58.12 41.2735 57.8276 40.908C57.5352 40.5426 57.5944 40.0094 57.9597 39.7169C58.3251 39.4244 58.8585 39.4835 59.151 39.8489C59.4434 40.2143 59.3842 40.7476 59.0189 41.04ZM56.901 38.393C56.5356 38.6853 56.0024 38.6261 55.7101 38.2606C55.4178 37.8952 55.4771 37.3621 55.8425 37.0698C56.2079 36.7775 56.7411 36.8368 57.0334 37.2022C57.3257 37.5676 57.2664 38.1007 56.901 38.393ZM54.7837 35.7459C54.4183 36.0384 53.8848 35.9793 53.5924 35.6139C53.3 35.2485 53.3592 34.7152 53.7245 34.4228C54.0899 34.1303 54.6234 34.1893 54.9158 34.5548C55.2082 34.9202 55.149 35.4534 54.7837 35.7459Z" fill="#231D36"/>
</g>
<defs>
<clipPath id="clip0_193_3581">
<rect width="50" height="50" fill="white" transform="translate(23 20)"/>
</clipPath>
</defs>
</svg>
