<svg width="95" height="95" viewBox="0 0 95 95" fill="none" xmlns="http://www.w3.org/2000/svg">
<rect width="95" height="95" rx="47.5" fill="#CFFFD1"/>
<g clip-path="url(#clip0_193_3656)">
<path d="M59.999 48.8348H47.298V47.1158H59.999C64.4599 47.1158 68.0886 43.4867 68.0886 39.0257C68.0886 36.8628 67.2476 34.8303 65.7212 33.3035L65.6859 33.3389L65.7212 33.3035C64.1945 31.7771 62.162 30.9361 59.999 30.9361H53.8918V29.217H59.999C62.6215 29.217 65.0853 30.2367 66.9366 32.088C68.7879 33.9392 69.8076 36.4033 69.8076 39.0256C69.8076 44.4345 65.4073 48.8348 59.999 48.8348Z" fill="#231D36" stroke="#BBC3FA" stroke-width="0.1"/>
<path d="M40.9318 65.0051H63.6052V66.7241H40.9318V65.0051Z" fill="#231D36" stroke="#BBC3FA" stroke-width="0.1"/>
<path d="M31.7419 47.1159H40.6775V48.8349H31.7419C29.5728 48.8349 27.5402 49.6722 26.0197 51.1929L26.0196 51.193C24.4933 52.7279 23.6518 54.7606 23.6518 56.9152C23.6518 61.3761 27.2809 65.0053 31.7419 65.0053H34.3111V66.7244H31.7419C26.3331 66.7244 21.9328 62.3241 21.9328 56.9153C21.9328 54.3033 22.952 51.8402 24.8025 49.9794C26.6493 48.1321 29.1131 47.1159 31.7419 47.1159Z" fill="#231D36" stroke="#BBC3FA" stroke-width="0.1"/>
<path d="M27.5168 29.217H47.2708V30.936H27.5168V29.217Z" fill="#231D36" stroke="#BBC3FA" stroke-width="0.1"/>
<path d="M24.2063 33.76C21.9145 33.76 20.05 31.8955 20.05 29.6037C20.05 27.312 21.9145 25.4475 24.2063 25.4475C26.498 25.4475 28.3625 27.312 28.3625 29.6037C28.3625 31.8955 26.4982 33.76 24.2063 33.76ZM24.2063 27.1663C22.8624 27.1663 21.7688 28.2597 21.7688 29.6037C21.7688 30.9477 22.8622 32.0412 24.2063 32.0412C25.5503 32.0412 26.6437 30.9477 26.6437 29.6037C26.6437 28.2597 25.5503 27.1663 24.2063 27.1663Z" fill="#231D36" stroke="#BBC3FA" stroke-width="0.1"/>
<path d="M46.4702 30.1983L46.4703 30.1983L46.4699 30.1965C46.4386 30.0245 46.425 29.8212 46.425 29.6037C46.425 27.3145 48.2877 25.4519 50.5769 25.4519C52.8711 25.4519 54.7377 27.3146 54.7377 29.6037C54.7377 29.821 54.7241 30.0244 54.6878 30.2273L54.6878 30.2273L54.6875 30.229C54.4029 32.2258 52.6336 33.7556 50.5769 33.7556C48.5257 33.7556 46.7597 32.2261 46.4702 30.1983ZM50.5769 27.1707C49.2352 27.1707 48.144 28.2619 48.144 29.6035C48.144 29.7126 48.148 29.8184 48.1668 29.9249C48.3416 31.1417 49.3751 32.0364 50.5769 32.0364C51.7834 32.0364 52.8211 31.142 52.991 29.9555C53.0146 29.8189 53.0187 29.7133 53.0187 29.6035C53.0186 28.2619 51.9231 27.1707 50.5769 27.1707Z" fill="#231D36" stroke="#BBC3FA" stroke-width="0.1"/>
<path d="M39.8765 48.0973L39.8765 48.0973L39.8762 48.0955C39.8449 47.9226 39.8313 47.7193 39.8313 47.5027C39.8313 45.2081 41.694 43.3415 43.9831 43.3415C46.2772 43.3415 48.144 45.2082 48.144 47.5027C48.144 47.719 48.1304 47.9225 48.0941 48.1258L48.094 48.1257L48.0938 48.1275C47.8091 50.1243 46.0401 51.654 43.9831 51.654C41.9314 51.654 40.1659 50.1246 39.8765 48.0973ZM43.9831 45.0603C42.6413 45.0603 41.5502 46.1563 41.5502 47.5025C41.5502 47.6116 41.5543 47.7174 41.573 47.8244C41.7478 49.0407 42.7814 49.9351 43.9831 49.9351C45.1897 49.9351 46.2273 49.0412 46.3973 47.8545C46.4208 47.7179 46.425 47.6123 46.425 47.5025C46.425 46.156 45.3297 45.0603 43.9831 45.0603Z" fill="#231D36" stroke="#BBC3FA" stroke-width="0.1"/>
<path d="M33.5095 65.9805L33.5095 65.9805L33.5091 65.9781C33.4783 65.8117 33.465 65.6071 33.465 65.4011C33.465 63.107 35.3318 61.2399 37.6259 61.2399C39.915 61.2399 41.7777 63.1071 41.7777 65.4011C41.7777 65.6069 41.7645 65.8116 41.7279 66.0158L41.7278 66.0158L41.7275 66.0179C41.4561 68.0167 39.6902 69.553 37.6259 69.553C35.5563 69.553 33.7867 68.0169 33.5095 65.9805ZM37.6259 62.9584C36.2793 62.9584 35.184 64.0546 35.184 65.4011C35.184 65.5034 35.1884 65.6075 35.2068 65.7126C35.3749 66.9386 36.4123 67.8342 37.6259 67.8342C38.8342 67.8342 39.868 66.9389 40.0302 65.7498C40.0543 65.6081 40.0588 65.5043 40.0588 65.4011C40.0588 64.0548 38.9677 62.9584 37.6259 62.9584Z" fill="#231D36" stroke="#BBC3FA" stroke-width="0.1"/>
<path d="M65.6526 68.6436C64.0771 68.6436 62.7951 67.3612 62.7951 65.7858C62.7951 64.2103 64.0769 62.9279 65.6526 62.9279C67.2286 62.9279 68.5104 64.2103 68.5104 65.7858C68.5104 67.3612 67.2286 68.6436 65.6526 68.6436ZM65.6526 64.6467C65.025 64.6467 64.5141 65.1576 64.5141 65.7856C64.5141 66.4135 65.025 66.9244 65.6526 66.9244C66.2805 66.9244 66.7914 66.4135 66.7914 65.7856C66.7914 65.1576 66.2805 64.6467 65.6526 64.6467Z" fill="#231D36" stroke="#BBC3FA" stroke-width="0.1"/>
<path d="M66.512 52.0196V52.0196C66.5121 52.4941 66.1272 52.879 65.6526 52.879C65.1779 52.879 64.7932 52.4942 64.7932 52.0196V50.9089C64.7932 50.4343 65.1779 50.0495 65.6526 50.0495C66.1272 50.0495 66.512 50.4343 66.512 50.9089V52.0196Z" fill="#231D36" stroke="#BBC3FA" stroke-width="0.1"/>
<path d="M66.512 63.7873V63.7873C66.5121 64.2622 66.1272 64.6467 65.6526 64.6467C65.1779 64.6467 64.7932 64.2622 64.7932 63.7873V57.7922C64.7932 57.3176 65.1779 56.9328 65.6526 56.9328C66.1272 56.9328 66.512 57.3176 66.512 57.7922V63.7873Z" fill="#231D36" stroke="#BBC3FA" stroke-width="0.1"/>
<path d="M74.8519 51.622L74.8519 51.622C75 51.9053 74.9787 52.2478 74.7957 52.5103L74.7957 52.5104L73.1499 54.8768L73.13 54.9054L73.1499 54.9339L74.796 57.3017C74.796 57.3017 74.796 57.3017 74.796 57.3017C74.9785 57.5645 75 57.9068 74.8519 58.1906C74.7036 58.4738 74.4099 58.6518 74.0902 58.6518H65.6526C65.1779 58.6518 64.7932 58.267 64.7932 57.7924V52.0198C64.7932 51.5451 65.1779 51.1604 65.6526 51.1604H74.0902C74.4104 51.1604 74.7038 51.3382 74.8519 51.622ZM72.3503 56.9328H72.446L72.3914 56.8542L71.3771 55.3959C71.1723 55.1009 71.1723 54.7092 71.3776 54.4146L71.3776 54.4146L72.391 52.9575L72.4457 52.879H72.35H66.5623H66.5123V52.929V56.8828H66.5621V56.9328H66.5623H66.6123H72.3503Z" fill="#231D36" stroke="#BBC3FA" stroke-width="0.1"/>
</g>
<defs>
<clipPath id="clip0_193_3656">
<rect width="55" height="55" fill="white" transform="translate(20 20)"/>
</clipPath>
</defs>
</svg>
