<svg width="85" height="84" viewBox="0 0 85 84" fill="none" xmlns="http://www.w3.org/2000/svg">
<g clip-path="url(#clip0_193_4042)">
<path d="M35.8702 37.3875C35.7155 37.9922 35.0968 38.3437 34.5062 38.1891C34.2671 38.1328 34.028 38.1047 33.789 38.1047C32.3124 38.1047 31.0608 39.2578 30.9343 40.7203C30.8921 41.3109 30.3999 41.7469 29.8093 41.7469C29.7812 41.7469 29.753 41.7469 29.7108 41.7469C29.0921 41.6906 28.628 41.1563 28.6843 40.5375C28.9093 37.9078 31.1452 35.8547 33.7749 35.8547C34.2108 35.8547 34.6468 35.9109 35.0546 36.0234C35.6593 36.1781 36.0249 36.7828 35.8702 37.3875V37.3875ZM74.7671 57.9891C74.7671 60.2391 72.939 62.0672 70.689 62.0672C68.439 62.0672 66.6108 60.2391 66.6108 57.9891C66.6108 57.6375 66.653 57.3 66.7374 56.9906L60.6062 53.4469C58.9608 54.8531 56.8233 55.7109 54.503 55.7109H44.153V69.9984C45.8546 70.4906 47.1062 72.0516 47.1062 73.9078C47.1062 76.1578 45.278 77.9859 43.028 77.9859C40.778 77.9859 38.9499 76.1578 38.9499 73.9078C38.9499 72.0516 40.2015 70.4766 41.903 69.9984V55.725H31.553C29.2187 55.725 27.0812 54.8672 25.4499 53.4609L19.2624 57.0328C19.3327 57.3422 19.3749 57.6656 19.3749 58.0031C19.3749 60.2531 17.5468 62.0812 15.2968 62.0812C13.0468 62.0812 11.2187 60.2531 11.2187 58.0031C11.2187 55.7531 13.0468 53.925 15.2968 53.925C16.3937 53.925 17.3921 54.3609 18.1233 55.0781L23.8749 51.7594C22.7921 50.2266 22.1593 48.3703 22.1593 46.3594C22.1593 43.9125 23.1296 41.55 24.8452 39.8062C25.1124 37.7531 26.0968 35.8547 27.6155 34.4203L18.1374 28.95C17.4062 29.6672 16.3937 30.1172 15.2827 30.1172C13.0327 30.1172 11.2046 28.2891 11.2046 26.0391C11.2046 23.7891 13.0327 21.9609 15.2827 21.9609C17.5327 21.9609 19.3608 23.7891 19.3608 26.0391C19.3608 26.3625 19.3187 26.6859 19.2483 26.9953L29.6405 33C30.9062 32.3531 32.3124 32.0016 33.7608 32.0016C34.253 32.0016 34.7593 32.0438 35.2374 32.1281C36.8687 30.0188 39.2593 28.6688 41.889 28.3594V13.9875C40.1874 13.4953 38.9358 11.9344 38.9358 10.0781C38.9358 7.82812 40.764 6 43.014 6C45.264 6 47.0921 7.82812 47.0921 10.0781C47.0921 11.9344 45.8405 13.5094 44.139 13.9875V28.3453C46.7687 28.6406 49.1593 29.9906 50.7905 32.1141C51.2827 32.0297 51.7749 31.9875 52.2671 31.9875C53.7155 31.9875 55.1218 32.3391 56.3874 32.9859L66.6108 27.0797C66.5265 26.7422 66.4702 26.3906 66.4702 26.0391C66.4702 23.7891 68.2983 21.9609 70.5483 21.9609C72.7983 21.9609 74.6265 23.7891 74.6265 26.0391C74.6265 28.2891 72.7983 30.1172 70.5483 30.1172C69.4796 30.1172 68.4952 29.6953 67.764 29.0203L58.4265 34.4062C59.9593 35.8406 60.9296 37.725 61.1968 39.7922C62.9124 41.5359 63.8827 43.9125 63.8827 46.3453C63.8827 48.3562 63.2499 50.2266 62.1671 51.7453L67.8905 55.05C68.6218 54.3469 69.6062 53.925 70.703 53.925C72.939 53.925 74.7671 55.7531 74.7671 57.9891V57.9891ZM43.028 72.1078C42.0296 72.1078 41.1999 72.9234 41.1999 73.9359C41.1999 74.9484 42.0155 75.7641 43.028 75.7641C44.0405 75.7641 44.8562 74.9484 44.8562 73.9359C44.8562 72.9234 44.0405 72.1078 43.028 72.1078ZM68.7483 26.025C68.7483 27.0234 69.564 27.8531 70.5765 27.8531C71.589 27.8531 72.4046 27.0375 72.4046 26.025C72.4046 25.0125 71.589 24.1969 70.5765 24.1969C69.564 24.1969 68.7483 25.0266 68.7483 26.025ZM43.028 11.8922C44.0265 11.8922 44.8562 11.0766 44.8562 10.0641C44.8562 9.05156 44.0405 8.23594 43.028 8.23594C42.0155 8.23594 41.1999 9.05156 41.1999 10.0641C41.1999 11.0766 42.0296 11.8922 43.028 11.8922ZM17.1249 26.025C17.1249 25.0266 16.3093 24.1969 15.2968 24.1969C14.2843 24.1969 13.4687 25.0125 13.4687 26.025C13.4687 27.0375 14.2843 27.8531 15.2968 27.8531C16.3093 27.8531 17.1249 27.0375 17.1249 26.025ZM17.1249 57.9891C17.1249 56.9906 16.3093 56.1609 15.2968 56.1609C14.2843 56.1609 13.4687 56.9766 13.4687 57.9891C13.4687 59.0016 14.2843 59.8172 15.2968 59.8172C16.3093 59.8172 17.1249 59.0016 17.1249 57.9891ZM61.6327 46.3453C61.6327 44.3906 60.803 42.4922 59.3546 41.1422C59.1437 40.9453 59.0171 40.6922 59.003 40.4109C58.7218 36.9516 55.7687 34.2375 52.2952 34.2375C51.7187 34.2375 51.1562 34.3078 50.6077 34.4484C50.1437 34.575 49.6515 34.3781 49.3843 33.9703C47.978 31.8187 45.6155 30.525 43.0421 30.525C40.4687 30.525 38.1062 31.8187 36.6999 33.9703C36.4327 34.3781 35.9405 34.5609 35.4765 34.4484C34.928 34.3078 34.3655 34.2375 33.789 34.2375C30.3155 34.2375 27.3624 36.9516 27.0812 40.4109C27.053 40.6922 26.9265 40.9453 26.7296 41.1422C25.2812 42.4922 24.4515 44.3906 24.4515 46.3453C24.4515 50.2687 27.6437 53.475 31.5812 53.475H54.5312C58.4405 53.475 61.6327 50.2687 61.6327 46.3453ZM72.5171 57.9891C72.5171 56.9906 71.7015 56.1609 70.689 56.1609C69.6765 56.1609 68.8608 56.9766 68.8608 57.9891C68.8608 59.0016 69.6765 59.8172 70.689 59.8172C71.7015 59.8172 72.5171 59.0016 72.5171 57.9891Z" fill="black"/>
</g>
<defs>
<clipPath id="clip0_193_4042">
<rect width="72" height="72" fill="white" transform="translate(7 6)"/>
</clipPath>
</defs>
</svg>
