<svg width="85" height="84" viewBox="0 0 85 84" fill="none" xmlns="http://www.w3.org/2000/svg">
<path d="M59.6987 50.3694V50.4469L59.7737 50.4662C61.8424 51.0004 63.2905 52.8626 63.2986 54.9991C63.2986 55.6065 62.8061 56.0989 62.1987 56.0989C61.5912 56.0989 61.0987 55.6064 61.0987 54.9989C61.0987 53.6183 59.9794 52.499 58.5987 52.499C57.2181 52.499 56.0988 53.6183 56.0988 54.9989C56.0988 56.3796 57.2181 57.4989 58.5987 57.4989H58.5989C60.9625 57.496 62.9591 59.2523 63.2575 61.5971C63.5559 63.9419 62.0629 66.1423 59.7738 66.7315L59.6987 66.7508V66.8283V68.1987C59.6987 68.8062 59.2062 69.2987 58.5987 69.2987C57.9912 69.2987 57.4988 68.8062 57.4988 68.1987V66.8283V66.7509L57.4238 66.7315C55.3551 66.1974 53.9069 64.3351 53.8988 62.1986C53.8989 61.5912 54.3914 61.0988 54.9988 61.0988C55.6063 61.0988 56.0988 61.5913 56.0988 62.1988C56.0988 63.5795 57.2181 64.6988 58.5987 64.6988C59.9794 64.6988 61.0987 63.5795 61.0987 62.1988C61.0987 60.8181 59.9794 59.6988 58.5987 59.6988H58.5986C56.2349 59.7018 54.2384 57.9454 53.94 55.6006C53.6416 53.2559 55.1346 51.0554 57.4237 50.4663L57.4988 50.4469V50.3694V48.999C57.4988 48.3915 57.9912 47.8991 58.5987 47.8991C59.2062 47.8991 59.6987 48.3915 59.6987 48.999V50.3694Z" fill="black" stroke="#E8E8FF" stroke-width="0.2"/>
<path d="M58.5987 71.8987H58.5989C65.9404 71.8901 71.8898 65.9407 71.8985 58.5991V58.599C71.8985 51.2537 65.944 45.2992 58.5987 45.2992C51.2535 45.2992 45.299 51.2537 45.299 58.599C45.299 65.9442 51.2535 71.8987 58.5987 71.8987ZM43.099 58.599C43.099 50.0387 50.0384 43.0993 58.5987 43.0993C67.1549 43.1092 74.0886 50.0429 74.0984 58.5991C74.0984 67.1593 67.1589 74.0987 58.5987 74.0987C50.0385 74.0987 43.099 67.1592 43.099 58.599Z" fill="black" stroke="#E8E8FF" stroke-width="0.2"/>
<path d="M64.5989 14.0999H64.4989V14.1999V39.103H64.5989L64.5696 39.1986C74.3877 42.2154 80.402 52.0943 78.5736 62.2014C76.7452 72.3086 67.6512 79.4544 57.3984 78.8404C47.1456 78.2263 38.9694 70.0462 38.3604 59.7931L38.3549 59.699H38.2606H12.9999C11.0669 59.699 9.49996 58.132 9.49996 56.1991V26.1996V26.0996H9.39996C8.12972 26.0996 7.1 25.0699 7.1 23.7997V21.3997C7.1 20.1295 8.12972 19.0998 9.39996 19.0998H33.3995H33.4995V18.9998V14.1999V14.0999H33.3995C32.1293 14.0999 31.0996 13.0701 31.0996 11.7999V9.39996C31.0996 8.12972 32.1293 7.1 33.3995 7.1H64.5989C65.8692 7.1 66.8989 8.12972 66.8989 9.39996V11.7999C66.8989 13.0701 65.8692 14.0999 64.5989 14.0999ZM33.3995 9.29996H33.2995V9.39996V11.7999V11.8999H33.3995H64.5989H64.6989V11.7999V9.39996V9.29996H64.5989H33.3995ZM9.39996 21.2997H9.29996V21.3997V23.7997V23.8997H9.39996H33.3995H33.4995V23.7997V21.3997V21.2997H33.3995H9.39996ZM11.7999 26.0996H11.6999V26.1996V56.1991C11.6999 56.917 12.2819 57.4991 12.9999 57.4991H16.5998H16.6998V57.3991V50.1992C16.6998 48.929 17.7295 47.8992 18.9998 47.8992H26.1996C27.4699 47.8992 28.4996 48.929 28.4996 50.1992V57.3991V57.4991H28.5996H33.3995H33.4995V57.3991V26.1996V26.0996H33.3995H11.7999ZM18.8998 57.3991V57.4991H18.9998H26.1996H26.2996V57.3991V50.1992V50.0992H26.1996H18.9998H18.8998V50.1992V57.3991ZM35.7995 14.0999H35.6995V14.1999V24.9997V57.3991V57.4991H35.7995H38.2606H38.3554L38.3605 57.4044C38.6695 51.606 41.4612 46.2217 46.0221 42.6279C50.583 39.0341 56.4709 37.5791 62.1808 38.6349L62.299 38.6568V38.5366V14.1999V14.0999H62.199H35.7995ZM40.4994 58.599C40.4994 68.5952 48.6029 76.6987 58.599 76.6987C68.5906 76.6874 76.6874 68.5906 76.6987 58.5992C76.6987 48.6029 68.5952 40.4994 58.599 40.4994C48.6029 40.4994 40.4994 48.6029 40.4994 58.599Z" fill="black" stroke="#E8E8FF" stroke-width="0.2"/>
<path d="M16.6002 40.4994H16.5002V40.5994V42.9994V43.0994H16.6002H19.0001H19.1001V42.9994V40.5994V40.4994H19.0001H16.6002ZM19.0001 45.2993H16.6002C15.3299 45.2993 14.3002 44.2696 14.3002 42.9994V40.5994C14.3002 39.3292 15.3299 38.2995 16.6002 38.2995H19.0001C20.2703 38.2995 21.3001 39.3292 21.3001 40.5994V42.9994C21.3001 44.2696 20.2703 45.2993 19.0001 45.2993Z" fill="black" stroke="#E8E8FF" stroke-width="0.2"/>
<path d="M26.1998 40.4994H26.0998V40.5994V42.9994V43.0994H26.1998H28.5997H28.6997V42.9994V40.5994V40.4994H28.5997H26.1998ZM28.5997 45.2993H26.1998C24.9295 45.2993 23.8998 44.2696 23.8998 42.9994V40.5994C23.8998 39.3292 24.9295 38.2995 26.1998 38.2995H28.5997C29.8699 38.2995 30.8997 39.3292 30.8997 40.5994V42.9994C30.8997 44.2696 29.8699 45.2993 28.5997 45.2993Z" fill="black" stroke="#E8E8FF" stroke-width="0.2"/>
<path d="M16.6002 30.8996H16.5002V30.9996V33.3995V33.4995H16.6002H19.0001H19.1001V33.3995V30.9996V30.8996H19.0001H16.6002ZM19.0001 35.6995H16.6002C15.3299 35.6995 14.3002 34.6698 14.3002 33.3995V30.9996C14.3002 29.7293 15.3299 28.6996 16.6002 28.6996H19.0001C20.2703 28.6996 21.3001 29.7293 21.3001 30.9996V33.3995C21.3001 34.6698 20.2703 35.6995 19.0001 35.6995Z" fill="black" stroke="#E8E8FF" stroke-width="0.2"/>
<path d="M26.1998 30.8996H26.0998V30.9996V33.3995V33.4995H26.1998H28.5997H28.6997V33.3995V30.9996V30.8996H28.5997H26.1998ZM28.5997 35.6995H26.1998C24.9295 35.6995 23.8998 34.6698 23.8998 33.3995V30.9996C23.8998 29.7293 24.9295 28.6996 26.1998 28.6996H28.5997C29.8699 28.6996 30.8997 29.7293 30.8997 30.9996V33.3995C30.8997 34.6698 29.8699 35.6995 28.5997 35.6995Z" fill="black" stroke="#E8E8FF" stroke-width="0.2"/>
<path d="M41.7994 29.6996H41.6994V29.7996V32.1996V32.2996H41.7994H44.1993H44.2993V32.1996V29.7996V29.6996H44.1993H41.7994ZM44.1993 34.4995H41.7994C40.5291 34.4995 39.4994 33.4698 39.4994 32.1996V29.7996C39.4994 28.5294 40.5291 27.4997 41.7994 27.4997H44.1993C45.4696 27.4997 46.4993 28.5294 46.4993 29.7996V32.1996C46.4993 33.4698 45.4696 34.4995 44.1993 34.4995Z" fill="black" stroke="#E8E8FF" stroke-width="0.2"/>
<path d="M53.7994 29.6996H53.6994V29.7996V32.1996V32.2996H53.7994H56.1993H56.2993V32.1996V29.7996V29.6996H56.1993H53.7994ZM56.1993 34.4995H53.7994C52.5291 34.4995 51.4994 33.4698 51.4994 32.1996V29.7996C51.4994 28.5294 52.5291 27.4997 53.7994 27.4997H56.1993C57.4696 27.4997 58.4993 28.5294 58.4993 29.7996V32.1996C58.4993 33.4698 57.4696 34.4995 56.1993 34.4995Z" fill="black" stroke="#E8E8FF" stroke-width="0.2"/>
<path d="M41.7994 20.0998H41.6994V20.1998V22.5997V22.6997H41.7994H44.1993H44.2993V22.5997V20.1998V20.0998H44.1993H41.7994ZM44.1993 24.8997H41.7994C40.5291 24.8997 39.4994 23.8699 39.4994 22.5997V20.1998C39.4994 18.9295 40.5291 17.8998 41.7994 17.8998H44.1993C45.4696 17.8998 46.4993 18.9295 46.4993 20.1998V22.5997C46.4993 23.8699 45.4696 24.8997 44.1993 24.8997Z" fill="black" stroke="#E8E8FF" stroke-width="0.2"/>
<path d="M53.7994 20.0998H53.6994V20.1998V22.5997V22.6997H53.7994H56.1993H56.2993V22.5997V20.1998V20.0998H56.1993H53.7994ZM56.1993 24.8997H53.7994C52.5291 24.8997 51.4994 23.8699 51.4994 22.5997V20.1998C51.4994 18.9295 52.5291 17.8998 53.7994 17.8998H56.1993C57.4696 17.8998 58.4993 18.9295 58.4993 20.1998V22.5997C58.4993 23.8699 57.4696 24.8997 56.1993 24.8997Z" fill="black" stroke="#E8E8FF" stroke-width="0.2"/>
</svg>
