<svg width="85" height="84" viewBox="0 0 85 84" fill="none" xmlns="http://www.w3.org/2000/svg">
<path d="M74.5986 38.5998C72.6116 38.5998 70.9479 39.9316 70.4021 41.7437H66.5376C66.2421 36.1853 64.0263 31.1413 60.5278 27.2517L63.2642 24.5152C63.898 24.8573 64.6023 25.0585 65.343 25.0585C66.52 25.0585 67.6229 24.6007 68.4554 23.7707C69.2867 22.9395 69.7444 21.8341 69.7444 20.6583C69.7444 19.4825 69.2867 18.3771 68.4554 17.5459C66.798 15.8846 63.8968 15.8834 62.2318 17.5459C61.4005 18.3771 60.9428 19.4825 60.9428 20.6583C60.9428 21.399 61.144 22.1032 61.486 22.7383L58.7496 25.4747C54.86 21.975 49.8159 19.7591 44.2576 19.4636V15.5979C46.0697 15.0521 47.4014 13.3884 47.4014 11.4014C47.4014 8.97436 45.4271 7 43 7C40.5729 7 38.5986 8.97436 38.5986 11.4014C38.5986 13.3884 39.9303 15.0521 41.7424 15.5979V19.4636C36.1841 19.7591 31.14 21.975 27.2504 25.4735L24.514 22.737C24.8573 22.1032 25.0572 21.399 25.0572 20.657C25.0572 19.4812 24.5995 18.3758 23.7682 17.5446C22.1057 15.8834 19.2046 15.8834 17.5446 17.5446C16.7133 18.3758 16.2556 19.4812 16.2556 20.657C16.2556 21.8329 16.7133 22.9382 17.5446 23.7695C18.3746 24.6007 19.48 25.0585 20.657 25.0585C21.3977 25.0585 22.102 24.8573 22.7358 24.5152L25.4722 27.2517C21.9737 31.1413 19.7579 36.1853 19.4624 41.7437H15.5979C15.0521 39.9316 13.3884 38.5998 11.4014 38.5998C8.97436 38.5998 7 40.5742 7 43.0013C7 45.4283 8.97436 47.4027 11.4014 47.4027C13.3884 47.4027 15.0521 46.071 15.5979 44.2588H19.4624C19.7579 49.8172 21.9737 54.8613 25.4722 58.7509L22.7232 61.4999C21.0645 60.6485 18.899 60.8799 17.5446 62.233C16.7133 63.0643 16.2556 64.1697 16.2556 65.3455C16.2556 66.5213 16.7133 67.6267 17.5446 68.4579C18.3746 69.2892 19.48 69.7469 20.657 69.7469C21.8328 69.7469 22.937 69.2892 23.7695 68.4579C24.602 67.6267 25.0585 66.5213 25.0585 65.3455C25.0585 64.6048 24.8573 63.9005 24.5152 63.2655L27.2517 60.529C31.14 64.0276 36.1841 66.2434 41.7424 66.5389V70.4046C39.9303 70.9504 38.5986 72.6141 38.5986 74.6011C38.5986 77.0282 40.5729 79.0025 43 79.0025C45.4271 79.0025 47.4014 77.0282 47.4014 74.6011C47.4014 72.6141 46.0697 70.9504 44.2576 70.4046V66.5389C49.8159 66.2434 54.86 64.0276 58.7496 60.529L61.486 63.2655C61.1427 63.8993 60.9428 64.6035 60.9428 65.3455C60.9428 66.5213 61.4005 67.6267 62.2318 68.4579C63.063 69.2892 64.1684 69.7457 65.3442 69.7457C66.5213 69.7457 67.6254 69.2879 68.4567 68.4567C69.2879 67.6254 69.7457 66.52 69.7457 65.3442C69.7457 64.1684 69.2879 63.063 68.4567 62.2318C67.1061 60.8774 64.938 60.646 63.2781 61.4986L60.529 58.7496C64.0263 54.8613 66.2421 49.8172 66.5376 44.2588H70.4021C70.9479 46.071 72.6116 47.4027 74.5986 47.4027C77.0256 47.4027 79 45.4283 79 43.0013C79 40.5742 77.0256 38.5998 74.5986 38.5998V38.5998ZM64.01 19.324C64.3658 18.9669 64.8399 18.772 65.3442 18.772C65.8485 18.772 66.3213 18.9681 66.6785 19.324C67.0344 19.6812 67.2306 20.154 67.2306 20.6583C67.2306 21.1613 67.0344 21.6354 66.6785 21.9913C65.968 22.7031 64.7242 22.7056 64.0112 21.9913C63.6553 21.6354 63.4591 21.1613 63.4591 20.6583C63.4579 20.154 63.6541 19.6799 64.01 19.324ZM41.1137 11.4027C41.1137 10.3627 41.96 9.51637 43 9.51637C44.04 9.51637 44.8863 10.3627 44.8863 11.4027C44.8863 12.4389 44.045 13.2827 43.0101 13.2878C43.0063 13.2878 43.0038 13.2853 43 13.2853C42.9962 13.2853 42.9937 13.2878 42.9899 13.2878C41.955 13.2815 41.1137 12.4389 41.1137 11.4027V11.4027ZM19.3228 21.99C18.9669 21.6342 18.7707 21.1601 18.7707 20.657C18.7707 20.1528 18.9669 19.6799 19.3228 19.3228C19.6787 18.9669 20.1515 18.7707 20.657 18.7707C21.1601 18.7707 21.6342 18.9669 21.9913 19.3228C22.3472 19.6799 22.5434 20.1528 22.5434 20.657C22.5434 21.1601 22.3472 21.6342 21.9913 21.99C21.2783 22.7043 20.0333 22.7031 19.3228 21.99ZM11.4014 44.8876C10.3614 44.8876 9.51511 44.0413 9.51511 43.0013C9.51511 41.9613 10.3614 41.1149 11.4014 41.1149C12.4377 41.1149 13.2802 41.955 13.2865 42.9887C13.2865 42.9925 13.284 42.9962 13.284 43.0013C13.284 43.0063 13.2865 43.0088 13.2865 43.0138C13.2802 44.0475 12.4377 44.8876 11.4014 44.8876V44.8876ZM21.99 66.6785C21.2783 67.3928 20.0333 67.3903 19.3228 66.6785C18.9669 66.3213 18.7707 65.8485 18.7707 65.3442C18.7707 64.8412 18.9669 64.3671 19.3228 64.0112C19.6787 63.6553 20.1515 63.4592 20.657 63.4592C21.1601 63.4592 21.6342 63.6553 21.9913 64.0112C22.3472 64.3671 22.5434 64.8412 22.5434 65.3442C22.5421 65.8485 22.3459 66.3226 21.99 66.6785ZM44.8863 74.5998C44.8863 75.6398 44.04 76.4862 43 76.4862C41.96 76.4862 41.1137 75.6398 41.1137 74.5998C41.1137 73.5636 41.955 72.7198 42.9899 72.7147C42.9937 72.7147 42.9962 72.7173 43 72.7173C43.0038 72.7173 43.0063 72.7147 43.0101 72.7147C44.045 72.721 44.8863 73.5636 44.8863 74.5998ZM66.6772 64.0125C67.0331 64.3684 67.2293 64.8425 67.2293 65.3455C67.2293 65.8498 67.0331 66.3226 66.6772 66.6797C65.9667 67.3915 64.723 67.3928 64.01 66.6797C63.6541 66.3226 63.4579 65.8498 63.4579 65.3455C63.4579 64.8425 63.6541 64.3684 64.01 64.0125C64.723 63.2982 65.9667 63.2994 66.6772 64.0125ZM43 64.0879C31.3727 64.0879 21.9133 54.6286 21.9133 43.0013C21.9133 31.3739 31.3727 21.9146 43 21.9146C54.6273 21.9146 64.0867 31.3739 64.0867 43.0013C64.0867 54.6286 54.6273 64.0879 43 64.0879ZM74.5986 44.8876C73.5623 44.8876 72.7198 44.0475 72.7135 43.0138C72.7135 43.0101 72.716 43.0063 72.716 43.0013C72.716 42.9962 72.7135 42.9937 72.7135 42.9887C72.7198 41.9537 73.5623 41.1149 74.5986 41.1149C75.6386 41.1149 76.4849 41.9613 76.4849 43.0013C76.4849 44.0413 75.6386 44.8876 74.5986 44.8876Z" fill="black"/>
<path d="M49.7972 33.4288V31.6116C49.8009 29.8045 49.0904 28.098 47.8002 26.8052C46.5162 25.52 44.8135 24.812 43.0089 24.812C43.0039 24.812 42.9988 24.812 42.9913 24.812C41.1842 24.812 39.4827 25.52 38.1975 26.8052C36.9072 28.098 36.1967 29.8058 36.2005 31.6091V33.4288C34.6789 33.8224 33.0516 34.3757 32.5888 35.6308C30.9075 40.2724 29.1708 52.7725 29.9718 54.4689C30.1127 54.7682 30.4308 55.0725 30.7415 55.187C33.6426 56.2496 40.6849 56.6998 42.9976 56.6998C45.3102 56.6998 52.3525 56.2496 55.2424 55.1907C55.558 55.0788 55.8812 54.772 56.0233 54.4689C56.8244 52.7712 55.0877 40.2711 53.4038 35.6245C52.9461 34.3745 51.3188 33.8224 49.7972 33.4288ZM39.9794 28.5834C40.7893 27.7723 41.8595 27.3271 42.9963 27.3271C42.9988 27.3259 43.0039 27.3271 43.0064 27.3271C44.1407 27.3271 45.2121 27.7723 46.0207 28.5834C46.8356 29.3996 47.2846 30.4735 47.2821 31.6091V32.751C46.1 32.424 44.3671 32.004 43.0642 31.9386C43.0227 31.9361 42.9787 31.9361 42.936 31.9386C41.6394 32.004 39.9153 32.4202 38.7181 32.751V31.6066C38.7156 30.4735 39.1633 29.3996 39.9794 28.5834V28.5834ZM43.0001 54.1847C40.5177 54.1847 34.9467 53.7509 32.2543 53.0252C32.2015 50.4749 33.3609 40.9691 34.9241 36.5752C35.1278 36.3953 35.656 36.2042 36.203 36.0407V37.9421C35.8182 38.288 35.5705 38.7847 35.5705 39.3431C35.5705 40.3868 36.4168 41.2332 37.4606 41.2332C38.5043 41.2332 39.3507 40.3868 39.3507 39.3431C39.3507 38.7847 39.1029 38.2867 38.7181 37.9409V35.3667C40.451 34.8523 42.0355 34.5115 43.0001 34.4512C43.9709 34.5115 45.568 34.8561 47.2821 35.3654V37.9409C46.896 38.2867 46.6495 38.7834 46.6495 39.3431C46.6495 40.3868 47.4958 41.2332 48.5396 41.2332C49.5834 41.2332 50.4297 40.3868 50.4297 39.3431C50.4297 38.7847 50.1832 38.288 49.7972 37.9421V36.0407C50.3429 36.2042 50.8724 36.3953 51.0761 36.5752C52.6392 40.9766 53.7987 50.4774 53.7459 53.0265C51.066 53.7496 45.4863 54.1847 43.0001 54.1847V54.1847Z" fill="black"/>
</svg>
