<svg width="85" height="84" viewBox="0 0 85 84" fill="none" xmlns="http://www.w3.org/2000/svg">
<mask id="path-1-inside-1_193_4049" fill="white">
<path d="M70.997 13H15.003C13.4115 13.0019 11.8857 13.635 10.7604 14.7604C9.63501 15.8857 9.00193 17.4115 9 19.003V64.0292C9.00193 65.6207 9.63501 67.1465 10.7604 68.2719C11.8857 69.3972 13.4115 70.0303 15.003 70.0323H70.997C72.5885 70.0303 74.1143 69.3972 75.2396 68.2719C76.365 67.1465 76.9981 65.6207 77 64.0292V19.003C76.9981 17.4115 76.365 15.8857 75.2396 14.7604C74.1143 13.635 72.5885 13.0019 70.997 13V13ZM11.1935 19.003C11.1955 17.9933 11.5975 17.0254 12.3114 16.3114C13.0254 15.5975 13.9933 15.1955 15.003 15.1935H70.997C72.0067 15.1955 72.9746 15.5975 73.6886 16.3114C74.4025 17.0254 74.8045 17.9933 74.8065 19.003V27.7772H11.1935V19.003ZM74.8065 64.0292C74.8045 65.039 74.4025 66.0068 73.6886 66.7208C72.9746 67.4348 72.0067 67.8368 70.997 67.8387H15.003C13.9933 67.8368 13.0254 67.4348 12.3114 66.7208C11.5975 66.0068 11.1955 65.039 11.1935 64.0292V29.9415H74.8065V64.0292ZM42.3273 63.5832C42.4695 63.6482 42.6244 63.6806 42.7806 63.6783C42.9368 63.6792 43.0914 63.6468 43.234 63.5832C45.7313 62.4226 48.0704 60.9484 50.1948 59.1961L51.4817 63.8903C51.5317 64.0762 51.6298 64.2457 51.7661 64.3816C51.9023 64.5176 52.072 64.6153 52.258 64.665C52.4439 64.7146 52.6397 64.7144 52.8256 64.6645C53.0115 64.6145 53.181 64.5164 53.317 64.3802L55.3351 62.3621L59.086 66.157C59.2917 66.3624 59.5704 66.4777 59.8611 66.4777C60.1517 66.4777 60.4305 66.3624 60.6361 66.157L65.0232 61.7699C65.2286 61.5642 65.344 61.2855 65.344 60.9948C65.344 60.7042 65.2286 60.4254 65.0232 60.2198L61.2796 56.4908L63.2976 54.4727C63.4338 54.3322 63.5298 54.1579 63.5759 53.9678C63.622 53.7777 63.6164 53.5788 63.5598 53.3916C63.5031 53.2043 63.3974 53.0357 63.2536 52.9031C63.1098 52.7705 62.9331 52.6788 62.7419 52.6374L57.2361 51.1312C58.2113 49.503 58.9453 47.742 59.4151 45.9032C60.2925 42.1961 59.6344 38.84 57.514 36.2077C55.6348 33.8753 53.412 32.6323 50.9333 32.4933C47.3578 32.2886 44.2138 34.4529 42.8172 35.6009C41.4133 34.4529 38.2766 32.2886 34.6938 32.4933C32.1785 32.6323 29.9557 33.8753 28.1131 36.2077C25.9196 38.8473 25.2615 42.2034 26.1828 45.9032C27.7622 52.7252 34.4159 59.9931 42.3273 63.5832V63.5832ZM60.3729 54.2533L58.9105 55.7157C58.808 55.817 58.7265 55.9377 58.6709 56.0708C58.6153 56.2038 58.5867 56.3466 58.5867 56.4908C58.5867 56.6349 58.6153 56.7777 58.6709 56.9107C58.7265 57.0438 58.808 57.1645 58.9105 57.2658L62.6688 61.0241L59.8611 63.8318L56.1028 60.0735C55.8971 59.8682 55.6184 59.7528 55.3277 59.7528C55.0371 59.7528 54.7583 59.8682 54.5527 60.0735L53.0903 61.5359L50.3484 51.5187L60.3729 54.2533ZM29.751 37.5897C31.2133 35.769 32.9097 34.7966 34.7669 34.6649H35.1179C38.7738 34.6649 41.969 37.8017 42.0056 37.8383C42.2109 38.0414 42.4881 38.1554 42.777 38.1554C43.0659 38.1554 43.343 38.0414 43.5484 37.8383C43.5484 37.8017 47.0142 34.4675 50.7871 34.6723C52.6516 34.7819 54.3333 35.7544 55.803 37.597C57.514 39.7174 57.9966 42.3424 57.2654 45.4133C56.8079 47.2242 56.0676 48.9515 55.0718 50.5316L49.0981 48.8938C48.9117 48.8433 48.7154 48.8429 48.5289 48.8926C48.3424 48.9423 48.1723 49.0404 48.0358 49.1768C47.8993 49.3133 47.8012 49.4834 47.7515 49.67C47.7018 49.8565 47.7022 50.0528 47.7527 50.2391L49.5806 56.871C47.5353 58.6664 45.258 60.1789 42.8099 61.3677C35.7832 58.0116 29.7217 51.3652 28.3032 45.3987C27.5501 42.3351 28.0473 39.7101 29.751 37.5897ZM33.363 50.963C33.2686 50.848 33.1986 50.7151 33.1573 50.5722C33.1159 50.4293 33.104 50.2795 33.1224 50.1319C33.1407 49.9843 33.1889 49.8419 33.264 49.7135C33.3391 49.5851 33.4395 49.4733 33.5592 49.3849C33.6788 49.2966 33.8152 49.2335 33.96 49.1995C34.1048 49.1654 34.255 49.1612 34.4015 49.1871C34.548 49.213 34.6877 49.2684 34.8121 49.3499C34.9365 49.4315 35.043 49.5375 35.1252 49.6615C36.8361 51.947 38.9557 53.8956 41.3768 55.4086C41.5647 55.5392 41.7071 55.7253 41.784 55.9408C41.8609 56.1564 41.8685 56.3906 41.8056 56.6107C41.7427 56.8307 41.6126 57.0256 41.4334 57.168C41.2543 57.3104 41.035 57.3932 40.8065 57.4047C40.6005 57.4049 40.3984 57.3493 40.2215 57.2439C37.5606 55.6003 35.2337 53.4694 33.363 50.963V50.963ZM30.2628 43.7097C30.2479 43.5656 30.2615 43.4201 30.3029 43.2813C30.3443 43.1426 30.4126 43.0133 30.5039 42.9009C30.5952 42.7886 30.7078 42.6953 30.8351 42.6264C30.9625 42.5576 31.1022 42.5145 31.2462 42.4996C31.3903 42.4847 31.5358 42.4983 31.6746 42.5397C31.8133 42.5811 31.9426 42.6493 32.055 42.7407C32.1673 42.832 32.2606 42.9445 32.3295 43.0719C32.3984 43.1993 32.4415 43.339 32.4563 43.483C32.553 44.3449 32.762 45.1905 33.0779 45.9983C33.1682 46.2652 33.1517 46.5567 33.0317 46.8116C32.9117 47.0666 32.6977 47.2651 32.4344 47.3656C32.3086 47.4145 32.1746 47.4394 32.0396 47.4387C31.8145 47.4366 31.5956 47.3653 31.4125 47.2345C31.2294 47.1037 31.0909 46.9197 31.0159 46.7075C30.6398 45.7439 30.3868 44.7367 30.2628 43.7097ZM18.5054 17.4529C17.723 17.4529 16.9582 17.6849 16.3077 18.1196C15.6572 18.5542 15.1502 19.172 14.8508 19.8948C14.5514 20.6176 14.4731 21.413 14.6257 22.1803C14.7783 22.9477 15.1551 23.6525 15.7083 24.2057C16.2615 24.7589 16.9663 25.1357 17.7337 25.2883C18.501 25.4409 19.2963 25.3626 20.0192 25.0632C20.742 24.7638 21.3598 24.2568 21.7944 23.6063C22.2291 22.9558 22.4611 22.191 22.4611 21.4086C22.4611 20.3595 22.0443 19.3533 21.3025 18.6115C20.5606 17.8697 19.5545 17.4529 18.5054 17.4529V17.4529ZM18.5054 23.1708C18.1569 23.1708 17.8162 23.0674 17.5264 22.8738C17.2366 22.6801 17.0107 22.4049 16.8774 22.0829C16.744 21.761 16.7091 21.4066 16.7771 21.0648C16.8451 20.723 17.0129 20.409 17.2593 20.1626C17.5058 19.9161 17.8198 19.7483 18.1616 19.6803C18.5034 19.6123 18.8577 19.6472 19.1797 19.7806C19.5017 19.914 19.7769 20.1398 19.9706 20.4296C20.1642 20.7194 20.2675 21.0601 20.2675 21.4086C20.2675 21.876 20.0819 22.3242 19.7514 22.6546C19.4209 22.9851 18.9727 23.1708 18.5054 23.1708V23.1708ZM29.2172 17.4529C28.4345 17.4515 27.669 17.6822 27.0175 18.116C26.3661 18.5498 25.8579 19.1671 25.5574 19.8897C25.2569 20.6124 25.1775 21.408 25.3293 22.1758C25.4811 22.9436 25.8573 23.6492 26.4102 24.2031C26.9631 24.7571 27.668 25.1345 28.4355 25.2877C29.203 25.441 29.9987 25.3631 30.722 25.0639C31.4452 24.7647 32.0634 24.2577 32.4984 23.607C32.9334 22.9564 33.1656 22.1913 33.1656 21.4086C33.1637 20.3613 32.7473 19.3574 32.0075 18.6162C31.2676 17.875 30.2645 17.4568 29.2172 17.4529V17.4529ZM29.2172 23.1708C28.8684 23.1722 28.527 23.0701 28.2362 22.8773C27.9455 22.6846 27.7185 22.4099 27.584 22.088C27.4495 21.7662 27.4136 21.4116 27.4807 21.0693C27.5479 20.727 27.7151 20.4124 27.9613 20.1652C28.2074 19.918 28.5214 19.7495 28.8634 19.6809C29.2054 19.6123 29.5601 19.6467 29.8825 19.7799C30.205 19.9131 30.4806 20.1389 30.6746 20.4288C30.8685 20.7188 30.972 21.0598 30.972 21.4086C30.972 21.8747 30.7874 22.3218 30.4585 22.6521C30.1296 22.9823 29.6833 23.1688 29.2172 23.1708V23.1708ZM39.9217 17.4529C39.1394 17.4529 38.3746 17.6849 37.7241 18.1196C37.0735 18.5542 36.5665 19.172 36.2671 19.8948C35.9677 20.6176 35.8894 21.413 36.042 22.1803C36.1947 22.9477 36.5714 23.6525 37.1246 24.2057C37.6778 24.7589 38.3827 25.1357 39.15 25.2883C39.9173 25.4409 40.7127 25.3626 41.4355 25.0632C42.1583 24.7638 42.7761 24.2568 43.2108 23.6063C43.6454 22.9558 43.8774 22.191 43.8774 21.4086C43.8755 20.3601 43.4581 19.3551 42.7167 18.6136C41.9753 17.8722 40.9702 17.4548 39.9217 17.4529ZM39.9217 23.1708C39.5732 23.1708 39.2325 23.0674 38.9427 22.8738C38.6529 22.6801 38.4271 22.4049 38.2937 22.0829C38.1603 21.761 38.1254 21.4066 38.1934 21.0648C38.2614 20.723 38.4293 20.409 38.6757 20.1626C38.9221 19.9161 39.2361 19.7483 39.5779 19.6803C39.9198 19.6123 40.2741 19.6472 40.5961 19.7806C40.9181 19.914 41.1933 20.1398 41.3869 20.4296C41.5805 20.7194 41.6839 21.0601 41.6839 21.4086C41.6839 21.876 41.4982 22.3242 41.1678 22.6546C40.8373 22.9851 40.3891 23.1708 39.9217 23.1708V23.1708ZM14.3303 61.9234V50.2245C14.3303 49.9336 14.4459 49.6547 14.6516 49.449C14.8572 49.2433 15.1362 49.1277 15.4271 49.1277C15.718 49.1277 15.9969 49.2433 16.2026 49.449C16.4083 49.6547 16.5239 49.9336 16.5239 50.2245V61.9234C16.5239 62.2143 16.4083 62.4933 16.2026 62.699C15.9969 62.9047 15.718 63.0202 15.4271 63.0202C15.1362 63.0202 14.8572 62.9047 14.6516 62.699C14.4459 62.4933 14.3303 62.2143 14.3303 61.9234ZM14.3303 45.6619V43.3441C14.3303 43.0532 14.4459 42.7742 14.6516 42.5685C14.8572 42.3629 15.1362 42.2473 15.4271 42.2473C15.718 42.2473 15.9969 42.3629 16.2026 42.5685C16.4083 42.7742 16.5239 43.0532 16.5239 43.3441V45.64C16.5239 45.9309 16.4083 46.2098 16.2026 46.4155C15.9969 46.6212 15.718 46.7368 15.4271 46.7368C15.1362 46.7368 14.8572 46.6212 14.6516 46.4155C14.4459 46.2098 14.3303 45.9309 14.3303 45.64V45.6619Z"/>
</mask>
<path d="M70.997 13H15.003C13.4115 13.0019 11.8857 13.635 10.7604 14.7604C9.63501 15.8857 9.00193 17.4115 9 19.003V64.0292C9.00193 65.6207 9.63501 67.1465 10.7604 68.2719C11.8857 69.3972 13.4115 70.0303 15.003 70.0323H70.997C72.5885 70.0303 74.1143 69.3972 75.2396 68.2719C76.365 67.1465 76.9981 65.6207 77 64.0292V19.003C76.9981 17.4115 76.365 15.8857 75.2396 14.7604C74.1143 13.635 72.5885 13.0019 70.997 13V13ZM11.1935 19.003C11.1955 17.9933 11.5975 17.0254 12.3114 16.3114C13.0254 15.5975 13.9933 15.1955 15.003 15.1935H70.997C72.0067 15.1955 72.9746 15.5975 73.6886 16.3114C74.4025 17.0254 74.8045 17.9933 74.8065 19.003V27.7772H11.1935V19.003ZM74.8065 64.0292C74.8045 65.039 74.4025 66.0068 73.6886 66.7208C72.9746 67.4348 72.0067 67.8368 70.997 67.8387H15.003C13.9933 67.8368 13.0254 67.4348 12.3114 66.7208C11.5975 66.0068 11.1955 65.039 11.1935 64.0292V29.9415H74.8065V64.0292ZM42.3273 63.5832C42.4695 63.6482 42.6244 63.6806 42.7806 63.6783C42.9368 63.6792 43.0914 63.6468 43.234 63.5832C45.7313 62.4226 48.0704 60.9484 50.1948 59.1961L51.4817 63.8903C51.5317 64.0762 51.6298 64.2457 51.7661 64.3816C51.9023 64.5176 52.072 64.6153 52.258 64.665C52.4439 64.7146 52.6397 64.7144 52.8256 64.6645C53.0115 64.6145 53.181 64.5164 53.317 64.3802L55.3351 62.3621L59.086 66.157C59.2917 66.3624 59.5704 66.4777 59.8611 66.4777C60.1517 66.4777 60.4305 66.3624 60.6361 66.157L65.0232 61.7699C65.2286 61.5642 65.344 61.2855 65.344 60.9948C65.344 60.7042 65.2286 60.4254 65.0232 60.2198L61.2796 56.4908L63.2976 54.4727C63.4338 54.3322 63.5298 54.1579 63.5759 53.9678C63.622 53.7777 63.6164 53.5788 63.5598 53.3916C63.5031 53.2043 63.3974 53.0357 63.2536 52.9031C63.1098 52.7705 62.9331 52.6788 62.7419 52.6374L57.2361 51.1312C58.2113 49.503 58.9453 47.742 59.4151 45.9032C60.2925 42.1961 59.6344 38.84 57.514 36.2077C55.6348 33.8753 53.412 32.6323 50.9333 32.4933C47.3578 32.2886 44.2138 34.4529 42.8172 35.6009C41.4133 34.4529 38.2766 32.2886 34.6938 32.4933C32.1785 32.6323 29.9557 33.8753 28.1131 36.2077C25.9196 38.8473 25.2615 42.2034 26.1828 45.9032C27.7622 52.7252 34.4159 59.9931 42.3273 63.5832V63.5832ZM60.3729 54.2533L58.9105 55.7157C58.808 55.817 58.7265 55.9377 58.6709 56.0708C58.6153 56.2038 58.5867 56.3466 58.5867 56.4908C58.5867 56.6349 58.6153 56.7777 58.6709 56.9107C58.7265 57.0438 58.808 57.1645 58.9105 57.2658L62.6688 61.0241L59.8611 63.8318L56.1028 60.0735C55.8971 59.8682 55.6184 59.7528 55.3277 59.7528C55.0371 59.7528 54.7583 59.8682 54.5527 60.0735L53.0903 61.5359L50.3484 51.5187L60.3729 54.2533ZM29.751 37.5897C31.2133 35.769 32.9097 34.7966 34.7669 34.6649H35.1179C38.7738 34.6649 41.969 37.8017 42.0056 37.8383C42.2109 38.0414 42.4881 38.1554 42.777 38.1554C43.0659 38.1554 43.343 38.0414 43.5484 37.8383C43.5484 37.8017 47.0142 34.4675 50.7871 34.6723C52.6516 34.7819 54.3333 35.7544 55.803 37.597C57.514 39.7174 57.9966 42.3424 57.2654 45.4133C56.8079 47.2242 56.0676 48.9515 55.0718 50.5316L49.0981 48.8938C48.9117 48.8433 48.7154 48.8429 48.5289 48.8926C48.3424 48.9423 48.1723 49.0404 48.0358 49.1768C47.8993 49.3133 47.8012 49.4834 47.7515 49.67C47.7018 49.8565 47.7022 50.0528 47.7527 50.2391L49.5806 56.871C47.5353 58.6664 45.258 60.1789 42.8099 61.3677C35.7832 58.0116 29.7217 51.3652 28.3032 45.3987C27.5501 42.3351 28.0473 39.7101 29.751 37.5897ZM33.363 50.963C33.2686 50.848 33.1986 50.7151 33.1573 50.5722C33.1159 50.4293 33.104 50.2795 33.1224 50.1319C33.1407 49.9843 33.1889 49.8419 33.264 49.7135C33.3391 49.5851 33.4395 49.4733 33.5592 49.3849C33.6788 49.2966 33.8152 49.2335 33.96 49.1995C34.1048 49.1654 34.255 49.1612 34.4015 49.1871C34.548 49.213 34.6877 49.2684 34.8121 49.3499C34.9365 49.4315 35.043 49.5375 35.1252 49.6615C36.8361 51.947 38.9557 53.8956 41.3768 55.4086C41.5647 55.5392 41.7071 55.7253 41.784 55.9408C41.8609 56.1564 41.8685 56.3906 41.8056 56.6107C41.7427 56.8307 41.6126 57.0256 41.4334 57.168C41.2543 57.3104 41.035 57.3932 40.8065 57.4047C40.6005 57.4049 40.3984 57.3493 40.2215 57.2439C37.5606 55.6003 35.2337 53.4694 33.363 50.963V50.963ZM30.2628 43.7097C30.2479 43.5656 30.2615 43.4201 30.3029 43.2813C30.3443 43.1426 30.4126 43.0133 30.5039 42.9009C30.5952 42.7886 30.7078 42.6953 30.8351 42.6264C30.9625 42.5576 31.1022 42.5145 31.2462 42.4996C31.3903 42.4847 31.5358 42.4983 31.6746 42.5397C31.8133 42.5811 31.9426 42.6493 32.055 42.7407C32.1673 42.832 32.2606 42.9445 32.3295 43.0719C32.3984 43.1993 32.4415 43.339 32.4563 43.483C32.553 44.3449 32.762 45.1905 33.0779 45.9983C33.1682 46.2652 33.1517 46.5567 33.0317 46.8116C32.9117 47.0666 32.6977 47.2651 32.4344 47.3656C32.3086 47.4145 32.1746 47.4394 32.0396 47.4387C31.8145 47.4366 31.5956 47.3653 31.4125 47.2345C31.2294 47.1037 31.0909 46.9197 31.0159 46.7075C30.6398 45.7439 30.3868 44.7367 30.2628 43.7097ZM18.5054 17.4529C17.723 17.4529 16.9582 17.6849 16.3077 18.1196C15.6572 18.5542 15.1502 19.172 14.8508 19.8948C14.5514 20.6176 14.4731 21.413 14.6257 22.1803C14.7783 22.9477 15.1551 23.6525 15.7083 24.2057C16.2615 24.7589 16.9663 25.1357 17.7337 25.2883C18.501 25.4409 19.2963 25.3626 20.0192 25.0632C20.742 24.7638 21.3598 24.2568 21.7944 23.6063C22.2291 22.9558 22.4611 22.191 22.4611 21.4086C22.4611 20.3595 22.0443 19.3533 21.3025 18.6115C20.5606 17.8697 19.5545 17.4529 18.5054 17.4529V17.4529ZM18.5054 23.1708C18.1569 23.1708 17.8162 23.0674 17.5264 22.8738C17.2366 22.6801 17.0107 22.4049 16.8774 22.0829C16.744 21.761 16.7091 21.4066 16.7771 21.0648C16.8451 20.723 17.0129 20.409 17.2593 20.1626C17.5058 19.9161 17.8198 19.7483 18.1616 19.6803C18.5034 19.6123 18.8577 19.6472 19.1797 19.7806C19.5017 19.914 19.7769 20.1398 19.9706 20.4296C20.1642 20.7194 20.2675 21.0601 20.2675 21.4086C20.2675 21.876 20.0819 22.3242 19.7514 22.6546C19.4209 22.9851 18.9727 23.1708 18.5054 23.1708V23.1708ZM29.2172 17.4529C28.4345 17.4515 27.669 17.6822 27.0175 18.116C26.3661 18.5498 25.8579 19.1671 25.5574 19.8897C25.2569 20.6124 25.1775 21.408 25.3293 22.1758C25.4811 22.9436 25.8573 23.6492 26.4102 24.2031C26.9631 24.7571 27.668 25.1345 28.4355 25.2877C29.203 25.441 29.9987 25.3631 30.722 25.0639C31.4452 24.7647 32.0634 24.2577 32.4984 23.607C32.9334 22.9564 33.1656 22.1913 33.1656 21.4086C33.1637 20.3613 32.7473 19.3574 32.0075 18.6162C31.2676 17.875 30.2645 17.4568 29.2172 17.4529V17.4529ZM29.2172 23.1708C28.8684 23.1722 28.527 23.0701 28.2362 22.8773C27.9455 22.6846 27.7185 22.4099 27.584 22.088C27.4495 21.7662 27.4136 21.4116 27.4807 21.0693C27.5479 20.727 27.7151 20.4124 27.9613 20.1652C28.2074 19.918 28.5214 19.7495 28.8634 19.6809C29.2054 19.6123 29.5601 19.6467 29.8825 19.7799C30.205 19.9131 30.4806 20.1389 30.6746 20.4288C30.8685 20.7188 30.972 21.0598 30.972 21.4086C30.972 21.8747 30.7874 22.3218 30.4585 22.6521C30.1296 22.9823 29.6833 23.1688 29.2172 23.1708V23.1708ZM39.9217 17.4529C39.1394 17.4529 38.3746 17.6849 37.7241 18.1196C37.0735 18.5542 36.5665 19.172 36.2671 19.8948C35.9677 20.6176 35.8894 21.413 36.042 22.1803C36.1947 22.9477 36.5714 23.6525 37.1246 24.2057C37.6778 24.7589 38.3827 25.1357 39.15 25.2883C39.9173 25.4409 40.7127 25.3626 41.4355 25.0632C42.1583 24.7638 42.7761 24.2568 43.2108 23.6063C43.6454 22.9558 43.8774 22.191 43.8774 21.4086C43.8755 20.3601 43.4581 19.3551 42.7167 18.6136C41.9753 17.8722 40.9702 17.4548 39.9217 17.4529ZM39.9217 23.1708C39.5732 23.1708 39.2325 23.0674 38.9427 22.8738C38.6529 22.6801 38.4271 22.4049 38.2937 22.0829C38.1603 21.761 38.1254 21.4066 38.1934 21.0648C38.2614 20.723 38.4293 20.409 38.6757 20.1626C38.9221 19.9161 39.2361 19.7483 39.5779 19.6803C39.9198 19.6123 40.2741 19.6472 40.5961 19.7806C40.9181 19.914 41.1933 20.1398 41.3869 20.4296C41.5805 20.7194 41.6839 21.0601 41.6839 21.4086C41.6839 21.876 41.4982 22.3242 41.1678 22.6546C40.8373 22.9851 40.3891 23.1708 39.9217 23.1708V23.1708ZM14.3303 61.9234V50.2245C14.3303 49.9336 14.4459 49.6547 14.6516 49.449C14.8572 49.2433 15.1362 49.1277 15.4271 49.1277C15.718 49.1277 15.9969 49.2433 16.2026 49.449C16.4083 49.6547 16.5239 49.9336 16.5239 50.2245V61.9234C16.5239 62.2143 16.4083 62.4933 16.2026 62.699C15.9969 62.9047 15.718 63.0202 15.4271 63.0202C15.1362 63.0202 14.8572 62.9047 14.6516 62.699C14.4459 62.4933 14.3303 62.2143 14.3303 61.9234ZM14.3303 45.6619V43.3441C14.3303 43.0532 14.4459 42.7742 14.6516 42.5685C14.8572 42.3629 15.1362 42.2473 15.4271 42.2473C15.718 42.2473 15.9969 42.3629 16.2026 42.5685C16.4083 42.7742 16.5239 43.0532 16.5239 43.3441V45.64C16.5239 45.9309 16.4083 46.2098 16.2026 46.4155C15.9969 46.6212 15.718 46.7368 15.4271 46.7368C15.1362 46.7368 14.8572 46.6212 14.6516 46.4155C14.4459 46.2098 14.3303 45.9309 14.3303 45.64V45.6619Z" fill="black" stroke="white" stroke-width="0.2" mask="url(#path-1-inside-1_193_4049)"/>
</svg>
