<svg xmlns="http://www.w3.org/2000/svg" width="35" height="35" fill="#3e3465" xmlns:v="https://vecta.io/nano"><path d="M33.633 8.679c.083-.048.153-.118.201-.201a.55.55 0 0 0 .073-.275V3.828c0-.096-.025-.191-.073-.275a.54.54 0 0 0-.201-.201l-3.828-2.187c-.083-.048-.178-.073-.273-.073s-.19.025-.274.073L25.43 3.352c-.084.048-.153.118-.201.201a.55.55 0 0 0-.073.275v1.641H9.844V3.828c0-.096-.025-.191-.073-.275a.54.54 0 0 0-.201-.201L5.742 1.165c-.083-.048-.177-.073-.273-.073s-.19.025-.273.073L1.367 3.352c-.083.048-.153.118-.201.201a.55.55 0 0 0-.073.275v4.375c0 .096.025.191.073.275a.54.54 0 0 0 .201.201l3.555 2.029v13.584l-3.555 2.029c-.083.048-.153.117-.201.201a.55.55 0 0 0-.073.275v4.375c0 .096.025.191.073.275a.54.54 0 0 0 .201.201l3.828 2.187c.083.048.177.073.273.073s.19-.025.273-.073l3.828-2.187c.083-.048.153-.117.201-.201a.55.55 0 0 0 .073-.275v-1.641h15.313v1.641c0 .096.025.191.073.275a.54.54 0 0 0 .201.201l3.828 2.187a.55.55 0 0 0 .274.073c.096 0 .19-.025.273-.073l3.828-2.187c.083-.048.153-.117.201-.201a.55.55 0 0 0 .073-.275v-4.375c0-.096-.025-.191-.073-.275a.54.54 0 0 0-.201-.201l-3.555-2.029V10.708l3.555-2.029zm-1.367 18.118l-2.734 1.558-2.734-1.558 2.734-1.559 2.734 1.559zM29.531 9.762L26.25 7.886V4.769l3.008 1.723a.55.55 0 0 0 .274.073c.096 0 .19-.025.273-.073l3.008-1.723v3.117l-3.281 1.876zm2.734-5.934l-2.734 1.559-2.734-1.559 2.734-1.559 2.734 1.559zm-24.062 0L5.469 5.387 2.734 3.828 5.469 2.27l2.734 1.559zm-6.016.941l3.008 1.723c.083.048.177.073.273.073s.19-.025.273-.073L8.75 4.769v3.117L5.469 9.762 2.188 7.886V4.769zm6.016 22.028l-2.734 1.558-2.734-1.558 2.734-1.559 2.734 1.559zm.547 4.058L5.469 32.73l-3.281-1.876v-3.117l3.008 1.723c.083.048.177.073.273.073s.19-.025.273-.073l3.008-1.723v3.117zm1.094-2.417v-1.641c0-.096-.025-.191-.073-.275a.54.54 0 0 0-.201-.201l-3.555-2.029V10.708L9.57 8.679c.083-.048.153-.118.201-.201a.55.55 0 0 0 .073-.275V6.562h15.313v1.641c0 .096.025.191.073.275a.54.54 0 0 0 .201.201l3.555 2.029v13.584l-3.555 2.029a.54.54 0 0 0-.201.201.55.55 0 0 0-.073.275v1.641H9.844zm19.688 4.293l-3.281-1.876v-3.117l3.008 1.723a.55.55 0 0 0 .274.073c.096 0 .19-.025.273-.073l3.008-1.723v3.117l-3.281 1.876zM26.25 21.29v-7.58a2.73 2.73 0 0 0-1.4-2.373L18.834 7.99c-.401-.218-.85-.333-1.307-.333s-.906.114-1.307.333l-6.076 3.352c-.421.236-.771.58-1.016.996s-.375.889-.378 1.372v7.58a2.73 2.73 0 0 0 1.4 2.373l6.043 3.347c.401.218.85.333 1.307.333s.906-.114 1.307-.333l2.384-1.307c.063-.035.118-.082.163-.138s.078-.121.098-.19.026-.141.018-.213-.03-.14-.065-.203a.55.55 0 0 0-.325-.258c-.138-.04-.287-.024-.413.045l-2.384 1.313a1.64 1.64 0 0 1-1.564 0l-6.016-3.341a1.64 1.64 0 0 1-.859-1.427v-7.58a1.64 1.64 0 0 1 .831-1.416l6.043-3.341a1.64 1.64 0 0 1 1.564 0l6.016 3.341a1.64 1.64 0 0 1 .858 1.416v7.58a1.64 1.64 0 0 1-.831 1.416l-1.641.924a.55.55 0 0 0-.202.749.55.55 0 0 0 .749.202l1.673-.924a2.73 2.73 0 0 0 .988-1.005c.236-.416.359-.885.357-1.363zm-11.484-1.056a.55.55 0 0 0 .387-.16c.103-.102.16-.242.16-.387v-4.375a.55.55 0 0 0-.16-.387c-.102-.103-.242-.16-.387-.16a.55.55 0 0 0-.387.16c-.103.102-.16.242-.16.387v2.734l-2.28-3.041c.013.021.024.043.033.066a.55.55 0 0 0-.487-.306.55.55 0 0 0-.387.16c-.103.102-.16.242-.16.387v4.375a.55.55 0 0 0 .16.387c.102.103.242.16.387.16a.55.55 0 0 0 .387-.16c.103-.102.16-.242.16-.387v-2.734l2.281 3.041a.37.37 0 0 1-.033-.066.55.55 0 0 0 .487.306zm-2.773-5.119c.025.063.038.13.038.197-.001-.067-.013-.134-.038-.197zm2.226 4.572c.001.067.013.134.038.197-.025-.063-.038-.13-.038-.197zm4.922-3.828a.55.55 0 0 0 .387-.16c.103-.102.16-.242.16-.387a.55.55 0 0 0-.16-.387c-.102-.103-.242-.16-.387-.16h-2.187a.55.55 0 0 0-.387.16c-.103.102-.16.242-.16.387v4.375a.55.55 0 0 0 .16.387c.102.103.242.16.387.16a.55.55 0 0 0 .387-.16c.103-.102.16-.242.16-.387v-1.641h1.641a.55.55 0 0 0 .387-.16c.103-.102.16-.242.16-.387a.55.55 0 0 0-.16-.387c-.102-.103-.242-.16-.387-.16H17.5v-1.094h1.641zm3.828 3.829V15.86h.547a.55.55 0 0 0 .387-.16c.103-.102.16-.242.16-.387a.55.55 0 0 0-.16-.387c-.102-.103-.242-.16-.387-.16h-2.187a.55.55 0 0 0-.387.16c-.103.102-.16.242-.16.387a.55.55 0 0 0 .16.387c.102.103.242.16.387.16h.547v3.828a.55.55 0 0 0 .16.387c.102.103.242.16.387.16a.55.55 0 0 0 .387-.16c.103-.102.16-.242.16-.387zm-10.938-17.5h2.188v2.188h-2.188V2.188zm8.203 28.437h2.188v2.188h-2.187v-2.187z"/></svg>