<svg xmlns="http://www.w3.org/2000/svg" width="35" height="35" fill="#3e3465" xmlns:v="https://vecta.io/nano"><path d="M29.895 25.351a.51.51 0 0 0 .512-.512V1.203C30.407.54 29.867 0 29.204 0H5.792C5.129 0 4.59.539 4.59 1.203v32.595c0 .663.539 1.203 1.203 1.203h23.412c.663 0 1.203-.539 1.203-1.203v-6.776a.512.512 0 1 0-1.024 0v6.776c0 .098-.08.178-.178.178H5.792c-.098 0-.178-.08-.178-.178V1.203c0-.098.08-.178.178-.178h23.412c.098 0 .178.08.178.178v23.636a.51.51 0 0 0 .512.512zm-19.602 1.661v2.298c0 .47.382.852.852.852h12.71c.47 0 .852-.382.852-.852v-2.298c0-.47-.382-.852-.852-.852h-12.71c-.47 0-.852.382-.852.852zm1.024.172h12.366v1.954H11.317v-1.954zM24.528 7.459a.7.7 0 0 0-.599-.335h-1.87v-.863a.95.95 0 0 0-.948-.948h-7.298a.95.95 0 0 0-.948.948v.863h-1.87a.7.7 0 0 0-.628 1.021l.59 1.167-.59 1.167a.7.7 0 0 0 .628 1.021h3.409c.537 0 .975-.437.975-.975V9.518h4.165v1.007c0 .537.437.975.975.975h3.409a.7.7 0 0 0 .628-1.021l-.59-1.167.59-1.167a.7.7 0 0 0-.028-.686zM13.891 6.338h7.144v2.156h-7.144V6.338zm.465 4.138h-2.837l.428-.846a.71.71 0 0 0 0-.635l-.428-.846h1.347v.422a.95.95 0 0 0 .948.948h.542v.957h0zm8.623-.846l.428.846H20.57v-.957h.542a.95.95 0 0 0 .948-.948v-.422h1.348l-.428.846c-.101.199-.101.437 0 .635zm-1.277-7.581H8.867a.51.51 0 0 0-.512.512 1.21 1.21 0 0 1-1.206 1.206.51.51 0 0 0-.512.512v26.442a.51.51 0 0 0 .512.512 1.21 1.21 0 0 1 1.206 1.206.51.51 0 0 0 .512.512h17.26a.51.51 0 0 0 .512-.512 1.21 1.21 0 0 1 1.206-1.206.51.51 0 0 0 .512-.512V4.279a.51.51 0 0 0-.512-.512 1.21 1.21 0 0 1-1.206-1.206.51.51 0 0 0-.512-.512h-2.242a.512.512 0 1 0 0 1.024h1.789a2.24 2.24 0 0 0 1.659 1.659v25.537a2.24 2.24 0 0 0-1.659 1.659H9.32a2.24 2.24 0 0 0-1.659-1.659V4.732A2.24 2.24 0 0 0 9.32 3.073h12.382a.512.512 0 0 0 0-1.024zm-9.093 15.427a.512.512 0 1 0-.936-.416 5.55 5.55 0 0 0-.457 1.764l-.189 2.106c-.032.353.116.695.394.915a1.05 1.05 0 0 0 .239.141l-.164 1.197c-.071.516.159 1.011.598 1.29.219.139.463.209.707.209s.495-.071.715-.213l.813-.525a5.83 5.83 0 0 1 6.315 0l.813.525c.438.283.983.284 1.422.005s.669-.774.598-1.29l-.162-1.187a1.05 1.05 0 0 0 .262-.151 1.04 1.04 0 0 0 .393-.914l-.189-2.107a5.55 5.55 0 0 0-4.556-4.979v-.022a1.73 1.73 0 0 0-1.726-1.726 1.73 1.73 0 0 0-1.726 1.726v.022c-.98.177-1.902.615-2.663 1.277a.512.512 0 1 0 .672.773 4.54 4.54 0 0 1 2.978-1.114h1.48a4.53 4.53 0 0 1 4.522 4.135l.189 2.107c.001.005.001.012-.008.019s-.015.005-.02.004l-2.84-.95a8.21 8.21 0 0 0-5.189.003l-2.816.946c-.005.002-.011.004-.02-.003s-.009-.014-.008-.019l.189-2.106a4.53 4.53 0 0 1 .372-1.439zm4.89-4.356c.365 0 .666.28.699.636H16.8c.033-.356.334-.636.699-.636zm-2.28 7.949a7.19 7.19 0 0 1 4.538-.003l2.512.84.194 1.415c.023.168-.085.257-.133.287s-.174.091-.317-.001l-.813-.525a6.86 6.86 0 0 0-7.426 0l-.813.525c-.143.092-.269.031-.317.001s-.156-.119-.133-.287l.193-1.408 2.515-.844z"/></svg>