<svg xmlns="http://www.w3.org/2000/svg" width="35" height="35" fill="#3e3465" xmlns:v="https://vecta.io/nano"><path d="M14.608 12.74c1.095 0 1.987-.888 1.987-1.979a1.99 1.99 0 0 0-1.987-1.987c-1.091 0-1.979.891-1.979 1.987a1.98 1.98 0 0 0 1.979 1.979zm0-2.918a.93.93 0 0 1 .939.939c0 .513-.421.931-.939.931a.93.93 0 0 1-.931-.931.94.94 0 0 1 .931-.939zm17.451 17.162c-.29 0-.524.235-.524.524v.278c0 .289.234.524.524.524s.524-.235.524-.524v-.278c0-.289-.234-.524-.524-.524zm.524-7.446c0-1.54-1.253-2.793-2.793-2.793h-.592v-8.84c0-1.303-.904-2.392-2.117-2.695V3.447A2.72 2.72 0 0 0 24.362.733H10.634A2.72 2.72 0 0 0 7.92 3.447V5.21c-1.213.304-2.117 1.392-2.117 2.696v8.84h-.598c-1.537 0-2.787 1.253-2.787 2.793v11.936c0 1.54 1.251 2.793 2.787 2.793H29.79c1.54 0 2.793-1.253 2.793-2.793v-1.294c0-.289-.234-.524-.524-.524s-.524.235-.524.524v1.294a1.75 1.75 0 0 1-1.745 1.745H5.205c-.959 0-1.739-.783-1.739-1.745V19.538c0-.962.78-1.745 1.739-1.745H29.79a1.75 1.75 0 0 1 1.745 1.745v5.575c0 .289.234.524.524.524s.524-.235.524-.524v-5.575h0zM10.634 1.78h13.729a1.67 1.67 0 0 1 1.671 1.666v1.671H8.968v-1.67a1.67 1.67 0 0 1 1.666-1.666zM6.851 7.906c0-.959.782-1.74 1.744-1.74h17.81c.962 0 1.745.78 1.745 1.74v8.84h-5.962l-2.751-3.573c-.1-.13-.272-.222-.42-.204-.165.002-.319.08-.416.212l-2.641 3.566h-1.236l-.907-1.046a.52.52 0 0 0-.44-.179c-.166.014-.316.106-.404.249l-.596.975H6.851v-8.84zm14.015 8.84h-3.601l1.766-2.384 1.835 2.384zm3.049 5.468a2.07 2.07 0 0 0-2.067-2.067h-8.695a2.07 2.07 0 0 0-2.067 2.067 2.07 2.07 0 0 0 2.067 2.067h8.695a2.07 2.07 0 0 0 2.067-2.067zm-2.067 1.019h-8.695a1.02 1.02 0 0 1-1.019-1.019 1.02 1.02 0 0 1 1.019-1.019h8.695a1.02 1.02 0 0 1 1.019 1.019 1.02 1.02 0 0 1-1.019 1.019zm-7.436 4.41v1.409l-1.11-1.696c-.283-.431-.963-.235-.963.287v3.166c0 .289.234.524.524.524s.524-.235.524-.524V29.4l1.11 1.696c.284.433.963.235.963-.287v-3.166c0-.289-.234-.524-.524-.524s-.524.235-.524.524zm6.601 3.691c.29 0 .524-.235.524-.524v-2.642h.601c.29 0 .524-.235.524-.524s-.234-.524-.524-.524h-2.251c-.29 0-.524.235-.524.524s.234.524.524.524h.602v2.642c0 .289.234.524.524.524zm-2.646-3.166c.29 0 .524-.235.524-.524s-.234-.524-.524-.524h-1.585c-.29 0-.524.235-.524.524v3.166c0 .289.234.524.524.524s.524-.235.524-.524v-1.059h1.061c.29 0 .524-.235.524-.524s-.234-.524-.524-.524h-1.061v-.535h1.061z"/></svg>