<svg xmlns="http://www.w3.org/2000/svg" width="35" height="35" fill="#3e3465" xmlns:v="https://vecta.io/nano"><path d="M22.897 9.42H6.136c-.284 0-.515.23-.515.515s.231.515.515.515h16.761c.284 0 .515-.23.515-.515s-.231-.515-.515-.515zM6.136 6.878h8.38c.284 0 .515-.231.515-.515s-.23-.515-.515-.515h-8.38c-.284 0-.515.231-.515.515s.231.515.515.515zm16.761 5.707H6.136c-.284 0-.515.231-.515.515s.231.515.515.515h16.761c.284 0 .515-.23.515-.515s-.231-.515-.515-.515zM9.955 31.423H4.591a1.6 1.6 0 0 1-1.597-1.597v-27.2A1.6 1.6 0 0 1 4.591 1.03h15.453c.05 0 .099.005.148.011v3.211a2.63 2.63 0 0 0 2.626 2.626h3.211a1.04 1.04 0 0 1 .011.148v8.768c0 .284.23.515.515.515s.515-.231.515-.515V7.026a2.1 2.1 0 0 0-.619-1.495L21.539.619A2.1 2.1 0 0 0 20.044 0H4.591a2.63 2.63 0 0 0-2.626 2.626v27.199a2.63 2.63 0 0 0 2.626 2.626h5.364c.284 0 .515-.23.515-.515s-.231-.515-.515-.515zM25.313 5.849h-2.494a1.6 1.6 0 0 1-1.597-1.597V1.758l4.091 4.091zm7.566 19.357l-4.363-7.364a1.13 1.13 0 0 0-1.547-.396l-1.061.629c-.824.488-1.172 1.475-.889 2.35a1.58 1.58 0 0 1-1.11-.012c-.838-.264-1.475-.794-2.527-.528l-1.894.487c-1.046-.596-1.675-.773-2.785-.343l-.99.383a1.58 1.58 0 0 1-1.386-.116l-.27-.159a2.01 2.01 0 0 0-.96-2.062l-1.061-.629a1.13 1.13 0 0 0-1.547.396l-4.363 7.364a1.13 1.13 0 0 0 .396 1.547l1.061.629a2 2 0 0 0 1.023.281 2.03 2.03 0 0 0 1.1-.325l.221.13-.467.65c-.556.775-.38 1.853.396 2.409a1.72 1.72 0 0 0 1.275.302 1.72 1.72 0 0 0 .694 1.111 1.71 1.71 0 0 0 1.275.303 1.72 1.72 0 0 0 .694 1.111c.515.37 1.155.412 1.688.184.117.303.319.577.602.78a1.73 1.73 0 0 0 2.331-.295l1.241.735c.821.486 1.879.216 2.366-.605.124-.21.202-.439.23-.674l.003.002a1.73 1.73 0 0 0 2.366-.605 1.7 1.7 0 0 0 .236-.752 1.73 1.73 0 0 0 1.908-.795 1.72 1.72 0 0 0 .232-.699 1.73 1.73 0 0 0 2.116-.728 1.71 1.71 0 0 0 .187-1.308 1.72 1.72 0 0 0-.351-.684l.684-.4a2.01 2.01 0 0 0 1.792-.128l1.061-.629a1.13 1.13 0 0 0 .396-1.547zm-24.771 1.29l-1.061-.629a.1.1 0 0 1-.035-.136l4.363-7.364a.1.1 0 0 1 .136-.035l1.061.629c.472.279.619.884.345 1.347l-3.462 5.843c-.276.466-.88.621-1.347.345zm2.348 3.195c-.313-.224-.384-.659-.16-.972l.686-.956a.7.7 0 0 1 .972-.16.7.7 0 0 1 .16.972l-.686.956a.7.7 0 0 1-.972.16zm1.968 1.413a.7.7 0 0 1-.16-.972l.686-.956.758-1.055a.69.69 0 0 1 .453-.281.7.7 0 0 1 .114-.009.69.69 0 0 1 .686.584.69.69 0 0 1-.122.519l-1.444 2.011c-.224.313-.659.384-.972.16zm1.968 1.413a.7.7 0 0 1-.16-.972l1.444-2.011a.7.7 0 0 1 .972-.16.7.7 0 0 1 .16.972l-.641.893-.802 1.117a.7.7 0 0 1-.972.16zm2.291.964a.7.7 0 0 1-.16-.972l.48-.669a.7.7 0 0 1 .972-.16.7.7 0 0 1 .16.972l-.48.669a.7.7 0 0 1-.972.16zm11.54-4.105a.7.7 0 0 1-.955.245l-4.558-2.7c-.245-.145-.561-.064-.705.181s-.064.56.18.705l3.445 2.041h0c.331.196.441.623.244.955a.7.7 0 0 1-.955.244l-3.447-2.042c-.245-.145-.56-.064-.705.18s-.064.561.18.705l2.539 1.504h.001c.331.197.44.623.244.955a.7.7 0 0 1-.955.244l-1.363-.807-.995-.59c-.245-.145-.56-.064-.705.18s-.064.56.18.705l.995.589a.7.7 0 0 1 .245.955.7.7 0 0 1-.955.244l-1.16-.687a1.73 1.73 0 0 0-.443-2.34 1.71 1.71 0 0 0-.717-.299 1.73 1.73 0 0 0-.61-2.008 1.72 1.72 0 0 0-1.274-.302c-.077-.45-.323-.844-.694-1.111a1.73 1.73 0 0 0-2.234.188c-.119-.209-.284-.397-.492-.546a1.73 1.73 0 0 0-1.909-.07l-.236-.139 3.238-5.466.154.091c.681.403 1.512.488 2.282.19l.99-.383c.566-.219.879-.233 1.439.031a2.31 2.31 0 0 0-.584 1.535v2.283a1.1 1.1 0 0 0 1.099 1.1h.002a2.26 2.26 0 0 0 1.609-.666 2.27 2.27 0 0 0 .547-.875l6.794 4.023a.69.69 0 0 1 .244.955zm3.734-3.509l-1.061.629c-.466.276-1.071.122-1.347-.345l-1.623-2.739c-.145-.245-.461-.325-.705-.181s-.325.461-.181.705l1.623 2.739.098.148-.451.264a2.58 2.58 0 0 0-.263.178l-6.995-4.142c-.343-.203-.777.044-.777.443-.005.031.053.56-.365.978a1.24 1.24 0 0 1-.881.365c-.039 0-.071-.032-.071-.071v-2.283a1.28 1.28 0 0 1 .965-1.24l1.71-.433c.62-.157.971.174 1.9.489a2.6 2.6 0 0 0 1.969-.032l.311.525c.145.245.461.325.705.181s.325-.461.181-.705l-.612-1.033c-.277-.467-.123-1.07.345-1.347l1.061-.629a.1.1 0 0 1 .136.035l4.363 7.364c.028.048.013.108-.035.136z"/></svg>