<svg xmlns="http://www.w3.org/2000/svg" width="35" height="35" fill="#3e3465" xmlns:v="https://vecta.io/nano"><path d="M29.03 23.105V8.633c0-.124-.049-.242-.137-.33L25.16 4.57c-.088-.088-.206-.137-.33-.137H11.763a1.4 1.4 0 0 0-1.4 1.4v21.933a1.4 1.4 0 0 0 1.4 1.4h7.217a2.38 2.38 0 0 0 2.164 1.4h7.838c1.313 0 2.381-1.068 2.381-2.381v-2.704a2.38 2.38 0 0 0-2.333-2.376zM25.297 6.027l2.14 2.14h-2.14v-2.14zM11.763 28.233a.47.47 0 0 1-.467-.467V5.833a.47.47 0 0 1 .467-.467h12.6v3.267c0 .258.209.467.467.467h3.267v14h-6.952c-1.313 0-2.381 1.068-2.381 2.381v2.704c0 .016.005.031.005.048h-7.005zm18.667-.048a1.45 1.45 0 0 1-1.448 1.448h-7.838a1.45 1.45 0 0 1-1.448-1.448v-2.704a1.45 1.45 0 0 1 1.448-1.448h7.838a1.45 1.45 0 0 1 1.448 1.448v2.704zM25.765 25.9c.258 0 .467-.209.467-.467s-.209-.467-.467-.467h-1.4c-.258 0-.467.209-.467.467v2.8c0 .258.209.467.467.467s.467-.209.467-.467V27.3h.933c.258 0 .467-.209.467-.467s-.209-.467-.467-.467h-.933V25.9h.933zm-2.803-.933c-.258 0-.467.209-.467.467v.74l-1.07-1.07c-.134-.134-.334-.174-.508-.101a.47.47 0 0 0-.288.431v2.8c0 .258.209.467.467.467s.467-.209.467-.467V26.56l.933.933v.74c0 .258.209.467.467.467s.467-.209.467-.467v-2.8c0-.258-.209-.467-.467-.467zm6.067 0h-1.867c-.258 0-.467.209-.467.467s.209.467.467.467h.467v2.333c0 .258.209.467.467.467s.467-.209.467-.467V25.9h.467c.258 0 .467-.209.467-.467s-.209-.467-.467-.467zM5.753 19.31c-.182-.182-.478-.182-.66 0l-.33.33-.33-.33c-.182-.182-.478-.182-.66 0s-.182.478 0 .66l.33.33-.33.33c-.182.182-.182.478 0 .66.091.091.211.137.33.137s.239-.046.33-.137l.33-.33.33.33c.091.091.211.137.33.137s.239-.046.33-.137c.182-.182.182-.478 0-.66l-.33-.33.33-.33c.182-.182.182-.478 0-.66zm2.276.057c.258 0 .467-.209.467-.467s-.209-.467-.467-.467-.467.209-.467.467.209.467.467.467zm-1.398-5.134c.258 0 .467-.209.467-.467s-.209-.467-.467-.467-.467.209-.467.467.209.467.467.467zm12.132-.119l3.733-1.12v3.246a1.84 1.84 0 0 0-.7-.14c-.901 0-1.633.628-1.633 1.4s.733 1.4 1.633 1.4 1.633-.628 1.633-1.4v-5.133c0-.147-.07-.286-.188-.374a.47.47 0 0 0-.413-.073l-4.667 1.4c-.198.059-.333.241-.333.447v3.874a1.84 1.84 0 0 0-.7-.14c-.901 0-1.633.628-1.633 1.4s.733 1.4 1.633 1.4 1.633-.628 1.633-1.4v-4.786zm3.033 3.853c-.373 0-.7-.218-.7-.467s.327-.467.7-.467.7.218.7.467-.327.467-.7.467zm-4.667 1.4c-.373 0-.7-.218-.7-.467s.327-.467.7-.467.7.218.7.467-.327.467-.7.467z"/></svg>