<svg xmlns="http://www.w3.org/2000/svg" xmlns:xlink="http://www.w3.org/1999/xlink" width="35" height="35" fill="none" xmlns:v="https://vecta.io/nano"><g fill="#3e3465"><path d="M14.766 13.672a.55.55 0 0 0 .387-.16c.103-.102.16-.242.16-.387V8.75a.55.55 0 0 0-.16-.387c-.102-.103-.242-.16-.387-.16a.55.55 0 0 0-.387.16c-.103.102-.16.242-.16.387v2.734l-2.27-3.024c-.049-.079-.118-.144-.199-.189a.55.55 0 0 0-.653.092c-.103.102-.16.242-.16.387v4.375a.55.55 0 0 0 .16.387c.102.103.242.16.387.16a.55.55 0 0 0 .387-.16c.103-.102.16-.242.16-.387v-2.734l2.27 3.024c.049.079.118.144.199.189s.173.069.266.068zm4.375-4.375a.55.55 0 0 0 .387-.16c.103-.102.16-.242.16-.387a.55.55 0 0 0-.16-.387c-.102-.103-.242-.16-.387-.16h-2.187a.55.55 0 0 0-.387.16c-.103.102-.16.242-.16.387v4.375a.55.55 0 0 0 .16.387c.102.103.242.16.387.16a.55.55 0 0 0 .387-.16c.103-.102.16-.242.16-.387v-1.641h1.641a.55.55 0 0 0 .387-.16c.103-.102.16-.242.16-.387a.55.55 0 0 0-.16-.387c-.102-.103-.242-.16-.387-.16H17.5V9.297h1.641zm3.281 4.375a.55.55 0 0 0 .387-.16c.103-.102.16-.242.16-.387V9.297h.547a.55.55 0 0 0 .387-.16c.103-.102.16-.242.16-.387a.55.55 0 0 0-.16-.387c-.102-.103-.242-.16-.387-.16h-2.187a.55.55 0 0 0-.387.16c-.103.102-.16.242-.16.387a.55.55 0 0 0 .16.387c.102.103.242.16.387.16h.547v3.828a.55.55 0 0 0 .16.387c.102.103.242.16.387.16zm6.562 2.734H6.016c-1.268-.034-2.499.436-3.421 1.307a4.8 4.8 0 0 0-1.501 3.341v9.231c.03.987.45 1.922 1.167 2.6s1.674 1.045 2.661 1.02h.312a3.79 3.79 0 0 0 3.604-2.412l2.319-2.187h12.688l2.319 2.188a3.79 3.79 0 0 0 3.604 2.412h.312c.987.025 1.944-.342 2.661-1.02s1.137-1.613 1.167-2.6v-.755a.55.55 0 0 0-.16-.387c-.102-.103-.242-.16-.387-.16a.55.55 0 0 0-.387.16c-.103.102-.16.242-.16.387v.755a2.64 2.64 0 0 1-.845 1.829c-.513.474-1.192.725-1.89.698h-.312c-.568.01-1.125-.158-1.594-.479s-.825-.781-1.021-1.314a.51.51 0 0 0-.142-.224l-2.57-2.444c-.101-.098-.237-.153-.377-.153H10.938a.54.54 0 0 0-.377.153l-2.57 2.444a.51.51 0 0 0-.142.224c-.195.534-.552.993-1.021 1.314s-1.025.489-1.594.479h-.312a2.63 2.63 0 0 1-1.889-.698 2.64 2.64 0 0 1-.845-1.829v-9.231A3.7 3.7 0 0 1 6.016 17.5h22.969a3.7 3.7 0 0 1 3.828 3.555v6.289a.55.55 0 0 0 .16.387c.102.103.242.16.387.16a.55.55 0 0 0 .387-.16c.103-.102.16-.242.16-.387v-6.289c-.039-1.268-.578-2.47-1.501-3.341s-2.153-1.341-3.421-1.307z"/><path d="M6.563 26.25H8.75c.145 0 .284-.058.387-.16s.16-.242.16-.387v-1.641h1.641c.145 0 .284-.058.387-.16s.16-.242.16-.387v-2.187c0-.145-.058-.284-.16-.387s-.242-.16-.387-.16H9.297v-1.641c0-.145-.058-.284-.16-.387s-.242-.16-.387-.16H6.563c-.145 0-.284.058-.387.16s-.16.242-.16.387v1.641H4.375c-.145 0-.284.058-.387.16s-.16.242-.16.387v2.188c0 .145.058.284.16.387s.242.16.387.16h1.641v1.641c0 .145.058.284.16.387s.242.16.387.16zm-1.641-3.281v-1.094h1.641c.145 0 .284-.058.387-.16s.16-.242.16-.387v-1.641h1.094v1.641c0 .145.058.284.16.387s.242.16.387.16h1.641v1.094H8.75c-.145 0-.284.058-.387.16s-.16.242-.16.387v1.641H7.109v-1.641c0-.145-.058-.284-.16-.387s-.242-.16-.387-.16H4.922z"/><use xlink:href="#B"/><use xlink:href="#B" x="4.375"/><path d="M27.891 19.688a1.64 1.64 0 0 0-2.801-1.16 1.64 1.64 0 0 0 1.16 2.801 1.64 1.64 0 0 0 1.641-1.641zm-2.187 0a.55.55 0 0 1 .092-.304.54.54 0 0 1 .245-.201.55.55 0 0 1 .316-.031c.106.021.203.073.28.15s.129.174.15.28a.55.55 0 0 1-.031.316.54.54 0 0 1-.201.245.55.55 0 0 1-.691-.068c-.103-.102-.16-.242-.16-.387zm5.468 2.734a1.64 1.64 0 0 0-2.801-1.16 1.64 1.64 0 0 0 1.16 2.801 1.64 1.64 0 0 0 1.641-1.641zm-2.187 0a.55.55 0 0 1 .092-.304c.06-.09.146-.16.245-.201a.55.55 0 0 1 .316-.031.54.54 0 0 1 .28.15c.076.077.129.174.15.28a.55.55 0 0 1-.031.316.54.54 0 0 1-.201.245.55.55 0 0 1-.691-.068c-.103-.102-.16-.242-.16-.387zm-6.016 1.641a1.64 1.64 0 0 0 2.801 1.16 1.64 1.64 0 0 0-1.16-2.801 1.64 1.64 0 0 0-1.641 1.641zm2.188 0a.55.55 0 0 1-.092.304.54.54 0 0 1-.245.201.55.55 0 0 1-.316.031.54.54 0 0 1-.28-.15c-.076-.077-.129-.174-.15-.28a.55.55 0 0 1 .031-.316.54.54 0 0 1 .201-.245.55.55 0 0 1 .691.068c.103.102.16.242.16.387zm2.734 4.375a1.64 1.64 0 0 0 1.16-2.801 1.64 1.64 0 0 0-2.801 1.16 1.64 1.64 0 0 0 1.641 1.641zm0-2.187a.55.55 0 0 1 .304.092c.09.06.16.146.201.245a.55.55 0 0 1 .031.316c-.021.106-.073.203-.15.28s-.174.129-.28.15a.55.55 0 0 1-.316-.031.54.54 0 0 1-.245-.201.55.55 0 0 1 .068-.691c.102-.103.242-.16.387-.16zM3.281 12.578a2.19 2.19 0 0 0 2.111-1.64H8.75v2.188H7.656a.54.54 0 0 0-.21.041.55.55 0 0 0-.178.118l-.705.7a2.16 2.16 0 0 0-3.014.815c-.069.126-.085.275-.045.413a.55.55 0 0 0 .258.325c.079.048.17.072.262.071a.55.55 0 0 0 .285-.079c.086-.052.156-.127.202-.216a1.09 1.09 0 0 1 .405-.403c.169-.096.359-.146.552-.144a1.09 1.09 0 0 1 .443.095c.14.062.264.153.366.266.096.109.231.175.375.184a.55.55 0 0 0 .396-.135.52.52 0 0 0 .159-.284l.673-.673h.87v.508a.71.71 0 0 0 .06.279.55.55 0 0 0 .274.264c.12.053.254.06.379.022s.232-.12.302-.231.098-.242.079-.372V7.148a1.64 1.64 0 0 1 .831-1.411l6.043-3.347a1.64 1.64 0 0 1 1.564 0l6.016 3.341a1.64 1.64 0 0 1 .858 1.416v7.541c-.012.111.011.223.065.321a.54.54 0 0 0 .236.226.55.55 0 0 0 .246.077.55.55 0 0 0 .29-.082c.087-.054.157-.132.202-.224a.71.71 0 0 0 .06-.279v-.508h.87l.667.673c.024.109.082.209.164.284.109.096.251.144.396.135a.54.54 0 0 0 .375-.184c.102-.113.226-.203.364-.265a1.09 1.09 0 0 1 .992.048c.168.096.308.235.405.403.047.085.116.157.199.207a.55.55 0 0 0 .277.078.5.5 0 0 0 .262-.071.55.55 0 0 0 .261-.324c.041-.138.026-.287-.043-.414a2.19 2.19 0 0 0-1.914-1.116c-.39.001-.764.112-1.094.312l-.695-.7c-.052-.052-.115-.093-.183-.12s-.142-.04-.216-.039h-1.094v-2.187h3.358a2.19 2.19 0 0 0 3.76.899c.352-.399.546-.914.546-1.446s-.194-1.047-.546-1.446a2.19 2.19 0 0 0-3.759.9h-3.358V7.109h1.094a.54.54 0 0 0 .21-.041.55.55 0 0 0 .178-.118l.706-.7c.464.274 1.013.369 1.542.268s1.004-.393 1.334-.819.494-.958.46-1.496-.263-1.045-.644-1.426-.888-.61-1.427-.644a2.21 2.21 0 0 0-1.496.46 2.22 2.22 0 0 0-.819 1.334 2.21 2.21 0 0 0 .268 1.542l-.547.547h-1.11c-.243-.523-.645-.955-1.148-1.236l-6.016-3.352c-.401-.218-.85-.333-1.307-.333s-.906.114-1.307.333L10.144 4.78a2.74 2.74 0 0 0-1.143 1.236H7.88l-.547-.547a2.21 2.21 0 0 0 .259-1.545 2.22 2.22 0 0 0-.827-1.33 2.21 2.21 0 0 0-1.5-.45 2.22 2.22 0 0 0-1.423.654c-.379.384-.604.893-.634 1.432a2.22 2.22 0 0 0 .471 1.494 2.21 2.21 0 0 0 1.342.808c.531.097 1.079-.003 1.541-.281l.695.7c.052.052.115.093.183.12s.142.04.216.038H8.75v2.734H5.391a2.19 2.19 0 0 0-.611-1.038 2.2 2.2 0 0 0-1.068-.558 2.19 2.19 0 0 0-2.171.806 2.19 2.19 0 0 0-.445 1.119c-.041.407.034.818.215 1.185a2.19 2.19 0 0 0 1.969 1.22zm28.438-3.281c.216 0 .428.064.608.184s.32.291.403.491.105.42.062.632a1.1 1.1 0 0 1-.299.56 1.09 1.09 0 0 1-.56.299c-.212.042-.432.021-.632-.062s-.371-.223-.491-.403-.184-.391-.184-.608c0-.29.115-.568.32-.773s.483-.32.773-.32zm-2.187-6.016c.29 0 .568.115.773.32s.32.483.32.773-.115.568-.32.773-.483.32-.773.32-.567-.117-.771-.323a1.1 1.1 0 0 1-.323-.771 1.09 1.09 0 0 1 .32-.773c.205-.205.483-.32.773-.32zM4.374 4.375a1.1 1.1 0 0 1 .129-.515c.084-.159.207-.294.356-.393s.321-.161.5-.179.359.009.525.077.313.177.427.315.193.303.228.479.027.358-.024.53a1.09 1.09 0 0 1-.271.456c-.153.154-.348.259-.56.302a1.09 1.09 0 0 1-.633-.061c-.2-.083-.372-.223-.492-.403a1.1 1.1 0 0 1-.185-.609zM3.281 9.297c.216 0 .428.064.608.184s.32.291.403.491.104.42.062.632a1.09 1.09 0 0 1-.859.859c-.212.042-.432.021-.632-.062s-.371-.223-.491-.403-.184-.391-.184-.608c0-.29.115-.568.32-.773s.483-.32.773-.32zm12.032 21.328h-2.187v2.188h2.188v-2.187zm6.015-.547h-2.187v2.188h2.188v-2.187z"/><use xlink:href="#C"/><use xlink:href="#C" x="4.375"/></g><defs ><path id="B" d="M16.406 22.969h-2.187c-.145 0-.284.058-.387.16s-.16.242-.16.387v2.188c0 .145.058.284.16.387s.242.16.387.16h2.187c.145 0 .284-.058.387-.16s.16-.242.16-.387v-2.187c0-.145-.058-.284-.16-.387s-.242-.16-.387-.16zm-.547 2.187h-1.094v-1.094h1.094v1.094z"/><path id="C" d="M16.406 18.594h-2.187c-.145 0-.284.058-.387.16s-.16.242-.16.387.058.284.16.387.242.16.387.16h2.187c.145 0 .284-.058.387-.16s.16-.242.16-.387-.058-.284-.16-.387-.242-.16-.387-.16z"/></defs></svg>