<svg xmlns="http://www.w3.org/2000/svg" width="35" height="35" fill="none" xmlns:v="https://vecta.io/nano"><path d="M34.628 21.734c-.666-.978-2.006-1.237-2.988-.578l-4.467 2.989-.013-9.304 1.552 1.454c.33.309.76.479 1.212.479a1.78 1.78 0 0 0 1.294-.561 1.76 1.76 0 0 0-.082-2.507l-2.942-2.756a.5.5 0 0 0-.706.023.5.5 0 0 0 .023.706l2.942 2.756a.77.77 0 0 1 .036 1.094c-.148.158-.348.245-.564.245a.77.77 0 0 1-.53-.209L17.714 4.622a.5.5 0 0 0-.684.001L5.378 15.599a.77.77 0 0 1-1.094-.033.77.77 0 0 1 .033-1.094L16.839 2.676c.297-.28.762-.28 1.06-.001l7.326 6.863a.5.5 0 0 0 .706-.023.5.5 0 0 0-.023-.706l-7.326-6.863c-.682-.639-1.748-.637-2.428.003l-4.009 3.776-.001-.674a.79.79 0 0 0-.795-.794l-2.869.004a.79.79 0 0 0-.794.796l.008 4.859-4.063 3.828a1.76 1.76 0 0 0-.075 2.507 1.76 1.76 0 0 0 1.238.557l.054.001a1.76 1.76 0 0 0 1.215-.483l1.548-1.459.006 4.395c-.501-.073-1.008-.111-1.517-.111h-.855v-.299c0-1.006-.818-1.824-1.824-1.824H1.824C.818 17.028 0 17.846 0 18.852v7.828a.5.5 0 0 0 .5.5.5.5 0 0 0 .5-.5v-7.828c0-.455.37-.825.825-.825h1.599c.455 0 .825.37.825.825v.799 10.24.791c0 .455-.37.825-.825.825H1.824c-.455 0-.825-.37-.825-.825v-.874a.5.5 0 0 0-.5-.5.5.5 0 0 0-.5.5v.874c0 1.006.818 1.824 1.824 1.824h1.599c1.006 0 1.824-.818 1.824-1.824v-.068l7.316 2.77.041.014a3.49 3.49 0 0 0 .95.135c.17 0 .338-.013.505-.039l10.752-1.55a5.27 5.27 0 0 0 2.501-1.119l.018-.016 6.946-6.247c.809-.718.96-1.934.352-2.828zM11.145 5.257l.002 1.408-2.455 2.313-.006-3.717 2.459-.003zm6.228.415l8.787 8.231.015 10.91-1.414.947-1.498-.084-.04-.398c-.139-1.401-1.174-2.528-2.542-2.797l-.009-6.49c-.001-.498-.406-.903-.904-.903l-4.763.007a.9.9 0 0 0-.903.905l.008 5.659c-.943-.216-1.844-.572-2.686-1.064l-.318-.178-.126-.066-.196-.101-.158-.076-.168-.079-.173-.076-.159-.068-.179-.072-.16-.061-.178-.065-.168-.058-.172-.056-.185-.056-.159-.046-.209-.055-.098-.026-.008-5.529 8.763-8.255zm2.309 16.683l-4.178-.481-.394-.045-.008-5.736 4.572-.006.009 6.269zm13.928 1.462l-6.939 6.241c-.578.469-1.272.779-2.007.897l-10.747 1.549-.014.002a2.38 2.38 0 0 1-1.008-.064l-7.649-2.897V20.15h.855a9.54 9.54 0 0 1 2.154.247l.078.019.259.066.022.006.257.074.046.014.271.088.028.01.557.212.03.013.272.119.267.128.03.015.25.13.047.025.249.14c1.189.696 2.483 1.146 3.847 1.339l5.61.646.092.015c.824.155 1.474.764 1.692 1.557.032.117.055.239.067.364l.022.224-10.49-.919a.5.5 0 0 0-.541.454.5.5 0 0 0 .454.541l11.091.972 2.107.119.028.001c.01 0 .02-.002.03-.002l.033-.003c.015-.002.03-.005.044-.008l.031-.007c.016-.005.031-.011.047-.017l.025-.01c.023-.011.046-.023.068-.038l1.775-1.188 5.243-3.509c.528-.355 1.248-.216 1.605.31.327.48.246 1.133-.191 1.521z" fill="#3e3465"/></svg>