<svg xmlns="http://www.w3.org/2000/svg" width="35" height="35" fill="#3e3465" xmlns:v="https://vecta.io/nano"><path d="M33.268 6.806l-3.281-4.922c-.05-.075-.118-.136-.197-.179a.54.54 0 0 0-.258-.065H5.469a.54.54 0 0 0-.258.065c-.079.043-.147.104-.197.179L1.733 6.806a.55.55 0 0 0-.092.304v1.64a2.74 2.74 0 0 0 2.188 2.68v18.648a.55.55 0 0 0 .16.387c.102.103.242.16.387.16h7l5.305 3.063a1.64 1.64 0 0 0 1.641 0l5.305-3.062h7a.55.55 0 0 0 .387-.16c.103-.102.16-.242.16-.387V11.43a2.74 2.74 0 0 0 2.188-2.68V7.109a.55.55 0 0 0-.092-.304zM5.761 2.734h23.477l2.552 3.828H3.209l2.552-3.828zM27.89 7.656V8.75a1.64 1.64 0 1 1-3.282 0V7.656h3.281zm-4.375 0V8.75a1.64 1.64 0 1 1-3.282 0V7.656h3.281zm-4.375 0V8.75a1.64 1.64 0 1 1-3.282 0V7.656h3.281zm-4.375 0V8.75a1.64 1.64 0 1 1-3.282 0V7.656h3.281zm-4.375 0V8.75a1.64 1.64 0 1 1-3.281 0V7.656h3.281zM2.734 8.75V7.656h3.281V8.75a1.64 1.64 0 1 1-3.281 0zm15.039 23.989c-.083.048-.177.073-.273.073s-.19-.025-.273-.073l-7.656-4.42a.55.55 0 0 1-.273-.474v-8.659a.55.55 0 0 1 .273-.474l7.656-4.42c.083-.048.177-.073.273-.073s.19.025.273.073l7.656 4.42a.55.55 0 0 1 .273.474v8.659a.55.55 0 0 1-.073.274.54.54 0 0 1-.2.2l-7.656 4.42zm7.744-3.208l.459-.265a1.64 1.64 0 0 0 .82-1.422v-8.658a1.64 1.64 0 0 0-.82-1.422l-7.656-4.42a1.64 1.64 0 0 0-1.641 0l-7.656 4.42a1.64 1.64 0 0 0-.82 1.422v8.659a1.64 1.64 0 0 0 .82 1.422l.459.265h-4.56V11.424a2.74 2.74 0 0 0 1.641-1.051 2.71 2.71 0 0 0 4.376 0 2.71 2.71 0 0 0 4.376 0 2.71 2.71 0 0 0 4.376 0 2.71 2.71 0 0 0 4.376 0 2.71 2.71 0 0 0 4.376 0 2.74 2.74 0 0 0 1.641 1.051v18.107h-4.561zM32.266 8.75a1.64 1.64 0 1 1-3.282 0V7.656h3.281V8.75zm-12.305 8.719l-2.187-1.263c-.083-.048-.177-.073-.273-.073s-.19.025-.273.073l-.547.316a.55.55 0 0 0-.274.474v13.083a.55.55 0 0 0 .16.387c.102.103.242.16.387.16a.55.55 0 0 0 .387-.16c.103-.102.16-.242.16-.387v-5.742h1.914a.55.55 0 0 0 .387-.16c.103-.102.16-.242.16-.387a.55.55 0 0 0-.16-.387c-.102-.103-.242-.16-.387-.16H17.5v-5.931l1.914 1.105a.55.55 0 0 0 .415.055c.14-.037.26-.129.332-.255a.55.55 0 0 0 .055-.415c-.037-.14-.129-.26-.255-.332zm4.375 2.526l-2.734-1.579a.55.55 0 0 0-.415-.055c-.14.037-.26.129-.332.255a.55.55 0 0 0-.055.415c.037.14.129.26.255.332l.82.474v8.053a.55.55 0 0 0 .16.387c.102.103.242.16.387.16a.55.55 0 0 0 .387-.16c.103-.102.16-.242.16-.387v-7.422l.82.474a.54.54 0 0 0 .203.07.55.55 0 0 0 .214-.013.53.53 0 0 0 .192-.094.55.55 0 0 0 .195-.578.55.55 0 0 0-.257-.332zm-9.844-1.675a.55.55 0 0 0-.387.16c-.103.102-.16.242-.16.387v7.004l-2.227-5.566c-.047-.118-.134-.215-.246-.276s-.241-.081-.365-.057-.237.091-.318.188a.55.55 0 0 0-.126.348v7.109a.55.55 0 0 0 .16.387c.102.103.242.16.387.16a.55.55 0 0 0 .387-.16c.103-.102.16-.242.16-.387v-4.27l2.227 5.567a.54.54 0 0 0 .246.276.55.55 0 0 0 .365.057c.124-.024.237-.091.318-.188s.125-.221.125-.348v-9.844a.55.55 0 0 0-.16-.387c-.102-.103-.242-.16-.387-.16z"/></svg>