<svg xmlns="http://www.w3.org/2000/svg" xmlns:xlink="http://www.w3.org/1999/xlink" width="35" height="35" fill="none" xmlns:v="https://vecta.io/nano"><g fill="#000"><path d="M33.359 28.438H21.328c-.302 0-.547.245-.547.547v1.094h-6.562v-1.094c0-.302-.245-.547-.547-.547H3.828V13.672a.55.55 0 0 1 .547-.547h1.094c0 2.792.958 5.362 2.56 7.406l-1.711.855c-.185.092-.302.282-.302.489v1.194c-.635.226-1.094.828-1.094 1.54 0 .904.736 1.641 1.641 1.641s1.641-.736 1.641-1.641c0-.712-.459-1.314-1.094-1.54v-.856l1.655-.828c.535.566 1.124 1.079 1.76 1.533v1.245c-.635.226-1.094.828-1.094 1.54 0 .905.736 1.641 1.641 1.641s1.641-.736 1.641-1.641c0-.712-.459-1.314-1.094-1.54v-.549a11.94 11.94 0 0 0 5.335 1.527v.662a1.64 1.64 0 0 0-1.094 1.54c0 .904.736 1.641 1.641 1.641s1.641-.736 1.641-1.641a1.64 1.64 0 0 0-1.094-1.54v-.662a11.94 11.94 0 0 0 5.469-1.604v.626c-.635.226-1.094.828-1.094 1.54 0 .905.736 1.641 1.641 1.641s1.641-.736 1.641-1.641c0-.712-.459-1.314-1.094-1.54v-1.34c.585-.43 1.128-.912 1.626-1.438l1.655.828v.856c-.635.226-1.094.828-1.094 1.54 0 .904.736 1.641 1.641 1.641s1.641-.736 1.641-1.641c0-.712-.459-1.314-1.094-1.54v-1.194a.55.55 0 0 0-.302-.489l-1.711-.855c1.602-2.043 2.56-4.613 2.56-7.405h1.094a.55.55 0 0 1 .547.547v13.125c0 .302.244.547.547.547s.547-.245.547-.547V13.672c0-.905-.736-1.641-1.641-1.641h-1.146A12.05 12.05 0 0 0 17.5 1.094a12.05 12.05 0 0 0-7.658 2.752c-.233.192-.266.537-.073.77s.536.266.769.073c1.953-1.613 4.425-2.502 6.962-2.502 6.031 0 10.938 4.907 10.938 10.938S23.531 24.063 17.5 24.063 6.563 19.156 6.563 13.125a10.96 10.96 0 0 1 2.501-6.962c.193-.233.16-.577-.073-.77s-.578-.16-.769.073a12.05 12.05 0 0 0-2.7 6.565H4.375c-.905 0-1.641.736-1.641 1.641v14.766H1.641c-.302 0-.547.245-.547.547v2.188a2.74 2.74 0 0 0 2.734 2.734h16.406c.302 0 .547-.245.547-.547s-.244-.547-.547-.547H3.828c-.905 0-1.641-.736-1.641-1.641v-1.641h10.938v1.094c0 .302.245.547.547.547h7.656c.302 0 .547-.245.547-.547v-1.094h10.938v1.641c0 .905-.736 1.641-1.641 1.641h-8.75c-.302 0-.547.245-.547.547s.244.547.547.547h8.75a2.74 2.74 0 0 0 2.734-2.734v-2.187c0-.301-.244-.546-.547-.546zM6.563 25.156a.55.55 0 0 1-.547-.547.55.55 0 0 1 .547-.547.55.55 0 0 1 .547.547.55.55 0 0 1-.547.547zm4.509 1.094a.55.55 0 0 1-.547-.547.55.55 0 0 1 .547-.547.55.55 0 0 1 .547.547.55.55 0 0 1-.547.547zm12.991 0a.55.55 0 0 1-.547-.547.55.55 0 0 1 .547-.547.55.55 0 0 1 .547.547.55.55 0 0 1-.547.547zm4.375-1.094a.55.55 0 0 1-.547-.547.55.55 0 0 1 .547-.547.55.55 0 0 1 .547.547.55.55 0 0 1-.547.547zM17.5 27.891a.55.55 0 0 1-.547-.547.55.55 0 0 1 .547-.547.55.55 0 0 1 .547.547.55.55 0 0 1-.547.547z"/><use xlink:href="#B"/><use xlink:href="#B" x="2.187"/><use xlink:href="#B" x="-24.063"/><use xlink:href="#B" x="-21.875"/><use xlink:href="#B" x="-18.047" y="-18.047"/><use xlink:href="#B" x="-3.829" y="-18.047"/><path d="M25.226 19.213c1.386-1.756 2.118-3.861 2.118-6.088A9.86 9.86 0 0 0 17.5 3.281a9.86 9.86 0 0 0-9.844 9.844 9.86 9.86 0 0 0 9.844 9.844c2.227 0 4.332-.732 6.088-2.118.237-.187.278-.531.091-.768a.55.55 0 0 0-.768-.091 8.65 8.65 0 0 1-5.411 1.883c-4.824 0-8.75-3.925-8.75-8.75s3.925-8.75 8.75-8.75 8.75 3.925 8.75 8.75c0 1.979-.651 3.85-1.883 5.411-.187.237-.147.581.091.768s.581.146.768-.091zm-12.773-8.808c-.247.058-.422.278-.422.532v4.375c0 .302.245.547.547.547s.547-.245.547-.547v-2.058l1.151 2.303c.094.189.286.302.489.302a.54.54 0 0 0 .125-.015c.247-.058.422-.278.422-.532v-4.375c0-.302-.245-.547-.547-.547s-.547.245-.547.547v2.058l-1.151-2.303a.55.55 0 0 0-.615-.288zm6.688 1.079c.302 0 .547-.245.547-.547s-.244-.547-.547-.547h-2.187c-.302 0-.547.245-.547.547v4.375c0 .302.245.547.547.547s.547-.245.547-.547v-1.641h1.094c.302 0 .547-.245.547-.547s-.244-.547-.547-.547H17.5v-1.094h1.641zm3.281 4.375c.302 0 .547-.245.547-.547v-3.828h.547c.302 0 .547-.245.547-.547s-.244-.547-.547-.547h-2.187c-.302 0-.547.245-.547.547s.245.547.547.547h.547v3.828c0 .302.244.547.547.547zm-1.641-6.562c.177 0 .351-.085.456-.243.168-.251.1-.591-.152-.759l-3.281-2.187a.55.55 0 0 0-.607 0l-3.281 2.188c-.252.167-.319.507-.151.759s.506.319.759.151L17.5 7.22l2.978 1.985a.55.55 0 0 0 .303.092zm-3.584 10.845a.55.55 0 0 0 .303.092c.105 0 .212-.031.303-.092l3.281-2.187c.252-.167.319-.507.151-.758s-.507-.319-.758-.152L17.5 19.03l-2.978-1.985c-.253-.168-.591-.099-.759.152s-.1.591.151.758l3.281 2.188z"/></g><defs ><path id="B" d="M28.438 31.719c.302 0 .547-.245.547-.547s-.245-.547-.547-.547-.547.245-.547.547.245.547.547.547z"/></defs></svg>