<svg xmlns="http://www.w3.org/2000/svg" width="35" height="35" fill="#3e3465" xmlns:v="https://vecta.io/nano"><path d="M1.203 19.141a.54.54 0 0 0-.212.059c-.066.034-.124.081-.171.138s-.082.124-.103.195-.027.146-.017.22c.39 2.924 1.538 5.696 3.33 8.039.044.061.1.113.165.152a.55.55 0 0 0 .212.073.53.53 0 0 0 .224-.019.54.54 0 0 0 .197-.107 1.64 1.64 0 0 1 2.296 2.297c-.05.057-.087.123-.11.195a.54.54 0 0 0-.023.223c.008.076.031.148.068.213a.54.54 0 0 0 .148.168 16.9 16.9 0 0 0 8.05 3.314.55.55 0 0 0 .22-.017c.071-.021.138-.056.195-.103a.57.57 0 0 0 .141-.171c.035-.066.056-.138.062-.212a1.64 1.64 0 0 1 3.248 0c.006.074.027.146.062.212s.083.124.141.171a.55.55 0 0 0 .345.126h.071a16.91 16.91 0 0 0 8.05-3.33c.062-.044.115-.101.154-.166a.54.54 0 0 0 .053-.44.55.55 0 0 0-.109-.198 1.64 1.64 0 0 1 2.297-2.296c.057.05.123.087.195.11s.148.031.223.023a.55.55 0 0 0 .213-.068.54.54 0 0 0 .168-.148 16.9 16.9 0 0 0 3.314-8.05c.008-.073 0-.146-.021-.216a.55.55 0 0 0-.103-.191.56.56 0 0 0-.17-.136.55.55 0 0 0-.209-.059 1.64 1.64 0 1 1 0-3.282c.074-.005.146-.026.212-.06s.124-.081.171-.139.082-.123.103-.195a.55.55 0 0 0 .017-.22 16.91 16.91 0 0 0-3.33-8.05c-.045-.061-.102-.111-.167-.149s-.138-.061-.213-.069-.151-.001-.223.022a.55.55 0 0 0-.195.109 1.64 1.64 0 0 1-2.281-2.281c.05-.057.087-.123.11-.195s.031-.148.023-.223a.55.55 0 0 0-.068-.213.54.54 0 0 0-.148-.168A16.91 16.91 0 0 0 19.742.7a.56.56 0 0 0-.22.017.54.54 0 0 0-.195.103.57.57 0 0 0-.141.171c-.035.066-.056.138-.062.212a1.64 1.64 0 0 1-3.264 0c-.006-.074-.027-.146-.062-.212s-.083-.124-.141-.171-.124-.082-.195-.103-.146-.027-.22-.017a16.92 16.92 0 0 0-8.034 3.33c-.061.044-.113.1-.152.165a.55.55 0 0 0-.073.212.53.53 0 0 0 .019.224.54.54 0 0 0 .107.197 1.64 1.64 0 0 1-2.281 2.281c-.057-.05-.123-.087-.195-.11s-.148-.031-.223-.023a.55.55 0 0 0-.213.068.54.54 0 0 0-.168.148C2.233 9.542 1.085 12.324.7 15.258a.56.56 0 0 0 .017.22.54.54 0 0 0 .103.195c.047.057.105.104.171.138a.54.54 0 0 0 .212.059 1.64 1.64 0 1 1 0 3.282v-.011zm.656-4.244a15.81 15.81 0 0 1 2.734-6.595 2.73 2.73 0 0 0 1.692.293c.581-.087 1.119-.358 1.533-.774a2.74 2.74 0 0 0 .471-3.228 15.81 15.81 0 0 1 6.595-2.734c.172.559.518 1.049.989 1.397s1.04.535 1.625.535 1.155-.188 1.625-.535.817-.837.989-1.397a15.81 15.81 0 0 1 6.595 2.734 2.74 2.74 0 0 0-.289 1.687 2.73 2.73 0 0 0 .771 1.528c.414.414.949.684 1.528.771a2.73 2.73 0 0 0 1.687-.289 15.81 15.81 0 0 1 2.734 6.595c-.559.172-1.049.518-1.397.989s-.536 1.04-.536 1.625a2.73 2.73 0 0 0 .536 1.625 2.74 2.74 0 0 0 1.397.989 15.81 15.81 0 0 1-2.734 6.595c-.517-.274-1.108-.375-1.687-.288s-1.114.357-1.528.771-.684.949-.771 1.528a2.73 2.73 0 0 0 .289 1.687 15.81 15.81 0 0 1-6.595 2.734c-.172-.559-.518-1.049-.989-1.397s-1.04-.535-1.625-.535-1.155.188-1.625.535-.817.837-.989 1.397a15.81 15.81 0 0 1-6.595-2.734 2.74 2.74 0 0 0 .289-1.687 2.73 2.73 0 0 0-.771-1.528c-.414-.414-.949-.684-1.528-.771s-1.17.014-1.687.288a15.81 15.81 0 0 1-2.734-6.595c.559-.172 1.049-.518 1.397-.989s.535-1.04.535-1.625-.188-1.155-.535-1.625-.837-.817-1.397-.989v.011zm8.383 15.466a14.87 14.87 0 0 0 3.177 1.356l.312-1.094c-1.029-.294-2.02-.707-2.953-1.23l-.536.968zM24.737 4.626c-.994-.557-2.049-.998-3.145-1.312h-.06l-.262 1.094a13.77 13.77 0 0 1 2.931 1.22l.536-1.001zM5.584 10.79l-.952-.547a14.45 14.45 0 0 0-1.312 3.145v.06l1.061.273a13.76 13.76 0 0 1 1.203-2.931zm15.58 19.884l.29 1.045a14.8 14.8 0 0 0 3.21-1.318l-.547-.957c-.934.521-1.925.934-2.953 1.23zM13.813 4.331l-.295-1.05a15.05 15.05 0 0 0-3.205 1.323l.547.957c.933-.524 1.924-.936 2.953-1.23zM5.551 24.145c-.521-.939-.93-1.936-1.22-2.97l-1.05.29a14.8 14.8 0 0 0 1.313 3.21l.957-.53zm23.855.087l.952.547a14.98 14.98 0 0 0 1.362-3.21v-.049l-1.094-.252a13.58 13.58 0 0 1-1.22 2.964zm2.312-10.724a14.77 14.77 0 0 0-1.329-3.205l-.952.547a13.75 13.75 0 0 1 1.225 2.97l1.055-.312zM17.5 29.531c6.934 0 12.578-5.398 12.578-12.031 0-5.923-4.495-10.85-10.391-11.845v-.186h-1.094v.049c-.361-.049-.727-.049-1.094-.049-6.934 0-12.578 5.398-12.578 12.031S10.566 29.531 17.5 29.531zM11.67 8.094l.361 1.859c.021.101.07.195.142.269s.163.127.263.152l1.274.317c.066.229.204.431.395.574s.423.22.661.219a1.08 1.08 0 0 0 .519-.129c.16-.086.296-.208.396-.359s.162-.323.179-.504-.011-.361-.081-.528-.181-.313-.322-.427-.307-.19-.485-.223-.361-.022-.533.033a1.1 1.1 0 0 0-.454.282l-.935-.235-.366-1.81a11.85 11.85 0 0 1 4.818-1.023c.372 0 .733 0 1.094.055v3.938l-1.209.93a1.15 1.15 0 0 0-.432-.109c-.216 0-.428.064-.608.184s-.32.291-.403.491-.104.42-.062.632a1.09 1.09 0 0 0 .859.859c.212.042.432.021.632-.062s.371-.223.491-.403.184-.391.184-.608a.91.91 0 0 0 0-.126l1.433-1.094c.068-.051.123-.117.161-.193a.55.55 0 0 0 .058-.245V6.765a11.69 11.69 0 0 1 2.188.629v4.637a.55.55 0 0 0 .16.387c.102.103.242.16.387.16h1.794a1.09 1.09 0 0 0 .529.464 1.1 1.1 0 0 0 .702.046c.233-.062.438-.2.585-.391a1.09 1.09 0 0 0 0-1.332 1.1 1.1 0 0 0-.585-.391 1.09 1.09 0 0 0-1.231.51h-1.258V7.886a10.88 10.88 0 0 1 6.016 9.614 10.8 10.8 0 0 1-1.454 5.314c-.936 1.616-2.274 2.962-3.884 3.907l-.137-1.094c-.013-.11-.06-.213-.133-.296a.55.55 0 0 0-.277-.169l-1.274-.317c-.067-.225-.205-.423-.393-.564s-.417-.217-.652-.218c-.181-.001-.359.043-.519.128s-.296.208-.396.359-.162.323-.179.503a1.1 1.1 0 0 0 .081.528c.07.167.181.313.322.427a1.09 1.09 0 0 0 .485.223c.177.033.361.022.533-.033a1.1 1.1 0 0 0 .454-.282l.908.224.148 1.137a11.93 11.93 0 0 1-5.119 1.159c-.372 0-.733 0-1.094-.055v-4.047l1.209-.908a1.15 1.15 0 0 0 .432.087c.216 0 .428-.064.608-.184s.32-.291.403-.491.104-.42.062-.632a1.09 1.09 0 0 0-.859-.859 1.1 1.1 0 0 0-.632.062c-.2.082-.371.223-.491.403s-.184.391-.184.608a.91.91 0 0 0 0 .126l-1.433 1.094c-.068.051-.123.117-.161.193a.55.55 0 0 0-.058.245v4.173c-.748-.138-1.481-.349-2.187-.629v-4.107a.55.55 0 0 0-.16-.387c-.102-.103-.242-.16-.387-.16h-1.236a1.09 1.09 0 0 0-.529-.464 1.1 1.1 0 0 0-.702-.046c-.233.062-.438.2-.585.391a1.09 1.09 0 0 0 0 1.332 1.1 1.1 0 0 0 .585.391 1.09 1.09 0 0 0 1.231-.51h.7v3.052a10.88 10.88 0 0 1-4.36-3.961A10.86 10.86 0 0 1 6.016 17.5c.021-1.929.556-3.818 1.55-5.471s2.411-3.012 4.105-3.935zm-.732 8.859l2.297 3.063c.051.068.117.123.193.161a.55.55 0 0 0 .245.058.64.64 0 0 0 .175 0c.113-.038.211-.112.278-.211a.55.55 0 0 0 .094-.336v-4.922h-1.094v3.281l-2.297-3.062c-.069-.092-.165-.16-.274-.194a.55.55 0 0 0-.336.003c-.109.036-.204.106-.271.199s-.103.205-.103.32v4.922h1.094v-3.281zm5.468 1.094h2.734v-1.094h-2.734v-1.094h2.734v-1.094h-3.281a.55.55 0 0 0-.387.16c-.103.102-.16.242-.16.387v4.922h1.094v-2.187zm5.469 2.187h1.094v-4.375h1.641v-1.094h-4.375v1.094h1.641v4.375z"/></svg>