<svg xmlns="http://www.w3.org/2000/svg" width="35" height="35" fill="none" xmlns:v="https://vecta.io/nano"><g clip-path="url(#A)" fill="#3e3465"><path d="M33.978 20.158l-6.292-3.633a2.03 2.03 0 0 0-.615-.228V3.691c-.001-.979-.39-1.917-1.082-2.609S24.358.001 23.379 0H9.538c-.506.001-1.007.105-1.471.307s-.882.496-1.228.866L.993 7.435A3.68 3.68 0 0 0 0 9.953v21.355c.001.979.39 1.917 1.082 2.609S2.713 34.999 3.691 35h19.687a3.65 3.65 0 0 0 1.956-.565l.301.173a2.06 2.06 0 0 0 2.05 0l6.292-3.633c.312-.181.57-.44.75-.752s.275-.666.275-1.026v-7.264a2.06 2.06 0 0 0-.276-1.025c-.18-.312-.439-.571-.75-.751zM1.593 7.995l5.846-6.262a2.85 2.85 0 0 1 .491-.417v5.459c-.001.451-.18.883-.499 1.202s-.751.498-1.202.499H1.23c.104-.173.225-.334.362-.482zM23.379 34.18H3.691c-.761-.001-1.491-.304-2.029-.842S.821 32.07.82 31.309V9.953a2.88 2.88 0 0 1 .079-.656h5.33a2.53 2.53 0 0 0 1.782-.739 2.52 2.52 0 0 0 .739-1.782V.934A2.84 2.84 0 0 1 9.538.82h13.841c.761.001 1.491.304 2.029.842s.841 1.268.842 2.029v12.605a2.02 2.02 0 0 0-.615.229l-2.418 1.396A9.7 9.7 0 0 0 4.995 14.01a9.7 9.7 0 0 0 13.322 13.033v2.156a2.06 2.06 0 0 0 1.025 1.777l5.155 2.976c-.353.151-.734.228-1.118.227zm-7.287-15.176c.09 2.118.872 4.149 2.225 5.781v1.296a8.83 8.83 0 0 1-4.372 1.385v-8.461h2.147zm-2.147-.82V9.717a8.81 8.81 0 0 1 5.095 1.9c-1.787 1.73-2.842 4.081-2.946 6.566h-2.149zm2.968.82h4.427l-1.998 1.154a2.06 2.06 0 0 0-1.025 1.777v1.468a8.89 8.89 0 0 1-1.404-4.399zm.001-.82c.105-2.287 1.09-4.446 2.748-6.025l.164.156a8.83 8.83 0 0 1 2.586 5.868h-5.497zm-6.759.82c-.105 2.287-1.09 4.446-2.748 6.025l-.164-.156a8.83 8.83 0 0 1-2.586-5.868h5.497zm-5.496-.82c.095-2.211 1.018-4.306 2.586-5.868l.164-.156a8.88 8.88 0 0 1 2.746 6.025H4.66zm6.316.82h2.149v8.467a8.81 8.81 0 0 1-5.095-1.9c1.787-1.73 2.842-4.081 2.946-6.566zm0-.82c-.104-2.485-1.159-4.836-2.946-6.566a8.81 8.81 0 0 1 5.095-1.9v8.466h-2.149zM34.182 29.2a1.23 1.23 0 0 1-.615 1.066l-6.292 3.632a1.23 1.23 0 0 1-.615.164 1.24 1.24 0 0 1-.615-.164l-6.292-3.633a1.23 1.23 0 0 1-.615-1.066v-7.265a1.23 1.23 0 0 1 .615-1.066l6.292-3.632a1.23 1.23 0 0 1 .615-.164 1.24 1.24 0 0 1 .615.164l6.292 3.633a1.23 1.23 0 0 1 .615 1.066V29.2zm-6.291-6.094H25.43a.41.41 0 0 0-.41.41v4.102a.41.41 0 1 0 .82 0v-1.504h1.777a.41.41 0 1 0 0-.82H25.84v-1.367h2.051a.41.41 0 1 0 0-.82zm-4.102 0a.41.41 0 0 0-.41.41v2.621l-1.699-2.832a.41.41 0 0 0-.762.211v4.102a.41.41 0 1 0 .82 0v-2.621l1.699 2.832a.41.41 0 0 0 .762-.211v-4.102a.41.41 0 0 0-.41-.41zm8.203 0h-2.461a.41.41 0 1 0 0 .82h.82v3.691a.41.41 0 1 0 .82 0v-3.691h.82a.41.41 0 1 0 0-.82z"/></g><defs><clipPath id="A"><path fill="#fff" d="M0 0h35v35H0z"/></clipPath></defs></svg>