<svg xmlns="http://www.w3.org/2000/svg" xmlns:xlink="http://www.w3.org/1999/xlink" width="35" height="35" fill="none" xmlns:v="https://vecta.io/nano"><g fill="#3e3465"><path d="M32.372 25.974c-.289 0-.524.234-.524.524v.272c0 .29.235.524.524.524s.524-.234.524-.524v-.272c0-.29-.235-.524-.524-.524zM2.105 31.649c0 1.445 1.175 2.62 2.62 2.62h25.549c1.445 0 2.62-1.175 2.62-2.62v-2.484c0-.29-.235-.524-.524-.524s-.524.234-.524.524v2.484c0 .867-.705 1.572-1.572 1.572H4.725c-.867 0-1.572-.705-1.572-1.572V9.385h28.693v14.719c0 .29.235.524.524.524s.524-.234.524-.524l.004-20.752c0-1.445-1.175-2.62-2.62-2.62H4.726c-1.445 0-2.62 1.175-2.62 2.62V31.65zM3.154 3.351c0-.867.705-1.572 1.572-1.572h25.553c.867 0 1.572.705 1.572 1.572v4.983H3.154V3.351z"/><use xlink:href="#B"/><use xlink:href="#B" x="3.039"/><use xlink:href="#B" x="6.083"/><path d="M28.889 4.533h-8.572c-.289 0-.524.234-.524.524s.235.524.524.524h8.572c.289 0 .524-.234.524-.524s-.235-.524-.524-.524zm-10.078 7.915a2.63 2.63 0 0 0-2.62 0l-5.702 3.292a2.63 2.63 0 0 0-1.31 2.269v6.583c0 .933.502 1.803 1.31 2.269l5.702 3.292a2.62 2.62 0 0 0 2.62 0l5.701-3.292c.808-.466 1.31-1.335 1.31-2.269v-6.583a2.63 2.63 0 0 0-1.31-2.269l-5.702-3.292zm5.964 12.144c0 .56-.301 1.082-.786 1.361l-5.701 3.292a1.58 1.58 0 0 1-1.572 0l-5.702-3.292c-.485-.279-.786-.801-.786-1.361v-6.583c0-.56.301-1.082.786-1.362l5.701-3.292a1.58 1.58 0 0 1 1.572 0l5.702 3.292c.485.28.786.802.786 1.362v6.583zm-9.647-5.28c-.289 0-.524.234-.524.524v1.171l-.954-1.458c-.286-.436-.963-.23-.963.287v2.929c0 .29.235.524.524.524s.524-.234.524-.524v-1.171l.954 1.458c.284.433.963.235.963-.287v-2.929c0-.29-.235-.524-.524-.524zm6.661 0h-2.082c-.289 0-.524.234-.524.524s.235.524.524.524h.517v2.405c0 .29.235.524.524.524s.524-.234.524-.524V20.36h.517c.289 0 .524-.234.524-.524s-.235-.524-.524-.524zm-3.483 1.048c.289 0 .524-.234.524-.524s-.235-.524-.524-.524H16.84c-.289 0-.524.234-.524.524v2.928c0 .29.235.524.524.524s.524-.234.524-.524v-.941h.942c.289 0 .524-.234.524-.524s-.235-.524-.524-.524h-.942v-.416h.942z"/></g><defs ><path id="B" d="M6.562 4.533h-.449c-.289 0-.524.234-.524.524s.235.524.524.524h.449c.289 0 .524-.234.524-.524s-.235-.524-.524-.524z"/></defs></svg>