<svg width="1542" height="718" viewBox="0 0 1542 718" fill="none" xmlns="http://www.w3.org/2000/svg">
<g opacity="0.3">
<path d="M870.068 500.776C880.735 500.805 891.385 500.124 901.893 498.741C931.95 494.707 961.597 484.094 989.942 467.207C1013.46 453.198 1035.93 435.187 1058.68 412.139C1070.88 399.773 1082.6 386.753 1093.92 374.161C1119.34 345.885 1145.62 316.679 1179.14 293.056C1290.52 214.565 1457.49 213.322 1576.62 238.333C1707.74 265.859 1823.68 324.837 1935.81 381.871L1947.57 387.852C1965.81 397.117 1989.88 408.565 2014.44 415.039C2041.15 422.058 2064.15 422.272 2084.8 415.654C2137.75 398.695 2146.84 346.356 2154.12 304.271C2172.98 195.351 2231.2 106.013 2318.04 52.7502C2410.18 -3.77465 2566.51 -23.9555 2668.64 40.1051L2668.92 39.8519C2645.27 25.0171 2617.6 14.1244 2586.69 7.47639C2557.46 1.18672 2526.14 -1.15095 2493.66 0.525859C2461.71 2.21728 2430.28 7.56985 2400.47 16.3996C2370.02 25.3656 2342.19 37.5076 2317.77 52.4937C2271.36 80.9632 2233.4 118.954 2204.95 165.405C2179.77 206.503 2162.53 253.221 2153.69 304.228C2146.42 346.211 2137.37 398.458 2084.63 415.341C2040.2 429.558 1990.54 409.282 1947.82 387.569L1936.06 381.588C1823.9 324.537 1707.92 265.547 1576.74 238.004C1506.13 223.183 1433.09 219.546 1365.52 227.483C1329.72 231.695 1296.03 239.135 1265.39 249.597C1232.89 260.7 1203.77 275.243 1178.84 292.8C1145.3 316.446 1118.99 345.685 1093.56 373.957C1082.24 386.55 1070.53 399.566 1058.33 411.929C1008.21 462.709 957.014 490.995 901.815 498.399C853.027 504.949 802.698 494.342 758.306 484.985C680.973 468.687 609.291 476.489 539.969 484.035C446.384 494.227 357.996 503.841 257.237 459.106L257.019 459.389C281.278 470.16 305.441 478.08 330.889 483.594C353.592 488.526 376.827 491.403 401.927 492.422C448.58 494.312 495.072 489.252 540.012 484.36C609.273 476.818 680.925 469.022 758.171 485.304C793.023 492.665 831.509 500.776 870.068 500.776Z" fill="url(#paint0_linear_525_3513)"/>
<path d="M870.883 500.273C878.775 500.285 886.659 499.898 894.484 499.116C948.712 493.526 1000.1 467.99 1051.57 421.023C1059.15 414.118 1066.49 406.951 1073.3 400.243C1078.09 395.502 1082.94 390.649 1087.62 385.954C1114.04 359.461 1141.37 332.066 1175.81 309.367C1182.35 305.07 1189.22 300.878 1196.29 296.903C1246.82 268.502 1309.59 249.14 1377.83 240.911C1439.84 233.395 1506.1 235.14 1569.45 245.954C1700.5 268.312 1819.33 323.189 1934.25 376.268L1939.11 378.514C1958.86 387.648 1982.33 397.754 2006.53 403.472C2033.45 409.831 2056.65 409.719 2077.47 403.143C2101 395.719 2118.45 381.154 2130.84 358.616C2141.61 339.027 2147.07 316.143 2151.89 295.953L2152.09 295.104C2169.62 221.105 2214.01 119.724 2326.08 57.0242C2380.5 26.6379 2456.37 7.86749 2530.58 11.5598C2521.04 11.0688 2511.37 10.9351 2501.57 11.1586C2469.98 11.9159 2438.72 16.2539 2408.84 24.0273C2378.5 31.8787 2350.55 42.8864 2325.77 56.6954C2278.87 82.9325 2239.74 118.53 2209.44 162.495C2182.68 201.325 2163.22 245.918 2151.6 295.035L2151.4 295.884C2141.81 336.117 2129.85 386.191 2077.29 402.782C2033.08 416.739 1984.89 399.198 1939.4 378.169L1934.54 375.926C1877.15 349.42 1817.8 322.006 1757.54 298.945C1689.88 273.053 1628.4 255.594 1569.58 245.563C1506.17 234.736 1439.84 232.99 1377.76 240.513C1309.45 248.752 1246.59 268.131 1195.99 296.577C1188.91 300.559 1182 304.758 1175.47 309.071C1140.99 331.797 1113.65 359.211 1087.2 385.721C1082.52 390.413 1077.68 395.256 1072.88 400.007C1066.08 406.711 1058.74 413.865 1051.17 420.773C999.768 467.661 948.507 493.158 894.414 498.728C847.743 503.459 800.128 492.747 754.076 482.39L751.963 481.917C717.525 474.171 681.038 470.597 640.414 470.995C604.203 471.347 568.135 474.746 533.256 478.031C443.522 486.49 350.739 495.233 247.41 452.714L247.161 453.059C272.026 463.288 296.729 470.857 322.677 476.189C345.799 480.944 369.387 483.801 394.792 484.929C441.971 487.02 488.411 482.644 533.313 478.412C603.044 471.836 675.149 465.044 751.811 482.282L753.923 482.755C792.3 491.396 831.757 500.27 870.883 500.273ZM2674.41 54.9759L2674.75 54.68C2651.48 39.4145 2624.19 27.9333 2593.66 20.552C2590.38 19.7586 2587.08 19.0166 2583.76 18.3262C2616.13 25.1485 2647.05 37.0341 2674.41 54.9759Z" fill="url(#paint1_linear_525_3513)"/>
<path d="M871.393 500.023C876.62 500.023 881.848 499.846 887.075 499.491C916.404 497.452 945.676 489.489 974.078 475.818C997.273 464.656 1020.29 449.637 1044.45 429.906C1052.32 423.479 1060 416.709 1066.77 410.735C1071.7 406.352 1076.68 401.858 1081.51 397.524C1108.89 372.866 1137.21 347.391 1172.48 325.675C1179.15 321.578 1186.2 317.541 1193.44 313.681C1245.85 285.704 1308.63 265.609 1375 255.565C1435.98 246.27 1500.74 245.58 1562.31 253.592C1694.03 270.643 1814.33 320.74 1930.68 369.19C1951.86 378.031 1974.76 386.905 1998.63 391.919C2025.76 397.613 2049.16 397.202 2070.17 390.663C2093.61 383.367 2111.55 369.413 2124.96 348.009C2136.65 329.39 2143.37 307.641 2149.3 288.456L2150.07 285.961C2171.73 215.025 2221.24 118.478 2334.11 61.2986C2427.25 14.3085 2580.19 1.34125 2680.17 69.847L2680.57 69.5182C2657.67 53.8286 2630.77 41.7588 2600.61 33.6411C2572.18 25.9903 2541.53 22.0054 2509.5 21.8049C2478.26 21.6374 2447.17 24.9613 2417.23 31.6684C2386.99 38.4085 2358.91 48.2524 2333.78 60.9303C2286.39 84.9317 2246.07 118.139 2213.94 159.619C2185.6 196.166 2163.92 238.645 2149.51 285.859L2148.74 288.351C2136.98 326.49 2122.3 373.951 2069.97 390.242C2025.88 403.969 1977.12 388.046 1930.98 368.792C1875.75 345.777 1813.14 319.721 1750.73 298.632C1682.56 275.617 1620.97 260.72 1562.42 253.142C1500.28 245.094 1436.7 245.771 1374.88 255.137C1308.44 265.192 1245.58 285.313 1193.1 313.332C1185.84 317.199 1178.78 321.223 1172.11 325.346C1136.79 347.089 1108.45 372.593 1081.07 397.255C1076.24 401.595 1071.26 406.083 1066.32 410.462C1059.56 416.433 1051.89 423.199 1044.03 429.62C990.587 473.267 940.702 495.328 887.035 499.057C842.665 502.137 797.184 491.218 753.201 480.645L745.643 478.833C711.396 470.646 674.98 466.589 634.303 466.428C597.966 466.296 561.488 469.193 526.196 472.017C436.27 479.188 343.278 486.602 237.583 446.336L237.313 446.744C262.739 456.43 287.939 463.643 314.354 468.795C337.854 473.378 361.76 476.206 387.439 477.446C435.09 479.747 481.438 476.045 526.261 472.471C599.812 466.606 669.287 461.065 745.46 479.277L753.018 481.089C791.883 490.406 831.932 500.02 871.393 500.023Z" fill="url(#paint2_linear_525_3513)"/>
<path d="M871.744 500.003C874.389 500.003 877.028 499.957 879.659 499.865C909.036 498.806 937.324 492.352 966.13 480.138C989.186 470.36 1012.48 456.837 1037.33 438.8C1044.9 433.309 1052.18 427.595 1060.23 421.233C1065.98 416.695 1071.8 412.027 1077.43 407.509C1105.19 385.254 1133.88 362.239 1169.15 341.992C1175.94 338.099 1183.15 334.22 1190.58 330.465C1245.15 302.814 1307.94 281.985 1372.15 270.228C1433.08 258.964 1494.65 255.939 1555.17 261.2C1678.23 271.852 1789.53 310.468 1922.25 359.835C1954.17 371.75 1989.72 383.613 2024.62 383.613C2037.54 383.613 2050.37 381.992 2062.89 378.142C2086.35 370.938 2104.79 357.498 2119.26 337.044C2131.86 319.253 2139.77 298.523 2146.76 280.236L2148.06 276.768C2174.09 208.844 2228.87 117.057 2342.12 65.5263C2436.32 22.9749 2588.82 15.2221 2685.9 84.6715L2686.38 84.2933C2663.84 68.1829 2637.32 55.5148 2607.53 46.6671C2579.5 38.3357 2549.16 33.5157 2517.36 32.3781C2486.5 31.3029 2455.59 33.6244 2425.61 39.2695C2395.48 44.9016 2367.27 53.5947 2341.78 65.1087C2293.95 86.8743 2252.48 117.688 2218.53 156.702C2188.72 190.945 2164.79 231.303 2147.43 276.653L2146.12 280.121C2132.26 316.422 2115 361.601 2062.66 377.678C2016.55 391.843 1966.17 375.663 1922.57 359.388C1861.71 336.745 1802.05 314.956 1741.41 297.327C1673.79 277.665 1612.91 265.684 1555.27 260.697C1494.67 255.416 1433.01 258.458 1372.01 269.732C1307.72 281.505 1244.86 302.36 1190.21 330.044C1182.77 333.805 1175.55 337.688 1168.75 341.588C1133.44 361.864 1104.72 384.892 1076.95 407.164C1071.32 411.678 1065.5 416.347 1059.75 420.884C1051.71 427.243 1044.43 432.951 1036.88 438.435C1002.46 463.396 948.762 496.867 879.645 499.355C837.392 500.881 793.928 489.735 751.896 478.971C747.703 477.897 743.507 476.825 739.307 475.755C704.734 466.99 669.363 462.568 628.002 461.844C591.508 461.203 556.128 463.515 518.71 465.961C428.688 471.846 335.6 477.932 227.728 439.934L227.44 440.404C335.469 478.461 428.64 472.369 518.753 466.48C593.076 461.621 663.282 457.031 739.068 476.245C743.267 477.31 747.465 478.382 751.661 479.461C791.131 489.561 831.873 500.003 871.744 500.003Z" fill="url(#paint3_linear_525_3513)"/>
<path d="M873.231 500.227C901.828 500.227 929.62 495.108 958.173 484.584C981.238 476.078 1004.13 464.35 1030.22 447.677C1038.1 442.64 1045.88 437.202 1053.4 431.938L1053.71 431.718C1060.19 427.188 1066.78 422.512 1073.12 417.985C1101.32 397.929 1130.47 377.196 1165.83 358.291C1172.73 354.608 1180.1 350.89 1187.73 347.233C1244.94 319.74 1307.74 298.175 1369.32 284.869C1429.51 271.718 1489.64 266.329 1548.05 268.812C1672.04 273.99 1791.82 310.403 1913.84 350.495C1946.71 361.345 1980.96 371.435 2014.55 371.435C2028.4 371.435 2042.13 369.719 2055.62 365.636C2078.99 358.554 2097.87 345.688 2113.29 326.306C2126.73 309.417 2135.83 289.772 2143.85 272.438C2144.6 270.816 2145.35 269.209 2146.09 267.618C2189.45 174.473 2260.02 106.069 2350.17 69.7977C2447.6 30.6032 2596.19 28.2293 2691.69 99.533L2692.23 99.1188C2670.06 82.5842 2643.92 69.3275 2614.52 59.7336C2586.87 50.7084 2556.85 45.0631 2525.3 42.9655C2494.76 40.9486 2463.99 42.2463 2433.94 46.8189C2403.91 51.3495 2375.59 58.9149 2349.8 69.2979C2301.45 88.7489 2258.8 117.153 2223.01 153.727C2191.71 185.714 2165.58 223.972 2145.35 267.441C2144.61 269.027 2143.86 270.633 2143.11 272.257C2126.39 308.378 2107.44 349.315 2055.32 365.096C2009.43 379.001 1960.41 365.244 1914.13 349.972C1859.36 331.975 1795.61 311.481 1732.05 296.012C1665.02 279.694 1604.83 270.61 1548.07 268.239C1489.57 265.751 1429.36 271.162 1369.09 284.32C1307.43 297.639 1244.57 319.231 1187.29 346.753C1179.66 350.413 1172.28 354.138 1165.36 357.827C1129.95 376.755 1100.78 397.505 1072.58 417.571C1066.22 422.095 1059.64 426.777 1053.17 431.304L1052.85 431.524C1045.34 436.785 1037.57 442.216 1029.7 447.243C991.488 471.669 939.203 499.655 873.2 499.655H872.238C831.522 499.487 789.534 488.046 748.927 476.969C743.7 475.542 738.281 474.066 732.95 472.636C657.272 452.343 586.082 455.986 510.714 459.842C420.706 464.445 327.635 469.213 217.885 433.5L217.58 434.033C327.504 469.815 420.671 465.047 510.779 460.444C586.064 456.591 657.177 452.954 732.701 473.208C738.033 474.638 743.443 476.111 748.679 477.538C789.347 488.621 831.4 500.079 872.246 500.247L873.231 500.227Z" fill="url(#paint4_linear_525_3513)"/>
<path d="M873.259 500.75C898.994 500.75 924.224 496.805 950.169 488.779C973.351 481.595 996.517 471.353 1023.07 456.584C1030.78 452.294 1038.42 447.599 1045.81 443.055L1047.15 442.233C1054.77 437.548 1062.54 432.682 1070.06 427.977C1098.31 410.278 1127.53 391.975 1162.48 374.618C1169.45 371.156 1176.99 367.595 1184.84 364.031C1245.58 336.37 1308.39 314.056 1366.49 299.54C1426.14 284.449 1484.83 276.679 1540.92 276.446C1666.26 275.811 1789.7 308.075 1905.41 341.177C1927.53 347.546 1951.15 354.03 1975.04 357.209C2002.84 360.908 2026.81 359.579 2048.32 353.148C2071.59 346.195 2090.84 333.898 2107.18 315.562C2121.43 299.566 2131.66 280.993 2140.69 264.6C2141.82 262.533 2142.95 260.49 2144.07 258.471C2194.02 168.578 2266.06 106.536 2358.17 74.0785C2397.12 60.3484 2443.91 52.4839 2491.95 52.4839C2565.2 52.4839 2641.39 70.7578 2697.42 114.401L2698.04 113.954C2676.26 96.9752 2650.48 83.1267 2621.47 72.7963C2594.21 63.0905 2564.52 56.62 2533.21 53.5656C2473.19 47.7099 2410.89 54.7854 2357.8 73.4933C2308.94 90.7085 2265.13 116.719 2227.54 150.801C2194.68 180.585 2166.33 216.729 2143.26 258.231C2142.14 260.246 2141.01 262.289 2139.88 264.36C2121.11 298.432 2099.84 337.051 2047.96 352.55C2002.33 366.188 1954.62 354.667 1905.67 340.572C1847.98 324.067 1785.88 307.089 1722.69 294.713C1656.27 281.703 1596.8 275.509 1540.87 275.802C1484.68 276.035 1425.91 283.814 1366.19 298.928C1308.06 313.471 1245.19 335.792 1184.4 363.479C1176.54 367.046 1169.01 370.613 1162.01 374.082C1127.02 391.458 1097.78 409.772 1069.51 427.48C1062 432.185 1054.23 437.048 1046.61 441.733L1045.27 442.555C1037.87 447.092 1030.26 451.784 1022.57 456.065C983.775 477.653 930.802 502.154 864.852 499.968C826.627 498.698 788.896 487.681 748.951 476.019C741.642 473.885 734.088 471.679 726.613 469.561C651.045 448.174 578.731 450.863 502.169 453.711C412.305 457.054 319.382 460.51 208.042 427.109L207.724 427.707C257.627 442.677 308.596 451.544 363.556 454.815C412.156 457.705 457.938 456.002 502.213 454.355C578.683 451.511 650.914 448.825 726.313 470.166C733.783 472.281 741.337 474.487 748.642 476.62C788.656 488.302 826.449 499.34 864.817 500.622C867.634 500.707 870.448 500.75 873.259 500.75Z" fill="url(#paint5_linear_525_3513)"/>
<path d="M875.583 501.611C897.694 501.611 919.627 498.8 942.156 493.099C965.309 487.244 988.766 478.468 1015.93 465.481C1023.58 461.828 1030.86 457.939 1038.58 453.823L1040.61 452.737C1050.13 447.654 1059.45 442.562 1069.3 437.166C1096.95 422.042 1125.53 406.412 1159.15 390.936C1166.27 387.668 1173.74 384.36 1181.99 380.812C1249.17 351.843 1310.29 329.43 1363.63 314.194C1423.85 296.798 1479.5 286.941 1533.78 284.067C1647.78 277.896 1761.42 298.705 1896.98 331.843C1916.98 336.775 1941.87 342.913 1967.15 345.652C1995.18 348.68 2019.34 347.046 2041.01 340.654C2064.13 333.829 2083.73 322.101 2100.91 304.794C2115.92 289.686 2127.24 272.175 2137.22 256.725C2138.84 254.222 2140.44 251.757 2142.01 249.331C2197.86 164.067 2273.29 106.539 2366.19 78.3461C2462.38 49.1499 2608.87 52.6285 2703.19 129.255L2703.88 128.775C2662.12 94.8511 2605.86 72.5134 2541.16 64.1721C2481.96 56.541 2419.7 61.3413 2365.83 77.6885C2316.46 92.6745 2271.46 116.288 2232.07 147.878C2197.65 175.496 2167.06 209.518 2141.18 249.015C2139.6 251.442 2138 253.909 2136.39 256.416C2115.67 288.466 2092.19 324.804 2040.67 339.99C1991.66 354.457 1939.32 341.539 1897.27 331.169C1846.42 318.738 1779.57 303.222 1713.38 293.411C1647.6 283.666 1588.79 280.378 1533.72 283.36C1479.35 286.24 1423.61 296.111 1363.31 313.53C1309.9 328.779 1248.74 351.208 1181.52 380.198C1173.27 383.745 1165.79 387.059 1158.66 390.331C1125.01 405.82 1096.41 421.467 1068.75 436.594C1058.89 441.986 1049.58 447.079 1040.06 452.159L1038.04 453.244C1030.34 457.354 1023.07 461.24 1015.44 464.883C976.029 483.712 922.459 504.751 857.484 500.277C821.185 497.775 785.318 486.606 747.347 474.779C738.508 472.027 729.374 469.19 720.291 466.474C644.675 443.933 570.98 445.662 492.95 447.497C403.386 449.601 310.769 451.771 198.209 420.704L197.887 421.361C248.299 435.279 299.635 443.739 354.825 447.224C403.543 450.301 449.011 449.229 492.981 448.21C570.906 446.382 644.51 444.653 719.93 467.142C729.003 469.848 738.138 472.691 746.968 475.44C785.009 487.276 820.941 498.478 857.38 500.99C863.472 501.404 869.54 501.611 875.583 501.611Z" fill="url(#paint6_linear_525_3513)"/>
<path d="M879.067 502.897C897.262 502.897 915.466 501.079 934.123 497.42C957.306 492.873 981.028 485.554 1008.78 474.378C1016.46 471.288 1023.82 467.921 1031.6 464.357L1034.04 463.242C1046.98 457.324 1059.74 451.275 1073.28 444.87C1098.89 432.741 1125.37 420.211 1155.79 407.254C1162.76 404.294 1170.39 401.135 1179.1 397.597C1236.02 374.382 1301.69 348.006 1360.8 328.845C1421.6 309.118 1475.85 296.979 1526.65 291.692C1648.58 278.83 1772.65 298.906 1888.55 322.519L1888.95 322.601C1910.51 327.04 1934.93 332.073 1959.5 334.109C1987.67 336.44 2011.94 334.493 2033.7 328.158C2085.15 313.185 2110.83 278.991 2133.48 248.822C2135.73 245.833 2137.84 243.009 2140.02 240.194C2201.59 159.606 2280.39 106.596 2374.2 82.614C2404.95 74.7528 2440.66 70.2517 2477.99 70.2517C2558.38 70.2517 2646.36 91.1 2708.94 144.11L2709.71 143.597C2668.73 108.887 2613.19 85.0898 2549.1 74.7791C2490.72 65.3955 2428.49 67.9173 2373.85 81.8841C2279.8 105.928 2200.82 159.057 2139.09 239.8C2136.92 242.618 2134.82 245.442 2132.56 248.434C2109.99 278.488 2084.41 312.547 2033.3 327.428C1984.79 341.546 1933.98 331.081 1889.19 321.838L1888.78 321.753C1815.33 306.79 1756.6 297.367 1703.98 292.096C1638.81 285.57 1580.75 285.192 1526.48 290.91C1475.58 296.21 1421.24 308.384 1360.36 328.121C1301.22 347.296 1235.52 373.681 1178.58 396.907C1169.87 400.444 1162.24 403.604 1155.26 406.566C1124.81 419.524 1098.32 432.07 1072.7 444.203C1059.2 450.607 1046.41 456.654 1033.47 462.572L1031.04 463.686C1023.26 467.244 1015.92 470.591 1008.27 473.685C965.852 490.762 913.88 507.31 850.06 500.576C815.648 496.959 781.614 485.652 745.59 473.695C735.266 470.265 724.589 466.721 713.913 463.377C679.278 452.527 643.188 446.06 600.338 443.048C562.201 440.369 523.672 440.747 482.861 441.171C397.918 442.033 301.65 443.006 188.315 414.286L187.989 415.016C238.723 427.872 290.25 435.914 345.515 439.596C394.216 442.841 439.288 442.384 482.874 441.944C562.589 441.135 637.87 440.375 713.521 464.087C724.189 467.431 734.865 470.992 745.18 474.401C781.27 486.379 815.36 497.696 849.921 501.342C859.577 502.37 869.316 502.89 879.067 502.897Z" fill="url(#paint7_linear_525_3513)"/>
<path d="M884.067 504.702C898.158 504.686 912.217 503.696 926.068 501.743C949.347 498.498 973.357 492.636 1001.63 483.289C1009.43 480.708 1016.95 477.811 1024.91 474.74L1027.47 473.754C1047.62 466.004 1067.95 457.702 1089.48 448.914C1109.33 440.813 1129.85 432.435 1152.45 423.571C1159.83 420.688 1167.29 417.814 1176.23 414.385C1199.51 405.412 1223.61 395.802 1246.91 386.507C1284.11 371.669 1322.58 356.328 1357.96 343.499C1420.25 320.921 1471.58 306.879 1519.54 299.307C1642.76 279.665 1770.98 295.299 1880.14 313.182L1883.39 313.724C1927.82 321.122 1978.16 329.506 2026.4 315.651C2077.36 301.02 2105 269.065 2129.4 240.872C2132.35 237.462 2135.14 234.237 2137.97 231.048C2205.16 155.197 2287.33 106.694 2382.19 86.885C2483.18 65.7967 2625.14 79.9082 2714.7 158.948L2715.54 158.406C2675.32 122.897 2620.51 97.6528 2557.04 85.3858C2499.48 74.2597 2437.28 74.4997 2381.9 86.0631C2286.77 105.941 2204.4 154.559 2137.05 230.581C2134.22 233.773 2131.43 236.999 2128.47 240.415C2104.17 268.5 2076.64 300.333 2026.01 314.868C1978.09 328.634 1927.9 320.277 1883.63 312.895L1880.38 312.353C1807.75 300.458 1748.74 293.612 1694.65 290.798C1630.1 287.447 1572.75 289.956 1519.31 298.475C1471.26 306.063 1419.84 320.125 1357.48 342.733C1322.08 355.555 1283.6 370.916 1246.41 385.754C1223.11 395.049 1199.01 404.656 1175.73 413.629C1166.8 417.058 1159.33 419.932 1151.95 422.818C1129.34 431.696 1108.83 440.063 1088.97 448.168C1067.45 456.953 1047.12 465.265 1026.98 472.998L1024.41 473.984C1016.47 477.042 1008.97 479.935 1001.2 482.503C958.346 496.67 906.009 509.937 842.737 500.895C810.15 496.236 777.937 484.85 743.856 472.794C732.094 468.631 719.897 464.328 707.644 460.3C672.796 448.825 636.245 441.802 592.667 438.196C553.785 434.977 514.001 434.865 471.883 434.743C387.62 434.507 292.119 434.237 178.531 407.892L178.205 408.687C291.949 435.072 387.542 435.342 471.879 435.579C557.327 435.822 631.122 436.029 707.204 461.063C719.449 465.094 731.62 469.397 743.385 473.557C777.554 485.636 809.823 497.045 842.55 501.72C856.235 503.694 870.135 504.692 884.067 504.702Z" fill="url(#paint8_linear_525_3513)"/>
<path d="M891.056 507.158C900.052 507.153 909.04 506.778 917.981 506.033C941.438 504.097 965.74 499.691 994.451 492.175C1002.44 490.084 1010.19 487.634 1018.41 485.04L1020.9 484.254C1061.5 471.432 1104.05 456.114 1149.1 439.888L1153.42 438.336C1159.9 436.012 1166.61 433.608 1173.35 431.165C1215.35 415.89 1257.97 398.215 1299.2 381.121C1318.71 373.03 1337.14 365.385 1355.14 358.142C1420.42 331.872 1467.46 316.554 1512.43 306.914C1609.63 285.921 1720.44 284.974 1871.73 303.847L1877.98 304.646C1921.81 310.271 1971.48 316.643 2019.12 303.15C2069.47 288.877 2098.94 259.138 2124.94 232.901C2128.74 229.071 2132.32 225.454 2135.95 221.903C2208.57 150.797 2294.12 106.805 2390.21 91.1487C2491.86 74.5878 2633.39 93.7231 2720.47 173.812L2721.39 173.243C2681.92 136.939 2627.84 110.231 2565.01 96.0147C2508.24 83.1691 2446.07 81.1273 2389.96 90.2708C2338.89 98.5924 2290.35 115.022 2245.69 139.105C2206.28 160.361 2169.03 188.035 2135.01 221.358C2131.37 224.912 2127.79 228.532 2123.99 232.362C2098.09 258.501 2068.73 288.131 2018.7 302.308C1971.38 315.719 1921.88 309.367 1878.2 303.761L1871.94 302.959C1800.94 294.101 1739.87 289.699 1685.3 289.508C1621.34 289.285 1564.7 294.693 1512.12 306.053C1467.07 315.709 1419.95 331.04 1354.59 357.343C1336.59 364.577 1318.16 372.234 1298.64 380.325C1257.43 397.422 1214.82 415.085 1172.85 430.35C1166.11 432.793 1159.41 435.196 1152.93 437.518L1148.6 439.069C1103.57 455.292 1061.05 470.633 1020.45 483.419L1017.96 484.205C1009.78 486.796 1002.04 489.239 994.094 491.32C950.943 502.617 898.344 512.625 835.373 501.213C804.581 495.624 774.167 484.189 741.967 472.073C728.782 467.115 715.147 461.986 701.299 457.209C624.307 430.653 547.967 429.489 459.605 428.144C376.288 426.872 281.854 425.435 168.667 401.479L168.349 402.344C281.679 426.345 376.192 427.769 459.58 429.042C547.828 430.386 624.037 431.547 700.807 458.027C714.633 462.795 728.25 467.92 741.436 472.879C773.701 485.014 804.162 496.482 835.09 502.085C853.413 505.443 872.201 507.146 891.056 507.158Z" fill="url(#paint9_linear_525_3513)"/>
<path d="M900.668 510.443C903.732 510.443 906.809 510.403 909.899 510.324C933.622 509.706 958.216 506.767 987.288 501.076C995.534 499.458 1003.6 497.459 1012.12 495.306L1014.3 494.763C1054.95 484.607 1096.72 472.356 1145.73 456.206C1155.18 453.106 1163.04 450.482 1170.46 447.954C1227.02 428.556 1284.69 402.884 1335.55 380.224C1341.21 377.706 1346.78 375.225 1352.28 372.784C1401.01 351.153 1452.98 328.835 1505.29 314.52C1601.35 288.052 1715.1 281.694 1863.29 294.506C1866.41 294.783 1869.56 295.067 1872.74 295.361C1915.91 299.307 1964.84 303.768 2011.77 290.643C2061.4 276.758 2092.51 249.216 2119.97 224.886C2124.76 220.645 2129.28 216.64 2133.85 212.744C2211.76 146.402 2300.67 106.921 2398.18 95.4168C2492.94 84.2381 2635.7 101.947 2726.19 188.664L2727.19 188.069C2688.45 150.955 2635.11 122.795 2572.93 106.635C2544.28 99.2072 2514.54 94.4409 2484.36 92.4413C2455.57 90.4742 2426.56 91.1543 2397.99 94.4666C2346.3 100.566 2296.58 114.601 2250.22 136.18C2209.03 155.351 2169.57 180.894 2132.93 212.129C2128.35 216.032 2123.83 220.04 2119.03 224.294C2091.68 248.513 2060.66 275.963 2011.36 289.759C1964.72 302.802 1915.96 298.353 1872.93 294.424C1869.73 294.133 1866.58 293.847 1863.47 293.566C1792.85 287.464 1731.48 285.715 1675.91 288.22C1612.51 291.08 1556.56 299.399 1504.89 313.632C1452.47 327.977 1400.45 350.318 1351.66 371.971C1346.17 374.411 1340.59 376.891 1334.93 379.412C1284.08 402.055 1226.44 427.717 1169.94 447.086C1162.54 449.614 1154.7 452.235 1145.24 455.335C1096.26 471.472 1054.53 483.713 1013.91 493.859L1011.73 494.405C1003.22 496.535 995.181 498.547 986.97 500.155C943.68 508.631 890.941 515.424 827.975 501.546C798.947 495.144 770.301 483.686 739.984 471.557C725.426 465.735 710.362 459.721 694.942 454.132C616.948 425.968 537.629 423.824 445.778 421.345C363.745 419.129 270.766 416.617 158.777 395.082L158.463 396.012C270.583 417.574 363.632 420.089 445.73 422.315C537.433 424.791 616.625 426.918 694.385 455.01C709.787 460.569 724.829 466.586 739.378 472.406C769.761 484.571 798.463 496.042 827.618 502.467C851.334 507.761 875.937 510.447 900.668 510.443Z" fill="url(#paint10_linear_525_3513)"/>
<path d="M913.799 514.78C934.212 514.78 955.617 513.218 980.111 509.969C988.701 508.832 997.182 507.244 1006.16 505.56L1007.72 505.268C1053.98 496.611 1096.78 486.198 1142.39 472.524C1151.45 469.821 1159.69 467.263 1167.59 464.738C1230.83 444.334 1294.65 414.138 1349.49 387.434L1353.95 385.261C1405.99 359.918 1450.93 338.031 1498.23 322.134C1594.12 289.703 1707.46 277.969 1854.93 285.179C1859.16 285.396 1863.37 285.629 1867.83 285.876C1910.26 288.227 1958.36 290.89 2004.5 278.149C2053.26 264.669 2085.82 239.3 2114.55 216.9C2120.52 212.251 2126.15 207.858 2131.83 203.633C2214.78 141.986 2307.08 107 2406.17 99.6813C2531.58 90.4062 2659.46 131.162 2731.95 203.512L2733.04 202.894C2713.26 183.2 2689.78 165.792 2663.34 151.222C2637.93 137.25 2610.22 125.834 2580.91 117.261C2552.52 108.934 2522.94 103.16 2492.77 100.059C2464.02 97.046 2434.91 96.577 2406.02 98.662C2353.68 102.532 2302.78 114.171 2254.74 133.257C2211.73 150.354 2170.05 173.776 2130.87 202.903C2125.17 207.138 2119.54 211.534 2113.56 216.19C2084.93 238.508 2052.48 263.804 2004.02 277.186C1958.15 289.851 1910.2 287.197 1867.91 284.857C1863.46 284.607 1859.24 284.377 1855 284.156C1784.6 280.711 1722.95 281.615 1666.52 286.915C1603.63 292.833 1548.39 304.038 1497.66 321.197C1450.26 337.13 1405.28 359.034 1353.2 384.4L1348.73 386.576C1293.94 413.254 1230.19 443.423 1167.05 463.795C1159.16 466.326 1150.93 468.871 1141.87 471.571C1096.32 485.238 1053.58 495.628 1007.38 504.275L1005.81 504.567C996.86 506.244 988.387 507.829 979.858 508.96C918.534 517.091 870.91 514.964 820.615 501.855C793.32 494.74 766.426 483.311 737.951 471.212C722.056 464.456 705.621 457.469 688.61 451.048C652.22 437.308 613.312 428.339 566.154 422.812C523.652 417.834 478.188 416.108 430.05 414.263C349.747 411.215 258.728 407.76 148.925 388.661L148.621 389.647C258.54 408.769 349.625 412.225 429.985 415.292C525.978 418.935 608.886 422.082 688 451.952C704.989 458.363 721.407 465.343 737.289 472.093C765.817 484.216 792.763 495.671 820.171 502.812C847.326 509.891 874.02 513.741 901.772 514.589C905.76 514.718 909.768 514.782 913.799 514.78Z" fill="url(#paint11_linear_525_3513)"/>
<path d="M931.449 520.454C944.487 520.454 958.156 519.925 972.919 518.863C981.927 518.205 990.905 517.074 1000.41 515.861L1001.12 515.772C1051.57 509.348 1094.1 501.043 1139.03 488.841C1148.07 486.398 1156.45 484.005 1164.71 481.523C1231.79 461.194 1297.18 428.387 1346.66 402.078C1356.1 397.061 1365.33 392.096 1374.27 387.283C1416.12 364.781 1452.28 345.346 1491.13 329.722C1585.2 291.695 1701.45 274.065 1846.52 275.834C1851.99 275.913 1857.41 276.025 1863.19 276.143C1904.79 277.001 1951.94 277.971 1997.19 265.622C2044.91 252.652 2078.68 229.393 2108.48 208.88C2115.83 203.82 2122.77 199.04 2129.77 194.499C2217.6 137.521 2313.28 107.042 2414.15 103.945C2514.37 100.858 2651.99 129.295 2737.7 218.363L2738.87 217.705C2719.45 197.562 2696.37 179.579 2670.32 164.284C2645.3 149.62 2617.93 137.387 2588.86 127.874C2560.76 118.649 2531.35 111.868 2501.22 107.664C2472.51 103.606 2443.28 101.989 2414.1 102.844C2312.9 105.961 2216.92 136.515 2128.85 193.658C2121.83 198.211 2114.88 202.995 2107.5 208.062C2077.8 228.506 2044.14 251.678 1996.7 264.613C1951.69 276.877 1904.69 275.91 1863.22 275.055C1857.46 274.937 1852.01 274.822 1846.54 274.726C1776.2 273.868 1714.25 277.426 1657.14 285.576C1626.87 289.906 1597.77 295.627 1570.65 302.581C1543.01 309.645 1516.19 318.404 1490.44 328.772C1451.51 344.429 1415.33 363.883 1373.42 386.408C1364.49 391.208 1355.26 396.173 1345.82 401.203C1296.41 427.477 1231.1 460.24 1164.18 480.526C1155.96 483.005 1147.58 485.392 1138.55 487.832C1093.69 499.997 1051.25 508.299 1000.9 514.713L1000.19 514.802C990.713 516.009 981.761 517.15 972.805 517.794C911.765 522.177 864.057 517.511 813.288 502.187C787.714 494.47 762.549 483.117 735.908 471.097C718.706 463.337 700.92 455.315 682.329 447.977C645.059 433.277 604.857 423.531 555.816 417.301C511.433 411.662 463.077 409.348 411.876 406.895C333.904 403.16 245.476 398.928 139.12 382.285L138.828 383.347C245.302 400.01 333.751 404.245 411.785 407.98C517.353 413.037 600.736 417.028 681.662 448.94C700.228 456.262 717.996 464.278 735.18 472.03C761.874 484.071 787.087 495.447 812.77 503.199C839.812 511.36 866.288 516.486 893.705 518.869C906.235 519.944 918.838 520.473 931.449 520.454Z" fill="url(#paint12_linear_525_3513)"/>
<path d="M969.137 527.809C975.174 527.809 981.234 527.322 987.589 526.822C989.854 526.638 992.193 526.448 994.519 526.286C1030.27 523.775 1078.62 519.106 1135.65 505.175C1144.65 502.992 1153.45 500.687 1161.79 498.323C1215.97 482.926 1275.51 456.239 1343.8 416.732C1358.84 408.035 1373.13 399.494 1386.95 391.234C1420.09 371.432 1451.39 352.73 1484 337.343C1577.22 293.148 1693.06 269.982 1838.09 266.52C1844.91 266.375 1851.72 266.286 1858.93 266.191C1899.57 265.661 1945.62 265.063 1989.86 253.161C2036.32 240.667 2071.02 219.523 2101.63 200.884C2110.63 195.407 2119.12 190.231 2127.68 185.388C2220.27 132.973 2319.32 107.029 2422.13 108.209C2522.69 109.363 2659.92 142.807 2743.45 233.207L2744.7 232.549C2725.63 211.952 2702.96 193.394 2677.31 177.379C2652.66 162.022 2625.63 148.975 2596.82 138.523C2542.2 118.622 2481.8 107.742 2422.15 107.059C2319 105.868 2219.63 131.908 2126.81 184.445C2118.23 189.301 2109.73 194.479 2100.73 199.963C2070.2 218.556 2035.61 239.628 1989.39 252.066C1945.4 263.902 1899.47 264.501 1858.95 265.027C1851.74 265.122 1844.92 265.211 1838.09 265.356C1768.66 267 1704.62 273.398 1647.78 284.333C1586.6 296.097 1531.24 313.595 1483.24 336.354C1450.57 351.774 1419.21 370.498 1386.05 390.32C1372.23 398.576 1357.95 407.115 1342.93 415.805C1274.75 455.239 1215.34 481.874 1161.31 497.232C1152.97 499.589 1144.19 501.887 1135.22 504.064C1078.3 517.962 1030.06 522.62 994.393 525.126C992.054 525.29 989.71 525.481 987.423 525.665C979.914 526.27 972.818 526.845 965.748 526.602C911.298 524.767 861.687 521.67 805.912 502.499C782.033 494.279 758.584 483.061 733.755 471.179C715.281 462.338 696.18 453.197 675.968 444.876C592.385 410.485 503.217 405.445 390.326 399.063C315.459 394.831 230.604 390.034 129.226 375.86L128.948 376.995C230.408 391.179 315.307 395.976 390.213 400.21C502.921 406.582 591.945 411.613 675.236 445.885C695.405 454.184 714.484 463.311 732.94 472.149C757.813 484.051 781.292 495.295 805.281 503.541C861.304 522.814 911.067 525.898 965.678 527.75C966.854 527.792 967.987 527.809 969.137 527.809Z" fill="url(#paint13_linear_525_3513)"/>
<path d="M973.126 536.917C977.874 536.917 982.766 536.851 987.91 536.772C1025.13 536.19 1075.17 533.925 1132.31 521.48C1141.41 519.507 1150.37 517.36 1158.94 515.095C1214.88 500.224 1276.12 472.051 1341.02 431.357C1360 419.458 1377.57 407.753 1394.56 396.433C1422.57 377.778 1449.01 360.155 1476.95 344.926C1567.75 295.18 1686.45 265.655 1829.74 257.169C1838.06 256.696 1846.42 256.318 1855.26 255.914C1894.78 254.115 1939.57 252.077 1982.59 240.648C2027.54 228.71 2062.83 209.66 2093.96 192.849C2104.91 186.931 2115.24 181.361 2125.65 176.236C2222.79 128.368 2325.21 106.914 2430.1 112.471C2560.7 119.375 2679.99 170.071 2749.2 248.056L2750.54 247.378C2731.81 226.324 2709.54 207.193 2684.29 190.465C2660.01 174.41 2633.33 160.548 2604.79 149.16C2550.82 127.556 2490.46 114.45 2430.21 111.274C2324.96 105.685 2222.19 127.22 2124.77 175.233C2114.34 180.375 2103.98 185.964 2093.02 191.879C2061.98 208.647 2026.79 227.638 1982.06 239.52C1939.25 250.893 1896.5 252.836 1855.16 254.72C1846.31 255.121 1837.95 255.503 1829.62 255.976C1759.98 260.099 1695.65 269.213 1638.39 283.061C1577.55 297.774 1522.92 318.264 1476.01 343.959C1448.02 359.224 1421.56 376.864 1393.51 395.539C1376.52 406.852 1358.96 418.554 1340 430.439C1275.26 471.041 1214.17 499.156 1158.42 513.951C1149.88 516.21 1140.95 518.35 1131.87 520.313C1074.92 532.718 1025.01 534.977 987.884 535.559C977.382 535.723 967.934 535.825 958.634 535.43C898.873 532.879 851.005 523.127 798.571 502.825C776.382 494.23 754.628 483.196 731.598 471.511C711.882 461.51 691.492 451.166 669.655 441.799C629.732 424.673 585.75 413.07 531.23 405.281C481.349 398.156 427.121 394.71 364.368 390.722C293.757 386.234 213.728 381.151 119.381 369.46L119.119 370.66C213.528 382.355 293.591 387.428 364.233 391.932C490.941 399.984 582.469 405.8 668.858 442.854C690.638 452.198 711.007 462.529 730.713 472.521C753.8 484.225 775.58 495.279 797.848 503.903C824.856 514.365 850.909 522.026 877.455 527.319C902.628 532.337 929.156 535.388 958.555 536.64C963.321 536.844 968.16 536.917 973.126 536.917Z" fill="url(#paint14_linear_525_3513)"/>
<path d="M1016.51 547.974C1049.66 547.974 1087.27 545.82 1128.96 537.798C1138.18 536.035 1147.3 534.046 1156.07 531.88C1187.57 524.061 1220.56 511.725 1254.13 495.22C1281.87 481.572 1310.16 465.008 1338.2 445.991C1359.93 431.261 1379.55 416.68 1398.54 402.591C1422.69 384.649 1445.5 367.704 1469.85 352.52C1559.25 296.561 1677.52 261.338 1821.35 247.835C1831.37 246.918 1841.5 246.142 1852.21 245.32C1892.29 242.242 1933.7 239.073 1975.28 228.157C2018.41 216.85 2053.84 199.862 2085.13 184.876C2098.41 178.511 2110.96 172.501 2123.57 167.122C2225.15 123.673 2330.96 106.724 2438.07 116.752C2568.91 128.999 2687.37 183.643 2754.95 262.923L2756.38 262.233C2737.99 240.714 2716.13 221.009 2691.28 203.574C2667.36 186.817 2641.02 172.141 2612.76 159.823C2559.42 136.508 2499.06 121.177 2438.28 115.483C2383.12 110.312 2327.19 112.375 2272.97 121.582C2222.1 130.186 2171.55 145.132 2122.74 166.014C2110.11 171.422 2097.53 177.442 2084.23 183.814C2053.03 198.764 2017.65 215.706 1974.74 226.967C1933.35 237.817 1892.01 240.996 1852.05 244.064C1841.33 244.886 1831.21 245.665 1821.15 246.586C1676.99 260.119 1558.43 295.433 1468.78 351.554C1444.39 366.77 1421.54 383.735 1397.34 401.697C1378.38 415.785 1358.77 430.357 1337.07 445.067C1274.43 487.53 1213.35 516.338 1155.52 530.693C1146.81 532.846 1137.71 534.829 1128.51 536.584C1071.5 547.553 1022.13 547.507 981.366 546.014C971.67 545.659 961.381 545.235 951.532 544.281C892.726 538.597 844.783 526.303 791.195 503.183C770.692 494.336 750.628 483.551 729.388 472.136C708.449 460.882 686.795 449.246 663.307 438.748C572.632 398.185 471.773 391.274 332.18 381.713C267.484 377.281 194.155 372.257 109.509 363.055L109.265 364.317C193.959 373.523 267.31 378.55 332.027 382.986C471.398 392.521 572.092 399.425 662.453 439.813C685.88 450.285 707.503 461.904 728.412 473.142C749.691 484.577 769.794 495.378 790.364 504.258C817.484 515.963 843.307 524.883 869.312 531.528C895.012 538.103 921.854 542.677 951.327 545.524C961.237 546.484 971.565 546.912 981.292 547.267C992.4 547.674 1004.14 547.974 1016.51 547.974Z" fill="url(#paint15_linear_525_3513)"/>
<path d="M1040.72 560.96C1066.92 560.96 1095.29 559.201 1125.58 554.115C1134.95 552.557 1144.23 550.722 1153.17 548.67C1227.84 531.416 1293.47 491.271 1335.39 460.628C1359.01 443.367 1379.82 426.129 1399.97 409.459C1421.17 391.915 1441.19 375.344 1462.77 360.102C1550.52 297.899 1668.34 256.982 1812.97 238.487C1825 236.978 1837.18 235.676 1850.06 234.302C1888.45 230.205 1928.15 225.967 1967.99 215.65C2008.84 205.07 2042.42 190.771 2074.9 176.942C2091.02 170.087 2106.22 163.61 2121.51 157.965C2227.46 118.839 2336.65 106.381 2446.04 120.986C2577.01 138.471 2694.64 197.087 2760.7 277.744L2762.21 277.041C2744.17 255.051 2722.7 234.772 2698.26 216.636C2674.7 199.173 2648.7 183.686 2620.73 170.445C2567.44 145.258 2508.25 128.019 2446.36 119.664C2390.55 112.193 2333.48 111.845 2277.53 118.635C2224.6 125.047 2171.84 137.876 2120.71 156.774C2105.39 162.436 2090.16 168.939 2074.03 175.788C2041.62 189.597 2008.1 203.856 1967.41 214.394C1927.72 224.672 1888.13 228.9 1849.79 232.987C1836.89 234.364 1824.71 235.666 1812.65 237.179C1742.36 246.168 1677.4 260.74 1619.57 280.49C1559.26 301.092 1506.09 327.552 1461.53 359.135C1439.91 374.414 1419.86 391.004 1398.64 408.568C1378.52 425.224 1357.69 442.433 1334.13 459.681C1292.36 490.219 1226.97 530.225 1152.63 547.401C1143.74 549.443 1134.5 551.268 1125.19 552.82C1067.56 562.492 1016.87 560.079 974.879 556.436C964.96 555.578 954.406 554.579 944.465 553.099C886.792 544.521 838.758 529.686 783.854 503.489C765.036 494.513 746.654 484.054 727.196 472.981C705.054 460.382 682.159 447.355 656.994 435.644C633.607 424.764 609.052 415.867 581.931 408.45C556.927 401.611 529.576 395.999 498.295 391.297C438.923 382.367 370.398 377.511 291.049 371.899C234.787 367.911 171.015 363.393 99.6326 356.669L99.4148 357.985C170.823 364.712 234.608 369.232 290.884 373.22C453.237 384.728 560.495 392.323 656.049 436.781C681.144 448.46 704.004 461.467 726.111 474.046C745.604 485.136 764.008 495.614 782.892 504.623C837.995 530.926 886.208 545.803 944.108 554.414C954.127 555.904 964.708 556.906 974.666 557.768C994.773 559.501 1016.85 560.96 1040.72 560.96Z" fill="url(#paint16_linear_525_3513)"/>
<path d="M1056.95 575.003C1078.85 575.039 1100.7 573.509 1122.21 570.433C1131.73 569.071 1141.17 567.398 1150.28 565.455C1183.03 558.432 1216.6 546.056 1250.07 528.706C1278.44 513.99 1306.19 496.009 1332.57 475.262C1357.43 455.713 1378.85 435.989 1399.56 416.916C1418.44 399.523 1436.28 383.097 1455.68 367.687C1540.35 300.2 1661 252.283 1804.6 229.147C1819 226.845 1833.62 224.872 1849.11 222.781C1885.44 217.869 1923.01 212.786 1960.7 203.15C1998.75 193.417 2031.34 181.065 2062.86 169.12C2082.42 161.706 2100.9 154.706 2119.43 148.831C2229.66 113.884 2342.23 105.947 2454 125.241C2586.98 148.193 2700.86 209.189 2766.44 292.592L2768.05 291.876C2750.34 269.414 2729.27 248.564 2705.25 229.735C2682.03 211.559 2656.37 195.258 2628.68 181.095C2576.45 154.325 2516.19 134.535 2454.4 123.886C2397.93 114.1 2339.72 111.342 2282.07 115.722C2227.06 119.911 2172.1 130.619 2118.69 147.549C2100.09 153.444 2081.59 160.453 2062.01 167.881C2030.54 179.803 1998.01 192.135 1960.07 201.834C1922.52 211.438 1885.02 216.508 1848.76 221.414C1833.25 223.511 1818.61 225.491 1804.18 227.785C1733.45 239.191 1668.18 256.492 1610.19 279.211C1550.08 302.762 1497.64 332.208 1454.31 366.733C1434.87 382.186 1417.01 398.626 1398.12 416.051C1377.44 435.104 1356.04 454.805 1331.24 474.319C1290.65 506.244 1226.21 547.74 1149.78 564.13C1140.72 566.063 1131.33 567.727 1121.87 569.081C1063.5 577.498 1011.53 572.698 968.401 566.895C958.979 565.626 947.927 564.044 937.407 561.963C880.971 550.735 832.863 533.359 776.513 503.847C759.394 494.881 742.702 484.827 725.025 474.184C701.695 460.132 677.571 445.606 650.681 432.589C602.329 409.19 548.611 393.95 476.466 383.173C409.615 373.188 333.227 367.848 236.515 361.088C192.689 358.024 143.013 354.552 89.7954 350.281L89.5994 351.675C142.83 355.949 192.51 359.421 236.345 362.486C423.606 375.575 547.317 384.222 649.679 433.773C676.486 446.747 700.571 461.253 723.867 475.279C741.565 485.938 758.279 495.992 775.455 505.001C831.983 534.608 880.274 552.047 936.932 563.321C947.518 565.425 958.617 567.01 968.074 568.286C994.554 571.813 1024.35 575.003 1056.95 575.003Z" fill="url(#paint17_linear_525_3513)"/>
<path d="M1068.67 589.725C1085.47 589.743 1102.25 588.748 1118.84 586.75C1128.51 585.589 1138.11 584.07 1147.39 582.242C1180.7 575.634 1214.55 563.248 1248.02 545.418C1276.5 530.241 1304 511.553 1329.77 489.89C1355.23 468.298 1376.72 446.332 1397.51 425.089C1414.65 407.572 1430.84 391.027 1448.59 375.262C1531.25 301.614 1651.45 247.871 1796.2 219.796C1813.49 216.478 1831.13 213.618 1849.78 210.59C1883.52 205.122 1918.4 199.47 1953.36 190.639C1987.9 181.919 2018.63 171.52 2048.35 161.462C2072.21 153.391 2094.74 145.766 2117.32 139.68C2230.21 109.258 2349.38 105.733 2461.94 129.488C2594.89 157.54 2707.95 222.403 2772.19 307.43L2773.88 306.703C2740.14 262.028 2693.96 223.35 2636.66 191.744C2584.92 163.221 2524.7 141.193 2462.48 128.081C2405.32 115.967 2345.96 110.804 2286.64 112.786C2229.54 114.719 2172.36 123.307 2116.68 138.309C2094.03 144.415 2071.47 152.049 2047.57 160.134C2017.9 170.175 1987.21 180.562 1952.76 189.258C1917.92 198.063 1883.07 203.705 1849.39 209.166C1830.7 212.194 1813.04 215.054 1795.72 218.372C1724.48 232.181 1658.91 252.237 1600.81 277.915C1540.86 304.422 1489.15 336.856 1447.1 374.312C1429.31 390.113 1413.1 406.681 1395.94 424.215C1375.18 445.435 1353.71 467.374 1328.31 488.91C1295.82 516.238 1229.06 564.531 1146.9 580.815C1137.68 582.633 1128.14 584.139 1118.53 585.297C1059.29 592.484 1006.11 585.297 961.905 577.3C948.78 574.93 939.04 572.911 930.328 570.758C874.449 556.949 827.757 537.636 769.155 504.139C753.748 495.331 738.746 485.773 722.864 475.656C698.348 460.039 673 443.889 644.351 429.469C591.526 402.88 531.156 385.74 448.604 373.871C371.067 362.732 278.223 356.725 160.671 349.12C134.814 347.45 108.073 345.717 79.9153 343.833L79.7454 345.293C107.907 347.18 134.631 348.91 160.506 350.583C392.072 365.563 531.844 374.604 643.266 430.688C671.829 445.066 697.133 461.187 721.605 476.778C737.509 486.907 752.533 496.475 767.975 505.306C796.289 521.496 820.774 533.815 845.02 544.077C871.962 555.508 900.328 564.912 929.71 572.152C938.474 574.318 948.262 576.347 961.439 578.727C992.989 584.432 1029.06 589.725 1068.67 589.725Z" fill="url(#paint18_linear_525_3513)"/>
<path d="M1077.61 604.922C1090.27 604.93 1102.92 604.31 1115.47 603.068C1125.24 602.111 1134.93 600.762 1144.5 599.027C1229.28 583.538 1295.2 533.171 1326.94 504.524C1352.85 480.99 1374.2 456.778 1394.85 433.365C1410.45 415.673 1425.19 398.961 1441.5 382.847C1521.97 303.094 1641.73 243.482 1787.82 210.455C1808.73 205.767 1830.2 201.759 1852.92 197.514C1883.28 191.846 1914.67 185.987 1946.08 178.152C1976.1 170.666 2003.78 162.259 2030.56 154.128C2059.86 145.227 2087.54 136.824 2115.25 130.554C2232.34 104.06 2354.98 105.162 2469.93 133.743C2602.71 166.763 2714.98 235.479 2777.94 322.272L2779.72 321.539C2746.61 275.9 2701.16 235.818 2644.61 202.4C2618.16 186.799 2589.93 172.993 2560.26 161.144C2531.49 149.644 2501.48 139.992 2470.55 132.29C2412.67 117.838 2352.16 110.272 2291.19 109.863C2232.02 109.505 2172.6 115.972 2114.67 129.087C2086.87 135.377 2059.15 143.794 2029.8 152.707C2003.05 160.828 1975.4 169.225 1945.44 176.709C1914.08 184.524 1882.75 190.38 1852.44 196.038C1829.69 200.286 1808.2 204.3 1787.24 208.999C1640.74 242.121 1520.62 301.917 1439.89 381.94C1423.54 398.093 1408.78 414.818 1393.16 432.537C1372.54 455.917 1351.22 480.096 1325.39 503.554C1293.8 532.054 1228.25 582.164 1144.03 597.551C1134.52 599.271 1124.9 600.61 1115.2 601.562C1055 607.533 1000.64 597.945 955.417 587.753C942.51 584.85 932.291 582.262 923.257 579.606C855.738 559.744 805.758 531.761 761.818 504.482C748.149 495.996 734.859 487.039 720.789 477.557C695.088 460.243 668.517 442.341 638.025 426.395C608.077 410.728 575.698 398.149 539.042 387.927C504.229 378.225 464.555 370.406 417.78 364.028C330.01 352.057 223.118 345.724 70.0518 337.429L69.908 338.954C369.354 355.19 518.534 365.754 636.887 427.654C667.262 443.544 693.786 461.43 719.434 478.698C733.521 488.19 746.825 497.156 760.525 505.659C789.679 523.742 813.232 536.893 836.96 548.253C863.99 561.263 892.646 572.24 922.516 581.026C931.607 583.699 941.875 586.287 954.834 589.216C984.067 595.792 1008.44 599.987 1031.54 602.417C1046.8 604.054 1062.2 604.891 1077.61 604.922Z" fill="url(#paint19_linear_525_3513)"/>
<path d="M1084.2 620.461C1093.51 620.464 1102.82 620.105 1112.08 619.385C1122 618.623 1131.85 617.431 1141.59 615.815C1176.09 610.035 1210.52 597.62 1243.96 578.912C1272.43 562.982 1300.15 542.318 1324.11 519.152C1350.17 493.816 1371.16 467.477 1391.4 442.002C1405.73 423.995 1419.28 406.984 1434.38 390.423C1512.56 304.58 1631.87 239.119 1779.43 201.108C1805.13 194.532 1831.63 189.002 1859.71 183.146C1885.49 177.767 1912.14 172.208 1938.76 165.652C1962.81 159.734 1985.74 153.418 2007.92 147.319C2044.35 137.3 2078.74 127.838 2113.15 121.414C2234.45 98.757 2360.57 104.488 2477.87 137.994C2612.39 176.413 2720.99 247.131 2783.67 337.113L2785.54 336.374C2753.06 289.752 2708.32 248.259 2652.55 213.056C2626.32 196.529 2598.27 181.726 2568.69 168.811C2539.88 156.22 2509.76 145.42 2478.63 136.518C2419.46 119.618 2357.94 109.673 2295.76 106.957C2234.21 104.301 2172.48 108.656 2112.65 119.878C2078.14 126.326 2043.69 135.801 2007.21 145.832C1985.05 151.931 1962.13 158.234 1938.12 164.149C1911.55 170.695 1884.91 176.252 1859.16 181.624C1831.05 187.486 1804.5 193.026 1778.76 199.615C1706.39 218.254 1640.2 243.748 1582.02 275.387C1522.34 307.845 1472.08 346.25 1432.66 389.535C1417.51 406.135 1403.95 423.166 1389.6 441.197C1369.37 466.628 1348.44 492.928 1322.46 518.189C1291.74 547.875 1227.33 599.833 1141.15 614.273C1131.49 615.876 1121.72 617.059 1111.88 617.814C1050.67 622.578 995.137 610.581 948.924 598.215C936.06 594.773 925.654 591.676 916.184 588.46C853.849 567.316 806.456 539.737 754.466 504.83C742.579 496.847 731.031 488.618 718.804 479.908C691.905 460.743 664.096 440.927 631.718 423.331C573.561 391.721 506.104 371.478 412.994 357.695C320.258 343.965 204.893 337.113 60.2039 331.044L60.0862 332.635C360.678 345.241 514.371 361.516 630.485 424.626C662.75 442.16 690.507 461.937 717.353 481.065C729.594 489.785 741.154 498.021 753.073 506.02C805.205 541.026 852.747 568.687 915.326 589.913C924.852 593.145 935.307 596.259 948.227 599.714C978.057 607.694 1002.94 612.951 1026.53 616.262C1046.57 619.063 1065.64 620.461 1084.2 620.461Z" fill="url(#paint20_linear_525_3513)"/>
<path d="M1089.3 636.252C1095.83 636.252 1102.3 636.069 1108.71 635.703C1118.79 635.136 1128.81 634.101 1138.71 632.603C1173.79 627.24 1208.52 614.812 1241.95 595.657C1270.58 579.254 1298.02 557.847 1321.31 533.78C1347.32 506.763 1367.7 478.389 1387.42 450.952C1400.67 432.51 1413.19 415.091 1427.31 398.001C1503.07 306.106 1621.95 234.789 1771.06 191.761C1803.35 182.489 1836.97 174.877 1872.56 166.822C1891.79 162.466 1911.68 157.965 1931.46 153.151C1947.33 149.291 1962.93 145.339 1978.02 141.516C2024.08 129.844 2067.59 118.829 2111.07 112.254C2236.17 93.4176 2365.76 103.781 2485.84 142.226C2620.27 185.75 2728.08 260.214 2789.41 351.945L2791.37 351.199C2759.57 303.623 2715.51 260.75 2660.46 223.771C2634.43 206.315 2606.53 190.511 2577.06 176.518C2548.22 162.825 2518.01 150.856 2486.71 140.72C2366.22 102.144 2236.17 91.7309 2110.64 110.646C2067.03 117.222 2023.45 128.256 1977.32 139.944C1962.24 143.768 1946.65 147.72 1930.8 151.576C1911.04 156.383 1891.16 160.881 1871.93 165.234C1836.3 173.299 1802.64 180.921 1770.28 190.222C1697.29 211.284 1630.79 239.507 1572.62 274.115C1513.03 309.564 1463.51 350.955 1425.44 397.133C1411.28 414.266 1398.75 431.708 1385.48 450.173C1365.8 477.564 1345.45 505.886 1319.54 532.816C1289.66 563.699 1226.37 617.525 1138.28 630.988C1128.46 632.474 1118.53 633.499 1108.55 634.059C1045.93 637.637 986.877 622.364 942.432 608.661C929.778 604.758 918.879 601.043 909.109 597.301C841.246 571.327 791.875 537.541 747.121 505.166C737.063 497.89 727.297 490.535 716.96 482.746C688.842 461.559 659.766 439.648 625.401 420.253C596.125 403.725 564.696 390.235 529.32 379.004C493.854 367.746 454.227 358.698 408.175 351.35C323.137 337.774 212.777 329.535 50.3367 324.636L50.2495 326.28C370.169 335.93 514.967 359.974 624.085 421.565C658.328 440.891 687.348 462.759 715.41 483.903C725.755 491.699 735.526 499.06 745.601 506.349C790.468 538.81 839.987 572.685 908.115 598.767C917.938 602.529 928.894 606.26 941.6 610.18C972.01 619.557 997.401 625.879 1021.51 630.078C1045.24 634.211 1067.59 636.252 1089.3 636.252Z" fill="url(#paint21_linear_525_3513)"/>
<path d="M1093.29 652.241C1097.33 652.241 1101.34 652.167 1105.34 652.017C1115.57 651.648 1125.76 650.769 1135.83 649.387C1171.49 644.455 1206.51 632.004 1239.94 612.402C1268.69 595.532 1295.87 573.402 1318.51 548.407C1344.29 519.803 1363.97 489.495 1382.98 460.178C1394.74 442.035 1406.94 423.275 1420.2 405.576C1492.43 309.068 1614.04 229.811 1762.68 182.41C1804.88 168.999 1849.3 158.451 1896.34 147.286C1905.44 145.126 1914.85 142.89 1924.16 140.654L1936.1 137.777C1995.95 123.363 2052.48 109.752 2108.98 103.126C2238.44 87.9497 2371.51 102.942 2493.8 146.487C2627.8 194.598 2734.86 272.839 2795.18 366.793L2797.23 366.043C2736.68 271.738 2629.27 193.214 2494.78 144.935C2372.07 101.239 2238.55 86.1973 2108.63 101.427C2051.96 108.071 1995.35 121.706 1935.41 136.14L1923.47 139.013C1914.17 141.249 1904.74 143.485 1895.66 145.645C1848.57 156.824 1804.1 167.384 1761.8 180.825C1688.18 204.307 1621.35 235.262 1563.23 272.829C1503.72 311.297 1454.94 355.667 1418.22 404.725C1404.92 422.479 1392.73 441.253 1380.94 459.418C1361.94 488.68 1342.3 518.928 1316.61 547.434C1267.16 602.049 1201.11 638.59 1135.4 647.691C1125.43 649.06 1115.35 649.931 1105.22 650.298C1041.5 652.662 981.28 634.865 935.934 619.096C923.301 614.707 912.219 610.469 902.026 606.135C835.349 577.794 787.228 542.351 739.769 505.494C731.61 499.155 723.325 492.553 715.314 486.168C685.933 462.749 655.55 438.534 619.081 417.163C561.146 383.199 492.573 360.283 403.345 345.001C313.994 329.709 198.69 321.2 40.4883 318.218L40.4316 319.938C348.524 325.744 504.979 352.464 617.705 418.521C654.034 439.809 684.352 463.978 713.677 487.349C721.696 493.74 729.985 500.345 738.153 506.691C785.729 543.65 833.985 579.182 900.929 607.628C911.174 611.981 922.317 616.242 934.997 620.651C965.977 631.422 991.874 638.81 1016.51 643.896C1043.52 649.496 1068.78 652.241 1093.29 652.241Z" fill="url(#paint22_linear_525_3513)"/>
<path d="M1096.46 668.381C1098.3 668.381 1100.13 668.364 1101.96 668.331C1112.34 668.156 1122.68 667.435 1132.93 666.175C1169.16 661.657 1204.48 649.199 1237.91 629.143C1266.8 611.813 1293.69 588.949 1315.68 563.028C1341.12 532.941 1359.98 500.763 1378.23 469.653C1389.22 450.912 1400.58 431.543 1413.1 413.164C1482.8 310.771 1603.97 225.503 1754.3 173.072C1807.05 154.722 1863.53 140.828 1916.86 128.166C1987.76 111.333 2047.21 99.082 2106.89 93.9957C2131.98 91.8004 2157.21 90.7026 2182.47 90.7079C2291.4 90.7079 2400.45 111.093 2501.77 150.754C2635.33 203.33 2741.57 285.332 2800.93 381.653L2803.07 380.904C2772.45 331.214 2729.84 285.523 2676.41 245.115C2625.95 206.934 2567.56 174.66 2502.86 149.189C2441.17 125.043 2376.1 107.887 2309.42 98.1976C2241.84 88.3735 2173.61 86.3613 2106.62 92.2499C2046.76 97.3526 1987.19 109.626 1916.15 126.493C1862.75 139.168 1806.19 153.085 1753.31 171.481C1679.01 197.395 1611.9 231.083 1553.84 271.606C1494.41 313.082 1446.35 360.443 1411.01 412.375C1398.45 430.787 1387.08 450.185 1376.07 468.959C1357.86 500.019 1339.05 532.135 1313.69 562.107C1265.61 618.793 1199.57 656.097 1132.54 664.455C1122.41 665.703 1112.17 666.416 1101.9 666.589C1100.16 666.622 1098.42 666.637 1096.68 666.635C1034.12 666.635 974.617 646.934 929.437 629.591C916.556 624.6 905.274 619.836 894.95 615.025C829.174 584.379 782.421 547.463 732.418 505.869C726.255 500.74 719.995 495.459 713.944 490.356C683.234 464.451 651.479 437.669 612.767 414.121C554.584 378.734 486.499 354.769 398.499 338.704C351.75 330.156 299.617 323.866 239.069 319.431C178.084 314.959 109.886 312.48 30.5847 311.849L30.5586 313.631C331.86 316.028 494.676 344.593 611.264 415.508C649.833 438.967 681.518 465.694 712.167 491.543C718.222 496.653 724.482 501.933 730.654 507.065C754.543 526.934 778.187 546.309 804.759 564.932C833.822 585.316 862.912 602.183 893.691 616.521C904.067 621.358 915.406 626.145 928.344 631.159C960.047 643.324 986.462 651.77 1011.47 657.728C1041.61 664.876 1069.47 668.381 1096.46 668.381Z" fill="url(#paint23_linear_525_3513)"/>
<path d="M1098.98 684.649C1109.37 684.655 1119.74 684.09 1130.03 682.959C1166.83 678.869 1202.45 666.399 1235.88 645.886C1264.89 628.095 1291.51 604.501 1312.85 577.653C1337.85 546.145 1355.83 512.172 1373.23 479.316C1383.5 459.918 1394.14 439.862 1405.99 420.723C1473.11 312.487 1593.82 221.213 1745.91 163.708C1792.08 146.283 1844.1 131.001 1909.54 115.653C1985.16 97.9185 2047.2 88.1273 2104.79 84.8362C2242.97 76.7152 2383 100.97 2509.73 154.976C2642.79 211.876 2748.24 297.639 2806.67 396.469L2808.91 395.719C2778.88 344.928 2736.98 297.827 2684.38 255.726C2634.2 215.568 2575.85 181.131 2510.93 153.358C2448.54 126.773 2382.28 107.217 2313.99 95.2356C2244.43 83.0377 2173.99 78.918 2104.61 82.9982C2046.84 86.2861 1984.63 96.1168 1908.83 113.904C1843.25 129.281 1791.14 144.59 1744.83 162.071C1592.25 219.76 1471.13 311.34 1403.79 419.954C1391.89 439.126 1381.26 459.218 1370.97 478.646C1353.61 511.432 1335.66 545.336 1310.77 576.716C1264.04 635.486 1198.03 673.55 1129.67 681.145C1119.38 682.268 1108.99 682.827 1098.58 682.815C1032.83 682.742 970.187 659.905 922.95 640.017C910.187 634.612 898.717 629.321 887.88 623.847C818.153 588.614 770.837 546.714 725.082 506.194C721.44 502.953 717.8 499.701 714.161 496.439C681.692 467.375 648.111 437.32 606.459 411.031C548.088 374.207 480.483 349.199 393.646 332.366C298.131 313.845 176.149 305.034 20.7439 305.428V307.273C24.2593 307.273 27.7744 307.273 31.2549 307.273C320.151 307.273 486.773 337.909 604.882 412.461C646.369 438.649 679.879 468.637 712.284 497.643C715.926 500.9 719.567 504.153 723.209 507.401C769.091 547.993 816.515 589.986 886.52 625.369C897.411 630.87 908.936 636.186 921.756 641.615C953.947 655.167 980.867 664.679 1006.48 671.534C1039.27 680.323 1069.39 684.61 1098.58 684.643L1098.98 684.649Z" fill="url(#paint24_linear_525_3513)"/>
<path d="M1100.68 701.016C1109.52 701.021 1118.36 700.596 1127.13 699.744C1164.5 696.085 1200.42 683.597 1233.85 662.631C1262.97 644.38 1289.31 620.05 1310.03 592.271C1334.5 559.412 1351.56 523.706 1368.05 489.173C1377.66 469.039 1387.61 448.22 1398.88 428.292C1463.35 314.26 1583.63 216.972 1737.52 154.351C1787 134.236 1842.42 117.011 1902.23 103.153C1973.45 86.6479 2039.01 77.6655 2102.68 75.6862C2245.56 71.1325 2389.04 100.016 2517.66 159.198C2650.17 220.289 2754.85 309.814 2812.39 411.287L2814.72 410.538C2785.27 358.619 2744.09 310.107 2692.31 266.356C2642.41 224.189 2584.1 187.588 2518.98 157.567C2455.91 128.542 2388.47 106.585 2318.54 92.3129C2247.04 77.7378 2174.38 71.4909 2102.6 73.7924C2038.72 75.7651 1972.94 84.7903 1901.51 101.341C1841.54 115.236 1785.97 132.513 1736.35 152.688C1660.65 183.485 1592.93 222.634 1535.05 269.045C1475.75 316.6 1429.16 369.929 1396.58 427.559C1385.25 447.536 1375.32 468.384 1365.69 488.542C1349.24 522.999 1332.22 558.629 1307.84 591.353C1286.37 620.148 1225.74 688.171 1126.8 697.88C1116.35 698.893 1105.8 699.295 1095.26 699.083C1028.21 697.788 964.482 672.432 916.452 650.485C904.281 644.896 892.28 638.929 880.794 632.711C810.814 594.51 763.495 549.795 717.73 506.556L713.13 502.193C679.271 470.078 644.257 436.864 600.144 407.973C572.482 389.805 542.115 374.125 509.656 361.25C473.423 346.826 433.862 335.318 388.772 326.07C290.522 305.915 166.916 297.077 10.8745 299.047L10.9182 300.957C25.5107 300.773 39.8596 300.677 53.8816 300.677C318.675 300.654 482.897 333.704 598.484 409.387C642.424 438.162 677.363 471.304 711.153 503.354L715.753 507.717C761.622 551.057 809.05 595.874 879.317 634.23C890.86 640.477 902.914 646.487 915.141 652.09C963.436 674.158 1027.55 699.655 1095.2 700.961C1097.03 700.998 1098.85 701.016 1100.68 701.016Z" fill="url(#paint25_linear_525_3513)"/>
<path d="M1102.17 717.456C1109.54 717.461 1116.91 717.153 1124.23 716.532C1162.17 713.3 1198.38 700.796 1231.86 679.379C1261.08 660.671 1287.15 635.611 1307.22 606.901C1331.12 572.744 1347.2 535.361 1362.75 499.211C1371.75 478.29 1381.05 456.656 1391.78 435.877C1502.92 220.523 1794.4 68.6236 2100.6 66.5457C2102.73 66.5457 2104.88 66.526 2107.01 66.526C2410.92 66.526 2702.68 213.822 2818.14 426.152L2820.56 425.402C2792.04 372.957 2752.17 323.577 2702.08 278.632C2653.26 234.838 2595.94 196.314 2531.71 164.123C2467.49 131.931 2398.21 106.999 2325.79 90.0374C2251.47 72.6118 2175.71 64.0633 2100.59 64.5664C2025.47 65.0694 1949.93 74.6798 1876.04 93.105C1804.04 111.057 1735.34 136.922 1671.91 169.982C1608.49 203.041 1552.08 242.341 1504.32 286.789C1455.29 332.415 1416.62 382.331 1389.36 435.154C1378.61 455.986 1369.29 477.649 1360.28 498.609C1344.76 534.68 1328.71 571.978 1304.92 605.987C1261.5 668.032 1193.84 708.628 1123.93 714.582C1044.74 721.329 967.986 689.45 909.951 660.924C819.028 616.229 764.896 561.746 712.536 509.058C682.915 479.26 654.958 451.113 620.759 424.501C581.99 394.328 542.115 371.599 495.305 352.974C440.171 331.034 376.478 315.492 300.591 305.421C259.614 299.993 214.377 296.153 166.138 294.009C115.661 291.767 60.1001 291.297 0.997559 292.622L1.07568 294.595C23.2451 294.099 44.6562 293.854 65.3096 293.858C495.462 293.858 600.007 399.106 710.436 510.245C762.926 563.071 817.203 617.695 908.518 662.581C961.539 688.621 1030.12 717.456 1102.17 717.456Z" fill="url(#paint26_linear_525_3513)"/>
</g>
<defs>
<linearGradient id="paint0_linear_525_3513" x1="2668.92" y1="250.393" x2="257.019" y2="250.393" gradientUnits="userSpaceOnUse">
<stop stop-color="#72E8D9"/>
<stop offset="0.49" stop-color="#6771CA"/>
<stop offset="1" stop-color="#5669AE"/>
</linearGradient>
<linearGradient id="paint1_linear_525_3513" x1="2674.75" y1="255.668" x2="247.161" y2="255.668" gradientUnits="userSpaceOnUse">
<stop stop-color="#72E8D9"/>
<stop offset="0.49" stop-color="#6771CA"/>
<stop offset="1" stop-color="#5669AE"/>
</linearGradient>
<linearGradient id="paint2_linear_525_3513" x1="2680.57" y1="260.915" x2="237.313" y2="260.915" gradientUnits="userSpaceOnUse">
<stop stop-color="#72E8D9"/>
<stop offset="0.49" stop-color="#6771CA"/>
<stop offset="1" stop-color="#5669AE"/>
</linearGradient>
<linearGradient id="paint3_linear_525_3513" x1="2686.38" y1="266.067" x2="227.44" y2="266.067" gradientUnits="userSpaceOnUse">
<stop stop-color="#72E8D9"/>
<stop offset="0.49" stop-color="#6771CA"/>
<stop offset="1" stop-color="#5669AE"/>
</linearGradient>
<linearGradient id="paint4_linear_525_3513" x1="2692.23" y1="271.15" x2="217.58" y2="271.15" gradientUnits="userSpaceOnUse">
<stop stop-color="#72E8D9"/>
<stop offset="0.49" stop-color="#6771CA"/>
<stop offset="1" stop-color="#5669AE"/>
</linearGradient>
<linearGradient id="paint5_linear_525_3513" x1="2698.04" y1="276.16" x2="207.724" y2="276.16" gradientUnits="userSpaceOnUse">
<stop stop-color="#72E8D9"/>
<stop offset="0.49" stop-color="#6771CA"/>
<stop offset="1" stop-color="#5669AE"/>
</linearGradient>
<linearGradient id="paint6_linear_525_3513" x1="2703.88" y1="281.126" x2="197.887" y2="281.126" gradientUnits="userSpaceOnUse">
<stop stop-color="#72E8D9"/>
<stop offset="0.49" stop-color="#6771CA"/>
<stop offset="1" stop-color="#5669AE"/>
</linearGradient>
<linearGradient id="paint7_linear_525_3513" x1="2709.71" y1="286.054" x2="187.989" y2="286.054" gradientUnits="userSpaceOnUse">
<stop stop-color="#72E8D9"/>
<stop offset="0.49" stop-color="#6771CA"/>
<stop offset="1" stop-color="#5669AE"/>
</linearGradient>
<linearGradient id="paint8_linear_525_3513" x1="2715.54" y1="290.961" x2="178.205" y2="290.961" gradientUnits="userSpaceOnUse">
<stop stop-color="#72E8D9"/>
<stop offset="0.49" stop-color="#6771CA"/>
<stop offset="1" stop-color="#5669AE"/>
</linearGradient>
<linearGradient id="paint9_linear_525_3513" x1="2721.39" y1="295.902" x2="168.349" y2="295.902" gradientUnits="userSpaceOnUse">
<stop stop-color="#72E8D9"/>
<stop offset="0.49" stop-color="#6771CA"/>
<stop offset="1" stop-color="#5669AE"/>
</linearGradient>
<linearGradient id="paint10_linear_525_3513" x1="2727.19" y1="300.897" x2="158.463" y2="300.897" gradientUnits="userSpaceOnUse">
<stop stop-color="#72E8D9"/>
<stop offset="0.49" stop-color="#6771CA"/>
<stop offset="1" stop-color="#5669AE"/>
</linearGradient>
<linearGradient id="paint11_linear_525_3513" x1="2733.04" y1="306.086" x2="148.621" y2="306.086" gradientUnits="userSpaceOnUse">
<stop stop-color="#72E8D9"/>
<stop offset="0.49" stop-color="#6771CA"/>
<stop offset="1" stop-color="#5669AE"/>
</linearGradient>
<linearGradient id="paint12_linear_525_3513" x1="2738.87" y1="311.542" x2="138.828" y2="311.542" gradientUnits="userSpaceOnUse">
<stop stop-color="#72E8D9"/>
<stop offset="0.49" stop-color="#6771CA"/>
<stop offset="1" stop-color="#5669AE"/>
</linearGradient>
<linearGradient id="paint13_linear_525_3513" x1="2744.7" y1="317.418" x2="128.948" y2="317.418" gradientUnits="userSpaceOnUse">
<stop stop-color="#72E8D9"/>
<stop offset="0.49" stop-color="#6771CA"/>
<stop offset="1" stop-color="#5669AE"/>
</linearGradient>
<linearGradient id="paint14_linear_525_3513" x1="2750.54" y1="323.667" x2="119.119" y2="323.667" gradientUnits="userSpaceOnUse">
<stop stop-color="#72E8D9"/>
<stop offset="0.49" stop-color="#6771CA"/>
<stop offset="1" stop-color="#5669AE"/>
</linearGradient>
<linearGradient id="paint15_linear_525_3513" x1="2756.38" y1="330.344" x2="109.265" y2="330.344" gradientUnits="userSpaceOnUse">
<stop stop-color="#72E8D9"/>
<stop offset="0.49" stop-color="#6771CA"/>
<stop offset="1" stop-color="#5669AE"/>
</linearGradient>
<linearGradient id="paint16_linear_525_3513" x1="2762.21" y1="337.379" x2="99.4148" y2="337.379" gradientUnits="userSpaceOnUse">
<stop stop-color="#72E8D9"/>
<stop offset="0.49" stop-color="#6771CA"/>
<stop offset="1" stop-color="#5669AE"/>
</linearGradient>
<linearGradient id="paint17_linear_525_3513" x1="2768.05" y1="344.357" x2="89.5994" y2="344.357" gradientUnits="userSpaceOnUse">
<stop stop-color="#72E8D9"/>
<stop offset="0.49" stop-color="#6771CA"/>
<stop offset="1" stop-color="#5669AE"/>
</linearGradient>
<linearGradient id="paint18_linear_525_3513" x1="2773.88" y1="351.054" x2="79.7454" y2="351.054" gradientUnits="userSpaceOnUse">
<stop stop-color="#72E8D9"/>
<stop offset="0.49" stop-color="#6771CA"/>
<stop offset="1" stop-color="#5669AE"/>
</linearGradient>
<linearGradient id="paint19_linear_525_3513" x1="2779.72" y1="357.39" x2="69.908" y2="357.39" gradientUnits="userSpaceOnUse">
<stop stop-color="#72E8D9"/>
<stop offset="0.49" stop-color="#6771CA"/>
<stop offset="1" stop-color="#5669AE"/>
</linearGradient>
<linearGradient id="paint20_linear_525_3513" x1="2785.54" y1="363.335" x2="60.0862" y2="363.335" gradientUnits="userSpaceOnUse">
<stop stop-color="#72E8D9"/>
<stop offset="0.49" stop-color="#6771CA"/>
<stop offset="1" stop-color="#5669AE"/>
</linearGradient>
<linearGradient id="paint21_linear_525_3513" x1="2791.37" y1="368.859" x2="50.2495" y2="368.859" gradientUnits="userSpaceOnUse">
<stop stop-color="#72E8D9"/>
<stop offset="0.49" stop-color="#6771CA"/>
<stop offset="1" stop-color="#5669AE"/>
</linearGradient>
<linearGradient id="paint22_linear_525_3513" x1="2797.23" y1="373.953" x2="40.4316" y2="373.953" gradientUnits="userSpaceOnUse">
<stop stop-color="#72E8D9"/>
<stop offset="0.49" stop-color="#6771CA"/>
<stop offset="1" stop-color="#5669AE"/>
</linearGradient>
<linearGradient id="paint23_linear_525_3513" x1="2803.07" y1="378.672" x2="30.5586" y2="378.672" gradientUnits="userSpaceOnUse">
<stop stop-color="#72E8D9"/>
<stop offset="0.49" stop-color="#6771CA"/>
<stop offset="1" stop-color="#5669AE"/>
</linearGradient>
<linearGradient id="paint24_linear_525_3513" x1="2808.91" y1="383.067" x2="20.7439" y2="383.067" gradientUnits="userSpaceOnUse">
<stop stop-color="#72E8D9"/>
<stop offset="0.49" stop-color="#6771CA"/>
<stop offset="1" stop-color="#5669AE"/>
</linearGradient>
<linearGradient id="paint25_linear_525_3513" x1="2814.72" y1="387.177" x2="10.8745" y2="387.177" gradientUnits="userSpaceOnUse">
<stop stop-color="#72E8D9"/>
<stop offset="0.49" stop-color="#6771CA"/>
<stop offset="1" stop-color="#5669AE"/>
</linearGradient>
<linearGradient id="paint26_linear_525_3513" x1="2820.56" y1="391.006" x2="0.997559" y2="391.006" gradientUnits="userSpaceOnUse">
<stop stop-color="#72E8D9"/>
<stop offset="0.49" stop-color="#6771CA"/>
<stop offset="1" stop-color="#5669AE"/>
</linearGradient>
</defs>
</svg>
