<svg xmlns="http://www.w3.org/2000/svg" width="35" height="35" fill="#3e3465" xmlns:v="https://vecta.io/nano"><path d="M31.864 21.328H20.669c.421-.386.764-.86.994-1.399l2.399-5.598v-.433l.481-.481a2.08 2.08 0 0 0 .613-1.48 2.12 2.12 0 0 0-.036-.359 8.78 8.78 0 0 1 2.797 1.808 1.64 1.64 0 0 0 1.614 1.378c.905 0 1.641-.736 1.641-1.641V10.88a2.74 2.74 0 0 0 0-5.358V3.281c0-.905-.736-1.641-1.641-1.641a1.64 1.64 0 0 0-1.614 1.375c-1.644 1.579-3.794 2.453-6.081 2.453h-1.055a2.74 2.74 0 0 0-2.734 2.734 2.72 2.72 0 0 0 1.12 2.204c-.012.088-.027.175-.027.266a1.93 1.93 0 0 0 .137.714l.891 2.229-2.932 4.606a6.38 6.38 0 0 0-1.525-2.646c1.37-.567 2.335-1.923 2.335-3.47 0-.483-.091-.955-.271-1.402l-.195-.484a8.63 8.63 0 0 1-.628-3.24A6.44 6.44 0 0 0 10.519.546h-.259c-3.547 0-6.433 2.886-6.433 6.433a8.64 8.64 0 0 1-.627 3.24l-.195.484c-.18.447-.272.918-.272 1.402 0 1.548.964 2.904 2.335 3.47a6.42 6.42 0 0 0-1.788 4.468v1.284h-.145c-1.427 0-2.589 1.162-2.589 2.589a2.67 2.67 0 0 0 .026.366l.823 5.759c.181 1.268 1.283 2.224 2.563 2.224H20.78v.547c0 .904.736 1.641 1.64 1.641a1.65 1.65 0 0 0 1.312-.656l1.149-1.532h6.158c1.28 0 2.382-.956 2.564-2.223l.823-5.761a2.7 2.7 0 0 0 .025-.365c0-1.427-1.161-2.589-2.589-2.589zm-8.094-8.683l-.481.48h-2.138l-.858-2.144a.84.84 0 0 1-.059-.308.83.83 0 0 1 .829-.829h1.358c0 .603-.491 1.094-1.094 1.094v1.094a2.18 2.18 0 0 0 1.876-1.079 1 1 0 0 1 .859.986c0 .267-.104.518-.293.707zm-1.348-6.111a9.78 9.78 0 0 0 5.469-2.053v7.44c-1.135-.881-2.447-1.507-3.859-1.828a2.06 2.06 0 0 0-.521-.198c0-.018.005-.033.005-.051 0-.603-.491-1.094-1.094-1.094V6.534zm9.844 1.669c0 .712-.459 1.314-1.094 1.54V6.664c.635.226 1.094.827 1.094 1.539zm-3.281-4.922a.55.55 0 0 1 .547-.547.55.55 0 0 1 .547.547v9.844a.55.55 0 0 1-.547.547.55.55 0 0 1-.547-.547V3.281zm-9.844 4.922c0-.905.736-1.641 1.641-1.641h.547V8.75h-.265a1.91 1.91 0 0 0-1.418.635c-.318-.305-.505-.727-.505-1.182zM3.828 12.106a2.64 2.64 0 0 1 .193-.993l.195-.484a9.73 9.73 0 0 0 .707-3.648 5.35 5.35 0 0 1 5.34-5.34h.259c2.944 0 5.339 2.395 5.339 5.34a9.73 9.73 0 0 0 .706 3.648l.195.484a2.64 2.64 0 0 1 .192.993 2.67 2.67 0 0 1-2.257 2.618 6.48 6.48 0 0 0-2.244-.972l-.069-.208c1.374-.392 2.383-1.655 2.383-3.153V7.109c0-.905-.736-1.641-1.641-1.641h-1.31a5.94 5.94 0 0 1-3.309-1.002l-.137-.092h-.166c-.585 0-1.134.228-1.547.64s-.641.963-.641 1.547l.001 3.828c0 1.498 1.01 2.761 2.383 3.153l-.069.208a6.48 6.48 0 0 0-2.244.972 2.67 2.67 0 0 1-2.257-2.618zm7.656.472H9.297a2.19 2.19 0 0 1-2.187-2.187V6.563a1.09 1.09 0 0 1 .32-.774c.172-.172.39-.279.627-.311 1.128.71 2.423 1.084 3.759 1.084h1.31a.55.55 0 0 1 .547.547v3.281a2.19 2.19 0 0 1-2.187 2.188zm-2.118 1.52l.142-.426h1.765l.142.425c.047.142.128.264.225.373l-1.249 1.998-1.249-1.998c.096-.109.178-.231.225-.372zm-4.991 5.947c0-2.38 1.528-4.423 3.767-5.111l2.249 3.598 2.249-3.598c2.238.688 3.766 2.731 3.766 5.111v.19H17.5v-.19l-.008-.185 3.589-5.64h1.839l-2.263 5.28a3.04 3.04 0 0 1-2.612 1.825v.004h-3.674l.278-1.111a3.85 3.85 0 0 0 .116-.939 3.86 3.86 0 0 0-1.723-3.219l-.161-.107-.608.909.161.108a2.77 2.77 0 0 1 1.153 2.982l-.344 1.377H7.536l-.344-1.377a2.75 2.75 0 0 1-.083-.673 2.77 2.77 0 0 1 1.237-2.31l.161-.107-.608-.909-.16.107a3.86 3.86 0 0 0-1.724 3.219c0 .317.039.633.116.938l.278 1.111H4.375v-1.283zm28.97 4.084l-.823 5.759c-.105.732-.741 1.284-1.48 1.284h-6.705l-1.477 1.969a.55.55 0 0 1-.437.219c-.301 0-.546-.245-.546-.547v-1.641H3.959a1.5 1.5 0 0 1-1.48-1.284l-.823-5.757c-.009-.071-.015-.142-.015-.214a1.5 1.5 0 0 1 1.495-1.495h28.728a1.5 1.5 0 0 1 1.496 1.495 1.48 1.48 0 0 1-.015.212zM8.75 8.75c.302 0 .547-.245.547-.547s-.245-.547-.547-.547-.547.245-.547.547.245.547.547.547zm3.281 0c.302 0 .547-.245.547-.547s-.245-.547-.547-.547-.547.245-.547.547.245.547.547.547zm-.546.965c-.208.417-.627.676-1.094.676s-.885-.259-1.094-.676L9.24 9.6l-.978.489.057.115c.395.79 1.189 1.281 2.072 1.281s1.677-.491 2.072-1.281l.057-.115-.978-.489-.057.116zm-1.317 13.801h-.101a2.43 2.43 0 0 0-1.319.392 2.42 2.42 0 0 0-1.315-.392h-.101c-.634 0-1.254.257-1.707.71a2.39 2.39 0 0 0-.704 1.701 2.4 2.4 0 0 0 .865 1.848l2.963 2.469 2.963-2.469a2.4 2.4 0 0 0 .865-1.848c0-.642-.25-1.246-.709-1.706a2.42 2.42 0 0 0-1.701-.705zm.845 3.419L8.75 28.819l-2.262-1.885a1.31 1.31 0 0 1-.082-1.941 1.32 1.32 0 0 1 .927-.384h.101c.346 0 .684.14.951.406l.389.345.367-.367a1.32 1.32 0 0 1 .927-.384h.101a1.32 1.32 0 0 1 .932.389c.248.249.385.578.385.928a1.31 1.31 0 0 1-.472 1.008zm7.905-3.419h-.101a2.43 2.43 0 0 0-1.319.392 2.42 2.42 0 0 0-1.315-.392h-.101c-.634 0-1.254.257-1.707.71a2.39 2.39 0 0 0-.704 1.701 2.4 2.4 0 0 0 .865 1.848l2.963 2.469 2.963-2.469a2.4 2.4 0 0 0 .865-1.848c0-.642-.25-1.246-.709-1.706a2.42 2.42 0 0 0-1.701-.705zm.845 3.419L17.5 28.819l-2.262-1.885a1.31 1.31 0 0 1-.082-1.941 1.32 1.32 0 0 1 .927-.384h.101c.346 0 .684.14.951.406l.389.345.367-.367a1.32 1.32 0 0 1 .927-.384h.101a1.32 1.32 0 0 1 .932.389c.248.249.384.578.384.928a1.31 1.31 0 0 1-.472 1.008zm7.905-3.419h-.101a2.43 2.43 0 0 0-1.319.392 2.42 2.42 0 0 0-1.315-.392h-.101c-.634 0-1.254.257-1.707.71a2.39 2.39 0 0 0-.704 1.701 2.4 2.4 0 0 0 .865 1.848l2.963 2.469 2.963-2.469a2.4 2.4 0 0 0 .865-1.848c0-.642-.25-1.246-.709-1.706a2.42 2.42 0 0 0-1.701-.705zm.845 3.419l-2.262 1.885-2.262-1.885a1.31 1.31 0 0 1-.082-1.941 1.32 1.32 0 0 1 .927-.384h.101c.346 0 .684.14.951.406l.389.345.367-.367a1.32 1.32 0 0 1 .927-.384h.101a1.32 1.32 0 0 1 .932.389c.248.249.384.578.384.928a1.31 1.31 0 0 1-.472 1.008z"/></svg>