<svg width="366" height="374" viewBox="0 0 366 374" fill="none" xmlns="http://www.w3.org/2000/svg">
<rect x="70.2656" y="22.0469" width="289.439" height="289.439" rx="80" transform="rotate(14.0498 70.2656 22.0469)" fill="#9EFFAE"/>
<g clip-path="url(#clip0_1046_1648)">
<path fill-rule="evenodd" clip-rule="evenodd" d="M292.434 269.026L291.397 270.875L287.677 268.801L288.714 266.953L292.434 269.026ZM262.381 31.3137L264.838 32.6888L265.875 30.8403L263.418 29.4651L262.381 31.3137ZM266.687 33.7257L267.724 31.8772L271.444 33.9511L270.407 35.7997L266.687 33.7257ZM272.256 36.8141L273.293 34.9656L277.013 37.0395L275.976 38.888L272.256 36.8141ZM277.847 39.925L278.884 38.0765L282.604 40.1504L281.567 41.9989L277.847 39.925ZM283.416 43.0133L284.453 41.1648L288.173 43.2387L287.136 45.0872L283.416 43.0133ZM288.984 46.1242L290.021 44.2757L293.741 46.3496L292.704 48.1981L288.984 46.1242ZM294.553 49.2126L295.59 47.3641L299.31 49.438L298.273 51.2865L294.553 49.2126ZM300.144 52.3235L301.181 50.4749L304.901 52.5489L303.864 54.3974L300.144 52.3235ZM305.713 55.4118L306.75 53.5633L310.47 55.6372L309.433 57.4857L305.713 55.4118ZM311.281 58.5227L312.319 56.6742L316.039 58.7481L315.001 60.5966L311.281 58.5227ZM316.873 61.611L317.91 59.7625L321.63 61.8365L320.593 63.685L316.873 61.611ZM322.441 64.7219L323.478 62.8734L327.198 64.9474L326.161 66.7959L322.441 64.7219ZM328.01 67.8103L329.047 65.9618L332.767 68.0357L331.73 69.8842L328.01 67.8103ZM333.579 70.9212L334.616 69.0727L338.336 71.1466L337.299 72.9951L333.579 70.9212ZM339.17 74.0095L340.207 72.161L343.927 74.235L342.89 76.0835L339.17 74.0095ZM344.626 77.0979C345.686 77.8418 346.542 78.7886 347.286 79.8706L349.045 78.6984C348.188 77.4135 347.128 76.2638 345.843 75.3621L344.626 77.0979ZM348.233 81.5839C348.797 82.7786 349.157 84.0185 349.36 85.326L351.457 85.0555C351.232 83.5226 350.803 82.0798 350.149 80.6822L348.233 81.5839ZM349.473 87.2646C349.428 88.5947 349.112 90.105 348.932 91.3674L351.029 91.683C351.232 90.353 351.547 88.775 351.592 87.3548L349.473 87.2646ZM348.616 93.4864L350.713 93.802L350.104 98.0175L348.008 97.7019L348.616 93.4864ZM347.692 99.7984L349.789 100.114L349.18 104.329L347.083 104.014L347.692 99.7984ZM346.768 106.11L348.864 106.426L348.256 110.641L346.159 110.326L346.768 106.11ZM345.843 112.422L347.94 112.738L347.331 116.953L345.235 116.638L345.843 112.422ZM344.919 118.712L347.016 119.027L346.407 123.243L344.31 122.927L344.919 118.712ZM343.995 125.024L346.091 125.339L345.483 129.555L343.386 129.239L343.995 125.024ZM343.07 131.336L345.167 131.651L344.558 135.867L342.462 135.551L343.07 131.336ZM342.146 137.648L344.243 137.963L343.634 142.179L341.537 141.863L342.146 137.648ZM341.222 143.96L343.318 144.275L342.71 148.491L340.613 148.175L341.222 143.96ZM340.297 150.272L342.394 150.587L341.785 154.803L339.688 154.487L340.297 150.272ZM339.373 156.583L341.47 156.899L340.861 161.115L338.764 160.799L339.373 156.583ZM338.448 162.895L340.545 163.211L339.936 167.426L337.84 167.111L338.448 162.895ZM337.524 169.207L339.621 169.523L339.012 173.738L336.915 173.423L337.524 169.207ZM336.6 175.519L338.697 175.835L338.088 180.05L335.991 179.735L336.6 175.519ZM335.675 181.831L337.772 182.147L337.163 186.362L335.067 186.047L335.675 181.831ZM334.751 188.143L336.848 188.459L336.239 192.674L334.142 192.359L334.751 188.143ZM333.827 194.455L335.923 194.771L335.315 198.986L333.218 198.671L333.827 194.455ZM332.902 200.767L334.999 201.083L334.39 205.298L332.294 204.983L332.902 200.767ZM331.978 207.079L334.075 207.395L333.466 211.61L331.369 211.295L331.978 207.079ZM331.054 213.391L333.15 213.707L332.542 217.922L330.445 217.607L331.054 213.391ZM330.129 219.703L332.226 220.019L331.617 224.234L329.521 223.919L330.129 219.703ZM329.205 226.015L331.302 226.331L330.693 230.546L328.596 230.23L329.205 226.015ZM328.281 232.327L330.377 232.643L329.769 236.858L327.672 236.542L328.281 232.327ZM327.356 238.639L329.453 238.955L328.844 243.17L326.748 242.854L327.356 238.639ZM326.432 244.951L328.529 245.266L327.92 249.482L325.823 249.166L326.432 244.951ZM325.508 251.263L327.604 251.578L326.996 255.794L324.899 255.478L325.508 251.263ZM324.583 257.575L326.68 257.89L326.071 262.106L323.974 261.79L324.583 257.575ZM323.636 263.887L325.733 264.202L325.124 268.418L323.028 268.102L323.636 263.887ZM322.712 270.199L324.809 270.514L324.2 274.73L322.103 274.414L322.712 270.199ZM321.81 276.511L323.907 276.826L323.772 277.796C323.591 279.035 323.208 280.185 322.554 281.267L320.75 280.14C321.246 279.351 321.517 278.404 321.652 277.48L321.81 276.511ZM319.601 281.425C318.676 282.124 317.549 282.327 316.399 282.079L315.971 284.153C317.707 284.513 319.42 284.198 320.863 283.116L319.601 281.425ZM314.731 281.425L313.694 283.273L309.974 281.2L311.011 279.351L314.731 281.425ZM309.162 278.337L308.125 280.185L304.405 278.111L305.442 276.263L309.162 278.337ZM303.594 275.226L302.556 277.074L298.837 275L299.874 273.152L303.594 275.226ZM298.002 272.137L296.965 273.986L293.245 271.912L294.282 270.063L298.002 272.137Z" fill="white"/>
<path fill-rule="evenodd" clip-rule="evenodd" d="M239.746 4.82598C241.685 5.90803 242.812 7.14788 244.075 8.92876C244.052 8.61316 244.052 9.76284 244.052 8.0045C244.052 6.24617 243.06 3.38325 244.435 1.96306C244.977 1.39949 247.659 0.362527 248.291 0.182185C249.508 -0.133412 250.951 0.0694719 252.462 0.903552C254.784 2.16594 256.858 4.6231 258.391 7.59874C259.924 10.5744 260.871 15.5112 260.848 17.2921C260.848 19.073 260.848 17.9008 260.826 18.2163C262.111 17.8331 263.261 17.8331 265.267 18.9377C267.251 20.0423 269.754 22.7474 271.309 25.7682C272.865 28.7889 273.834 32.3281 273.857 35.6193C273.857 38.1892 273.271 40.2406 272.279 41.6608C271.264 43.081 269.325 43.9376 267.95 44.3884C264.005 45.7635 256.362 37.7383 252.349 35.4615C248.088 33.0495 243.827 30.6374 239.611 28.2479C237.311 26.9404 235.237 24.4607 233.772 21.5076C232.306 18.5545 231.404 15.1055 231.427 11.8819C231.449 10.0108 230.074 7.19297 231.855 5.8404C234.583 3.74393 237.537 3.60868 239.746 4.82598Z" fill="#8D6DFC"/>
<path fill-rule="evenodd" clip-rule="evenodd" d="M237.514 5.79528C239.453 6.85479 240.58 8.11718 241.82 9.89806C241.798 9.58246 241.798 10.7321 241.798 8.9738C241.798 7.21547 242.767 3.36067 244.278 2.07574C245.788 0.790804 247.885 0.633005 250.207 1.8954C252.529 3.15779 254.603 5.61494 256.136 8.59058C257.669 11.5662 258.616 16.5031 258.594 18.2839C258.594 20.0648 258.594 18.8926 258.571 19.2082C259.856 18.825 261.006 18.825 263.013 19.9296C264.997 21.0341 267.499 23.7393 269.055 26.76C270.61 29.7807 271.58 33.2974 271.602 36.6112C271.602 39.9249 270.656 42.3821 269.077 43.6896C267.522 44.9745 265.38 45.1097 263.013 43.7572C258.684 41.3 254.378 38.8654 250.094 36.4534C245.833 34.0413 241.572 31.6292 237.356 29.2397C235.057 27.9322 232.982 25.4525 231.517 22.4994C230.052 19.5463 229.15 16.0973 229.172 12.8737C229.195 9.65009 230.142 7.2831 231.652 5.99817C233.163 4.69069 235.575 4.73578 237.514 5.79528Z" fill="url(#paint0_linear_1046_1648)"/>
<path fill-rule="evenodd" clip-rule="evenodd" d="M241.978 21.733L238.01 19.4337L244.255 30.2316L250.522 26.6474L246.554 24.3705L246.577 14.2038L241.978 11.5663V21.733Z" fill="white"/>
<path fill-rule="evenodd" clip-rule="evenodd" d="M255.707 26.1288L259.675 28.4057L253.43 17.6302L247.162 21.192L251.13 23.4914L251.108 33.6356L255.684 36.2956L255.707 26.1288Z" fill="white"/>
<path fill-rule="evenodd" clip-rule="evenodd" d="M137.481 34.5598L138.383 32.9367L141.629 34.7402L140.728 36.3632L137.481 34.5598ZM142.261 186.25L139.826 184.897L138.924 186.52L141.359 187.873L142.261 186.25ZM138.203 183.973L137.301 185.596L134.054 183.793L134.956 182.169L138.203 183.973ZM133.333 181.29L132.431 182.913L129.184 181.11L130.086 179.487L133.333 181.29ZM128.486 178.585L127.584 180.208L124.337 178.405L125.239 176.782L128.486 178.585ZM123.616 175.88L122.714 177.503L119.467 175.7L120.369 174.077L123.616 175.88ZM118.746 173.175L117.844 174.798L114.598 172.995L115.5 171.371L118.746 173.175ZM113.899 170.47L112.997 172.093L111.329 171.169C110.697 170.808 110.224 170.425 109.705 169.929L111.013 168.621C111.329 168.937 111.825 169.343 112.23 169.546L113.899 170.47ZM109.976 167.314C109.367 166.367 108.939 165.308 108.736 164.225L106.91 164.564C107.158 165.894 107.676 167.179 108.398 168.328L109.976 167.314ZM108.601 162.58C108.646 161.408 108.916 160.145 109.074 159.018L107.248 158.748C107.068 159.92 106.797 161.295 106.752 162.512L108.601 162.58ZM109.367 157.17L107.541 156.899L108.082 153.225L109.908 153.495L109.367 157.17ZM110.156 151.669L108.33 151.399L108.871 147.724L110.697 147.995L110.156 151.669ZM110.968 146.169L109.142 145.898L109.683 142.224L111.509 142.494L110.968 146.169ZM111.78 140.668L109.953 140.398L110.494 136.723L112.321 136.994L111.78 140.668ZM112.591 135.168L110.765 134.897L111.306 131.223L113.132 131.493L112.591 135.168ZM113.403 129.645L111.577 129.374L112.118 125.7L113.944 125.97L113.403 129.645ZM114.192 124.145L112.366 123.874L112.907 120.2L114.733 120.47L114.192 124.145ZM115.004 118.644L113.177 118.374L113.718 114.699L115.545 114.97L115.004 118.644ZM115.815 113.144L113.989 112.873L114.53 109.199L116.356 109.469L115.815 113.144ZM116.627 107.643L114.801 107.373L115.342 103.698L117.168 103.969L116.627 107.643ZM117.416 102.143L115.59 101.872L116.131 98.1979L117.957 98.4684L117.416 102.143ZM118.227 96.6424L116.401 96.3719L116.942 92.6975L118.769 92.968L118.227 96.6424ZM119.039 91.1195L117.213 90.849L117.754 87.1745L119.58 87.445L119.039 91.1195ZM119.851 85.6191L118.025 85.3485L118.566 81.6741L120.392 81.9446L119.851 85.6191ZM120.64 80.1186L118.814 79.8481L119.355 76.1737L121.181 76.4442L120.64 80.1186ZM121.451 74.6182L119.625 74.3477L120.166 70.6732L121.993 70.9437L121.451 74.6182ZM122.263 69.1178L120.437 68.8473L120.978 65.1728L122.804 65.4433L122.263 69.1178ZM123.075 63.6174L121.249 63.3469L121.79 59.6724L123.616 59.9429L123.075 63.6174ZM123.864 58.117L122.038 57.8464L122.579 54.172L124.405 54.4425L123.864 58.117ZM124.675 52.594L122.849 52.3235L123.39 48.649L125.217 48.9195L124.675 52.594ZM125.487 47.0936L123.661 46.8231L124.202 43.1486L126.028 43.4191L125.487 47.0936ZM126.299 41.5932L124.473 41.3226L125.014 37.6482L126.84 37.9187L126.299 41.5932ZM127.088 36.0927L125.262 35.8222C125.442 34.6725 125.555 33.1171 126.028 31.9674L127.742 32.6888C127.336 33.613 127.223 35.3037 127.088 36.0927ZM128.553 31.5166C129.275 30.8854 130.222 30.7727 131.101 31.0882L131.71 29.3299C130.176 28.7889 128.531 29.0369 127.313 30.1189L128.553 31.5166ZM132.634 31.8547L133.536 30.2316L136.782 32.035L135.88 33.6581L132.634 31.8547Z" fill="white"/>
<path opacity="0.5" fill-rule="evenodd" clip-rule="evenodd" d="M281.704 290.645L169.406 228.562C166.655 227.3 162.597 226.105 159.892 227.751L152.97 231.966C151.573 232.823 146.996 235.618 150.062 237.286C159.058 242.178 254.627 295.469 263.758 300.451C265.494 301.398 268.019 301.736 270.679 301.511C273.317 301.285 276.067 300.586 278.164 299.279L280.937 297.566C282.899 296.371 283.981 295.041 284.071 293.778C284.184 292.561 283.395 291.411 281.704 290.645Z" fill="#BB6CE9"/>
<path fill-rule="evenodd" clip-rule="evenodd" d="M197.474 11.9946C195.851 11.0703 193.957 10.7322 192.176 11.4085L188.208 12.9639C186.765 20.4255 270.521 294.184 272.347 296.078L275.886 294.748C278.209 293.824 279.426 291.411 279.787 289.044L309.749 84.6272V84.6046C310.245 81.1556 309.208 77.5938 307.314 74.7084C306.3 73.1529 304.947 71.7327 303.324 70.8536L197.474 11.9946Z" fill="url(#paint1_linear_1046_1648)"/>
<path fill-rule="evenodd" clip-rule="evenodd" d="M299.402 72.364L193.552 13.505C189.246 11.1154 185.12 13.4148 184.353 18.6221L154.413 223.039C153.647 228.247 156.51 234.401 160.839 236.813L266.666 295.672C270.972 298.062 275.098 295.762 275.864 290.577L305.827 86.1601C306.594 80.9302 303.708 74.7535 299.402 72.364Z" fill="url(#paint2_linear_1046_1648)"/>
<path fill-rule="evenodd" clip-rule="evenodd" d="M299.402 72.3639L193.552 13.505C189.246 11.1154 185.12 13.4148 184.353 18.6221L182.82 29.082L304.272 96.6199L305.805 86.115C306.594 80.9302 303.708 74.7535 299.402 72.3639Z" fill="#4A9FF8"/>
<path fill-rule="evenodd" clip-rule="evenodd" d="M192.672 27.9999C191.319 26.8727 190.485 24.5508 190.846 22.7925C191.207 21.0342 192.604 20.5157 193.957 21.6428C195.31 22.77 196.144 25.0919 195.783 26.8502C195.423 28.6085 194.025 29.127 192.672 27.9999Z" fill="#4C68E5"/>
<path fill-rule="evenodd" clip-rule="evenodd" d="M201.307 33.2749C199.954 32.1477 199.12 29.8259 199.481 28.0675C199.841 26.3092 201.239 25.7907 202.592 26.9178C203.945 28.045 204.779 30.3669 204.418 32.1252C204.08 33.8835 202.682 34.3795 201.307 33.2749Z" fill="#4C68E5"/>
<path fill-rule="evenodd" clip-rule="evenodd" d="M209.965 38.5273C208.612 37.4002 207.778 35.0783 208.139 33.32C208.5 31.5616 209.897 31.0432 211.25 32.1703C212.603 33.2974 213.437 35.6193 213.076 37.3777C212.738 39.136 211.34 39.6545 209.965 38.5273Z" fill="#4C68E5"/>
<path opacity="0.5" fill-rule="evenodd" clip-rule="evenodd" d="M293.021 121.958C292.548 121.71 292.097 121.958 292.007 122.521C291.917 123.108 292.232 123.784 292.706 124.054C293.202 124.325 293.653 124.077 293.72 123.491C293.833 122.905 293.517 122.228 293.021 121.958ZM172.652 149.708L173.464 150.159L182.121 91.142L181.31 90.6912L172.652 149.708ZM182.121 87.986C181.648 87.7381 181.197 87.986 181.107 88.5722C181.017 89.1357 181.332 89.8345 181.806 90.0825C182.302 90.353 182.753 90.1051 182.843 89.5189C182.933 88.9328 182.617 88.2566 182.121 87.986ZM185.616 159.965L186.427 160.416L195.085 101.376L194.273 100.926L185.616 159.965ZM195.107 98.2204C194.634 97.9499 194.183 98.2204 194.093 98.784C194.003 99.3476 194.341 100.046 194.792 100.294C195.265 100.565 195.739 100.294 195.806 99.7308C195.919 99.1672 195.581 98.4909 195.107 98.2204ZM201.082 153.292L201.916 153.743L210.551 94.7263L209.717 94.2755L201.082 153.292ZM210.573 91.5703C210.1 91.2998 209.627 91.5703 209.559 92.1339C209.469 92.6975 209.807 93.3963 210.28 93.6668C210.754 93.9148 211.205 93.6668 211.295 93.1032C211.363 92.5171 211.047 91.8183 210.573 91.5703ZM216.57 146.642L217.382 147.093L226.039 88.0537L225.228 87.6028L216.57 146.642ZM226.039 84.8977C225.566 84.6272 225.115 84.8977 225.025 85.4838C224.935 86.0474 225.25 86.7237 225.724 86.9942C226.22 87.2647 226.648 86.9942 226.738 86.4306C226.829 85.8445 226.535 85.1682 226.039 84.8977ZM230.368 151.241L231.18 151.692L239.837 92.6749L239.026 92.2241L230.368 151.241ZM239.86 89.4964C239.386 89.2259 238.935 89.4964 238.845 90.06C238.755 90.6235 239.093 91.3224 239.544 91.5703C240.018 91.8408 240.491 91.5703 240.559 91.0068C240.649 90.4657 240.333 89.7669 239.86 89.4964ZM242.926 164.293L243.76 164.744L252.417 105.705L251.583 105.254L242.926 164.293ZM252.417 102.571C251.944 102.323 251.493 102.549 251.403 103.157C251.313 103.721 251.651 104.397 252.102 104.668C252.598 104.938 253.049 104.69 253.116 104.127C253.229 103.518 252.913 102.842 252.417 102.571ZM255.1 180.186L255.912 180.637L264.569 121.62L263.758 121.169L255.1 180.186ZM264.592 118.441C264.118 118.171 263.645 118.441 263.577 119.005C263.487 119.568 263.825 120.267 264.299 120.538C264.772 120.808 265.223 120.538 265.313 119.974C265.381 119.388 265.065 118.712 264.592 118.441ZM268.086 190.352L268.898 190.803L277.555 131.764L276.744 131.313L268.086 190.352ZM277.578 128.608C277.104 128.337 276.654 128.608 276.563 129.172C276.473 129.758 276.789 130.434 277.262 130.704C277.736 130.975 278.209 130.704 278.277 130.141C278.367 129.555 278.051 128.879 277.578 128.608ZM283.552 183.68L284.387 184.131L293.044 125.091L292.21 124.64L283.552 183.68Z" fill="#3856D8"/>
<path opacity="0.5" fill-rule="evenodd" clip-rule="evenodd" d="M298.184 127.774C298.049 127.503 297.846 127.323 297.643 127.21C297.373 127.053 297.079 127.053 296.854 127.21C294.848 128.766 292.999 130.096 291.285 131.246C289.594 132.418 287.994 133.365 286.506 134.199C279.607 137.963 274.624 138.234 269.71 135.506C264.907 132.733 260.263 126.895 254.198 118.689C247.435 109.492 241.438 103.27 235.418 99.9337C234.539 99.4378 233.637 99.0094 232.735 98.6488C225.791 95.7858 218.757 96.7777 210.303 101.534C209.424 102.008 208.589 102.504 207.733 103C201.24 106.764 195.153 110.281 188.569 106.629C185.142 104.735 181.603 100.903 177.793 94.1628C177.657 93.8922 177.455 93.7119 177.252 93.5992C176.981 93.4414 176.688 93.4414 176.463 93.6217C176.079 93.9373 176.034 94.6812 176.372 95.2674C180.611 102.819 184.534 107.057 188.299 109.154C195.378 113.076 201.871 109.311 208.815 105.299C209.672 104.825 210.528 104.33 211.385 103.856C219.434 99.325 226.13 98.3557 232.623 101.016C233.434 101.354 234.223 101.737 235.035 102.188C240.716 105.344 246.443 111.318 252.981 120.2C259.271 128.698 264.096 134.762 269.304 137.783C269.394 137.851 269.507 137.896 269.597 137.941C274.782 140.804 280.193 140.556 287.52 136.588C289.031 135.754 290.677 134.762 292.413 133.567C294.149 132.373 296.02 131.02 298.026 129.465C298.5 129.104 298.545 128.383 298.184 127.774Z" fill="#3856D8"/>
<path fill-rule="evenodd" clip-rule="evenodd" d="M297.057 123.423C296.922 123.153 296.719 122.972 296.516 122.86C296.246 122.724 295.952 122.702 295.727 122.882C293.721 124.46 291.872 125.813 290.158 127.008C288.467 128.202 286.867 129.194 285.379 130.028C278.48 133.883 273.497 134.221 268.583 131.561C263.78 128.856 259.136 123.085 253.094 114.947C246.33 105.84 240.333 99.7083 234.314 96.4621C233.435 95.9887 232.533 95.5604 231.653 95.1998C224.71 92.4495 217.675 93.5316 209.221 98.4008C208.342 98.8742 207.507 99.3927 206.651 99.8886C200.158 103.743 194.071 107.35 187.487 103.789C184.06 101.94 180.521 98.1528 176.711 91.4802C176.575 91.2322 176.372 91.0293 176.17 90.9166C175.899 90.7588 175.606 90.7588 175.381 90.9392C174.997 91.2548 174.952 91.9987 175.29 92.5848C179.529 100.069 183.452 104.262 187.217 106.291C194.296 110.123 200.789 106.246 207.733 102.143C208.59 101.647 209.446 101.151 210.303 100.655C218.352 96.0113 225.048 94.9292 231.541 97.5216C232.352 97.8372 233.141 98.2205 233.953 98.6488C239.634 101.715 245.361 107.621 251.899 116.39C258.189 124.798 263.014 130.795 268.222 133.748C268.312 133.793 268.425 133.861 268.515 133.906C273.7 136.701 279.111 136.385 286.438 132.305C287.949 131.448 289.595 130.434 291.331 129.217C293.067 127.999 294.938 126.624 296.944 125.046C297.373 124.776 297.395 124.054 297.057 123.423Z" fill="#6BB6FF"/>
<path fill-rule="evenodd" clip-rule="evenodd" d="M295.727 122.882C292.436 125.475 289.031 127.954 285.379 130.028C278.48 133.883 273.498 134.221 268.583 131.561C263.781 128.856 259.136 123.085 253.094 114.947C247.728 107.756 240.266 98.6262 231.654 95.1997C222.41 91.5253 214.655 95.1546 206.651 99.8886C200.158 103.743 194.071 107.35 187.488 103.789C184.061 101.94 180.521 98.1528 176.711 91.4802C176.576 91.2322 176.373 91.0293 176.17 90.9166C177.252 93.6894 182.077 101.917 186.766 104.442C193.845 108.274 199.933 104.916 206.877 100.813C214.61 96.417 222.591 92.4495 231.541 95.9887C239.657 99.2349 247.458 108.703 252.508 115.488C258.798 123.897 263.307 129.645 268.538 132.576C272.889 135.01 276.541 134.875 280.374 133.455C284.387 131.944 293.676 126.083 295.727 122.882Z" fill="#00FFFF"/>
<path opacity="0.5" fill-rule="evenodd" clip-rule="evenodd" d="M234.178 137.738L171.954 103.27L163.229 162.738L226.04 197.543C230.436 199.978 234.652 197.656 235.418 192.336L240.717 151.759C241.506 146.462 238.575 140.172 234.178 137.738Z" fill="url(#paint3_linear_1046_1648)"/>
<path fill-rule="evenodd" clip-rule="evenodd" d="M233.028 150.317L226.986 191.344L227.707 191.434L229.691 190.668C231.856 189.811 233.005 187.557 233.321 185.37L238.146 148.333V148.31C238.597 145.109 237.627 141.773 235.869 139.113C234.922 137.67 233.682 136.363 232.149 135.529L152.925 91.5928C151.414 90.7362 149.656 90.4206 147.987 91.0518L146.251 91.728C145.372 92.0662 145.102 92.3141 145.102 92.3818C145.936 100.046 234.2 142.449 233.028 150.317Z" fill="#E5EDFF"/>
<path fill-rule="evenodd" clip-rule="evenodd" d="M230.165 136.295L150.941 92.3817C149.182 91.4124 147.446 91.2772 146.026 91.8407C144.177 92.5621 142.802 94.4331 142.396 97.1608L137.549 134.176C136.827 139.023 139.51 144.771 143.523 146.98L222.77 190.893C226.783 193.125 230.616 190.984 231.337 186.137L236.162 149.099C236.861 144.253 234.178 138.527 230.165 136.295Z" fill="#D1E7FF"/>
<path opacity="0.5" fill-rule="evenodd" clip-rule="evenodd" d="M231.654 151.737L186.518 126.917C186.09 126.692 185.684 126.647 185.346 126.782C184.895 126.962 184.579 127.391 184.489 128.044L184.196 129.87C184.016 131.02 184.669 132.395 185.616 132.936L230.752 157.756C231.721 158.297 232.623 157.778 232.804 156.628L233.097 154.803C233.254 153.63 232.601 152.278 231.654 151.737Z" fill="white"/>
<path opacity="0.5" fill-rule="evenodd" clip-rule="evenodd" d="M230.007 162.918L184.872 138.076C184.443 137.85 184.037 137.805 183.699 137.941C183.248 138.121 182.933 138.549 182.843 139.203L182.55 141.029C182.369 142.179 183.023 143.554 183.97 144.095L229.105 168.914C230.075 169.455 230.977 168.937 231.157 167.787L231.45 165.961C231.608 164.811 230.977 163.436 230.007 162.918Z" fill="white"/>
<path opacity="0.5" fill-rule="evenodd" clip-rule="evenodd" d="M201.195 158.815L183.249 149.257C182.82 149.032 182.414 148.987 182.076 149.122C181.625 149.302 181.31 149.73 181.22 150.384L180.926 152.21C180.746 153.36 181.4 154.735 182.347 155.276L200.293 164.834C201.262 165.375 202.164 164.857 202.344 163.707L202.637 161.881C202.795 160.709 202.164 159.334 201.195 158.815Z" fill="white"/>
<path fill-rule="evenodd" clip-rule="evenodd" d="M143.636 115.466C142.238 127.954 149.182 143.238 159.125 149.55C169.09 155.862 178.626 147.724 179.686 138.324C180.723 128.924 178.964 125.001 176.124 118.802C174.388 119.749 172.652 120.718 170.916 121.642C172.764 125.632 173.892 128.18 173.238 134.221C172.562 140.262 166.429 145.492 160.026 141.435C153.624 137.377 149.182 127.571 150.061 119.546C147.965 118.193 145.8 116.818 143.636 115.466Z" fill="#22D2FB"/>
<path fill-rule="evenodd" clip-rule="evenodd" d="M150.716 102.797C146.996 104.825 144.336 109.199 143.637 115.465C145.779 116.841 147.965 118.193 150.085 119.546C150.536 115.533 152.226 112.715 154.616 111.408C153.331 108.545 152.024 105.682 150.716 102.797Z" fill="#12A3EB"/>
<path fill-rule="evenodd" clip-rule="evenodd" d="M164.197 104.217C159.214 101.061 154.435 100.745 150.715 102.774C152 105.659 153.308 108.545 154.615 111.408C157.005 110.1 160.094 110.303 163.273 112.332C166.451 114.361 169.202 117.832 170.983 121.777C172.719 120.831 174.455 119.906 176.191 118.937C173.418 112.76 169.179 107.373 164.197 104.217Z" fill="#1C8DF3"/>
<path opacity="0.5" fill-rule="evenodd" clip-rule="evenodd" d="M261.052 206.763C251.921 199.482 246.465 184.379 248.855 172.994C251.244 161.61 260.578 158.297 269.709 165.578C278.84 172.859 284.296 187.985 281.906 199.347C279.516 210.708 270.16 214.045 261.052 206.763Z" fill="url(#paint4_linear_1046_1648)"/>
<path fill-rule="evenodd" clip-rule="evenodd" d="M250.884 164.834C252.553 163.098 256.701 162.106 259.046 161.994C261.774 161.858 264.817 162.963 267.816 165.443C275.729 171.958 280.464 185.506 278.39 195.695C277.781 198.716 276.654 201.15 275.121 202.818C273.678 204.374 269.011 206.335 266.869 206.493C253.951 208.296 245.992 169.929 250.884 164.834Z" fill="#D0E7FF"/>
<path fill-rule="evenodd" clip-rule="evenodd" d="M257.151 203.157C249.238 196.642 244.503 183.094 246.577 172.904C248.652 162.715 256.745 159.739 264.659 166.254C272.572 172.769 277.307 186.317 275.232 196.507C273.158 206.696 265.064 209.672 257.151 203.157Z" fill="url(#paint5_linear_1046_1648)"/>
<path fill-rule="evenodd" clip-rule="evenodd" d="M268.807 178.27L270.949 179.802L255.393 194.726L249.531 179.352L252.394 180.997L256.227 186.453L268.807 178.27Z" fill="white"/>
<path opacity="0.5" fill-rule="evenodd" clip-rule="evenodd" d="M288.106 237.286L194.137 185.28C192.424 184.334 190.755 184.198 189.357 184.739C187.554 185.438 186.224 187.242 185.84 189.902L179.325 236.092C178.626 240.803 181.219 246.371 185.119 248.535L271.58 296.393C272.527 296.033 277.103 295.221 277.351 293.869L288.106 237.286Z" fill="url(#paint6_linear_1046_1648)"/>
<path fill-rule="evenodd" clip-rule="evenodd" d="M294.282 250.992L286.955 298.76L287.631 298.85L289.458 298.129C289.548 298.084 289.638 298.061 289.728 298.016H289.751C291.757 297.227 292.817 295.131 293.11 293.102L299.332 249.031V249.008C299.761 246.055 298.859 242.967 297.236 240.487C296.356 239.157 295.207 237.94 293.786 237.151L198.893 184.627C197.496 183.838 195.85 183.544 194.339 184.108L192.716 184.739C192.536 184.807 192.4 184.874 192.288 184.92C191.589 185.19 191.363 185.415 191.363 185.461C192.107 192.562 295.342 243.711 294.282 250.992Z" fill="#D0E7FF"/>
<path fill-rule="evenodd" clip-rule="evenodd" d="M291.622 237.985L196.729 185.461C195.105 184.559 193.505 184.424 192.175 184.942C190.461 185.618 189.176 187.332 188.815 189.856L182.593 233.927C181.939 238.413 184.419 243.734 188.139 245.785L283.032 298.309C286.752 300.361 290.314 298.4 290.968 293.914L297.19 249.843C297.822 245.379 295.342 240.059 291.622 237.985Z" fill="url(#paint7_linear_1046_1648)"/>
<path fill-rule="evenodd" clip-rule="evenodd" d="M188.048 218.734C189.108 212.512 191.543 210.415 194.631 211.272C195.105 211.407 195.601 211.61 196.097 211.903C199.14 213.639 202.229 218.148 202.702 225.677C202.995 230.433 203.92 234.807 207.91 237.083C218.416 242.697 214.629 209.446 224.571 215.104C233.138 219.996 228.021 237.67 231.335 248.851C232.485 252.728 234.581 254.554 236.024 255.388C242.066 258.612 242.743 248.422 243.532 244.139C247.184 224.324 249.484 223.22 253.181 225.339C257.036 227.57 258.75 229.103 258.028 249.798C257.735 258.251 258.028 265.848 263.98 269.41C270.631 273.197 271.217 265.42 274.171 261.632C275.929 259.378 278.206 258.927 280.281 260.1C282.535 261.384 284.542 264.586 285.421 269.545C286.886 277.841 286.21 289.337 285.782 293.327L185.658 236.655C186.537 230.591 187.124 224.099 188.048 218.734Z" fill="#D0E7FF"/>
<path opacity="0.5" fill-rule="evenodd" clip-rule="evenodd" d="M177.048 183.544L161.47 174.978L154.729 221.01L170.488 229.667C174.884 232.101 179.055 229.78 179.844 224.482L183.586 197.521C184.375 192.246 181.445 185.979 177.048 183.544Z" fill="url(#paint8_linear_1046_1648)"/>
<path fill-rule="evenodd" clip-rule="evenodd" d="M176.011 195.965L171.367 224.64L172.088 224.73L174.072 223.963C176.237 223.107 177.386 220.853 177.702 218.666L181.152 193.982V193.959C181.602 190.758 180.633 187.422 178.874 184.762C177.928 183.319 176.688 182.012 175.155 181.177L144.786 164.518C143.276 163.662 141.517 163.346 139.849 163.977L138.113 164.654C137.233 164.992 136.963 165.24 136.963 165.307C137.797 172.927 177.184 188.098 176.011 195.965Z" fill="#D0E7FF"/>
<path fill-rule="evenodd" clip-rule="evenodd" d="M173.148 181.921L142.779 165.262C141.021 164.293 139.285 164.158 137.864 164.699C136.016 165.42 134.64 167.291 134.235 170.019L130.785 194.703C130.086 199.55 132.747 205.298 136.76 207.507L167.128 224.166C171.141 226.398 174.974 224.257 175.695 219.41L179.145 194.726C179.844 189.901 177.183 184.153 173.148 181.921Z" fill="white"/>
<path fill-rule="evenodd" clip-rule="evenodd" d="M167.849 190.916C167.533 193.012 165.888 193.959 164.152 193.012C162.371 192.021 161.243 189.541 161.559 187.444C161.875 185.348 163.498 184.446 165.279 185.416C166.992 186.362 168.142 188.819 167.849 190.916ZM158.312 209.581C158.628 207.485 160.251 206.561 162.032 207.552C163.768 208.522 164.918 210.979 164.603 213.075C164.287 215.172 162.641 216.119 160.905 215.172C159.124 214.18 157.997 211.678 158.312 209.581ZM147.446 191.615C147.13 193.711 145.462 194.59 143.726 193.644C141.99 192.697 140.84 190.217 141.155 188.143C141.471 186.047 143.117 185.1 144.853 186.047C146.566 186.994 147.739 189.518 147.446 191.615ZM165.662 182.733C162.709 181.087 159.868 182.62 159.349 186.205V186.475L149.046 188.098C148.325 186.092 146.95 184.356 145.259 183.409C142.305 181.764 139.51 183.342 138.969 186.903C138.45 190.443 140.389 194.658 143.365 196.304C145.078 197.25 146.702 197.138 147.874 196.168L156.193 208.161L156.126 208.364C155.607 211.948 157.591 216.141 160.567 217.787C163.498 219.41 166.316 217.877 166.834 214.293C167.353 210.753 165.369 206.493 162.438 204.87C160.341 203.698 158.312 204.148 157.117 205.749L149.249 194.275C149.452 193.869 149.565 193.351 149.655 192.81C149.745 192.246 149.79 191.682 149.723 191.119L159.53 189.451C160.116 192.043 161.694 194.478 163.813 195.65C166.744 197.273 169.562 195.718 170.104 192.156C170.577 188.549 168.57 184.356 165.662 182.733Z" fill="url(#paint9_linear_1046_1648)"/>
<path opacity="0.5" fill-rule="evenodd" clip-rule="evenodd" d="M314.011 75.5424L279.81 57.7787L276.248 59.492L271.243 95.921C270.499 100.993 273.295 106.989 277.488 109.311L300.574 121.958L304.497 120.447L314.011 75.5424Z" fill="url(#paint10_linear_1046_1648)"/>
<path fill-rule="evenodd" clip-rule="evenodd" d="M334.799 70.8084L325.939 129.532L326.705 129.622L328.78 128.811C331.034 127.909 332.229 125.565 332.567 123.265L340.165 68.6894V68.6669C340.638 65.3306 339.624 61.8364 337.798 59.0411C336.806 57.5308 335.498 56.1557 333.897 55.2991L293.519 33.1847C291.941 32.2829 290.092 31.9674 288.378 32.5985L286.552 33.3199C285.628 33.6581 285.357 33.9511 285.357 33.9962C286.214 42.0214 336.017 62.5804 334.799 70.8084Z" fill="#D0E7FF"/>
<path fill-rule="evenodd" clip-rule="evenodd" d="M331.823 56.1557L291.444 34.0413C289.596 33.0268 287.792 32.869 286.304 33.4552C284.365 34.1991 282.922 36.1603 282.516 39.0007L274.919 93.5766C274.175 98.6487 276.97 104.645 281.164 106.967L321.542 129.081C325.736 131.403 329.749 129.172 330.493 124.122L338.09 69.546C338.812 64.4739 336.016 58.4776 331.823 56.1557Z" fill="white"/>
<path fill-rule="evenodd" clip-rule="evenodd" d="M331.823 56.1557L291.445 34.0413C289.596 33.0268 287.792 32.869 286.304 33.4552C284.365 34.1991 282.923 36.1603 282.517 39.0007L276.475 82.4405L332.071 112.896L338.113 69.546C338.812 64.4739 336.017 58.4776 331.823 56.1557Z" fill="url(#paint11_linear_1046_1648)"/>
<path opacity="0.25" fill-rule="evenodd" clip-rule="evenodd" d="M280.848 89.7443C280.983 88.7299 281.75 88.279 282.561 88.7524L300.846 98.6712C301.657 99.1446 302.198 100.339 302.063 101.354L301.792 103.36C301.657 104.375 300.891 104.825 300.079 104.352L281.795 94.4332C280.983 93.9598 280.442 92.765 280.577 91.7506L280.848 89.7443Z" fill="#6D6AFD"/>
<path opacity="0.25" fill-rule="evenodd" clip-rule="evenodd" d="M279.675 98.536C279.788 97.6343 280.465 97.251 281.186 97.6568C291.557 103.27 308.533 112.445 318.904 118.08C319.603 118.486 320.099 119.546 319.964 120.447L319.738 122.206C319.626 123.108 318.949 123.491 318.228 123.085C307.857 117.472 290.88 108.297 280.51 102.661C279.811 102.256 279.315 101.196 279.45 100.294L279.675 98.536Z" fill="#6D6AFD"/>
<path fill-rule="evenodd" clip-rule="evenodd" d="M325.532 67.7427L320.797 102.954L329.838 108.049L334.572 72.8373L325.532 67.7427ZM299.83 41.7509L293.495 88.8877L302.536 93.9824L308.871 46.8456L299.83 41.7509ZM312.298 57.4632L321.338 62.5578L316.085 101.624L307.045 96.5297L312.298 57.4632ZM284.68 46.0566L293.72 51.1512L288.986 86.3629L279.945 81.2683L284.68 46.0566Z" fill="#4A9EF8"/>
<path opacity="0.5" fill-rule="evenodd" clip-rule="evenodd" d="M282.742 59.8527C282.494 59.6047 282.584 59.199 282.9 58.951C283.238 58.703 283.712 58.6805 283.937 58.9284L292.053 67.0664L296.292 68.6894L306.189 66.0519L312.885 59.1764C313.178 58.8834 313.652 58.7932 313.945 58.9961C314.012 59.0412 314.057 59.0862 314.08 59.1313L325.849 73.0853L333.942 74.5956C334.348 74.5505 334.664 74.7985 334.619 75.1592C334.596 75.5199 334.235 75.8355 333.807 75.858L325.353 74.3927C325.105 74.4153 324.879 74.3477 324.744 74.1899L313.246 60.5741L307.023 66.9311C306.911 67.0438 306.753 67.134 306.572 67.1791L296.134 69.9744C295.976 70.0195 295.796 70.0195 295.638 69.9518L291.106 68.216C291.016 68.1935 290.926 68.1484 290.858 68.0808L282.742 59.8527Z" fill="#4164F3"/>
<path fill-rule="evenodd" clip-rule="evenodd" d="M282.719 60.033C282.494 59.74 282.561 59.2666 282.9 58.9735C283.238 58.6805 283.711 58.6579 283.937 58.951L291.85 68.5992L296.043 70.5605L305.986 67.5623L312.84 59.5822C313.133 59.244 313.606 59.1539 313.899 59.3793C313.967 59.4244 314.012 59.492 314.035 59.5371L324.834 75.61L334.077 74.6407C334.483 74.5956 334.799 74.8887 334.754 75.317C334.709 75.7227 334.348 76.106 333.942 76.1285L324.338 77.1429C324.09 77.1655 323.864 77.0978 323.752 76.895L313.223 61.2052L306.865 68.5992C306.752 68.7345 306.595 68.8472 306.414 68.8923L295.931 72.0483C295.773 72.0934 295.593 72.0934 295.435 72.0257L290.948 69.9293C290.858 69.9067 290.768 69.8391 290.7 69.7489L282.719 60.033Z" fill="white"/>
<path opacity="0.5" fill-rule="evenodd" clip-rule="evenodd" d="M180.566 40.4208L197.655 48.2657C201.736 50.6327 202.953 58.2521 202.277 63.3468L198.805 88.9327C198.128 94.0274 194.273 96.2591 190.193 93.8921L174.727 84.4918L175.335 80.2538L180.566 40.4208Z" fill="url(#paint12_linear_1046_1648)"/>
<path fill-rule="evenodd" clip-rule="evenodd" d="M137.571 21.5752C137.796 19.8619 137.323 18.8249 138.18 17.8556C138.721 17.247 140.434 16.4354 141.156 16.1649C142.531 15.6464 144.199 15.8042 145.89 16.7961L194.746 45.3577C198.691 47.6345 201.352 53.4731 200.72 58.3874L197.361 83.0717C197.158 84.6046 196.594 86.5658 195.287 87.6929C194.362 88.4819 192.807 89.316 191.725 89.4513C190.597 89.5865 190.304 88.5721 189.064 87.8507L140.186 59.2891C136.241 57.0123 133.581 51.1737 134.212 46.2594L137.571 21.5752Z" fill="#D0E7FF"/>
<path fill-rule="evenodd" clip-rule="evenodd" d="M136.241 22.3642C136.895 17.4499 140.592 15.3083 144.538 17.5851L193.416 46.1468C197.361 48.4236 200.021 54.2621 199.39 59.1764L196.031 83.8607C195.377 88.775 191.657 90.9166 187.734 88.6398L138.856 60.0781C134.911 57.8013 132.25 51.9628 132.882 47.0485L136.241 22.3642Z" fill="white"/>
<path fill-rule="evenodd" clip-rule="evenodd" d="M136.24 22.3642C136.894 17.4499 140.592 15.3083 144.537 17.5851L193.415 46.1467C197.361 48.4236 200.021 54.2621 199.39 59.1764L199.074 61.4983C198.646 61.1827 198.217 60.8897 197.766 60.6192L135.947 24.5057L136.24 22.3642Z" fill="url(#paint13_linear_1046_1648)"/>
<path opacity="0.2" fill-rule="evenodd" clip-rule="evenodd" d="M144.876 37.4678C149.859 38.6175 153.669 44.5237 153.421 50.7004C153.15 56.8771 148.912 60.9573 143.929 59.8076C138.947 58.6805 135.136 52.7517 135.384 46.575C135.655 40.4209 139.894 36.3407 144.876 37.4678Z" fill="#6D6AFD"/>
<path fill-rule="evenodd" clip-rule="evenodd" d="M144.651 42.6301C147.334 43.2387 149.386 46.4398 149.251 49.7761C149.115 53.1124 146.816 55.2991 144.133 54.6904C141.45 54.0817 139.398 50.8807 139.534 47.5444C139.669 44.2081 141.969 42.0214 144.651 42.6301ZM144.539 45.4479C143.118 45.1323 141.901 46.282 141.833 48.0629C141.766 49.8212 142.848 51.5344 144.268 51.85C145.689 52.1656 146.906 51.0159 146.974 49.2351C147.041 47.4767 145.959 45.786 144.539 45.4479Z" fill="url(#paint14_linear_1046_1648)"/>
<path opacity="0.2" fill-rule="evenodd" clip-rule="evenodd" d="M156.396 49.3478C156.576 48.0403 157.568 47.4768 158.605 48.108L190.507 66.2098C191.544 66.841 192.265 68.419 192.085 69.7264L191.747 72.3188C191.566 73.6263 190.574 74.1899 189.537 73.5587L157.636 55.4569C156.576 54.8257 155.877 53.2477 156.058 51.9402L156.396 49.3478Z" fill="#6D6AFD"/>
<path opacity="0.2" fill-rule="evenodd" clip-rule="evenodd" d="M155.156 58.9059C155.269 58.1395 155.833 57.8013 156.464 58.162L175.312 68.8472C175.92 69.2079 176.349 70.1547 176.259 70.9212L176.056 72.4541C175.943 73.2205 175.379 73.5587 174.748 73.198L155.9 62.5127C155.292 62.1521 154.863 61.2053 154.953 60.4388L155.156 58.9059Z" fill="#6D6AFD"/>
<path fill-rule="evenodd" clip-rule="evenodd" d="M141.584 20.2C142.666 20.448 143.5 21.7329 143.455 23.0855C143.387 24.4381 142.463 25.3172 141.381 25.0693C140.299 24.8213 139.464 23.5364 139.51 22.1838C139.555 20.8312 140.479 19.9521 141.584 20.2Z" fill="white"/>
<path fill-rule="evenodd" clip-rule="evenodd" d="M146.521 23.0404C147.603 23.2883 148.438 24.5733 148.392 25.9258C148.325 27.2784 147.4 28.1576 146.318 27.9096C145.236 27.6616 144.402 26.3767 144.447 25.0241C144.492 23.6716 145.439 22.7924 146.521 23.0404Z" fill="white"/>
<path fill-rule="evenodd" clip-rule="evenodd" d="M151.865 26.1513C152.947 26.3993 153.781 27.6842 153.736 29.0368C153.669 30.3893 152.744 31.2685 151.662 31.0205C150.58 30.7726 149.746 29.4876 149.791 28.1351C149.858 26.7825 150.783 25.9034 151.865 26.1513Z" fill="white"/>
<path opacity="0.1" fill-rule="evenodd" clip-rule="evenodd" d="M65.336 262.399L100.71 242.268C104.565 240.51 110.088 239.112 114.011 241.141C117.596 243.012 123.48 246.822 126.095 248.31C128.079 249.437 134.956 253.562 130.672 255.884C118.069 262.737 105.624 270.424 92.8187 277.39C90.4063 278.697 86.8667 279.171 83.1468 278.878C79.4494 278.562 75.6618 277.503 72.6632 275.767C70.544 274.527 68.4473 273.31 66.3957 272.115C63.6226 270.492 62.1572 268.598 61.9993 266.817C61.8641 265.082 62.9688 263.481 65.336 262.399Z" fill="#BB6CE9"/>
<path fill-rule="evenodd" clip-rule="evenodd" d="M149.564 134.559C149.271 134.514 149.001 134.447 148.73 134.356C149.046 134.311 149.294 134.266 149.452 134.244C150.714 133.522 151.391 133.184 152.834 132.08C151.819 130.028 149.294 132.147 148.798 132.192C148.595 132.215 147.287 131.967 146.002 131.922C144.176 131.832 143.026 132.215 141.786 133.613C141.2 134.018 140.546 134.514 139.893 135.033C140.05 136.746 140.276 138.189 141.313 139.699C141.651 139.541 141.989 139.451 142.305 139.429C143.59 139.293 144.83 139.586 147.693 140.533C150.579 141.502 151.098 141.457 155.562 138.256C158.831 135.912 160.612 134.582 160.048 132.846C158.763 128.811 153.6 133.996 149.564 134.559Z" fill="#FFA698"/>
<path fill-rule="evenodd" clip-rule="evenodd" d="M149.204 138.797C146.431 138.346 144.47 136.047 142.193 137.4C141.629 137.738 141.088 138.076 140.592 138.414C140.772 138.842 141.02 139.293 141.313 139.722C141.651 139.564 141.99 139.474 142.305 139.451C143.59 139.316 144.83 139.609 147.694 140.556C150.579 141.525 151.098 141.48 155.562 138.279C157.771 136.701 159.282 135.574 159.891 134.492C160.184 133.951 159.327 133.365 158.628 133.86C155.043 136.43 153.24 138.234 149.204 138.797Z" fill="url(#paint15_linear_1046_1648)"/>
<path fill-rule="evenodd" clip-rule="evenodd" d="M159.123 132.869C157.906 133.793 151.48 136.746 149.992 136.453C149.586 136.363 149.654 135.596 149.609 134.627C149.293 135.258 149.677 136.701 149.068 136.385C145.618 134.627 144.13 134.311 142.146 135.574C143.522 135.258 144.807 135.438 146.069 135.867C147.264 136.273 148.369 136.971 149.654 137.332C152.991 136.34 154.997 136.002 159.123 132.869Z" fill="url(#paint16_linear_1046_1648)"/>
<path fill-rule="evenodd" clip-rule="evenodd" d="M113.154 150.677C112.455 150.001 111.801 149.28 111.35 148.851C107.856 145.605 102.107 135.1 98.8828 119.433C100.055 118.486 103.505 117.585 104.136 117.449C106.864 116.908 109.163 118.351 109.953 119.275C111.395 120.989 112.883 124.099 113.785 129.104C114.394 132.463 116.896 136.949 118.587 141.119C118.655 141.3 118.745 141.48 118.813 141.66C121.654 140.15 124.697 138.91 126.253 138.279C129.635 136.926 133.467 135.664 137.638 134.447C138.134 134.311 138.585 134.627 139.081 134.492C139.352 134.379 140.569 133.951 140.794 133.838C140.772 136.318 141.471 138.279 142.823 139.879C142.575 139.97 141.223 140.578 140.952 140.691C140.546 140.894 140.073 141.502 139.757 141.841C136.624 145.064 127.605 149.911 119.286 152.458C116.468 153.315 114.349 152.841 113.154 150.677Z" fill="url(#paint17_linear_1046_1648)"/>
<path opacity="0.35" fill-rule="evenodd" clip-rule="evenodd" d="M113.154 150.677C112.455 150.001 111.801 149.28 111.35 148.851C107.856 145.605 102.107 135.1 98.8828 119.433C105.849 113.775 112.5 123.13 113.65 129.397C115.138 137.535 116.581 144.456 116.648 152.864C115.115 152.774 113.943 152.097 113.154 150.677Z" fill="#3469C0"/>
<path fill-rule="evenodd" clip-rule="evenodd" d="M81.0268 252.165C80.8239 252.863 80.9366 253.449 80.5984 254.351C80.2602 255.275 79.8544 256.29 79.4711 257.868C78.885 260.325 79.6966 263.616 78.9075 267.088C78.5017 268.485 78.5242 269.59 79.4486 270.807C80.3504 272.002 82.0638 273.941 84.2733 273.873C84.7918 273.851 85.8064 273.648 86.618 272.746C87.4522 271.777 88.1511 270.379 88.0158 268.621C87.9707 267.967 87.5874 265.825 87.6551 263.887C87.7227 262.173 88.0158 261.249 87.9932 259.378C87.9482 257.394 87.7903 254.689 87.7678 253.404L81.0268 252.165Z" fill="#193161"/>
<path fill-rule="evenodd" clip-rule="evenodd" d="M100.642 242.043C99.988 243.801 99.5822 244.545 99.5371 246.98C99.9429 248.265 100.845 248.783 101.859 249.685L102.581 249.843C104.339 250.789 104.993 254.148 106.639 255.681C107.789 256.763 110.088 257.349 112.388 257.778C114.823 258.251 117.145 257.552 116.514 255.636C114.936 250.857 108.104 245.469 107.946 240.149L100.642 242.043Z" fill="#193161"/>
<path fill-rule="evenodd" clip-rule="evenodd" d="M110.899 208.026C110.718 217.178 108.734 234.288 109.027 243.305C106.683 245.65 102.016 244.928 100.483 242.516C99.5358 234.221 98.4311 222.453 98.3183 217.9C98.2282 214.112 98.5663 210.641 99.5358 207.237C98.1831 197.228 92.3889 183.59 93.7642 174.167C94.3729 170.041 97.0784 165.578 97.8674 162.174C104.676 170.56 109.884 166.547 112.702 165.826C112.68 168.734 112.905 168.351 112.815 171.394C112.499 181.696 112.026 192.719 111.462 203.405C111.485 204.983 111.349 206.741 110.899 208.026Z" fill="url(#paint18_linear_1046_1648)"/>
<path opacity="0.3" fill-rule="evenodd" clip-rule="evenodd" d="M98.928 226.579C98.6123 222.972 98.3869 219.838 98.3418 217.9C98.2516 214.112 98.5898 210.641 99.5592 207.237C98.2065 197.228 92.4124 183.59 93.7876 174.167C94.3964 170.041 97.1018 165.578 97.8909 162.174C104.7 170.56 109.907 166.547 112.726 165.826C112.726 166.142 112.726 166.435 112.726 166.683L103.798 173.288L106.007 172.792C105.917 184.672 104.452 195.515 104.226 207.214C101.926 213.864 100.574 219.545 98.973 226.376L98.928 226.579Z" fill="#1E2353"/>
<path fill-rule="evenodd" clip-rule="evenodd" d="M95.703 214.676C94.0572 223.828 89.2776 246.01 88.1278 255.027C85.1744 256.673 81.4093 255.816 80.3722 253.404C80.3271 245.109 80.3722 230.208 80.9809 225.654C81.4995 221.867 82.8297 216.029 84.3402 212.625C83.7315 191.254 81.3417 185.573 84.2275 176.151C85.49 172.025 88.8042 168.035 90.1569 164.609C91.983 167.426 94.8012 171.394 100.866 170.921C101.452 170.876 106.502 167.269 108.171 166.863C106.051 179.577 99.9866 196.168 97.0332 210.032C96.7852 211.633 96.3568 213.391 95.703 214.676Z" fill="url(#paint19_linear_1046_1648)"/>
<path fill-rule="evenodd" clip-rule="evenodd" d="M105.151 117.246C105.827 117.337 106.413 117.54 107.044 117.878C111.554 120.38 113.109 127.729 113.831 134.153C114.462 139.744 113.988 144.365 113.808 149.483C113.673 153.563 114.191 157.327 114.011 161.182C113.966 162.332 113.515 163.572 113.402 164.789C113.402 165.668 113.087 166.525 113.109 167.201C110.855 175.79 89.5719 176.489 86.4607 170.695C86.6861 169.839 86.9341 168.982 87.0018 168.103C84.9952 166.277 86.145 161.836 85.8294 158.725C85.5814 156.403 85.2658 154.014 84.5669 152.3C81.6811 145.177 77.6229 139.676 76.8338 134.199C76.2702 130.434 81.0949 125.745 87.4527 121.935C93.5624 118.283 101.859 116.277 105.151 117.246Z" fill="url(#paint20_linear_1046_1648)"/>
<path fill-rule="evenodd" clip-rule="evenodd" d="M113.831 134.356C111.577 136.656 97.6436 149.956 82.2227 146.529L82.3805 145.47C98.6356 149.077 113.313 133.274 113.358 133.229L113.763 133.612C113.786 133.793 113.809 133.973 113.831 134.131C113.831 134.221 113.831 134.289 113.831 134.356Z" fill="#70B4F5"/>
<path fill-rule="evenodd" clip-rule="evenodd" d="M114.079 142.607C110.269 146.191 98.4101 156.088 85.1535 154.171C85.0633 153.788 84.9506 153.405 84.8379 153.044C98.9738 155.344 111.622 143.509 114.124 141.029C114.124 141.57 114.102 142.089 114.079 142.607Z" fill="#70B4F5"/>
<path fill-rule="evenodd" clip-rule="evenodd" d="M84.5 152.097L87.2505 146.394L90.9254 152.593L94.0817 145.042L98.433 150.858L100.687 142.765L105.287 147.724L107.383 138.504L110.81 143.667L113.674 132.846C113.741 133.274 113.786 133.725 113.831 134.153C113.854 134.311 113.854 134.469 113.876 134.604L111.058 145.199L107.676 140.082L105.647 149.032L101.003 144.027L98.7035 152.278L94.2395 146.327L91.0381 154.014L87.3182 147.747L84.8156 152.954C84.748 152.729 84.6578 152.503 84.5676 152.3C84.5451 152.233 84.5225 152.165 84.5 152.097Z" fill="#70B4F5"/>
<path fill-rule="evenodd" clip-rule="evenodd" d="M87.4981 151.106C87.7912 151.128 88.0392 151.399 88.0392 151.714C88.0392 152.03 87.7912 152.255 87.4981 152.233C87.205 152.21 86.957 151.94 86.957 151.624C86.957 151.309 87.1825 151.083 87.4981 151.106Z" fill="#70B4F5"/>
<path fill-rule="evenodd" clip-rule="evenodd" d="M90.7671 147.792C91.0602 147.814 91.3082 148.085 91.3082 148.401C91.3082 148.716 91.0602 148.942 90.7671 148.919C90.474 148.896 90.226 148.626 90.226 148.31C90.2035 147.995 90.4515 147.769 90.7671 147.792Z" fill="#70B4F5"/>
<path fill-rule="evenodd" clip-rule="evenodd" d="M94.5782 150.249C94.8713 150.272 95.1193 150.542 95.1193 150.858C95.1193 151.173 94.8713 151.399 94.5782 151.376C94.2851 151.354 94.0371 151.083 94.0371 150.767C94.0371 150.452 94.2851 150.226 94.5782 150.249Z" fill="#70B4F5"/>
<path fill-rule="evenodd" clip-rule="evenodd" d="M97.8028 145.966C98.0959 145.988 98.3439 146.259 98.3439 146.575C98.3439 146.89 98.0959 147.116 97.8028 147.093C97.5097 147.07 97.2617 146.8 97.2617 146.484C97.2617 146.191 97.5097 145.943 97.8028 145.966Z" fill="#70B4F5"/>
<path fill-rule="evenodd" clip-rule="evenodd" d="M101.859 147.566C102.153 147.589 102.401 147.859 102.401 148.175C102.401 148.491 102.153 148.716 101.859 148.694C101.566 148.671 101.318 148.401 101.318 148.085C101.318 147.792 101.544 147.544 101.859 147.566Z" fill="#70B4F5"/>
<path fill-rule="evenodd" clip-rule="evenodd" d="M104.274 142.855C104.567 142.877 104.815 143.148 104.815 143.464C104.815 143.779 104.567 144.005 104.274 143.982C103.98 143.96 103.732 143.689 103.732 143.373C103.732 143.058 103.958 142.832 104.274 142.855Z" fill="#70B4F5"/>
<path fill-rule="evenodd" clip-rule="evenodd" d="M108.354 143.847C108.647 143.869 108.895 144.14 108.895 144.456C108.895 144.771 108.647 144.997 108.354 144.974C108.061 144.951 107.812 144.681 107.812 144.365C107.812 144.05 108.038 143.824 108.354 143.847Z" fill="#70B4F5"/>
<path fill-rule="evenodd" clip-rule="evenodd" d="M110.518 138.707C110.811 138.73 111.059 139 111.059 139.316C111.059 139.631 110.811 139.857 110.518 139.834C110.225 139.812 109.977 139.541 109.977 139.226C109.977 138.933 110.225 138.685 110.518 138.707Z" fill="#70B4F5"/>
<path fill-rule="evenodd" clip-rule="evenodd" d="M113.99 139.248C114.035 139.248 114.08 139.271 114.126 139.271C114.126 139.631 114.126 139.992 114.126 140.353C114.08 140.353 114.035 140.375 113.99 140.353C113.697 140.33 113.449 140.06 113.449 139.744C113.449 139.474 113.697 139.226 113.99 139.248Z" fill="#70B4F5"/>
<path fill-rule="evenodd" clip-rule="evenodd" d="M83.8692 147.905C84.1623 147.927 84.4103 148.198 84.4103 148.513C84.4103 148.829 84.1623 149.054 83.8692 149.032C83.5761 149.009 83.3281 148.739 83.3281 148.423C83.3281 148.107 83.5761 147.882 83.8692 147.905Z" fill="#70B4F5"/>
<path opacity="0.35" fill-rule="evenodd" clip-rule="evenodd" d="M87.2043 137.152C88.0159 141.548 86.9788 149.009 84.8145 152.932C83.7549 150.249 82.8531 148.22 81.4102 145.695C81.5229 145.38 86.1897 131.719 87.2043 137.152Z" fill="#3469C0"/>
<path fill-rule="evenodd" clip-rule="evenodd" d="M85.7624 170.335C86.7544 170.853 88.5129 171.304 89.2343 171.665C89.6176 171.845 92.2779 173.288 93.7885 174.167C95.4117 175.114 95.9303 176.579 96.9674 178.179C97.7114 179.487 98.0721 180.456 98.2073 181.132C98.3426 181.831 96.6517 183.297 95.8852 183.184C94.1267 182.913 92.2329 180.907 91.7594 180.704C87.7689 178.946 85.8976 178.878 84.4097 177.368C83.7784 176.737 83.2824 174.753 81.9297 173.04L84.1617 170.74L85.7624 170.335Z" fill="url(#paint21_linear_1046_1648)"/>
<path fill-rule="evenodd" clip-rule="evenodd" d="M76.4954 131.584C72.9558 137.287 70.3857 147.657 67.2293 154.69C66.9814 155.231 66.8461 155.727 66.8235 156.178C66.2374 157.914 67.1617 159.379 68.3566 160.934C71.31 164.721 73.6773 168.148 79.7645 172.679C80.2154 173.017 80.7114 173.017 81.3652 173.152C81.7485 173.423 82.2896 173.941 82.6954 174.234C82.1768 173.648 84.8372 170.312 86.1673 170.447C85.8066 170.064 85.4459 169.636 85.0626 169.162C84.9725 168.576 84.9499 168.193 84.6794 167.697C83.6197 165.646 80.035 160.619 76.6082 157.012C78.0285 155.163 79.2234 153.022 80.2154 151.511C81.9739 148.829 83.5296 146.056 84.9274 143.373C85.491 142.291 85.7841 141.773 86.3252 140.668C90.248 132.463 80.8241 124.686 76.4954 131.584Z" fill="url(#paint22_linear_1046_1648)"/>
<path fill-rule="evenodd" clip-rule="evenodd" d="M102.061 121.417C102.129 121.079 102.219 120.741 102.287 120.357C102.489 119.298 102.219 117.269 102.512 114.857L93.4037 111.002C93.2459 116.119 92.4117 117.179 91.4648 121.349C91.5776 125.452 101.745 127.278 101.971 122.476C101.971 122.116 101.993 121.755 102.061 121.417Z" fill="#FFA698"/>
<path fill-rule="evenodd" clip-rule="evenodd" d="M102.061 121.417C102.129 121.079 102.219 120.741 102.286 120.357C102.489 119.298 102.219 117.269 102.512 114.857L93.4037 111.002C93.3586 112.174 93.2909 113.121 93.2007 113.955C92.8851 117.337 96.1316 123.243 101.971 122.476C101.971 122.116 101.993 121.755 102.061 121.417Z" fill="url(#paint23_linear_1046_1648)"/>
<path fill-rule="evenodd" clip-rule="evenodd" d="M102.58 121.169C101.453 120.425 98.4095 118.576 97.395 117.833C95.2081 116.232 95.4786 114.181 94.8248 110.957C92.7732 109.492 92.0968 108.32 91.8939 107.012C91.4656 103.901 93.2466 100.542 95.6139 98.6938C97.6881 97.0933 100.1 96.6424 102.783 97.2285C108.014 98.3782 110.178 102.323 110.449 106.854C110.471 107.237 110.426 107.598 110.291 107.981C109.998 108.883 109.93 109.018 109.817 109.672C109.547 111.025 110.449 111.498 110.088 113.166C109.592 115.443 107.721 119.861 106.954 120.605C106.391 121.191 103.753 121.372 102.58 121.169Z" fill="#FFA698"/>
<path fill-rule="evenodd" clip-rule="evenodd" d="M110.223 104.916C110.358 105.547 110.426 106.223 110.471 106.877C110.494 107.26 110.449 107.621 110.313 108.004C110.02 108.906 109.953 109.041 109.84 109.695C109.569 111.047 110.471 111.521 110.11 113.189C109.862 114.293 109.299 115.894 108.69 117.359C105.331 119.929 102.377 116.796 101.927 116.209C99.8073 113.482 99.6494 109.424 101.25 105.614C103.685 106.426 107.676 106.268 110.223 104.916Z" fill="url(#paint24_linear_1046_1648)"/>
<path fill-rule="evenodd" clip-rule="evenodd" d="M90.4727 105.569C90.6079 107.305 91.9607 111.746 92.9977 113.392C94.0574 115.105 93.6065 113.008 94.1476 111.836C94.5759 110.935 95.9737 110.844 96.4021 109.898C96.605 110.687 96.8755 111.453 97.3941 111.724C97.7097 111.904 98.3635 112.152 98.3861 111.205C98.4762 108.004 99.9868 107.779 99.5133 105.84C99.1526 104.397 99.2428 103.788 99.6035 103.247C100.641 103.383 101.317 104.465 102.557 105.006C103.414 105.366 107.179 105.772 109.862 104.307C112.454 102.887 112.68 99.7533 110.515 97.7245C109.298 96.5974 107.945 96.3043 106.051 95.0419C102.422 92.6298 97.9126 93.4865 95.4552 96.169C90.6756 97.1609 90.157 101.692 90.4727 105.569Z" fill="#562E65"/>
<path fill-rule="evenodd" clip-rule="evenodd" d="M95.522 108.274C93.538 107.373 93.3126 109.74 93.4704 111.205C93.5831 112.197 94.4173 112.219 94.6202 113.008C94.8907 113.955 95.5445 114.474 96.1758 114.519C97.4158 114.609 96.8296 112.693 96.762 111.949C97.0325 110.732 96.7845 108.838 95.522 108.274Z" fill="#FFA698"/>
<path fill-rule="evenodd" clip-rule="evenodd" d="M100.933 101.737C100.753 103.067 102.466 104.645 104.901 104.78C107.155 104.893 110.199 104.375 111.326 101.647C111.732 100.678 111.236 98.9868 110.154 98.2655C109.41 97.7921 108.44 97.8372 107.449 98.288C105.78 99.0094 104.405 100.88 103.21 101.331C102.06 101.76 100.955 101.579 100.933 101.737Z" fill="url(#paint25_linear_1046_1648)"/>
<path fill-rule="evenodd" clip-rule="evenodd" d="M319.488 133.973C316.512 133.522 314.167 135.551 312.995 138.279C311.597 141.457 311.665 145.605 312.274 147.769C314.212 154.803 310.808 157.868 309.546 161.16C308.982 162.602 308.757 164.496 308.824 166.592C308.914 169.117 310.357 170.402 311.575 172.679C311.89 174.978 312.454 177.12 313.356 178.923C316.692 185.596 327.943 188.82 338.719 188.346C347.354 187.94 355.696 184.897 359.461 181.38C363.609 177.526 364.15 167.742 357.184 166.75C355.56 166.525 353.667 166.164 352.291 164.496C351.344 163.346 352.269 160.303 352.494 156.245C352.72 152.323 351.818 148.198 346.114 146.822C343.927 146.304 341.808 146.079 339.982 144.884C335.991 142.269 337.457 137.422 333.15 134.559C330.535 132.823 326.342 132.463 321.765 133.725C320.999 133.793 320.255 133.883 319.488 133.973Z" fill="url(#paint26_linear_1046_1648)"/>
<path fill-rule="evenodd" clip-rule="evenodd" d="M316.917 137.67C316.669 139.586 317.368 141.254 318.518 142.855C321.178 146.597 322.576 146.304 324.019 151.083C326.409 149.483 328.054 149.257 328.731 150.813C329.835 153.337 329.137 154.825 329.407 157.418C329.835 161.656 334.886 155.84 338.854 159.086C342.754 162.264 340.071 164.519 341.582 169.027C342.145 170.718 342.574 172.927 344.152 173.693C349.067 176.015 350.938 181.854 342.213 184.762C336.802 186.565 328.956 186.114 322.396 183.883C313.738 180.93 308.395 168.148 310.604 162.084C311.529 159.582 313.986 157.688 314.009 155.727C314.009 148.964 312.701 144.636 316.917 137.67Z" fill="#22043D"/>
<path fill-rule="evenodd" clip-rule="evenodd" d="M277.622 143.644C276.291 144.072 276.99 145.605 277.509 146.034C278.275 146.8 279.808 147.273 279.673 148.085C279.515 148.987 284.498 150.7 284.475 150.632C283.754 148.22 282.469 146.8 282.198 146.62C279.515 144.816 279.831 145.966 277.622 143.644Z" fill="url(#paint27_linear_1046_1648)"/>
<path fill-rule="evenodd" clip-rule="evenodd" d="M281.093 153.878C283.934 157.688 286.189 165.037 289.052 168.441C289.954 169.523 291.306 171.304 292.862 171.033C300.978 169.613 293.583 166.48 294.463 164.271C293.087 159.492 287.293 156.831 284.903 151.556C284.768 151.173 284.633 150.813 284.475 150.497C283.483 148.491 282.559 147.882 278.726 147.161C277.621 146.958 277.238 146.575 276.562 146.034L274.059 143.554C273.225 142.878 272.526 142.652 272.188 142.832C271.805 143.035 270.768 145.019 270.745 146.079C270.61 146.484 271.038 147.206 272.03 147.972L275.141 152.323L275.412 152.368C278.861 152.819 280.237 153.157 281.093 153.878Z" fill="#FFA698"/>
<path fill-rule="evenodd" clip-rule="evenodd" d="M294.102 172.656C299.716 172.093 307.765 171.214 312.093 168.982C314.911 167.517 320.007 161.272 317.143 157.801C316.535 156.178 311.124 159.582 308.463 160.596C303.639 162.422 300.46 163.279 295.477 164.564C294.125 160.754 290.54 157.756 287.699 154.217C287.226 153.63 286.73 153.225 286.121 152.932C285.76 152.526 285.49 152.052 285.219 151.579C284.746 151.376 281.702 152.639 280.891 154.149C281.116 154.442 281.59 155.096 281.792 155.434C282.086 155.907 282.018 156.471 282.266 157.012C283.078 158.815 286.955 166.705 289.548 169.794C290.54 170.966 291.96 173.04 293.674 172.747C293.832 172.702 293.967 172.679 294.102 172.656Z" fill="url(#paint28_linear_1046_1648)"/>
<path opacity="0.5" fill-rule="evenodd" clip-rule="evenodd" d="M294.101 172.656C299.715 172.093 307.764 171.214 312.092 168.982C314.527 167.72 318.675 162.895 317.886 159.356C316.827 158.364 316.196 157.846 315.316 157.868C314.189 157.914 312.836 159.131 310.266 160.461C306.366 162.49 302.668 162.58 299.647 166.164C297.415 168.802 293.695 171.078 290.539 170.988C291.396 171.98 292.478 172.95 293.673 172.747C293.831 172.702 293.966 172.679 294.101 172.656Z" fill="#7E41DF"/>
<path opacity="0.1" fill-rule="evenodd" clip-rule="evenodd" d="M299.311 305.478L334.684 285.347C338.539 283.589 344.063 282.191 347.986 284.22C351.571 286.091 357.455 289.901 360.07 291.389C362.054 292.516 368.93 296.641 364.647 298.963C352.044 305.816 339.576 313.503 326.793 320.469C324.381 321.776 320.841 322.25 317.121 321.957C313.424 321.641 309.636 320.582 306.638 318.846C304.519 317.606 302.422 316.389 300.37 315.194C297.597 313.571 296.132 311.677 295.974 309.896C295.839 308.161 296.943 306.56 299.311 305.478Z" fill="#BB6CE9"/>
<path fill-rule="evenodd" clip-rule="evenodd" d="M337.162 276.691C336.981 277.525 337.5 278.742 337.59 278.878C339.642 281.853 337.207 281.605 337.297 285.843C337.297 286.227 335.561 292.944 335.561 292.944C335.561 292.944 331.48 293.936 331.165 293.891C330.849 293.846 328.369 292.877 328.369 292.877C328.572 292.516 328.865 291.637 329.023 291.299C330.195 288.999 330.827 286.227 331.277 283.431C331.571 281.583 332.134 278.72 331.751 276.781L337.162 276.691Z" fill="#FFA698"/>
<path fill-rule="evenodd" clip-rule="evenodd" d="M328.28 292.832C327.716 293.936 327.423 294.68 327.13 295.537C326.995 295.965 327.017 296.393 327.175 296.641C328.099 297.994 333.104 295.762 334.795 294.365C335.9 293.463 335.945 292.358 336.238 291.006C336.689 288.977 336.757 288.751 337.32 286.677L337.681 292.358L338.132 292.651C338.312 290.352 338.651 287.309 339.079 285.347C339.237 284.558 339.53 283.679 339.575 283.251C339.868 280.681 338.628 279.374 337.501 278.63C337.884 280.208 336.486 282.71 335.855 285.888C335.088 289.721 331.684 292.854 328.28 292.832Z" fill="#161F69"/>
<path fill-rule="evenodd" clip-rule="evenodd" d="M310.222 198.355C310.605 200.091 308.824 206.132 309.275 208.454C309.703 216.096 311.056 222.543 316.196 237.827C316.196 238.008 320.886 247.34 321.201 248.31C324.403 258.274 328.393 269.094 331.798 279.148C333.06 280.117 336.87 279.824 337.344 277.457C336.284 267.403 337.434 257.485 335.72 250.609C334.413 245.379 332.677 242.99 329.859 239.09C329.002 229.216 328.371 209.401 326.116 201.804L310.222 198.355Z" fill="url(#paint29_linear_1046_1648)"/>
<path opacity="0.3" fill-rule="evenodd" clip-rule="evenodd" d="M310.223 198.355C310.606 200.091 311.756 203.337 312.229 205.659C313.672 209.176 316.693 213.977 318.722 218.035C319.331 222.927 319.173 229.441 322.217 238.526L324.99 259.513C327.267 266.096 329.657 272.769 331.821 279.148C333.084 280.117 336.894 279.824 337.367 277.457C336.308 267.403 337.457 257.485 335.744 250.609C334.436 245.379 332.7 242.99 329.882 239.09C329.025 229.216 328.394 209.401 326.14 201.804L310.223 198.355Z" fill="#1E2353"/>
<path fill-rule="evenodd" clip-rule="evenodd" d="M333.152 286.88C333.062 287.805 333.49 288.751 333.603 289.676C333.761 291.073 333.964 292.674 333.896 294.612C333.829 297.07 333.603 299.978 332.791 303.494C332.498 304.734 331.957 305.253 331.597 306.943L324.314 308.138C325.036 305.388 326.028 299.797 326.772 295.131L328.17 286.384L333.152 286.88Z" fill="#FFA698"/>
<path fill-rule="evenodd" clip-rule="evenodd" d="M333.513 289.18C333.941 290.645 334.414 291.411 334.482 293.418C334.55 295.424 333.625 298.535 333.693 300.992L333.806 304.914C333.873 307.191 333.287 308.792 330.694 310.663C328.35 312.376 326.05 313.075 324.81 312.466C323.886 312.015 323.164 310.392 324.562 306.132C325.734 302.57 326.028 299.098 326.726 295.244C326.478 299.031 326.388 300.293 325.486 304.013C325.238 305.05 325.081 306.785 326.321 306.966C331.416 307.687 331.664 306.335 332.092 304.757C333.219 300.586 334.031 293.102 333.513 289.18Z" fill="#161F69"/>
<path fill-rule="evenodd" clip-rule="evenodd" d="M335.383 204.374C341.042 211.452 341.177 215.375 339.96 223.896C339.148 229.577 337.48 236.497 337.052 246.484C337.547 251.646 338.472 257.417 337.75 265.442C337.232 271.348 335.586 281.448 334.324 288.594C333.151 290.803 327.583 289.833 326.681 288.706C326.951 278.449 326.771 271.439 326.297 263.165C325.824 255.118 324.855 247.656 324.268 239.698C323.772 233.138 321.766 224.189 321.518 217.088C320.458 213.752 310.448 202.661 312.522 202.796L335.383 204.374Z" fill="url(#paint30_linear_1046_1648)"/>
<path fill-rule="evenodd" clip-rule="evenodd" d="M334.706 188.436C332.158 194.32 336.487 197.566 334.931 201.624L335.405 204.374C330.76 207.71 314.19 207.958 310.019 201.353L309.929 198.062C309.207 196.484 309.681 192.494 309.884 191.457C310.56 188.121 310.244 186.34 310.605 182.485C310.695 181.516 310.876 180.885 310.966 179.893C307.268 177.142 307.516 171.8 309.703 168.599C311.078 166.592 311.89 165.127 312.566 163.527C312.769 162.309 312.995 161.295 313.198 160.619C313.333 160.055 313.649 159.514 313.964 159.041C315.024 157.53 316.715 157.35 320.209 158.161C327.108 159.739 334.21 163.324 337.389 166.705C339.688 169.162 339.598 171.89 338.291 177.774C337.456 181.538 335.991 185.461 334.706 188.436Z" fill="url(#paint31_linear_1046_1648)"/>
<path opacity="0.5" fill-rule="evenodd" clip-rule="evenodd" d="M334.751 188.414C332.203 194.297 336.419 197.656 334.864 201.691L335.337 204.397C330.693 208.003 314.122 207.823 309.951 201.241L310.041 198.378C310.041 198.265 318.18 205.591 327.446 201.511C329.453 200.632 331.279 196.214 328.686 187.805C328.438 186.994 325.485 186.948 321.291 183.86C324.38 185.168 330.197 186.971 330.49 179.104C330.625 175.587 331.144 172.949 332.925 170.515C333.804 169.32 338.899 175.542 338.133 178.518C337.163 182.327 335.72 186.182 334.751 188.414Z" fill="#7E41DF"/>
<path fill-rule="evenodd" clip-rule="evenodd" d="M336.961 201.421C336.126 201.939 334.571 202.435 333.962 202.796C333.646 202.976 331.347 204.419 330.062 205.276C328.686 206.2 328.303 207.53 327.469 209.018C326.883 210.235 326.635 211.114 326.545 211.7C326.454 212.332 328.055 213.526 328.732 213.391C330.265 213.053 331.843 211.159 332.249 210.956C335.698 209.176 337.344 208.995 338.584 207.575C339.125 206.966 339.441 205.186 340.545 203.608L338.426 201.691L336.961 201.421Z" fill="url(#paint32_linear_1046_1648)"/>
<path fill-rule="evenodd" clip-rule="evenodd" d="M337.367 166.254C342.485 169.478 348.121 178.36 353.194 186.25C354.186 187.535 353.938 189.225 353.397 190.172C353.194 190.691 352.856 191.277 352.405 191.953C349.992 195.492 347.648 198.648 342.507 202.999C342.124 203.337 341.583 203.472 341.019 203.63C340.704 203.901 340.253 204.374 339.892 204.667C340.32 204.126 337.773 201.353 336.6 201.556C336.894 201.196 337.209 200.79 337.502 200.361C337.547 199.843 337.502 199.505 337.705 199.054C339.374 195.244 341.515 191.412 344.176 188.504C339.576 183.522 336.916 182.305 332.633 177.075C327.425 170.718 333.985 164.113 337.367 166.254Z" fill="url(#paint33_linear_1046_1648)"/>
<path fill-rule="evenodd" clip-rule="evenodd" d="M326.725 153.247C326.184 156.29 326.477 159.153 327.424 162.106C324.944 164.406 320.525 163.436 319.488 161.34C319.714 159.987 319.962 158.748 320.097 157.373L326.725 153.247Z" fill="#FFA698"/>
<path fill-rule="evenodd" clip-rule="evenodd" d="M326.724 153.247C326.476 154.712 326.408 156.133 326.498 157.53C325.777 160.483 320.253 162.467 319.689 160.123C319.847 159.221 320.005 158.319 320.095 157.373L326.724 153.247Z" fill="url(#paint34_linear_1046_1648)"/>
<path fill-rule="evenodd" clip-rule="evenodd" d="M316.444 140.398C315.204 142.359 314.55 144.343 314.82 147.138C314.888 147.859 314.798 148.288 314.595 148.761C313.445 151.376 313.535 152.188 314.122 154.284C314.685 156.313 314.64 157.395 315.339 158.094C316.06 158.815 317.12 158.973 318.022 159.041C319.871 159.153 323.072 157.936 324.921 156.922C326.296 156.178 326.251 155.659 326.815 154.352C328.753 152.661 327.491 151.444 326.837 151.308C324.966 150.948 324.673 153.089 323.568 153.563C323.771 149.776 316.579 143.419 316.444 140.398Z" fill="#FFA698"/>
<path fill-rule="evenodd" clip-rule="evenodd" d="M315.61 141.908C314.911 143.419 314.595 145.042 314.82 147.138C314.888 147.859 314.798 148.288 314.595 148.761C313.445 151.376 313.535 152.188 314.122 154.284C314.37 155.208 314.505 155.907 314.64 156.493C315.091 157.147 315.97 157.485 316.804 157.125C317.571 156.786 318.337 155.862 318.54 154.329C318.676 153.247 320.908 152.526 321.359 151.421C321.742 150.497 320.705 149.483 320.096 148.964C317.887 147.116 316.534 144.613 315.61 141.908Z" fill="url(#paint35_linear_1046_1648)"/>
<path fill-rule="evenodd" clip-rule="evenodd" d="M316.444 140.398C317.481 145.019 323.523 148.536 323.591 153.563C321.922 148.333 316.06 144.749 316.444 140.398Z" fill="#FF8F7F"/>
</g>
<defs>
<linearGradient id="paint0_linear_1046_1648" x1="239.179" y1="-6.67189" x2="254.535" y2="36.4799" gradientUnits="userSpaceOnUse">
<stop stop-color="#FD90DA"/>
<stop offset="1" stop-color="#8E6DFD"/>
</linearGradient>
<linearGradient id="paint1_linear_1046_1648" x1="248.641" y1="96.108" x2="205.137" y2="259.603" gradientUnits="userSpaceOnUse">
<stop stop-color="#C4E0F5"/>
<stop offset="1" stop-color="#E1E8F6"/>
</linearGradient>
<linearGradient id="paint2_linear_1046_1648" x1="277.782" y1="181.072" x2="127.322" y2="97.4382" gradientUnits="userSpaceOnUse">
<stop stop-color="#6D6AFE"/>
<stop offset="1" stop-color="#3FB0F7"/>
</linearGradient>
<linearGradient id="paint3_linear_1046_1648" x1="195.178" y1="165.939" x2="216.719" y2="121.433" gradientUnits="userSpaceOnUse">
<stop stop-color="#965CF2"/>
<stop offset="1" stop-color="#FF8ADC"/>
</linearGradient>
<linearGradient id="paint4_linear_1046_1648" x1="260.295" y1="193.749" x2="276.066" y2="170.198" gradientUnits="userSpaceOnUse">
<stop stop-color="#965CF2"/>
<stop offset="1" stop-color="#FF8ADC"/>
</linearGradient>
<linearGradient id="paint5_linear_1046_1648" x1="267.023" y1="171.386" x2="257.172" y2="192.849" gradientUnits="userSpaceOnUse">
<stop stop-color="#FD90DA"/>
<stop offset="1" stop-color="#8E6DFD"/>
</linearGradient>
<linearGradient id="paint6_linear_1046_1648" x1="224.559" y1="253.505" x2="248.389" y2="212.255" gradientUnits="userSpaceOnUse">
<stop stop-color="#965CF2"/>
<stop offset="1" stop-color="#FF8ADC"/>
</linearGradient>
<linearGradient id="paint7_linear_1046_1648" x1="245.17" y1="260.688" x2="225.335" y2="190.249" gradientUnits="userSpaceOnUse">
<stop stop-color="#1C8EF4"/>
<stop offset="0.9951" stop-color="#00CFDD"/>
</linearGradient>
<linearGradient id="paint8_linear_1046_1648" x1="161.458" y1="168.34" x2="170.303" y2="213.232" gradientUnits="userSpaceOnUse">
<stop stop-color="#FD70CB"/>
<stop offset="1" stop-color="#6E4DFD"/>
</linearGradient>
<linearGradient id="paint9_linear_1046_1648" x1="151.67" y1="204.705" x2="156.892" y2="186.851" gradientUnits="userSpaceOnUse">
<stop stop-color="#6D6AFE"/>
<stop offset="1" stop-color="#3FB0F7"/>
</linearGradient>
<linearGradient id="paint10_linear_1046_1648" x1="285.926" y1="102.776" x2="299.228" y2="64.4509" gradientUnits="userSpaceOnUse">
<stop stop-color="#965CF2"/>
<stop offset="1" stop-color="#FF8ADC"/>
</linearGradient>
<linearGradient id="paint11_linear_1046_1648" x1="312.488" y1="55.766" x2="301.767" y2="96.9139" gradientUnits="userSpaceOnUse">
<stop stop-color="#6D6AFE"/>
<stop offset="1" stop-color="#3FB0F7"/>
</linearGradient>
<linearGradient id="paint12_linear_1046_1648" x1="189.815" y1="83.2923" x2="185.077" y2="39.1494" gradientUnits="userSpaceOnUse">
<stop stop-color="#965CF2"/>
<stop offset="1" stop-color="#FF8ADC"/>
</linearGradient>
<linearGradient id="paint13_linear_1046_1648" x1="167.326" y1="44.5565" x2="169.469" y2="27.3076" gradientUnits="userSpaceOnUse">
<stop stop-color="#6D6AFE"/>
<stop offset="1" stop-color="#3FB0F7"/>
</linearGradient>
<linearGradient id="paint14_linear_1046_1648" x1="143.331" y1="53.2462" x2="145.748" y2="42.8086" gradientUnits="userSpaceOnUse">
<stop stop-color="#6D6AFE"/>
<stop offset="1" stop-color="#3FB0F7"/>
</linearGradient>
<linearGradient id="paint15_linear_1046_1648" x1="150.105" y1="134.434" x2="150.712" y2="140.854" gradientUnits="userSpaceOnUse">
<stop stop-color="#FF8A78"/>
<stop offset="1" stop-color="#FFA799"/>
</linearGradient>
<linearGradient id="paint16_linear_1046_1648" x1="150.609" y1="133.986" x2="151.109" y2="139.283" gradientUnits="userSpaceOnUse">
<stop stop-color="#FF8A78"/>
<stop offset="1" stop-color="#FFA799"/>
</linearGradient>
<linearGradient id="paint17_linear_1046_1648" x1="117.475" y1="122.01" x2="125.931" y2="144.764" gradientUnits="userSpaceOnUse">
<stop stop-color="#6D6AFE"/>
<stop offset="1" stop-color="#3FB0F7"/>
</linearGradient>
<linearGradient id="paint18_linear_1046_1648" x1="109.871" y1="181.078" x2="96.0229" y2="225.821" gradientUnits="userSpaceOnUse">
<stop stop-color="#235DA3"/>
<stop offset="1" stop-color="#123A76"/>
</linearGradient>
<linearGradient id="paint19_linear_1046_1648" x1="101.854" y1="183.798" x2="76.172" y2="235.548" gradientUnits="userSpaceOnUse">
<stop stop-color="#235DA3"/>
<stop offset="1" stop-color="#123A76"/>
</linearGradient>
<linearGradient id="paint20_linear_1046_1648" x1="94.2135" y1="127.945" x2="102.247" y2="169.122" gradientUnits="userSpaceOnUse">
<stop stop-color="#6D6AFE"/>
<stop offset="1" stop-color="#3FB0F7"/>
</linearGradient>
<linearGradient id="paint21_linear_1046_1648" x1="89.0118" y1="179.087" x2="90.8167" y2="175.944" gradientUnits="userSpaceOnUse">
<stop stop-color="#FF8A78"/>
<stop offset="1" stop-color="#FFA799"/>
</linearGradient>
<linearGradient id="paint22_linear_1046_1648" x1="75.512" y1="136.327" x2="80.2665" y2="171.114" gradientUnits="userSpaceOnUse">
<stop stop-color="#6D6AFE"/>
<stop offset="1" stop-color="#3FB0F7"/>
</linearGradient>
<linearGradient id="paint23_linear_1046_1648" x1="98.3723" y1="115.945" x2="96.0072" y2="118.598" gradientUnits="userSpaceOnUse">
<stop stop-color="#FF8A78"/>
<stop offset="1" stop-color="#FFA799"/>
</linearGradient>
<linearGradient id="paint24_linear_1046_1648" x1="106.338" y1="108.145" x2="103.404" y2="115.386" gradientUnits="userSpaceOnUse">
<stop stop-color="#FFB89E"/>
<stop offset="1" stop-color="#FFA799"/>
</linearGradient>
<linearGradient id="paint25_linear_1046_1648" x1="107.795" y1="102.655" x2="105.632" y2="100.581" gradientUnits="userSpaceOnUse">
<stop stop-color="#8A4791"/>
<stop offset="1" stop-color="#562E65"/>
</linearGradient>
<linearGradient id="paint26_linear_1046_1648" x1="337.992" y1="156.91" x2="327.333" y2="177.406" gradientUnits="userSpaceOnUse">
<stop stop-color="#5A2D68"/>
<stop offset="1" stop-color="#22043D"/>
</linearGradient>
<linearGradient id="paint27_linear_1046_1648" x1="280.189" y1="147.727" x2="280.913" y2="147.176" gradientUnits="userSpaceOnUse">
<stop stop-color="#FF8A78"/>
<stop offset="1" stop-color="#FFA799"/>
</linearGradient>
<linearGradient id="paint28_linear_1046_1648" x1="284.523" y1="163.741" x2="310.354" y2="157.893" gradientUnits="userSpaceOnUse">
<stop stop-color="#965CF2"/>
<stop offset="1" stop-color="#FF8ADC"/>
</linearGradient>
<linearGradient id="paint29_linear_1046_1648" x1="315.199" y1="213.582" x2="339.27" y2="260.54" gradientUnits="userSpaceOnUse">
<stop stop-color="#3E4795"/>
<stop offset="1" stop-color="#273088"/>
</linearGradient>
<linearGradient id="paint30_linear_1046_1648" x1="310.016" y1="222.909" x2="346.968" y2="264.449" gradientUnits="userSpaceOnUse">
<stop stop-color="#3E4795"/>
<stop offset="1" stop-color="#273088"/>
</linearGradient>
<linearGradient id="paint31_linear_1046_1648" x1="320.11" y1="198.537" x2="325.357" y2="167.437" gradientUnits="userSpaceOnUse">
<stop stop-color="#965CF2"/>
<stop offset="1" stop-color="#FF8ADC"/>
</linearGradient>
<linearGradient id="paint32_linear_1046_1648" x1="334.301" y1="209.203" x2="333.124" y2="207.072" gradientUnits="userSpaceOnUse">
<stop stop-color="#FF8A78"/>
<stop offset="1" stop-color="#FFA799"/>
</linearGradient>
<linearGradient id="paint33_linear_1046_1648" x1="345.238" y1="194.707" x2="339.014" y2="168.447" gradientUnits="userSpaceOnUse">
<stop stop-color="#965CF2"/>
<stop offset="1" stop-color="#FF8ADC"/>
</linearGradient>
<linearGradient id="paint34_linear_1046_1648" x1="323.347" y1="157.456" x2="323.851" y2="159.977" gradientUnits="userSpaceOnUse">
<stop stop-color="#FF8A78"/>
<stop offset="1" stop-color="#FFA799"/>
</linearGradient>
<linearGradient id="paint35_linear_1046_1648" x1="314.374" y1="147.625" x2="318.26" y2="153.918" gradientUnits="userSpaceOnUse">
<stop stop-color="#FFB89E"/>
<stop offset="1" stop-color="#FFA799"/>
</linearGradient>
<clipPath id="clip0_1046_1648">
<rect width="304" height="322" fill="white" transform="translate(62 0.046875)"/>
</clipPath>
</defs>
</svg>
