<svg width="417" height="352" viewBox="0 0 417 352" fill="none" xmlns="http://www.w3.org/2000/svg">
<rect x="70.2656" y="0.09375" width="289.439" height="289.439" rx="80" transform="rotate(14.0498 70.2656 0.09375)" fill="#8596FF"/>
<g clip-path="url(#clip0_1046_1572)">
<path d="M338.08 320.272C333.16 321.622 318.73 313.352 315.2 313.272C311.55 315.272 311.2 324.762 310.45 327.802C309.7 330.842 341.8 325.752 339.53 329.492C337.26 333.232 316.37 329.862 314.45 330.492C313.45 330.812 313.34 332.742 314.02 334.762H351.02C353.158 332.916 355.056 330.81 356.67 328.492C355.454 330.501 354.388 332.596 353.48 334.762H361.27C361.635 333.821 362.251 332.998 363.05 332.382C363.52 332.082 364.33 333.142 365.49 334.762H400.21C402.46 332.512 403.8 330.622 403.7 329.982C403.42 328.142 385.16 330.352 381.84 327.812C378.52 325.272 378.64 323.182 382.84 321.662C387.04 320.142 402.17 327.162 406.89 323.662C411.61 320.162 415.63 311.822 415.16 309.232C414.69 306.642 404.85 313.972 395.64 315.412C386.43 316.852 380.11 315.042 381.56 311.832C383.01 308.622 404.09 309.532 410.31 305.632C416.53 301.732 417.39 290.222 416.31 288.562C415.23 286.902 392.28 302.202 387.14 301.332C382 300.462 384.96 296.932 390.82 296.142C396.68 295.352 411.58 289.142 412.92 284.882C414.26 280.622 412.14 271.212 410.3 271.502C408.46 271.792 404.58 279.422 400.47 283.442C396.36 287.462 391.19 289.842 390.25 284.652C389.31 279.462 405.17 275.302 407.55 272.652C409.93 270.002 407.04 259.402 405.66 257.652C404.28 255.902 383.04 251.052 379.31 253.392C375.14 259.182 374.39 276.392 376.21 279.302C378.03 282.212 376.98 288.352 372.54 284.492C368.33 279.622 373.77 257.442 373.66 256.352C373.55 255.262 369.36 255.012 365.13 257.952C360.9 260.892 362.13 277.142 364.19 282.222C366.25 287.302 368.31 299.852 359.95 292.972C351.59 286.092 356.53 264.502 353.73 262.792C350.93 261.082 344.92 267.162 342.62 269.472C340.32 271.782 340.69 277.902 343.39 283.142C346.09 288.382 358.67 300.142 352.58 301.922C346.49 303.702 338.3 275.922 336.01 275.062C333.72 274.202 328.27 277.902 326.01 284.492C323.86 290.742 346.73 305.562 343.63 309.822C334.43 311.262 327.24 291.512 323.53 290.672C319.82 289.832 316.43 296.852 314.68 301.422C312.93 305.992 315.23 308.292 321.68 312.612C328.13 316.932 341.63 317.202 338.08 320.272ZM365.17 307.362C364.48 311.952 359.91 307.992 359.91 307.992C360.33 302.972 365.85 302.772 365.17 307.362ZM352.47 311.762C357.59 308.552 358 316.312 354.73 321.042C354.354 321.673 353.849 322.219 353.249 322.643C352.648 323.067 351.966 323.361 351.245 323.505C350.524 323.649 349.781 323.64 349.064 323.48C348.347 323.319 347.671 323.01 347.08 322.572C343.74 319.622 347.36 314.972 352.47 311.762Z" fill="#A1C2FF"/>
<path d="M108.771 286.202C112.891 283.782 121.431 285.512 115.861 291.552C108.861 297.222 78.1506 288.692 76.6306 288.792C75.1106 288.892 74.5706 294.792 78.5006 300.792C82.4306 306.792 105.161 305.792 112.341 303.132C119.521 300.472 137.121 298.132 127.161 309.502C117.201 320.872 87.2706 313.062 84.7706 316.912C82.2706 320.762 90.5006 329.392 93.6306 332.702C95.0451 333.995 96.8581 334.768 98.7706 334.892H103.431C106.662 334.518 109.808 333.608 112.741 332.202C120.161 328.642 137.091 311.592 139.351 320.202C140.641 325.112 128.401 330.562 117.431 334.922H143.511C146.311 332.922 148.611 331.922 150.001 332.972C150.076 333.62 150.076 334.274 150.001 334.922H191.651C188.474 327.25 183.255 320.596 176.561 315.682C200.611 331.092 211.671 320.832 215.111 315.022C218.691 308.962 215.681 293.692 212.191 291.782C208.701 289.872 208.191 301.232 199.601 307.472C191.011 313.712 183.601 309.302 182.261 306.942C180.921 304.582 202.751 297.312 201.261 281.942C199.771 266.572 183.201 249.762 180.621 250.092C178.041 250.422 180.351 275.982 176.671 280.512C172.991 285.042 170.061 284.782 168.131 278.782C166.201 272.782 176.611 252.042 171.881 245.312C167.151 238.582 155.721 232.602 152.081 233.152C148.441 233.702 158.261 247.742 159.881 260.652C161.501 273.562 158.731 282.312 154.301 280.202C149.871 278.092 152.051 248.662 146.871 239.812C141.691 230.962 125.651 229.202 123.291 230.612C120.931 232.022 141.291 264.782 139.971 271.922C138.651 279.062 133.731 274.782 132.881 266.572C132.031 258.362 124.001 237.302 118.091 235.202C112.181 233.102 98.9806 235.712 99.3106 238.292C99.6406 240.872 110.121 246.602 115.561 252.522C121.001 258.442 124.101 265.732 116.821 266.832C109.541 267.932 104.391 245.612 100.821 242.172C97.2506 238.732 82.3006 242.332 79.8206 244.172C77.3406 246.012 69.6506 275.472 72.7606 280.772C80.6306 286.882 104.641 288.662 108.771 286.202ZM166.111 317.952C172.571 322.722 167.931 328.702 167.931 328.702C163.661 333.242 157.321 327.992 153.061 320.702C148.801 313.412 159.651 313.202 166.111 317.992V317.952ZM147.461 302.852C153.841 304.002 148.111 310.212 148.111 310.212C141.121 309.412 141.081 301.692 147.461 302.852Z" fill="url(#paint0_linear_1046_1572)"/>
<path d="M322.001 4.20215H193.401C187.612 4.20744 182.061 6.50876 177.967 10.6012C173.872 14.6937 171.568 20.2432 171.561 26.0321V313.122C171.568 318.684 173.696 324.035 177.51 328.083C181.324 332.132 186.539 334.574 192.091 334.912H264.551H322.001C327.789 334.907 333.338 332.605 337.431 328.512C341.524 324.42 343.825 318.87 343.831 313.082V26.0321C343.825 20.2441 341.524 14.6946 337.431 10.6019C333.338 6.50908 327.789 4.20744 322.001 4.20215V4.20215Z" fill="white"/>
<path d="M322 9.05212H301.06L297.26 15.7921C296.275 17.5287 294.848 18.973 293.123 19.9778C291.397 20.9826 289.437 21.5121 287.44 21.5121H227.93C225.935 21.5113 223.976 20.9815 222.253 19.9766C220.53 18.9718 219.104 17.5279 218.12 15.7921L214.31 9.05212H193.4C188.892 9.05212 184.568 10.8432 181.38 14.0313C178.191 17.2194 176.4 21.5434 176.4 26.0521V313.122C176.4 317.631 178.191 321.955 181.38 325.143C184.568 328.331 188.892 330.122 193.4 330.122H322C326.509 330.122 330.833 328.331 334.021 325.143C337.209 321.955 339 317.631 339 313.122V26.0321C338.995 21.5269 337.202 17.208 334.014 14.0242C330.827 10.8404 326.506 9.05212 322 9.05212Z" fill="url(#paint1_linear_1046_1572)"/>
<path d="M277.94 15.1221H237.94C237.511 15.1221 237.099 14.9515 236.795 14.6477C236.491 14.3438 236.32 13.9318 236.32 13.5021C236.32 13.0725 236.491 12.6604 236.795 12.3566C237.099 12.0528 237.511 11.8821 237.94 11.8821H277.94C278.368 11.8848 278.778 12.0566 279.079 12.3601C279.381 12.6637 279.55 13.0742 279.55 13.5021C279.55 13.9301 279.381 14.3406 279.079 14.6441C278.778 14.9477 278.368 15.1195 277.94 15.1221Z" fill="#E7E8FA"/>
<path d="M220.321 188.782H158.861C155.735 188.782 153.201 191.316 153.201 194.442V200.102C153.201 203.228 155.735 205.762 158.861 205.762H220.321C223.447 205.762 225.981 203.228 225.981 200.102V194.442C225.981 191.316 223.447 188.782 220.321 188.782Z" fill="white"/>
<path d="M219.611 213.652H159.571C156.053 213.652 153.201 216.504 153.201 220.022V267.322C153.201 270.84 156.053 273.692 159.571 273.692H219.611C223.129 273.692 225.981 270.84 225.981 267.322V220.022C225.981 216.504 223.129 213.652 219.611 213.652Z" fill="white"/>
<path d="M200.351 199.402H162.14C161.922 199.402 161.705 199.359 161.503 199.275C161.301 199.191 161.117 199.068 160.963 198.912C160.809 198.757 160.687 198.573 160.604 198.37C160.521 198.168 160.479 197.951 160.48 197.732C160.479 197.513 160.521 197.296 160.604 197.094C160.687 196.891 160.809 196.707 160.963 196.552C161.117 196.397 161.301 196.273 161.503 196.189C161.705 196.105 161.922 196.062 162.14 196.062H200.351C200.793 196.062 201.218 196.238 201.531 196.551C201.845 196.864 202.021 197.289 202.021 197.732C202.021 198.175 201.845 198.6 201.531 198.913C201.218 199.226 200.793 199.402 200.351 199.402Z" fill="#A1C2FF"/>
<path d="M200.351 229.722H162.14C161.922 229.722 161.705 229.679 161.503 229.595C161.301 229.511 161.117 229.388 160.963 229.232C160.809 229.077 160.687 228.893 160.604 228.69C160.521 228.488 160.479 228.271 160.48 228.052C160.48 227.612 160.655 227.19 160.967 226.878C161.278 226.567 161.7 226.392 162.14 226.392H200.351C200.569 226.391 200.786 226.433 200.989 226.516C201.191 226.598 201.376 226.721 201.531 226.875C201.686 227.029 201.809 227.213 201.893 227.415C201.977 227.617 202.021 227.833 202.021 228.052C202.021 228.495 201.845 228.92 201.531 229.233C201.218 229.546 200.793 229.722 200.351 229.722Z" fill="#A1C2FF"/>
<path d="M200.351 246.402H162.14C161.922 246.402 161.705 246.359 161.503 246.275C161.301 246.191 161.117 246.068 160.963 245.912C160.809 245.757 160.687 245.573 160.604 245.37C160.521 245.168 160.479 244.951 160.48 244.732C160.479 244.513 160.521 244.296 160.604 244.094C160.687 243.891 160.809 243.707 160.963 243.552C161.117 243.397 161.301 243.273 161.503 243.189C161.705 243.105 161.922 243.062 162.14 243.062H200.351C200.793 243.062 201.218 243.238 201.531 243.551C201.845 243.864 202.021 244.289 202.021 244.732C202.021 245.175 201.845 245.6 201.531 245.913C201.218 246.226 200.793 246.402 200.351 246.402Z" fill="#A1C2FF"/>
<path d="M200.351 263.082H162.14C161.922 263.082 161.705 263.039 161.503 262.955C161.301 262.871 161.117 262.748 160.963 262.592C160.809 262.437 160.687 262.253 160.604 262.05C160.521 261.848 160.479 261.631 160.48 261.412C160.479 261.193 160.521 260.976 160.604 260.774C160.687 260.571 160.809 260.387 160.963 260.232C161.117 260.077 161.301 259.953 161.503 259.869C161.705 259.785 161.922 259.742 162.14 259.742H200.351C200.793 259.742 201.218 259.918 201.531 260.231C201.845 260.544 202.021 260.969 202.021 261.412C202.021 261.855 201.845 262.28 201.531 262.593C201.218 262.906 200.793 263.082 200.351 263.082Z" fill="#A1C2FF"/>
<path d="M216.271 237.912H162.141C161.919 237.912 161.699 237.868 161.494 237.781C161.289 237.695 161.104 237.568 160.949 237.408C160.795 237.249 160.673 237.06 160.593 236.853C160.513 236.646 160.475 236.424 160.481 236.202C160.48 235.983 160.522 235.766 160.605 235.564C160.688 235.361 160.81 235.177 160.964 235.022C161.118 234.867 161.302 234.744 161.504 234.659C161.706 234.575 161.922 234.532 162.141 234.532H216.271C216.714 234.532 217.139 234.708 217.452 235.021C217.765 235.334 217.941 235.759 217.941 236.202C217.947 236.425 217.907 236.646 217.826 236.854C217.744 237.061 217.622 237.25 217.466 237.409C217.311 237.568 217.125 237.695 216.92 237.781C216.714 237.868 216.494 237.912 216.271 237.912Z" fill="#A1C2FF"/>
<path d="M217.941 199.402H207.941C207.499 199.402 207.074 199.226 206.761 198.913C206.447 198.6 206.271 198.175 206.271 197.732C206.271 197.289 206.447 196.864 206.761 196.551C207.074 196.238 207.499 196.062 207.941 196.062H217.941C218.384 196.062 218.809 196.238 219.122 196.551C219.436 196.864 219.611 197.289 219.611 197.732C219.611 198.175 219.436 198.6 219.122 198.913C218.809 199.226 218.384 199.402 217.941 199.402Z" fill="#A1C2FF"/>
<path d="M213.41 263.412L209.41 265.492C209.326 265.537 209.231 265.557 209.135 265.55C209.04 265.543 208.949 265.509 208.872 265.453C208.795 265.397 208.735 265.32 208.699 265.231C208.664 265.143 208.654 265.046 208.67 264.952L209.43 260.542C209.444 260.461 209.437 260.377 209.411 260.299C209.385 260.22 209.34 260.149 209.28 260.092L206.08 256.972C206.012 256.906 205.964 256.822 205.941 256.73C205.918 256.638 205.921 256.541 205.95 256.45C205.979 256.36 206.033 256.279 206.106 256.218C206.178 256.156 206.266 256.116 206.36 256.102L210.79 255.462C210.872 255.45 210.949 255.419 211.015 255.37C211.082 255.321 211.135 255.256 211.17 255.182L213.17 251.182C213.213 251.098 213.278 251.027 213.358 250.978C213.439 250.929 213.531 250.903 213.625 250.903C213.72 250.903 213.812 250.929 213.892 250.978C213.973 251.027 214.038 251.098 214.08 251.182L216.08 255.182C216.118 255.257 216.173 255.321 216.241 255.37C216.309 255.419 216.388 255.45 216.47 255.462L220.89 256.102C220.984 256.116 221.072 256.156 221.145 256.218C221.217 256.279 221.271 256.36 221.3 256.45C221.329 256.541 221.333 256.638 221.31 256.73C221.287 256.822 221.238 256.906 221.17 256.972L217.97 260.092C217.913 260.151 217.869 260.222 217.843 260.3C217.817 260.378 217.809 260.461 217.82 260.542L218.58 264.952C218.597 265.046 218.587 265.143 218.551 265.231C218.515 265.32 218.456 265.397 218.379 265.453C218.302 265.509 218.21 265.543 218.115 265.55C218.02 265.557 217.925 265.537 217.84 265.492L213.84 263.412C213.773 263.379 213.7 263.362 213.625 263.362C213.551 263.362 213.477 263.379 213.41 263.412Z" fill="url(#paint2_linear_1046_1572)"/>
<path opacity="0.08" d="M314.33 45.0422H254.48C248.228 45.0422 243.16 50.1103 243.16 56.3622V233.462C243.16 239.714 248.228 244.782 254.48 244.782H314.33C320.582 244.782 325.65 239.714 325.65 233.462V56.3622C325.65 50.1103 320.582 45.0422 314.33 45.0422Z" fill="white"/>
<path d="M366.472 274.535C381.788 259.219 381.788 234.386 366.472 219.07C351.155 203.754 326.323 203.754 311.006 219.07C295.69 234.386 295.69 259.219 311.006 274.535C326.323 289.852 351.155 289.852 366.472 274.535Z" fill="#323197"/>
<path d="M338.94 197.882V247.012H289.82C289.86 256.673 292.758 266.106 298.15 274.122C303.543 282.138 311.187 288.378 320.12 292.056C329.053 295.735 338.875 296.686 348.348 294.791C357.822 292.896 366.522 288.239 373.352 281.407C380.183 274.575 384.838 265.874 386.731 256.401C388.624 246.927 387.671 237.105 383.991 228.173C380.311 219.24 374.069 211.597 366.052 206.207C358.034 200.816 348.601 197.92 338.94 197.882Z" fill="url(#paint3_linear_1046_1572)"/>
<path d="M338.74 273.892C353.702 273.892 365.83 261.764 365.83 246.802C365.83 231.841 353.702 219.712 338.74 219.712C323.779 219.712 311.65 231.841 311.65 246.802C311.65 261.764 323.779 273.892 338.74 273.892Z" fill="url(#paint4_linear_1046_1572)"/>
<path d="M338.741 265.252C348.931 265.252 357.191 256.992 357.191 246.802C357.191 236.613 348.931 228.352 338.741 228.352C328.551 228.352 320.291 236.613 320.291 246.802C320.291 256.992 328.551 265.252 338.741 265.252Z" fill="#A1C2FF"/>
<path d="M334.481 243.537V244.315L331.653 250.852H330.125L332.954 244.667H329.311V243.537H334.481ZM336.783 247.521L335.627 247.245L336.044 243.537H340.154V244.707H337.235L337.054 246.33C337.151 246.273 337.298 246.213 337.496 246.149C337.694 246.082 337.915 246.049 338.159 246.049C338.514 246.049 338.829 246.104 339.104 246.215C339.378 246.325 339.611 246.486 339.802 246.697C339.996 246.908 340.144 247.166 340.244 247.471C340.345 247.776 340.395 248.121 340.395 248.506C340.395 248.831 340.345 249.14 340.244 249.435C340.144 249.727 339.991 249.988 339.787 250.219C339.583 250.447 339.327 250.626 339.018 250.757C338.71 250.887 338.345 250.953 337.923 250.953C337.608 250.953 337.303 250.906 337.009 250.812C336.717 250.718 336.454 250.579 336.22 250.395C335.989 250.211 335.803 249.988 335.662 249.727C335.525 249.462 335.453 249.161 335.446 248.822H336.883C336.903 249.03 336.957 249.209 337.044 249.36C337.134 249.507 337.253 249.621 337.401 249.702C337.548 249.782 337.72 249.822 337.918 249.822C338.102 249.822 338.26 249.787 338.39 249.717C338.521 249.646 338.626 249.549 338.707 249.425C338.787 249.298 338.846 249.151 338.883 248.983C338.923 248.812 338.943 248.628 338.943 248.43C338.943 248.233 338.92 248.054 338.873 247.893C338.826 247.732 338.754 247.593 338.657 247.476C338.56 247.358 338.436 247.268 338.285 247.204C338.137 247.141 337.965 247.109 337.767 247.109C337.499 247.109 337.292 247.151 337.144 247.235C337 247.318 336.88 247.414 336.783 247.521ZM341.31 245.33V244.943C341.31 244.665 341.37 244.413 341.49 244.185C341.611 243.957 341.789 243.774 342.023 243.637C342.257 243.5 342.546 243.431 342.887 243.431C343.239 243.431 343.532 243.5 343.766 243.637C344.004 243.774 344.182 243.957 344.299 244.185C344.42 244.413 344.48 244.665 344.48 244.943V245.33C344.48 245.602 344.42 245.851 344.299 246.079C344.182 246.307 344.006 246.489 343.771 246.627C343.537 246.764 343.247 246.833 342.902 246.833C342.554 246.833 342.261 246.764 342.023 246.627C341.789 246.489 341.611 246.307 341.49 246.079C341.37 245.851 341.31 245.602 341.31 245.33ZM342.269 244.943V245.33C342.269 245.448 342.291 245.56 342.335 245.667C342.381 245.771 342.452 245.856 342.546 245.923C342.643 245.987 342.76 246.019 342.897 246.019C343.041 246.019 343.159 245.987 343.249 245.923C343.339 245.856 343.406 245.771 343.45 245.667C343.493 245.56 343.515 245.448 343.515 245.33V244.943C343.515 244.819 343.492 244.706 343.445 244.602C343.401 244.495 343.333 244.409 343.239 244.346C343.148 244.279 343.031 244.245 342.887 244.245C342.753 244.245 342.639 244.279 342.546 244.346C342.452 244.409 342.381 244.495 342.335 244.602C342.291 244.706 342.269 244.819 342.269 244.943ZM344.807 249.445V249.058C344.807 248.784 344.867 248.533 344.987 248.305C345.111 248.077 345.291 247.894 345.525 247.757C345.763 247.62 346.054 247.551 346.399 247.551C346.748 247.551 347.039 247.62 347.274 247.757C347.508 247.894 347.686 248.077 347.806 248.305C347.927 248.533 347.987 248.784 347.987 249.058V249.445C347.987 249.72 347.927 249.971 347.806 250.199C347.689 250.427 347.513 250.609 347.279 250.747C347.044 250.884 346.754 250.953 346.409 250.953C346.061 250.953 345.768 250.884 345.53 250.747C345.292 250.609 345.111 250.427 344.987 250.199C344.867 249.971 344.807 249.72 344.807 249.445ZM345.771 249.058V249.445C345.771 249.566 345.798 249.68 345.852 249.787C345.905 249.894 345.979 249.98 346.073 250.043C346.17 250.107 346.282 250.139 346.409 250.139C346.57 250.139 346.696 250.107 346.786 250.043C346.877 249.98 346.939 249.894 346.972 249.787C347.009 249.68 347.027 249.566 347.027 249.445V249.058C347.027 248.938 347.004 248.826 346.957 248.722C346.91 248.615 346.84 248.529 346.746 248.466C346.656 248.399 346.54 248.365 346.399 248.365C346.259 248.365 346.141 248.399 346.048 248.466C345.957 248.529 345.888 248.615 345.842 248.722C345.795 248.826 345.771 248.938 345.771 249.058ZM346.756 244.582L343.184 250.299L342.48 249.928L346.053 244.21L346.756 244.582Z" fill="white"/>
<g style="mix-blend-mode:multiply" opacity="0.31">
<path d="M343.81 77.3922H275.92C274.911 77.3908 273.911 77.5885 272.978 77.9739C272.045 78.3593 271.198 78.9248 270.483 79.638C269.769 80.3513 269.203 81.1984 268.816 82.1308C268.429 83.0633 268.23 84.0628 268.23 85.0722V184.132C268.23 185.142 268.429 186.141 268.816 187.073C269.203 188.006 269.769 188.853 270.483 189.566C271.198 190.28 272.045 190.845 272.978 191.23C273.911 191.616 274.911 191.813 275.92 191.812H343.81V77.3922Z" fill="#323197"/>
</g>
<path d="M365.07 69.9122H282.58C278.339 69.9122 274.9 73.3506 274.9 77.5922V176.662C274.9 180.904 278.339 184.342 282.58 184.342H365.07C369.312 184.342 372.75 180.904 372.75 176.662V77.5922C372.75 73.3506 369.312 69.9122 365.07 69.9122Z" fill="url(#paint5_linear_1046_1572)"/>
<path d="M323 90.5321V69.9121H282.59C281.581 69.9108 280.581 70.1085 279.648 70.4938C278.715 70.8792 277.868 71.4447 277.153 72.158C276.439 72.8713 275.873 73.7184 275.486 74.6508C275.099 75.5832 274.9 76.5827 274.9 77.5921V90.5321H323Z" fill="#A1C2FF"/>
<path d="M300.606 78.8402C301.379 78.8402 301.986 79.0249 302.424 79.3944C302.863 79.7639 303.083 80.2719 303.083 80.9186C303.083 81.5652 302.863 82.0732 302.424 82.4427C301.986 82.8064 301.379 82.9883 300.606 82.9883H298.978V84.9022H298.337V78.8402H300.606ZM300.588 82.4254C301.189 82.4254 301.648 82.2955 301.965 82.0357C302.283 81.7701 302.442 81.3977 302.442 80.9186C302.442 80.4278 302.283 80.0526 301.965 79.7928C301.648 79.5272 301.189 79.3944 300.588 79.3944H298.978V82.4254H300.588ZM308.147 84.9022L306.978 83.2135H306.908H305.687V84.9022H304.284V78.8402H306.908C307.445 78.8402 307.91 78.9296 308.303 79.1086C308.701 79.2876 309.007 79.5416 309.221 79.8707C309.434 80.1998 309.541 80.5895 309.541 81.0398C309.541 81.4901 309.431 81.8798 309.212 82.2089C308.998 82.5322 308.692 82.7805 308.294 82.9537L309.654 84.9022H308.147ZM308.121 81.0398C308.121 80.6992 308.011 80.4394 307.792 80.2604C307.572 80.0757 307.252 79.9833 306.83 79.9833H305.687V82.0963H306.83C307.252 82.0963 307.572 82.0039 307.792 81.8192C308.011 81.6345 308.121 81.3747 308.121 81.0398Z" fill="white"/>
<path d="M348.41 83.2827H345.033L344.305 84.9022H343.638L346.41 78.8402H347.042L349.813 84.9022H349.138L348.41 83.2827ZM348.176 82.7631L346.721 79.507L345.266 82.7631H348.176ZM353.457 82.7545V84.9022H352.054V82.7372L349.707 78.8402H351.197L352.816 81.5334L354.436 78.8402H355.813L353.457 82.7545Z" fill="#93A5C9"/>
<path d="M296.64 102.052H286.02C284.766 102.052 283.75 103.068 283.75 104.322V114.942C283.75 116.196 284.766 117.212 286.02 117.212H296.64C297.894 117.212 298.91 116.196 298.91 114.942V104.322C298.91 103.068 297.894 102.052 296.64 102.052Z" fill="#A1C2FF"/>
<path d="M318.171 102.052H307.551C306.298 102.052 305.281 103.068 305.281 104.322V114.942C305.281 116.196 306.298 117.212 307.551 117.212H318.171C319.425 117.212 320.441 116.196 320.441 114.942V104.322C320.441 103.068 319.425 102.052 318.171 102.052Z" fill="#A1C2FF"/>
<path d="M339.701 102.052H329.081C327.827 102.052 326.811 103.068 326.811 104.322V114.942C326.811 116.196 327.827 117.212 329.081 117.212H339.701C340.954 117.212 341.971 116.196 341.971 114.942V104.322C341.971 103.068 340.954 102.052 339.701 102.052Z" fill="#A1C2FF"/>
<path d="M361.23 102.052H350.61C349.356 102.052 348.34 103.068 348.34 104.322V114.942C348.34 116.196 349.356 117.212 350.61 117.212H361.23C362.484 117.212 363.5 116.196 363.5 114.942V104.322C363.5 103.068 362.484 102.052 361.23 102.052Z" fill="#A1C2FF"/>
<path d="M296.64 125.702H286.02C284.766 125.702 283.75 126.718 283.75 127.972V138.592C283.75 139.846 284.766 140.862 286.02 140.862H296.64C297.894 140.862 298.91 139.846 298.91 138.592V127.972C298.91 126.718 297.894 125.702 296.64 125.702Z" fill="#A1C2FF"/>
<path d="M318.171 125.702H307.551C306.298 125.702 305.281 126.718 305.281 127.972V138.592C305.281 139.846 306.298 140.862 307.551 140.862H318.171C319.425 140.862 320.441 139.846 320.441 138.592V127.972C320.441 126.718 319.425 125.702 318.171 125.702Z" fill="#A1C2FF"/>
<path d="M339.701 125.702H329.081C327.827 125.702 326.811 126.718 326.811 127.972V138.592C326.811 139.846 327.827 140.862 329.081 140.862H339.701C340.954 140.862 341.971 139.846 341.971 138.592V127.972C341.971 126.718 340.954 125.702 339.701 125.702Z" fill="#FF8D02"/>
<path d="M361.23 125.702H350.61C349.356 125.702 348.34 126.718 348.34 127.972V138.592C348.34 139.846 349.356 140.862 350.61 140.862H361.23C362.484 140.862 363.5 139.846 363.5 138.592V127.972C363.5 126.718 362.484 125.702 361.23 125.702Z" fill="#A1C2FF"/>
<path d="M296.64 149.362H286.02C284.766 149.362 283.75 150.378 283.75 151.632V162.252C283.75 163.506 284.766 164.522 286.02 164.522H296.64C297.894 164.522 298.91 163.506 298.91 162.252V151.632C298.91 150.378 297.894 149.362 296.64 149.362Z" fill="#A1C2FF"/>
<path d="M318.171 149.362H307.551C306.298 149.362 305.281 150.378 305.281 151.632V162.252C305.281 163.506 306.298 164.522 307.551 164.522H318.171C319.425 164.522 320.441 163.506 320.441 162.252V151.632C320.441 150.378 319.425 149.362 318.171 149.362Z" fill="#A1C2FF"/>
<path d="M339.701 149.362H329.081C327.827 149.362 326.811 150.378 326.811 151.632V162.252C326.811 163.506 327.827 164.522 329.081 164.522H339.701C340.954 164.522 341.971 163.506 341.971 162.252V151.632C341.971 150.378 340.954 149.362 339.701 149.362Z" fill="#A1C2FF"/>
<path d="M361.23 149.362H350.61C349.356 149.362 348.34 150.378 348.34 151.632V162.252C348.34 163.506 349.356 164.522 350.61 164.522H361.23C362.484 164.522 363.5 163.506 363.5 162.252V151.632C363.5 150.378 362.484 149.362 361.23 149.362Z" fill="#A1C2FF"/>
<g opacity="0.08">
<path opacity="0.08" d="M230.521 46.2521H189.291C187.447 46.2521 185.951 47.7475 185.951 49.5921V55.0421C185.951 56.8868 187.447 58.3821 189.291 58.3821H230.521C232.366 58.3821 233.861 56.8868 233.861 55.0421V49.5921C233.861 47.7475 232.366 46.2521 230.521 46.2521Z" fill="white"/>
<path opacity="0.08" d="M230.521 64.4521H189.291C187.447 64.4521 185.951 65.9475 185.951 67.7921V73.2421C185.951 75.0868 187.447 76.5821 189.291 76.5821H230.521C232.366 76.5821 233.861 75.0868 233.861 73.2421V67.7921C233.861 65.9475 232.366 64.4521 230.521 64.4521Z" fill="white"/>
</g>
<g style="mix-blend-mode:multiply" opacity="0.31">
<path d="M190.191 72.1321C183.842 72.1287 177.54 73.2179 171.561 75.3522V179.702C179.166 182.42 187.274 183.441 195.315 182.696C203.357 181.95 211.139 179.455 218.115 175.385C225.091 171.316 231.093 165.771 235.701 159.137C240.308 152.504 243.41 144.944 244.788 136.986C246.166 129.028 245.788 120.865 243.679 113.069C241.571 105.273 237.783 98.0318 232.582 91.8533C227.381 85.6749 220.891 80.7084 213.569 77.3017C206.246 73.8951 198.267 72.1307 190.191 72.1321Z" fill="#323197"/>
</g>
<path d="M190.19 179.282C218.776 179.282 241.95 156.108 241.95 127.522C241.95 98.9359 218.776 75.7621 190.19 75.7621C161.603 75.7621 138.43 98.9359 138.43 127.522C138.43 156.108 161.603 179.282 190.19 179.282Z" fill="#A1C2FF"/>
<path d="M190.19 174.222C215.982 174.222 236.89 153.314 236.89 127.522C236.89 101.73 215.982 80.8221 190.19 80.8221C164.399 80.8221 143.49 101.73 143.49 127.522C143.49 153.314 164.399 174.222 190.19 174.222Z" fill="white"/>
<path d="M196.679 126.902C196.679 126.902 192.899 137.002 195.419 143.622C196.419 149.942 178.419 145.202 175.539 137.312C176.489 132.262 179.959 128.792 180.269 118.692C180.579 108.592 196.999 120.272 196.679 126.902Z" fill="url(#paint6_linear_1046_1572)"/>
<g style="mix-blend-mode:multiply" opacity="0.32">
<path d="M179.311 126.202C179.63 124.864 179.87 123.508 180.031 122.142L190.031 117.472C193.621 120.062 196.801 124.002 196.651 126.952C195.545 130.093 194.85 133.363 194.581 136.682C185.291 134.752 181.101 129.552 179.311 126.202Z" fill="#FFA26E"/>
</g>
<path d="M204.329 111.342C204.329 111.342 208.769 123.832 204.479 128.872C197.789 136.752 187.389 132.442 183.229 127.692C179.069 122.942 179.229 103.162 186.229 100.042C193.229 96.9221 201.359 99.2021 204.329 111.342Z" fill="url(#paint7_linear_1046_1572)"/>
<g style="mix-blend-mode:multiply" opacity="0.32">
<path d="M181.719 106.432C181.839 106.022 181.979 105.622 182.119 105.242L185.899 101.242L197.699 100.512C199.581 101.782 201.117 103.5 202.169 105.512C199.529 106.512 194.719 107.932 190.799 107.512C186.879 107.092 187.389 107.512 187.389 107.512C187.855 108.723 188.049 110.023 187.956 111.317C187.862 112.612 187.484 113.87 186.849 115.002C184.669 118.812 182.489 120.712 183.579 123.852C182.629 122.032 181.889 109.582 181.719 106.432Z" fill="#FFA26E"/>
</g>
<path d="M185.169 106.122C185.169 106.122 187.669 110.122 183.849 117.122C183.15 119.266 183.168 121.579 183.899 123.712C184.079 125.342 180.449 121.982 179.899 120.532C179.349 119.442 175.989 120.982 174.899 119.532C173.809 118.082 175.669 116.442 175.669 116.442C175.669 116.442 170.769 111.362 171.309 107.192C171.849 103.022 176.759 103.372 176.759 103.372C176.759 103.372 174.039 102.102 173.309 100.652C172.769 99.3821 176.939 101.742 177.309 102.652C177.215 102.174 177.232 101.681 177.356 101.209C177.481 100.738 177.711 100.301 178.029 99.9322C178.759 99.0222 178.209 102.652 178.209 102.652C178.939 100.848 179.985 99.188 181.299 97.7522C183.659 95.0222 187.829 96.8422 191.099 94.8422C194.369 92.8422 193.819 89.0322 195.999 88.8422C198.179 88.6522 202.859 92.2022 201.899 98.7422C202.443 96.6996 202.629 94.5782 202.449 92.4721C203.259 92.0621 205.449 98.1922 201.629 101.052C201.629 101.052 203.809 100.512 205.029 97.3722C206.029 95.2022 207.349 102.282 199.719 104.592C192.089 106.902 187.439 104.482 185.169 106.122Z" fill="url(#paint8_linear_1046_1572)"/>
<path d="M186.049 122.512C186.049 123.29 186.28 124.05 186.712 124.697C187.144 125.343 187.759 125.847 188.477 126.144C189.196 126.441 189.987 126.518 190.749 126.366C191.512 126.213 192.212 125.838 192.761 125.288C193.311 124.737 193.684 124.036 193.835 123.273C193.985 122.51 193.906 121.719 193.607 121.001C193.308 120.283 192.803 119.67 192.155 119.24C191.507 118.809 190.747 118.58 189.969 118.582C189.453 118.582 188.943 118.684 188.466 118.881C187.99 119.079 187.558 119.369 187.193 119.734C186.829 120.099 186.541 120.532 186.344 121.009C186.148 121.486 186.048 121.997 186.049 122.512Z" fill="#FE746A"/>
<path d="M180.93 121.642C180.93 121.642 177.51 116.762 175.51 119.452C173.51 122.142 181.68 127.022 181.9 124.752C181.953 124.195 181.894 123.634 181.727 123.1C181.561 122.566 181.29 122.07 180.93 121.642Z" fill="url(#paint9_linear_1046_1572)"/>
<path d="M180.111 123.412C180.111 123.412 178.411 120.282 176.231 120.282C175.621 119.732 177.391 119.942 178.341 120.682C179.291 121.422 180.791 122.802 180.111 123.412Z" fill="#FF7D5A"/>
<path d="M180.18 122.862C180.18 122.862 178.18 120.862 177.09 121.552C176.59 122.362 180.63 124.362 180.18 122.862Z" fill="#FF7D5A"/>
<path d="M213.56 237.512C212.94 233.222 211.75 173.942 211.75 165.932C211.75 157.112 208.15 151.712 208.15 151.712C206.15 148.292 200.05 145.052 198.07 143.792C196.878 143.035 195.79 142.127 194.83 141.092C194.83 141.092 195.19 143.252 192.49 145.232C182.6 146.312 176.12 135.882 176.12 135.882C176.12 135.882 160.82 142.712 158.12 150.272C153.12 164.632 152.03 232.472 151.85 237.512H213.56Z" fill="url(#paint10_linear_1046_1572)"/>
<path d="M229.42 115.792C236.788 115.792 242.76 109.82 242.76 102.452C242.76 95.0847 236.788 89.1122 229.42 89.1122C222.053 89.1122 216.08 95.0847 216.08 102.452C216.08 109.82 222.053 115.792 229.42 115.792Z" fill="url(#paint11_linear_1046_1572)"/>
<path d="M224.16 102.662L228.41 106.902L236.44 98.8721" stroke="white" stroke-width="2" stroke-linecap="round" stroke-linejoin="round"/>
<g style="mix-blend-mode:multiply" opacity="0.31">
<path d="M241.141 287.642H171.561V310.082H241.141C241.618 310.083 242.091 309.991 242.533 309.809C242.974 309.627 243.376 309.36 243.714 309.022C244.052 308.685 244.32 308.285 244.503 307.844C244.686 307.403 244.781 306.93 244.781 306.452V291.282C244.781 290.317 244.397 289.391 243.714 288.708C243.032 288.026 242.106 287.642 241.141 287.642Z" fill="#323197"/>
</g>
<path d="M236.89 283.402H156.23C154.22 283.402 152.59 285.032 152.59 287.042V302.202C152.59 304.212 154.22 305.842 156.23 305.842H236.89C238.9 305.842 240.53 304.212 240.53 302.202V287.042C240.53 285.032 238.9 283.402 236.89 283.402Z" fill="white"/>
<path d="M168.261 302.912C166.72 302.914 165.213 302.459 163.93 301.604C162.648 300.749 161.648 299.533 161.057 298.11C160.466 296.687 160.31 295.12 160.609 293.609C160.909 292.097 161.65 290.708 162.739 289.617C163.828 288.527 165.216 287.784 166.728 287.483C168.239 287.181 169.806 287.335 171.23 287.924C172.654 288.513 173.871 289.512 174.727 290.793C175.584 292.074 176.041 293.581 176.041 295.122C176.041 297.186 175.222 299.166 173.763 300.627C172.304 302.088 170.325 302.909 168.261 302.912ZM168.261 289.772C167.2 289.772 166.164 290.087 165.282 290.676C164.4 291.266 163.713 292.103 163.308 293.083C162.903 294.063 162.797 295.142 163.005 296.182C163.212 297.222 163.724 298.177 164.474 298.926C165.225 299.675 166.181 300.185 167.221 300.39C168.262 300.596 169.34 300.488 170.319 300.081C171.298 299.674 172.135 298.985 172.722 298.103C173.31 297.22 173.623 296.183 173.621 295.122C173.618 293.702 173.052 292.342 172.048 291.339C171.043 290.336 169.681 289.772 168.261 289.772Z" fill="#A1C2FF"/>
<path d="M169.881 296.292H167.881C167.719 296.292 167.564 296.228 167.449 296.113C167.335 295.999 167.271 295.844 167.271 295.682V291.742C167.26 291.656 167.267 291.569 167.292 291.486C167.318 291.403 167.36 291.326 167.418 291.261C167.475 291.196 167.545 291.144 167.624 291.108C167.703 291.073 167.789 291.054 167.876 291.054C167.962 291.054 168.048 291.073 168.127 291.108C168.206 291.144 168.276 291.196 168.334 291.261C168.391 291.326 168.434 291.403 168.459 291.486C168.484 291.569 168.492 291.656 168.481 291.742V295.072H169.851C169.93 295.072 170.009 295.088 170.083 295.119C170.156 295.15 170.223 295.195 170.278 295.251C170.334 295.308 170.378 295.376 170.408 295.449C170.437 295.523 170.452 295.603 170.451 295.682C170.451 295.837 170.392 295.987 170.286 296.1C170.18 296.213 170.035 296.282 169.881 296.292Z" fill="#A1C2FF"/>
<path d="M212.484 296.065H210.491V294.808H212.484C212.792 294.808 213.042 294.758 213.236 294.657C213.429 294.553 213.571 294.41 213.66 294.228C213.75 294.045 213.794 293.839 213.794 293.61C213.794 293.377 213.75 293.161 213.66 292.96C213.571 292.76 213.429 292.598 213.236 292.477C213.042 292.355 212.792 292.294 212.484 292.294H211.05V298.852H209.438V291.032H212.484C213.096 291.032 213.621 291.143 214.058 291.365C214.498 291.583 214.835 291.886 215.067 292.273C215.3 292.659 215.417 293.101 215.417 293.599C215.417 294.104 215.3 294.541 215.067 294.91C214.835 295.279 214.498 295.563 214.058 295.764C213.621 295.964 213.096 296.065 212.484 296.065ZM217.065 291.032H218.07L220.632 297.407L223.188 291.032H224.198L221.019 298.852H220.234L217.065 291.032ZM216.738 291.032H217.624L217.769 295.801V298.852H216.738V291.032ZM223.634 291.032H224.521V298.852H223.489V295.801L223.634 291.032Z" fill="#5A6A90"/>
<path d="M246.301 280.672C246.301 281.153 246.159 281.623 245.892 282.022C245.625 282.422 245.245 282.733 244.801 282.917C244.357 283.101 243.869 283.149 243.397 283.055C242.926 282.962 242.493 282.73 242.153 282.39C241.813 282.051 241.582 281.618 241.488 281.146C241.394 280.675 241.442 280.186 241.626 279.742C241.81 279.298 242.122 278.919 242.521 278.652C242.921 278.385 243.391 278.242 243.871 278.242C244.191 278.241 244.507 278.303 244.803 278.424C245.098 278.546 245.367 278.725 245.593 278.951C245.819 279.177 245.997 279.445 246.119 279.741C246.241 280.036 246.303 280.353 246.301 280.672Z" fill="white"/>
<path opacity="0.44" d="M309.37 200.312H265.1C263.255 200.312 261.76 201.805 261.76 203.647C261.76 205.489 263.255 206.982 265.1 206.982H309.37C311.214 206.982 312.71 205.489 312.71 203.647C312.71 201.805 311.214 200.312 309.37 200.312Z" stroke="white" stroke-miterlimit="10"/>
<path opacity="0.44" d="M278.44 217.592H265.1C264.216 217.592 263.368 217.242 262.742 216.617C262.115 215.993 261.762 215.146 261.76 214.262V214.262C261.76 213.824 261.846 213.389 262.014 212.984C262.182 212.579 262.428 212.211 262.738 211.9C263.048 211.59 263.416 211.344 263.822 211.176C264.227 211.009 264.661 210.922 265.1 210.922H278.44C278.878 210.922 279.313 211.009 279.718 211.176C280.123 211.344 280.491 211.59 280.802 211.9C281.112 212.211 281.358 212.579 281.526 212.984C281.693 213.389 281.78 213.824 281.78 214.262V214.262C281.777 215.146 281.424 215.993 280.798 216.617C280.172 217.242 279.324 217.592 278.44 217.592Z" stroke="white" stroke-miterlimit="10"/>
<path d="M155.421 80.6222C155.423 81.2638 155.235 81.8916 154.88 82.426C154.524 82.9603 154.018 83.3771 153.426 83.6236C152.833 83.8701 152.181 83.9351 151.552 83.8104C150.922 83.6857 150.344 83.3769 149.89 82.9232C149.437 82.4694 149.128 81.8912 149.003 81.2618C148.878 80.6324 148.943 79.9801 149.19 79.3876C149.436 78.7952 149.853 78.2893 150.388 77.934C150.922 77.5788 151.55 77.3902 152.191 77.3922C153.047 77.3948 153.867 77.736 154.472 78.3411C155.078 78.9463 155.419 79.7663 155.421 80.6222Z" fill="#A1C2FF"/>
</g>
<defs>
<linearGradient id="paint0_linear_1046_1572" x1="71.7975" y1="269.863" x2="217.295" y2="307.871" gradientUnits="userSpaceOnUse">
<stop stop-color="#6060E7"/>
<stop offset="1" stop-color="#8182EE"/>
</linearGradient>
<linearGradient id="paint1_linear_1046_1572" x1="24041.2" y1="113013" x2="77561" y2="-16941.9" gradientUnits="userSpaceOnUse">
<stop stop-color="#6060E7"/>
<stop offset="1" stop-color="#8182EE"/>
</linearGradient>
<linearGradient id="paint2_linear_1046_1572" x1="205.96" y1="258.222" x2="221.33" y2="258.222" gradientUnits="userSpaceOnUse">
<stop stop-color="#FF8D02"/>
<stop offset="1" stop-color="#FFC757"/>
</linearGradient>
<linearGradient id="paint3_linear_1046_1572" x1="21605.6" y1="23939.6" x2="31181.2" y2="23939.6" gradientUnits="userSpaceOnUse">
<stop stop-color="#FF8D02"/>
<stop offset="1" stop-color="#FFC757"/>
</linearGradient>
<linearGradient id="paint4_linear_1046_1572" x1="311.65" y1="246.802" x2="365.83" y2="246.802" gradientUnits="userSpaceOnUse">
<stop stop-color="#D5E0F5"/>
<stop offset="1" stop-color="white"/>
</linearGradient>
<linearGradient id="paint5_linear_1046_1572" x1="287.59" y1="192.782" x2="343.39" y2="91.6922" gradientUnits="userSpaceOnUse">
<stop stop-color="#D8E2F6"/>
<stop offset="0.01" stop-color="#DAE3F6"/>
<stop offset="0.12" stop-color="#EBF0FA"/>
<stop offset="0.26" stop-color="#F6F9FD"/>
<stop offset="0.46" stop-color="#FDFEFF"/>
<stop offset="1" stop-color="white"/>
</linearGradient>
<linearGradient id="paint6_linear_1046_1572" x1="181.529" y1="142.692" x2="189.729" y2="127.542" gradientUnits="userSpaceOnUse">
<stop stop-color="#FFB58E"/>
<stop offset="0.33" stop-color="#FEB38B"/>
<stop offset="0.59" stop-color="#FCAD81"/>
<stop offset="0.83" stop-color="#F9A370"/>
<stop offset="1" stop-color="#F5985F"/>
</linearGradient>
<linearGradient id="paint7_linear_1046_1572" x1="5014.59" y1="3528.66" x2="5263.8" y2="4491.27" gradientUnits="userSpaceOnUse">
<stop stop-color="#FFB58E"/>
<stop offset="0.33" stop-color="#FEB38B"/>
<stop offset="0.59" stop-color="#FCAD81"/>
<stop offset="0.83" stop-color="#F9A370"/>
<stop offset="1" stop-color="#F5985F"/>
</linearGradient>
<linearGradient id="paint8_linear_1046_1572" x1="193.319" y1="95.1622" x2="176.609" y2="117.322" gradientUnits="userSpaceOnUse">
<stop stop-color="#B62C01"/>
<stop offset="1" stop-color="#7C0C0A"/>
</linearGradient>
<linearGradient id="paint9_linear_1046_1572" x1="1526.43" y1="793.699" x2="1555.3" y2="943.029" gradientUnits="userSpaceOnUse">
<stop stop-color="#FFB58E"/>
<stop offset="0.33" stop-color="#FEB38B"/>
<stop offset="0.59" stop-color="#FCAD81"/>
<stop offset="0.83" stop-color="#F9A370"/>
<stop offset="1" stop-color="#F5985F"/>
</linearGradient>
<linearGradient id="paint10_linear_1046_1572" x1="150" y1="239.032" x2="207.19" y2="166.332" gradientUnits="userSpaceOnUse">
<stop stop-color="#1196C3"/>
<stop offset="1" stop-color="#02B2CA"/>
</linearGradient>
<linearGradient id="paint11_linear_1046_1572" x1="4059.87" y1="2710.42" x2="4771.96" y2="2710.42" gradientUnits="userSpaceOnUse">
<stop stop-color="#FF8D02"/>
<stop offset="1" stop-color="#FFC757"/>
</linearGradient>
<clipPath id="clip0_1046_1572">
<rect width="344.72" height="330.75" fill="white" transform="translate(72 4.20215)"/>
</clipPath>
</defs>
</svg>
