<svg width="433" height="352" viewBox="0 0 433 352" fill="none" xmlns="http://www.w3.org/2000/svg">
<rect x="70.2656" width="289.439" height="289.439" rx="80" transform="rotate(14.0498 70.2656 0)" fill="#FEC5E2"/>
<g clip-path="url(#clip0_1046_1833)">
<path d="M380.6 199.7C372.9 195.3 366.7 184.5 366.7 175.7C366.7 172.4 367.6 169.9 369 168.2C364.8 168.5 361.9 172 361.9 178C361.9 186.8 368.1 197.5 375.8 202C380.6 204.8 384.8 204.4 387.3 201.6C385.4 201.8 383.1 201.2 380.6 199.7Z" fill="#72B5E8"/>
<path d="M394.1 196.8C394.1 195.7 394 194.6 393.9 193.4L399.5 192.7C398.9 189.9 398.1 187 397 184.2L390.6 182.3C389.5 179.9 388.1 177.6 386.6 175.4L388.1 168.9C386.2 166.5 384.1 164.4 382 162.4L378.6 166.9C377.7 166.2 376.7 165.6 375.8 165C374.8 164.4 373.9 164 373 163.6L369.6 155.2C367.4 154.6 365.4 154.4 363.5 154.6L365 162.8C363.5 163.2 362.1 164 361 165.1L354.6 159.6C353.5 161.1 352.6 163 352.1 165.2L357.7 172.4C357.6 173.4 357.5 174.4 357.5 175.5C357.5 176.6 357.6 177.7 357.7 178.9L352.1 179.6C352.7 182.4 353.5 185.3 354.6 188.1L361 190C362.1 192.4 363.5 194.7 365 196.9L363.5 203.4C365.4 205.8 367.5 207.9 369.6 209.9L373 205.4C373.9 206.1 374.9 206.7 375.8 207.3C376.8 207.9 377.7 208.3 378.6 208.7L382 217.1C384.2 217.7 386.2 217.9 388.1 217.7L386.6 209.5C388.1 209.1 389.5 208.3 390.6 207.2L397 212.7C398.1 211.2 399 209.3 399.5 207.1L393.9 199.9C394 199 394.1 197.9 394.1 196.8ZM375.9 202C368.2 197.6 362 186.8 362 178C362 169.2 368.2 165.7 375.9 170.1C383.6 174.5 389.8 185.3 389.8 194.1C389.8 202.9 383.6 206.5 375.9 202Z" fill="#A8CFF0"/>
<path d="M378.3 160.7L374.9 152.2L369.5 155.3L372.9 163.8L378.3 160.7Z" fill="#72B5E8"/>
<path d="M372.9 163.8C373.8 164.2 374.8 164.6 375.7 165.2C376.7 165.8 377.6 166.4 378.5 167.1L381.9 162.6C381.9 162.6 381.3 162.2 381 162.1C380 161.5 379.1 161.1 378.2 160.7L372.9 163.8Z" fill="#D1EBFF"/>
<path d="M374.9 152.2C372.7 151.6 370.7 151.4 368.8 151.6L363.4 154.7C365.3 154.5 367.4 154.7 369.5 155.3L374.9 152.2Z" fill="#D1EBFF"/>
<path d="M393.5 165.9C391.6 163.5 389.5 161.4 387.4 159.4L382 162.5C384.2 164.4 386.2 166.6 388.1 169L393.5 165.9Z" fill="#D1EBFF"/>
<path d="M388.1 169L386.6 175.5L392 172.4L393.5 165.9L388.1 169Z" fill="#72B5E8"/>
<path d="M386.6 175.5C388.1 177.7 389.5 180 390.6 182.4L396 179.3C394.9 176.9 393.5 174.6 392 172.4L386.6 175.5Z" fill="#72B5E8"/>
<path d="M390.6 182.3L397 184.3L402.3 181.2L395.9 179.2L390.6 182.3Z" fill="#D1EBFF"/>
<path d="M397 184.3C398.1 187.1 399 190 399.5 192.8L404.9 189.7C404.3 186.9 403.5 184 402.4 181.2L397 184.3Z" fill="#72B5E8"/>
<path d="M364.9 162.9L364.5 160.5L359.9 156.6L354.5 159.7L360.9 165.2C362 164.1 363.4 163.3 364.9 162.9Z" fill="#72B5E8"/>
<path d="M399.5 207.1C398.9 209.3 398.1 211.1 397 212.7L402.4 209.6C403.5 208.1 404.4 206.2 404.9 204L399.5 207.1Z" fill="#72B5E8"/>
<path d="M399.3 196.8C399.4 195.8 399.5 194.8 399.5 193.7C399.5 193.4 399.5 193 399.5 192.7L393.9 193.4C394 194.5 394.1 195.7 394.1 196.8C394.1 197.9 394 198.9 393.9 199.9L399.3 196.8Z" fill="#72B5E8"/>
<path d="M393.9 199.9L399.5 207.1L404.9 204L399.3 196.8L393.9 199.9Z" fill="#D1EBFF"/>
<path d="M390.6 207.2C389.5 208.3 388.1 209.1 386.6 209.5L388.1 217.7L393.5 214.6L392.4 208.8L390.6 207.2Z" fill="#72B5E8"/>
<path d="M357.4 176.5L352 179.7L357.6 179C357.5 178.1 357.4 177.3 357.4 176.5Z" fill="#D1EBFF"/>
<path d="M372.9 205.4L369.5 209.9L374.9 206.8C374.2 206.4 373.6 205.9 372.9 205.4Z" fill="#72B5E8"/>
<path d="M364.198 163.3C363.898 163.3 363.698 163.4 363.398 163.6C363.698 163.5 363.998 163.4 364.198 163.3Z" fill="white"/>
<path d="M356.899 179.1L352.199 179.7C352.199 179.8 352.199 179.9 352.299 180L356.899 179.4C356.899 179.2 356.899 179.1 356.899 179.1Z" fill="white"/>
<path d="M387.8 169.4L386.3 175.9C387.8 178.1 389.2 180.4 390.3 182.8L396.7 184.7C397.8 187.4 398.6 190.2 399.2 192.9L399.8 192.8C399.2 190 398.4 187.1 397.3 184.3L390.9 182.4C389.8 180 388.4 177.7 386.9 175.5L388.4 169C386.5 166.6 384.4 164.5 382.3 162.5L382.1 163.2C384.1 165.1 386 167.1 387.8 169.4Z" fill="white"/>
<path d="M376 201.9C368.3 197.5 362.1 186.7 362.1 177.9C362.1 174 363.3 171.2 365.3 169.6C363 171.1 361.5 174.1 361.5 178.3C361.5 187.1 367.7 197.8 375.4 202.3C379.3 204.5 382.8 204.7 385.3 203.3C385.1 203.4 384.9 203.4 384.7 203.4C382.3 204.3 379.3 203.9 376 201.9Z" fill="white"/>
<path d="M387.6 209.2C388.5 208.9 389.4 208.4 390.1 207.8L389.9 207.6C389.2 208.3 388.5 208.8 387.6 209.2Z" fill="white"/>
<path d="M360.699 165.3C360.499 165.3 360.699 165.1 360.899 164.9L354.699 159.7C354.499 159.9 354.399 160.2 354.699 160.2L360.699 165.3Z" fill="white"/>
<path d="M386.399 209.9L387.899 217.8C387.699 217.8 388.099 217.8 388.399 217.8L386.899 209.7C386.599 209.7 386.299 209.8 386.399 209.9Z" fill="white"/>
<path d="M394.4 196.8C394.4 195.8 394.3 194.8 394.2 193.7H393.6C393.7 194.8 393.8 196 393.8 197.1C393.8 198.2 393.7 199.2 393.6 200.2L399.2 207.4C398.7 209.2 398 210.8 397.2 212.2V212.6C398.3 211.1 399.2 209.2 399.7 207L394.1 199.8C394.3 198.9 394.4 197.9 394.4 196.8Z" fill="white"/>
<path d="M369.2 155.5L372.6 163.9C373.5 164.3 374.5 164.7 375.4 165.3C376.4 165.9 377.3 166.5 378.2 167.2L378.3 166.7C377.5 166.1 376.7 165.6 375.9 165.1C374.9 164.5 374 164.1 373.1 163.7L369.7 155.3C367.5 154.7 365.5 154.5 363.6 154.7L363.7 155.1C365.3 155 367.4 155.1 369.2 155.5Z" fill="white"/>
<path d="M372.298 205.8L369.398 209.5C369.498 209.6 369.598 209.7 369.798 209.8L372.698 206C372.498 206 372.398 205.9 372.298 205.8Z" fill="white"/>
<path d="M378.6 133.7C367.1 127 357.7 110.9 357.7 97.7C357.7 92.8 359 89 361.2 86.5C354.9 87 350.6 92.3 350.6 101.2C350.6 114.4 360 130.6 371.5 137.2C378.7 141.4 385.1 140.8 388.9 136.5C385.9 136.7 382.4 135.9 378.6 133.7Z" fill="#72B5E8"/>
<path d="M398.9 129.3C398.9 127.6 398.8 125.9 398.5 124.2L406.9 123.1C406 118.8 404.7 114.6 403.1 110.3L393.5 107.4C391.8 103.8 389.8 100.3 387.5 97.1L389.8 87.4C386.9 83.8 383.9 80.6 380.6 77.7L375.4 84.4C374 83.4 372.6 82.4 371.2 81.5C369.8 80.7 368.4 80 367 79.5L361.8 66.8C358.5 65.9 355.4 65.6 352.6 65.9L354.9 78.3C352.6 78.9 350.6 80.1 348.9 81.7L339.3 73.5C337.6 75.8 336.3 78.6 335.5 81.9L343.9 92.7C343.7 94.2 343.5 95.7 343.5 97.4C343.5 99.1 343.6 100.8 343.9 102.5L335.5 103.6C336.4 107.9 337.7 112.1 339.3 116.4L348.9 119.3C350.6 122.9 352.6 126.4 354.9 129.6L352.6 139.3C355.5 142.9 358.5 146.1 361.8 149L367 142.3C368.4 143.3 369.8 144.3 371.2 145.2C372.6 146 374 146.7 375.4 147.2L380.6 159.9C383.9 160.8 387 161.1 389.8 160.8L387.5 148.4C389.8 147.8 391.8 146.6 393.5 145L403.1 153.2C404.8 150.9 406.1 148.1 406.9 144.8L398.5 134C398.8 132.5 398.9 131 398.9 129.3ZM371.5 137.2C360 130.5 350.6 114.4 350.6 101.2C350.6 88 360 82.6 371.5 89.3C383 96 392.4 112.1 392.4 125.3C392.4 138.5 383.1 143.8 371.5 137.2Z" fill="#A8CFF0"/>
<path d="M375.1 74.9L369.9 62.2L361.9 66.9L367 79.5999L375.1 74.9Z" fill="#72B5E8"/>
<path d="M367 79.6C368.4 80.2 369.8 80.8 371.2 81.6C372.6 82.4 374 83.4 375.4 84.5L380.6 77.8C380.6 77.8 379.7 77.3 379.3 77C377.9 76.2 376.5 75.5 375.1 75L367 79.6Z" fill="#D1EBFF"/>
<path d="M369.9 62.2C366.6 61.3 363.5 61 360.7 61.3L352.6 65.9C355.5 65.6 358.5 65.9 361.8 66.8L369.9 62.2Z" fill="#D1EBFF"/>
<path d="M397.999 82.8C395.099 79.2 392.099 76 388.799 73.1L380.699 77.7C383.999 80.6 387.099 83.9 389.899 87.4L397.999 82.8Z" fill="#D1EBFF"/>
<path d="M389.9 87.5L387.6 97.2L395.7 92.5L398 82.8L389.9 87.5Z" fill="#72B5E8"/>
<path d="M387.6 97.2C389.9 100.5 391.9 103.9 393.6 107.5L401.7 102.9C400 99.3 398 95.8 395.7 92.6L387.6 97.2Z" fill="#72B5E8"/>
<path d="M393.6 107.5L403.2 110.4L411.3 105.8L401.7 102.9L393.6 107.5Z" fill="#D1EBFF"/>
<path d="M403.199 110.4C404.899 114.6 406.199 118.9 406.999 123.2L415.099 118.6C414.199 114.3 412.899 110.1 411.299 105.8L403.199 110.4Z" fill="#72B5E8"/>
<path d="M354.901 78.3L354.201 74.7L347.401 68.9L339.301 73.5L348.901 81.7C350.601 80.1 352.701 78.9 354.901 78.3Z" fill="#72B5E8"/>
<path d="M406.999 144.8C406.099 148.1 404.799 150.9 403.199 153.2L411.299 148.6C412.999 146.3 414.299 143.5 415.099 140.2L406.999 144.8Z" fill="#72B5E8"/>
<path d="M406.7 129.3C406.9 127.8 407.1 126.3 407.1 124.6C407.1 124.1 407.1 123.6 407 123.1L398.6 124.2C398.8 125.9 399 127.6 399 129.3C399 131 398.9 132.5 398.6 134L406.7 129.3Z" fill="#72B5E8"/>
<path d="M398.6 134L407 144.8L415.1 140.1L406.7 129.3L398.6 134Z" fill="#D1EBFF"/>
<path d="M393.6 145C391.9 146.7 389.9 147.8 387.6 148.4L389.9 160.8L398 156.2L396.4 147.4L393.6 145Z" fill="#72B5E8"/>
<path d="M343.6 98.7L335.5 103.5L343.9 102.4C343.8 101.2 343.7 100 343.6 98.7Z" fill="#D1EBFF"/>
<path d="M367.001 142.3L361.801 149L370.001 144.4C369.001 143.7 368.001 143 367.001 142.3Z" fill="#72B5E8"/>
<path d="M354 78.8999V78.7999C353.6 78.8999 353.2 79.0999 352.9 79.2999C353.2 79.0999 353.6 78.9999 354 78.8999Z" fill="white"/>
<path d="M342.9 102.6L335.9 103.5C335.9 103.6 336 103.8 336 103.9L343 103C343 102.9 342.9 102.7 342.9 102.6Z" fill="white"/>
<path d="M389.401 88L387.101 97.6999C389.401 100.9 391.401 104.4 393.101 108L402.701 110.9C404.301 115 405.601 119.2 406.401 123.3L407.401 123.1C406.501 118.8 405.201 114.6 403.601 110.3L394.001 107.4C392.301 103.8 390.301 100.3 388.001 97.0999L390.301 87.4C387.401 83.8 384.401 80.6 381.101 77.7L380.801 78.7999C383.801 81.4999 386.701 84.6 389.401 88Z" fill="white"/>
<path d="M371.6 137C360.1 130.3 350.7 114.2 350.7 101C350.7 95.2 352.5 90.9 355.6 88.5C352.1 90.8 349.9 95.3 349.9 101.6C349.9 114.8 359.3 131 370.8 137.6C376.6 141 381.9 141.3 385.7 139C385.4 139.1 385.1 139.1 384.8 139.2C381.2 140.5 376.6 139.9 371.6 137Z" fill="white"/>
<path d="M389.1 148C390.5 147.5 391.8 146.8 392.9 145.9L392.5 145.6C391.6 146.5 390.4 147.3 389.1 148Z" fill="white"/>
<path d="M348.701 82C348.301 82 348.701 81.7 349.101 81.4L339.801 73.5C339.501 73.9 339.301 74.3 339.701 74.3L348.701 82Z" fill="white"/>
<path d="M387.4 148.9L389.6 160.7C389.3 160.7 389.8 160.7 390.3 160.6L388 148.4C387.6 148.6 387.1 148.8 387.4 148.9Z" fill="white"/>
<path d="M399.301 129.3C399.301 127.8 399.201 126.2 399.001 124.7L398.201 124.8C398.401 126.5 398.601 128.2 398.601 129.9C398.601 131.6 398.501 133.1 398.201 134.6L406.601 145.4C405.901 148.1 404.801 150.5 403.501 152.6L403.601 153.3C405.301 151 406.601 148.2 407.401 144.9L399.001 134.1C399.201 132.5 399.301 130.9 399.301 129.3Z" fill="white"/>
<path d="M361.5 67.2L366.7 79.9C368.1 80.5 369.5 81.1 370.9 81.9C372.3 82.7 373.7 83.6999 375.1 84.7999L375.3 84C374.1 83.1 372.9 82.2999 371.7 81.5999C370.3 80.7999 368.9 80.0999 367.5 79.5999L362.3 66.9C359 66 355.9 65.7 353.1 66L353.2 66.5C355.6 66.4 358.8 66.5 361.5 67.2Z" fill="white"/>
<path d="M366.001 142.8L361.701 148.4C361.901 148.6 362.101 148.7 362.201 148.9L366.601 143.2C366.401 143.1 366.201 143 366.001 142.8Z" fill="white"/>
<path d="M381.699 61.3C381.799 60 382.699 59.4 383.799 60C384.899 60.6 385.699 62.2 385.599 63.5C385.499 64.8 384.599 65.4 383.499 64.8C382.499 64.2 381.699 62.6 381.699 61.3Z" fill="#EB4680"/>
<path d="M375.699 221.3C375.699 220.4 376.399 220 377.099 220.4C377.799 220.8 378.399 221.9 378.299 222.8C378.299 223.7 377.599 224.1 376.899 223.7C376.199 223.3 375.699 222.2 375.699 221.3Z" fill="#EB4680"/>
<path d="M414.799 156.6C414.599 156.6 414.499 156.5 414.399 156.4C414.299 156.2 414.299 156 414.399 155.8L416.799 151.7C416.899 151.5 417.199 151.4 417.499 151.5C417.699 151.6 417.799 151.9 417.699 152.2L415.899 155.2L419.399 154.1C419.699 154 419.899 154.2 419.999 154.4C420.099 154.7 419.899 154.9 419.699 155L414.899 156.5C414.899 156.6 414.899 156.6 414.799 156.6Z" fill="#EB4680"/>
<path d="M373.302 174.8C375.202 175.9 376.802 178 377.802 180.2C377.802 180.2 378.902 179.9 379.302 179.7C380.202 179.3 381.402 179.5 382.702 180.2C385.602 181.9 388.002 186 388.002 189.3C388.002 195.4 377.502 197.5 377.502 197.5C377.502 197.5 367.502 184.2 367.502 178C367.502 176.3 366.802 175.8 367.702 175.3C367.802 175.3 369.702 174.2 369.802 174.2C370.802 173.9 372.002 174 373.302 174.8Z" fill="#D62D69"/>
<path d="M371.601 175.7C373.601 176.9 375.401 179.2 376.301 181.7C377.201 180.3 378.901 180 381.001 181.1C383.901 182.8 386.301 186.9 386.301 190.2C386.301 196.3 376.301 198.1 376.301 198.1C376.301 198.1 366.301 184.8 366.301 178.6C366.301 175.4 368.601 174 371.601 175.7Z" fill="#EB4680"/>
<path opacity="0.7" d="M371.3 175.8C373.3 177 375.3 179.3 376.2 181.8C376.4 181.5 376.1 181.6 376.4 181.4C375.5 179.1 373.8 176.9 371.8 175.8C370.2 174.9 369 174.7 368 175.2C368.9 175 370.1 175.1 371.3 175.8Z" fill="white"/>
<path opacity="0.7" d="M381.1 181.1C379.5 180.2 378.3 180.2 377.5 180.7C378.4 180.4 379.5 180.6 380.7 181.3C383.6 183 386 187.1 386 190.4C386 193.2 383.8 195.2 381.5 196.4C384.1 195.2 386.4 193.4 386.4 190.3C386.4 186.9 384 182.8 381.1 181.1Z" fill="white"/>
<path d="M416.401 156L415.701 155.3C421.101 150.4 423.901 142.4 423.901 132.3C423.901 107 405.901 76.0001 383.801 63.2001L384.301 62.3C406.701 75.2 424.901 106.6 424.901 132.2C424.901 142.7 422.001 150.9 416.401 156Z" fill="#EB4680"/>
<path d="M432.201 138.9C431.901 138.9 431.701 138.7 431.701 138.4C431.701 138.1 431.701 137.7 431.701 137.4C431.701 137.1 431.901 136.9 432.201 136.9C432.501 136.9 432.701 137.1 432.701 137.4C432.701 137.7 432.701 138.1 432.701 138.4C432.701 138.7 432.501 138.9 432.201 138.9Z" fill="#A8CFF0"/>
<path d="M404.701 173.5C404.401 173.5 404.201 173.3 404.201 173C404.201 172.7 404.401 172.5 404.701 172.5C405.401 172.5 406.001 172.5 406.701 172.4C407.001 172.4 407.201 172.6 407.201 172.9C407.201 173.2 407.001 173.4 406.701 173.4C406.101 173.5 405.401 173.5 404.701 173.5ZM401.701 173.4C401.001 173.3 400.301 173.3 399.701 173.2C399.401 173.2 399.201 172.9 399.301 172.6C399.301 172.3 399.601 172.1 399.901 172.2C400.601 172.3 401.201 172.4 401.801 172.4C402.101 172.4 402.301 172.7 402.301 172.9C402.201 173.2 402.001 173.4 401.701 173.4ZM409.601 173.1C409.401 173.1 409.201 172.9 409.101 172.7C409.101 172.4 409.201 172.2 409.501 172.1C410.101 172 410.801 171.8 411.401 171.7C411.701 171.6 411.901 171.8 412.001 172.1C412.101 172.4 411.901 172.6 411.601 172.7C411.101 172.8 410.401 173 409.601 173.1C409.701 173.1 409.701 173.1 409.601 173.1ZM414.401 171.7C414.201 171.7 414.001 171.6 413.901 171.4C413.801 171.1 413.901 170.9 414.201 170.8C414.801 170.6 415.401 170.3 416.001 170C416.201 169.9 416.501 170 416.701 170.2C416.801 170.4 416.701 170.7 416.501 170.9C415.901 171.2 415.301 171.5 414.701 171.7C414.501 171.7 414.501 171.7 414.401 171.7ZM418.801 169.4C418.601 169.4 418.501 169.3 418.401 169.2C418.201 169 418.301 168.7 418.501 168.5C419.001 168.1 419.601 167.8 420.101 167.4C420.301 167.2 420.601 167.3 420.801 167.5C421.001 167.7 420.901 168 420.701 168.2C420.201 168.6 419.601 169 419.101 169.4C419.001 169.4 418.901 169.4 418.801 169.4ZM422.601 166.3C422.501 166.3 422.301 166.3 422.201 166.2C422.001 166 422.001 165.7 422.201 165.5C422.701 165 423.101 164.6 423.501 164.1C423.701 163.9 424.001 163.9 424.201 164C424.401 164.2 424.401 164.5 424.301 164.7C423.901 165.2 423.401 165.7 422.901 166.2C422.901 166.3 422.801 166.3 422.601 166.3ZM425.801 162.5C425.701 162.5 425.601 162.5 425.501 162.4C425.301 162.2 425.201 161.9 425.401 161.7C425.801 161.2 426.101 160.6 426.401 160.1C426.501 159.9 426.801 159.8 427.101 159.9C427.301 160 427.401 160.3 427.301 160.6C427.001 161.2 426.601 161.7 426.201 162.3C426.101 162.4 426.001 162.5 425.801 162.5ZM428.201 158.2C428.101 158.2 428.101 158.2 428.001 158.2C427.701 158.1 427.601 157.8 427.801 157.5C428.101 156.9 428.301 156.3 428.601 155.7C428.701 155.4 429.001 155.3 429.301 155.4C429.601 155.5 429.701 155.8 429.601 156.1C429.301 156.7 429.101 157.3 428.801 157.9C428.601 158.1 428.401 158.2 428.201 158.2ZM430.001 153.6C430.001 153.6 429.901 153.6 429.801 153.6C429.501 153.5 429.401 153.2 429.501 153C429.701 152.4 429.901 151.8 430.001 151.1C430.101 150.8 430.301 150.7 430.601 150.7C430.901 150.8 431.001 151 431.001 151.3C430.801 152 430.601 152.6 430.401 153.2C430.501 153.4 430.301 153.6 430.001 153.6ZM431.301 148.8C431.201 148.8 431.201 148.8 431.301 148.8C430.901 148.7 430.801 148.5 430.801 148.2C430.901 147.6 431.001 146.9 431.101 146.3C431.101 146 431.401 145.8 431.701 145.9C432.001 145.9 432.201 146.2 432.101 146.5C432.001 147.2 431.901 147.8 431.801 148.5C431.701 148.6 431.501 148.8 431.301 148.8ZM432.001 143.8C431.901 143.8 431.901 143.8 432.001 143.8C431.701 143.8 431.501 143.5 431.501 143.3C431.601 142.7 431.601 142 431.701 141.3C431.701 141 431.901 140.8 432.201 140.8C432.501 140.8 432.701 141.1 432.701 141.3C432.701 142 432.601 142.6 432.501 143.3C432.401 143.7 432.201 143.8 432.001 143.8Z" fill="#A8CFF0"/>
<path d="M396.801 172.7H396.701C396.401 172.6 396.001 172.6 395.701 172.5C395.401 172.4 395.301 172.2 395.301 171.9C395.401 171.6 395.601 171.5 395.901 171.5C396.201 171.6 396.501 171.7 396.901 171.7C397.201 171.8 397.301 172 397.301 172.3C397.201 172.5 397.001 172.7 396.801 172.7Z" fill="#A8CFF0"/>
<path d="M332.8 93.5C332.6 93.5 332.4 93.3 332.3 93.1C332.2 92.8 332.2 92.4 332.1 92.1C332.1 91.8 332.2 91.6 332.5 91.5C332.8 91.5 333 91.6 333.1 91.9C333.2 92.2 333.2 92.6 333.3 92.9C333.3 93.2 333.1 93.5 332.8 93.5Z" fill="#A8CFF0"/>
<path d="M424.9 103.7C424.7 103.7 424.5 103.6 424.4 103.4C424.1 102.8 423.9 102.2 423.6 101.5C423.5 101.2 423.6 101 423.9 100.8C424.2 100.7 424.4 100.8 424.6 101.1C424.9 101.7 425.1 102.4 425.4 103C425.5 103.3 425.4 103.5 425.1 103.7C425.1 103.7 425 103.7 424.9 103.7ZM422.9 99C422.7 99 422.5 98.9 422.4 98.7C422.1 98.1 421.8 97.5 421.5 96.9C421.4 96.7 421.5 96.4 421.7 96.2C421.9 96.1 422.2 96.2 422.4 96.4C422.7 97 423 97.6 423.3 98.2C423.4 98.5 423.3 98.7 423.1 98.9C423.1 99 423 99 422.9 99ZM420.7 94.5C420.5 94.5 420.3 94.4 420.3 94.2C420 93.6 419.7 93 419.4 92.4C419.3 92.2 419.4 91.9 419.6 91.7C419.8 91.6 420.1 91.7 420.3 91.9C420.6 92.5 420.9 93.1 421.2 93.7C421.3 93.9 421.2 94.2 421 94.4C420.9 94.4 420.8 94.5 420.7 94.5ZM418.3 90C418.1 90 418 89.9 417.9 89.7C417.6 89.1 417.2 88.5 416.9 87.9C416.8 87.7 416.8 87.4 417.1 87.2C417.3 87.1 417.6 87.1 417.8 87.4C418.1 88 418.5 88.6 418.8 89.2C418.9 89.4 418.8 89.7 418.6 89.9C418.5 90 418.4 90 418.3 90ZM332.1 89.5C331.9 89.5 331.6 89.3 331.6 89.1C331.5 88.4 331.4 87.7 331.4 87.1C331.4 86.8 331.6 86.6 331.8 86.5C332.1 86.5 332.3 86.7 332.4 86.9C332.5 87.6 332.6 88.2 332.6 88.9C332.7 89.2 332.5 89.5 332.1 89.5C332.2 89.5 332.1 89.5 332.1 89.5ZM415.8 85.6C415.6 85.6 415.5 85.5 415.4 85.4C415 84.8 414.7 84.3 414.3 83.7C414.2 83.5 414.2 83.2 414.5 83C414.7 82.9 415 82.9 415.2 83.2C415.6 83.8 415.9 84.3 416.3 84.9C416.4 85.1 416.4 85.4 416.1 85.6C416 85.6 415.9 85.6 415.8 85.6ZM331.6 84.5C331.3 84.5 331.1 84.3 331.1 84C331.1 83.3 331 82.6 331 82C331 81.7 331.2 81.5 331.5 81.5C331.8 81.5 332 81.7 332 82C332 82.7 332.1 83.3 332.1 84C332.1 84.2 331.9 84.5 331.6 84.5ZM413 81.4C412.8 81.4 412.7 81.3 412.6 81.2C412.2 80.6 411.8 80.1 411.5 79.5C411.3 79.3 411.4 79 411.6 78.8C411.8 78.6 412.1 78.7 412.3 78.9C412.7 79.5 413.1 80 413.4 80.6C413.6 80.8 413.5 81.1 413.3 81.3C413.2 81.3 413.1 81.4 413 81.4ZM331.5 79.4C331.2 79.4 331 79.2 331 78.9C331 78.2 331 77.5 331 76.9C331 76.6 331.2 76.4 331.5 76.4C331.8 76.4 332 76.6 332 76.9C332 77.6 332 78.2 332 78.9C332 79.2 331.7 79.4 331.5 79.4ZM410.1 77.2C409.9 77.2 409.8 77.1 409.7 77C409.3 76.5 408.9 75.9 408.5 75.4C408.3 75.2 408.4 74.9 408.6 74.7C408.8 74.5 409.1 74.6 409.3 74.8C409.7 75.3 410.1 75.9 410.5 76.4C410.7 76.6 410.6 76.9 410.4 77.1C410.3 77.2 410.2 77.2 410.1 77.2ZM331.7 74.4C331.4 74.4 331.2 74.1 331.2 73.9C331.3 73.2 331.3 72.5 331.4 71.9C331.4 71.6 331.7 71.4 332 71.5C332.3 71.5 332.5 71.8 332.4 72.1C332.3 72.8 332.3 73.4 332.2 74.1C332.2 74.2 331.9 74.4 331.7 74.4ZM407 73.2C406.9 73.2 406.7 73.1 406.6 73C406.2 72.5 405.8 72 405.3 71.4C405.1 71.2 405.2 70.9 405.4 70.7C405.6 70.5 405.9 70.6 406.1 70.8C406.5 71.3 407 71.8 407.4 72.4C407.6 72.6 407.5 72.9 407.3 73.1C407.2 73.2 407.1 73.2 407 73.2ZM403.8 69.4C403.7 69.4 403.5 69.3 403.4 69.2C403 68.7 402.5 68.2 402.1 67.7C401.9 67.5 401.9 67.2 402.1 67C402.3 66.8 402.6 66.8 402.8 67C403.3 67.5 403.7 68 404.2 68.5C404.4 68.7 404.4 69 404.2 69.2C404 69.3 403.9 69.4 403.8 69.4ZM332.3 69.4C331.9 69.3 331.8 69.1 331.8 68.8C331.9 68.1 332.1 67.5 332.2 66.8C332.3 66.5 332.5 66.4 332.8 66.4C333.1 66.5 333.2 66.7 333.2 67C333.1 67.6 332.9 68.3 332.8 69C332.8 69.2 332.6 69.4 332.3 69.4ZM400.3 65.7C400.2 65.7 400 65.6 399.9 65.5C399.4 65 399 64.5 398.5 64.1C398.3 63.9 398.3 63.6 398.5 63.4C398.7 63.2 399 63.2 399.2 63.4C399.7 63.9 400.2 64.4 400.6 64.8C400.8 65 400.8 65.3 400.6 65.5C400.6 65.6 400.5 65.7 400.3 65.7ZM333.5 64.4H333.4C333.1 64.3 333 64 333.1 63.8C333.3 63.1 333.5 62.5 333.7 61.9C333.8 61.6 334.1 61.5 334.3 61.6C334.6 61.7 334.7 62 334.6 62.2C334.4 62.8 334.2 63.5 334 64.1C333.9 64.3 333.7 64.4 333.5 64.4ZM396.7 62.1C396.6 62.1 396.5 62.1 396.4 62C395.9 61.5 395.4 61.1 394.9 60.6C394.7 60.4 394.7 60.1 394.9 59.9C395.1 59.7 395.4 59.7 395.6 59.9C396.1 60.4 396.6 60.8 397.1 61.3C397.3 61.5 397.3 61.8 397.1 62C397 62.1 396.8 62.1 396.7 62.1ZM335.3 59.7C335.2 59.7 335.2 59.7 335.1 59.7C334.8 59.6 334.7 59.3 334.9 59C335.2 58.4 335.5 57.8 335.8 57.2C335.9 57 336.2 56.9 336.5 57C336.7 57.1 336.8 57.4 336.7 57.7C336.4 58.3 336.1 58.9 335.8 59.5C335.7 59.6 335.5 59.7 335.3 59.7ZM392.9 58.8C392.8 58.8 392.7 58.8 392.6 58.7C392.1 58.3 391.6 57.8 391 57.4C390.8 57.2 390.7 56.9 390.9 56.7C391.1 56.5 391.4 56.4 391.6 56.6C392.1 57 392.7 57.5 393.2 57.9C393.4 58.1 393.4 58.4 393.3 58.6C393.2 58.7 393.1 58.8 392.9 58.8ZM388.9 55.6C388.8 55.6 388.7 55.6 388.6 55.5C388.1 55.1 387.5 54.7 387 54.3C386.8 54.1 386.7 53.8 386.9 53.6C387.1 53.4 387.4 53.3 387.6 53.5C388.2 53.9 388.7 54.3 389.3 54.7C389.5 54.9 389.6 55.2 389.4 55.4C389.2 55.6 389.1 55.6 388.9 55.6ZM337.8 55.3C337.7 55.3 337.6 55.3 337.5 55.2C337.3 55 337.2 54.7 337.4 54.5C337.8 53.9 338.2 53.4 338.6 52.8C338.8 52.6 339.1 52.5 339.3 52.7C339.5 52.9 339.6 53.2 339.4 53.4C339 53.9 338.6 54.5 338.2 55C338.1 55.2 337.9 55.3 337.8 55.3ZM384.8 52.8C384.7 52.8 384.6 52.8 384.5 52.7C383.9 52.3 383.4 52 382.8 51.6C382.6 51.5 382.5 51.1 382.6 50.9C382.7 50.7 383.1 50.6 383.3 50.7C383.9 51 384.5 51.4 385 51.8C385.2 51.9 385.3 52.3 385.2 52.5C385.1 52.7 384.9 52.8 384.8 52.8ZM341 51.4C340.9 51.4 340.7 51.4 340.6 51.3C340.4 51.1 340.4 50.8 340.6 50.6C341.1 50.1 341.6 49.6 342.1 49.2C342.3 49 342.6 49 342.8 49.3C343 49.5 343 49.8 342.7 50C342.2 50.4 341.7 50.9 341.3 51.4C341.2 51.3 341.1 51.4 341 51.4ZM380.4 50.2C380.3 50.2 380.2 50.2 380.2 50.1C379.6 49.8 379 49.5 378.4 49.2C378.2 49.1 378.1 48.8 378.2 48.5C378.3 48.3 378.6 48.2 378.9 48.3C379.5 48.6 380.1 48.9 380.7 49.2C380.9 49.3 381 49.6 380.9 49.9C380.8 50.1 380.6 50.2 380.4 50.2ZM344.9 48.2C344.7 48.2 344.6 48.1 344.5 48C344.3 47.8 344.4 47.5 344.6 47.3C345.2 46.9 345.8 46.6 346.4 46.2C346.6 46.1 346.9 46.2 347.1 46.4C347.2 46.6 347.1 46.9 346.9 47.1C346.3 47.4 345.8 47.8 345.2 48.1C345.1 48.1 345 48.2 344.9 48.2ZM375.9 47.9C375.8 47.9 375.8 47.9 375.7 47.9C375.1 47.6 374.5 47.4 373.9 47.1C373.6 47 373.5 46.7 373.6 46.5C373.7 46.2 374 46.1 374.3 46.2C374.9 46.4 375.6 46.7 376.2 47C376.5 47.1 376.6 47.4 376.5 47.7C376.3 47.8 376.1 47.9 375.9 47.9ZM371.2 46.1C371.1 46.1 371.1 46.1 371 46.1C370.4 45.9 369.7 45.7 369.1 45.5C368.8 45.4 368.7 45.1 368.8 44.9C368.9 44.6 369.1 44.5 369.4 44.6C370 44.8 370.7 45 371.4 45.2C371.7 45.3 371.8 45.6 371.7 45.8C371.6 46 371.4 46.1 371.2 46.1ZM349.3 45.8C349.1 45.8 348.9 45.7 348.8 45.5C348.7 45.2 348.8 45 349.1 44.9C349.7 44.7 350.4 44.4 351.1 44.2C351.4 44.1 351.6 44.3 351.7 44.5C351.8 44.8 351.6 45 351.4 45.1C350.8 45.3 350.1 45.5 349.5 45.7C349.5 45.8 349.4 45.8 349.3 45.8ZM366.3 44.8H366.2C365.5 44.7 364.9 44.5 364.2 44.5C363.9 44.5 363.7 44.2 363.8 43.9C363.8 43.6 364.1 43.4 364.4 43.5C365.1 43.6 365.7 43.7 366.4 43.9C366.7 44 366.8 44.2 366.8 44.5C366.7 44.6 366.5 44.8 366.3 44.8ZM354.2 44.5C354 44.5 353.8 44.3 353.7 44.1C353.7 43.8 353.8 43.6 354.1 43.5C354.8 43.4 355.5 43.3 356.1 43.2C356.4 43.2 356.6 43.4 356.6 43.6C356.6 43.9 356.4 44.1 356.2 44.1C355.6 44.3 354.9 44.4 354.2 44.5C354.3 44.5 354.2 44.5 354.2 44.5ZM361.3 44.1C361.3 44.1 361.2 44.1 361.3 44.1C360.6 44.1 359.9 44 359.3 44C359 44 358.8 43.8 358.8 43.5C358.8 43.2 359 43 359.3 43C360 43 360.7 43 361.4 43.1C361.7 43.1 361.9 43.4 361.9 43.6C361.7 43.9 361.5 44.1 361.3 44.1Z" fill="#A8CFF0"/>
<path d="M426.4 107.5C426.2 107.5 426 107.4 425.9 107.2L425.6 106.3C425.5 106 425.6 105.8 425.9 105.7C426.2 105.6 426.4 105.7 426.5 106L426.8 106.9C426.9 107.2 426.8 107.4 426.5 107.5C426.5 107.5 426.5 107.5 426.4 107.5Z" fill="#A8CFF0"/>
<path d="M408.301 182.1C408.101 182.1 407.901 182 407.801 181.8C407.701 181.5 407.501 181.2 407.401 180.9C407.301 180.6 407.401 180.4 407.701 180.2C408.001 180.1 408.201 180.2 408.401 180.5C408.501 180.8 408.701 181.1 408.801 181.4C408.901 181.7 408.801 181.9 408.501 182.1C408.401 182.1 408.301 182.1 408.301 182.1Z" fill="#EB4680"/>
<path d="M394.5 228.6C393.8 228.6 393.2 228.6 392.5 228.5C392.2 228.5 392 228.2 392 228C392 227.7 392.3 227.5 392.5 227.5C393.1 227.6 393.8 227.6 394.4 227.6C394.7 227.6 394.9 227.8 394.9 228.1C395 228.4 394.8 228.6 394.5 228.6ZM397.4 228.4C397.2 228.4 396.9 228.2 396.9 228C396.9 227.7 397 227.5 397.3 227.4C397.9 227.3 398.6 227.2 399.2 227C399.5 226.9 399.7 227.1 399.8 227.4C399.9 227.7 399.7 227.9 399.4 228C398.9 228.2 398.2 228.3 397.4 228.4C397.5 228.4 397.5 228.4 397.4 228.4ZM389.6 228.1H389.5C388.9 228 388.2 227.8 387.5 227.6C387.2 227.5 387.1 227.2 387.2 227C387.3 226.7 387.6 226.6 387.8 226.7C388.4 226.9 389.1 227 389.7 227.2C390 227.3 390.1 227.5 390.1 227.8C390 227.9 389.8 228.1 389.6 228.1ZM402.2 227C402 227 401.8 226.9 401.7 226.7C401.6 226.4 401.7 226.2 401.9 226C402.5 225.7 403 225.4 403.6 225.1C403.8 225 404.1 225 404.3 225.3C404.4 225.5 404.4 225.8 404.1 226C403.5 226.4 402.9 226.7 402.3 227H402.2ZM384.8 226.6C384.7 226.6 384.7 226.6 384.6 226.6C384 226.4 383.4 226.1 382.8 225.8C382.5 225.7 382.4 225.4 382.6 225.1C382.7 224.8 383 224.7 383.3 224.9C383.9 225.2 384.5 225.4 385.1 225.7C385.4 225.8 385.5 226.1 385.4 226.3C385.2 226.5 385 226.6 384.8 226.6ZM406.2 224.3C406.1 224.3 405.9 224.2 405.8 224.1C405.6 223.9 405.6 223.6 405.8 223.4C406.3 223 406.7 222.5 407.1 222C407.3 221.8 407.6 221.8 407.8 221.9C408 222.1 408 222.4 407.9 222.6C407.5 223.1 407 223.6 406.5 224.1C406.5 224.2 406.4 224.3 406.2 224.3ZM409.4 220.4C409.3 220.4 409.2 220.4 409.1 220.3C408.9 220.2 408.8 219.8 408.9 219.6C409.2 219.1 409.5 218.5 409.8 217.9C409.9 217.7 410.2 217.6 410.5 217.7C410.7 217.8 410.9 218.1 410.7 218.4C410.4 219 410.1 219.6 409.7 220.2C409.7 220.3 409.5 220.4 409.4 220.4ZM411.4 215.9C411.3 215.9 411.3 215.9 411.2 215.9C410.9 215.8 410.8 215.5 410.9 215.3C411.1 214.7 411.3 214.1 411.5 213.4C411.6 213.1 411.8 213 412.1 213C412.4 213.1 412.5 213.3 412.5 213.6C412.3 214.3 412.1 214.9 411.9 215.5C411.8 215.8 411.6 215.9 411.4 215.9ZM412.6 211.1C412.2 211 412.1 210.8 412.1 210.5C412.2 209.9 412.3 209.2 412.4 208.6C412.4 208.3 412.7 208.1 412.9 208.2C413.2 208.2 413.4 208.5 413.3 208.7C413.2 209.4 413.1 210 413 210.7C413.1 211 412.9 211.1 412.6 211.1ZM413.1 206.2C412.8 206.2 412.6 206 412.6 205.7C412.6 205.3 412.6 204.8 412.6 204.3V203.7C412.6 203.4 412.8 203.2 413.1 203.2C413.4 203.2 413.6 203.4 413.6 203.7V204.3C413.6 204.8 413.6 205.2 413.6 205.7C413.6 206 413.4 206.2 413.1 206.2ZM413 201.3C412.7 201.3 412.5 201.1 412.5 200.8C412.5 200.2 412.4 199.5 412.3 198.8C412.3 198.5 412.5 198.3 412.7 198.2C413 198.2 413.2 198.4 413.3 198.6C413.4 199.3 413.4 199.9 413.5 200.6C413.5 201 413.3 201.2 413 201.3ZM412.4 196.4C412.2 196.4 411.9 196.2 411.9 196C411.8 195.4 411.7 194.7 411.5 194.1C411.4 193.8 411.6 193.6 411.9 193.5C412.2 193.4 412.4 193.6 412.5 193.9C412.6 194.6 412.8 195.2 412.9 195.9C412.9 196 412.7 196.3 412.4 196.4ZM411.4 191.5C411.2 191.5 411 191.3 410.9 191.1C410.7 190.5 410.6 189.8 410.4 189.2C410.3 188.9 410.5 188.7 410.7 188.6C411 188.5 411.2 188.7 411.3 188.9C411.5 189.5 411.7 190.2 411.8 190.8C411.9 191.1 411.7 191.3 411.4 191.4C411.4 191.5 411.4 191.5 411.4 191.5ZM410 186.7C409.8 186.7 409.6 186.6 409.5 186.4C409.3 185.8 409.1 185.2 408.9 184.5C408.8 184.2 408.9 184 409.2 183.9C409.5 183.8 409.7 183.9 409.8 184.2C410 184.8 410.2 185.5 410.4 186.1C410.5 186.4 410.3 186.6 410.1 186.7H410Z" fill="#EB4680"/>
<path d="M380.3 224.5C380.2 224.5 380.1 224.5 380.1 224.4C379.8 224.2 379.5 224.1 379.2 223.9C379 223.8 378.9 223.5 379 223.2C379.1 223 379.4 222.9 379.7 223C380 223.2 380.3 223.3 380.6 223.5C380.8 223.6 380.9 223.9 380.8 224.2C380.7 224.4 380.5 224.5 380.3 224.5Z" fill="#EB4680"/>
<path d="M407.1 182.6C406.8 182.6 406.6 182.3 406.6 182.1L406.8 179.4C406.8 179.2 406.9 179.1 407.1 179C407.3 178.9 407.5 178.9 407.6 179.1L409.9 180.8C410.1 181 410.2 181.3 410 181.5C409.8 181.7 409.5 181.8 409.3 181.6L407.8 180.5L407.7 182.2C407.6 182.4 407.4 182.6 407.1 182.6Z" fill="#EB4680"/>
<path d="M225.6 94C225.6 90.7 221 88 215.3 88C209.6 88 205 90.6 205 93.9C205 96.9 208.9 99.4 213.9 99.8V101.5C212.9 101.6 212.2 102.1 212.3 102.7V108.4C212.3 109.1 213.3 109.7 214.5 109.7H216.2C217.4 109.7 218.4 109.1 218.4 108.4V102.7C218.4 102.1 217.7 101.6 216.7 101.5V99.8C221.8 99.4 225.6 97 225.6 94Z" fill="white"/>
<path d="M350.3 326.4L171.5 223.1C164.6 219.1 159 208.4 159 199.2V36.5C159 27.3 164.6 23 171.5 27L350.3 130.3C357.2 134.3 362.8 145 362.8 154.2V316.8C362.8 326.1 357.2 330.4 350.3 326.4Z" fill="#D1EBFF"/>
<path d="M355.199 127.8L176.399 24.5C173.699 22.9 171.099 22.6 169.099 23.4C168.799 23.5 163.899 26 163.699 26.2C165.799 25.2 168.499 25.4 171.499 27.1L350.299 130.4C357.199 134.4 362.799 145.1 362.799 154.3V316.9C362.799 322.7 360.599 326.5 357.299 327.6C357.599 327.6 357.899 327.5 358.399 327.2C358.599 327.1 363.799 324.3 363.899 324.2C366.299 322.5 367.799 319.1 367.799 314.4V151.7C367.699 142.5 362.099 131.8 355.199 127.8Z" fill="#3F92D1"/>
<path d="M353.799 128.4L174.999 25.1999C172.299 23.5999 169.699 23.2999 167.699 24.0999C167.399 24.1999 163.899 26.0999 163.699 26.1999C165.799 25.1999 168.499 25.3999 171.499 27.0999L350.299 130.4L353.799 128.4Z" fill="#4F9FDB"/>
<path d="M350.9 130L172.1 26.7999C169.3 25.1999 166.7 24.8999 164.6 25.7999C166.4 25.4999 168.5 25.8999 170.6 27.1999L349.4 130.5C356.3 134.5 361.9 145.2 361.9 154.4V317C361.9 322.4 359.9 326.1 356.9 327.4C360.8 326.8 363.4 322.8 363.4 316.5V154C363.4 144.8 357.8 134 350.9 130Z" fill="white"/>
<path d="M166 51V199.2C166 206.4 169.4 213.5 175 217.1L351.9 319.3C352 319.3 352.1 319.4 352.2 319.5C353.8 320.4 355.8 319.3 355.8 317.4V160.6L166 51Z" fill="#03336E"/>
<path d="M355.5 318C355.4 317.9 355.3 317.9 355.2 317.8L178.3 215.7C172.7 212.2 169.3 205.1 169.3 197.8V52.9L166 51V199.2C166 206.4 169.4 213.5 175 217.1L351.9 319.3C352 319.3 352.1 319.4 352.2 319.5C353.6 320.3 355.2 319.6 355.6 318.2C355.6 318 355.5 318 355.5 318Z" fill="#001A46"/>
<path d="M345.801 142.8C345.801 145 347.301 147.6 349.201 148.7C351.101 149.8 352.601 148.9 352.601 146.7C352.601 144.5 351.101 141.9 349.201 140.8C347.301 139.8 345.801 140.6 345.801 142.8Z" fill="#FFCC00"/>
<path d="M336.9 137.7C336.9 139.9 338.4 142.5 340.3 143.6C342.2 144.7 343.7 143.8 343.7 141.6C343.7 139.4 342.2 136.8 340.3 135.7C338.4 134.6 336.9 135.5 336.9 137.7Z" fill="#EB4680"/>
<path d="M328 132.5C328 134.7 329.5 137.3 331.4 138.4C333.3 139.5 334.8 138.6 334.8 136.4C334.8 134.2 333.3 131.6 331.4 130.5C329.5 129.4 328 130.3 328 132.5Z" fill="#0FBAB8"/>
<path d="M282.599 127.5L269.599 120C268.299 119.2 267.199 119.8 267.199 121.4C267.199 122.9 268.299 124.7 269.599 125.5L282.599 133C283.899 133.8 284.999 133.2 284.999 131.6C284.999 130.1 283.999 128.3 282.599 127.5ZM303.999 139.9L290.999 132.4C289.699 131.6 288.599 132.2 288.599 133.8C288.599 135.3 289.699 137.1 290.999 137.9L303.999 145.4C305.299 146.2 306.399 145.6 306.399 144C306.399 142.5 305.299 140.6 303.999 139.9ZM325.399 152.2L312.399 144.7C311.099 143.9 309.999 144.5 309.999 146.1C309.999 147.6 311.099 149.4 312.399 150.2L325.399 157.7C326.699 158.5 327.799 157.9 327.799 156.3C327.699 154.8 326.699 153 325.399 152.2ZM346.699 164.5L333.699 157C332.399 156.2 331.299 156.8 331.299 158.4C331.299 159.9 332.399 161.7 333.699 162.5L346.699 170C347.999 170.8 349.099 170.2 349.099 168.6C349.099 167.1 347.999 165.3 346.699 164.5Z" fill="#72B5E8"/>
<path d="M231.201 138.3V194.1L237.301 190.5V134.5L231.201 138.3Z" fill="#2672AB"/>
<path d="M231.2 138.3V194.1L109.4 124.2V68.2L231.2 138.3Z" fill="#3F92D1"/>
<path d="M109.4 68.2L231.2 138.3L237.3 134.5L115.4 64.6L109.4 68.2Z" fill="#72B5E8"/>
<path opacity="0.7" d="M109.4 68.2L231.2 138.3L237.3 134.5L231.2 137.4L109.4 68.2Z" fill="white"/>
<path d="M213.4 173.8V171.5L174.9 149.6V152L213.4 173.8Z" fill="white"/>
<path d="M158.301 105.5V107.9L222.901 144.9V142.5L158.301 105.5Z" fill="white"/>
<path d="M181.001 138.4L158.301 125.2V127.6L181.001 140.7V138.4Z" fill="white"/>
<path d="M196.4 157.1V159.5L205.8 164.6V162.2L196.4 157.1Z" fill="white"/>
<path d="M195.001 136.6L158.301 115.4V117.7L195.001 138.9V136.6Z" fill="white"/>
<path d="M171.701 128.1L158.301 120.3V122.7L171.701 130.4V128.1Z" fill="white"/>
<path d="M168.301 143.2L194.101 158.1V155.7L168.301 140.9V143.2Z" fill="white"/>
<path d="M174 129.4V131.8L210.3 152.3V150L174 129.4Z" fill="white"/>
<path d="M183.4 139.7V142.1L201.5 152.5V150.2L183.4 139.7Z" fill="white"/>
<path d="M166.001 139.5L158.301 135.1V137.4L166.001 141.9V139.5Z" fill="white"/>
<path d="M197.301 140.3L222.901 154.7V152.3L197.301 137.9V140.3Z" fill="white"/>
<path d="M212.602 153.7L222.902 159.6V157.3L212.602 151.3V153.7Z" fill="white"/>
<path d="M158.301 112.8L222.901 149.8V147.4L158.301 110.4V112.8Z" fill="white"/>
<path d="M203.801 153.9L222.901 164.6V162.2L203.801 151.5V153.9Z" fill="white"/>
<path d="M172.601 148.3L158.301 140V142.4L172.601 150.6V148.3Z" fill="white"/>
<path d="M215.701 175.2L222.901 179.3V177L215.701 172.8V175.2Z" fill="white"/>
<path d="M208.102 165.9L222.902 174.4V172L208.102 163.5V165.9Z" fill="white"/>
<path d="M158.301 132.5L222.901 169.5V167.1L158.301 130.1V132.5Z" fill="white"/>
<path d="M144.801 96.1L123.501 83.9C119.801 81.8 116.801 84 116.801 89V113.6C116.801 118.6 119.801 124.3 123.501 126.4L144.701 138.7C148.401 140.8 151.401 138.6 151.401 133.6V109C151.501 104 148.501 98.3 144.801 96.1Z" fill="#2672AB"/>
<path d="M147.401 136.7L126.201 124.4C122.501 122.3 119.501 116.5 119.501 111.6V86.9C119.501 85.3 119.801 84 120.301 83.1C118.201 83.4 116.801 85.6 116.801 88.9V113.5C116.801 118.5 119.801 124.2 123.501 126.3L144.701 138.6C147.201 140.1 149.401 139.5 150.601 137.4C149.701 137.6 148.601 137.4 147.401 136.7Z" fill="#084C94"/>
<path d="M128.301 103L107.001 90.7C103.301 88.6 100.301 90.8 100.301 95.8V120.4C100.301 125.4 103.301 131.1 107.001 133.2L128.201 145.5C131.901 147.6 134.901 145.4 134.901 140.4V115.9C135.001 110.9 132.001 105.2 128.301 103Z" fill="#0FBAB8"/>
<path d="M131.702 101L110.502 88.7C108.902 87.8 107.502 87.7 106.302 88.2L102.602 90.4C103.802 89.7 105.302 89.7 107.002 90.7L128.302 103C132.002 105.2 135.002 110.9 135.002 115.9V140.5C135.002 142.9 134.302 144.7 133.102 145.6L135.102 144.3C136.802 143.3 138.402 141.8 138.402 138.5V113.8C138.502 108.9 135.402 103.1 131.702 101Z" fill="#0BA19F"/>
<path opacity="0.7" d="M128.601 102.7L107.401 90.4C105.601 89.3 103.901 89.4 102.701 90.3C103.801 89.9 105.201 90 106.601 90.9L127.801 103.2C131.501 105.3 134.501 111.1 134.501 116V140.6C134.501 143.1 133.701 144.9 132.501 145.8C134.201 145.2 135.301 143.1 135.301 140.1V115.6C135.401 110.6 132.401 104.9 128.601 102.7Z" fill="white"/>
<path d="M105.9 97.5V125.6L129 139V110.8L105.9 97.5ZM127.5 136.4L107.4 124.8V100.1L127.5 111.7V136.4Z" fill="white"/>
<path d="M123.902 115.8C123.902 117.6 122.602 118.4 121.002 117.5C119.402 116.6 118.102 114.3 118.102 112.5C118.102 110.7 119.402 109.9 121.002 110.8C122.602 111.7 123.902 114 123.902 115.8Z" fill="white"/>
<path d="M106.701 118.2L112.701 110.4L118.801 125.8L123.201 122.2L128.101 135.5L128.001 136.9L106.801 125.5L106.701 118.2Z" fill="white"/>
<path d="M387.799 119.2C387.799 123 386.499 125.7 384.299 127C384.199 127 380.599 129.3 380.599 129.3C378.399 130.5 379.799 127.7 376.399 125.8C369.599 121.9 363.999 112.3 363.999 104.5C363.999 100.6 360.399 100.6 362.599 99.3C362.699 99.3 366.699 97 366.799 96.9C368.999 95.7 372.099 95.9 375.399 97.9C382.199 101.9 387.799 111.4 387.799 119.2Z" fill="#FFCC00"/>
<path d="M372 100C368.7 98.1 365.8 97.9 363.5 99C365.6 98.4 368.1 98.9 370.9 100.5C377.7 104.4 383.3 114 383.3 121.8C383.3 125.9 381.8 128.7 379.4 129.9C382.4 129.1 384.4 126.1 384.4 121.4C384.3 113.5 378.8 104 372 100Z" fill="white"/>
<path d="M380.166 129.502C384.981 126.687 384.953 117.68 380.103 109.383C375.253 101.087 367.418 96.6443 362.602 99.4595C357.787 102.275 357.815 111.282 362.665 119.578C367.515 127.875 375.35 132.318 380.166 129.502Z" fill="#FFD70F"/>
<path d="M369.199 109.4C369.199 110.5 368.399 110.9 367.499 110.4C366.499 109.8 365.799 108.5 365.799 107.4C365.799 106.3 366.599 105.9 367.499 106.4C368.399 107 369.199 108.3 369.199 109.4Z" fill="#D99F00"/>
<path d="M376.199 113.5C376.199 114.6 375.399 115 374.499 114.5C373.499 113.9 372.799 112.6 372.799 111.5C372.799 110.4 373.599 110 374.499 110.5C375.399 111.1 376.199 112.4 376.199 113.5Z" fill="#D99F00"/>
<path d="M364.4 114L366 114.3C366.7 117.1 368.7 119.9 371 121.2C373.2 122.4 375.1 122 375.9 120.2L377.5 121.8C376.5 124.3 373.8 124.8 371 123.2C368 121.4 365.4 117.7 364.4 114Z" fill="#D99F00"/>
<path d="M367.899 110.1C366.899 109.5 366.199 108.2 366.199 107.1C366.199 106.7 366.299 106.5 366.399 106.3C365.999 106.4 365.699 106.8 365.699 107.5C365.699 108.6 366.499 109.9 367.399 110.5C367.999 110.9 368.599 110.8 368.899 110.4C368.599 110.4 368.299 110.3 367.899 110.1Z" fill="#B08100"/>
<path d="M374.899 114.1C373.899 113.5 373.199 112.2 373.199 111.1C373.199 110.7 373.299 110.5 373.399 110.3C372.999 110.4 372.699 110.8 372.699 111.5C372.699 112.6 373.499 113.9 374.399 114.5C374.999 114.9 375.599 114.8 375.899 114.4C375.699 114.4 375.299 114.3 374.899 114.1Z" fill="#B08100"/>
<path d="M376.101 120.3L375.901 120.1C375.701 120.5 375.501 120.9 375.201 121.2C375.501 121 375.801 120.7 376.101 120.3Z" fill="#B08100"/>
<path d="M371.5 122.8C368.7 121.2 366.1 117.7 365 114.1L364.4 114C365.4 117.8 368 121.4 371 123.1C373.2 124.3 375.2 124.3 376.5 123.2C375.1 124 373.4 123.9 371.5 122.8Z" fill="#B08100"/>
<path d="M381.701 242V310.2L387.801 306.7V238.3L381.701 242Z" fill="#2672AB"/>
<path d="M381.7 242V310.2L248.4 233.8V165.5L381.7 242Z" fill="#3F92D1"/>
<path d="M248.4 165.5L381.7 242L387.8 238.3L254.5 161.8L248.4 165.5Z" fill="#72B5E8"/>
<path opacity="0.7" d="M248.4 165.5L381.7 242L387.8 238.3L381.7 241.2L248.4 165.5Z" fill="white"/>
<path d="M367.578 285.268C375.684 280.529 375.589 265.286 367.366 251.221C359.143 237.155 345.906 229.595 337.801 234.333C329.696 239.072 329.791 254.315 338.014 268.38C346.236 282.446 359.473 290.006 367.578 285.268Z" fill="#2672AB"/>
<path d="M354.701 282.1C343.101 275.4 333.801 259.3 333.801 246C333.801 241.1 335.101 237.2 337.301 234.7C333.901 237 331.801 241.5 331.801 247.8C331.801 261.1 341.201 277.2 352.701 283.9C359.901 288.1 366.301 287.5 370.101 283.3C366.301 285.8 360.801 285.6 354.701 282.1Z" fill="#084C94"/>
<path d="M294.001 202.9L289.501 200.3V251L294.001 253.6V202.9ZM300.501 200.3L296.001 197.7V254.6L300.501 257.2V200.3ZM307.101 211.8L302.601 209.2V258.5L307.101 261.1V211.8ZM276.201 215.4V243.2L280.701 245.8V218L276.201 215.4ZM287.301 207.6L282.801 205V246.9L287.301 249.5V207.6ZM313.701 225.9L309.201 223.3V262.3L313.701 264.9V225.9ZM320.101 242L315.601 239.4V266L320.101 268.6V242ZM274.001 210.6L269.501 208V239.2L274.001 241.8V210.6ZM256.201 212.4V231.3L260.701 233.9V215L256.201 212.4ZM267.301 205L262.801 202.4V235.1L267.301 237.7V205Z" fill="#2672AB"/>
<path d="M294.001 222.8L289.501 220.2V251L294.001 253.6V222.8ZM300.501 208.8L296.001 206.2V254.7L300.501 257.3V208.8ZM307.101 220.8L302.601 218.2V258.5L307.101 261.1V220.8ZM276.201 222.1V243.1L280.701 245.7V224.7L276.201 222.1ZM287.301 221.3L282.801 218.7V247L287.301 249.6V221.3ZM274.001 213.1L269.501 210.5V239.1L274.001 241.7V213.1ZM256.201 225.8V231.3L260.701 233.9V228.4L256.201 225.8ZM267.301 225.8L262.801 223.2V235.1L267.301 237.7V225.8ZM313.701 233.1L309.201 230.5V262.2L313.701 264.8V233.1ZM320.101 245.9L315.601 243.3V266L320.101 268.6V245.9Z" fill="#A8CFF0"/>
<path d="M307.102 221.4L302.602 218.8V218.2L307.102 220.8V221.4Z" fill="white"/>
<path d="M300.502 209.3L296.002 206.8V206.2L300.502 208.8V209.3Z" fill="white"/>
<path d="M320.102 246.5L315.602 243.9V243.3L320.102 245.9V246.5Z" fill="white"/>
<path d="M294.002 223.3L289.502 220.8V220.2L294.002 222.8V223.3Z" fill="white"/>
<path d="M313.701 233.7L309.201 231.1V230.5L313.701 233.1V233.7Z" fill="white"/>
<path d="M267.301 226.4L262.801 223.8V223.2L267.301 225.8V226.4Z" fill="white"/>
<path d="M274.002 213.7L269.502 211.1V210.5L274.002 213.1V213.7Z" fill="white"/>
<path d="M260.701 228.4V229L256.201 226.4V225.8L260.701 228.4Z" fill="white"/>
<path d="M287.301 221.9L282.801 219.3V218.7L287.301 221.3V221.9Z" fill="white"/>
<path d="M280.701 225.3L276.201 222.7V222.1L280.701 224.7V225.3Z" fill="white"/>
<path d="M332.1 251C332.4 241 339.7 237 348.6 242.2C353.2 244.9 357.4 249.4 360.4 254.7L363.7 253.9C359.9 247.1 354.6 241.1 348.6 237.7C337.4 231.2 328.2 236.3 328.1 249.1L330.7 251.5L332.1 251Z" fill="#FFCC00"/>
<path d="M356.9 282.2C354.5 282.4 351.6 281.7 348.6 280C340.1 275.1 333.1 263.7 332.2 253.8L328.2 251.8C328.2 251.9 326.9 252.1 326.9 252.2C328.1 264.6 338.1 278.6 348.7 284.7C352.5 286.9 355.1 288.1 358.2 287.7C358.3 287.7 359.5 287.4 359.6 287.3L356.9 282.2Z" fill="#FFCC00"/>
<path d="M361.9 257.6C363.9 261.9 365.1 266.4 365.1 270.6C365.1 276.6 362.7 280.5 358.9 281.8L361.5 286.9C366.2 285.3 369.2 280.4 369.2 273C369.2 267.8 367.7 262.2 365.2 256.8L361.9 257.6Z" fill="#FFCC00"/>
<path d="M354.3 265.9C353.2 265 352.2 263.8 351.4 262.4C350.9 261.6 350.9 260.7 351.4 260.5C352 260.1 352.5 259.6 352.9 258.9C353.4 259 354 258.9 354 258.2C354 257.5 353.7 256.7 353.3 256.3C353.2 253.3 352.1 250.1 348.6 248.1C347.4 247.4 346.5 247.2 345.8 247.3C345.6 247.3 344.3 247.7 344.1 247.8C343.2 248.3 344 249.3 344 250.9C343.6 250.8 343.3 251.2 343.3 251.9C343.3 252.6 343.9 253.5 344.4 254C344.7 255.1 345.3 256.3 345.9 257.4C346.4 258.2 346.4 259.1 345.9 259.3C345.1 259.7 344.1 259.8 343 259.4C342.6 259.3 342.1 259.3 341.8 259.4C341.7 259.4 340.5 259.8 340.4 259.8C339.7 260.1 340.5 260.6 340.5 261.7V264.8C340.5 265.4 340.9 266.1 341.5 266.5L354.9 275.4C355.1 275.5 356.5 275.1 356.6 275C356.8 274.9 356.9 274.7 356.9 274.4V271.3C356.8 269.3 355.8 267.2 354.3 265.9Z" fill="#FFCC00"/>
<path d="M331.201 251.2C331.501 241.2 338.801 237.2 347.701 242.4C352.301 245.1 356.501 249.6 359.501 254.9L362.801 254.1C359.001 247.3 353.701 241.3 347.701 237.9C336.501 231.4 327.301 236.5 327.201 249.3L331.201 251.2Z" fill="white"/>
<path d="M356.001 282.5C353.601 282.7 350.701 282 347.701 280.3C339.201 275.4 332.201 264 331.301 254.1L327.301 252.1C328.401 264.6 337.101 278.9 347.701 285C351.701 287.3 355.401 288.1 358.601 287.7L356.001 282.5Z" fill="white"/>
<path d="M361.002 257.9C363.002 262.2 364.202 266.7 364.202 270.9C364.202 276.9 361.802 280.8 358.002 282.1L360.602 287.2C365.302 285.6 368.302 280.7 368.302 273.3C368.302 268.1 366.802 262.5 364.302 257.1L361.002 257.9Z" fill="white"/>
<path d="M353.4 266.2C352.3 265.3 351.3 264.1 350.5 262.7C350 261.9 350 261 350.5 260.8C351.1 260.4 351.6 259.9 352 259.2C352.5 259.3 353.1 259.2 353.1 258.5C353.1 257.8 352.8 257 352.4 256.6C352.3 253.6 351.2 250.4 347.7 248.4C344.2 246.4 343.2 248.3 343 251.2C342.6 251.1 342.3 251.5 342.3 252.2C342.3 252.9 342.9 253.8 343.4 254.3C343.7 255.4 344.3 256.6 344.9 257.7C345.4 258.5 345.4 259.4 344.9 259.6C344.1 260 343.1 260.1 342 259.7C340.5 259.3 339.4 260.1 339.4 261.9V265C339.4 265.6 339.8 266.3 340.4 266.7L354.9 275.1C355.4 275.4 355.9 275.2 355.9 274.6V271.5C355.9 269.6 354.9 267.4 353.4 266.2Z" fill="white"/>
<path d="M330.701 251.3C331.001 241.3 338.301 237.3 347.201 242.5C351.801 245.2 356.001 249.7 359.001 255L362.301 254.2C358.501 247.4 353.201 241.4 347.201 238C336.001 231.5 326.801 236.6 326.701 249.4L330.701 251.3Z" fill="#FFDE17"/>
<path d="M355.501 282.6C353.101 282.8 350.201 282.1 347.201 280.4C338.701 275.5 331.701 264.1 330.801 254.2L326.801 252.2C327.901 264.7 336.601 279 347.201 285.1C351.201 287.4 354.901 288.2 358.101 287.8L355.501 282.6Z" fill="#FFDE17"/>
<path d="M360.502 258C362.502 262.3 363.702 266.8 363.702 271C363.702 277 361.302 280.9 357.502 282.2L360.102 287.3C364.802 285.7 367.802 280.8 367.802 273.4C367.802 268.2 366.302 262.6 363.802 257.2L360.502 258Z" fill="#FFDE17"/>
<path d="M352.9 266.3C351.8 265.4 350.8 264.2 350 262.8C349.5 262 349.5 261.1 350 260.9C350.6 260.5 351.1 260 351.5 259.3C352 259.4 352.6 259.3 352.6 258.6C352.6 257.9 352.3 257.1 351.9 256.7C351.8 253.7 350.7 250.5 347.2 248.5C343.7 246.5 342.7 248.4 342.5 251.3C342.1 251.2 341.8 251.6 341.8 252.3C341.8 253 342.4 253.9 342.9 254.4C343.2 255.5 343.8 256.7 344.4 257.8C344.9 258.6 344.9 259.5 344.4 259.7C343.6 260.1 342.6 260.2 341.5 259.8C340 259.4 338.9 260.2 338.9 262V265.1C338.9 265.7 339.3 266.4 339.9 266.8L354.4 275.2C354.9 275.5 355.4 275.3 355.4 274.7V271.6C355.4 269.7 354.3 267.5 352.9 266.3Z" fill="#FFDE17"/>
<path d="M249.199 224.9V253.5L253.899 250.8V222.1L249.199 224.9Z" fill="#0BA19F"/>
<path d="M249.2 224.9V253.5L143.5 192.5V163.8L249.2 224.9Z" fill="#0FBAB8"/>
<path d="M143.5 163.8L249.2 224.9L253.9 222.1L148.3 161L143.5 163.8Z" fill="#3ECFCD"/>
<path opacity="0.7" d="M143.5 163.8L249.2 224.9L253.9 222.1L249.3 224.2L143.5 163.8Z" fill="white"/>
<path d="M243.799 244.8L148.699 189.3V172.5L243.799 228V244.8Z" fill="white"/>
<path d="M152.699 177.3L154.599 178.4L155.499 187.6L156.399 179.5L158.599 180.8L159.499 190L160.399 181.8L162.099 182.8L160.999 194.1L158.499 192.7L157.599 184.9L156.699 191.7L154.099 190.2L152.699 177.3Z" fill="#084C94"/>
<path d="M164.1 183.9L166 185L166.9 194.2L167.8 186.1L170 187.4L170.9 196.6L171.8 188.4L173.5 189.4L172.2 200.7L169.7 199.3L168.8 191.5L167.9 198.3L165.3 196.8L164.1 183.9Z" fill="#084C94"/>
<path d="M175.6 190.4L177.5 191.5L178.4 200.7L179.3 192.6L181.5 193.9L182.4 203.1L183.3 194.9L185 195.9L183.7 207.2L181.2 205.8L180.3 198L179.4 204.8L176.8 203.3L175.6 190.4Z" fill="#084C94"/>
<path d="M191.5 78V97.9L194.5 96.3V76.2L191.5 78Z" fill="#FFCC00"/>
<path d="M191.501 77.9999V97.8999L173.801 87.6999V67.5999L191.501 77.9999Z" fill="#FFD70F"/>
<path d="M173.801 67.5999L191.501 77.9999L194.501 76.1999L176.701 65.8999L173.801 67.5999Z" fill="#FFDE17"/>
<path d="M173.801 67.5999L191.501 77.9999L194.501 76.1999L191.401 76.9999L173.801 67.5999Z" fill="white"/>
<path d="M207.1 71.3999V103.6L211.9 100.9V68.3999L207.1 71.3999Z" fill="#D62D69"/>
<path d="M178.4 54.5L207.1 71.4L211.9 68.4L183.2 51.7L178.4 54.5Z" fill="#F76195"/>
<path opacity="0.7" d="M178.4 54.5L207.1 71.4L211.9 68.4L207.2 70.7L178.4 54.5Z" fill="white"/>
<path d="M178.4 54.5V67.9L193.6 76.8V95.8L207.1 103.6V71.4L178.4 54.5Z" fill="#EB4680"/>
<path d="M268.4 149.2V171.5L271.8 169.6V147.2L268.4 149.2Z" fill="#0BA19F"/>
<path d="M268.4 149.2V171.5L248.6 160V137.6L268.4 149.2Z" fill="#0FBAB8"/>
<path d="M248.6 137.6L268.4 149.2L271.8 147.2L251.9 135.6L248.6 137.6Z" fill="#3ECFCD"/>
<path opacity="0.7" d="M248.6 137.6L268.4 149.2L271.8 147.2L268.3 148.1L248.6 137.6Z" fill="white"/>
<path d="M294.4 164.2V186.5L297.8 184.6V162.2L294.4 164.2Z" fill="#0BA19F"/>
<path d="M294.4 164.2V186.5L274.6 175V152.6L294.4 164.2Z" fill="#0FBAB8"/>
<path d="M274.6 152.6L294.4 164.2L297.8 162.2L277.9 150.6L274.6 152.6Z" fill="#3ECFCD"/>
<path opacity="0.7" d="M274.6 152.6L294.4 164.2L297.8 162.2L294.3 163.1L274.6 152.6Z" fill="white"/>
<path d="M320.301 179V201.3L323.601 199.4V177L320.301 179Z" fill="#0BA19F"/>
<path d="M320.3 179V201.3L300.5 189.8V167.4L320.3 179Z" fill="#0FBAB8"/>
<path d="M300.5 167.4L320.3 179L323.6 177L303.8 165.5L300.5 167.4Z" fill="#3ECFCD"/>
<path opacity="0.7" d="M300.5 167.4L320.3 179L323.6 177L320.1 178L300.5 167.4Z" fill="white"/>
<path d="M345.801 193.5V215.8L349.101 213.9V191.5L345.801 193.5Z" fill="#0BA19F"/>
<path d="M345.8 193.5V215.8L326 204.3V181.9L345.8 193.5Z" fill="#0FBAB8"/>
<path d="M326 181.9L345.8 193.5L349.1 191.5L329.3 180L326 181.9Z" fill="#3ECFCD"/>
<path opacity="0.7" d="M326 181.9L345.8 193.5L349.1 191.5L345.6 192.5L326 181.9Z" fill="white"/>
<path d="M314.3 188.5C313.6 187.9 313 187.1 312.5 186.3C312.2 185.8 312.2 185.2 312.5 185.1C312.9 184.9 313.2 184.5 313.4 184.1C313.7 184.2 314.1 184.1 314.1 183.6C314.1 183.2 313.9 182.7 313.6 182.4C313.5 180.5 312.9 178.5 310.7 177.2C308.5 175.9 307.8 177.1 307.8 179C307.5 178.9 307.3 179.2 307.3 179.7C307.3 180.1 307.7 180.7 308 181C308.2 181.7 308.6 182.5 308.9 183.1C309.2 183.6 309.2 184.2 308.9 184.3C308.4 184.6 307.8 184.6 307.1 184.4C306.2 184.1 305.5 184.7 305.5 185.8V187.8C305.5 188.2 305.8 188.7 306.1 188.8L315.3 194.1C315.6 194.3 315.9 194.1 315.9 193.8V191.8C315.9 190.6 315.3 189.3 314.3 188.5Z" fill="white"/>
<path d="M329.5 202.8L332.7 204.7V198.9L329.5 197V202.8ZM334.6 205.7L337.8 207.6V197L334.6 195.1V205.7ZM339.7 193.3V208.7L342.9 210.6V195.2L339.7 193.3Z" fill="white"/>
<path d="M289.7 172.8C289.7 172.5 289.7 172.2 289.6 171.9L291.1 171.7C290.9 170.9 290.7 170.2 290.4 169.4L288.7 168.9C288.4 168.3 288 167.6 287.6 167L288 165.3C287.5 164.7 286.9 164.1 286.3 163.6L285.4 164.8C285.2 164.6 284.9 164.4 284.6 164.3C284.3 164.2 284.1 164 283.8 163.9L282.9 161.6C282.3 161.4 281.8 161.4 281.2 161.4L281.6 163.6C281.2 163.7 280.8 163.9 280.5 164.2L278.8 162.7C278.5 163.1 278.3 163.6 278.1 164.2L279.6 166.1C279.6 166.4 279.5 166.6 279.5 166.9C279.5 167.2 279.5 167.5 279.6 167.8L278.1 168C278.3 168.8 278.5 169.5 278.8 170.3L280.5 170.8C280.8 171.4 281.2 172.1 281.6 172.7L281.2 174.4C281.7 175 282.3 175.6 282.9 176.1L283.8 174.9C284 175.1 284.3 175.3 284.6 175.4C284.9 175.5 285.1 175.7 285.4 175.8L286.3 178.1C286.9 178.3 287.4 178.3 288 178.3L287.6 176.1C288 176 288.4 175.8 288.7 175.5L290.4 177C290.7 176.6 290.9 176.1 291.1 175.5L289.6 173.6C289.7 173.3 289.7 173.1 289.7 172.8ZM284.7 172.2C283.6 171.6 282.7 170 282.7 168.8C282.7 167.5 283.6 167 284.7 167.7C285.8 168.3 286.7 169.9 286.7 171.1C286.7 172.3 285.8 172.8 284.7 172.2Z" fill="white"/>
<path d="M252.299 146.4L258.699 156.4L265.099 153.8C264.899 153.5 264.599 153.2 264.299 153.1L252.999 146.6C252.799 146.4 252.499 146.4 252.299 146.4Z" fill="white"/>
<path d="M265.099 153.8L258.699 157.4L256.899 154.3L252.299 156.2L256.499 153.8L252.299 146.5C251.999 146.6 251.799 146.9 251.799 147.3V154.9C251.799 155.7 252.399 156.7 253.099 157.1L264.399 163.6C265.099 164 265.699 163.7 265.699 162.9V155.3C265.599 154.8 265.399 154.3 265.099 153.8ZM265.099 163.6L260.499 156.5L260.799 156.3L265.099 163.6Z" fill="white"/>
<path d="M168.6 214.3V242.8L173.2 240.3V211.6L168.6 214.3Z" fill="#2672AB"/>
<path d="M168.7 214.3V242.8L92 198.6V169.9L168.7 214.3Z" fill="#3F92D1"/>
<path d="M92 169.9L168.7 214.3L173.2 211.6L96.4 167.2L92 169.9Z" fill="#72B5E8"/>
<path opacity="0.7" d="M92 169.9L168.7 214.3L173.2 211.6L168.5 213.4L92 169.9Z" fill="white"/>
<path d="M121.6 191.7L107.6 183.6C106.7 183.1 106 183.5 106 184.5V194C106 195 106.7 196.2 107.6 196.7L116.4 201.8L120.8 209.4V204.4L121.7 204.9C122.6 205.4 123.3 205 123.3 204V194.5C123.2 193.4 122.5 192.2 121.6 191.7ZM111.7 193.5C111.2 193.8 110.5 193.3 110 192.5C109.5 191.7 109.5 190.9 110 190.6C110.5 190.3 111.2 190.8 111.7 191.6C112.2 192.4 112.2 193.2 111.7 193.5ZM115.5 195.7C115 196 114.3 195.5 113.8 194.7C113.3 193.9 113.3 193.1 113.8 192.8C114.3 192.5 115 193 115.5 193.8C116 194.5 116 195.4 115.5 195.7ZM119.3 197.8C118.8 198.1 118.1 197.6 117.6 196.8C117.1 196 117.1 195.2 117.6 194.9C118.1 194.6 118.8 195.1 119.3 195.9C119.8 196.7 119.8 197.6 119.3 197.8ZM104.9 193.3V185.6L99.5 182.5C98.7 182 98 182.4 98 183.4V192.9C98 193.9 98.7 195.1 99.6 195.6L100.5 196.1V201.1L104.9 198.6L113.7 203.7C114.6 204.2 115.3 203.8 115.3 202.8V202.4L107.8 198.1C106.1 197.1 104.9 195 104.9 193.3Z" fill="white"/>
<path d="M126.4 196.5V198.8L163 220V217.6L126.4 196.5Z" fill="white"/>
<path d="M151.4 220.8L126.4 206.3V208.7L151.4 223.2V220.8Z" fill="white"/>
<path d="M126.4 203.8L163 224.9V222.5L126.4 201.4V203.8Z" fill="white"/>
<path opacity="0.2" d="M219.7 274L195.9 260.6C198 259.1 199.2 257.3 199.2 255.4C199.2 250.1 190.1 245.8 178.9 245.8C167.7 245.8 158.6 250.1 158.6 255.4C158.6 260.7 167.7 265 178.9 265C181.2 265 183.5 264.8 185.6 264.5L211.2 278.9C212.9 279.9 215.7 279.7 217.7 278.6C219.8 277.5 222.3 275.5 219.7 274Z" fill="#92B4D1"/>
<path d="M219.701 271.3C221.101 273.9 220.101 277.3 217.501 278.7C214.901 280.1 211.501 279.1 210.101 276.5C208.701 273.9 209.701 270.5 212.301 269.1C214.901 267.7 218.201 268.7 219.701 271.3Z" fill="#001A46"/>
<path d="M202.402 237.1L190.602 243.5L208.202 276C209.202 277.9 212.702 278 215.902 276.3C219.202 274.5 221.002 271.6 219.902 269.7L202.402 237.1Z" fill="#084C94"/>
<path d="M202.4 237.1C203.4 239 201.6 242 198.4 243.7C195.1 245.5 191.7 245.3 190.7 243.4C189.7 241.5 191.5 238.5 194.7 236.8C197.9 235.1 201.4 235.2 202.4 237.1Z" fill="#2672AB"/>
<path d="M194.701 228.4L187.701 232.2L192.701 241.5C193.301 242.6 195.401 242.7 197.301 241.7C199.201 240.7 200.301 238.9 199.701 237.8L194.701 228.4Z" fill="#001A46"/>
<path d="M174.901 154C166.201 149 158.201 148.4 152.401 151.5C152.201 151.6 143.901 156.2 143.701 156.6C149.601 152.1 158.301 152.2 168.101 157.8C185.901 168.1 200.301 192.9 200.301 213.3C200.301 223.7 196.501 230.9 190.501 234.2C190.901 234.1 191.401 233.9 192.101 233.5C192.301 233.4 197.901 230 198.101 229.9C203.701 226.5 207.101 219.4 207.101 209.5C207.001 189.1 192.601 164.3 174.901 154Z" fill="#72B5E8"/>
<path d="M168.1 157.9C150.3 147.6 135.9 155.9 135.9 176.2C135.9 196.6 150.3 221.4 168.1 231.7C185.9 242 200.3 233.7 200.3 213.4C200.3 193.1 185.8 168.2 168.1 157.9ZM167.6 226.9C152.5 218.2 140.3 197.1 140.3 179.8C140.3 162.5 152.5 155.5 167.6 164.2C182.7 172.9 194.9 194 194.9 211.3C194.9 228.6 182.6 235.6 167.6 226.9Z" fill="#D1EBFF"/>
<path d="M173.201 223.7C158.101 215 145.901 193.9 145.901 176.6C145.901 169.5 147.901 164.2 151.401 161C144.701 162.8 140.301 169.5 140.301 179.8C140.301 197.1 152.501 218.2 167.601 226.9C176.501 232.1 184.501 231.7 189.401 227C184.901 228.2 179.301 227.2 173.201 223.7Z" fill="#72B5E8"/>
<path d="M169.6 157.1C161.1 152.2 153.3 151.5 147.6 154.4C153 152.9 160.9 153.7 168.1 157.9C185.9 168.2 200.3 193 200.3 213.4C200.3 224 195.2 231.6 188.9 234.8C196.8 232.6 201.8 224.8 201.8 212.7C201.8 192.2 187.4 167.4 169.6 157.1Z" fill="white"/>
</g>
<defs>
<clipPath id="clip0_1046_1833">
<rect width="340.7" height="304.9" fill="white" transform="translate(92 23)"/>
</clipPath>
</defs>
</svg>
