<svg width="393" height="352" viewBox="0 0 393 352" fill="none" xmlns="http://www.w3.org/2000/svg">
<rect x="70.2656" width="289.439" height="289.439" rx="80" transform="rotate(14.0498 70.2656 0)" fill="#D7C4BA"/>
<g clip-path="url(#clip0_1046_2105)">
<path d="M255.013 146.235C255.013 146.235 237.469 181.296 219.631 205.518C212.536 215.148 205.405 223.057 199.3 226.371C193.342 229.593 188.283 234.61 184.103 240.175C173.287 254.566 168.282 272.6 168.282 272.6L122.689 203.724C122.689 203.724 124.248 136.386 129.711 125.126C137.685 108.703 141.535 75.547 144.615 68.9377C146.888 64.031 153.378 38.7472 154.001 36.8798C154.276 36.0742 156.439 34.8476 159.244 34.8476C161.499 34.8476 165.312 37.0263 166.284 41.4935C171.16 64.0677 165.294 78.9523 165.349 79.6297C167.072 96.986 161.902 109.857 165.532 113.262C165.661 113.39 165.917 113.335 166.266 113.097C172.554 109.07 211.565 52.2771 216.368 51.0504C221.464 49.7322 255.013 146.235 255.013 146.235Z" fill="#FFB27D"/>
<path d="M182.012 258.96C182.012 258.96 181.389 289.571 179.61 330.802H64.6113C90.9 274.815 113.76 227.708 113.76 227.708C113.76 227.708 179.244 229.685 182.012 258.96Z" fill="#F99746"/>
<path d="M294.867 27.5608L280.751 48.2309L266.892 68.5166C266.049 69.5418 265.077 69.8897 264.014 69.7798C260.696 69.4686 256.571 64.6718 253.363 62.0171L253.033 61.7425C248.798 58.2456 248.211 51.9475 251.713 47.7183L272.905 22.1782L279.193 14.5985C282.695 10.3693 289.001 9.78345 293.236 13.2803L293.566 13.555C297.782 17.0152 298.369 23.3316 294.867 27.5608Z" fill="#FFB27D"/>
<path d="M280.751 48.2309L266.892 68.5166C266.049 69.5418 265.077 69.8897 264.014 69.7798L272.887 22.1782C272.923 22.4345 274.426 43.8003 280.751 48.2309Z" fill="#EFA26F"/>
<path d="M219.63 205.518C212.536 215.148 205.404 223.057 199.3 226.371C193.342 229.593 188.282 234.61 184.102 240.176C179.299 237.942 173.818 235.305 168.465 232.724C161.938 229.557 161.7 220.311 168.08 216.887C168.135 216.851 168.208 216.814 168.263 216.777C174.239 213.354 180.381 201.289 180.381 201.289L219.63 205.518Z" fill="#EFA26F"/>
<path d="M153.707 37.905L150.004 52.808C150.004 52.808 153.23 54.1262 155.302 53.1009C157.373 52.0757 159.078 38.7106 153.707 37.905Z" fill="#FFC197"/>
<path d="M259.945 212.548H180.51C172.701 212.548 166.303 206.159 166.303 198.359V23.9907C166.303 16.1914 172.701 9.80176 180.51 9.80176H259.945C267.754 9.80176 274.152 16.1914 274.152 23.9907V198.359C274.152 206.159 267.754 212.548 259.945 212.548Z" fill="#2B478B"/>
<path d="M268.798 25.3272V195.65C268.798 201.435 264.105 206.159 258.349 206.159H182.086C176.348 206.159 171.637 201.435 171.637 195.65V25.3272C171.637 19.5418 176.33 14.8182 182.086 14.8182H258.367C264.105 14.8182 268.798 19.5601 268.798 25.3272Z" fill="#C0D8FB"/>
<path d="M258.366 14.8182L183.039 206.177H182.104C176.366 206.177 171.654 201.453 171.654 195.668V25.3272C171.654 19.5418 176.347 14.8182 182.104 14.8182H258.366Z" fill="#CBE1FD"/>
<path d="M236.168 21.1529H204.288C201.684 21.1529 199.576 19.0475 199.576 16.4477V15.7154C199.576 13.1156 201.703 10.9918 204.306 10.9918H236.186C238.789 10.9918 240.916 13.1156 240.916 15.7154V16.4477C240.897 19.0475 238.771 21.1529 236.168 21.1529Z" fill="#2B478B"/>
<path d="M287.845 105.609L285.737 106.415L271.584 111.779C271.254 111.907 270.925 112.017 270.576 112.09C265.883 113.299 260.897 110.809 259.137 106.195L258.935 105.646C257.047 100.703 259.558 95.1003 264.527 93.2145L277.726 88.198L278.679 87.8319L280.787 87.0263C285.737 85.1405 291.347 87.6488 293.217 92.6103L293.418 93.1596C295.325 98.1394 292.795 103.742 287.845 105.609Z" fill="#FFB27D"/>
<path d="M276.35 105.939C273.986 106.836 269.714 108.429 267.423 108.74C266.781 108.832 265.589 108.484 264.471 107.257C263.811 106.525 263.169 105.481 262.693 104.053C262.473 103.376 262.29 102.698 262.216 102.003C262.125 101.197 262.143 100.373 262.29 99.5675C262.418 98.8352 262.913 98.1761 263.646 97.8282C263.646 97.8282 263.646 97.8282 263.664 97.8282C266.103 96.6748 269.384 95.2468 272.244 94.4595C274.224 93.9103 276.24 94.7891 276.864 96.5284L277.157 97.3339L278.679 101.49C279.302 103.248 278.275 105.207 276.35 105.939Z" fill="#FFD3B6"/>
<path d="M276.351 105.939C273.987 106.836 269.715 108.429 267.424 108.74C266.782 108.832 265.59 108.484 264.472 107.257C264.362 106.982 264.252 106.689 264.142 106.378C263.922 105.701 263.739 105.023 263.665 104.328C263.574 103.522 263.592 102.698 263.739 101.893C263.867 101.16 264.362 100.501 265.095 100.153C265.095 100.153 265.095 100.153 265.114 100.153C267.552 99 270.833 97.5719 273.693 96.7847C274.958 96.4368 276.241 96.6748 277.176 97.3339L278.698 101.49C279.303 103.248 278.276 105.207 276.351 105.939Z" fill="#FFC197"/>
<path d="M281.411 125.492L270.485 128.458C267.167 129.355 263.72 127.396 262.804 124.082L262.474 122.856C261.575 119.542 263.537 116.1 266.855 115.185L277.781 112.219C281.099 111.321 284.546 113.28 285.463 116.594L285.793 117.821C286.709 121.135 284.729 124.595 281.411 125.492Z" fill="#FFB27D"/>
<path d="M275.508 124.961C273.51 125.492 269.88 126.444 267.973 126.536C267.277 126.572 265.902 125.986 265.004 124.174C264.784 123.735 264.6 123.222 264.454 122.636C264.325 122.105 264.215 121.574 264.215 121.025C264.197 120.384 264.289 119.762 264.454 119.157C264.619 118.608 265.077 118.132 265.682 117.912C265.682 117.912 265.682 117.912 265.7 117.912C267.772 117.18 270.577 116.301 272.996 115.88C274.665 115.587 276.241 116.393 276.645 117.766L276.92 118.755L277.763 121.702C278.148 123.075 277.158 124.522 275.508 124.961Z" fill="#FFD3B6"/>
<path d="M275.508 124.961C273.51 125.492 269.88 126.444 267.973 126.536C267.277 126.572 265.902 125.986 265.004 124.174C264.875 123.68 264.802 123.185 264.784 122.673C264.765 122.05 264.857 121.409 265.022 120.805C265.187 120.256 265.645 119.78 266.25 119.56C266.25 119.56 266.25 119.56 266.269 119.56C268.34 118.828 271.145 117.949 273.565 117.528C274.94 117.29 276.278 117.803 276.901 118.755L277.745 121.702C278.148 123.075 277.158 124.522 275.508 124.961Z" fill="#FFC197"/>
<path d="M102.561 250.904C102.561 250.904 125.036 272.398 140.179 280.692L151.655 272.563V284.555C151.655 284.555 174.222 288.546 181.335 284.555V251.875L117.978 220.164L102.561 250.904Z" fill="#ED7D2B"/>
<path d="M186.119 281.973C177.392 283.768 158.583 276.92 158.583 276.92L161.627 247.645L140.361 271.959C129.545 267.931 112.624 257.44 102.578 250.922C97.5733 247.664 94.2734 245.393 94.2734 245.393C108.463 222.6 122.725 201.27 122.725 201.27C126.905 209.637 136.823 216.906 147.566 222.709C165.421 232.376 185.587 238.015 185.587 238.015C185.569 255.408 186.119 281.973 186.119 281.973Z" fill="#DCEAFF"/>
<path d="M287.497 84.7195C287.423 84.7561 287.35 84.7744 287.258 84.7927L272.941 88.4544C266.653 90.0655 260.145 86.6601 258.476 80.893L257.633 77.9454C256.038 72.398 259.466 66.6125 265.314 64.7268L270.044 63.5184L279.632 61.0651C285.92 59.454 292.428 62.8593 294.096 68.6264L294.94 71.5741C296.516 77.0483 293.198 82.7605 287.497 84.7195Z" fill="#FFB27D"/>
<path d="M280.934 80.7282L273.986 83.859C273.967 83.859 273.967 83.859 273.949 83.8773C273.674 83.9505 273.381 84.0054 273.106 84.0421C272.996 84.0604 272.867 84.0787 272.757 84.0787C272.702 84.0787 272.666 84.0787 272.611 84.0787C271.841 84.0604 271.327 83.2365 271.657 82.5225C272.317 81.0944 272.501 79.4467 272.042 77.8172L271.877 77.213V77.1947L271.346 75.2174C270.924 73.6429 270.008 72.3247 268.816 71.3727C268.669 71.2628 268.523 71.153 268.376 71.0431C267.001 70.0911 267.349 67.9307 268.963 67.4913C268.981 67.4913 268.999 67.4913 268.999 67.473L276.626 66.3196C278.514 65.807 280.329 67.2533 280.842 69.1391L281.447 71.391L282.749 76.1878C283.28 78.0918 282.822 80.2156 280.934 80.7282Z" fill="#FFD3B6"/>
<path d="M280.934 80.7282L273.986 83.859C273.968 83.859 273.968 83.859 273.949 83.8773C273.785 83.9139 273.271 83.9871 272.611 84.097C271.841 84.0787 271.328 83.2548 271.658 82.5408C272.318 81.1127 272.501 79.465 272.043 77.8355L271.878 77.2313V77.213L271.346 75.2357C270.925 73.6612 270.008 72.343 268.816 71.391C269.055 71.0248 269.421 70.7502 269.916 70.622C269.935 70.622 269.953 70.622 269.953 70.6037L277.579 69.4503C279.174 69.0109 280.714 69.9812 281.466 71.4093L282.767 76.2061C283.281 78.0918 282.822 80.2156 280.934 80.7282Z" fill="#FFC197"/>
<path d="M166.303 159.07C166.303 159.07 163.186 131.845 160.308 126.536C157.43 121.226 154.992 110.589 159.428 102.698C163.865 94.789 165.386 79.5931 165.386 79.5931C167.109 96.9494 161.94 109.82 165.569 113.226C165.698 113.354 165.954 113.299 166.303 113.061V159.07Z" fill="#EFA26F"/>
<path d="M127.603 114.727H236.057C239.815 114.727 242.877 111.688 242.877 107.916V64.5437C242.877 60.7905 239.834 57.733 236.057 57.733H127.603C123.845 57.733 120.783 60.7722 120.783 64.5437V107.934C120.783 111.688 123.845 114.727 127.603 114.727Z" fill="#699DEE"/>
<path d="M236.809 50.5195H194.369C191.216 50.5195 188.668 47.9746 188.668 44.8256V36.7882C188.668 33.6392 191.216 31.0944 194.369 31.0944H236.809C239.962 31.0944 242.51 33.6392 242.51 36.7882V44.8256C242.51 47.9746 239.962 50.5195 236.809 50.5195Z" fill="#9ABFF6"/>
<path d="M234.957 192.977H186.009C182.233 192.977 179.189 189.919 179.189 186.166V175.84C179.189 172.069 182.251 169.029 186.009 169.029H234.957C238.733 169.029 241.776 172.087 241.776 175.84V186.166C241.776 189.919 238.715 192.977 234.957 192.977Z" fill="#9ABFF6"/>
<path d="M253.967 159.07H207.733C203.223 159.07 199.557 155.408 199.557 150.904V132.834C199.557 128.33 203.223 124.668 207.733 124.668H253.967C258.477 124.668 262.143 128.33 262.143 132.834V150.904C262.143 155.408 258.495 159.07 253.967 159.07Z" fill="#F99746"/>
<path d="M384.677 330.802H300.33C296.278 328.092 275.288 313.793 266.598 303.12C264.765 300.868 258.019 281.369 252.849 265.569C249.622 255.683 246.982 247.243 246.542 245.302C246.396 244.624 246.286 243.288 246.231 241.475V241.457C246.011 234.994 246.304 222.508 246.616 212.603V212.548V212.42C246.634 211.981 246.652 211.56 246.652 211.138V211.12C246.652 211.084 246.652 211.029 246.652 210.992C246.707 209.271 246.762 207.642 246.817 206.177C246.946 202.497 247.056 199.714 247.111 198.634L247.129 198.121C247.257 198.048 251.327 195.888 256.735 199.787C258.037 200.739 259.247 203.01 260.365 205.976C261.08 207.88 261.74 210.058 262.345 212.347C264.71 221.171 266.415 231.735 267.313 234.555C268.78 239.132 286.012 259.216 287.094 260.461C287.112 260.479 287.13 260.498 287.149 260.516V228.788L274.133 194.002L268.78 179.721L266.121 172.563C266.121 172.563 261.997 165.807 258.55 157.678C257.029 154.126 255.654 150.3 254.792 146.675C254.59 145.814 254.407 144.954 254.279 144.112C253.765 141.036 253.729 138.198 254.444 135.891C255.709 131.772 258.532 130.985 260.713 131.076C260.933 131.076 261.153 131.094 261.373 131.131C261.593 131.149 261.795 131.204 261.997 131.259C262.382 131.369 262.748 131.516 263.078 131.717C263.628 132.046 264.123 132.486 264.49 133.035C264.49 133.035 266.323 135.434 268.798 138.656C270.43 140.78 272.318 143.251 274.151 145.65C277.396 149.915 280.402 153.888 281.246 155.042C285.719 161.34 297.781 181.863 297.781 181.863L311.897 182.449C314.134 182.541 316.261 183.438 317.892 184.958C322.915 189.645 333.731 199.769 335.07 201.27C335.07 201.765 343.484 205.811 349.974 209.399C354.612 211.358 363.448 218.315 363.448 218.315C365.281 219.926 366.675 221.538 367.371 223.076C370.396 229.648 378.609 286.862 382.532 315.148C383.797 324.229 384.604 330.326 384.677 330.802Z" fill="#FFB27D"/>
<path d="M297.781 181.863C297.781 181.863 310.852 203.174 312.594 204.145C314.317 205.097 321.063 206.452 321.833 204.145C322.585 201.82 297.781 181.863 297.781 181.863Z" fill="#EFA26F"/>
<path d="M363.504 218.37C363.485 218.352 363.467 218.334 363.43 218.315C363.43 218.315 354.594 211.358 349.956 209.399C343.998 206.104 336.408 202.424 335.217 201.453C336.61 203.028 346.345 214.05 350.084 214.873C353.384 215.606 360.864 217.638 363.504 218.37Z" fill="#EFA26F"/>
<path d="M287.168 260.516V228.788C287.168 228.788 294.721 241.402 295.289 248.304C295.876 255.225 292.154 266.43 287.168 260.516Z" fill="#EFA26F"/>
<path d="M259.797 144.112C258.697 142.226 256.718 138.802 256.039 136.88C255.856 136.331 255.874 135.25 256.534 134.097C256.938 133.401 257.561 132.687 258.514 132.046C258.954 131.754 259.412 131.479 259.907 131.296C260.476 131.094 261.081 130.985 261.686 130.966C262.236 130.966 262.804 131.278 263.207 131.845C264.509 133.749 266.177 136.349 267.295 138.692C268.084 140.322 267.827 142.189 266.69 143.013L266.159 143.398L263.446 145.375C262.309 146.217 260.696 145.65 259.797 144.112Z" fill="#FFD3B6"/>
<path d="M259.797 144.112C258.697 142.226 256.718 138.802 256.039 136.88C255.856 136.331 255.874 135.25 256.534 134.097C256.718 133.951 256.901 133.804 257.103 133.676C257.543 133.383 258.001 133.108 258.496 132.925C259.064 132.724 259.669 132.614 260.274 132.596C260.824 132.596 261.392 132.907 261.796 133.475C263.097 135.379 264.765 137.978 265.884 140.322C266.379 141.365 266.47 142.501 266.159 143.398L263.446 145.375C262.309 146.217 260.696 145.65 259.797 144.112Z" fill="#FFC197"/>
<path d="M333.438 62.8044H315.766C311.109 62.8044 307.314 58.9962 307.314 54.3642V39.8274C307.314 35.1771 311.128 31.3873 315.766 31.3873H333.438C338.094 31.3873 341.889 35.1954 341.889 39.8274V54.3642C341.889 58.9962 338.094 62.8044 333.438 62.8044Z" fill="#DFEBFD"/>
<path d="M315.399 46.8212C316.352 49.3478 324.602 55.9937 324.602 55.9937C324.602 55.9937 327.278 53.815 329.771 51.4715C331.641 49.7322 333.364 47.9014 333.786 46.8212C334.758 44.313 333.731 40.7062 330.12 40.102C326.527 39.4979 324.602 43.2328 324.602 43.2328C324.602 43.2328 322.658 39.4796 319.065 40.102C318.442 40.2119 317.892 40.4133 317.415 40.6879C315.179 41.9329 314.61 44.7524 315.399 46.8212Z" fill="#F99746"/>
<path d="M49.1212 144.661H102.083C106.3 144.661 109.765 148.103 109.765 152.332V175.547C109.765 179.428 106.593 182.596 102.707 182.596H101.35L103.898 193.361L87.8759 182.596H48.6629C44.4465 182.596 41 179.154 41 174.943V152.79C41 148.323 44.6481 144.661 49.1212 144.661Z" fill="#DFEBFD"/>
<path d="M47.7089 161.505H102.926C103.678 161.505 104.301 160.882 104.301 160.131C104.301 159.381 103.678 158.758 102.926 158.758H47.7089C46.9573 158.758 46.334 159.381 46.334 160.131C46.334 160.9 46.9573 161.505 47.7089 161.505Z" fill="#CBE1FD"/>
<path d="M47.7089 167.62H102.926C103.678 167.62 104.301 166.997 104.301 166.246C104.301 165.496 103.678 164.873 102.926 164.873H47.7089C46.9573 164.873 46.334 165.496 46.334 166.246C46.334 167.015 46.9573 167.62 47.7089 167.62Z" fill="#CBE1FD"/>
<path d="M47.7089 173.735H102.926C103.678 173.735 104.301 173.112 104.301 172.361C104.301 171.611 103.678 170.988 102.926 170.988H47.7089C46.9573 170.988 46.334 171.611 46.334 172.361C46.334 173.13 46.9573 173.735 47.7089 173.735Z" fill="#CBE1FD"/>
<path d="M77.7937 152.021H101.241C102.139 152.021 102.872 151.289 102.872 150.391C102.872 149.494 102.139 148.762 101.241 148.762H77.7937C76.8954 148.762 76.1621 149.494 76.1621 150.391C76.1621 151.289 76.8954 152.021 77.7937 152.021Z" fill="#CBE1FD"/>
<path d="M57.6465 152.021H71.7625C72.4774 152.021 73.0457 151.435 73.0457 150.739V150.044C73.0457 149.33 72.4591 148.762 71.7625 148.762H57.6465C56.9316 148.762 56.3633 149.348 56.3633 150.044V150.721C56.3633 151.435 56.9316 152.021 57.6465 152.021Z" fill="#CBE1FD"/>
<path d="M315.252 156.433L348.562 167.308L328.616 147.883L326.581 152.643L318.02 152.68L315.252 156.433Z" fill="#9EC3F6"/>
<path d="M348.561 167.308L322.713 147.682L295.086 141.365L348.561 167.308Z" fill="white"/>
<path d="M328.615 147.883L348.561 167.308L335.27 140.102L328.615 147.883Z" fill="white"/>
<path d="M118.821 32.5041L87.6738 36.9347L108.334 22.8739L109.398 27.3778L116.969 28.7509L118.821 32.5041Z" fill="#9EC3F6"/>
<path d="M87.6738 36.9347L113.596 23.5879L138.986 22.3064L87.6738 36.9347Z" fill="white"/>
<path d="M108.334 22.8739L87.6738 36.9347L103.678 14.9464L108.334 22.8739Z" fill="white"/>
<path d="M167.713 84.097C167.713 88.1614 166.338 91.8963 164.046 94.8806C163.276 95.8692 162.415 96.7846 161.461 97.5902C158.382 100.208 154.385 101.783 150.022 101.783C146.062 101.783 142.414 100.483 139.463 98.2859C138.161 97.3156 137.006 96.1805 136.016 94.8989C133.706 91.9146 132.35 88.1797 132.35 84.1153C132.35 74.3569 140.269 66.4477 150.04 66.4477C159.793 66.4294 167.713 74.3386 167.713 84.097Z" fill="white"/>
<path d="M157.118 92.4456C157.063 92.3906 157.027 92.3357 156.972 92.2991C156.77 92.1343 156.568 92.0428 155.743 91.9146C155.322 91.8414 154.753 91.7682 153.928 91.6583C153.928 91.6583 153.745 91.64 153.653 91.64C153.598 91.64 153.525 91.6217 153.452 91.6217C153.213 91.4935 153.158 90.5232 153.158 89.4979C153.158 89.4247 153.158 89.3515 153.158 89.2599C153.158 88.8754 153.177 88.491 153.195 88.1431C153.195 88.1248 153.195 88.1065 153.195 88.0882C153.708 88.1248 154.038 88.1248 154.038 88.1248C154.973 88.0516 155.56 85.525 155.78 83.4928C155.78 83.4928 156.238 82.376 156.238 81.1676C156.238 80.4902 156.092 79.7762 155.633 79.227C155.395 78.934 155.175 78.7509 154.973 78.6411C154.918 78.5862 154.863 78.5312 154.79 78.4763C153.91 77.506 150.354 73.8626 148.007 75.9681C147.952 75.7667 147.182 73.3866 143.497 74.1739C143.736 74.1555 145.367 73.9908 145.844 74.6499C145.77 74.6133 144.359 73.9908 143.442 74.54C143.021 74.7963 142.764 75.3273 142.617 75.8765C142.617 75.8765 142.617 75.8765 142.617 75.8948C142.617 75.8948 142.617 75.8948 142.617 75.9131V75.9315C142.599 76.0047 142.581 76.0779 142.562 76.1512C142.562 76.1695 142.562 76.1695 142.562 76.1878C142.562 76.1878 142.562 76.1878 142.562 76.2061C142.452 76.7736 142.452 77.3229 142.526 77.5975C142.672 78.1651 143.681 79.8861 144.359 79.8861C144.616 79.8861 144.891 79.7945 145.129 79.703C145.019 80.0142 144.927 80.3438 144.854 80.7099C144.139 84.0787 146.375 86.6418 147.53 86.001C148.282 85.5983 148.832 86.8981 148.832 86.8981C148.722 89.3698 148.044 90.9626 147.549 91.3654C147.365 91.3837 146.98 91.4386 146.485 91.5118C146.485 91.5118 144.781 91.6949 143.479 92.2625C143.461 92.2625 143.461 92.2625 143.442 92.2808C143.149 92.409 142.892 92.5371 142.709 92.6836C142.617 92.7568 142.526 92.8484 142.471 92.9399C142.434 92.9765 142.416 93.0131 142.397 93.0497C141.957 93.8736 141.517 95.1186 141.096 96.5833C143.589 98.4507 146.705 99.5492 150.06 99.5492C153.763 99.5492 157.137 98.2127 159.758 95.9974C158.823 93.9285 157.723 92.885 157.118 92.4456Z" fill="#2B478B"/>
<path d="M199.904 75.1808H179.812C179.115 75.1808 178.547 74.6133 178.547 73.9175V73.3134C178.547 72.6176 179.115 72.0501 179.812 72.0501H199.904C200.601 72.0501 201.169 72.6176 201.169 73.3134V73.9175C201.169 74.6133 200.601 75.1808 199.904 75.1808Z" fill="white"/>
<path d="M200.161 86.4587H179.573C179.005 86.4587 178.547 86.001 178.547 85.4335C178.547 84.8659 179.005 84.4082 179.573 84.4082H200.161C200.729 84.4082 201.187 84.8659 201.187 85.4335C201.169 86.001 200.711 86.4587 200.161 86.4587Z" fill="white"/>
<path d="M191.05 91.2921H179.335C178.895 91.2921 178.547 90.9443 178.547 90.5049V90.0289C178.547 89.5895 178.895 89.2416 179.335 89.2416H191.05C191.49 89.2416 191.838 89.5895 191.838 90.0289V90.5049C191.82 90.9443 191.471 91.2921 191.05 91.2921Z" fill="white"/>
<path d="M214.899 91.2921H195.98C195.449 91.2921 194.99 90.8527 194.99 90.3035V90.2303C194.99 89.6993 195.43 89.2416 195.98 89.2416H214.899C215.431 89.2416 215.889 89.681 215.889 90.2303V90.3035C215.889 90.8527 215.449 91.2921 214.899 91.2921Z" fill="white"/>
<path d="M232.59 86.4587H205.605C205.036 86.4587 204.578 86.001 204.578 85.4335C204.578 84.8659 205.036 84.4082 205.605 84.4082H232.59C233.158 84.4082 233.617 84.8659 233.617 85.4335C233.617 86.001 233.14 86.4587 232.59 86.4587Z" fill="white"/>
<path d="M200.161 96.1255H179.573C179.005 96.1255 178.547 95.6678 178.547 95.1003C178.547 94.5327 179.005 94.075 179.573 94.075H200.161C200.729 94.075 201.187 94.5327 201.187 95.1003C201.169 95.6678 200.711 96.1255 200.161 96.1255Z" fill="white"/>
<path d="M232.59 96.1255H205.605C205.036 96.1255 204.578 95.6678 204.578 95.1003C204.578 94.5327 205.036 94.075 205.605 94.075H232.59C233.158 94.075 233.617 94.5327 233.617 95.1003C233.617 95.6678 233.14 96.1255 232.59 96.1255Z" fill="white"/>
<path d="M219.503 75.1808H205.076C204.471 75.1808 203.994 74.6865 203.994 74.1006V73.1486C203.994 72.5444 204.489 72.0684 205.076 72.0684H219.503C220.108 72.0684 220.585 72.5627 220.585 73.1486V74.1189C220.585 74.7048 220.09 75.1808 219.503 75.1808Z" fill="white"/>
<path d="M201.298 175.822H187.017C186.522 175.822 186.119 175.419 186.119 174.925V174.504C186.119 174.009 186.522 173.606 187.017 173.606H201.298C201.793 173.606 202.197 174.009 202.197 174.504V174.925C202.197 175.419 201.793 175.822 201.298 175.822Z" fill="#699DEE"/>
<path d="M201.482 181.516H186.852C186.449 181.516 186.119 181.186 186.119 180.783C186.119 180.381 186.449 180.051 186.852 180.051H201.482C201.885 180.051 202.215 180.381 202.215 180.783C202.197 181.186 201.867 181.516 201.482 181.516Z" fill="#699DEE"/>
<path d="M194.992 184.958H186.669C186.357 184.958 186.119 184.701 186.119 184.408V184.06C186.119 183.749 186.376 183.511 186.669 183.511H194.992C195.304 183.511 195.542 183.768 195.542 184.06V184.408C195.56 184.701 195.304 184.958 194.992 184.958Z" fill="#699DEE"/>
<path d="M211.967 184.958H198.511C198.126 184.958 197.814 184.646 197.814 184.262V184.207C197.814 183.822 198.126 183.511 198.511 183.511H211.967C212.352 183.511 212.664 183.822 212.664 184.207V184.262C212.664 184.646 212.352 184.958 211.967 184.958Z" fill="#699DEE"/>
<path d="M224.526 181.516H205.35C204.947 181.516 204.617 181.186 204.617 180.783C204.617 180.381 204.947 180.051 205.35 180.051H224.545C224.948 180.051 225.278 180.381 225.278 180.783C225.259 181.186 224.929 181.516 224.526 181.516Z" fill="#699DEE"/>
<path d="M201.482 188.4H186.852C186.449 188.4 186.119 188.07 186.119 187.667C186.119 187.264 186.449 186.935 186.852 186.935H201.482C201.885 186.935 202.215 187.264 202.215 187.667C202.197 188.07 201.867 188.4 201.482 188.4Z" fill="#699DEE"/>
<path d="M224.526 188.4H205.35C204.947 188.4 204.617 188.07 204.617 187.667C204.617 187.264 204.947 186.935 205.35 186.935H224.545C224.948 186.935 225.278 187.264 225.278 187.667C225.259 188.07 224.929 188.4 224.526 188.4Z" fill="#699DEE"/>
<path d="M215.231 175.822H204.965C204.544 175.822 204.195 175.474 204.195 175.053V174.357C204.195 173.936 204.544 173.588 204.965 173.588H215.231C215.653 173.588 216.001 173.936 216.001 174.357V175.053C216.001 175.474 215.653 175.822 215.231 175.822Z" fill="#699DEE"/>
<path d="M210.777 37.0812H196.496C196.001 37.0812 195.598 36.6784 195.598 36.1841V35.763C195.598 35.2687 196.001 34.8659 196.496 34.8659H210.777C211.272 34.8659 211.675 35.2687 211.675 35.763V36.1841C211.675 36.6601 211.272 37.0812 210.777 37.0812Z" fill="#699DEE"/>
<path d="M210.96 42.7751H196.331C195.928 42.7751 195.598 42.4455 195.598 42.0427C195.598 41.64 195.928 41.3104 196.331 41.3104H210.96C211.363 41.3104 211.693 41.64 211.693 42.0427C211.675 42.4455 211.345 42.7751 210.96 42.7751Z" fill="#699DEE"/>
<path d="M204.471 46.217H196.148C195.836 46.217 195.598 45.9607 195.598 45.6678V45.3199C195.598 45.0087 195.854 44.7707 196.148 44.7707H204.471C204.782 44.7707 205.02 45.027 205.02 45.3199V45.6678C205.039 45.9607 204.782 46.217 204.471 46.217Z" fill="#699DEE"/>
<path d="M221.446 46.217H207.99C207.605 46.217 207.293 45.9058 207.293 45.5213V45.4664C207.293 45.0819 207.605 44.7707 207.99 44.7707H221.446C221.831 44.7707 222.142 45.0819 222.142 45.4664V45.5213C222.142 45.9058 221.831 46.217 221.446 46.217Z" fill="#699DEE"/>
<path d="M234.005 42.7751H214.829C214.426 42.7751 214.096 42.4455 214.096 42.0427C214.096 41.64 214.426 41.3104 214.829 41.3104H234.023C234.426 41.3104 234.756 41.64 234.756 42.0427C234.738 42.4455 234.408 42.7751 234.005 42.7751Z" fill="#699DEE"/>
<path d="M224.71 37.0812H214.444C214.022 37.0812 213.674 36.7333 213.674 36.3122V35.6165C213.674 35.1954 214.022 34.8476 214.444 34.8476H224.71C225.132 34.8476 225.48 35.1954 225.48 35.6165V36.3122C225.48 36.7333 225.132 37.0812 224.71 37.0812Z" fill="#699DEE"/>
<path d="M223.407 133.42H207.769C207.219 133.42 206.779 132.98 206.779 132.431V131.955C206.779 131.406 207.219 130.966 207.769 130.966H223.407C223.957 130.966 224.397 131.406 224.397 131.955V132.431C224.397 132.962 223.957 133.42 223.407 133.42Z" fill="#ED7D2B"/>
<path d="M223.59 139.663H207.568C207.128 139.663 206.779 139.297 206.779 138.875C206.779 138.436 207.146 138.088 207.568 138.088H223.59C224.03 138.088 224.378 138.454 224.378 138.875C224.397 139.297 224.03 139.663 223.59 139.663Z" fill="#ED7D2B"/>
<path d="M216.495 143.416H207.384C207.054 143.416 206.779 143.141 206.779 142.812V142.446C206.779 142.116 207.054 141.841 207.384 141.841H216.495C216.825 141.841 217.1 142.116 217.1 142.446V142.812C217.119 143.141 216.844 143.416 216.495 143.416Z" fill="#ED7D2B"/>
<path d="M235.085 143.416H220.364C219.942 143.416 219.594 143.068 219.594 142.647V142.592C219.594 142.171 219.942 141.823 220.364 141.823H235.085C235.506 141.823 235.855 142.171 235.855 142.592V142.647C235.836 143.068 235.506 143.416 235.085 143.416Z" fill="#ED7D2B"/>
<path d="M248.834 139.663H227.825C227.385 139.663 227.037 139.297 227.037 138.875C227.037 138.436 227.404 138.088 227.825 138.088H248.834C249.274 138.088 249.623 138.454 249.623 138.875C249.641 139.297 249.274 139.663 248.834 139.663Z" fill="#ED7D2B"/>
<path d="M223.59 147.187H207.568C207.128 147.187 206.779 146.821 206.779 146.4C206.779 145.961 207.146 145.613 207.568 145.613H223.59C224.03 145.613 224.378 145.979 224.378 146.4C224.397 146.821 224.03 147.187 223.59 147.187Z" fill="#ED7D2B"/>
<path d="M248.834 147.187H227.825C227.385 147.187 227.037 146.821 227.037 146.4C227.037 145.961 227.404 145.613 227.825 145.613H248.834C249.274 145.613 249.623 145.979 249.623 146.4C249.641 146.821 249.274 147.187 248.834 147.187Z" fill="#ED7D2B"/>
<path d="M223.59 151.105H207.568C207.128 151.105 206.779 150.739 206.779 150.318C206.779 149.879 207.146 149.531 207.568 149.531H223.59C224.03 149.531 224.378 149.897 224.378 150.318C224.397 150.739 224.03 151.105 223.59 151.105Z" fill="#ED7D2B"/>
<path d="M248.834 151.105H227.825C227.385 151.105 227.037 150.739 227.037 150.318C227.037 149.879 227.404 149.531 227.825 149.531H248.834C249.274 149.531 249.623 149.897 249.623 150.318C249.641 150.739 249.274 151.105 248.834 151.105Z" fill="#ED7D2B"/>
<path d="M238.659 133.42H227.421C226.963 133.42 226.578 133.035 226.578 132.577V131.827C226.578 131.369 226.963 130.985 227.421 130.985H238.659C239.118 130.985 239.503 131.369 239.503 131.827V132.577C239.503 133.035 239.118 133.42 238.659 133.42Z" fill="#ED7D2B"/>
<path d="M186.357 25.4737L185.276 26.2609L184.176 25.492C184.414 25.1441 184.817 24.9244 185.276 24.9244C185.716 24.9244 186.119 25.1441 186.357 25.4737Z" fill="white"/>
<path d="M185.275 23.0204C184.175 23.0204 183.221 23.5696 182.635 24.3935L183.331 24.8695C183.771 24.2653 184.486 23.8626 185.293 23.8626C186.1 23.8626 186.796 24.247 187.236 24.8695L187.933 24.3752C187.31 23.5513 186.356 23.0204 185.275 23.0204Z" fill="white"/>
<path d="M185.275 19.4136C182.965 19.4136 180.912 20.5671 179.684 22.3247L180.38 22.8007C181.462 21.2628 183.258 20.2558 185.293 20.2558C187.292 20.2558 189.088 21.2445 190.17 22.7641L190.848 22.2697C189.601 20.5488 187.567 19.4136 185.275 19.4136Z" fill="white"/>
<path d="M185.276 21.3909C183.626 21.3909 182.178 22.1965 181.279 23.4415L181.976 23.9175C182.709 22.8922 183.919 22.2148 185.276 22.2148C186.632 22.2148 187.824 22.8739 188.557 23.8809L189.236 23.3865C188.356 22.1965 186.907 21.3909 185.276 21.3909Z" fill="white"/>
<path d="M179.172 140.468C179.172 142.061 179.704 143.526 180.62 144.698C180.913 145.082 181.262 145.448 181.628 145.759C181.995 146.071 182.398 146.345 182.838 146.583C183.81 147.114 184.928 147.407 186.12 147.407C187.605 147.407 188.98 146.949 190.098 146.162C190.153 146.126 190.208 146.089 190.263 146.034C190.776 145.65 191.235 145.21 191.62 144.698C192.518 143.526 193.068 142.061 193.068 140.468C193.068 136.642 189.951 133.529 186.12 133.529C182.27 133.529 179.172 136.642 179.172 140.468Z" fill="white"/>
<path d="M187.989 144.917L187.348 144.35C187.293 144.368 187.238 144.368 187.183 144.386C187.073 144.313 186.944 144.222 186.816 144.148C186.853 143.892 186.889 143.654 186.926 143.434C187.018 142.684 187.036 142.244 187.036 142.171C187.366 142.153 187.604 142.116 187.604 142.116C188.246 141.97 188.283 139.773 188.136 138.638C188.264 138.638 188.374 138.619 188.484 138.564C188.961 138.345 188.998 137.612 188.998 137.612C188.998 137.612 188.851 137.869 188.649 137.96C188.649 137.96 189.456 136.843 188.521 136.093C187.586 135.324 186.633 135.836 186.083 135.855C184.891 135.928 184.103 136.001 183.718 136.788C183.333 137.557 183.48 139.699 184.231 140.487C184.25 140.56 184.25 140.633 184.268 140.706C184.305 140.981 184.415 141.219 184.561 141.402C184.396 142.317 184.011 143.013 183.681 143.471C183.443 143.654 183.241 143.874 183.04 144.167L183.021 144.185C182.655 144.698 182.361 145.375 182.123 146.144C182.123 146.144 182.123 146.144 182.123 146.162C182.508 146.437 182.948 146.675 183.388 146.858C183.425 146.876 183.443 146.876 183.48 146.895H183.498C183.553 146.913 183.59 146.931 183.645 146.949C183.755 147.004 183.883 147.041 183.993 147.078C184.121 147.114 184.25 147.151 184.378 147.188C184.433 147.206 184.488 147.224 184.561 147.224C184.616 147.242 184.671 147.242 184.726 147.261H184.745C184.781 147.261 184.818 147.279 184.855 147.279C184.928 147.297 185.02 147.316 185.093 147.316C185.111 147.316 185.13 147.316 185.148 147.316C185.203 147.316 185.24 147.334 185.276 147.334C185.35 147.334 185.405 147.352 185.46 147.352C185.533 147.352 185.606 147.371 185.68 147.371C185.753 147.371 185.826 147.371 185.881 147.389C185.955 147.389 186.028 147.389 186.101 147.389C186.175 147.389 186.248 147.389 186.339 147.389H186.358C186.376 147.389 186.394 147.389 186.413 147.389C186.449 147.389 186.486 147.389 186.523 147.389C186.523 147.389 186.523 147.389 186.541 147.389C186.614 147.389 186.688 147.389 186.761 147.371C187.696 147.279 188.594 147.004 189.383 146.583C188.979 145.888 188.466 145.357 187.989 144.917Z" fill="#699DEE"/>
<path d="M247.387 180.802C247.387 182.413 247.937 183.877 248.835 185.067C249.128 185.452 249.477 185.818 249.862 186.129C251.072 187.155 252.666 187.777 254.39 187.777C255.948 187.777 257.396 187.264 258.569 186.386C259.083 186.001 259.541 185.543 259.926 185.049C260.843 183.877 261.374 182.394 261.374 180.783C261.374 176.92 258.239 173.789 254.371 173.789C250.503 173.789 247.387 176.939 247.387 180.802Z" fill="white"/>
<path d="M257.945 184.756C257.945 184.738 257.927 184.72 257.909 184.701C257.872 184.665 257.835 184.628 257.799 184.591C257.707 184.518 257.597 184.463 257.45 184.408C257.45 184.408 257.45 184.408 257.432 184.408C256.827 184.152 256.021 184.06 256.021 184.06C255.801 184.024 255.617 184.006 255.526 183.987C255.287 183.804 254.976 183.053 254.921 181.9C254.921 181.9 255.177 181.296 255.526 181.479C256.076 181.772 257.102 180.582 256.772 179.007C256.736 178.843 256.699 178.678 256.644 178.55C256.754 178.605 256.882 178.641 257.011 178.641C257.322 178.641 257.799 177.836 257.872 177.579C257.945 177.305 257.872 176.426 257.432 176.17C257.011 175.913 256.351 176.206 256.314 176.224C256.534 175.932 257.267 175.986 257.396 176.005C255.691 175.657 255.324 176.755 255.306 176.847C254.224 175.858 252.556 177.561 252.152 178.019C252.116 178.037 252.097 178.074 252.061 178.092C251.969 178.147 251.859 178.238 251.749 178.367C251.529 178.623 251.474 178.952 251.474 179.282C251.474 179.85 251.694 180.362 251.694 180.362C251.786 181.314 252.061 182.486 252.501 182.523C252.501 182.523 252.647 182.523 252.886 182.504C252.886 182.523 252.886 182.523 252.886 182.541C252.886 182.706 252.904 182.889 252.904 183.053V183.163C252.904 183.639 252.867 184.097 252.776 184.152C252.739 184.152 252.702 184.152 252.684 184.152C252.647 184.152 252.556 184.17 252.556 184.17C252.171 184.225 251.896 184.262 251.712 184.298C251.327 184.353 251.236 184.408 251.144 184.482C251.126 184.5 251.107 184.518 251.071 184.555C250.796 184.774 250.283 185.25 249.824 186.184C251.052 187.209 252.629 187.832 254.352 187.832C255.911 187.832 257.359 187.319 258.532 186.441C258.349 185.726 258.147 185.141 257.945 184.756Z" fill="#F99746"/>
<path d="M247.387 40.395C247.387 42.0061 247.937 43.4708 248.835 44.6608C249.128 45.0453 249.477 45.4115 249.862 45.7227C251.072 46.748 252.666 47.3705 254.39 47.3705C255.948 47.3705 257.396 46.8578 258.569 45.979C259.083 45.5945 259.541 45.1368 259.926 44.6425C260.843 43.4708 261.374 41.9878 261.374 40.3767C261.374 36.5136 258.239 33.3829 254.371 33.3829C250.503 33.3829 247.387 36.5319 247.387 40.395Z" fill="white"/>
<path d="M257.945 44.3496C257.945 44.3313 257.927 44.313 257.909 44.2946C257.872 44.258 257.835 44.2214 257.799 44.1848C257.707 44.1116 257.597 44.0566 257.45 44.0017C257.45 44.0017 257.45 44.0017 257.432 44.0017C256.827 43.7454 256.021 43.6539 256.021 43.6539C255.801 43.6172 255.617 43.5989 255.526 43.5806C255.471 43.5257 255.416 43.4525 255.342 43.3426C255.141 42.9948 254.957 42.354 254.921 41.4935C254.921 41.4935 255.177 40.8893 255.526 41.0724C256.076 41.3653 257.102 40.1753 256.772 38.6008C256.736 38.436 256.699 38.2712 256.644 38.1431C256.754 38.198 256.882 38.2346 257.011 38.2346C257.322 38.2346 257.799 37.429 257.872 37.1727C257.945 36.8981 257.872 36.0193 257.432 35.763C257.011 35.5067 256.351 35.7996 256.314 35.8179C256.534 35.525 257.267 35.5799 257.396 35.5982C255.691 35.2503 255.324 36.3488 255.306 36.4404C254.224 35.4517 252.556 37.1544 252.152 37.6121C252.116 37.6304 252.097 37.667 252.061 37.6853C251.969 37.7403 251.859 37.8318 251.749 37.96C251.529 38.2163 251.474 38.5458 251.474 38.8754C251.474 39.4429 251.694 39.9556 251.694 39.9556C251.786 40.9076 252.061 42.0793 252.501 42.116C252.501 42.116 252.647 42.116 252.886 42.0976C252.886 42.116 252.886 42.116 252.886 42.1343C252.886 42.299 252.904 42.4821 252.904 42.6469V42.7567C252.904 43.2328 252.867 43.6905 252.776 43.7454C252.739 43.7454 252.702 43.7454 252.684 43.7454C252.647 43.7454 252.556 43.7637 252.556 43.7637C252.171 43.8186 251.896 43.8552 251.712 43.8919C251.327 43.9651 251.236 44.0017 251.144 44.0749C251.126 44.0933 251.107 44.1299 251.071 44.1482C250.796 44.3496 250.283 44.8439 249.824 45.7776C249.898 45.8325 249.953 45.8875 250.026 45.9424C250.044 45.9424 250.044 45.9607 250.063 45.9607C250.118 45.9973 250.173 46.0339 250.228 46.0706C250.264 46.1072 250.301 46.1255 250.338 46.1621C250.374 46.1804 250.411 46.217 250.448 46.2353C250.503 46.2719 250.558 46.3086 250.613 46.3452C250.649 46.3635 250.686 46.4001 250.723 46.4184C250.778 46.455 250.814 46.4733 250.869 46.51C250.924 46.5466 250.979 46.5649 251.034 46.6015C251.034 46.6015 251.034 46.6015 251.053 46.6015L251.071 46.6198C251.107 46.6381 251.162 46.6747 251.199 46.693C251.217 46.693 251.236 46.7113 251.236 46.7113C251.254 46.7297 251.291 46.7297 251.309 46.748C251.327 46.7663 251.364 46.7663 251.382 46.7846C251.437 46.8029 251.492 46.8395 251.547 46.8578C251.602 46.8761 251.657 46.9127 251.712 46.931C251.731 46.9494 251.767 46.9494 251.786 46.9677C251.804 46.9677 251.841 46.986 251.859 47.0043C251.914 47.0226 251.969 47.0409 252.024 47.0592C252.079 47.0775 252.134 47.0958 252.189 47.1141C252.244 47.1324 252.281 47.1507 252.336 47.1507H252.354C252.391 47.1507 252.409 47.1691 252.446 47.1691C252.611 47.224 252.776 47.2606 252.959 47.2789C253.032 47.2972 253.106 47.3155 253.179 47.3155C253.197 47.3155 253.216 47.3155 253.234 47.3155H253.252C253.307 47.3155 253.344 47.3338 253.399 47.3338C253.417 47.3338 253.417 47.3338 253.436 47.3338H253.454C253.509 47.3338 253.546 47.3521 253.582 47.3521H253.601C253.619 47.3521 253.637 47.3521 253.637 47.3521C253.711 47.3521 253.802 47.3704 253.876 47.3704H253.894C253.912 47.3704 253.949 47.3704 253.967 47.3704C253.986 47.3704 254.004 47.3704 254.022 47.3704C254.096 47.3704 254.187 47.3704 254.261 47.3704C255.819 47.3704 257.267 46.8578 258.44 45.979C258.349 45.3199 258.147 44.734 257.945 44.3496Z" fill="#F99746"/>
<path d="M342.311 317.785L317.122 330.82H300.348C296.297 328.111 275.306 313.812 266.616 303.138C264.783 300.886 258.037 281.388 252.867 265.587C253.564 267.693 268.01 298.414 272.116 301.911C276.223 305.408 297.837 325.749 303.795 325.529C309.569 325.328 340.331 318.261 342.238 317.821C342.238 317.785 342.274 317.785 342.311 317.785Z" fill="#EFA26F"/>
<path d="M392.999 330.802H302.162C306.709 329.008 324.143 322.362 342.218 317.803C342.255 317.803 342.273 317.785 342.31 317.785C357.819 313.867 373.805 311.486 382.476 315.057L382.531 315.148L392.999 330.802Z" fill="#D2E3FC"/>
<path d="M246.67 210.992C248.21 210.424 250.355 210.058 251.4 211.798C253.032 214.507 246.982 238.454 246.23 241.457L246.67 210.992Z" fill="#EFA26F"/>
<path d="M247.129 198.121L246.615 212.603C246.615 212.603 249.658 213.097 251.4 211.798C253.142 210.498 252.207 197.938 247.129 198.121Z" fill="#FFC197"/>
<path d="M186.119 281.973C177.393 283.768 158.584 276.92 158.584 276.92L161.627 247.645L140.361 271.959C129.545 267.931 112.624 257.44 102.578 250.922C128.335 248.121 147.566 222.728 147.566 222.728C165.422 232.394 185.587 238.033 185.587 238.033C185.569 255.408 186.119 281.973 186.119 281.973Z" fill="#CBE1FD"/>
<path d="M126.227 255.39C126.245 253.431 127.84 251.875 129.802 251.893C131.763 251.911 133.321 253.504 133.303 255.463C133.285 257.422 131.69 258.978 129.728 258.96C127.767 258.923 126.208 257.33 126.227 255.39Z" fill="#F99746"/>
</g>
<defs>
<clipPath id="clip0_1046_2105">
<rect width="352" height="321" fill="white" transform="translate(41 9.80176)"/>
</clipPath>
</defs>
</svg>
