<?xml version="1.0" encoding="UTF-8"?>
<svg xmlns="http://www.w3.org/2000/svg" width="85" height="84" viewBox="0 0 85 84" fill="none">
  <path d="M51.0871 66.9389H60.4686V69.2093H51.0871V66.9389Z" fill="#191B20" stroke="white" stroke-width="0.1"></path>
  <mask id="path-2-inside-1_302_3483" fill="white">
    <path d="M75.9259 45.5556H72.3704V24.2222C72.3704 21.6077 70.2441 19.4815 67.6296 19.4815H43.9259C43.875 19.4815 43.8276 19.4945 43.7766 19.4969C42.9339 14.1256 38.288 10 32.6844 10C29.7879 10 27.0596 11.088 24.963 13.0708C22.8664 11.088 20.1381 10 17.2415 10C11.043 10 6 15.043 6 21.2415C6 27.9496 9.29244 34.2335 14.8083 38.0521L19.9686 41.6255C21.443 42.6459 23.1698 43.1852 24.963 43.1852C26.7561 43.1852 28.483 42.6459 29.9573 41.6255L35.1176 38.0521C36.6453 36.995 38 35.7114 39.1852 34.2868V43.3973C38.5843 43.2622 37.9704 43.1852 37.3505 43.1852C36.0421 43.1852 34.7324 43.4945 33.5603 44.08L26.0391 47.8406L13.1111 43.9627V67.2966L26.077 63.4068L27.4424 63.9923C31.1876 65.597 35.133 66.5357 39.1852 66.8024V69.2593C39.1852 71.8738 41.3114 74 43.9259 74H67.6296C70.2441 74 72.3704 71.8738 72.3704 69.2593V66.6708C73.7464 66.1801 74.7407 64.8764 74.7407 63.3333C74.7407 62.4196 74.384 61.5935 73.8163 60.963C74.3852 60.3324 74.7407 59.5064 74.7407 58.5926C74.7407 57.6788 74.384 56.8527 73.8163 56.2222C74.3852 55.5917 74.7407 54.7656 74.7407 53.8519C74.7407 53.4347 74.6554 53.0388 74.5227 52.6667H75.9259C77.8862 52.6667 79.4815 51.0714 79.4815 49.1111C79.4815 47.1508 77.8862 45.5556 75.9259 45.5556ZM51.037 21.8519H58.1481V24.2222H51.037V21.8519ZM48.6667 21.8519V24.2222C48.6667 25.5295 49.7298 26.5926 51.037 26.5926H58.1481C59.4554 26.5926 60.5185 25.5295 60.5185 24.2222V21.8519H67.6296C68.9369 21.8519 70 22.915 70 24.2222V28.963H41.5556V24.2222C41.5556 22.915 42.6187 21.8519 43.9259 21.8519H48.6667ZM33.7689 36.1025L28.6086 39.6759C26.4563 41.1656 23.472 41.1656 21.3197 39.6759L16.157 36.1025C11.2812 32.7271 8.37037 27.1721 8.37037 21.2415C8.37037 16.3502 12.349 12.3704 17.2415 12.3704C19.6107 12.3704 21.8388 13.2936 23.5147 14.9683L24.963 16.4166L26.4113 14.9683C28.0871 13.2936 30.3153 12.3704 32.6844 12.3704C37.2166 12.3704 40.9582 15.7873 41.4856 20.1784C40.1132 21.0104 39.1852 22.5037 39.1852 24.2222V26.5926H32.9689L29.8696 15.7481L23.792 31.5502L21.6207 25.7594C21.2747 24.8397 20.3834 24.2222 19.4009 24.2222H17.6338C17.1431 22.8462 15.8394 21.8519 14.2963 21.8519C12.336 21.8519 10.7407 23.4471 10.7407 25.4074C10.7407 27.3677 12.336 28.963 14.2963 28.963C15.8394 28.963 17.1431 27.9686 17.6338 26.5926H19.4009L23.7647 38.2264L29.5378 23.2148L30.6886 27.2421C30.9766 28.2554 31.9141 28.963 32.9677 28.963H39.1852V30.1351C37.8483 32.4936 36.0006 34.5582 33.7689 36.1025ZM15.4815 25.4074C15.4815 26.0604 14.9505 26.5926 14.2963 26.5926C13.6421 26.5926 13.1111 26.0604 13.1111 25.4074C13.1111 24.7544 13.6421 24.2222 14.2963 24.2222C14.9505 24.2222 15.4815 24.7544 15.4815 25.4074ZM41.5556 31.3333H70V50.2963H68.8148C66.8545 50.2963 65.2593 51.8916 65.2593 53.8519C65.2593 54.7656 65.616 55.5917 66.1837 56.2222C65.6148 56.8527 65.2593 57.6788 65.2593 58.5926C65.2593 59.5064 65.616 60.3324 66.1837 60.963C65.8744 61.3055 65.635 61.7049 65.4773 62.1481H41.5556V56.6003C42.307 57.1206 43.1959 57.4074 44.1298 57.4074C46.6305 57.4074 48.6667 55.3713 48.6667 52.8705C48.6667 51.8382 48.3052 50.8687 47.6747 50.0711C47.9769 50.2122 48.3111 50.2963 48.6667 50.2963H51.037V52.6667C51.037 53.9739 52.1001 55.037 53.4074 55.037H58.1481C59.4554 55.037 60.5185 53.9739 60.5185 52.6667V50.2963H62.8889C64.1961 50.2963 65.2593 49.2332 65.2593 47.9259V43.1852C65.2593 41.8779 64.1961 40.8148 62.8889 40.8148H60.5185V38.4444C60.5185 37.1372 59.4554 36.0741 58.1481 36.0741H53.4074C52.1001 36.0741 51.037 37.1372 51.037 38.4444V40.8148H48.6667C47.3594 40.8148 46.2963 41.8779 46.2963 43.1852V47.9259C46.2963 48.2305 46.3591 48.5209 46.4646 48.7887L43.344 45.6681C42.8119 45.136 42.205 44.6868 41.5556 44.3158V31.3333ZM72.3704 58.5926C72.3704 59.2468 71.8394 59.7778 71.1852 59.7778H68.8148C68.1606 59.7778 67.6296 59.2468 67.6296 58.5926C67.6296 57.9384 68.1606 57.4074 68.8148 57.4074H71.1852C71.8394 57.4074 72.3704 57.9384 72.3704 58.5926ZM62.8889 43.1852V47.9259H58.1481V52.6667H53.4074V47.9259H48.6667V43.1852H53.4074V38.4444H58.1481V43.1852H62.8889ZM15.4815 47.1484L24.963 49.9929V61.2664L15.4815 64.1108V47.1484ZM28.3751 61.8139L27.3333 61.3671V49.8436L34.6199 46.2003C36.9037 45.0601 39.8655 45.5413 41.667 47.344L45.661 51.3381C46.0652 51.741 46.2963 52.2993 46.2963 52.8705C46.2963 54.0652 45.3244 55.037 44.1298 55.037C43.5597 55.037 43.0003 54.8059 42.5973 54.403L39.5324 51.3381C38.8616 50.6673 37.968 50.2963 37.0187 50.2963H34.4444V52.6667H37.0187C37.3304 52.6667 37.6361 52.7923 37.8566 53.0139L39.1852 54.3425V64.4296C35.4566 64.1653 31.8252 63.2919 28.3751 61.8139ZM67.6296 71.6296H43.9259C42.6187 71.6296 41.5556 70.5665 41.5556 69.2593V64.5185H65.4773C65.968 65.8945 67.2717 66.8889 68.8148 66.8889H70V69.2593C70 70.5665 68.9369 71.6296 67.6296 71.6296ZM71.1852 64.5185H68.8148C68.1606 64.5185 67.6296 63.9876 67.6296 63.3333C67.6296 62.6791 68.1606 62.1481 68.8148 62.1481H71.1852C71.8394 62.1481 72.3704 62.6791 72.3704 63.3333C72.3704 63.9876 71.8394 64.5185 71.1852 64.5185ZM72.3704 53.8519C72.3704 54.5061 71.8394 55.037 71.1852 55.037H68.8148C68.1606 55.037 67.6296 54.5061 67.6296 53.8519C67.6296 53.1976 68.1606 52.6667 68.8148 52.6667H71.1852C71.8394 52.6667 72.3704 53.1976 72.3704 53.8519ZM75.9259 50.2963H72.3704V47.9259H75.9259C76.5801 47.9259 77.1111 48.4569 77.1111 49.1111C77.1111 49.7653 76.5801 50.2963 75.9259 50.2963Z"></path>
  </mask>
  <path d="M75.9259 45.5556H72.3704V24.2222C72.3704 21.6077 70.2441 19.4815 67.6296 19.4815H43.9259C43.875 19.4815 43.8276 19.4945 43.7766 19.4969C42.9339 14.1256 38.288 10 32.6844 10C29.7879 10 27.0596 11.088 24.963 13.0708C22.8664 11.088 20.1381 10 17.2415 10C11.043 10 6 15.043 6 21.2415C6 27.9496 9.29244 34.2335 14.8083 38.0521L19.9686 41.6255C21.443 42.6459 23.1698 43.1852 24.963 43.1852C26.7561 43.1852 28.483 42.6459 29.9573 41.6255L35.1176 38.0521C36.6453 36.995 38 35.7114 39.1852 34.2868V43.3973C38.5843 43.2622 37.9704 43.1852 37.3505 43.1852C36.0421 43.1852 34.7324 43.4945 33.5603 44.08L26.0391 47.8406L13.1111 43.9627V67.2966L26.077 63.4068L27.4424 63.9923C31.1876 65.597 35.133 66.5357 39.1852 66.8024V69.2593C39.1852 71.8738 41.3114 74 43.9259 74H67.6296C70.2441 74 72.3704 71.8738 72.3704 69.2593V66.6708C73.7464 66.1801 74.7407 64.8764 74.7407 63.3333C74.7407 62.4196 74.384 61.5935 73.8163 60.963C74.3852 60.3324 74.7407 59.5064 74.7407 58.5926C74.7407 57.6788 74.384 56.8527 73.8163 56.2222C74.3852 55.5917 74.7407 54.7656 74.7407 53.8519C74.7407 53.4347 74.6554 53.0388 74.5227 52.6667H75.9259C77.8862 52.6667 79.4815 51.0714 79.4815 49.1111C79.4815 47.1508 77.8862 45.5556 75.9259 45.5556ZM51.037 21.8519H58.1481V24.2222H51.037V21.8519ZM48.6667 21.8519V24.2222C48.6667 25.5295 49.7298 26.5926 51.037 26.5926H58.1481C59.4554 26.5926 60.5185 25.5295 60.5185 24.2222V21.8519H67.6296C68.9369 21.8519 70 22.915 70 24.2222V28.963H41.5556V24.2222C41.5556 22.915 42.6187 21.8519 43.9259 21.8519H48.6667ZM33.7689 36.1025L28.6086 39.6759C26.4563 41.1656 23.472 41.1656 21.3197 39.6759L16.157 36.1025C11.2812 32.7271 8.37037 27.1721 8.37037 21.2415C8.37037 16.3502 12.349 12.3704 17.2415 12.3704C19.6107 12.3704 21.8388 13.2936 23.5147 14.9683L24.963 16.4166L26.4113 14.9683C28.0871 13.2936 30.3153 12.3704 32.6844 12.3704C37.2166 12.3704 40.9582 15.7873 41.4856 20.1784C40.1132 21.0104 39.1852 22.5037 39.1852 24.2222V26.5926H32.9689L29.8696 15.7481L23.792 31.5502L21.6207 25.7594C21.2747 24.8397 20.3834 24.2222 19.4009 24.2222H17.6338C17.1431 22.8462 15.8394 21.8519 14.2963 21.8519C12.336 21.8519 10.7407 23.4471 10.7407 25.4074C10.7407 27.3677 12.336 28.963 14.2963 28.963C15.8394 28.963 17.1431 27.9686 17.6338 26.5926H19.4009L23.7647 38.2264L29.5378 23.2148L30.6886 27.2421C30.9766 28.2554 31.9141 28.963 32.9677 28.963H39.1852V30.1351C37.8483 32.4936 36.0006 34.5582 33.7689 36.1025ZM15.4815 25.4074C15.4815 26.0604 14.9505 26.5926 14.2963 26.5926C13.6421 26.5926 13.1111 26.0604 13.1111 25.4074C13.1111 24.7544 13.6421 24.2222 14.2963 24.2222C14.9505 24.2222 15.4815 24.7544 15.4815 25.4074ZM41.5556 31.3333H70V50.2963H68.8148C66.8545 50.2963 65.2593 51.8916 65.2593 53.8519C65.2593 54.7656 65.616 55.5917 66.1837 56.2222C65.6148 56.8527 65.2593 57.6788 65.2593 58.5926C65.2593 59.5064 65.616 60.3324 66.1837 60.963C65.8744 61.3055 65.635 61.7049 65.4773 62.1481H41.5556V56.6003C42.307 57.1206 43.1959 57.4074 44.1298 57.4074C46.6305 57.4074 48.6667 55.3713 48.6667 52.8705C48.6667 51.8382 48.3052 50.8687 47.6747 50.0711C47.9769 50.2122 48.3111 50.2963 48.6667 50.2963H51.037V52.6667C51.037 53.9739 52.1001 55.037 53.4074 55.037H58.1481C59.4554 55.037 60.5185 53.9739 60.5185 52.6667V50.2963H62.8889C64.1961 50.2963 65.2593 49.2332 65.2593 47.9259V43.1852C65.2593 41.8779 64.1961 40.8148 62.8889 40.8148H60.5185V38.4444C60.5185 37.1372 59.4554 36.0741 58.1481 36.0741H53.4074C52.1001 36.0741 51.037 37.1372 51.037 38.4444V40.8148H48.6667C47.3594 40.8148 46.2963 41.8779 46.2963 43.1852V47.9259C46.2963 48.2305 46.3591 48.5209 46.4646 48.7887L43.344 45.6681C42.8119 45.136 42.205 44.6868 41.5556 44.3158V31.3333ZM72.3704 58.5926C72.3704 59.2468 71.8394 59.7778 71.1852 59.7778H68.8148C68.1606 59.7778 67.6296 59.2468 67.6296 58.5926C67.6296 57.9384 68.1606 57.4074 68.8148 57.4074H71.1852C71.8394 57.4074 72.3704 57.9384 72.3704 58.5926ZM62.8889 43.1852V47.9259H58.1481V52.6667H53.4074V47.9259H48.6667V43.1852H53.4074V38.4444H58.1481V43.1852H62.8889ZM15.4815 47.1484L24.963 49.9929V61.2664L15.4815 64.1108V47.1484ZM28.3751 61.8139L27.3333 61.3671V49.8436L34.6199 46.2003C36.9037 45.0601 39.8655 45.5413 41.667 47.344L45.661 51.3381C46.0652 51.741 46.2963 52.2993 46.2963 52.8705C46.2963 54.0652 45.3244 55.037 44.1298 55.037C43.5597 55.037 43.0003 54.8059 42.5973 54.403L39.5324 51.3381C38.8616 50.6673 37.968 50.2963 37.0187 50.2963H34.4444V52.6667H37.0187C37.3304 52.6667 37.6361 52.7923 37.8566 53.0139L39.1852 54.3425V64.4296C35.4566 64.1653 31.8252 63.2919 28.3751 61.8139ZM67.6296 71.6296H43.9259C42.6187 71.6296 41.5556 70.5665 41.5556 69.2593V64.5185H65.4773C65.968 65.8945 67.2717 66.8889 68.8148 66.8889H70V69.2593C70 70.5665 68.9369 71.6296 67.6296 71.6296ZM71.1852 64.5185H68.8148C68.1606 64.5185 67.6296 63.9876 67.6296 63.3333C67.6296 62.6791 68.1606 62.1481 68.8148 62.1481H71.1852C71.8394 62.1481 72.3704 62.6791 72.3704 63.3333C72.3704 63.9876 71.8394 64.5185 71.1852 64.5185ZM72.3704 53.8519C72.3704 54.5061 71.8394 55.037 71.1852 55.037H68.8148C68.1606 55.037 67.6296 54.5061 67.6296 53.8519C67.6296 53.1976 68.1606 52.6667 68.8148 52.6667H71.1852C71.8394 52.6667 72.3704 53.1976 72.3704 53.8519ZM75.9259 50.2963H72.3704V47.9259H75.9259C76.5801 47.9259 77.1111 48.4569 77.1111 49.1111C77.1111 49.7653 76.5801 50.2963 75.9259 50.2963Z" fill="#191B20" stroke="white" stroke-width="0.2" mask="url(#path-2-inside-1_302_3483)"></path>
</svg>
