<svg xmlns="http://www.w3.org/2000/svg" xmlns:xlink="http://www.w3.org/1999/xlink" width="35" height="35" fill="none" xmlns:v="https://vecta.io/nano"><g clip-path="url(#A)" fill="#3e3465"><path d="M26.211 13.57l-.787.86 3.578 3.279c.842.775 1.322 1.867 1.322 3.011V35h1.167V20.72a5.27 5.27 0 0 0-1.702-3.871l-3.578-3.279zM21.574 0H6.407A2.92 2.92 0 0 0 3.49 2.917v29.167A2.92 2.92 0 0 0 6.407 35H20.99v-1.044a13.26 13.26 0 0 1 2.235-7.383c.154-.232.123-.54-.073-.736l-4.083-4.083a1.89 1.89 0 0 1 .139-2.8c.795-.608 1.919-.521 2.611.201l5.758 5.758.825-.825-3.912-3.914V2.917A2.92 2.92 0 0 0 21.574 0zm1.75 19.009l-.679-.679a3.14 3.14 0 0 0-4.179-.276 3.06 3.06 0 0 0-.221 4.526l3.751 3.751a14.42 14.42 0 0 0-2.168 7.503H6.407a1.75 1.75 0 0 1-1.75-1.75v-1.75H19.24v-1.167H4.657v-24.5h18.667v14.342zm0-15.509H4.657v-.583a1.75 1.75 0 0 1 1.75-1.75h15.167a1.75 1.75 0 0 1 1.75 1.75V3.5zm-16.333 7h2.333c.644 0 1.167-.522 1.167-1.167V7c0-.644-.522-1.167-1.167-1.167H6.991c-.644 0-1.167.522-1.167 1.167v2.333c0 .644.522 1.167 1.167 1.167zm0-3.5h2.333v2.333H6.991V7z"/><use xlink:href="#B"/><path d="M18.657 10.5h2.333c.644 0 1.167-.522 1.167-1.167V7c0-.644-.522-1.167-1.167-1.167h-2.333c-.644 0-1.167.522-1.167 1.167v2.333c0 .644.522 1.167 1.167 1.167zm0-3.5h2.333v2.333h-2.333V7zM6.991 16.333h2.333c.644 0 1.167-.522 1.167-1.167v-2.333c0-.644-.522-1.167-1.167-1.167H6.991c-.644 0-1.167.522-1.167 1.167v2.333c0 .644.522 1.167 1.167 1.167zm0-3.5h2.333v2.333H6.991v-2.333zm0 9.334h2.333c.644 0 1.167-.522 1.167-1.167v-2.333c0-.644-.522-1.167-1.167-1.167H6.991c-.644 0-1.167.522-1.167 1.167V21c0 .644.522 1.167 1.167 1.167zm0-3.5h2.333V21H6.991v-2.333z"/><use xlink:href="#C"/><path d="M18.657 16.333h2.333c.644 0 1.167-.522 1.167-1.167v-2.333c0-.644-.522-1.167-1.167-1.167h-2.333c-.644 0-1.167.522-1.167 1.167v2.333c0 .644.522 1.167 1.167 1.167zm0-3.5h2.333v2.333h-2.333v-2.333zm-5.834 9.334h2.333c.644 0 1.167-.522 1.167-1.167v-2.333c0-.644-.522-1.167-1.167-1.167h-2.333c-.644 0-1.167.522-1.167 1.167V21c0 .644.522 1.167 1.167 1.167zm0-3.5h2.333V21h-2.333v-2.333zM6.991 28h2.333c.644 0 1.167-.522 1.167-1.167V24.5c0-.644-.522-1.167-1.167-1.167H6.991c-.644 0-1.167.522-1.167 1.167v2.333c0 .644.522 1.167 1.167 1.167zm0-3.5h2.333v2.333H6.991V24.5zm5.832 3.5h2.333c.644 0 1.167-.522 1.167-1.167V24.5c0-.644-.522-1.167-1.167-1.167h-2.333c-.644 0-1.167.522-1.167 1.167v2.333c0 .644.522 1.167 1.167 1.167zm0-3.5h2.333v2.333h-2.333V24.5zm.583 7h1.167v1.167h-1.167V31.5z"/></g><defs><clipPath id="A"><path fill="#fff" d="M0 0h35v35H0z"/></clipPath><path id="B" d="M12.823 10.5h2.333c.644 0 1.167-.522 1.167-1.167V7c0-.644-.522-1.167-1.167-1.167h-2.333c-.644 0-1.167.522-1.167 1.167v2.333c0 .644.522 1.167 1.167 1.167zm0-3.5h2.333v2.333h-2.333V7z"/><path id="C" d="M12.823 16.333h2.333c.644 0 1.167-.522 1.167-1.167v-2.333c0-.644-.522-1.167-1.167-1.167h-2.333c-.644 0-1.167.522-1.167 1.167v2.333c0 .644.522 1.167 1.167 1.167zm0-3.5h2.333v2.333h-2.333v-2.333z"/></defs></svg>