<svg xmlns="http://www.w3.org/2000/svg" width="35" height="35" fill="none" xmlns:v="https://vecta.io/nano"><g clip-path="url(#A)" fill="#3e3465"><path d="M31.309 17.269a6.07 6.07 0 0 1-.692-4.611 3.34 3.34 0 0 0 .057-1.345c-.045-.279-.308-.469-.588-.424a.51.51 0 0 0-.424.588 2.32 2.32 0 0 1-.04.934 7.08 7.08 0 0 0 .812 5.393l.016.026c.031.045 3.073 4.567 1.625 8.583-.927 2.573-2.98 4.84-5.633 6.221-2.774 1.445-5.798 1.732-8.514.809-.929-.316-2.282-1.05-3.729-2.746l.925.006a70.29 70.29 0 0 0 7.394-.389 4.12 4.12 0 0 0 3.692-3.844l.214-4.13c.105.129.252.193.401.193a.51.51 0 0 0 .324-.116c.219-.179.252-.502.073-.721-2.681-3.285-2.872-7.534-2.156-10.415a2.33 2.33 0 0 1 2.842-1.712c.339.084.648.239.918.458a.51.51 0 0 0 .721-.074c.178-.22.146-.542-.074-.721a3.35 3.35 0 0 0-1.319-.659c-.576-.143-1.166-.132-1.723.025l-.223-4.364A4.12 4.12 0 0 0 22.518.39 70.3 70.3 0 0 0 7.73.39c-1.906.202-3.4 1.666-3.66 3.534a3.09 3.09 0 0 0-2.564 3.063A3.12 3.12 0 0 0 3.767 9.98l-.055 2.282a3.09 3.09 0 0 0-2.207 2.978c0 1.082.544 2.04 1.393 2.598-.849.559-1.393 1.517-1.393 2.598 0 1.459.99 2.687 2.367 3.021l.165 3.012c.129 2.015 1.682 3.631 3.693 3.844 1.703.18 3.415.296 5.129.351 1.798 2.372 3.562 3.349 4.739 3.749 1.153.392 2.355.586 3.57.586 1.929 0 3.892-.49 5.748-1.456 2.878-1.499 5.11-3.971 6.124-6.783 1.592-4.415-1.477-9.115-1.731-9.491zM2.531 6.987c0-.939.608-1.727 1.461-1.991l-.188 3.912a2.09 2.09 0 0 1-1.273-1.921zm1.166 6.382l-.003 3.739c-.692-.345-1.163-1.066-1.163-1.869s.473-1.525 1.166-1.87zm-1.166 7.067c0-.811.481-1.538 1.184-1.879l.11 3.81c-.767-.311-1.294-1.06-1.294-1.931zm2.529 5.968a174.29 174.29 0 0 1 0-22.105 3.1 3.1 0 0 1 2.777-2.89c4.835-.512 9.737-.512 14.572 0a3.1 3.1 0 0 1 2.777 2.89l.238 4.774a3.36 3.36 0 0 0-.841.832l-.19-3.768c-.109-1.711-1.428-3.085-3.137-3.267l-1.435-.134a.51.51 0 0 0-.538.384c-.113.442-.495.771-.95.819-2.131.225-4.292.225-6.421 0-.455-.049-.838-.378-.951-.82-.062-.242-.289-.404-.538-.384L8.99 2.87c-1.709.182-3.028 1.555-3.137 3.267a145.27 145.27 0 0 0 0 18.428c.109 1.711 1.428 3.085 3.137 3.267l.855.084c.281.026.531-.182.557-.464a.51.51 0 0 0-.464-.557l-.84-.083A2.48 2.48 0 0 1 6.876 24.5a144.34 144.34 0 0 1 0-18.298A2.48 2.48 0 0 1 9.098 3.89l1.027-.099a2.14 2.14 0 0 0 1.681 1.169 31.74 31.74 0 0 0 6.638 0 2.14 2.14 0 0 0 1.68-1.169l1.027.099a2.48 2.48 0 0 1 2.221 2.313 143.78 143.78 0 0 1 0 18.298 2.48 2.48 0 0 1-2.221 2.312 57.34 57.34 0 0 1-9.196.23.51.51 0 0 0-.54.483c-.015.282.201.525.483.54a58.22 58.22 0 0 0 3.214.089 58.59 58.59 0 0 0 6.148-.324c1.708-.181 3.027-1.555 3.136-3.267a143.5 143.5 0 0 0 .239-5.268 11.94 11.94 0 0 0 .816 1.647c-.057 1.796-.145 3.632-.262 5.459a3.1 3.1 0 0 1-2.777 2.89c-4.835.512-9.737.512-14.572 0a3.1 3.1 0 0 1-2.777-2.89zm7.859-23.35h4.409c.283 0 .513-.23.513-.513s-.23-.513-.513-.513h-4.409c-.283 0-.513.23-.513.513s.23.513.513.513zm1.051 18.307l.056-.001 1.874-.074a1.41 1.41 0 0 0 1.21-.784l3.883-7.834c.346-.697.059-1.546-.638-1.892l-1.392-.69a1.4 1.4 0 0 0-1.078-.073c-.357.12-.646.373-.814.711l-2.338 4.718-.86-1.438a1.4 1.4 0 0 0-1.936-.487l-1.334.797a1.4 1.4 0 0 0-.487 1.936l2.644 4.423a1.41 1.41 0 0 0 1.212.687zm-3.018-5.929c.025-.1.088-.184.176-.237l1.334-.797a.39.39 0 0 1 .197-.055.39.39 0 0 1 .095.012c.1.025.184.088.237.177l1.342 2.244a.51.51 0 0 0 .899-.036l2.756-5.56c.046-.092.125-.162.223-.195s.203-.026.295.02l1.392.69c.191.095.269.327.175.518l-3.883 7.834c-.063.127-.19.209-.331.215l-1.874.074c-.142.006-.274-.066-.347-.188l-2.644-4.423c-.053-.089-.068-.193-.043-.293z"/></g><defs><clipPath id="A"><path fill="#fff" d="M0 0h35v35H0z"/></clipPath></defs></svg>