<svg xmlns="http://www.w3.org/2000/svg" width="35" height="35" fill="#3e3465" xmlns:v="https://vecta.io/nano"><path d="M5.195 30.898h8.203A4.11 4.11 0 0 0 17.5 35a4.11 4.11 0 0 0 4.102-4.102h8.203c.566 0 1.025-.459 1.025-1.025 0-3.945-1.207-5.473-2.271-6.822-.982-1.244-1.83-2.318-1.83-5.551v-4.17c0-4.142-2.743-7.656-6.509-8.819a3.06 3.06 0 0 0 .356-1.435A3.08 3.08 0 0 0 17.5 0a3.08 3.08 0 0 0-3.076 3.076 3.06 3.06 0 0 0 .356 1.435c-3.765 1.164-6.509 4.677-6.509 8.819v4.17c0 3.233-.848 4.307-1.83 5.551C5.377 24.4 4.17 25.928 4.17 29.873c0 .566.459 1.025 1.025 1.025zM17.5 32.949c-1.131 0-2.051-.92-2.051-2.051h4.102c0 1.131-.92 2.051-2.051 2.051zM16.475 3.076c0-.565.46-1.025 1.025-1.025s1.025.46 1.025 1.025-.46 1.025-1.025 1.025-1.025-.46-1.025-1.025zM8.051 24.322c1.065-1.349 2.271-2.877 2.271-6.822v-4.17A7.19 7.19 0 0 1 17.5 6.152a7.19 7.19 0 0 1 7.178 7.178v4.17c0 3.945 1.207 5.473 2.271 6.822.87 1.102 1.635 2.071 1.798 4.526H6.253c.163-2.455.928-3.424 1.798-4.526zM6.221 13.33a11.33 11.33 0 0 1 5.641-9.766c.49-.284.657-.911.373-1.401s-.912-.657-1.401-.373A13.34 13.34 0 0 0 4.17 13.33c0 .566.459 1.025 1.025 1.025s1.025-.459 1.025-1.025zM24.167 1.789c-.49-.284-1.117-.117-1.401.373s-.117 1.117.373 1.401a11.33 11.33 0 0 1 5.641 9.766c0 .566.459 1.025 1.025 1.025s1.025-.459 1.025-1.025a13.34 13.34 0 0 0-6.664-11.541z"/></svg>