<?xml version="1.0" encoding="UTF-8"?>
<svg xmlns="http://www.w3.org/2000/svg" width="58" height="58" viewBox="0 0 58 58" fill="none">
  <path d="M23.0566 9.19434H47.1218" stroke="#231D36" stroke-width="1.3" stroke-miterlimit="10" stroke-linecap="round" stroke-linejoin="round"></path>
  <mask id="mask0_1961_18040" style="mask-type:luminance" maskUnits="userSpaceOnUse" x="0" y="0" width="58" height="58">
    <path d="M0 7.62939e-06H58V58H0V7.62939e-06Z" fill="white"></path>
  </mask>
  <g mask="url(#mask0_1961_18040)">
    <path d="M9.51095 42.0999H5.50193C3.71356 42.0999 2.26367 40.65 2.26367 38.8616V12.4327C2.26367 10.6444 3.71356 9.19448 5.50193 9.19448H6.3742" stroke="#231D36" stroke-width="1.3" stroke-miterlimit="10" stroke-linecap="round" stroke-linejoin="round"></path>
    <path d="M54.6502 20.5038V38.8615C54.6502 40.6499 53.2004 42.0997 51.412 42.0997L19.9277 42.0999" stroke="#231D36" stroke-width="1.3" stroke-miterlimit="10" stroke-linecap="round" stroke-linejoin="round"></path>
    <path d="M21.0957 13.3354H47.9907" stroke="#231D36" stroke-width="1.3" stroke-miterlimit="10" stroke-linecap="round" stroke-linejoin="round"></path>
    <path d="M2.26367 13.3354H8.34416" stroke="#231D36" stroke-width="1.3" stroke-miterlimit="10" stroke-linecap="round" stroke-linejoin="round"></path>
    <path d="M17.4637 9.19436C17.4637 10.709 16.2357 11.937 14.7211 11.937C13.2064 11.937 11.9785 10.709 11.9785 9.19436C11.9785 7.67968 13.2064 6.45182 14.7211 6.45182C16.2357 6.45182 17.4637 7.67968 17.4637 9.19436Z" stroke="#231D36" stroke-width="1.3" stroke-miterlimit="10" stroke-linecap="round" stroke-linejoin="round"></path>
    <path d="M23.0628 10.5828V7.80618L20.5343 7.27399C20.4393 6.98591 20.3234 6.70747 20.1885 6.44012L21.6003 4.27543L19.637 2.31204L17.4723 3.72387C17.205 3.58906 16.9266 3.47317 16.6385 3.37813L16.1063 0.849581H13.3296L12.7975 3.37813C12.5094 3.47317 12.2309 3.58906 11.9636 3.72387L9.7989 2.31204L7.83551 4.27543L9.24733 6.44012C9.11253 6.70747 8.99664 6.98591 8.9016 7.27399L6.37305 7.80618V10.5828L8.9016 11.115C8.99664 11.4031 9.11253 11.6815 9.24733 11.949L7.83551 14.1136L9.7989 16.0768L11.9636 14.665C12.2309 14.8001 12.5094 14.9157 12.7975 15.0109L13.3296 17.5393H16.1063L16.6385 15.0109C16.9266 14.9157 17.205 14.8001 17.4723 14.665L19.637 16.0768L21.6003 14.1136L20.1885 11.949C20.3234 11.6815 20.4393 11.4031 20.5343 11.115L23.0628 10.5828Z" stroke="#231D36" stroke-width="1.3" stroke-miterlimit="10" stroke-linecap="round" stroke-linejoin="round"></path>
    <path d="M17.4588 25.2849H8.80469V22.0008H17.4588V25.2849Z" stroke="#231D36" stroke-width="1.3" stroke-miterlimit="10" stroke-linecap="round" stroke-linejoin="round"></path>
    <path d="M29.5892 21.2788L32.2302 18.6379C32.5396 18.3284 33.0388 18.3284 33.3471 18.6379L37.4588 22.7485C37.7682 23.0578 38.2673 23.0578 38.5756 22.7485L50.138 11.1859H48.7325C48.2794 11.1859 47.8687 11.0019 47.572 10.7053C47.2753 10.4086 47.0913 9.99669 47.0913 9.54356C47.0913 8.63731 47.8262 7.90234 48.7325 7.90234H54.1256C55.0204 7.90234 55.745 8.62689 55.745 9.52057V14.9137C55.745 15.3679 55.5611 15.7774 55.2642 16.0752C54.9675 16.372 54.5558 16.5561 54.1026 16.5561C53.1963 16.5561 52.4602 15.821 52.4602 14.9137V13.5093L38.5756 27.3927C38.2673 27.7021 37.7682 27.7021 37.4599 27.3927L33.3471 23.281C33.0388 22.9727 32.5396 22.9727 32.2302 23.281L25.2581 30.2542C24.6174 30.8961 23.5777 30.8961 22.936 30.2542C22.615 29.9334 22.4551 29.5136 22.4551 29.0938C22.4551 28.6728 22.615 28.253 22.936 27.9321L26.7577 24.1104" stroke="#231D36" stroke-width="1.3" stroke-miterlimit="10" stroke-linecap="round" stroke-linejoin="round"></path>
    <path d="M33.373 36.4219H49.4752" stroke="#231D36" stroke-width="1.3" stroke-miterlimit="10" stroke-linecap="round" stroke-linejoin="round"></path>
    <path d="M39.9297 32.6946H49.476" stroke="#231D36" stroke-width="1.3" stroke-miterlimit="10" stroke-linecap="round" stroke-linejoin="round"></path>
    <path d="M8.80859 28.5117H14.7201" stroke="#231D36" stroke-width="1.3" stroke-miterlimit="10" stroke-linecap="round" stroke-linejoin="round"></path>
    <path d="M28.4552 57.1504C27.6612 57.1504 27.0176 56.5067 27.0176 55.7127V42.0995H29.8929V55.7127C29.8929 56.5067 29.2493 57.1504 28.4552 57.1504Z" stroke="#231D36" stroke-width="1.3" stroke-miterlimit="10" stroke-linecap="round" stroke-linejoin="round"></path>
    <path d="M22.7424 42.1L19.1721 56.0688C19.0094 56.7052 18.4361 57.1504 17.7792 57.1504H17.4853C16.5469 57.1504 15.86 56.266 16.0924 55.3567L18.5911 45.5803" stroke="#231D36" stroke-width="1.3" stroke-miterlimit="10" stroke-linecap="round" stroke-linejoin="round"></path>
    <path d="M39.1331 57.1504H39.4271C40.3655 57.1504 41.0523 56.2659 40.82 55.3567L37.4316 42.0995H34.1699L37.7402 56.0687C37.9029 56.7051 38.4762 57.1504 39.1331 57.1504Z" stroke="#231D36" stroke-width="1.3" stroke-miterlimit="10" stroke-linecap="round" stroke-linejoin="round"></path>
    <path d="M19.9242 42.0999C19.9242 44.9764 17.5921 47.3079 14.7157 47.3079C14.3123 47.3079 13.9192 47.2618 13.542 47.1752C11.2312 46.6427 9.50781 44.5729 9.50781 42.0999C9.50781 39.6268 11.2312 37.5571 13.542 37.0245C13.9192 36.9381 14.3123 36.892 14.7157 36.892C17.5921 36.892 19.9242 39.2234 19.9242 42.0999Z" stroke="#231D36" stroke-width="1.3" stroke-miterlimit="10" stroke-linecap="round" stroke-linejoin="round"></path>
    <path d="M14.7168 40.9542V43.2456" stroke="#231D36" stroke-width="1.3" stroke-miterlimit="10" stroke-linecap="round" stroke-linejoin="round"></path>
  </g>
</svg>
