<svg xmlns="http://www.w3.org/2000/svg" xmlns:xlink="http://www.w3.org/1999/xlink" width="35" height="35" fill="none" xmlns:v="https://vecta.io/nano"><g fill="#3e3465"><path d="M18.184 27.754c0 .378-.306.684-.684.684s-.684-.306-.684-.684.306-.684.684-.684.684.306.684.684z"/><use xlink:href="#B"/><path d="M28.643 25.703c-1.723 0-3.44.715-4.611 1.875-1.54-2.024-3.915-3.242-6.532-3.242a8.19 8.19 0 0 0-6.532 3.242c-1.17-1.159-2.888-1.875-4.611-1.875C2.911 25.703 0 28.521 0 31.856v1.367c0 .377.306.683.684.683h33.633c.378 0 .684-.306.684-.683v-1.367c0-3.335-2.911-6.152-6.357-6.152zM1.367 31.856c0-2.594 2.285-4.785 4.99-4.785 1.48 0 2.948.656 3.857 1.698-.601 1.16-.917 2.454-.917 3.77h-7.93v-.684zM17.5 25.703c3.804 0 6.836 3.086 6.836 6.836H10.664c0-3.8 3.094-6.836 6.836-6.836zm16.133 6.836h-7.93c0-1.316-.316-2.61-.917-3.77.909-1.043 2.377-1.698 3.857-1.698 2.705 0 4.99 2.191 4.99 4.785v.684z"/><use xlink:href="#B" x="-22.285"/><path d="M22.969 18.867c0-3.016-2.453-5.469-5.469-5.469s-5.469 2.453-5.469 5.469 2.453 5.469 5.469 5.469 5.469-2.453 5.469-5.469zM17.5 22.969a4.11 4.11 0 0 1-4.102-4.102 4.11 4.11 0 0 1 4.102-4.102 4.11 4.11 0 0 1 4.102 4.102 4.11 4.11 0 0 1-4.102 4.102zM22.91 5.07a.68.68 0 0 0-.552-.465l-2.949-.428-1.32-2.699a.68.68 0 0 0-.614-.383c-.261 0-.499.149-.614.383l-1.32 2.699-2.949.428c-.258.037-.471.218-.552.465s-.013.519.173.701l2.135 2.081-.504 2.939a.68.68 0 0 0 .272.668c.211.152.488.174.72.052l2.638-1.387 2.639 1.387c.23.121.509.101.72-.052s.316-.412.272-.669l-.504-2.938 2.135-2.081c.186-.182.253-.453.173-.701zm-3.52 2.053c-.161.157-.235.383-.197.605l.331 1.928-1.731-.91a.68.68 0 0 0-.636 0l-1.73.91.331-1.928c.038-.222-.036-.448-.197-.605l-1.4-1.365 1.935-.281a.68.68 0 0 0 .516-.376l.865-1.768.864 1.768a.68.68 0 0 0 .516.376l1.935.281-1.401 1.365zm13.738 3.07a.68.68 0 0 0-.552-.465l-1.998-.29-.893-1.81c-.115-.233-.353-.381-.613-.381s-.498.148-.613.381l-.894 1.81-1.998.29c-.257.037-.471.218-.552.465a.68.68 0 0 0 .173.701l1.445 1.41-.341 1.989a.68.68 0 0 0 .272.668c.211.153.489.173.72.052l1.787-.939 1.787.939c.23.121.509.101.72-.052a.68.68 0 0 0 .272-.668l-.341-1.989 1.446-1.41c.186-.182.253-.453.173-.701zm-2.83 1.382a.68.68 0 0 0-.197.605l.168.978-.879-.462a.68.68 0 0 0-.636 0l-.88.462.168-.979a.68.68 0 0 0-.197-.605l-.711-.694.983-.143c.223-.032.415-.172.515-.374l.439-.891.439.89c.1.202.292.342.515.374l.983.143-.711.694zM9.886 10.193a.68.68 0 0 0-.552-.465l-1.998-.29-.893-1.81c-.115-.233-.352-.381-.613-.381s-.498.148-.613.381l-.894 1.81-1.998.29c-.257.037-.471.218-.552.465a.68.68 0 0 0 .173.701l1.445 1.41-.341 1.989a.68.68 0 0 0 .272.668c.211.153.489.173.72.052l1.787-.939 1.787.939c.232.122.511.1.72-.052s.316-.412.272-.668l-.341-1.989 1.446-1.41c.186-.182.253-.453.173-.701zm-2.83 1.382c-.161.157-.234.383-.197.605l.168.978-.879-.462a.68.68 0 0 0-.636 0l-.88.462.168-.979c.038-.222-.036-.448-.197-.605l-.711-.694.983-.143c.222-.032.415-.172.515-.374l.44-.891.439.89c.1.202.292.342.515.374l.983.143-.711.694zm13.439 16.391c-.316-.207-.739-.12-.947.196s-.12.739.196.947c.632.415 1.137.994 1.461 1.674.162.34.569.486.911.323s.486-.57.324-.911a5.49 5.49 0 0 0-1.945-2.229z"/></g><defs ><path id="B" d="M32.744 21.602c0-2.262-1.84-4.102-4.102-4.102s-4.102 1.84-4.102 4.102 1.84 4.101 4.102 4.101 4.102-1.84 4.102-4.101zm-4.102 2.734a2.74 2.74 0 0 1-2.734-2.734 2.74 2.74 0 0 1 2.734-2.734 2.74 2.74 0 0 1 2.734 2.734 2.74 2.74 0 0 1-2.734 2.734z"/></defs></svg>