<svg xmlns="http://www.w3.org/2000/svg" width="35" height="35" fill="#3e3465" xmlns:v="https://vecta.io/nano"><path d="M22.285 4.717h-9.986a2.67 2.67 0 0 0-2.666 2.666v20.234a2.67 2.67 0 0 0 2.666 2.666h9.986a2.67 2.67 0 0 0 2.666-2.666V7.383a2.67 2.67 0 0 0-2.666-2.666zm-1.992.957v.619a.47.47 0 0 1-.471.471h-5.059a.47.47 0 0 1-.471-.471v-.619h6.001zm3.701 21.943a1.71 1.71 0 0 1-1.709 1.709h-9.986a1.71 1.71 0 0 1-1.709-1.709V7.383a1.71 1.71 0 0 1 1.709-1.709h1.035v.619a1.43 1.43 0 0 0 1.428 1.428h5.059a1.43 1.43 0 0 0 1.429-1.428v-.619h1.036a1.71 1.71 0 0 1 1.709 1.709v20.234zm-3.76-.569H14.35a.48.48 0 0 0-.479.479.48.48 0 0 0 .479.479h5.885a.48.48 0 0 0 .479-.479.48.48 0 0 0-.479-.479z"/></svg>