<svg width="17" height="18" viewBox="0 0 17 18" fill="none" xmlns="http://www.w3.org/2000/svg">
<path d="M9.94208 1.92422L11.4087 4.85755C11.6087 5.26589 12.1421 5.65755 12.5921 5.73255L15.2504 6.17422C16.9504 6.45755 17.3504 7.69089 16.1254 8.90755L14.0587 10.9742C13.7087 11.3242 13.5171 11.9992 13.6254 12.4826L14.2171 15.0409C14.6837 17.0659 13.6087 17.8492 11.8171 16.7909L9.32541 15.3159C8.87541 15.0492 8.13375 15.0492 7.67541 15.3159L5.18375 16.7909C3.40041 17.8492 2.31708 17.0576 2.78375 15.0409L3.37541 12.4826C3.48375 11.9992 3.29208 11.3242 2.94208 10.9742L0.875412 8.90755C-0.341254 7.69089 0.0504127 6.45755 1.75041 6.17422L4.40875 5.73255C4.85041 5.65755 5.38375 5.26589 5.58375 4.85755L7.05041 1.92422C7.85041 0.332552 9.15041 0.332552 9.94208 1.92422Z" fill="#EF4235"/>
</svg>
