<svg width="86" height="26" viewBox="0 0 86 26" fill="none" xmlns="http://www.w3.org/2000/svg">
<path d="M22.2207 0.933594H26.1521V25.2057H22.2207V0.933594Z" fill="white"/>
<path d="M39.8272 17.5143C39.8272 21.2748 36.7505 21.6166 35.7249 21.6166C33.3318 21.6166 32.99 19.3945 32.99 18.198V8.79688H29.0586V18.0271C29.0586 20.2492 29.7423 22.3004 31.1098 23.4969C32.3063 24.6934 33.8446 25.2062 35.7249 25.2062C37.0923 25.2062 38.8016 24.8643 39.8272 23.8387V25.2062H43.7586V8.79688H39.8272V17.5143Z" fill="white"/>
<path d="M51.4505 2.8125H47.5191V8.79506H44.6133V12.5555H47.5191V25.2044H51.4505V12.5555H54.3563V8.79506H51.4505V2.8125Z" fill="white"/>
<path d="M66.6623 20.2473C65.8077 20.931 64.6112 21.4438 63.4146 21.4438C60.6798 21.4438 58.7995 19.3927 58.7995 16.6578C58.7995 13.9229 60.6798 12.0427 63.4146 12.0427C64.6112 12.0427 65.8077 12.3845 66.6623 13.2392L67.1751 13.752L69.91 11.188L69.2263 10.6752C67.6879 9.30777 65.6367 8.45312 63.4146 8.45312C58.6286 8.45312 55.0391 12.0427 55.0391 16.8287C55.0391 21.6147 58.6286 25.2043 63.4146 25.2043C65.6367 25.2043 67.6879 24.3496 69.2263 22.9822L69.91 22.4694L67.1751 19.7345L66.6623 20.2473Z" fill="white"/>
<path d="M83.7561 10.1638C82.5596 8.96732 81.3631 8.45452 79.4829 8.45452C78.1154 8.45452 76.748 8.79638 75.7224 9.82196V0.933594H71.791V25.2057H75.7224V16.1464C75.7224 12.3859 78.2864 12.0441 79.3119 12.0441C81.705 12.0441 81.534 14.2661 81.534 15.4627V25.0348H85.4654V15.6336C85.4654 13.4115 84.9526 11.3603 83.7561 10.1638Z" fill="white"/>
<path d="M63.2447 19.5655C64.7551 19.5655 65.9795 18.341 65.9795 16.8306C65.9795 15.3202 64.7551 14.0957 63.2447 14.0957C61.7342 14.0957 60.5098 15.3202 60.5098 16.8306C60.5098 18.341 61.7342 19.5655 63.2447 19.5655Z" fill="#EF4335"/>
<path d="M16.7512 19.2242C15.3837 20.5916 13.3326 21.4463 11.1105 21.4463C6.83721 21.4463 3.76046 18.0277 3.76046 13.4126C3.76046 8.79745 6.83721 5.37884 11.2814 5.37884C13.3326 5.37884 15.3837 6.23349 16.9221 7.77186L17.4349 8.28466L19.9988 5.7207L19.486 5.20791C17.264 2.98582 14.3581 1.78931 11.2814 1.78931C4.78605 1.61838 0 6.74628 0 13.4126C0 20.0788 4.78605 25.2067 11.1105 25.2067C14.1872 25.2067 17.264 24.0102 19.3151 21.7881L19.8279 21.2754L17.264 18.7114L16.7512 19.2242Z" fill="white"/>
</svg>
