<svg width="105" height="32" viewBox="0 0 105 32" fill="none" xmlns="http://www.w3.org/2000/svg">
<g clip-path="url(#clip0_11625_50953)">
<path d="M28.7351 20.1289C27.0288 20.1289 25.4299 19.4065 23.9773 18.2304L24.331 16.5703L24.3464 16.5088C24.6614 14.7412 25.6606 11.7742 28.7351 11.7742C31.0407 11.7742 32.9162 13.6496 32.9162 15.9553C32.9084 18.2534 31.0331 20.1289 28.7351 20.1289ZM28.7351 7.5393C24.8074 7.5393 21.7639 10.0911 20.5265 14.2876C18.6357 11.4514 17.206 8.04661 16.3684 5.17969H12.1411V16.1782C12.1411 18.3457 10.3733 20.1133 8.20579 20.1133C6.03832 20.1133 4.27071 18.3457 4.27071 16.1782V5.17969H0.043017V16.1782C0.0276375 20.6823 3.69388 24.3791 8.1978 24.3791C12.7019 24.3791 16.3682 20.6823 16.3682 16.1782V14.3337C17.1904 16.0476 18.1973 17.7769 19.4194 19.3142L16.8291 31.4885H21.1565L23.0318 22.6575C24.6765 23.7104 26.5674 24.3715 28.7348 24.3715C33.3694 24.3715 37.1433 20.5747 37.1433 15.9399C37.1433 11.313 33.3696 7.5393 28.7351 7.5393Z" fill="#6FDA44"/>
<path d="M50.048 8.01438L52.7766 19.0129L55.7819 8.01438H59.3635L54.7443 23.9089H51.1625L48.3266 12.8411L45.498 23.9011H41.9164L37.2969 8.0068H40.8786L43.8838 19.0053L46.6123 8.0068H50.0478V8.01459L50.048 8.01438ZM67.9333 7.53783C63.2834 7.53783 59.5173 11.3115 59.5173 15.9539C59.5173 20.604 63.2909 24.3701 67.9333 24.3701C72.5834 24.3701 76.3571 20.604 76.3571 15.9539C76.3571 11.3039 72.5834 7.53783 67.9333 7.53783ZM67.9333 20.9114C65.1972 20.9114 62.9836 18.6977 62.9836 15.9616C62.9836 13.2253 65.2048 11.0119 67.9333 11.0119C70.6696 11.0119 72.883 13.2253 72.883 15.9616C72.883 18.6902 70.6696 20.9114 67.9333 20.9114ZM86.5871 11.573C84.1815 11.573 82.2369 13.5251 82.2369 15.9231V23.9011H78.632V8.01438H82.2369V10.4585C82.2369 10.4585 83.7741 8.00659 86.933 8.00659H88.0397V11.573H86.5871ZM98.6849 15.3391C101.244 13.894 102.981 11.1501 102.981 8.00659H99.3764C99.3764 10.6582 97.2245 12.8103 94.5729 12.8103H94.0885V0.34375H90.484V23.9009H94.0885V16.415H94.5191C94.8727 16.415 95.3339 16.6457 95.5414 16.9299L100.66 23.9011H104.98L98.6849 15.3391Z" fill="white"/>
</g>
<defs>
<clipPath id="clip0_11625_50953">
<rect width="105" height="31.374" fill="white" transform="translate(0 0.3125)"/>
</clipPath>
</defs>
</svg>
