<svg width="141" height="140" viewBox="0 0 141 140" fill="none" xmlns="http://www.w3.org/2000/svg">
<g clip-path="url(#clip0_3100_24963)">
<path d="M138.449 28.7109C135.057 28.7109 132.297 25.9509 132.297 22.5586V14.3555C132.297 13.2226 131.379 12.3047 130.246 12.3047H124.094V8.29418C124.094 3.72066 120.373 0 115.8 0C111.226 0 107.505 3.72066 107.505 8.29418V12.3047H101.353C100.22 12.3047 99.302 13.2226 99.302 14.3555V22.5586C99.302 25.9509 96.5419 28.7109 93.1497 28.7109C92.0168 28.7109 91.0989 29.6289 91.0989 30.7617V47.4414H85.9941L76.6523 34.5308V27.0246C76.6523 25.8918 75.7344 24.9739 74.6016 24.9739H66.3984C65.2656 24.9739 64.3477 25.8918 64.3477 27.0246V34.5308L55.0059 47.4414H49.9011V30.7617C49.9011 29.6289 48.9832 28.7109 47.8504 28.7109C44.4581 28.7109 41.698 25.9509 41.698 22.5586V16.4973C41.698 7.40059 34.2974 0 25.2004 0C16.1037 0 8.70312 7.40059 8.70312 16.4973V22.5586C8.70312 25.9509 5.94305 28.7109 2.55078 28.7109C1.41793 28.7109 0.5 29.6289 0.5 30.7617V106.914C0.5 108.047 1.41793 108.965 2.55078 108.965C3.68363 108.965 4.60156 108.047 4.60156 106.914V43.3398H45.7996V113.066H2.55078C1.41793 113.066 0.5 113.984 0.5 115.117V137.949C0.5 139.082 1.41793 140 2.55078 140H138.449C139.582 140 140.5 139.082 140.5 137.949V30.7617C140.5 29.6289 139.582 28.7109 138.449 28.7109ZM103.404 22.5586V16.4062H109.556C110.689 16.4062 111.607 15.4883 111.607 14.3555V8.29418C111.607 5.98227 113.488 4.10156 115.8 4.10156C118.111 4.10156 119.992 5.98227 119.992 8.29418V14.3555C119.992 15.4883 120.91 16.4062 122.043 16.4062H128.195V22.5586C128.195 27.5103 131.724 31.6537 136.398 32.6066V127.695H95.2004V32.6066C99.8751 31.6537 103.404 27.5103 103.404 22.5586ZM49.9011 67.9492H91.0989V99.873H49.9011V67.9492ZM56.0535 51.543C56.7114 51.543 57.3293 51.2274 57.7149 50.6942L68.0598 36.397C68.313 36.0473 68.4492 35.6267 68.4492 35.195V29.0754H72.5508V35.195C72.5508 35.6267 72.687 36.0473 72.9402 36.397L83.2851 50.6942C83.6707 51.2271 84.2886 51.543 84.9465 51.543H91.0989V63.8477H49.9011V51.543H56.0535ZM12.8047 16.4973C12.8047 9.66219 18.3653 4.10156 25.2004 4.10156C32.0355 4.10156 37.5964 9.66219 37.5964 16.4973V39.2383H12.8047V16.4973ZM4.60156 32.6066C6.11668 32.2976 7.50984 31.652 8.70312 30.7541V39.2383H4.60156V32.6066ZM41.698 39.2383V30.7541C42.8913 31.652 44.2845 32.2976 45.7996 32.6066V39.2383H41.698ZM4.60156 117.168H45.7996V135.898H4.60156V117.168ZM49.9011 135.898V103.975H91.0989V135.898H49.9011ZM95.2004 135.898V131.797H136.398V135.898H95.2004Z" fill="#101018"/>
<path d="M29.3018 76.1523H39.647C40.7798 76.1523 41.6978 75.2344 41.6978 74.1016V49.4922C41.6978 48.3593 40.7798 47.4414 39.647 47.4414H29.3018C28.1689 47.4414 27.251 48.3593 27.251 49.4922V74.1016C27.251 75.2344 28.1689 76.1523 29.3018 76.1523ZM31.3525 72.0508V67.9492H37.5962V72.0508H31.3525ZM37.5962 51.543V63.8477H31.3525V51.543H37.5962Z" fill="#101018"/>
<path d="M10.7539 76.1523H21.0989C22.2317 76.1523 23.1496 75.2344 23.1496 74.1016V49.4922C23.1496 48.3593 22.2317 47.4414 21.0989 47.4414H10.7539C9.62105 47.4414 8.70312 48.3593 8.70312 49.4922V74.1016C8.70312 75.2344 9.62105 76.1523 10.7539 76.1523ZM12.8047 72.0508V67.9492H19.0481V72.0508H12.8047ZM19.0481 51.543V63.8477H12.8047V51.543H19.0481Z" fill="#101018"/>
<path d="M84.9465 108.076H74.6016C73.4687 108.076 72.5508 108.994 72.5508 110.127V129.746C72.5508 130.879 73.4687 131.797 74.6016 131.797H84.9465C86.0794 131.797 86.9973 130.879 86.9973 129.746V110.127C86.9973 108.994 86.0794 108.076 84.9465 108.076ZM82.8957 127.695H76.6523V112.178H82.8957V127.695Z" fill="#101018"/>
<path d="M84.9465 72.0508H74.6016C73.4687 72.0508 72.5508 72.9687 72.5508 74.1016V93.7207C72.5508 94.8536 73.4687 95.7715 74.6016 95.7715H84.9465C86.0794 95.7715 86.9973 94.8536 86.9973 93.7207V74.1016C86.9973 72.9687 86.0794 72.0508 84.9465 72.0508ZM82.8957 91.6699H76.6523V76.1523H82.8957V91.6699Z" fill="#101018"/>
<path d="M66.3987 108.076H56.0537C54.9209 108.076 54.0029 108.994 54.0029 110.127V129.746C54.0029 130.879 54.9209 131.797 56.0537 131.797H66.3987C67.5315 131.797 68.4495 130.879 68.4495 129.746V110.127C68.4495 108.994 67.5315 108.076 66.3987 108.076ZM64.3479 127.695H58.1045V112.178H64.3479V127.695Z" fill="#101018"/>
<path d="M66.3987 72.0508H56.0537C54.9209 72.0508 54.0029 72.9687 54.0029 74.1016V93.7207C54.0029 94.8536 54.9209 95.7715 56.0537 95.7715H66.3987C67.5315 95.7715 68.4495 94.8536 68.4495 93.7207V74.1016C68.4495 72.9687 67.5315 72.0508 66.3987 72.0508ZM64.3479 91.6699H58.1045V76.1523H64.3479V91.6699Z" fill="#101018"/>
<path d="M66.3984 59.5288H74.6016C75.7344 59.5288 76.6523 58.6109 76.6523 57.478V49.2749C76.6523 48.1421 75.7344 47.2241 74.6016 47.2241H66.3984C65.2656 47.2241 64.3477 48.1421 64.3477 49.2749V57.478C64.3477 58.6109 65.2656 59.5288 66.3984 59.5288ZM68.4492 51.3257H72.5508V55.4272H68.4492V51.3257Z" fill="#101018"/>
<path d="M27.251 106.914C27.251 108.047 28.1689 108.965 29.3018 108.965H39.647C40.7798 108.965 41.6978 108.047 41.6978 106.914V82.3047C41.6978 81.1718 40.7798 80.2539 39.647 80.2539H29.3018C28.1689 80.2539 27.251 81.1718 27.251 82.3047V106.914ZM31.3525 104.863V100.762H37.5962V104.863H31.3525ZM37.5962 84.3555V96.6602H31.3525V84.3555H37.5962Z" fill="#101018"/>
<path d="M8.70312 106.914C8.70312 108.047 9.62105 108.965 10.7539 108.965H21.0989C22.2317 108.965 23.1496 108.047 23.1496 106.914V82.3047C23.1496 81.1718 22.2317 80.2539 21.0989 80.2539H10.7539C9.62105 80.2539 8.70312 81.1718 8.70312 82.3047V106.914ZM12.8047 104.863V100.762H19.0481V104.863H12.8047ZM19.0481 84.3555V96.6602H12.8047V84.3555H19.0481Z" fill="#101018"/>
<path d="M119.901 63.8477H130.246C131.379 63.8477 132.297 62.9297 132.297 61.7969V37.1875C132.297 36.0546 131.379 35.1367 130.246 35.1367H119.901C118.769 35.1367 117.851 36.0546 117.851 37.1875V61.7969C117.851 62.9297 118.769 63.8477 119.901 63.8477ZM121.952 59.7461V55.6445H128.196V59.7461H121.952ZM128.196 39.2383V51.543H121.952V39.2383H128.196Z" fill="#101018"/>
<path d="M101.353 63.8477H111.698C112.831 63.8477 113.749 62.9297 113.749 61.7969V37.1875C113.749 36.0546 112.831 35.1367 111.698 35.1367H101.353C100.22 35.1367 99.3022 36.0546 99.3022 37.1875V61.7969C99.3022 62.9297 100.22 63.8477 101.353 63.8477ZM103.404 59.7461V55.6445H109.647V59.7461H103.404ZM109.647 39.2383V51.543H103.404V39.2383H109.647Z" fill="#101018"/>
<path d="M119.901 115.208H130.246C131.379 115.208 132.297 114.29 132.297 113.157V88.5481C132.297 87.4152 131.379 86.4973 130.246 86.4973H119.901C118.769 86.4973 117.851 87.4152 117.851 88.5481V113.157C117.851 114.29 118.769 115.208 119.901 115.208ZM121.952 111.107V107.005H128.196V111.107H121.952ZM128.196 90.5989V102.904H121.952V90.5989H128.196Z" fill="#101018"/>
<path d="M101.353 115.208H111.698C112.831 115.208 113.749 114.29 113.749 113.157V88.5481C113.749 87.4152 112.831 86.4973 111.698 86.4973H101.353C100.22 86.4973 99.3022 87.4152 99.3022 88.5481V113.157C99.3022 114.29 100.22 115.208 101.353 115.208ZM103.404 111.107V107.005H109.647V111.107H103.404ZM109.647 90.5989V102.904H103.404V90.5989H109.647Z" fill="#101018"/>
<path d="M25.2004 24.7918C29.7742 24.7918 33.4949 21.0711 33.4949 16.4973C33.4949 11.9238 29.7742 8.20312 25.2004 8.20312C20.6269 8.20312 16.9062 11.9238 16.9062 16.4973C16.9062 21.0711 20.6269 24.7918 25.2004 24.7918ZM25.2004 12.3047C27.5123 12.3047 29.3933 14.1854 29.3933 16.4973C29.3933 18.8092 27.5123 20.6902 25.2004 20.6902C22.8885 20.6902 21.0078 18.8092 21.0078 16.4973C21.0078 14.1854 22.8885 12.3047 25.2004 12.3047Z" fill="#101018"/>
<path d="M106.525 82.3957C110.508 82.3957 113.749 79.1552 113.749 75.1726C113.749 71.1897 110.508 67.9492 106.525 67.9492C102.543 67.9492 99.3022 71.1897 99.3022 75.1726C99.3022 79.1552 102.543 82.3957 106.525 82.3957ZM106.525 72.0508C108.247 72.0508 109.647 73.4513 109.647 75.1726C109.647 76.8939 108.247 78.2942 106.525 78.2942C104.804 78.2942 103.404 76.8939 103.404 75.1726C103.404 73.4513 104.804 72.0508 106.525 72.0508Z" fill="#101018"/>
<path d="M125.074 82.3957C129.057 82.3957 132.297 79.1552 132.297 75.1726C132.297 71.1897 129.057 67.9492 125.074 67.9492C121.091 67.9492 117.851 71.1897 117.851 75.1726C117.851 79.1552 121.091 82.3957 125.074 82.3957ZM125.074 72.0508C126.795 72.0508 128.196 73.4513 128.196 75.1726C128.196 76.8939 126.795 78.2942 125.074 78.2942C123.352 78.2942 121.952 76.8939 121.952 75.1726C121.952 73.4513 123.352 72.0508 125.074 72.0508Z" fill="#101018"/>
</g>
<defs>
<clipPath id="clip0_3100_24963">
<rect width="140" height="140" fill="white" transform="translate(0.5)"/>
</clipPath>
</defs>
</svg>
