<svg width="140" height="140" viewBox="0 0 140 140" fill="none" xmlns="http://www.w3.org/2000/svg">
<path d="M2 136H138V140H2V136Z" fill="#101018"/>
<path d="M97.42 140H54C53.4696 140 52.9609 139.789 52.5858 139.414C52.2107 139.039 52 138.53 52 138V54H56V136H95.824C104.248 98.222 99.696 67.294 82.624 46.476C75.5353 37.7975 66.3806 31.0381 56 26.818V46H52V24.0001C52 23.692 52.0711 23.3881 52.2079 23.1121C52.3446 22.8361 52.5433 22.5954 52.7884 22.4088C53.0334 22.2222 53.3183 22.0947 53.6208 22.0363C53.9232 21.9779 54.2351 21.9901 54.532 22.0721C55.206 22.2581 121.732 41.78 99.368 138.45C99.2663 138.89 99.0183 139.283 98.6646 139.565C98.3108 139.846 97.8721 140 97.42 140Z" fill="#101018"/>
<path d="M89.304 130H64C63.4696 130 62.9609 129.789 62.5858 129.414C62.2107 129.039 62 128.531 62 128V40.0321C62.0001 39.6679 62.0998 39.3106 62.2881 38.9988C62.4764 38.6871 62.7463 38.4326 63.0687 38.263C63.391 38.0934 63.7536 38.0151 64.1172 38.0364C64.4808 38.0577 64.8317 38.178 65.132 38.3841C79.374 48.1561 101.708 72.8421 91.27 128.37C91.1837 128.828 90.94 129.242 90.581 129.54C90.222 129.837 89.7703 130 89.304 130ZM66 126H87.636C96.224 77.8001 79.14 54.4641 66 44.0001V126Z" fill="#101018"/>
<path d="M52 2H56V24H52V2Z" fill="#101018"/>
<path d="M64 55.6201H80.8V59.6201H64V55.6201Z" fill="#101018"/>
<path d="M64 73.22H88.56V77.22H64V73.22Z" fill="#101018"/>
<path d="M64 90.8201H91.66V94.8201H64V90.8201Z" fill="#101018"/>
<path d="M64 108.4H91.64V112.4H64V108.4Z" fill="#101018"/>
<path d="M56 56.0002H38C37.4696 56.0002 36.9609 55.7895 36.5858 55.4145C36.2107 55.0394 36 54.5307 36 54.0002V46.0002C36 45.4698 36.2107 44.9611 36.5858 44.586C36.9609 44.211 37.4696 44.0002 38 44.0002H56C56.5304 44.0002 57.0391 44.211 57.4142 44.586C57.7893 44.9611 58 45.4698 58 46.0002V54.0002C58 54.5307 57.7893 55.0394 57.4142 55.4145C57.0391 55.7895 56.5304 56.0002 56 56.0002ZM40 52.0002H54V48.0002H40V52.0002Z" fill="#101018"/>
<path d="M54 140H46C45.4696 140 44.9609 139.789 44.5858 139.414C44.2107 139.039 44 138.53 44 138V54H48V136H52V54H56V138C56 138.53 55.7893 139.039 55.4142 139.414C55.0391 139.789 54.5304 140 54 140Z" fill="#101018"/>
<path d="M56 46H52V38.04H48V46H44V36.04C44 35.5096 44.2107 35.0009 44.5858 34.6258C44.9609 34.2508 45.4696 34.04 46 34.04H54C54.5304 34.04 55.0391 34.2508 55.4142 34.6258C55.7893 35.0009 56 35.5096 56 36.04V46Z" fill="#101018"/>
<path d="M132 46H104C101.878 46 99.8434 45.1572 98.3431 43.6569C96.8429 42.1566 96 40.1217 96 38C96 35.8783 96.8429 33.8434 98.3431 32.3432C99.8434 30.8429 101.878 30 104 30H106C106 26.8174 107.264 23.7652 109.515 21.5147C111.765 19.2643 114.817 18 118 18C121.183 18 124.235 19.2643 126.485 21.5147C128.736 23.7652 130 26.8174 130 30H132C134.122 30 136.157 30.8429 137.657 32.3432C139.157 33.8434 140 35.8783 140 38C140 40.1217 139.157 42.1566 137.657 43.6569C136.157 45.1572 134.122 46 132 46ZM104 34C102.939 34 101.922 34.4214 101.172 35.1716C100.421 35.9217 100 36.9391 100 38C100 39.0609 100.421 40.0783 101.172 40.8284C101.922 41.5786 102.939 42 104 42H132C133.061 42 134.078 41.5786 134.828 40.8284C135.579 40.0783 136 39.0609 136 38C136 36.9391 135.579 35.9217 134.828 35.1716C134.078 34.4214 133.061 34 132 34H127.8C127.503 34.0001 127.21 33.9342 126.942 33.807C126.675 33.6799 126.438 33.4948 126.251 33.2651C126.063 33.0353 125.929 32.7668 125.858 32.4788C125.787 32.1908 125.781 31.8906 125.84 31.6C126.078 30.4376 126.054 29.2369 125.77 28.0849C125.486 26.9328 124.95 25.8584 124.199 24.9393C123.449 24.0202 122.504 23.2795 121.432 22.7708C120.36 22.2621 119.188 21.9982 118.002 21.9982C116.816 21.9982 115.644 22.2621 114.572 22.7708C113.5 23.2795 112.555 24.0202 111.805 24.9393C111.054 25.8584 110.518 26.9328 110.234 28.0849C109.95 29.2369 109.926 30.4376 110.164 31.6C110.223 31.8906 110.217 32.1908 110.146 32.4788C110.075 32.7668 109.941 33.0353 109.753 33.2651C109.566 33.4948 109.33 33.6799 109.062 33.807C108.794 33.9342 108.501 34.0001 108.204 34H104Z" fill="#101018"/>
<path d="M36 28H8C5.87827 28 3.84344 27.1572 2.34315 25.6569C0.842855 24.1566 0 22.1217 0 20C0 17.8783 0.842855 15.8434 2.34315 14.3432C3.84344 12.8429 5.87827 12 8 12H10C10 8.81741 11.2643 5.76516 13.5147 3.51472C15.7652 1.26428 18.8174 0 22 0C25.1826 0 28.2349 1.26428 30.4853 3.51472C32.7357 5.76516 34 8.81741 34 12H36C38.1217 12 40.1566 12.8429 41.6569 14.3432C43.1572 15.8434 44 17.8783 44 20C44 22.1217 43.1572 24.1566 41.6569 25.6569C40.1566 27.1572 38.1217 28 36 28ZM8 16C6.93914 16 5.92172 16.4214 5.17157 17.1716C4.42143 17.9217 4 18.9391 4 20C4 21.0609 4.42143 22.0783 5.17157 22.8284C5.92172 23.5786 6.93914 24 8 24H36C37.0609 24 38.0783 23.5786 38.8284 22.8284C39.5786 22.0783 40 21.0609 40 20C40 18.9391 39.5786 17.9217 38.8284 17.1716C38.0783 16.4214 37.0609 16 36 16H31.8C31.5034 16.0001 31.2105 15.9342 30.9425 15.807C30.6745 15.6799 30.4381 15.4948 30.2505 15.2651C30.0629 15.0353 29.9288 14.7668 29.8577 14.4788C29.7867 14.1908 29.7807 13.8906 29.84 13.6C30.0776 12.4376 30.0536 11.2369 29.7698 10.0849C29.4861 8.93285 28.9496 7.85838 28.1994 6.93927C27.4491 6.02017 26.5038 5.27945 25.4319 4.77078C24.36 4.2621 23.1885 3.9982 22.002 3.9982C20.8156 3.9982 19.644 4.2621 18.5721 4.77078C17.5002 5.27945 16.5549 6.02017 15.8046 6.93927C15.0544 7.85838 14.5179 8.93285 14.2342 10.0849C13.9504 11.2369 13.9264 12.4376 14.164 13.6C14.2233 13.8906 14.2173 14.1908 14.1463 14.4788C14.0753 14.7668 13.9411 15.0353 13.7535 15.2651C13.5659 15.4948 13.3295 15.6799 13.0615 15.807C12.7935 15.9342 12.5006 16.0001 12.204 16H8Z" fill="#101018"/>
</svg>
