<svg width="75" height="144" viewBox="0 0 75 144" fill="none" xmlns="http://www.w3.org/2000/svg">
<path d="M7.52879 10.3823C7.28119 10.0239 6.16879 8.29887 6.16879 6.22535C6.16879 3.89183 8.06062 2 10.3941 2C12.7277 2 18.8448 2 18.8448 2C17.4899 6.42282 13.751 9.95606 13.2637 10.4031M6.15161 19.0623C6.15161 19.0623 5.96823 20.7825 5.72091 23.1031C5.47358 25.4237 7.15414 27.5051 9.47471 27.7524L16.1747 49.3992M46.4837 38.7279C46.4837 38.7279 48.0572 36.1189 48.0572 34.3735C48.0572 29.7192 43.6499 25.9459 38.2133 25.9459C32.7767 25.9459 28.3694 29.7192 28.3694 34.3735C28.3694 36.1189 29.9429 38.7279 29.9429 38.7279M38.2136 25.6642V18.1901M45.9367 28.6927L51.6457 22.9837M30.4902 28.6927L24.7812 22.9837M28.0879 34.3732H21.6448M48.3389 34.3732H54.782M18.2355 75.0282L12.5068 54.2352L23.0009 42.1504L14.5812 19.2611M29.2803 127.068L20.064 130.678M36.7164 124.156L43.5434 121.482V114.161L61.1798 107.254C61.1798 107.254 58.7474 97.0572 56.2629 86.6411M54.2919 78.3769C52.6984 71.6961 51.3795 66.1673 51.0857 64.9352C50.3319 61.7744 48.6894 58.8986 45.9834 57.0994C43.2775 55.3003 38.9181 52.3631 38.9181 52.3631M43.9471 55.9839L17.9654 75.3386C16.2223 76.6372 15.5429 78.9287 16.2964 80.9673L17.6108 84.5228M28.2091 76.6279L49.1874 61.0006M21.5775 81.5679L17.6108 84.5231C17.6108 84.5231 14.462 104.566 21.6006 141.77M48.9161 141.774C51.664 127.439 53.2122 112.619 53.4237 110.532M43.5434 105.066V65.7682M26.2663 113.624L35.0175 71.86M27.0941 53.587L23.0009 71.5873M46.1671 56.951C50.4629 53.407 50.2417 48.7369 46.1674 43.0211M7.37527 142H68.3401M57.7758 91.6963L72.4474 72.0634L61.1798 63.6127L53.5217 73.8606M18.2355 10.4507H2.55273L4.06147 18.9014H16.7206L18.2355 10.4507ZM38.2136 33.2634C35.6046 37.9254 29.9432 38.7276 29.9432 38.7276C29.9432 46.2059 33.646 52.2685 38.2136 52.2685C42.7812 52.2685 46.484 46.2062 46.484 38.7276C46.484 38.7276 40.8223 37.9256 38.2136 33.2634Z" stroke="#101018" stroke-width="4" stroke-miterlimit="10" stroke-linecap="round" stroke-linejoin="round"/>
</svg>
