<svg width="120" height="60" viewBox="0 0 120 60" fill="none" xmlns="http://www.w3.org/2000/svg">
<path d="M35.1839 26.8499L35.3869 26.1739L37.6849 18.9539C38.1019 17.8939 38.8109 17.2979 39.9149 17.1739C40.6469 17.0939 41.4149 17.0279 41.9199 17.7259C42.2469 18.1659 42.6179 18.4239 43.1479 18.5139C43.3984 18.5497 43.6439 18.6137 43.8799 18.7049C44.2069 18.8289 44.3299 18.6949 44.4199 18.3899L45.2869 15.4399C45.6139 14.3249 45.6139 14.3359 44.5319 13.9529C44.0819 13.7949 43.6759 13.7279 43.2019 13.9299C42.4359 14.2449 41.7379 14.1299 41.1179 13.5019C40.4649 12.8489 39.7209 12.3419 38.8309 12.0259C36.2739 11.1259 33.6489 10.7419 30.9569 11.1699C29.6619 11.3729 28.3999 11.7219 27.3069 12.4999C27.1489 12.6129 27.0249 12.7479 26.8789 12.8829C28.3659 12.7589 29.7959 12.7369 31.2269 12.9279C32.1969 13.0519 33.0629 13.3779 33.7049 14.2009C34.3809 15.0679 34.5389 16.0929 34.6289 17.1309C34.7529 18.5839 34.4829 19.9809 34.0769 21.3659L32.8269 25.7819C32.7709 25.9819 32.7269 26.1419 32.9849 26.2099L35.1819 26.8519L35.1839 26.8499Z" fill="#235EE1"/>
<path d="M28.2571 48.9959C28.9571 49.0519 29.5411 48.7259 29.9021 48.0959C30.1189 47.7188 30.2818 47.3132 30.3861 46.8909L33.6081 33.4639L34.9151 27.8879C35.0151 27.5279 34.9151 27.3809 34.5651 27.3019C34.0879 27.1863 33.6146 27.0549 33.1461 26.9079C32.2791 26.6479 32.4481 26.6829 32.1891 27.4039L25.8001 45.6059C25.7001 45.8539 25.6301 46.1239 25.6201 46.3829C25.5521 47.9149 26.6341 48.9849 28.2671 48.9959H28.2571ZM6.40409 21.9729L6.53909 22.9729L7.51909 29.4609L8.47609 35.9939L9.47609 42.5719L10.0961 46.7399C10.1411 47.0329 10.2421 47.1679 10.5921 47.1119L16.7421 46.1319L25.5171 44.7689C25.6301 44.7459 25.7201 44.6109 25.8211 44.5209C25.6971 44.4529 25.5511 44.3209 25.4381 44.3409L20.6511 45.0609L10.9641 46.5809C10.6261 46.6369 10.5141 46.5579 10.4681 46.2309L9.85009 42.0309L8.44209 32.7159L6.92209 22.5559C6.86609 22.1839 6.99009 22.0159 7.36209 21.9699L9.31209 21.6659L17.2871 20.3709L30.7371 18.1629L33.7671 17.6449C33.8911 17.6219 33.9811 17.4419 34.0821 17.3409L33.6761 17.1829C33.6421 17.1729 33.5961 17.1929 33.5521 17.2059L29.7781 17.8359L6.73009 21.6359C6.44809 21.6809 6.30209 21.7599 6.40309 21.9959L6.40409 21.9729ZM38.5071 18.2329C38.4391 18.2329 38.3721 18.2329 38.3041 18.2229C38.2701 18.5049 38.1691 18.7969 38.2041 19.0789L38.6541 21.8159L39.8711 29.1599L41.8871 41.1899C41.9321 41.4269 41.8871 41.5959 41.5941 41.6399L35.1061 42.6539L32.0311 43.1609C31.9311 43.1709 31.8611 43.3189 31.7831 43.4089C31.8961 43.4649 31.9971 43.5669 32.0981 43.5669C32.4251 43.5439 32.7401 43.4869 33.0551 43.4429L42.4491 41.9429L38.5071 18.2429V18.2329ZM29.9571 32.4259C30.2171 32.1659 30.1711 31.9759 29.9911 31.7609L27.8851 29.2269L21.9601 22.0739C21.8021 21.8739 21.6671 21.6239 21.6221 21.3759C21.5421 20.8919 21.8701 20.4519 22.3421 20.2609C22.8491 20.0609 23.2881 20.2049 23.7161 20.7109L29.5401 27.6709L30.9601 29.3489C31.2081 29.0889 31.1741 28.8989 30.9941 28.6839L28.6621 25.9019L23.9651 20.3149C23.3351 19.5829 22.3771 19.5379 21.6781 20.1449C20.9911 20.7419 20.9581 21.5869 21.5981 22.3529L29.9581 32.4149L29.9571 32.4259ZM22.1871 27.6839C22.1071 27.6279 22.0171 27.5489 21.9171 27.5039L19.5851 26.6479C19.3371 26.5479 19.2251 26.6479 19.1351 26.8619L14.8771 37.3259C14.7641 37.5859 14.8431 37.7089 15.0801 37.7989L17.2651 38.6989C17.6591 38.8789 17.8171 38.7989 17.9631 38.3949L22.1871 27.6829V27.6839ZM29.6111 32.5169L28.1001 30.5999C27.7171 30.0139 27.3001 29.6999 26.5801 30.0029C26.4101 30.0709 26.2201 30.0709 26.0401 30.1029L21.5231 30.8799C21.2861 30.9249 21.0831 30.9799 20.9831 31.2629L20.0711 33.7629C20.0371 33.8629 20.0371 33.9659 20.0151 34.1229L29.6121 32.5459L29.6111 32.5169ZM16.9501 31.5139L11.5321 32.3939L11.8821 34.8499C11.9271 35.1999 12.0821 35.2439 12.3891 35.1999L15.1831 34.8169C15.4651 34.7829 15.6451 34.6709 15.7571 34.4109L16.8051 31.9779C16.8611 31.8429 16.8851 31.7299 16.9511 31.5159L16.9501 31.5139ZM36.7521 38.5439L33.3521 36.4839C33.3971 36.6979 33.3751 36.9459 33.4871 37.0699C33.7019 37.3086 33.9576 37.507 34.2421 37.6559C34.6251 37.8699 35.0301 38.0159 35.4251 38.2079C35.9991 38.4899 36.4251 38.8949 36.4251 39.5929C36.4251 39.7059 36.4811 39.8179 36.5251 39.9429L36.6381 39.8869C36.6678 39.856 36.6943 39.8222 36.7171 39.7859C37.3931 38.7829 37.4371 37.6799 37.1451 36.5529C36.8181 35.2909 36.2331 34.1989 35.0051 33.5679C34.6671 33.3979 34.4531 33.5449 34.2051 33.7139C33.9451 33.8939 33.7991 34.1079 33.8671 34.4909C34.0471 34.3779 34.2051 34.2909 34.3171 34.1869C34.5991 33.8939 34.8571 33.9619 35.1731 34.1639C36.4131 35.0309 37.1891 37.2169 36.7501 38.5459L36.7521 38.5439Z" fill="#235EE1"/>
<path d="M14.0977 43.2629C14.1412 43.2849 14.1863 43.3036 14.2327 43.3189L17.6127 39.0949L17.2297 38.8919L15.0797 38.0249C14.7417 37.8789 14.6397 37.9799 14.6177 38.3289L14.3137 41.1789L14.0997 43.2629H14.0977ZM21.3627 23.8429C20.7097 23.9109 20.2827 24.1809 20.0327 24.7549L19.5147 25.9949C19.4017 26.2319 19.4347 26.3779 19.7147 26.4679L21.9677 27.3019C22.2377 27.4019 22.3507 27.3119 22.4517 27.0769L22.9917 25.7929C23.2287 25.2189 23.1267 24.7329 22.6087 24.3959C22.2367 24.1589 21.7867 24.0239 21.3687 23.8439L21.3627 23.8429ZM34.5757 31.6159L37.3807 31.2219C37.4607 31.2119 37.5607 31.0079 37.5507 30.9179L37.1447 28.6879C37.1217 28.5749 36.9307 28.4179 36.8177 28.4179C36.3447 28.4519 35.8717 28.5179 35.3977 28.5979C35.1607 28.6319 34.9917 28.7439 35.1277 29.0819L36.4347 28.9239C36.5347 28.9139 36.7277 29.0039 36.7387 29.0699L37.0657 30.8159L34.9707 31.0979C34.7227 31.1319 34.4977 31.1979 34.5767 31.6159H34.5757ZM35.1757 26.8499L32.9997 26.2199C32.7397 26.1399 32.7857 25.9829 32.8417 25.7919L34.0917 21.3759C34.4977 19.9909 34.7677 18.5819 34.6437 17.1409C34.5437 16.1049 34.4067 15.0909 33.7197 14.2109C33.0777 13.3889 32.2197 13.0609 31.2417 12.9379C29.8117 12.7379 28.3917 12.7679 26.8937 12.8929C27.0397 12.7689 27.1637 12.6229 27.3217 12.5099C28.4147 11.7329 29.6757 11.3839 30.9717 11.1799C33.6747 10.7519 36.2887 11.1569 38.8457 12.0359C39.7457 12.3399 40.4787 12.8579 41.1327 13.5119C41.7527 14.1319 42.4507 14.2549 43.2167 13.9399C43.6897 13.7369 44.0967 13.8049 44.5467 13.9629C45.6267 14.3459 45.6267 14.3349 45.3017 15.4499L44.4347 18.3999C44.3347 18.7039 44.2207 18.8279 43.8947 18.7149C43.6587 18.6237 43.4131 18.5596 43.1627 18.5239C42.6327 18.4439 42.2507 18.1859 41.9347 17.7359C41.4277 17.0489 40.6617 17.1059 39.9297 17.1839C38.8257 17.3079 38.1157 17.9039 37.6997 18.9639C36.7647 21.3179 36.0777 23.7509 35.4017 26.1839L35.1877 26.8489L35.1757 26.8499Z" fill="#235EE1"/>
<path d="M28.2556 48.9959C26.6226 48.9859 25.5526 47.9259 25.6086 46.3829C25.6186 46.1229 25.7086 45.8529 25.7886 45.6059L32.1886 27.4139C32.4366 26.6939 32.2886 26.6709 33.1456 26.9179L34.5656 27.3119C34.9156 27.3919 35.0056 27.5369 34.9156 27.8979L33.5986 33.4739L30.3956 46.8999C30.2913 47.3222 30.1284 47.7278 29.9116 48.1049C29.5396 48.7249 28.9656 49.0509 28.2556 49.0049V48.9959ZM6.40258 21.9729C6.30258 21.7359 6.44759 21.6579 6.74059 21.6129L14.3776 20.3629L21.8116 19.1349L29.7866 17.8279L33.5606 17.1979C33.6056 17.1879 33.6606 17.1639 33.6846 17.1749L34.0906 17.3329C33.9906 17.4329 33.8906 17.6149 33.7756 17.6369L30.7456 18.1549L9.32058 21.6599L7.37059 21.9639C6.99859 22.0089 6.87459 22.1779 6.93059 22.5499L9.86059 42.0259L10.4686 46.2279C10.5136 46.5549 10.6146 46.6339 10.9646 46.5779L20.6516 45.0579L25.4386 44.3379C25.5516 44.3279 25.6986 44.4509 25.8216 44.5179C25.7216 44.6179 25.6216 44.7429 25.5176 44.7659L16.7426 46.1289L10.5926 47.1089C10.2426 47.1649 10.1426 47.0289 10.0966 46.7369L9.47658 42.5689L8.47658 35.9909L7.51959 29.4579L6.53958 22.9699C6.47969 22.6414 6.43099 22.3108 6.39359 21.9789L6.40258 21.9729ZM38.5056 18.2329L42.4706 41.9549L40.2626 42.3149L33.0756 43.4649L32.1186 43.5889C32.0186 43.5989 31.9046 43.4889 31.8036 43.4309C31.8836 43.3309 31.9616 43.2059 32.0516 43.1829L35.1266 42.6759L41.6146 41.6619C41.9076 41.6169 41.9416 41.4479 41.9076 41.2119L41.1196 36.5259L38.6756 21.8259L38.2256 19.0889C38.1916 18.8189 38.2936 18.5259 38.3256 18.2329C38.3816 18.2229 38.4386 18.2229 38.5056 18.2229V18.2329ZM29.9556 32.4259L28.8956 31.1639L21.5956 22.3639C20.9536 21.5979 20.9876 20.7639 21.6756 20.1559C22.3756 19.5359 23.3426 19.5819 23.9626 20.3259L30.9926 28.6959C31.1726 28.9099 31.2176 29.1019 30.9586 29.3609L29.5386 27.6829L23.7146 20.7229C23.2866 20.2159 22.8476 20.0699 22.3406 20.2729C21.8566 20.4729 21.5406 20.9029 21.6206 21.3879C21.6653 21.6478 21.7824 21.8897 21.9586 22.0859L29.9986 31.7739C30.1786 31.9879 30.2356 32.1799 29.9646 32.4389L29.9556 32.4259ZM22.1856 27.6839L22.0506 28.0669L17.9506 38.4189C17.7926 38.8129 17.6466 38.9029 17.2526 38.7229L15.0676 37.8229C14.8196 37.7229 14.7526 37.6089 14.8646 37.3499L19.1226 26.8859C19.2226 26.6609 19.3256 26.5709 19.5726 26.6719L21.9046 27.5279C22.0046 27.5509 22.0846 27.6279 22.1746 27.6859L22.1856 27.6839ZM19.5276 27.1209L18.9876 28.4609L15.4956 37.0109C15.3606 37.3489 15.4276 37.4839 15.7436 37.5969L17.0736 38.1369C17.4116 38.3069 17.5466 38.2369 17.6816 37.8889L21.6356 27.8859L19.5296 27.1199L19.5276 27.1209ZM29.5986 32.5169L20.0126 34.0939C20.0356 33.9359 20.0356 33.8339 20.0686 33.7339L20.9806 31.2339C21.0806 30.9519 21.2846 30.8839 21.5206 30.8509L26.0376 30.0739C26.2176 30.0399 26.4096 30.0509 26.5776 29.9739C27.2776 29.6919 27.7036 29.9969 28.0976 30.5709C28.5146 31.2129 29.0326 31.7879 29.5956 32.4969L29.5986 32.5169ZM20.6326 33.5419L28.7766 32.1899L27.4366 30.5119C27.3566 30.4119 27.1766 30.3769 27.0426 30.3879L25.8826 30.5679L21.8826 31.2659C21.7126 31.2999 21.4656 31.4009 21.4096 31.5359C21.1276 32.1659 20.9026 32.8199 20.6436 33.5409L20.6326 33.5419ZM16.9466 31.5139L16.8006 31.9539L15.7526 34.3869C15.6396 34.6569 15.4706 34.7589 15.1786 34.7929L12.3846 35.1759C12.0696 35.2209 11.9226 35.1759 11.8776 34.8259L11.5276 32.3699L16.9456 31.5139H16.9466ZM16.2486 32.0879L12.4186 32.7079C12.2946 32.7309 12.0916 32.9329 12.0916 33.0349C12.1256 33.5189 12.2156 34.0049 12.3166 34.4879C12.3396 34.5879 12.5306 34.7019 12.6206 34.6909L14.9076 34.3759C15.0536 34.3529 15.2676 34.2759 15.3246 34.1619L16.2486 32.0889V32.0879ZM36.7486 38.5429C37.1886 37.2129 36.4106 35.0289 35.1716 34.1829C34.8676 33.9689 34.6086 33.9129 34.3156 34.2059C34.2026 34.3189 34.0456 34.3859 33.8656 34.5099C33.7976 34.1159 33.9456 33.9129 34.2036 33.7329C34.4516 33.5529 34.6656 33.4179 35.0036 33.5869C36.2316 34.2169 36.8176 35.3099 37.1436 36.5719C37.4366 37.6979 37.3916 38.8019 36.7156 39.8049C36.6928 39.8412 36.6663 39.8751 36.6366 39.9059C36.6136 39.9289 36.5916 39.9289 36.5236 39.9619C36.4896 39.8379 36.4236 39.7249 36.4236 39.6119C36.4236 38.9139 36.0066 38.5079 35.4236 38.2269L34.2406 37.6749C33.9586 37.5169 33.6886 37.3249 33.4856 37.0889C33.3726 36.9649 33.3856 36.7169 33.3506 36.5029L36.7506 38.5429H36.7486Z" fill="#235EE1"/>
<path d="M14.0997 43.2631L14.3027 41.1791L14.6067 38.3291C14.6407 37.9791 14.7307 37.8791 15.0687 38.0251L17.2187 38.8921C17.3317 38.9371 17.4327 39.0051 17.6017 39.0951L14.2217 43.3191C14.1877 43.3091 14.1417 43.2851 14.0977 43.2631H14.0997ZM14.6737 41.9561C14.7077 41.9661 14.7417 41.9661 14.7737 41.9791L16.9137 39.2531L15.0537 38.5211L14.6817 41.9571L14.6737 41.9561ZM21.3737 23.8431C21.7907 24.0231 22.2407 24.1581 22.6137 24.4061C23.1317 24.7441 23.2337 25.2281 22.9967 25.8031L22.4567 27.0871C22.3567 27.3241 22.2427 27.4141 21.9727 27.3121L19.7197 26.4781C19.4497 26.3781 19.4267 26.2411 19.5197 26.0051L20.0377 24.7651C20.2857 24.1791 20.7027 23.9091 21.3677 23.8411L21.3737 23.8431ZM19.9997 26.0851L21.8797 26.7721C21.9477 26.7951 22.1047 26.6921 22.1497 26.6021L22.5897 25.5991C22.7357 25.2841 22.6697 24.9791 22.3897 24.8221C22.0747 24.6221 21.7247 24.4951 21.3647 24.4051C20.9707 24.3051 20.6447 24.5051 20.4847 24.8781L19.9887 26.0831L19.9997 26.0851ZM34.5877 31.6151C34.4877 31.1871 34.7337 31.1311 34.9817 31.0971L37.0767 30.8151L36.7497 29.0691C36.7397 29.0011 36.5467 28.9111 36.4457 28.9231L35.1387 29.0811C35.0147 28.7311 35.1837 28.6311 35.4087 28.5971L36.8287 28.4171C36.9417 28.4071 37.1327 28.5751 37.1557 28.6871L37.5617 30.9171C37.5717 31.0171 37.4617 31.2101 37.3917 31.2211L34.5867 31.6151H34.5877ZM19.5377 27.1191L21.6437 27.8851L17.6817 37.9001C17.5467 38.2501 17.3997 38.3171 17.0737 38.1481C16.6457 37.9341 16.1937 37.7651 15.7437 37.6081C15.4287 37.4951 15.3607 37.3601 15.4957 37.0221L18.9877 28.4721L19.5277 27.1321L19.5377 27.1191Z" fill="#235EE1"/>
<path d="M20.6431 33.5419L21.3981 31.5479C21.4541 31.4129 21.7021 31.3109 21.8711 31.2779L25.8711 30.5799L27.0311 30.3999C27.1551 30.3899 27.3461 30.4339 27.4251 30.5239L28.7651 32.2019L20.6321 33.5419H20.6431ZM16.2511 32.0999L15.3271 34.1599C15.2711 34.2729 15.0571 34.3599 14.9101 34.3739L12.6231 34.6889C12.5231 34.6989 12.3301 34.5759 12.3191 34.4859C12.2191 34.0129 12.1191 33.5289 12.0941 33.0329C12.0841 32.9329 12.2941 32.7289 12.4211 32.7059L16.2511 32.0979V32.0999ZM14.6731 41.9559L15.0561 38.5199L16.9161 39.2519L14.7761 41.9779C14.7416 41.9767 14.7077 41.9689 14.6761 41.9549L14.6731 41.9559ZM20.0011 26.0849L20.4971 24.8909C20.6671 24.5079 20.9811 24.3279 21.3771 24.4179C21.7371 24.4979 22.0771 24.6429 22.4021 24.8349C22.6721 25.0049 22.7401 25.2969 22.6021 25.6119L22.1621 26.6149C22.1171 26.6949 21.9591 26.8149 21.8921 26.7849L20.0121 26.0869L20.0011 26.0849ZM51.2451 21.6079H53.0851L57.7411 28.4839L62.5611 21.6079H64.2941L58.6641 29.6209L64.6201 38.0669H62.7251L57.7451 30.8119L52.6451 38.0669H50.8581L56.7581 29.6209L51.2451 21.6079ZM74.1471 29.8919C73.7671 28.1049 72.6851 27.0219 70.7901 27.0219C68.0301 27.0219 66.6201 29.5669 66.6201 32.1219C66.6201 34.6769 68.0281 37.1569 70.7901 37.1569C72.5771 37.1569 74.0401 35.7489 74.2551 33.7999H75.7171C75.3371 36.6699 73.4431 38.4019 70.7901 38.4019C67.1621 38.4019 65.1601 35.5319 65.1601 32.1219C65.1601 28.7119 67.1631 25.8419 70.7901 25.8419C73.3351 25.8419 75.2841 27.1959 75.6101 29.9019L74.1471 29.8919ZM88.3321 32.1119C88.3321 35.5119 86.3291 38.3919 82.7021 38.3919C79.0751 38.3919 77.0721 35.5219 77.0721 32.1119C77.0721 28.7019 79.0751 25.8319 82.7021 25.8319C86.3291 25.8319 88.3321 28.7019 88.3321 32.1119ZM78.5321 32.1119C78.5321 34.6569 79.8861 37.1469 82.7021 37.1469C85.4621 37.1469 86.8721 34.6019 86.8721 32.1119C86.8721 29.5669 85.4641 27.0119 82.7021 27.0119C79.9421 27.0659 78.5321 29.5569 78.5321 32.1119ZM100.947 38.0679H99.5931V35.7939H99.5391C98.9431 37.3099 97.0391 38.3939 95.3161 38.3939C91.6881 38.3939 89.9561 35.4699 89.9561 32.1139C89.9561 28.7579 91.6891 25.8339 95.3161 25.8339C97.1031 25.8339 98.8361 26.7539 99.4311 28.4339H99.4851V21.6119H100.947V38.0679ZM95.3171 37.2019C98.4031 37.2019 99.4871 34.6019 99.4871 32.1669C99.4871 29.7319 98.4041 27.0669 95.3171 27.0669C92.5571 27.0669 91.4191 29.6669 91.4191 32.1669C91.4191 34.6029 92.5561 37.2019 95.3171 37.2019ZM104.521 32.5019C104.521 34.6139 105.658 37.1579 108.419 37.1579C110.531 37.1579 111.669 35.9129 112.155 34.1259H113.617C113.021 36.8329 111.451 38.4029 108.419 38.4029C104.619 38.4029 103.059 35.4789 103.059 32.1229C103.059 28.9829 104.629 25.8429 108.419 25.8429C112.263 25.8429 113.779 29.1999 113.617 32.5029L104.521 32.5019ZM112.209 31.3019C112.155 29.1359 110.801 27.0789 108.409 27.0789C106.017 27.0789 104.727 29.1359 104.511 31.3019H112.209Z" fill="#235EE1"/>
</svg>
