<svg width="58" height="58" viewBox="0 0 58 58" fill="none" xmlns="http://www.w3.org/2000/svg">
<path fill-rule="evenodd" clip-rule="evenodd" d="M48.332 53.1666H9.66536C6.99495 53.1666 4.83203 51.0037 4.83203 48.3332V9.66658C4.83203 6.99617 6.99495 4.83325 9.66536 4.83325H48.332C51.0024 4.83325 53.1654 6.99617 53.1654 9.66658V48.3332C53.1654 51.0037 51.0024 53.1666 48.332 53.1666Z" stroke="#231D36" stroke-width="1.7" stroke-linecap="round" stroke-linejoin="round"/>
<path fill-rule="evenodd" clip-rule="evenodd" d="M43.4987 45.9166H14.4987C13.1647 45.9166 12.082 44.8339 12.082 43.4999V14.4999C12.082 13.1659 13.1647 12.0833 14.4987 12.0833H43.4987C44.8327 12.0833 45.9154 13.1659 45.9154 14.4999V43.4999C45.9154 44.8339 44.8327 45.9166 43.4987 45.9166Z" stroke="#231D36" stroke-width="1.7" stroke-linecap="round" stroke-linejoin="round"/>
<path d="M27.5831 25.5824C29.4706 27.4699 29.4706 30.5302 27.5831 32.4178C25.6955 34.3053 22.6352 34.3053 20.7477 32.4178C18.8601 30.5302 18.8601 27.4699 20.7477 25.5824C22.6352 23.6949 25.6955 23.6949 27.5831 25.5824" stroke="#231D36" stroke-width="1.7" stroke-linecap="round" stroke-linejoin="round"/>
<path d="M45.9154 24.1666H41.082" stroke="#231D36" stroke-width="1.7" stroke-linecap="round" stroke-linejoin="round"/>
<path d="M45.9154 33.8333H41.082" stroke="#231D36" stroke-width="1.7" stroke-linecap="round" stroke-linejoin="round"/>
</svg>
