<svg width="58" height="59" viewBox="0 0 58 59" fill="none" xmlns="http://www.w3.org/2000/svg">
<path fill-rule="evenodd" clip-rule="evenodd" d="M48.332 51.002H9.66536C6.99495 51.002 4.83203 48.839 4.83203 46.1686V12.3353C4.83203 9.66487 6.99495 7.50195 9.66536 7.50195H48.332C51.0024 7.50195 53.1654 9.66487 53.1654 12.3353V46.1686C53.1654 48.839 51.0024 51.002 48.332 51.002Z" stroke="#231D36" stroke-width="1.5" stroke-linecap="round" stroke-linejoin="round"/>
<path d="M4.83203 19.5853H53.1654" stroke="#231D36" stroke-width="1.5" stroke-linecap="round" stroke-linejoin="round"/>
<path d="M11.5482 13.5195C11.5409 13.5195 11.5361 13.5243 11.5361 13.5316C11.5361 13.5388 11.5409 13.5437 11.5482 13.5437C11.5554 13.5437 11.5603 13.5388 11.5603 13.5316C11.5603 13.5243 11.5554 13.5195 11.5482 13.5195" stroke="#231D36" stroke-width="1.5" stroke-linecap="round" stroke-linejoin="round"/>
<path d="M17.6927 13.5195C17.6855 13.5195 17.6806 13.5243 17.6806 13.5316C17.6806 13.5388 17.6879 13.5437 17.6927 13.5437C17.7 13.5437 17.7048 13.5388 17.7048 13.5316C17.7048 13.5243 17.7 13.5195 17.6927 13.5195" stroke="#231D36" stroke-width="1.5" stroke-linecap="round" stroke-linejoin="round"/>
<path d="M23.8294 13.5195C23.8222 13.5195 23.8173 13.5243 23.8173 13.5316C23.8173 13.5388 23.8222 13.5437 23.8294 13.5437C23.8367 13.5437 23.8415 13.5388 23.8415 13.5316C23.8415 13.5243 23.8367 13.5195 23.8294 13.5195" stroke="#231D36" stroke-width="1.5" stroke-linecap="round" stroke-linejoin="round"/>
<path d="M30.8833 26.8352L27.1133 43.7519" stroke="#231D36" stroke-width="1.5" stroke-linecap="round" stroke-linejoin="round"/>
<path d="M36.8516 31.0645L41.0807 35.2936L36.8516 39.5228" stroke="#231D36" stroke-width="1.5" stroke-linecap="round" stroke-linejoin="round"/>
<path d="M21.1432 39.5228L16.9141 35.2936L21.1432 31.0645" stroke="#231D36" stroke-width="1.5" stroke-linecap="round" stroke-linejoin="round"/>
</svg>
