<svg width="58" height="58" viewBox="0 0 58 58" fill="none" xmlns="http://www.w3.org/2000/svg">
<path fill-rule="evenodd" clip-rule="evenodd" d="M48.332 50.75H9.66536C6.99495 50.75 4.83203 48.5871 4.83203 45.9167V12.0833C4.83203 9.41292 6.99495 7.25 9.66536 7.25H48.332C51.0024 7.25 53.1654 9.41292 53.1654 12.0833V45.9167C53.1654 48.5871 51.0024 50.75 48.332 50.75Z" stroke="#231D36" stroke-width="1.5" stroke-linecap="round" stroke-linejoin="round"/>
<path d="M4.83203 19.3333H53.1654" stroke="#231D36" stroke-width="1.5" stroke-linecap="round" stroke-linejoin="round"/>
<path d="M11.5482 13.2675C11.5409 13.2675 11.5361 13.2723 11.5361 13.2796C11.5361 13.2868 11.5409 13.2917 11.5482 13.2917C11.5554 13.2917 11.5603 13.2868 11.5603 13.2796C11.5603 13.2723 11.5554 13.2675 11.5482 13.2675" stroke="#231D36" stroke-width="1.5" stroke-linecap="round" stroke-linejoin="round"/>
<path d="M17.6927 13.2675C17.6855 13.2675 17.6806 13.2723 17.6806 13.2796C17.6806 13.2868 17.6879 13.2917 17.6927 13.2917C17.7 13.2917 17.7048 13.2868 17.7048 13.2796C17.7048 13.2723 17.7 13.2675 17.6927 13.2675" stroke="#231D36" stroke-width="1.5" stroke-linecap="round" stroke-linejoin="round"/>
<path d="M23.8294 13.2675C23.8222 13.2675 23.8173 13.2723 23.8173 13.2796C23.8173 13.2868 23.8222 13.2917 23.8294 13.2917C23.8367 13.2917 23.8415 13.2868 23.8415 13.2796C23.8415 13.2723 23.8367 13.2675 23.8294 13.2675" stroke="#231D36" stroke-width="1.5" stroke-linecap="round" stroke-linejoin="round"/>
<path d="M26.5213 29.0606C29.8245 32.3638 29.8245 37.7193 26.5213 41.0225C23.2181 44.3257 17.8626 44.3257 14.5594 41.0225C11.2562 37.7193 11.2562 32.3638 14.5594 29.0606C17.8626 25.7575 23.2181 25.7575 26.5213 29.0606" stroke="#231D36" stroke-width="1.5" stroke-linecap="round" stroke-linejoin="round"/>
<path d="M26.5203 41.0229L20.5391 35.0417V26.5833" stroke="#231D36" stroke-width="1.5" stroke-linecap="round" stroke-linejoin="round"/>
<path d="M36.25 29H43.5" stroke="#231D36" stroke-width="1.5" stroke-linecap="round" stroke-linejoin="round"/>
<path d="M36.25 36.25H41.0833" stroke="#231D36" stroke-width="1.5" stroke-linecap="round" stroke-linejoin="round"/>
</svg>
