<svg width="58" height="58" viewBox="0 0 58 58" fill="none" xmlns="http://www.w3.org/2000/svg">
<path d="M7.25 19.3333H50.75" stroke="#231D36" stroke-width="1.7" stroke-linecap="round" stroke-linejoin="round"/>
<path d="M18.1263 41.0833V37.5066" stroke="#231D36" stroke-width="1.7" stroke-linecap="round" stroke-linejoin="round"/>
<path d="M25.3763 41.0834V29.6042" stroke="#231D36" stroke-width="1.7" stroke-linecap="round" stroke-linejoin="round"/>
<path d="M32.6263 41.0833V36.0808" stroke="#231D36" stroke-width="1.7" stroke-linecap="round" stroke-linejoin="round"/>
<path d="M39.8763 41.0833V30.9333" stroke="#231D36" stroke-width="1.7" stroke-linecap="round" stroke-linejoin="round"/>
<path d="M26.2591 13.2795C26.2519 13.2795 26.247 13.2843 26.247 13.2916C26.247 13.2988 26.2519 13.3037 26.2591 13.3037C26.2664 13.3037 26.2712 13.2988 26.2712 13.2916C26.2712 13.2843 26.2664 13.2795 26.2591 13.2795" stroke="#231D36" stroke-width="1.7" stroke-linecap="round" stroke-linejoin="round"/>
<path d="M20.1224 13.2795C20.1151 13.2795 20.1103 13.2843 20.1103 13.2916C20.1103 13.2988 20.1151 13.3037 20.1224 13.3037C20.1296 13.3037 20.1345 13.2988 20.1345 13.2916C20.1345 13.2843 20.1296 13.2795 20.1224 13.2795" stroke="#231D36" stroke-width="1.7" stroke-linecap="round" stroke-linejoin="round"/>
<path d="M13.9661 13.2675C13.9589 13.2675 13.9541 13.2724 13.9541 13.2796C13.9541 13.2869 13.9589 13.2917 13.9661 13.2917C13.9734 13.2917 13.9782 13.2869 13.9782 13.2796C13.9782 13.2724 13.9734 13.2675 13.9661 13.2675" stroke="#231D36" stroke-width="1.7" stroke-linecap="round" stroke-linejoin="round"/>
<path fill-rule="evenodd" clip-rule="evenodd" d="M45.9167 50.75H12.0833C9.41292 50.75 7.25 48.5871 7.25 45.9167V12.0833C7.25 9.41292 9.41292 7.25 12.0833 7.25H45.9167C48.5871 7.25 50.75 9.41292 50.75 12.0833V45.9167C50.75 48.5871 48.5871 50.75 45.9167 50.75Z" stroke="#231D36" stroke-width="1.7" stroke-linecap="round" stroke-linejoin="round"/>
</svg>
