<svg width="58" height="58" viewBox="0 0 58 58" fill="none" xmlns="http://www.w3.org/2000/svg">
<path fill-rule="evenodd" clip-rule="evenodd" d="M32.7085 36.2499H26.6016C25.2579 36.2499 24.168 35.16 24.168 33.8139V29.1111H32.7085C34.6636 29.1111 36.2513 30.6964 36.2513 32.6539V32.7071C36.2513 34.6646 34.666 36.2499 32.7085 36.2499V36.2499Z" stroke="#231D36" stroke-width="1.5" stroke-linecap="round" stroke-linejoin="round"/>
<path fill-rule="evenodd" clip-rule="evenodd" d="M31.8506 29.1112H24.168V24.2222C24.168 22.8568 25.2748 21.75 26.6402 21.75H31.8506C33.8371 21.75 35.4466 23.3595 35.4466 25.346V25.5127C35.449 27.5017 33.8371 29.1112 31.8506 29.1112V29.1112Z" stroke="#231D36" stroke-width="1.5" stroke-linecap="round" stroke-linejoin="round"/>
<path d="M29 21.7501H21.75" stroke="#231D36" stroke-width="1.5" stroke-linecap="round" stroke-linejoin="round"/>
<path d="M29 36.2501H21.75" stroke="#231D36" stroke-width="1.5" stroke-linecap="round" stroke-linejoin="round"/>
<path d="M38.5205 51.9826L37.5055 49.5659" stroke="#231D36" stroke-width="1.5" stroke-linecap="round" stroke-linejoin="round"/>
<path d="M19.4782 6.01758L20.4932 8.43424" stroke="#231D36" stroke-width="1.5" stroke-linecap="round" stroke-linejoin="round"/>
<path d="M51.9831 38.5217L49.5664 37.5067" stroke="#231D36" stroke-width="1.5" stroke-linecap="round" stroke-linejoin="round"/>
<path d="M6.01562 19.4784L8.43229 20.4934" stroke="#231D36" stroke-width="1.5" stroke-linecap="round" stroke-linejoin="round"/>
<path d="M51.9831 19.4784L49.5664 20.4934" stroke="#231D36" stroke-width="1.5" stroke-linecap="round" stroke-linejoin="round"/>
<path d="M6.01562 38.5217L8.43229 37.5067" stroke="#231D36" stroke-width="1.5" stroke-linecap="round" stroke-linejoin="round"/>
<path d="M38.5205 6.01758L37.5055 8.43424" stroke="#231D36" stroke-width="1.5" stroke-linecap="round" stroke-linejoin="round"/>
<path d="M19.4782 51.9826L20.4932 49.5659" stroke="#231D36" stroke-width="1.5" stroke-linecap="round" stroke-linejoin="round"/>
<path fill-rule="evenodd" clip-rule="evenodd" d="M29.0013 53.8722V47.3279V53.8722Z" stroke="#231D36" stroke-width="1.5" stroke-linecap="round" stroke-linejoin="round"/>
<path d="M29.0013 4.13257V10.6817" stroke="#231D36" stroke-width="1.5" stroke-linecap="round" stroke-linejoin="round"/>
<path fill-rule="evenodd" clip-rule="evenodd" d="M11.4141 46.5862L16.042 41.9583L11.4141 46.5862Z" stroke="#231D36" stroke-width="1.5" stroke-linecap="round" stroke-linejoin="round"/>
<path d="M46.5931 11.4067L41.9531 16.0467" stroke="#231D36" stroke-width="1.5" stroke-linecap="round" stroke-linejoin="round"/>
<path fill-rule="evenodd" clip-rule="evenodd" d="M4.12891 29.0001H10.6732H4.12891Z" stroke="#231D36" stroke-width="1.5" stroke-linecap="round" stroke-linejoin="round"/>
<path d="M53.8656 29.0001H47.3164" stroke="#231D36" stroke-width="1.5" stroke-linecap="round" stroke-linejoin="round"/>
<path fill-rule="evenodd" clip-rule="evenodd" d="M11.4141 11.4138L16.042 16.0417L11.4141 11.4138Z" stroke="#231D36" stroke-width="1.5" stroke-linecap="round" stroke-linejoin="round"/>
<path d="M46.5931 46.5934L41.9531 41.9534" stroke="#231D36" stroke-width="1.5" stroke-linecap="round" stroke-linejoin="round"/>
</svg>
