<svg width="58" height="58" viewBox="0 0 58 58" fill="none" xmlns="http://www.w3.org/2000/svg">
<path d="M7.25 21.7498V14.4998C7.25 11.8294 9.41292 9.6665 12.0833 9.6665H19.3333" stroke="#231D36" stroke-width="1.7" stroke-linecap="round" stroke-linejoin="round"/>
<path d="M19.3333 9.66659L14.5 4.83325L19.3333 9.66659L14.5 14.4999" stroke="#231D36" stroke-width="1.7" stroke-linecap="round" stroke-linejoin="round"/>
<path fill-rule="evenodd" clip-rule="evenodd" d="M48.9495 20.7422H32.0159C30.6094 20.7422 29.4688 19.6015 29.4688 18.195V7.38042C29.4663 5.97392 30.607 4.83325 32.0135 4.83325H48.9471C50.3536 4.83325 51.4943 5.97392 51.4943 7.38042V18.195C51.4967 19.6015 50.356 20.7422 48.9495 20.7422V20.7422Z" stroke="#231D36" stroke-width="1.7" stroke-linecap="round" stroke-linejoin="round"/>
<path d="M36.25 26.5833H45.9167" stroke="#231D36" stroke-width="1.7" stroke-linecap="round" stroke-linejoin="round"/>
<path fill-rule="evenodd" clip-rule="evenodd" d="M26.4534 47.3254H9.51982C8.11332 47.3254 6.97266 46.1848 6.97266 44.7783V33.9637C6.97266 32.5572 8.11332 31.4165 9.51982 31.4165H26.4534C27.8599 31.4165 29.0006 32.5572 29.0006 33.9637V44.7783C29.0006 46.1848 27.8599 47.3254 26.4534 47.3254Z" stroke="#231D36" stroke-width="1.7" stroke-linecap="round" stroke-linejoin="round"/>
<path d="M13.75 53.1666H23.4167" stroke="#231D36" stroke-width="1.7" stroke-linecap="round" stroke-linejoin="round"/>
<path d="M38.668 48.3333L43.5013 43.5" stroke="#231D36" stroke-width="1.7" stroke-linecap="round" stroke-linejoin="round"/>
<path d="M38.668 48.3333L43.5013 53.1666L38.668 48.3333" stroke="#231D36" stroke-width="1.7" stroke-linecap="round" stroke-linejoin="round"/>
<path d="M50.7513 36.25V43.5C50.7513 46.1704 48.5884 48.3333 45.918 48.3333H38.668" stroke="#231D36" stroke-width="1.7" stroke-linecap="round" stroke-linejoin="round"/>
</svg>
