<svg width="58" height="58" viewBox="0 0 58 58" fill="none" xmlns="http://www.w3.org/2000/svg">
<path fill-rule="evenodd" clip-rule="evenodd" d="M34.974 50.75H12.0833C9.41292 50.75 7.25 48.5871 7.25 45.9167V23.026C7.25 21.7452 7.75992 20.5151 8.66617 19.6088L19.6088 8.66617C20.5151 7.75992 21.7452 7.25 23.026 7.25H45.9167C48.5871 7.25 50.75 9.41292 50.75 12.0833V34.974C50.75 36.2548 50.2401 37.4849 49.3338 38.3912L38.3912 49.3338C37.4849 50.2401 36.2548 50.75 34.974 50.75V50.75Z" stroke="#231D36" stroke-width="1.7" stroke-linecap="round" stroke-linejoin="round"/>
<path d="M50.6292 36.25H26.5833C23.9129 36.25 21.75 34.0871 21.75 31.4166V7.43848" stroke="#231D36" stroke-width="1.7" stroke-linecap="round" stroke-linejoin="round"/>
<path d="M7.42578 21.75H31.4184C34.0889 21.75 36.2518 23.9129 36.2518 26.5833V50.5905" stroke="#231D36" stroke-width="1.7" stroke-linecap="round" stroke-linejoin="round"/>
</svg>
