<svg width="58" height="58" viewBox="0 0 58 58" fill="none" xmlns="http://www.w3.org/2000/svg">
<path d="M29 13.7338C31.1992 12.6874 33.6521 12.0833 36.25 12.0833C45.5928 12.0833 53.1667 19.6571 53.1667 28.9999C53.1667 38.3428 45.5928 45.9166 36.25 45.9166C33.6521 45.9166 31.1992 45.3124 29 44.266" stroke="#231D36" stroke-width="1.7" stroke-linecap="round" stroke-linejoin="round"/>
<path d="M33.7106 17.038C40.3169 23.6444 40.3169 34.3554 33.7106 40.9618C27.1042 47.5682 16.3932 47.5682 9.78681 40.9618C3.18044 34.3554 3.18044 23.6444 9.78681 17.038C16.3932 10.4317 27.1042 10.4317 33.7106 17.038" stroke="#231D36" stroke-width="1.7" stroke-linecap="round" stroke-linejoin="round"/>
<path fill-rule="evenodd" clip-rule="evenodd" d="M21.75 21.7507L29.0005 29.0013L21.75 36.2518L14.4995 29.0013L21.75 21.7507Z" stroke="#231D36" stroke-width="1.7" stroke-linecap="round" stroke-linejoin="round"/>
</svg>
