<svg width="58" height="58" viewBox="0 0 58 58" fill="none" xmlns="http://www.w3.org/2000/svg">
<path d="M28.9336 5.07495C42.2808 5.07495 53.1003 15.8944 53.1003 29.2416C53.1003 40.9335 44.7966 50.6847 33.7669 52.9225" stroke="#231D36" stroke-width="1.7" stroke-linecap="round" stroke-linejoin="round"/>
<path d="M24.1029 52.9251C19.4459 51.9802 15.2844 49.6916 12.0195 46.4895" stroke="#231D36" stroke-width="1.7" stroke-linecap="round" stroke-linejoin="round"/>
<path d="M8.02594 17.1584C7.14627 18.6761 6.4116 20.288 5.8751 21.9918" stroke="#231D36" stroke-width="1.7" stroke-linecap="round" stroke-linejoin="round"/>
<path d="M16.8503 8.33259C16.0093 8.82075 15.2069 9.36692 14.4336 9.95175" stroke="#231D36" stroke-width="1.7" stroke-linecap="round" stroke-linejoin="round"/>
<path d="M4.90014 31.6584C5.16114 34.1911 5.8088 36.6054 6.78997 38.8456" stroke="#231D36" stroke-width="1.7" stroke-linecap="round" stroke-linejoin="round"/>
<path d="M17.2029 40.8611C10.6054 34.2636 10.603 23.565 17.2029 16.9651C22.9836 11.1844 31.9084 10.4691 38.4696 14.8166" stroke="#231D36" stroke-width="1.7" stroke-linecap="round" stroke-linejoin="round"/>
<path d="M43.25 19.5942C45.0843 22.3637 46.0123 25.5537 46.0413 28.751" stroke="#231D36" stroke-width="1.7" stroke-linecap="round" stroke-linejoin="round"/>
<path d="M33.5156 45.223C34.6998 44.9064 35.8598 44.4739 36.969 43.8963" stroke="#231D36" stroke-width="1.7" stroke-linecap="round" stroke-linejoin="round"/>
<path d="M24.7884 45.223C25.4457 45.397 26.1127 45.5227 26.7845 45.617" stroke="#231D36" stroke-width="1.7" stroke-linecap="round" stroke-linejoin="round"/>
<path d="M42.2305 39.5996C43.3542 38.2196 44.2266 36.7044 44.8501 35.1118" stroke="#231D36" stroke-width="1.7" stroke-linecap="round" stroke-linejoin="round"/>
<path fill-rule="evenodd" clip-rule="evenodd" d="M28.9336 22.5112L35.6664 29.244L28.9336 35.9768L22.2008 29.244L28.9336 22.5112Z" stroke="#231D36" stroke-width="1.7" stroke-linecap="round" stroke-linejoin="round"/>
</svg>
