<svg width="58" height="58" viewBox="0 0 58 58" fill="none" xmlns="http://www.w3.org/2000/svg">
<path fill-rule="evenodd" clip-rule="evenodd" d="M14.5 50.75H9.66667C8.33267 50.75 7.25 49.6673 7.25 48.3333V33.8333C7.25 32.4993 8.33267 31.4167 9.66667 31.4167H14.5C15.834 31.4167 16.9167 32.4993 16.9167 33.8333V48.3333C16.9167 49.6673 15.834 50.75 14.5 50.75Z" stroke="#231D36" stroke-width="1.5" stroke-linecap="round" stroke-linejoin="round"/>
<path d="M31.418 41.0833H37.0561C38.1025 41.0833 39.1199 40.745 39.9561 40.1167L45.7947 35.7377C47.252 34.6453 49.2916 34.7903 50.5797 36.0784V36.0784C52.0104 37.5091 52.0104 39.8267 50.5797 41.2549L45.57 46.2647C44.2215 47.6132 42.5008 48.5339 40.6303 48.9085L33.5495 50.3247C32.1454 50.605 30.6978 50.5712 29.3082 50.2232L22.9041 48.6233C22.138 48.43 21.3526 48.3333 20.5623 48.3333H16.918" stroke="#231D36" stroke-width="1.5" stroke-linecap="round" stroke-linejoin="round"/>
<path d="M31.418 41.0833H35.0067C37.0295 41.0833 38.668 39.4448 38.668 37.4221V36.6898C38.668 35.0102 37.5249 33.5457 35.8961 33.1397L30.3571 31.755C29.4556 31.5302 28.5325 31.4167 27.6045 31.4167V31.4167C25.3642 31.4167 23.1723 32.0788 21.3091 33.3234L16.918 36.25" stroke="#231D36" stroke-width="1.5" stroke-linecap="round" stroke-linejoin="round"/>
<path d="M41.4894 12.4585C44.1679 15.1369 44.1679 19.4794 41.4894 22.1578C38.811 24.8363 34.4685 24.8363 31.7901 22.1578C29.1116 19.4794 29.1116 15.1369 31.7901 12.4585C34.4685 9.78004 38.811 9.78004 41.4894 12.4585" stroke="#231D36" stroke-width="1.5" stroke-linecap="round" stroke-linejoin="round"/>
<path d="M35.3582 10.5729C35.1335 9.20751 34.51 7.89526 33.4563 6.84159C30.7787 4.16393 26.4359 4.16393 23.7582 6.84159C21.0806 9.51926 21.0806 13.862 23.7582 16.5397C25.4257 18.2072 27.7361 18.8331 29.8893 18.4247" stroke="#231D36" stroke-width="1.5" stroke-linecap="round" stroke-linejoin="round"/>
</svg>
