<svg width="58" height="58" viewBox="0 0 58 58" fill="none" xmlns="http://www.w3.org/2000/svg">
<path d="M48.3333 26.5833V11.5372V11.5372C48.3333 9.16883 46.4145 7.25 44.0462 7.25H11.5372C9.16883 7.25 7.25 9.16883 7.25 11.5372V44.0462C7.25 46.4145 9.16883 48.3333 11.5372 48.3333H21.75" stroke="#231D36" stroke-width="1.5" stroke-linecap="round" stroke-linejoin="round"/>
<path d="M17.0423 27.666C17.2792 27.9028 17.2792 28.2847 17.0423 28.5215C16.8055 28.7583 16.4237 28.7583 16.1868 28.5215C15.95 28.2847 15.95 27.9028 16.1868 27.666C16.4237 27.4316 16.8055 27.4316 17.0423 27.666" stroke="#231D36" stroke-width="1.5" stroke-linecap="round" stroke-linejoin="round"/>
<path d="M39.3054 17.2187H26.5938" stroke="#231D36" stroke-width="1.5" stroke-linecap="round" stroke-linejoin="round"/>
<path d="M17.0423 16.7983C17.2792 17.0351 17.2792 17.4169 17.0423 17.6538C16.8055 17.8906 16.4237 17.8906 16.1868 17.6538C15.95 17.4169 15.95 17.0351 16.1868 16.7983C16.4237 16.5614 16.8055 16.5638 17.0423 16.7983" stroke="#231D36" stroke-width="1.5" stroke-linecap="round" stroke-linejoin="round"/>
<path d="M39.3054 28.0937H26.5938" stroke="#231D36" stroke-width="1.5" stroke-linecap="round" stroke-linejoin="round"/>
<path fill-rule="evenodd" clip-rule="evenodd" d="M29.6055 40.4792V48.9375C29.6055 51.272 31.5001 53.1667 33.8346 53.1667H46.5221C48.8566 53.1667 50.7513 51.272 50.7513 48.9375V40.4792C50.7513 38.1447 48.8566 36.25 46.5221 36.25H33.8346C31.5001 36.25 29.6055 38.1447 29.6055 40.4792Z" stroke="#231D36" stroke-width="1.5" stroke-linecap="round" stroke-linejoin="round"/>
<path d="M50.7513 43.9157H29.6055" stroke="#231D36" stroke-width="1.5" stroke-linecap="round" stroke-linejoin="round"/>
</svg>
