<svg width="186" height="47" viewBox="0 0 186 47" fill="none" xmlns="http://www.w3.org/2000/svg">
<path d="M13.7363 30.2C13.7363 28.8125 13.2614 27.812 12.3118 27.2223C11.3768 26.6326 10.0101 26.3374 8.21094 26.3374V21.1728C9.10279 21.1728 9.89444 21.1088 10.5851 20.9785C11.2904 20.8351 11.8801 20.6116 12.3549 20.3094C12.8298 20.0011 13.182 19.5903 13.4125 19.1008C13.6569 18.6113 13.7648 18.0216 13.7363 17.3317V10.469C13.7363 9.40523 13.8727 8.49796 14.1464 7.75025C14.42 6.97942 14.9172 6.36892 15.614 5.89409C16.3332 5.40538 17.3045 5.04617 18.5278 4.81492C19.7511 4.58367 21.3035 4.47729 23.189 4.47729V9.33354C22.6608 9.34485 22.1341 9.39535 21.6134 9.48463C21.1532 9.57173 20.7655 9.72898 20.4263 9.95946C20.118 10.1753 19.8652 10.4775 19.6925 10.866C19.5198 11.2545 19.4335 11.7578 19.4335 12.3768V18.8287C19.3472 21.5266 17.6637 23.116 14.3845 23.6194V23.8784C16.0387 24.1228 17.3137 24.6492 18.1824 25.4324C19.0512 26.2156 19.4774 27.2955 19.4343 28.6468V35.0986C19.4343 35.7176 19.5206 36.221 19.6933 36.6095C19.8659 36.998 20.1095 37.3001 20.4271 37.516C20.7586 37.7472 21.154 37.9045 21.6142 37.9908C22.089 38.0779 22.614 38.1273 23.1898 38.1419V43.019C21.3051 43.019 19.7519 42.9033 18.5285 42.6736C17.3052 42.4439 16.3348 42.0839 15.6148 41.5945C14.9095 41.1196 14.42 40.4999 14.1471 39.7383C13.8743 38.9767 13.737 38.0625 13.737 36.998V30.1992M174.872 36.998C174.872 38.0617 174.736 38.9759 174.462 39.7383C174.188 40.5006 173.691 41.1196 172.973 41.5945C172.267 42.0832 171.304 42.4424 170.082 42.6736C168.86 42.9049 167.312 43.019 165.419 43.019V38.1419C165.995 38.1249 166.512 38.0764 166.973 37.9908C167.434 37.9053 167.821 37.7465 168.139 37.516C168.47 37.3001 168.722 36.998 168.894 36.6095C169.082 36.221 169.175 35.7176 169.175 35.0986V28.6468C169.132 27.2947 169.549 26.2225 170.427 25.4324C171.305 24.6423 172.563 24.1235 174.204 23.8784V23.6194C170.938 23.116 169.27 21.5189 169.176 18.8287V12.3768C169.176 11.7586 169.083 11.2545 168.895 10.866C168.738 10.4961 168.475 10.1807 168.14 9.95946C167.831 9.72975 167.434 9.57096 166.974 9.48463C166.461 9.3932 165.941 9.34268 165.42 9.33354V4.47729C167.305 4.47729 168.858 4.59292 170.081 4.82263C171.305 5.05234 172.268 5.41232 172.972 5.90179C173.691 6.37663 174.188 6.99484 174.461 7.75796C174.735 8.50567 174.871 9.41217 174.871 10.4767V17.3394C174.856 18.0301 174.964 18.619 175.195 19.1085C175.426 19.598 175.778 20.0003 176.253 20.3171C176.727 20.6193 177.31 20.8413 178.001 20.9862C178.706 21.1157 179.504 21.1805 180.397 21.1805V26.3451C178.598 26.3451 177.225 26.6395 176.275 27.23C175.34 27.8197 174.872 28.8125 174.872 30.2077V37.0065" fill="#555588"/>
<path d="M32.4159 38.3345C31.9256 38.3345 31.4909 38.3014 31.1317 38.2328C30.7663 38.1749 30.4487 38.094 30.1797 37.9876V35.6805C30.5258 35.7712 30.8776 35.8386 31.2326 35.8825C31.6338 35.9423 32.0389 35.9714 32.4444 35.9696C32.8051 35.9693 33.1641 35.9209 33.512 35.8254C33.873 35.7411 34.2091 35.5732 34.4933 35.3352C34.7916 35.0947 35.0329 34.7632 35.2148 34.3331C35.3967 33.903 35.4892 33.3711 35.4892 32.7174V11.6274H38.1871V32.4353C38.1871 33.4374 38.043 34.32 37.7554 35.0608C37.4764 35.8008 37.0825 36.412 36.5722 36.893C36.0712 37.3833 35.4661 37.744 34.7546 37.9753C34.0608 38.2158 33.0942 38.336 32.2378 38.336M51.5958 30.5314H51.4801C51.1625 30.963 50.8457 31.3392 50.5281 31.6568C50.2191 31.9585 49.8697 32.2159 49.4898 32.4214C49.1144 32.6234 48.6959 32.7722 48.2349 32.8685C47.774 32.9649 47.2328 33.0127 46.6339 33.0127C45.971 33.0127 45.3597 32.9155 44.8016 32.7244C44.2595 32.5509 43.7622 32.2603 43.3447 31.8734C42.9408 31.488 42.6232 30.9885 42.3928 30.4088C42.1615 29.8129 42.0459 29.1107 42.0459 28.3029C42.0459 26.7258 42.5986 25.514 43.7047 24.6676C44.8201 23.8213 46.5129 23.3595 48.7822 23.2824L51.4362 23.1807V22.1786C51.4362 21.5342 51.3637 20.9954 51.2204 20.5629C51.0855 20.1313 50.8835 19.7921 50.6145 19.5246C50.3547 19.2548 50.0286 19.0621 49.6332 18.9465C49.2478 18.8309 48.8061 18.7738 48.3058 18.7738C47.5466 18.7674 46.7914 18.8843 46.0696 19.1199C45.3867 19.3512 44.7284 19.6287 44.0932 19.9563L43.1698 17.9799C43.8812 17.5945 44.6744 17.2684 45.5501 16.9986C46.443 16.7268 47.3717 16.5906 48.3051 16.5947C49.2863 16.5947 50.1319 16.6964 50.8442 16.8976C51.5657 17.0903 52.1569 17.4025 52.6186 17.835C53.0811 18.2589 53.4411 18.8016 53.6716 19.4653C53.9021 20.129 54.0185 20.9322 54.0185 21.8741V32.7221H52.1238L51.5958 30.5314ZM47.3115 30.8844C47.8973 30.8844 48.4415 30.7919 48.9418 30.61C49.442 30.4281 49.8668 30.1529 50.2399 29.7875C50.6052 29.4121 50.8889 28.9458 51.0909 28.3884C51.3021 27.8211 51.4084 27.1574 51.4084 26.3974V24.969L49.3457 25.0708C48.48 25.1093 47.7539 25.2057 47.1673 25.3591C46.5807 25.5125 46.1097 25.7291 45.7536 26.0081C45.417 26.2647 45.1575 26.609 45.0036 27.0033C44.8494 27.3887 44.7723 27.8257 44.7723 28.316C44.7723 29.2009 45.0036 29.8576 45.4645 30.2631C45.927 30.677 46.5437 30.8836 47.3107 30.8836M56.2215 16.8853H58.9333L61.8039 25.6982L62.1793 26.9316L62.611 28.4609L63.0002 29.9255L63.2454 30.9784H63.3456L63.5907 29.9255L63.98 28.4609L64.4116 26.9316L64.787 25.6982L67.6576 16.8845H70.3694L64.9597 32.7236H61.6266L56.2215 16.8853ZM81.0979 30.5314H80.9822C80.6646 30.963 80.3478 31.3392 80.0303 31.6568C79.7212 31.9585 79.3718 32.2159 78.9919 32.4214C78.6165 32.6234 78.198 32.7722 77.737 32.8685C77.2761 32.9649 76.7349 33.0127 76.136 33.0127C75.4731 33.0127 74.8618 32.9155 74.3037 32.7244C73.7616 32.5509 73.2643 32.2603 72.8469 31.8734C72.4429 31.488 72.1254 30.9885 71.8949 30.4088C71.6636 29.8129 71.548 29.1107 71.548 28.3029C71.548 26.7258 72.1007 25.514 73.2068 24.6676C74.3222 23.8213 76.015 23.3595 78.2843 23.2824L80.9383 23.1807V22.1786C80.9383 21.5342 80.8658 20.9954 80.7225 20.5629C80.5876 20.1313 80.3856 19.7921 80.1166 19.5246C79.8568 19.2548 79.5307 19.0621 79.1353 18.9465C78.7499 18.8309 78.3082 18.7738 77.8079 18.7738C77.0487 18.7674 76.2935 18.8843 75.5717 19.1199C74.8888 19.3512 74.2305 19.6287 73.5953 19.9563L72.6719 17.9799C73.3834 17.5945 74.1765 17.2684 75.0522 16.9986C75.9451 16.7268 76.8738 16.5906 77.8072 16.5947C78.7884 16.5947 79.634 16.6964 80.3463 16.8976C81.0678 17.0903 81.659 17.4025 82.1207 17.835C82.5832 18.2589 82.9432 18.8016 83.1737 19.4653C83.4042 20.129 83.5206 20.9322 83.5206 21.8741V32.7221H81.632L81.0979 30.5314ZM76.8136 30.8913C77.3994 30.8913 77.9436 30.7988 78.4439 30.6169C78.9441 30.435 79.3689 30.1598 79.742 29.7944C80.1073 29.419 80.391 28.9527 80.593 28.3954C80.8042 27.828 80.9105 27.1644 80.9105 26.4043V24.976L78.8478 25.0777C77.9821 25.1163 77.256 25.2126 76.6694 25.366C76.0828 25.5194 75.6118 25.736 75.2557 26.015C74.9191 26.2716 74.6596 26.6159 74.5057 27.0102C74.3515 27.3956 74.2744 27.8327 74.2744 28.3229C74.2744 29.2078 74.5057 29.8646 74.9666 30.27C75.4291 30.684 76.0458 30.8906 76.8128 30.8906M99.7019 27.0826C99.7019 28.0076 99.5339 28.8517 99.197 29.5925C98.8702 30.3232 98.3984 30.9438 97.7833 31.4533C97.1682 31.9628 96.4174 32.3528 95.5325 32.6219C94.6476 32.8816 93.6516 33.0111 92.5463 33.0111C91.4787 33.0111 90.4789 32.924 89.5462 32.7514C88.6227 32.5872 87.8488 32.3428 87.2237 32.0152V29.4483L88.3337 29.9108L89.661 30.3001L91.0894 30.5884C91.5747 30.6556 92.064 30.6896 92.554 30.6901C94.0926 30.6901 95.2272 30.4019 95.958 29.8245C96.698 29.2464 97.068 28.42 97.068 27.3424C97.068 26.8229 96.9955 26.3712 96.8521 25.9858C96.7173 25.6003 96.4721 25.2504 96.1168 24.9328C95.7699 24.606 95.3043 24.293 94.7177 23.9955C94.1319 23.6871 93.3903 23.3557 92.4962 22.9934C91.6483 22.6565 90.8951 22.2996 90.2607 21.8973C89.6441 21.4933 89.1161 21.0493 88.7037 20.5406C88.2971 20.0348 87.9887 19.4576 87.7941 18.8386C87.6014 18.2042 87.5058 17.4819 87.5058 16.6749C87.5058 15.8285 87.66 15.0738 87.9683 14.4101C88.2766 13.7465 88.7083 13.1884 89.2664 12.7374C89.8245 12.2749 90.4874 11.925 91.2567 11.6845C92.026 11.444 92.8908 11.3237 93.8235 11.3237C94.9682 11.3237 95.9973 11.434 96.9107 11.6552C97.8242 11.8664 98.6374 12.1408 99.3489 12.4777L98.3822 14.7285C97.7656 14.4495 97.0456 14.209 96.247 14.007C95.4474 13.7941 94.6233 13.6873 93.7958 13.6894C92.6226 13.6894 91.7145 13.9638 91.0694 14.5119C90.4249 15.0515 90.1027 15.7815 90.1027 16.7041C90.1027 17.2437 90.1752 17.7294 90.3186 18.1325C90.4627 18.5272 90.704 18.8879 91.0401 19.2148C91.3769 19.5323 91.8109 19.8353 92.3674 20.1243C93.0359 20.454 93.7193 20.7524 94.4155 21.0185C95.2904 21.3654 96.0551 21.7123 96.7088 22.0861C97.3717 22.4515 97.9251 22.8569 98.3676 23.3194C98.8077 23.7776 99.1467 24.323 99.3628 24.9205C99.594 25.5263 99.7158 26.2694 99.7158 27.0973M109.477 32.9957C108.506 32.9957 107.596 32.8462 106.75 32.5486C105.913 32.2463 105.157 31.7524 104.544 31.1064C103.927 30.4435 103.428 29.6017 103.079 28.5819C102.723 27.5529 102.546 26.3172 102.546 24.8819C102.546 23.3711 102.728 22.093 103.085 21.0447C103.45 19.9871 103.951 19.1307 104.585 18.4778C105.23 17.8149 105.973 17.3331 106.836 17.0364C107.699 16.7396 108.61 16.5893 109.591 16.5893C110.329 16.5881 111.064 16.6703 111.783 16.8344C112.505 16.9986 113.105 17.1998 113.587 17.4403L112.816 19.6618C112.576 19.558 112.33 19.4664 112.081 19.3874C111.807 19.2887 111.528 19.2068 111.244 19.1423C110.965 19.067 110.68 19.009 110.393 18.9689C110.114 18.9211 109.85 18.8964 109.599 18.8964C108.089 18.8964 106.989 19.382 106.296 20.361C105.604 21.3222 105.258 22.823 105.258 24.8611C105.258 26.8907 105.605 28.3761 106.296 29.3188C106.99 30.2438 108.069 30.7179 109.485 30.7179C110.255 30.7179 110.965 30.6308 111.59 30.4581C112.225 30.2754 112.802 30.0727 113.322 29.8237V32.1609C112.793 32.4431 112.231 32.6563 111.648 32.7953C111.062 32.9394 110.302 33.0111 109.446 33.0111M123.781 16.5955L124.719 16.6379C125.019 16.6516 125.317 16.6856 125.613 16.7396L125.266 19.1631L124.429 19.0475C124.15 19.0089 123.886 18.9897 123.636 18.9897C123.03 18.9897 122.477 19.1145 121.977 19.3651C121.476 19.6056 121.052 19.9563 120.679 20.418C120.322 20.8697 120.044 21.4186 119.842 22.0622C119.65 22.6966 119.554 23.4035 119.554 24.182V32.7213H116.928V16.8861H119.064L119.381 19.7844H119.497L120.262 18.5873C120.526 18.2159 120.836 17.8792 121.185 17.5852C121.529 17.2886 121.919 17.0498 122.339 16.8784C122.763 16.6957 123.287 16.6039 123.827 16.6039" fill="black"/>
<path d="M32.4159 38.3345C31.9256 38.3345 31.4909 38.3014 31.1317 38.2328C30.7663 38.1749 30.4487 38.094 30.1797 37.9876V35.6805C30.5258 35.7712 30.8776 35.8386 31.2326 35.8825C31.6338 35.9423 32.0389 35.9714 32.4444 35.9696C32.8051 35.9693 33.1641 35.9208 33.512 35.8254C33.873 35.7411 34.2091 35.5732 34.4933 35.3352C34.7916 35.0947 35.0329 34.7632 35.2148 34.3331C35.3967 33.903 35.4892 33.3711 35.4892 32.7174V11.6274H38.1871V32.4353C38.1871 33.4374 38.043 34.32 37.7554 35.0608C37.4764 35.8008 37.0825 36.412 36.5722 36.893C36.0712 37.3833 35.4661 37.744 34.7546 37.9753C34.0608 38.2158 33.0942 38.336 32.2378 38.336M47.3115 30.8844C47.8973 30.8844 48.4415 30.7919 48.9418 30.61C49.442 30.4281 49.8668 30.1529 50.2399 29.7875C50.6052 29.4121 50.8889 28.9458 51.0909 28.3884C51.3021 27.8211 51.4084 27.1574 51.4084 26.3974V24.969L49.3457 25.0708C48.48 25.1093 47.7539 25.2057 47.1673 25.3591C46.5807 25.5125 46.1097 25.7291 45.7536 26.0081C45.417 26.2647 45.1575 26.609 45.0036 27.0033C44.8494 27.3887 44.7723 27.8257 44.7723 28.316C44.7723 29.2009 45.0036 29.8576 45.4645 30.2631C45.927 30.677 46.5437 30.8836 47.3107 30.8836M76.8136 30.8913C77.3994 30.8913 77.9436 30.7988 78.4439 30.6169C78.9441 30.435 79.3689 30.1598 79.742 29.7944C80.1073 29.419 80.391 28.9527 80.593 28.3954C80.8042 27.828 80.9105 27.1644 80.9105 26.4043V24.976L78.8478 25.0777C77.9821 25.1163 77.256 25.2126 76.6694 25.366C76.0828 25.5194 75.6118 25.736 75.2557 26.015C74.9191 26.2716 74.6596 26.6159 74.5057 27.0102C74.3515 27.3956 74.2744 27.8327 74.2744 28.3229C74.2744 29.2078 74.5057 29.8646 74.9666 30.27C75.4291 30.684 76.0458 30.8906 76.8128 30.8906M99.7019 27.0826C99.7019 28.0076 99.5339 28.8517 99.197 29.5925C98.8702 30.3232 98.3984 30.9437 97.7833 31.4533C97.1682 31.9628 96.4174 32.3528 95.5325 32.6219C94.6476 32.8816 93.6516 33.0111 92.5463 33.0111C91.4787 33.0111 90.4789 32.924 89.5462 32.7514C88.6227 32.5872 87.8488 32.3428 87.2237 32.0152V29.4483L88.3337 29.9108L89.661 30.3001L91.0894 30.5884C91.5747 30.6556 92.064 30.6896 92.554 30.6901C94.0926 30.6901 95.2272 30.4019 95.958 29.8245C96.698 29.2464 97.068 28.42 97.068 27.3424C97.068 26.8229 96.9955 26.3712 96.8521 25.9858C96.7173 25.6003 96.4721 25.2504 96.1168 24.9328C95.7699 24.606 95.3043 24.293 94.7177 23.9955C94.1319 23.6871 93.3903 23.3557 92.4962 22.9934C91.6483 22.6565 90.8951 22.2996 90.2607 21.8973C89.6441 21.4933 89.1161 21.0493 88.7037 20.5406C88.2971 20.0348 87.9887 19.4576 87.7941 18.8386C87.6014 18.2042 87.5058 17.4819 87.5058 16.6749C87.5058 15.8285 87.66 15.0738 87.9683 14.4101C88.2766 13.7465 88.7083 13.1884 89.2664 12.7374C89.8245 12.2749 90.4874 11.925 91.2567 11.6845C92.026 11.444 92.8908 11.3237 93.8235 11.3237C94.9682 11.3237 95.9973 11.434 96.9107 11.6552C97.8242 11.8664 98.6374 12.1408 99.3489 12.4777L98.3823 14.7285C97.7656 14.4495 97.0456 14.209 96.247 14.007C95.4474 13.7941 94.6233 13.6873 93.7958 13.6894C92.6226 13.6894 91.7145 13.9638 91.0694 14.5119C90.4249 15.0515 90.1027 15.7815 90.1027 16.7041C90.1027 17.2437 90.1752 17.7294 90.3186 18.1325C90.4627 18.5272 90.704 18.8879 91.0401 19.2148C91.3769 19.5323 91.8109 19.8353 92.3674 20.1243C93.0359 20.454 93.7193 20.7524 94.4155 21.0185C95.2904 21.3654 96.0551 21.7123 96.7088 22.0861C97.3717 22.4515 97.9251 22.8569 98.3676 23.3194C98.8077 23.7776 99.1467 24.323 99.3628 24.9205C99.594 25.5263 99.7158 26.2694 99.7158 27.0973M109.477 32.9957C108.506 32.9957 107.596 32.8462 106.75 32.5486C105.913 32.2463 105.157 31.7524 104.544 31.1064C103.927 30.4435 103.428 29.6017 103.079 28.5819C102.723 27.5529 102.546 26.3172 102.546 24.8819C102.546 23.3711 102.728 22.093 103.085 21.0447C103.45 19.9871 103.951 19.1307 104.585 18.4778C105.23 17.8149 105.973 17.3331 106.836 17.0364C107.699 16.7396 108.61 16.5893 109.591 16.5893C110.329 16.5881 111.064 16.6703 111.783 16.8344C112.505 16.9986 113.105 17.1998 113.587 17.4403L112.816 19.6618C112.576 19.558 112.33 19.4664 112.081 19.3874C111.807 19.2887 111.528 19.2068 111.244 19.1423C110.965 19.067 110.68 19.009 110.393 18.9689C110.114 18.9211 109.85 18.8964 109.599 18.8964C108.089 18.8964 106.989 19.382 106.296 20.361C105.604 21.3222 105.258 22.823 105.258 24.8611C105.258 26.8907 105.605 28.3761 106.296 29.3188C106.99 30.2438 108.069 30.7179 109.485 30.7179C110.255 30.7179 110.965 30.6308 111.59 30.4581C112.225 30.2754 112.802 30.0727 113.322 29.8237V32.1609C112.793 32.4431 112.231 32.6563 111.648 32.7953C111.062 32.9394 110.302 33.0111 109.446 33.0111M123.781 16.5955L124.719 16.6379C125.019 16.6516 125.317 16.6856 125.613 16.7396L125.266 19.1631L124.429 19.0475C124.15 19.0089 123.886 18.9897 123.636 18.9897C123.03 18.9897 122.477 19.1145 121.977 19.3651C121.476 19.6056 121.052 19.9563 120.679 20.418C120.322 20.8697 120.044 21.4186 119.842 22.0622C119.65 22.6966 119.554 23.4035 119.554 24.182V32.7213H116.928V16.8861H119.064L119.381 19.7844H119.497L120.262 18.5873C120.526 18.2159 120.836 17.8792 121.185 17.5852C121.529 17.2886 121.919 17.0498 122.339 16.8784C122.763 16.6957 123.287 16.6039 123.827 16.6039M51.5958 30.5314H51.4801C51.1625 30.963 50.8457 31.3392 50.5281 31.6568C50.2191 31.9585 49.8697 32.2159 49.4898 32.4214C49.1144 32.6234 48.6959 32.7722 48.2349 32.8685C47.774 32.9649 47.2328 33.0127 46.6339 33.0127C45.971 33.0127 45.3597 32.9155 44.8016 32.7244C44.2595 32.5509 43.7622 32.2603 43.3447 31.8734C42.9408 31.488 42.6232 30.9885 42.3928 30.4088C42.1615 29.8129 42.0459 29.1107 42.0459 28.3029C42.0459 26.7258 42.5986 25.514 43.7047 24.6676C44.8201 23.8213 46.5129 23.3595 48.7822 23.2824L51.4362 23.1807V22.1786C51.4362 21.5342 51.3637 20.9954 51.2204 20.5629C51.0855 20.1313 50.8835 19.7921 50.6145 19.5246C50.3547 19.2548 50.0286 19.0621 49.6332 18.9465C49.2478 18.8309 48.8061 18.7738 48.3058 18.7738C47.5466 18.7674 46.7914 18.8843 46.0696 19.1199C45.3867 19.3512 44.7284 19.6287 44.0932 19.9563L43.1698 17.9799C43.8812 17.5945 44.6744 17.2684 45.5501 16.9986C46.443 16.7268 47.3717 16.5906 48.3051 16.5947C49.2863 16.5947 50.1319 16.6964 50.8442 16.8976C51.5657 17.0903 52.1569 17.4025 52.6186 17.835C53.0811 18.2589 53.4411 18.8016 53.6716 19.4653C53.9021 20.129 54.0185 20.9322 54.0185 21.8741V32.7221H52.1238L51.5958 30.5314ZM56.2215 16.8853H58.9333L61.8039 25.6982L62.1793 26.9316L62.611 28.4609L63.0002 29.9255L63.2454 30.9784H63.3456L63.5907 29.9255L63.98 28.4609L64.4116 26.9316L64.787 25.6982L67.6576 16.8845H70.3694L64.9597 32.7236H61.6266L56.2215 16.8853ZM81.0979 30.5314H80.9822C80.6646 30.963 80.3478 31.3392 80.0303 31.6568C79.7212 31.9585 79.3718 32.2159 78.9919 32.4214C78.6165 32.6234 78.198 32.7722 77.737 32.8685C77.2761 32.9649 76.7349 33.0127 76.136 33.0127C75.4731 33.0127 74.8618 32.9155 74.3037 32.7244C73.7616 32.5509 73.2643 32.2603 72.8469 31.8734C72.4429 31.488 72.1254 30.9885 71.8949 30.4088C71.6636 29.8129 71.548 29.1107 71.548 28.3029C71.548 26.7258 72.1007 25.514 73.2068 24.6676C74.3222 23.8213 76.015 23.3595 78.2843 23.2824L80.9383 23.1807V22.1786C80.9383 21.5342 80.8658 20.9954 80.7225 20.5629C80.5876 20.1313 80.3856 19.7921 80.1166 19.5246C79.8568 19.2548 79.5307 19.0621 79.1353 18.9465C78.7499 18.8309 78.3082 18.7738 77.8079 18.7738C77.0487 18.7674 76.2935 18.8843 75.5717 19.1199C74.8888 19.3512 74.2305 19.6287 73.5953 19.9563L72.6719 17.9799C73.3834 17.5945 74.1765 17.2684 75.0522 16.9986C75.9451 16.7268 76.8738 16.5906 77.8072 16.5947C78.7884 16.5947 79.634 16.6964 80.3463 16.8976C81.0678 17.0903 81.659 17.4025 82.1207 17.835C82.5832 18.2589 82.9432 18.8016 83.1737 19.4653C83.4042 20.129 83.5206 20.9322 83.5206 21.8741V32.7221H81.632L81.0979 30.5314Z" stroke="black" stroke-width="1.6411"/>
<path d="M131.165 32.7235H128.539V16.8844H131.164V32.7235M128.77 11.3375C129.068 11.0777 129.433 10.9482 129.866 10.9482C130.077 10.9482 130.275 10.9814 130.457 11.05C130.642 11.1035 130.811 11.2026 130.947 11.3383C131.092 11.4732 131.202 11.6466 131.279 11.8578C131.365 12.0598 131.408 12.3049 131.408 12.5932C131.408 13.1513 131.254 13.5691 130.946 13.8481C130.648 14.1179 130.287 14.252 129.864 14.252C129.432 14.252 129.054 14.0493 128.756 13.7803C128.468 13.5105 128.332 13.0927 128.332 12.5585C128.334 12.0151 128.478 11.5973 128.767 11.3375H128.77Z" fill="black"/>
<path d="M131.165 32.7235H128.539V16.8844H131.164V32.7235M128.77 11.3375C129.068 11.0777 129.433 10.9482 129.866 10.9482C130.077 10.9482 130.275 10.9814 130.457 11.05C130.642 11.1035 130.811 11.2026 130.947 11.3383C131.092 11.4732 131.202 11.6466 131.279 11.8578C131.365 12.0598 131.408 12.3049 131.408 12.5932C131.408 13.1513 131.254 13.5691 130.946 13.8481C130.648 14.1179 130.287 14.252 129.864 14.252C129.432 14.252 129.054 14.0493 128.756 13.7803C128.468 13.5105 128.332 13.0927 128.332 12.5585C128.334 12.0151 128.478 11.5973 128.767 11.3375H128.77Z" stroke="black" stroke-width="1.6411" stroke-linecap="square"/>
<path d="M143.203 33.0117C142.635 33.0117 142.12 32.9501 141.659 32.8244C141.198 32.6988 140.779 32.5361 140.404 32.3342C140.039 32.123 139.712 31.8771 139.423 31.598C139.15 31.3256 138.899 31.0315 138.673 30.7185H138.5L138.586 31.6558L138.644 32.4267L138.672 33.0472V39.8128H136.047V16.8844H138.182L138.557 19.0196H138.673C138.893 18.6844 139.144 18.3705 139.423 18.0822C139.706 17.781 140.032 17.5234 140.39 17.3176C140.765 17.0963 141.184 16.9229 141.645 16.798C142.107 16.6631 142.626 16.5961 143.202 16.5961C144.106 16.5961 144.928 16.7695 145.668 17.1156C146.418 17.4695 147.067 18.005 147.558 18.6735C148.087 19.3564 148.495 20.2151 148.791 21.2265C149.087 22.2378 149.223 23.4287 149.223 24.7754C149.223 26.132 149.079 27.3237 148.791 28.352C148.503 29.3711 148.093 30.2275 147.558 30.9189C147.038 31.6111 146.401 32.1353 145.669 32.4914C144.929 32.8383 143.924 33.011 143.021 33.011M142.697 18.7737C141.966 18.7737 141.346 18.8839 140.836 19.1051C140.342 19.3216 139.917 19.6712 139.61 20.1149C139.301 20.5666 139.07 21.1293 138.917 21.8107C138.773 22.4837 138.692 23.2769 138.672 24.1911V24.7823C138.672 25.7536 138.734 26.6192 138.86 27.3785C138.995 28.1285 139.216 28.7637 139.523 29.2824C139.826 29.7794 140.26 30.1836 140.777 30.451C141.297 30.7108 141.946 30.8403 142.725 30.8403C144.023 30.8403 144.975 30.3161 145.581 29.2678C146.196 28.2195 146.504 26.7148 146.504 24.753C146.504 22.7527 146.196 21.2573 145.581 20.2668C144.975 19.2762 144.013 18.7814 142.695 18.7814M157.982 30.8626C158.156 30.8626 158.348 30.8472 158.561 30.8334L159.195 30.7609L159.735 30.6591L160.124 30.5574V32.5485C159.999 32.6063 159.84 32.6641 159.647 32.7219C159.455 32.7797 159.244 32.8267 159.013 32.866C158.775 32.9149 158.534 32.9489 158.292 32.9678C158.048 32.9963 157.802 33.0105 157.556 33.0102C156.995 33.0149 156.436 32.937 155.897 32.7789C155.396 32.6297 154.939 32.357 154.57 31.9857C154.205 31.6103 153.916 31.107 153.704 30.4711C153.493 29.8266 153.387 29.0188 153.387 28.0476V18.8592H151.151V17.6906L153.387 16.5652L154.512 13.2476H156.027V16.8828H160.008V18.8592H156.027V28.0476C156.027 28.9726 156.176 29.6817 156.474 30.1535C156.782 30.616 157.282 30.8603 157.974 30.8603" fill="black"/>
<path d="M143.203 33.0117C142.635 33.0117 142.12 32.9501 141.659 32.8244C141.198 32.6988 140.779 32.5361 140.404 32.3342C140.039 32.123 139.712 31.8771 139.423 31.598C139.15 31.3256 138.899 31.0315 138.673 30.7185H138.5L138.586 31.6558L138.644 32.4267L138.672 33.0472V39.8128H136.047V16.8844H138.182L138.557 19.0196H138.673C138.893 18.6844 139.144 18.3705 139.423 18.0822C139.706 17.781 140.032 17.5234 140.39 17.3176C140.765 17.0963 141.184 16.9229 141.645 16.798C142.107 16.6631 142.626 16.5961 143.202 16.5961C144.106 16.5961 144.928 16.7695 145.668 17.1156C146.418 17.4695 147.067 18.005 147.558 18.6735C148.087 19.3564 148.495 20.2151 148.791 21.2265C149.087 22.2378 149.223 23.4287 149.223 24.7754C149.223 26.132 149.079 27.3237 148.791 28.352C148.503 29.3711 148.093 30.2275 147.558 30.9189C147.038 31.6111 146.401 32.1353 145.669 32.4914C144.929 32.8383 143.924 33.011 143.021 33.011M142.697 18.7737C141.966 18.7737 141.346 18.8839 140.836 19.1051C140.342 19.3216 139.917 19.6712 139.61 20.1149C139.301 20.5666 139.07 21.1293 138.917 21.8107C138.773 22.4837 138.692 23.2769 138.672 24.1911V24.7823C138.672 25.7536 138.734 26.6192 138.86 27.3785C138.995 28.1285 139.216 28.7637 139.523 29.2824C139.826 29.7794 140.26 30.1836 140.777 30.451C141.297 30.7108 141.946 30.8403 142.725 30.8403C144.023 30.8403 144.975 30.3161 145.581 29.2678C146.196 28.2195 146.504 26.7148 146.504 24.753C146.504 22.7527 146.196 21.2573 145.581 20.2668C144.975 19.2762 144.013 18.7814 142.695 18.7814M157.982 30.8626C158.156 30.8626 158.348 30.8472 158.561 30.8334L159.195 30.7609L159.735 30.6591L160.124 30.5574V32.5485C159.999 32.6063 159.84 32.6641 159.647 32.7219C159.455 32.7797 159.244 32.8267 159.013 32.866C158.775 32.9149 158.534 32.9489 158.292 32.9678C158.048 32.9963 157.802 33.0105 157.556 33.0102C156.995 33.0149 156.436 32.937 155.897 32.7789C155.396 32.6297 154.939 32.357 154.57 31.9857C154.205 31.6103 153.916 31.107 153.704 30.4711C153.493 29.8266 153.387 29.0188 153.387 28.0476V18.8592H151.151V17.6906L153.387 16.5652L154.512 13.2476H156.027V16.8828H160.008V18.8592H156.027V28.0476C156.027 28.9726 156.176 29.6817 156.474 30.1535C156.782 30.616 157.282 30.8603 157.974 30.8603" stroke="black" stroke-width="1.6411"/>
</svg>
