<svg width="58" height="58" viewBox="0 0 58 58" fill="none" xmlns="http://www.w3.org/2000/svg">
<path d="M33.0595 31.3466C35.2997 33.5868 35.2997 37.2215 33.0595 39.4642C30.8192 41.7044 27.1846 41.7044 24.9419 39.4642C22.7017 37.2239 22.7017 33.5892 24.9419 31.3466C27.1846 29.1039 30.8192 29.1039 33.0595 31.3466" stroke="#231D36" stroke-width="1.5" stroke-linecap="round" stroke-linejoin="round"/>
<path d="M16.9167 43.5H14.5" stroke="#231D36" stroke-width="1.5" stroke-linecap="round" stroke-linejoin="round"/>
<path d="M43.4987 26.5833H41.082" stroke="#231D36" stroke-width="1.5" stroke-linecap="round" stroke-linejoin="round"/>
<path fill-rule="evenodd" clip-rule="evenodd" d="M45.9167 50.5083H11.8417C9.30658 50.5083 7.25 48.4518 7.25 45.9167V23.925C7.25 21.3899 9.30658 19.3333 11.8417 19.3333H46.1583C48.6934 19.3333 50.75 21.3899 50.75 23.925V45.675C50.75 48.3454 48.5871 50.5083 45.9167 50.5083Z" stroke="#231D36" stroke-width="1.5" stroke-linecap="round" stroke-linejoin="round"/>
<path d="M45.9154 12.0833H12.082" stroke="#231D36" stroke-width="1.5" stroke-linecap="round" stroke-linejoin="round"/>
<path d="M43.5 4.83333H14.5" stroke="#231D36" stroke-width="1.5" stroke-linecap="round" stroke-linejoin="round"/>
</svg>
