<svg width="58" height="58" viewBox="0 0 58 58" fill="none" xmlns="http://www.w3.org/2000/svg">
<path d="M29.0013 22.6563V20.5417" stroke="#231D36" stroke-width="1.5" stroke-linecap="round" stroke-linejoin="round"/>
<path d="M29.0013 35.3437V37.4583" stroke="#231D36" stroke-width="1.5" stroke-linecap="round" stroke-linejoin="round"/>
<path d="M25.3341 33.8333C25.8827 34.7299 26.8179 35.351 27.9465 35.351H29.005H30.2641C31.905 35.351 33.2318 34.0218 33.2318 32.3833C33.2318 31.0203 32.3038 29.8338 30.9843 29.5003L27.0209 28.5046C25.7039 28.1735 24.7734 26.9845 24.7734 25.6215C24.7734 23.9806 26.1026 22.6538 27.7411 22.6538H29.0002H30.0587C31.1873 22.6538 32.1201 23.2701 32.6687 24.1643" stroke="#231D36" stroke-width="1.5" stroke-linecap="round" stroke-linejoin="round"/>
<path fill-rule="evenodd" clip-rule="evenodd" d="M47.8597 44.0147V44.0147C41.8059 42.804 35.5613 42.9538 29.5728 44.4497L29 44.5947C22.6345 46.1849 15.9959 46.3444 9.56275 45.0563L9.193 44.9814C8.062 44.7567 7.25 43.7634 7.25 42.6131V16.4188C7.25 14.8939 8.64442 13.7508 10.1403 14.0481V14.0481C16.1941 15.2588 22.4388 15.109 28.4273 13.6131L29.5703 13.3279C35.5588 11.832 41.8059 11.6822 47.8573 12.8929L48.8046 13.0814C49.938 13.3086 50.75 14.2994 50.75 15.4522V41.6464C50.75 43.1713 49.3556 44.3144 47.8597 44.0147V44.0147Z" stroke="#231D36" stroke-width="1.5" stroke-linecap="round" stroke-linejoin="round"/>
</svg>
