<svg width="140" height="71" viewBox="0 0 140 71" fill="none" xmlns="http://www.w3.org/2000/svg">
<path d="M41.7345 14.7902C41.7345 14.3517 41.9086 13.9313 42.2187 13.6212C42.5287 13.3112 42.9492 13.137 43.3876 13.137C43.8261 13.137 44.2466 13.3112 44.5566 13.6212C44.8666 13.9313 45.0408 14.3517 45.0408 14.7902C45.0408 15.2286 44.8666 15.6491 44.5566 15.9592C44.2466 16.2692 43.8261 16.4434 43.3876 16.4434C42.9492 16.4434 42.5287 16.2692 42.2187 15.9592C41.9086 15.6491 41.7345 15.2286 41.7345 14.7902ZM22.012 29.7585C22.012 29.3201 22.1861 28.8996 22.4962 28.5896C22.8062 28.2795 23.2267 28.1054 23.6651 28.1054C24.1036 28.1054 24.5241 28.2795 24.8341 28.5896C25.1441 28.8996 25.3183 29.3201 25.3183 29.7585C25.3183 30.197 25.1441 30.6175 24.8341 30.9275C24.5241 31.2375 24.1036 31.4117 23.6651 31.4117C23.2267 31.4117 22.8062 31.2375 22.4962 30.9275C22.1861 30.6175 22.012 30.197 22.012 29.7585ZM61.4453 29.8355C61.4453 29.3971 61.6195 28.9766 61.9295 28.6666C62.2395 28.3565 62.66 28.1824 63.0985 28.1824C63.5369 28.1824 63.9574 28.3565 64.2674 28.6666C64.5775 28.9766 64.7516 29.3971 64.7516 29.8355C64.7516 30.274 64.5775 30.6945 64.2674 31.0045C63.9574 31.3145 63.5369 31.4887 63.0985 31.4887C62.66 31.4887 62.2395 31.3145 61.9295 31.0045C61.6195 30.6945 61.4453 30.274 61.4453 29.8355ZM26.7976 32.1129C27.5583 31.7629 27.9025 30.8832 27.5641 30.1214L26.8326 28.4495H29.7178V41.452H23.8985C23.18 38.9287 22.9562 36.2903 23.2393 33.682L26.7976 32.1129ZM38.8645 32.4325V28.5895H45.7326C46.0873 28.5895 48.2375 29.0002 48.2375 30.6079C48.2375 31.9425 46.5878 32.422 45.2321 32.422L38.8645 32.4325ZM29.4845 53.0674C29.4845 52.8503 29.5272 52.6353 29.6103 52.4347C29.6934 52.2341 29.8152 52.0519 29.9687 51.8984C30.1222 51.7449 30.3044 51.6231 30.505 51.54C30.7056 51.4569 30.9205 51.4142 31.1376 51.4142C31.3547 51.4142 31.5697 51.4569 31.7703 51.54C31.9708 51.6231 32.1531 51.7449 32.3066 51.8984C32.4601 52.0519 32.5819 52.2341 32.665 52.4347C32.748 52.6353 32.7908 52.8503 32.7908 53.0674C32.7908 53.5058 32.6166 53.9263 32.3066 54.2363C31.9966 54.5463 31.5761 54.7205 31.1376 54.7205C30.6992 54.7205 30.2787 54.5463 29.9687 54.2363C29.6586 53.9263 29.4845 53.5058 29.4845 53.0674ZM53.9798 53.1444C53.9798 52.7059 54.154 52.2854 54.464 51.9754C54.774 51.6654 55.1945 51.4912 55.633 51.4912C56.0714 51.4912 56.4919 51.6654 56.8019 51.9754C57.112 52.2854 57.2861 52.7059 57.2861 53.1444C57.2861 53.5828 57.112 54.0033 56.8019 54.3133C56.4919 54.6234 56.0714 54.7975 55.633 54.7975C55.1945 54.7975 54.774 54.6234 54.464 54.3133C54.154 54.0033 53.9798 53.5828 53.9798 53.1444ZM54.4908 49.3959C54.2971 49.3541 54.0971 49.351 53.9022 49.3867C53.7073 49.4224 53.5214 49.4963 53.3551 49.604C53.1888 49.7118 53.0455 49.8513 52.9333 50.0146C52.821 50.1778 52.7421 50.3617 52.7011 50.5555L51.8845 54.4289C49.216 55.6375 46.318 56.256 43.3886 56.2419C40.4592 56.2278 37.5674 55.5815 34.9106 54.3472L34.094 50.4739C34.0528 50.2801 33.9738 50.0964 33.8616 49.9333C33.7493 49.7701 33.6059 49.6307 33.4396 49.5231C33.2734 49.4155 33.0875 49.3417 32.8927 49.3061C32.6978 49.2704 32.4979 49.2736 32.3043 49.3154L28.886 50.0504C28.2508 49.3962 27.6603 48.7001 27.1185 47.9667H43.7528C43.9395 47.9667 44.0678 47.9317 44.0678 47.7614V41.8779C44.0678 41.7064 43.9418 41.6725 43.7528 41.6725H38.8878V37.9427H44.1378C44.6185 37.9427 46.7045 38.0804 47.373 40.7485L48.3553 45.0944C48.668 46.0534 49.942 47.9679 51.2988 47.9679H59.8878C59.3117 48.7387 58.6817 49.4678 58.0025 50.1495L54.4908 49.3959ZM63.7273 33.8594C63.8441 35.0338 63.8586 36.2162 63.7705 37.3932H61.6705C61.4605 37.3932 61.3788 37.5309 61.3788 37.735V38.694C61.3788 40.9515 60.0955 41.4427 58.9906 41.5675C57.9406 41.6877 56.7506 41.1242 56.606 40.4732C55.9795 36.9499 54.9353 36.1962 53.2868 34.8965C55.3331 33.5969 57.4635 31.68 57.4635 29.1145C57.4635 26.3437 55.5641 24.5995 54.2691 23.7432C52.4526 22.5462 50.4425 22.3059 49.8988 22.3059H28.312C31.2977 18.9692 35.3002 16.7102 39.6998 15.8787L42.2455 18.562C42.382 18.7053 42.5455 18.8203 42.7265 18.9003C42.9075 18.9804 43.1026 19.0239 43.3005 19.0285C43.4984 19.033 43.6952 18.9985 43.8797 18.9269C44.0642 18.8552 44.2328 18.7479 44.3758 18.611L47.2248 15.8869C50.1285 16.4306 52.879 17.5999 55.2853 19.3136C57.6917 21.0273 59.6961 23.2443 61.1595 25.8105L59.2111 30.2147C58.8611 30.9765 59.2181 31.869 59.9776 32.2062L63.7273 33.8594ZM68.5923 33.9294L68.5258 33.248L70.5348 31.3744C70.6265 31.277 70.6937 31.159 70.7307 31.0304C70.7676 30.9018 70.7733 30.7663 70.7473 30.635C70.7213 30.5038 70.6643 30.3806 70.5811 30.2759C70.4978 30.1711 70.3908 30.0877 70.2688 30.0327L67.7021 29.0725L67.5015 28.4099L69.1033 26.185C69.1744 26.0715 69.2174 25.9426 69.2285 25.8091C69.2397 25.6756 69.2188 25.5414 69.1675 25.4176C69.1163 25.2938 69.0361 25.1841 68.9338 25.0976C68.8315 25.0111 68.71 24.9503 68.5795 24.9204L65.8728 24.4794L65.5461 23.8727L66.6836 21.376C66.917 20.8674 66.4853 20.2175 65.9253 20.2385L63.1778 20.3342L62.7438 19.8092L63.3738 17.1329C63.3961 17.0008 63.3865 16.8653 63.3458 16.7377C63.3051 16.6101 63.2345 16.4941 63.1399 16.3993C63.0452 16.3046 62.9293 16.2338 62.8017 16.193C62.6742 16.1521 62.5387 16.1424 62.4066 16.1645L59.7303 16.7945L59.203 16.3605L59.2998 13.613C59.2958 13.4792 59.26 13.3482 59.1951 13.2311C59.1303 13.1139 59.0384 13.0139 58.9271 12.9395C58.8158 12.8651 58.6883 12.8183 58.5553 12.8032C58.4222 12.788 58.2875 12.8049 58.1623 12.8524L55.6656 13.991L55.059 13.6644L54.618 10.9577C54.5879 10.8273 54.5271 10.706 54.4407 10.6038C54.3543 10.5017 54.2447 10.4216 54.1211 10.3704C53.9975 10.3191 53.8635 10.2981 53.7301 10.3092C53.5967 10.3202 53.468 10.363 53.3545 10.4339L51.1378 12.0229L50.4763 11.8222L49.5161 9.25552C49.4612 9.13346 49.3779 9.02629 49.2732 8.94293C49.1685 8.85958 49.0454 8.80245 48.9141 8.77631C48.7829 8.75017 48.6472 8.75578 48.5186 8.79266C48.3899 8.82954 48.2719 8.89664 48.1745 8.98836L46.288 10.9962L45.6066 10.9297L44.16 8.59169C44.0823 8.48284 43.9797 8.39411 43.8608 8.3329C43.7418 8.27168 43.61 8.23975 43.4763 8.23975C43.3426 8.23975 43.2107 8.27168 43.0918 8.3329C42.9729 8.39411 42.8703 8.48284 42.7926 8.59169L41.346 10.9297L40.6646 10.9962L38.791 8.98602C38.6935 8.89431 38.5755 8.82721 38.4468 8.79033C38.3182 8.75344 38.1826 8.74784 38.0513 8.77398C37.92 8.80011 37.7969 8.85724 37.6922 8.9406C37.5875 9.02395 37.5042 9.13113 37.4493 9.25319L36.4891 11.8199L35.8265 12.0205L33.6098 10.4222C33.4963 10.3511 33.3674 10.3081 33.2339 10.2969C33.1004 10.2858 32.9661 10.3067 32.8424 10.358C32.7186 10.4092 32.6089 10.4894 32.5224 10.5917C32.4359 10.6939 32.3751 10.8155 32.3451 10.946L31.9041 13.6527L31.2975 13.9794L28.8008 12.8407C28.6756 12.7932 28.5409 12.7763 28.4078 12.7915C28.2748 12.8067 28.1473 12.8534 28.036 12.9278C27.9247 13.0023 27.8328 13.1022 27.768 13.2194C27.7031 13.3366 27.6672 13.4675 27.6633 13.6014L27.759 16.3489L27.2316 16.7829L24.5553 16.1529C24.4231 16.1305 24.2875 16.1401 24.1598 16.1809C24.0321 16.2216 23.916 16.2923 23.8212 16.3871C23.7264 16.4819 23.6557 16.598 23.615 16.7257C23.5742 16.8534 23.5646 16.989 23.587 17.1212L24.217 19.7975L23.7853 20.3225L21.0378 20.2269C20.4836 20.2105 20.0461 20.8569 20.2771 21.3644L21.4158 23.861L21.0891 24.4677L18.3825 24.9087C17.8341 24.9985 17.5343 25.7207 17.8575 26.1734L19.4593 28.3982L19.2586 29.0609L16.692 30.021C16.57 30.076 16.4629 30.1594 16.3797 30.2642C16.2965 30.369 16.2395 30.4921 16.2134 30.6233C16.1874 30.7546 16.1931 30.8902 16.2301 31.0188C16.2671 31.1474 16.3342 31.2653 16.426 31.3627L18.435 33.2364L18.3685 33.9177L16.0316 35.3644C15.9228 35.4421 15.8341 35.5446 15.7728 35.6636C15.7116 35.7825 15.6797 35.9143 15.6797 36.048C15.6797 36.1818 15.7116 36.3136 15.7728 36.4325C15.8341 36.5514 15.9228 36.654 16.0316 36.7317L18.3685 38.1784L18.435 38.8597L16.426 40.7334C16.3342 40.8308 16.2671 40.9487 16.2301 41.0773C16.1931 41.2059 16.1874 41.3414 16.2134 41.4727C16.2395 41.6039 16.2965 41.7271 16.3797 41.8319C16.4629 41.9366 16.57 42.02 16.692 42.075L19.2586 43.0352L19.4593 43.6979L17.8575 45.9227C17.7866 46.0362 17.7438 46.165 17.7328 46.2983C17.7218 46.4317 17.7427 46.5657 17.794 46.6893C17.8452 46.813 17.9253 46.9225 18.0274 47.009C18.1296 47.0954 18.2509 47.1561 18.3813 47.1862L21.088 47.6272L21.4146 48.2362L20.276 50.7329C20.2285 50.8581 20.2116 50.9928 20.2268 51.1258C20.2419 51.2589 20.2887 51.3863 20.3631 51.4977C20.4376 51.609 20.5375 51.7009 20.6547 51.7657C20.7718 51.8305 20.9028 51.8664 21.0366 51.8704L23.783 51.7735L24.217 52.3008L23.587 54.9784C23.565 55.1104 23.5749 55.2457 23.6159 55.3731C23.6568 55.5005 23.7276 55.6162 23.8223 55.7107C23.9171 55.8052 24.033 55.8758 24.1605 55.9164C24.288 55.957 24.4234 55.9666 24.5553 55.9444L27.2316 55.3144L27.759 55.746L27.6633 58.4947C27.6674 58.6284 27.7034 58.7593 27.7683 58.8763C27.8333 58.9933 27.9252 59.0931 28.0365 59.1674C28.1477 59.2417 28.2752 59.2883 28.4081 59.3034C28.5411 59.3185 28.6757 59.3016 28.8008 59.2542L31.2975 58.1167L31.9041 58.4434L32.3451 61.15C32.375 61.2807 32.4356 61.4023 32.5221 61.5048C32.6085 61.6072 32.7182 61.6875 32.842 61.7388C32.9658 61.7902 33.1001 61.8113 33.2336 61.8002C33.3672 61.789 33.4962 61.7461 33.6098 61.675L35.8346 60.072L36.4973 60.2738L37.4575 62.8405C37.5125 62.9625 37.5959 63.0695 37.7006 63.1528C37.8054 63.236 37.9285 63.293 38.0598 63.3191C38.191 63.3451 38.3266 63.3394 38.4552 63.3024C38.5838 63.2654 38.7017 63.1983 38.7991 63.1065L40.6728 61.0975L41.3541 61.1652L42.8008 63.502C43.0925 63.9734 43.8741 63.9745 44.1681 63.502L45.616 61.1629L46.2973 61.0952L48.171 63.1042C48.2684 63.1959 48.3863 63.2631 48.5149 63.3001C48.6435 63.337 48.779 63.3427 48.9103 63.3167C49.0416 63.2907 49.1647 63.2337 49.2695 63.1505C49.3742 63.0672 49.4576 62.9602 49.5126 62.8382L50.4728 60.2715L51.1355 60.0697L53.3603 61.6727C53.4739 61.7436 53.6027 61.7863 53.7362 61.7972C53.8696 61.8082 54.0037 61.7871 54.1273 61.7358C54.251 61.6844 54.3605 61.6042 54.4469 61.5019C54.5332 61.3996 54.5939 61.2782 54.6238 61.1477L55.0648 58.441L55.6715 58.1144L58.1681 59.2519C58.2932 59.2993 58.4279 59.3162 58.5608 59.3011C58.6938 59.286 58.8212 59.2393 58.9325 59.165C59.0438 59.0907 59.1357 58.9909 59.2006 58.8739C59.2655 58.7569 59.3015 58.6261 59.3056 58.4924L59.21 55.7437L59.7373 55.312L62.4136 55.942C62.5455 55.9641 62.6807 55.9543 62.808 55.9136C62.9354 55.8729 63.0511 55.8023 63.1457 55.7078C63.2403 55.6134 63.311 55.4977 63.3519 55.3704C63.3928 55.2431 63.4027 55.1079 63.3808 54.976L62.7508 52.2985L63.1825 51.7712L65.93 51.868C66.0637 51.8639 66.1945 51.8279 66.3115 51.763C66.4285 51.6981 66.5284 51.6061 66.6027 51.4949C66.677 51.3836 66.7236 51.2562 66.7387 51.1232C66.7538 50.9903 66.7369 50.8556 66.6895 50.7305L65.552 48.2339L65.8786 47.6249L68.5853 47.1839C68.7157 47.1538 68.837 47.093 68.9392 47.0066C69.0413 46.9202 69.1214 46.8106 69.1726 46.687C69.2239 46.5634 69.2448 46.4293 69.2338 46.296C69.2227 46.1626 69.18 46.0339 69.1091 45.9204L67.5073 43.6955L67.708 43.0329L70.2746 42.0727C70.3966 42.0177 70.5037 41.9343 70.5869 41.8295C70.6701 41.7248 70.7271 41.6016 70.7532 41.4704C70.7792 41.3391 70.7735 41.2035 70.7365 41.0749C70.6995 40.9463 70.6324 40.8284 70.5406 40.731L68.5316 38.8574L68.5981 38.176L70.935 36.7294C71.0438 36.6516 71.1325 36.5491 71.1938 36.4302C71.255 36.3112 71.2869 36.1794 71.2869 36.0457C71.2869 35.9119 71.255 35.7801 71.1938 35.6612C71.1325 35.5423 71.0438 35.4397 70.935 35.362L68.5923 33.9294ZM74.533 38.4444V28.7144H79.6663V30.308C79.6663 31.1636 79.6616 32.2494 79.6523 33.5654C79.643 34.8642 79.6383 35.7315 79.6383 36.167C79.6383 37.4472 79.6714 38.372 79.7375 38.9414C79.8036 39.5014 79.9175 39.9097 80.0793 40.1664C80.2877 40.4985 80.558 40.7544 80.8901 40.934C81.2324 41.1145 81.6212 41.2047 82.0568 41.2047C83.1192 41.2047 83.9538 40.7964 84.5605 39.9797C85.1671 39.163 85.4705 38.0298 85.4705 36.58V28.7132H90.563V44.6464H85.4576V42.3422C84.6892 43.2716 83.8737 43.9592 83.0111 44.4049C82.1579 44.8404 81.2141 45.0582 80.1796 45.0582C78.3394 45.0582 76.9394 44.4943 75.9796 43.3665C75.0214 42.2387 74.5423 40.5976 74.5423 38.4432L74.533 38.4444ZM107.921 29.2114V33.0812C106.83 32.6262 105.777 32.2847 104.762 32.0569C103.747 31.829 102.79 31.715 101.889 31.715C100.921 31.715 100.201 31.8383 99.7271 32.0849C99.2628 32.3221 99.0306 32.6915 99.0306 33.1932C99.0306 33.6007 99.2056 33.9138 99.5556 34.1324C99.9157 34.3501 100.556 34.5115 101.476 34.6165L102.372 34.7332C104.98 35.0653 106.735 35.6105 107.636 36.3689C108.537 37.1272 108.987 38.3172 108.987 39.9389C108.987 41.6367 108.365 42.9123 107.12 43.7655C105.876 44.6187 104.008 45.0454 101.516 45.0454C100.463 45.0454 99.3717 44.9598 98.2431 44.7887C97.1231 44.6277 95.9708 44.3811 94.7863 44.049V40.1792C95.8013 40.6723 96.8396 41.0417 97.9013 41.2875C98.9731 41.5341 100.059 41.6574 101.159 41.6574C102.154 41.6574 102.904 41.5197 103.407 41.2444C103.909 40.969 104.16 40.5607 104.16 40.0194C104.16 39.5644 103.985 39.2276 103.635 39.009C103.293 38.7811 102.606 38.6061 101.573 38.484L100.677 38.3697C98.4103 38.085 96.8217 37.5585 95.911 36.79C95.001 36.0216 94.546 34.8549 94.546 33.29C94.546 31.6022 95.1246 30.35 96.282 29.5334C97.4393 28.7167 99.2126 28.3084 101.602 28.3084C102.541 28.3084 103.527 28.3795 104.561 28.5219C105.595 28.6642 106.723 28.887 107.944 29.1904L107.921 29.2114ZM118.393 24.1889V28.7132H123.643V32.3555H118.393V39.1129C118.393 39.8517 118.54 40.3546 118.834 40.6214C119.128 40.878 119.711 41.0064 120.584 41.0064H123.202V44.6487H118.835C116.824 44.6487 115.397 44.2314 114.553 43.3969C113.719 42.553 113.301 41.1257 113.301 39.1152V32.3462H110.77V28.7039H113.301V24.1795H118.394L118.393 24.1889Z" fill="black"/>
</svg>
