<svg width="58" height="58" viewBox="0 0 58 58" fill="none" xmlns="http://www.w3.org/2000/svg">
<path d="M47.3251 10.6478C48.9201 12.2404 48.9201 14.8238 47.3251 16.4164C45.7301 18.009 43.1467 18.009 41.5517 16.4164C39.9567 14.8238 39.9567 12.2404 41.5517 10.6478C43.1467 9.05525 45.7301 9.05525 47.3251 10.6478" stroke="#231D36" stroke-width="1.5" stroke-linecap="round" stroke-linejoin="round"/>
<path d="M10.708 47.3522C9.11297 45.7596 9.11297 43.1762 10.708 41.5836C12.303 39.991 14.8864 39.991 16.4814 41.5836C18.0764 43.1762 18.0764 45.7596 16.4814 47.3522C14.8864 48.9447 12.3006 48.9447 10.708 47.3522" stroke="#231D36" stroke-width="1.5" stroke-linecap="round" stroke-linejoin="round"/>
<path d="M16.7734 46.9993C25.2463 52.7558 36.8753 51.8907 44.3887 44.3845C48.6396 40.136 50.7663 34.568 50.7663 29C50.7663 27.7143 50.6889 26.4311 50.4618 25.1623" stroke="#231D36" stroke-width="1.5" stroke-linecap="round" stroke-linejoin="round"/>
<path d="M7.57012 32.8377C7.34296 31.5689 7.26562 30.2857 7.26562 29C7.26562 23.432 9.39229 17.864 13.6432 13.6155C21.1542 6.10933 32.7856 5.24417 41.2585 11.0007" stroke="#231D36" stroke-width="1.5" stroke-linecap="round" stroke-linejoin="round"/>
<path fill-rule="evenodd" clip-rule="evenodd" d="M29 38.0625C29 38.0625 36.25 34.5849 36.25 29.3698V23.3909L30.9623 21.489C29.6912 21.0323 28.304 21.0323 27.0328 21.489L21.75 23.3909V29.3698C21.75 34.5849 29 38.0625 29 38.0625Z" stroke="#231D36" stroke-width="1.5" stroke-linecap="round" stroke-linejoin="round"/>
</svg>
