<svg width="58" height="58" viewBox="0 0 58 58" fill="none" xmlns="http://www.w3.org/2000/svg">
<path d="M18.9698 18.6929C19.3227 19.0458 19.3227 19.6209 18.9698 19.9738C18.617 20.3266 18.0418 20.3266 17.689 19.9738C17.3362 19.6209 17.3362 19.0458 17.689 18.6929C18.0418 18.3377 18.6146 18.3377 18.9698 18.6929" stroke="#231D36" stroke-width="1.5" stroke-linecap="round" stroke-linejoin="round"/>
<path d="M29.6417 18.6929C29.9946 19.0458 29.9946 19.6209 29.6417 19.9738C29.2889 20.3266 28.7137 20.3266 28.3609 19.9738C28.0081 19.6209 28.0081 19.0458 28.3609 18.6929C28.7137 18.3377 29.2889 18.3377 29.6417 18.6929" stroke="#231D36" stroke-width="1.5" stroke-linecap="round" stroke-linejoin="round"/>
<path d="M40.3136 18.6929C40.6664 19.0458 40.6664 19.6209 40.3136 19.9738C39.9608 20.3266 39.3856 20.3266 39.0328 19.9738C38.6799 19.6209 38.6799 19.0458 39.0328 18.6929C39.3856 18.3377 39.9583 18.3377 40.3136 18.6929" stroke="#231D36" stroke-width="1.5" stroke-linecap="round" stroke-linejoin="round"/>
<path d="M21.75 31.4167H12.0833C9.41292 31.4167 7.25 29.2537 7.25 26.5833V12.0833C7.25 9.41292 9.41292 7.25 12.0833 7.25H45.9167C48.5871 7.25 50.75 9.41292 50.75 12.0833V19.3333" stroke="#231D36" stroke-width="1.5" stroke-linecap="round" stroke-linejoin="round"/>
<path fill-rule="evenodd" clip-rule="evenodd" d="M30.0508 41.5401C30.0508 45.9263 36.1939 49.184 39.0142 50.4503C39.9035 50.8491 40.8968 50.8491 41.7861 50.4503C44.6064 49.184 50.7495 45.9263 50.7495 41.5401V33.8261C50.7495 32.3712 49.836 31.0735 48.4682 30.5805L43.2023 28.6858C41.3898 28.0333 39.4033 28.0333 37.5908 28.6858L32.3321 30.5781C30.9643 31.0711 30.0508 32.3688 30.0508 33.8237L30.0508 41.5401Z" stroke="#231D36" stroke-width="1.5" stroke-linecap="round" stroke-linejoin="round"/>
</svg>
