<svg width="120" height="61" viewBox="0 0 120 61" fill="none" xmlns="http://www.w3.org/2000/svg">
<path d="M46.9562 20.7206C46.9562 19.8363 46.8716 18.9542 46.7034 18.0876C46.3918 16.3091 45.5607 14.6791 44.3294 13.4276C43.7023 12.773 42.9756 12.2404 42.1753 11.8543C41.3948 11.442 40.5656 11.1555 39.7127 11.0032C38.8666 10.8279 37.9309 10.8279 37.0849 10.748H16.1776C15.5262 10.7607 14.8763 10.8192 14.2316 10.9234C13.5895 11.001 12.9604 11.1752 12.3632 11.436L11.7699 11.6912C11.2036 12.0073 10.6631 12.3778 10.1544 12.7985C9.98918 12.9738 9.81399 13.0537 9.64875 13.2179C9.02137 13.8144 8.49625 14.5328 8.09892 15.3382C7.68085 16.1304 7.39418 16.9936 7.25283 17.8902C7.12708 18.7585 7.04269 19.6337 7 20.512V40.8221C7 41.7064 7.08461 42.5885 7.25283 43.455C7.56439 45.2336 8.39555 46.8635 9.62685 48.1151C10.246 48.7475 10.9637 49.2657 11.747 49.6418C12.5276 50.0541 13.3568 50.3406 14.2097 50.4928C15.0557 50.6682 15.9914 50.6682 16.8375 50.748H37.1277C38.0086 50.7469 38.8895 50.6615 39.7555 50.4928C40.5956 50.3375 41.4109 50.0568 42.1743 49.654C42.9651 49.2568 43.7046 48.7434 44.3731 48.1273C44.9973 47.5226 45.5149 46.8036 45.9011 46.0081C46.3192 45.2159 46.6058 44.3527 46.7472 43.4562C46.8733 42.5841 46.9577 41.7052 47 40.8232V20.7206H46.9562Z" fill="#F05138"/>
<path d="M33.9057 40.6152C30.3277 42.4752 25.4137 42.6632 20.4757 40.7622C16.6257 39.2892 13.3277 36.7492 11.0117 33.4742C12.0917 34.2412 13.2667 34.8762 14.5117 35.3742C19.6137 37.4742 24.7267 37.3802 28.3157 35.3742C23.5777 31.9462 19.3117 27.9662 15.6157 23.5282C14.9757 22.8842 14.4057 22.1802 13.9157 21.4282C17.7957 24.5282 21.9257 27.3382 26.2617 29.8302C23.1017 26.7832 20.1957 23.5072 17.5717 20.0322C21.9517 24.0272 26.7617 27.5682 31.9277 30.5972L32.4797 30.8912C32.6292 30.549 32.7584 30.1984 32.8667 29.8412C34.0597 25.9342 32.7007 21.4912 29.7197 17.8162C36.6217 21.5662 40.7077 28.6122 39.0067 34.5142C39.0067 34.6722 38.9187 34.8292 38.8627 34.9872L38.9177 35.0502C42.3297 38.8832 41.3917 42.9372 40.9607 42.1702C39.0947 38.9672 35.6377 39.9542 33.9037 40.6262L33.9057 40.6152Z" fill="#FEFEFE"/>
<path d="M107.192 26.9561H100.49V26.1401C100.49 25.4901 100.55 24.8401 100.602 24.1781C100.645 23.6059 100.803 23.0483 101.066 22.5381C101.299 22.0981 101.636 21.7241 102.046 21.4451C102.573 21.1473 103.171 20.9973 103.776 21.0111C104.146 21.0121 104.514 21.0496 104.877 21.1231L105.627 21.3931L106.091 20.3001C105.794 20.1631 105.486 20.053 105.17 19.9711C104.756 19.8551 104.327 19.8011 103.897 19.8061C103.097 19.7811 102.303 19.9501 101.583 20.3001C100.967 20.6301 100.433 21.0961 100.025 21.6631C99.6442 22.2873 99.3708 22.9707 99.2158 23.6851C99.0478 24.5101 98.9698 25.3511 98.9838 26.1951V27.0111H96.7998V28.1041H98.9938V41.3181H100.492V28.0481H107.194V37.1081C107.189 37.7141 107.246 38.3181 107.366 38.9131C107.433 39.4194 107.609 39.9051 107.883 40.3361C108.13 40.7421 108.483 41.0661 108.923 41.2661C109.468 41.5014 110.059 41.6137 110.653 41.5951C111.343 41.6221 112.03 41.5101 112.675 41.2651L112.518 40.2021C112.288 40.2701 112.058 40.3251 111.822 40.3671C111.497 40.4151 111.169 40.4326 110.841 40.4191C110.521 40.4481 110.198 40.3945 109.905 40.2634C109.611 40.1322 109.356 39.928 109.164 39.6701C108.827 38.9921 108.668 38.2401 108.7 37.4831V28.1001H112.938V27.0141H108.722V23.8481L107.224 24.2821L107.192 26.9561ZM54.8918 39.1321C55.5314 39.5516 56.2344 39.8653 56.9738 40.0611C57.7808 40.3031 58.6178 40.4311 59.4598 40.4431C60.7918 40.5251 62.1068 40.1171 63.1598 39.2971C64.0198 38.5421 64.5048 37.4471 64.4848 36.3021C64.5248 35.2801 64.1728 34.2821 63.5048 33.5091C62.5829 32.6265 61.4786 31.9568 60.2698 31.5471C58.8336 31.1056 57.4997 30.3825 56.3458 29.4201C55.8711 28.9967 55.4955 28.4739 55.2458 27.8888C54.996 27.3038 54.8782 26.6709 54.9008 26.0351C54.9043 25.3351 55.0627 24.6446 55.3648 24.0131C55.6745 23.4036 56.1081 22.8654 56.6378 22.4331C57.1947 21.9563 57.8453 21.6017 58.5478 21.3921C59.3279 21.1236 60.149 20.9943 60.9738 21.0101C61.8278 21.0031 62.6788 21.0941 63.5138 21.2801C64.0542 21.4199 64.5769 21.6209 65.0718 21.8791L64.4948 23.0771C64.0628 22.8141 63.5968 22.6121 63.1098 22.4771C62.384 22.2448 61.6248 22.1337 60.8628 22.1481C60.1374 22.1276 59.4143 22.2391 58.7288 22.4771C58.195 22.6686 57.7058 22.9666 57.2908 23.3531C56.9688 23.7031 56.7148 24.1091 56.5408 24.5511C56.3801 24.9507 56.3012 25.3785 56.3088 25.8091C56.2648 26.8071 56.6428 27.7771 57.3488 28.4821C58.3268 29.2941 59.4428 29.9221 60.6438 30.3391C61.4241 30.6354 62.1761 31.0012 62.8908 31.4321C63.4938 31.7981 64.0558 32.2271 64.5678 32.7121C64.9943 33.1388 65.3282 33.6487 65.5488 34.2101C65.7835 34.8373 65.9001 35.5025 65.8928 36.1721C65.8986 36.9007 65.7613 37.6234 65.4888 38.2991C65.2159 38.9721 64.7932 39.574 64.2528 40.0591C63.6412 40.5871 62.9346 40.9937 62.1708 41.2571C61.2368 41.5571 60.2708 41.7031 59.2808 41.6911C58.8168 41.6811 58.3548 41.6431 57.8958 41.5791C57.4294 41.5154 56.967 41.4253 56.5108 41.3091C56.0758 41.1981 55.6501 41.053 55.2378 40.8751C54.8938 40.7451 54.5648 40.5801 54.2578 40.3811L54.8918 39.1321ZM68.7458 27.0161L71.2318 35.1481L71.9278 37.4981C72.1598 38.2081 72.3318 38.9961 72.5048 39.6251H72.6168L73.2538 37.4981L74.0638 35.1481L76.9838 27.0161H78.3688L81.1988 35.0361L82.0088 37.4921L82.6458 39.6191H82.7578L83.3348 37.4921L84.0848 35.0881L86.7208 27.0151H88.2188L83.2498 41.3181H82.0668L79.2288 33.3431C78.9395 32.4765 78.6495 31.6578 78.3588 30.8871L77.7218 28.4831H77.6618C77.454 29.314 77.204 30.1337 76.9128 30.9391C76.6235 31.7031 76.3335 32.5218 76.0428 33.3951L73.1078 41.3181H71.8398L67.2398 27.0151L68.7458 27.0161ZM91.4428 27.0161H92.9408V41.3181H91.4428V27.0161ZM90.8658 22.6501C90.8618 22.3121 90.9958 21.9881 91.2358 21.7501C91.4758 21.5121 91.8018 21.3831 92.1398 21.3901C92.4758 21.3972 92.7971 21.5293 93.0408 21.7607C93.2845 21.992 93.4332 22.306 93.4578 22.6411C93.4593 22.8079 93.4238 22.973 93.354 23.1244C93.2841 23.2759 93.1816 23.41 93.0538 23.5171C92.7988 23.7371 92.4698 23.8551 92.1338 23.8471C91.7987 23.8434 91.4744 23.7276 91.2128 23.5181C90.9828 23.2831 90.8528 22.9701 90.8458 22.6421L90.8658 22.6501Z" fill="#221F20"/>
</svg>
