<svg width="58" height="58" viewBox="0 0 58 58" fill="none" xmlns="http://www.w3.org/2000/svg">
<path d="M14.4961 24.1647V12.0763C14.4961 9.40583 16.661 7.24097 19.3314 7.24097H45.9259C48.5963 7.24097 50.7612 9.40583 50.7612 12.0763V45.9237C50.7612 48.5942 48.5963 50.7591 45.9259 50.7591H36.2552" stroke="#231D36" stroke-width="1.7" stroke-linecap="round" stroke-linejoin="round"/>
<path d="M24.1641 16.9117H41.0878" stroke="#231D36" stroke-width="1.7" stroke-linecap="round" stroke-linejoin="round"/>
<path d="M29 26.5824H41.0884" stroke="#231D36" stroke-width="1.7" stroke-linecap="round" stroke-linejoin="round"/>
<path d="M41.0893 36.253H36.2539" stroke="#231D36" stroke-width="1.7" stroke-linecap="round" stroke-linejoin="round"/>
<path fill-rule="evenodd" clip-rule="evenodd" d="M11.9349 50.6988H8.59367C8.23523 50.6988 7.89148 50.5564 7.63803 50.303C7.38458 50.0495 7.24219 49.7058 7.24219 49.3473V49.3473V38.7531C7.24219 38.3947 7.38458 38.0509 7.63803 37.7975C7.89148 37.544 8.23523 37.4016 8.59367 37.4016H11.9349C12.2998 37.4073 12.6474 37.5578 12.9013 37.8199C13.1552 38.0819 13.2946 38.4342 13.2888 38.799V49.4368C13.2499 50.1529 12.652 50.7103 11.9349 50.6988V50.6988Z" stroke="#231D36" stroke-width="1.7" stroke-linecap="round" stroke-linejoin="round"/>
<path d="M13.2852 40.2665L17.753 32.9724C18.5163 31.7309 20.0101 31.1459 21.4134 31.5389C22.8168 31.9318 23.7896 33.2075 23.7972 34.6648V38.533H27.4479C28.545 38.5335 29.5689 39.0836 30.175 39.9981C30.7144 40.809 30.8708 41.8156 30.603 42.7519L28.8332 48.9459C28.5336 49.9901 27.5792 50.7099 26.4929 50.7109H17.8352C17.1292 50.7109 16.4452 50.4645 15.9011 50.0146L13.2852 47.8387" stroke="#231D36" stroke-width="1.7" stroke-linecap="round" stroke-linejoin="round"/>
</svg>
