<svg width="58" height="58" viewBox="0 0 58 58" fill="none" xmlns="http://www.w3.org/2000/svg">
<path fill-rule="evenodd" clip-rule="evenodd" d="M43.5 48.3333H14.5C10.4956 48.3333 7.25 45.0877 7.25 41.0833V14.5C7.25 11.8296 9.41292 9.66666 12.0833 9.66666H45.9167C48.5871 9.66666 50.75 11.8296 50.75 14.5V41.0833C50.75 45.0877 47.5044 48.3333 43.5 48.3333Z" stroke="#231D36" stroke-width="1.5" stroke-linecap="round" stroke-linejoin="round"/>
<path d="M50.75 27.7917H42.2917C41.0108 27.7917 39.7808 28.3016 38.8745 29.2078L36.8735 31.2088C35.9673 32.1151 34.7372 32.625 33.4563 32.625H25.9623C24.6814 32.625 23.4513 32.1151 22.5451 31.2088L20.5417 29.2078C19.6354 28.3016 18.4053 27.7917 17.1245 27.7917H7.25" stroke="#231D36" stroke-width="1.5" stroke-linecap="round" stroke-linejoin="round"/>
<path d="M50.75 19.3333H7.25" stroke="#231D36" stroke-width="1.5" stroke-linecap="round" stroke-linejoin="round"/>
</svg>
