<svg width="136" height="61" viewBox="0 0 136 61" fill="none" xmlns="http://www.w3.org/2000/svg">
<g clip-path="url(#clip0_1166_9270)">
<path d="M30.9686 19.9506V15.5263C30.9686 13.9203 29.9989 12.496 28.5141 11.8597L1.08984 0.556641V3.01119L25.5444 13.1021C26.3929 13.4354 26.3929 14.6476 25.5444 14.9809L1.08984 25.0718V34.9203L15.8171 28.8294L25.5141 32.8294C26.3626 33.1627 26.3626 34.3748 25.5141 34.7082L1.08984 44.7991V60.4051L28.5141 49.1021C29.9989 48.496 30.9686 47.0415 30.9686 45.4354V35.2839C30.9686 33.6778 29.9989 32.2536 28.5141 31.6172L18.7868 27.6172L28.5141 23.6172C29.9989 23.0112 30.9686 21.5566 30.9686 19.9506Z" fill="black"/>
<path d="M44.9107 22.6477L49.2138 39.4053L54.032 22.6477H58.638L63.1835 39.4053L67.6683 22.6477H71.0623L65.2744 42.8598H60.9714L56.2138 25.4356L51.2744 42.8598H46.9107L41.3047 22.6477H44.9107Z" fill="black"/>
<path d="M76.2457 33.7385C76.367 35.4052 76.5488 36.2537 77.0942 37.3143C78.0942 39.2234 80.3669 40.4658 82.6397 40.4658C85.3972 40.4658 87.1851 39.1628 87.9427 36.587H91.7003C90.7609 40.9507 87.4579 43.3749 82.5791 43.3749C76.4882 43.3749 72.6094 39.1931 72.6094 32.6476C72.6094 26.2537 76.4882 21.981 82.276 21.981C88.4276 21.981 91.7609 26.1628 91.7609 33.6779H76.2457V33.7385ZM87.0942 27.5567C86.1548 25.9507 84.2457 24.981 82.276 24.981C78.8821 24.981 76.7306 27.1325 76.3063 31.0113H88.0639C87.8821 29.2234 87.6397 28.3749 87.0942 27.5567Z" fill="black"/>
<path d="M95.1514 14.9507H98.6059V25.678C100.03 23.284 102 22.1628 104.879 22.1628C109.879 22.1628 113.454 26.5264 113.454 32.7689C113.454 39.0113 110.06 43.2537 104.909 43.2537C102.091 43.2537 100.242 42.1325 98.4544 39.4961V42.8295H95.1211V14.9507H95.1514ZM98.6666 32.678C98.6666 37.1022 101.182 40.3749 104.454 40.3749C107.606 40.3749 109.697 37.4052 109.697 32.7992C109.697 27.981 107.606 24.981 104.333 24.981C101.06 24.981 98.6666 28.1325 98.6666 32.678Z" fill="black"/>
<path d="M119.73 34.3446C119.669 37.9203 121.942 40.2537 125.518 40.2537C128.73 40.2537 131.063 38.2234 131.063 35.4355C131.063 32.587 128.851 30.8294 125.275 30.8294C124.912 30.8294 124.609 30.8294 124.094 30.89V27.7991C124.518 27.7991 124.76 27.7991 125.003 27.7991C128.7 27.7991 130.851 26.1931 130.851 23.3143C130.851 20.6173 128.76 18.89 125.609 18.89C122.215 18.89 120.245 20.9203 120.124 24.4961H116.427C116.669 18.9506 120.063 15.7385 125.669 15.7385C130.851 15.7385 134.488 18.7082 134.488 23.0112C134.488 25.8597 132.457 28.4961 129.73 29.2234C133.063 30.0719 134.851 32.3143 134.851 35.6779C134.851 40.2234 130.972 43.4355 125.488 43.4355C119.76 43.4355 115.882 39.7385 115.942 34.3749C115.912 34.3446 119.73 34.3446 119.73 34.3446Z" fill="black"/>
</g>
<defs>
<clipPath id="clip0_1166_9270">
<rect width="134.242" height="60" fill="white" transform="translate(0.878906 0.496094)"/>
</clipPath>
</defs>
</svg>
