<svg width="35" height="35" viewBox="0 0 35 35" fill="none" xmlns="http://www.w3.org/2000/svg">
<path d="M13.6719 24.0625H21.3281V25.1562H13.6719V24.0625Z" fill="#3E3465"/>
<path d="M11.4844 24.0625H12.5781V25.1562H11.4844V24.0625Z" fill="#3E3465"/>
<path d="M33.3594 3.28125H25.7031V2.73438C25.7018 2.29965 25.5286 1.88311 25.2212 1.57571C24.9138 1.26832 24.4972 1.09505 24.0625 1.09375H10.9375C10.5028 1.09505 10.0862 1.26832 9.77884 1.57571C9.47144 1.88311 9.29817 2.29965 9.29688 2.73438V4.92188H1.64062C1.49558 4.92188 1.35648 4.97949 1.25393 5.08205C1.15137 5.18461 1.09375 5.32371 1.09375 5.46875V12.0312C1.09375 12.1763 1.15137 12.3154 1.25393 12.4179C1.35648 12.5205 1.49558 12.5781 1.64062 12.5781H9.29688V13.6719C8.57167 13.6719 7.87617 13.96 7.36338 14.4728C6.85058 14.9855 6.5625 15.681 6.5625 16.4062V18.643L7.65625 30.1V33.3594C7.65625 33.5044 7.71387 33.6435 7.81643 33.7461C7.91898 33.8486 8.05808 33.9062 8.20312 33.9062H20.2344C20.3794 33.9062 20.5185 33.8486 20.6211 33.7461C20.7236 33.6435 20.7812 33.5044 20.7812 33.3594V30.2531L22.8156 27.3438H24.0625C24.4972 27.3425 24.9138 27.1692 25.2212 26.8618C25.5286 26.5544 25.7018 26.1378 25.7031 25.7031V25.1562H26.25C26.6952 25.1578 27.1302 25.0231 27.4965 24.77C27.8628 24.517 28.1428 24.1578 28.2988 23.7409C28.4549 23.3239 28.4795 22.8692 28.3694 22.4379C28.2592 22.0065 28.0196 21.6192 27.6828 21.3281C27.9195 21.1253 28.1095 20.8736 28.2398 20.5904C28.37 20.3072 28.4375 19.9992 28.4375 19.6875C28.4375 19.3758 28.37 19.0678 28.2398 18.7846C28.1095 18.5014 27.9195 18.2497 27.6828 18.0469C27.9195 17.844 28.1095 17.5924 28.2398 17.3092C28.37 17.026 28.4375 16.718 28.4375 16.4062C28.4375 16.0945 28.37 15.7865 28.2398 15.5033C28.1095 15.2201 27.9195 14.9685 27.6828 14.7656C28.0196 14.4745 28.2592 14.0872 28.3694 13.6559C28.4795 13.2245 28.4549 12.7698 28.2988 12.3529C28.1428 11.9359 27.8628 11.5768 27.4965 11.3237C27.1302 11.0707 26.6952 10.9359 26.25 10.9375H25.7031V9.84375H33.3594C33.5044 9.84375 33.6435 9.78613 33.7461 9.68357C33.8486 9.58102 33.9062 9.44192 33.9062 9.29688V3.82812C33.9062 3.68308 33.8486 3.54399 33.7461 3.44143C33.6435 3.33887 33.5044 3.28125 33.3594 3.28125ZM21.7219 2.1875L21.5523 2.86562C21.523 2.98419 21.4549 3.08953 21.3587 3.16485C21.2626 3.24018 21.144 3.28116 21.0219 3.28125H13.9781C13.856 3.28116 13.7374 3.24018 13.6413 3.16485C13.5451 3.08953 13.477 2.98419 13.4477 2.86562L13.2781 2.1875H21.7219ZM2.1875 11.4844V6.01562H12.0312V11.4844H2.1875ZM19.6875 32.8125H8.75V30.625H19.6875V32.8125ZM19.95 29.5312H8.70078L7.65625 18.5938V16.4062C7.65755 15.9715 7.83082 15.555 8.13821 15.2476C8.44561 14.9402 8.86215 14.7669 9.29688 14.7656H13.125C13.5601 14.7656 13.9774 14.9385 14.2851 15.2462C14.5928 15.5538 14.7656 15.9711 14.7656 16.4062C14.7656 16.8414 14.5928 17.2587 14.2851 17.5663C13.9774 17.874 13.5601 18.0469 13.125 18.0469H9.84375C9.69871 18.0469 9.55961 18.1045 9.45705 18.2071C9.35449 18.3096 9.29688 18.4487 9.29688 18.5938V25.7031C9.29817 26.1378 9.47144 26.5544 9.77884 26.8618C10.0862 27.1692 10.5028 27.3425 10.9375 27.3438H21.4812L19.95 29.5312ZM24.6094 25.7031C24.6094 25.8482 24.5518 25.9873 24.4492 26.0898C24.3466 26.1924 24.2075 26.25 24.0625 26.25H10.9375C10.7925 26.25 10.6534 26.1924 10.5508 26.0898C10.4482 25.9873 10.3906 25.8482 10.3906 25.7031V19.1406H13.125C13.8502 19.1406 14.5457 18.8525 15.0585 18.3397C15.5713 17.827 15.8594 17.1315 15.8594 16.4062C15.8594 15.681 15.5713 14.9855 15.0585 14.4728C14.5457 13.96 13.8502 13.6719 13.125 13.6719H10.3906V12.5781H12.5781C12.7232 12.5781 12.8623 12.5205 12.9648 12.4179C13.0674 12.3154 13.125 12.1763 13.125 12.0312V5.46875C13.125 5.32371 13.0674 5.18461 12.9648 5.08205C12.8623 4.97949 12.7232 4.92188 12.5781 4.92188H10.3906V2.73438C10.3906 2.58933 10.4482 2.45024 10.5508 2.34768C10.6534 2.24512 10.7925 2.1875 10.9375 2.1875H12.1516L12.3867 3.13359C12.4757 3.48827 12.6806 3.80306 12.9689 4.02797C13.2573 4.25288 13.6125 4.37502 13.9781 4.375H21.0219C21.3875 4.37502 21.7427 4.25288 22.0311 4.02797C22.3194 3.80306 22.5243 3.48827 22.6133 3.13359L22.8484 2.1875H24.0625C24.2075 2.1875 24.3466 2.24512 24.4492 2.34768C24.5518 2.45024 24.6094 2.58933 24.6094 2.73438V3.28125H23.5156C23.3706 3.28125 23.2315 3.33887 23.1289 3.44143C23.0264 3.54399 22.9688 3.68308 22.9688 3.82812V9.29688C22.9688 9.44192 23.0264 9.58102 23.1289 9.68357C23.2315 9.78613 23.3706 9.84375 23.5156 9.84375H24.6094V10.9375H24.0625C23.6173 10.9359 23.1823 11.0707 22.816 11.3237C22.4497 11.5768 22.1697 11.9359 22.0137 12.3529C21.8576 12.7698 21.833 13.2245 21.9431 13.6559C22.0533 14.0872 22.2929 14.4745 22.6297 14.7656C22.393 14.9685 22.203 15.2201 22.0727 15.5033C21.9425 15.7865 21.875 16.0945 21.875 16.4062C21.875 16.718 21.9425 17.026 22.0727 17.3092C22.203 17.5924 22.393 17.844 22.6297 18.0469C22.393 18.2497 22.203 18.5014 22.0727 18.7846C21.9425 19.0678 21.875 19.3758 21.875 19.6875C21.875 19.9992 21.9425 20.3072 22.0727 20.5904C22.203 20.8736 22.393 21.1253 22.6297 21.3281C22.2929 21.6192 22.0533 22.0065 21.9431 22.4379C21.833 22.8692 21.8576 23.3239 22.0137 23.7409C22.1697 24.1578 22.4497 24.517 22.816 24.77C23.1823 25.0231 23.6173 25.1578 24.0625 25.1562H24.6094V25.7031ZM26.25 24.0625H24.0625C23.7724 24.0625 23.4942 23.9473 23.2891 23.7421C23.084 23.537 22.9688 23.2588 22.9688 22.9688C22.9688 22.6787 23.084 22.4005 23.2891 22.1954C23.4942 21.9902 23.7724 21.875 24.0625 21.875H26.25C26.5401 21.875 26.8183 21.9902 27.0234 22.1954C27.2285 22.4005 27.3438 22.6787 27.3438 22.9688C27.3438 23.2588 27.2285 23.537 27.0234 23.7421C26.8183 23.9473 26.5401 24.0625 26.25 24.0625ZM26.25 20.7812H24.0625C23.7724 20.7812 23.4942 20.666 23.2891 20.4609C23.084 20.2558 22.9688 19.9776 22.9688 19.6875C22.9688 19.3974 23.084 19.1192 23.2891 18.9141C23.4942 18.709 23.7724 18.5938 24.0625 18.5938H26.25C26.5401 18.5938 26.8183 18.709 27.0234 18.9141C27.2285 19.1192 27.3438 19.3974 27.3438 19.6875C27.3438 19.9776 27.2285 20.2558 27.0234 20.4609C26.8183 20.666 26.5401 20.7812 26.25 20.7812ZM26.25 17.5H24.0625C23.7724 17.5 23.4942 17.3848 23.2891 17.1796C23.084 16.9745 22.9688 16.6963 22.9688 16.4062C22.9688 16.1162 23.084 15.838 23.2891 15.6329C23.4942 15.4277 23.7724 15.3125 24.0625 15.3125H26.25C26.5401 15.3125 26.8183 15.4277 27.0234 15.6329C27.2285 15.838 27.3438 16.1162 27.3438 16.4062C27.3438 16.6963 27.2285 16.9745 27.0234 17.1796C26.8183 17.3848 26.5401 17.5 26.25 17.5ZM26.25 12.0312C26.5401 12.0312 26.8183 12.1465 27.0234 12.3516C27.2285 12.5567 27.3438 12.8349 27.3438 13.125C27.3438 13.4151 27.2285 13.6933 27.0234 13.8984C26.8183 14.1035 26.5401 14.2188 26.25 14.2188H24.0625C23.7724 14.2188 23.4942 14.1035 23.2891 13.8984C23.084 13.6933 22.9688 13.4151 22.9688 13.125C22.9688 12.8349 23.084 12.5567 23.2891 12.3516C23.4942 12.1465 23.7724 12.0312 24.0625 12.0312H26.25ZM32.8125 8.75H24.0625V4.375H32.8125V8.75Z" fill="#3E3465"/>
<path d="M3.28125 7.10938H4.375V8.20312H3.28125V7.10938Z" fill="#3E3465"/>
<path d="M5.46875 7.10938H10.9375V8.20312H5.46875V7.10938Z" fill="#3E3465"/>
<path d="M3.28125 9.29688H10.9375V10.3906H3.28125V9.29688Z" fill="#3E3465"/>
<path d="M25.1562 6.01562H27.3438V7.10938H25.1562V6.01562Z" fill="#3E3465"/>
<path d="M28.4375 6.01562H31.7188V7.10938H28.4375V6.01562Z" fill="#3E3465"/>
</svg>
