<svg xmlns="http://www.w3.org/2000/svg" xmlns:xlink="http://www.w3.org/1999/xlink" width="36" height="37" fill="none" xmlns:v="https://vecta.io/nano"><g fill="#3e3465"><path d="M12.817 22.341l1.085 1.082a.96.96 0 0 0 1.359 0l.679-.677.333.138v.957a.96.96 0 0 0 .961.958h1.534a.96.96 0 0 0 .961-.958v-.957l.333-.138.679.677c.374.373.984.373 1.358 0l1.085-1.082a.96.96 0 0 0 0-1.355l-.679-.677.138-.332h.96a.96.96 0 0 0 .961-.958v-1.53a.96.96 0 0 0-.961-.958h-.96l-.138-.332.679-.677a.96.96 0 0 0 0-1.355l-1.085-1.082c-.374-.374-.984-.373-1.358 0l-.679.677-.333-.138v-.957a.96.96 0 0 0-.961-.958h-1.534a.96.96 0 0 0-.961.958v.957l-.333.138-.679-.677a.96.96 0 0 0-1.359 0l-1.085 1.082a.96.96 0 0 0 0 1.355l.679.677-.138.332h-.96a.96.96 0 0 0-.961.958v1.53a.96.96 0 0 0 .961.958h.96l.138.332-.679.677a.96.96 0 0 0 0 1.355zm.607-3.416h-.932v-1.342h.932a.96.96 0 0 0 .904-.634 3.89 3.89 0 0 1 .15-.361c.173-.364.097-.8-.189-1.086l-.659-.657.952-.949.659.657a.96.96 0 0 0 1.089.189 3.89 3.89 0 0 1 .362-.149.96.96 0 0 0 .636-.901v-.93h1.346v.93a.96.96 0 0 0 .636.901l.362.15a.96.96 0 0 0 1.089-.189l.659-.657.952.949-.659.657c-.286.286-.362.722-.189 1.086a3.92 3.92 0 0 1 .15.361.96.96 0 0 0 .904.634h.932v1.342h-.932a.96.96 0 0 0-.904.634 3.86 3.86 0 0 1-.15.361c-.173.364-.097.8.189 1.086l.659.657-.952.949-.659-.658c-.286-.285-.724-.361-1.089-.188a3.88 3.88 0 0 1-.362.149.96.96 0 0 0-.636.901v.93h-1.346v-.93a.96.96 0 0 0-.636-.901l-.362-.15a.96.96 0 0 0-1.089.189l-.659.657-.952-.949.659-.658c.286-.286.362-.722.189-1.086a3.87 3.87 0 0 1-.15-.361.96.96 0 0 0-.904-.634zM18 21.061c1.552 0 2.815-1.259 2.815-2.807S19.552 15.446 18 15.446s-2.815 1.259-2.815 2.807S16.448 21.06 18 21.06zm0-4.563a1.76 1.76 0 1 1-1.76 1.755A1.76 1.76 0 0 1 18 16.498zM6.625 13.515c3.663 0 6.625-2.969 6.625-6.608S10.278.3 6.625.3 0 3.264 0 6.907s2.97 6.608 6.625 6.608zm3.53-2.313a5.56 5.56 0 0 1-3.53 1.261 5.56 5.56 0 0 1-3.53-1.261c0-1.089.861-1.845 1.818-1.845h3.423c.958 0 1.818.757 1.818 1.845zm-3.53-9.85a5.57 5.57 0 0 1 5.57 5.556c0 1.26-.423 2.422-1.134 3.355-.382-1.136-1.458-1.958-2.725-1.958H4.913c-1.266 0-2.343.822-2.724 1.958-.711-.933-1.134-2.095-1.134-3.355a5.57 5.57 0 0 1 5.57-5.556zm22.75 21.64c-3.653 0-6.625 2.964-6.625 6.608s2.967 6.608 6.625 6.608c3.64 0 6.625-2.951 6.625-6.608 0-3.643-2.972-6.608-6.625-6.608zm3.53 10.902a5.57 5.57 0 0 1-7.06 0c0-1.089.861-1.845 1.818-1.845h3.423c.958 0 1.818.757 1.818 1.845zm.906-.939c-.382-1.137-1.458-1.958-2.724-1.958h-3.423c-1.266 0-2.343.822-2.724 1.958-.711-.933-1.134-2.095-1.134-3.355a5.57 5.57 0 1 1 11.14 0c0 1.26-.423 2.422-1.134 3.355zM8.448 6.68c1.008-1.005 1.008-2.632 0-3.637h0a2.58 2.58 0 0 0-3.646 0c-1.008 1.005-1.008 2.631 0 3.637a2.58 2.58 0 0 0 3.646 0zm-2.9-2.893a1.53 1.53 0 0 1 2.154 0h0c.595.594.595 1.555 0 2.149a1.53 1.53 0 0 1-2.155 0c-.595-.594-.595-1.555 0-2.149zm-.746 25.585c1.005 1.002 2.641 1.003 3.646 0a2.57 2.57 0 0 0 0-3.637h0a2.59 2.59 0 0 0-3.646 0 2.57 2.57 0 0 0 0 3.637zm.746-2.893a1.53 1.53 0 0 1 2.155 0 1.52 1.52 0 0 1 0 2.149 1.53 1.53 0 0 1-2.155 0 1.52 1.52 0 0 1 0-2.149zM27.552 3.044a2.57 2.57 0 0 0 0 3.637c1.006 1.004 2.642 1.002 3.646 0a2.57 2.57 0 0 0 0-3.637h0c-1.005-1.003-2.641-1.003-3.646 0zm2.9 2.893a1.53 1.53 0 0 1-2.155 0 1.52 1.52 0 0 1 0-2.149 1.53 1.53 0 0 1 2.155 0h0c.595.594.595 1.555 0 2.149zm.746 19.799c-1.005-1.003-2.641-1.003-3.646 0a2.57 2.57 0 0 0 0 3.637c1.005 1.003 2.641 1.003 3.646 0a2.57 2.57 0 0 0 0-3.637zm-.746 2.893a1.53 1.53 0 0 1-2.155 0 1.52 1.52 0 0 1 0-2.149 1.53 1.53 0 0 1 2.155 0 1.52 1.52 0 0 1 0 2.149zM21.318 7.433c.291 0 .527-.236.527-.526s-.236-.526-.527-.526h-6.636c-.291 0-.527.236-.527.526s.236.526.527.526h6.636zm-6.636 21.641c-.291 0-.527.235-.527.526s.236.526.527.526h6.636c.291 0 .527-.235.527-.526s-.236-.526-.527-.526h-6.636z"/><use xlink:href="#B"/><use xlink:href="#B" x="22.751"/><path d="M34.841 5.835c.056.285.333.471.619.415s.472-.332.416-.617A6.63 6.63 0 0 0 29.375.3c-3.653 0-6.625 2.964-6.625 6.608 0 3.661 2.984 6.608 6.625 6.608A6.63 6.63 0 0 0 35.852 8.3c.061-.284-.12-.564-.405-.625a.53.53 0 0 0-.626.404c-.174.811-.527 1.55-1.01 2.182-.382-1.136-1.458-1.956-2.724-1.956h-3.423c-1.266 0-2.343.822-2.724 1.958-.711-.933-1.134-2.095-1.134-3.355a5.57 5.57 0 0 1 5.57-5.556c2.658 0 4.957 1.886 5.466 4.484zm-7.178 3.521h3.423a1.82 1.82 0 0 1 1.818 1.814v.026c-.972.795-2.21 1.268-3.53 1.268-1.243 0-2.498-.416-3.53-1.261 0-1.089.861-1.845 1.818-1.845zM6.625 36.207c3.656 0 6.625-2.965 6.625-6.608 0-3.124-2.224-5.847-5.288-6.473a.53.53 0 0 0-.623.41c-.058.285.125.563.411.621 2.576.526 4.446 2.815 4.446 5.442 0 1.26-.423 2.422-1.134 3.355-.382-1.136-1.458-1.958-2.724-1.958H4.913c-1.266 0-2.343.822-2.724 1.958-.711-.933-1.134-2.095-1.134-3.355 0-2.627 1.87-4.916 4.445-5.442.285-.058.469-.336.411-.621s-.337-.468-.623-.41C2.224 23.753 0 26.475 0 29.6c0 3.637 2.961 6.608 6.625 6.608zm-1.712-4.159h3.423c.958 0 1.818.757 1.818 1.845a5.57 5.57 0 0 1-7.06 0c0-1.089.861-1.845 1.818-1.845z"/></g><defs ><path id="B" d="M7.152 21.563v-6.619c0-.29-.236-.526-.527-.526s-.527.236-.527.526v6.619c0 .291.236.526.527.526s.527-.235.527-.526z"/></defs></svg>