<svg width="36" height="36" viewBox="0 0 36 36" fill="none" xmlns="http://www.w3.org/2000/svg">
<g clip-path="url(#clip0)">
<path d="M0.456235 15.06C0.523924 15.3343 0.773817 15.5242 1.05624 15.516H2.60424L3.80424 17.136L3.31824 18.6C3.24375 18.8657 3.36012 19.148 3.60024 19.284L5.14224 20.208C5.38076 20.3509 5.68619 20.3111 5.88024 20.112L6.95424 19.002L7.21824 19.038V33.6C7.21824 34.9255 8.29275 36 9.61824 36H26.4002C27.7257 36 28.8002 34.9255 28.8002 33.6V29.262L30.0602 28.944C30.3345 28.8763 30.5245 28.6264 30.5162 28.344V26.796L32.1362 25.596L33.6122 26.07C33.8714 26.1406 34.1459 26.0303 34.2842 25.8L35.2082 24.258C35.3511 24.0195 35.3114 23.714 35.1122 23.52L34.0022 22.446L34.2962 20.448L35.6762 19.74C35.9222 19.6197 36.0555 19.3482 36.0002 19.08L35.5622 17.34C35.4945 17.0657 35.2447 16.8758 34.9622 16.884H33.4142L32.2142 15.264L32.6822 13.8C32.7567 13.5343 32.6404 13.252 32.4002 13.116L30.8582 12.192C30.6197 12.0491 30.3143 12.0889 30.1202 12.288L29.0462 13.398L28.8002 13.362V2.4C28.8002 1.07452 27.7257 0 26.4002 0H9.60023C8.27475 0 7.20024 1.07452 7.20024 2.4V3.138L5.94024 3.456C5.66593 3.52369 5.47601 3.77358 5.48424 4.056V5.604L3.86424 6.804L2.40024 6.318C2.13451 6.24352 1.85225 6.35989 1.71624 6.6L0.792235 8.124C0.649377 8.36253 0.689108 8.66796 0.888235 8.862L1.99823 9.936L1.70424 11.934L0.324235 12.642C0.070564 12.764 -0.0641785 13.046 0.000235092 13.32L0.456235 15.06ZM26.4002 34.8H9.60023C8.93749 34.8 8.40024 34.2627 8.40024 33.6V32.664C8.76263 32.8821 9.17726 32.9982 9.60023 33H26.4002C26.8232 32.9982 27.2378 32.8821 27.6002 32.664V33.6C27.6002 34.2627 27.063 34.8 26.4002 34.8ZM29.1902 14.634C29.3832 14.6624 29.5778 14.5953 29.7122 14.454L30.6722 13.464L31.3922 13.902L30.9662 15.21C30.9076 15.394 30.9411 15.595 31.0562 15.75L32.6282 17.874C32.7482 18.0234 32.9286 18.1114 33.1202 18.114H34.5002L34.7042 18.93L33.4742 19.56C33.3016 19.6496 33.183 19.8173 33.1562 20.01L32.7662 22.614C32.7379 22.8069 32.805 23.0016 32.9462 23.136L33.9362 24.096L33.4982 24.816L32.1902 24.39C32.0062 24.3314 31.8053 24.3648 31.6502 24.48L29.5262 26.052C29.3717 26.1678 29.2824 26.3509 29.2862 26.544V27.924L28.4702 28.128L27.8402 26.898C27.7507 26.7253 27.5829 26.6068 27.3902 26.58L24.7862 26.19H24.7202C24.5569 26.1906 24.4009 26.2578 24.2882 26.376L23.3282 27.366L22.6082 26.928L23.0342 25.62C23.0929 25.436 23.0594 25.235 22.9442 25.08L21.3722 22.956C21.2517 22.8073 21.0716 22.7194 20.8802 22.716H19.5002L19.2962 21.9L20.5262 21.27C20.6989 21.1804 20.8175 21.0127 20.8442 20.82L21.2342 18.216C21.2626 18.0231 21.1955 17.8284 21.0542 17.694L20.0642 16.734L20.5022 16.014L21.8102 16.44C21.9942 16.4987 22.1952 16.4652 22.3502 16.35L24.4742 14.778C24.6287 14.6622 24.7181 14.4791 24.7142 14.286V12.906L25.5302 12.702L26.1602 13.932C26.2498 14.1047 26.4176 14.2232 26.6102 14.25L29.1902 14.634ZM22.6142 1.2L21.8462 2.022C21.6262 2.25619 21.3215 2.39235 21.0002 2.4H15.0602C14.7285 2.40048 14.4114 2.26365 14.1842 2.022L13.3862 1.2H22.6142ZM9.60023 1.2H11.7422L13.2782 2.844C13.7327 3.32731 14.3668 3.60097 15.0302 3.6H21.0002C21.6636 3.60097 22.2978 3.32731 22.7522 2.844L24.2582 1.2H26.4002C27.063 1.2 27.6002 1.73726 27.6002 2.4V13.2L27.0662 13.122L26.3582 11.742C26.2423 11.4813 25.9588 11.3383 25.6802 11.4L23.9402 11.838C23.6659 11.9057 23.476 12.1556 23.4842 12.438V13.986L21.8642 15.186L20.4002 14.718C20.1351 14.6341 19.847 14.7433 19.7042 14.982L18.7802 16.524C18.6374 16.7625 18.6771 17.068 18.8762 17.262L19.9862 18.336L19.6922 20.334L18.3122 21.042C18.0632 21.1679 17.9339 21.4489 18.0002 21.72L18.4382 23.46C18.5059 23.7343 18.7558 23.9242 19.0382 23.916H20.5862L21.7862 25.536L21.3182 27C21.2438 27.2657 21.3601 27.548 21.6002 27.684L23.1422 28.608C23.3808 28.7509 23.6862 28.7111 23.8802 28.512L24.9542 27.402L26.9522 27.696L27.6002 28.992V30.6C27.6002 31.2627 27.063 31.8 26.4002 31.8H9.60023C8.93749 31.8 8.40024 31.2627 8.40024 30.6V19.2L8.93424 19.278L9.64223 20.658C9.75817 20.9187 10.0417 21.0617 10.3202 21L12.0602 20.562C12.3345 20.4943 12.5245 20.2444 12.5162 19.962V18.414L14.1362 17.214L15.6122 17.688C15.8756 17.7553 16.1513 17.6371 16.2842 17.4L17.2082 15.858C17.3511 15.6195 17.3114 15.314 17.1122 15.12L16.0022 14.046L16.2962 12.048L17.6762 11.34C17.9222 11.2197 18.0555 10.9482 18.0002 10.68L17.5622 8.94C17.4945 8.66569 17.2447 8.47577 16.9622 8.484H15.4142L14.2142 6.864L14.6822 5.4C14.7567 5.13428 14.6403 4.85202 14.4002 4.716L12.8762 3.792C12.6377 3.64914 12.3323 3.68887 12.1382 3.888L11.0642 4.998L9.06624 4.704L8.40024 3.408V2.4C8.40024 1.73726 8.93749 1.2 9.60023 1.2ZM2.52624 12.864C2.69892 12.7744 2.81745 12.6067 2.84424 12.414L3.23424 9.81C3.26262 9.61709 3.19549 9.42241 3.05424 9.288L2.06424 8.328L2.50224 7.608L3.81024 8.034C3.99423 8.09265 4.19521 8.05915 4.35024 7.944L6.47424 6.372C6.62875 6.25618 6.71807 6.07307 6.71424 5.88V4.5L7.53024 4.296L8.16024 5.526C8.24981 5.69868 8.41755 5.81722 8.61024 5.844L11.2142 6.234C11.4071 6.26238 11.6018 6.19526 11.7362 6.054L12.6962 5.064L13.4162 5.502L12.9902 6.81C12.9316 6.994 12.9651 7.19497 13.0802 7.35L14.6522 9.474C14.7681 9.62851 14.9512 9.71783 15.1442 9.714H16.5242L16.7282 10.53L15.4982 11.13C15.3256 11.2196 15.207 11.3873 15.1802 11.58L14.7902 14.184C14.7619 14.3769 14.829 14.5716 14.9702 14.706L15.9602 15.666L15.5222 16.386L14.2142 15.96C14.0302 15.9014 13.8293 15.9348 13.6742 16.05L11.5502 17.622C11.3957 17.7378 11.3064 17.9209 11.3102 18.114V19.494L10.4942 19.698L9.89423 18.468C9.80466 18.2953 9.63692 18.1768 9.44424 18.15L6.84024 17.76H6.72024C6.55692 17.7606 6.40092 17.8278 6.28824 17.946L5.32824 18.936L4.60824 18.498L5.03424 17.19C5.09289 17.006 5.05939 16.805 4.94424 16.65L3.37224 14.526C3.25641 14.3715 3.0733 14.2822 2.88024 14.286H1.50024L1.29624 13.47L2.52624 12.864Z" fill="#3E3465"/>
<path d="M6.52234 16.1279C6.84562 16.3189 7.1899 16.4719 7.54834 16.5839H7.61434C8.06368 16.7215 8.5304 16.7943 9.00034 16.7999C10.8598 16.7673 12.5332 15.6636 13.2951 13.9671C14.057 12.2705 13.7703 10.2866 12.5593 8.87509C11.3483 7.46363 9.43097 6.87871 7.63833 7.37388H7.55434C5.74293 7.93639 4.43264 9.51282 4.21079 11.3965C3.98895 13.2803 4.89717 15.1179 6.52834 16.0859L6.52234 16.1279ZM10.8603 8.92788C12.3469 9.81871 12.9877 11.6422 12.3853 13.2672C11.783 14.8921 10.1083 15.8573 8.40034 15.5639V8.44188C8.59821 8.40444 8.79897 8.38436 9.00034 8.38188C9.65575 8.38136 10.2989 8.55978 10.8603 8.89788V8.92788ZM5.89834 10.1399C6.21906 9.61675 6.66697 9.18329 7.20034 8.87988V15.1319H7.14033C6.3058 14.6417 5.70379 13.8361 5.47012 12.8969C5.23644 11.9577 5.39079 10.964 5.89834 10.1399Z" fill="#3E3465"/>
<path d="M22.8723 17.9219C22.2131 19.0152 22.0165 20.3261 22.3262 21.5647C22.6358 22.8032 23.4262 23.8674 24.5223 24.5219C25.2706 24.9708 26.1278 25.2054 27.0004 25.1999C27.4616 25.1951 27.92 25.1265 28.3624 24.9959L28.4704 24.9599C30.2769 24.3926 31.5811 22.8164 31.8001 20.9356C32.0192 19.0549 31.1121 17.2211 29.4844 16.2539C29.1602 16.0549 28.8112 15.8996 28.4464 15.7919H28.4044C26.2898 15.1424 24.0053 16.022 22.8723 17.9219ZM25.1404 23.5019C23.8776 22.7569 23.1927 21.3205 23.4089 19.8704C23.6251 18.4203 24.6992 17.2461 26.1244 16.9019C26.4112 16.833 26.7053 16.7988 27.0004 16.7999C27.2014 16.8027 27.402 16.8207 27.6004 16.8539V23.9639C26.7515 24.1091 25.8787 23.9452 25.1404 23.5019ZM30.5404 19.5239C30.7742 20.4538 30.6273 21.4386 30.1324 22.2599C29.8033 22.7868 29.3447 23.2206 28.8004 23.5199V17.2679H28.8604C29.6917 17.767 30.2866 18.5804 30.5104 19.5239H30.5404Z" fill="#3E3465"/>
<path d="M18.6 6.00005H20.4C20.7314 6.00005 21 5.73142 21 5.40005C21 5.06868 20.7314 4.80005 20.4 4.80005H18.6C18.2686 4.80005 18 5.06868 18 5.40005C18 5.73142 18.2686 6.00005 18.6 6.00005Z" fill="#3E3465"/>
<path d="M22.8004 6.00005H25.8004C26.1318 6.00005 26.4004 5.73142 26.4004 5.40005C26.4004 5.06868 26.1318 4.80005 25.8004 4.80005H22.8004C22.4691 4.80005 22.2004 5.06868 22.2004 5.40005C22.2004 5.73142 22.4691 6.00005 22.8004 6.00005Z" fill="#3E3465"/>
<path d="M25.8004 7.2002H20.4004C20.069 7.2002 19.8004 7.46882 19.8004 7.8002C19.8004 8.13157 20.069 8.4002 20.4004 8.4002H25.8004C26.1318 8.4002 26.4004 8.13157 26.4004 7.8002C26.4004 7.46882 26.1318 7.2002 25.8004 7.2002Z" fill="#3E3465"/>
<path d="M17.4004 25.2002H15.6004C15.269 25.2002 15.0004 25.4688 15.0004 25.8002C15.0004 26.1316 15.269 26.4002 15.6004 26.4002H17.4004C17.7317 26.4002 18.0004 26.1316 18.0004 25.8002C18.0004 25.4688 17.7317 25.2002 17.4004 25.2002Z" fill="#3E3465"/>
<path d="M10.2001 26.4002H13.2001C13.5315 26.4002 13.8001 26.1316 13.8001 25.8002C13.8001 25.4688 13.5315 25.2002 13.2001 25.2002H10.2001C9.86873 25.2002 9.6001 25.4688 9.6001 25.8002C9.6001 26.1316 9.86873 26.4002 10.2001 26.4002Z" fill="#3E3465"/>
<path d="M15.6001 27.5999H10.2001C9.86873 27.5999 9.6001 27.8685 9.6001 28.1998C9.6001 28.5312 9.86873 28.7998 10.2001 28.7998H15.6001C15.9315 28.7998 16.2001 28.5312 16.2001 28.1998C16.2001 27.8685 15.9315 27.5999 15.6001 27.5999Z" fill="#3E3465"/>
</g>
<defs>
<clipPath id="clip0">
<rect width="36" height="36" fill="white"/>
</clipPath>
</defs>
</svg>
