<svg xmlns="http://www.w3.org/2000/svg" width="36" height="37" fill="none" xmlns:v="https://vecta.io/nano"><g clip-path="url(#A)" fill="#3e3465"><path d="M31.8 7.311h-2.679l-2.143-3.206c-.107-.9-.87-1.579-1.778-1.582H10.8c-.909.003-1.672.682-1.778 1.582L6.879 7.311H4.2A4.2 4.2 0 0 0 0 11.501v20.347a3 3 0 0 0 3 2.992h30a3 3 0 0 0 3-2.992V11.501a4.2 4.2 0 0 0-4.2-4.189zm-21-3.591h14.4a.6.6 0 0 1 .6.598.6.6 0 0 1-.6.598H10.8a.6.6 0 0 1-.6-.598.6.6 0 0 1 .6-.598zM9.497 5.551a1.79 1.79 0 0 0 1.303.563h14.4a1.79 1.79 0 0 0 1.303-.563l1.177 1.76H8.321l1.177-1.76zM31.8 8.508a2.98 2.98 0 0 1 1.064.203 2.98 2.98 0 0 0-.464 1.592v10.772a.6.6 0 0 1-.6.598H21.145c.256-.629.406-1.297.443-1.975.17-2.023-1.322-3.806-3.347-4.003-.995-.07-1.974.279-2.7.962a3.6 3.6 0 0 0-1.14 2.622c-.01.82.144 1.634.454 2.394H4.2a.6.6 0 0 1-.6-.598V10.304a2.98 2.98 0 0 0-.464-1.592A2.98 2.98 0 0 1 4.2 8.508h27.6zM15.6 19.281a2.39 2.39 0 0 1 .76-1.748c.485-.453 1.137-.685 1.799-.641 1.359.167 2.343 1.376 2.229 2.737a4.86 4.86 0 0 1-.213 1.197c-.311-.581-.916-.944-1.576-.947h-1.2c-.659.002-1.264.365-1.576.945-.155-.5-.231-1.02-.224-1.543zm3.6 4.788h-2.4v-2.394a.6.6 0 0 1 .6-.598h1.2a.6.6 0 0 1 .6.598v2.394zm.6 1.197v1.197h-3.6v-1.197h3.6zm-3 2.394h2.4v2.394a1.2 1.2 0 0 1-2.4 0v-2.394zm18 4.189a1.8 1.8 0 0 1-1.8 1.795H3a1.8 1.8 0 0 1-1.8-1.795V11.501c.001-.81.332-1.585.917-2.146a1.78 1.78 0 0 1 .283.949v10.772a1.8 1.8 0 0 0 1.8 1.795h11.16c.156.38.238.786.24 1.197v.166a1.19 1.19 0 0 0-.6 1.031v1.197a1.19 1.19 0 0 0 .6 1.031v2.56c0 1.322 1.074 2.394 2.4 2.394s2.4-1.072 2.4-2.394v-2.56a1.19 1.19 0 0 0 .6-1.03v-1.197a1.19 1.19 0 0 0-.6-1.031v-.166a3.19 3.19 0 0 1 .24-1.197H31.8a1.8 1.8 0 0 0 1.8-1.795V10.304a1.78 1.78 0 0 1 .283-.949c.586.561.917 1.336.917 2.146v20.347z"/><path d="M4.2 31.25H3a.6.6 0 0 0-.6.598.6.6 0 0 0 .6.598h1.2a.6.6 0 0 0 .6-.598.6.6 0 0 0-.6-.598zm9.6 0H6.6a.6.6 0 0 0-.6.598.6.6 0 0 0 .6.598h7.2a.6.6 0 0 0 .6-.598.6.6 0 0 0-.6-.598zm19.2 0h-1.2a.6.6 0 0 0-.6.598.6.6 0 0 0 .6.598H33a.6.6 0 0 0 .6-.598.6.6 0 0 0-.6-.598zm-3.6 0h-7.2a.6.6 0 0 0-.6.598.6.6 0 0 0 .6.598h7.2a.6.6 0 0 0 .6-.598.6.6 0 0 0-.6-.598z"/></g><defs><clipPath id="A"><path fill="#fff" transform="translate(0 .728)" d="M0 0h36v35.907H0z"/></clipPath></defs></svg>