<svg xmlns="http://www.w3.org/2000/svg" width="35" height="35" fill="none" xmlns:v="https://vecta.io/nano"><path d="M24.933 0H10.067A3.07 3.07 0 0 0 7 3.067v28.866A3.07 3.07 0 0 0 10.067 35h14.866A3.07 3.07 0 0 0 28 31.933V3.067A3.07 3.07 0 0 0 24.933 0zm1.901 31.933c-.001 1.049-.851 1.899-1.901 1.901H10.067c-1.049-.001-1.899-.851-1.901-1.901v-1.599h18.667v1.599zm0-2.766H8.167V6.417h18.667v22.75zm0-23.917H8.167V3.067a1.9 1.9 0 0 1 1.901-1.9h14.866c1.049.001 1.899.851 1.901 1.9V5.25zM19.25 2.917h-5.833v1.167h5.833V2.917zm-5.578 29.146h7.656v1.094h-7.656v-1.094zM9.333 8.75v7H17.5v-7H9.333zm7 5.833H10.5V9.917h5.833v4.667zm9.334-5.833h-7v1.167h7V8.75zM21 11.083h-2.333v1.167H21v-1.167zm4.667 0h-3.5v1.167h3.5v-1.167zm0 2.334h-7v1.167h7v-1.167zm-16.334 3.5v7H17.5v-7H9.333zm7 5.833H10.5v-4.667h5.833v4.667zm9.334-5.833h-7v1.167h7v-1.167zM21 19.25h-2.333v1.167H21V19.25zm4.667 0h-3.5v1.167h3.5V19.25zm0 2.333h-7v1.167h7v-1.167zm-5.834 5.25h-7V28h7v-1.167zM21 24.5V28h4.667v-3.5H21zm3.5 2.333h-2.333v-1.167H24.5v1.167zM21.583 2.917h-1.167v1.167h1.167V2.917z" fill="#3e3465"/><path fill="#9effae" d="M8.176 29h18.656v2H8.176z"/></svg>