<svg width="35" height="35" viewBox="0 0 35 35" fill="none" xmlns="http://www.w3.org/2000/svg">
<path d="M34.4531 18.0469C34.4531 14.3888 31.873 11.3258 28.4375 10.5722V3.28125C28.4375 1.77352 27.2109 0.546875 25.7031 0.546875H11.4844C9.97664 0.546875 8.75 1.77352 8.75 3.28125V9.29688H5.58852L5.25875 10.6181L4.09172 9.91758L1.16703 12.8406L1.86758 14.0087L0.546875 14.3385V18.474L1.86812 18.8037L1.16703 19.9719L4.09117 22.8955L5.2582 22.1949L5.58852 23.5156H8.75V31.7188C8.75 33.2265 9.97664 34.4531 11.4844 34.4531H25.7031C27.2109 34.4531 28.4375 33.2265 28.4375 31.7188V25.5216C31.873 24.768 34.4531 21.7049 34.4531 18.0469ZM33.3594 18.0469C33.3594 19.1127 33.0985 20.1168 32.6457 21.0077C32.3422 20.1726 31.6438 19.5158 30.7415 19.2899L28.4375 18.7135V18.5828C29.1189 18.0693 29.5312 17.2616 29.5312 16.4068V15.313C29.5312 14.5491 29.208 13.8141 28.6442 13.2967C28.0809 12.781 27.3175 12.5218 26.5541 12.5891C25.1568 12.7099 24.0625 13.9568 24.0625 15.4257V16.4062C24.0625 17.261 24.4748 18.0688 25.1562 18.5823V18.713L22.8523 19.2894C21.9499 19.5152 21.2516 20.172 20.948 21.0071C20.4952 20.1168 20.2344 19.1127 20.2344 18.0469C20.2344 14.4282 23.1782 11.4844 26.7969 11.4844C30.4155 11.4844 33.3594 14.4282 33.3594 18.0469ZM25.1562 10.5722C24.78 10.6548 24.4158 10.7685 24.0625 10.9041V9.29688H13.125V16.9531H19.2281C19.1762 17.3113 19.1406 17.6745 19.1406 18.0469C19.1406 21.7049 21.7208 24.768 25.1562 25.5216V26.7969H12.0312V8.20312H25.1562V10.5722ZM19.4633 15.8594H14.2188V10.3906H22.9688V11.4264C21.2986 12.396 20.0266 13.9743 19.4633 15.8594ZM11.4844 1.64062H25.7031C26.6077 1.64062 27.3438 2.37672 27.3438 3.28125V4.92188H9.84375V3.28125C9.84375 2.37672 10.5798 1.64062 11.4844 1.64062ZM8.75 18.9066C8.40492 19.0586 8.0325 19.1406 7.65625 19.1406C6.14852 19.1406 4.92188 17.914 4.92188 16.4062C4.92188 14.8985 6.14852 13.6719 7.65625 13.6719C8.0325 13.6719 8.40492 13.7539 8.75 13.9059V18.9066ZM6.44273 22.4219L6.17641 21.356L6.06539 21.0634L5.44086 20.8097L4.2607 21.5184L2.54461 19.8018L3.25336 18.6211L2.97992 17.9539L1.64062 17.6198V15.1927L2.97828 14.8586L3.25336 14.1914L2.54461 13.0107L4.2607 11.2941L5.44086 12.0028L6.10805 11.7316L6.44273 10.3906H8.75V12.7449C8.39508 12.6383 8.02758 12.5781 7.65625 12.5781C5.54531 12.5781 3.82812 14.2959 3.82812 16.4062C3.82812 18.5166 5.54531 20.2344 7.65625 20.2344C8.02758 20.2344 8.39508 20.1742 8.75 20.0676V22.4219H6.44273ZM25.7031 33.3594H11.4844C10.5798 33.3594 9.84375 32.6233 9.84375 31.7188V30.0781H27.3438V31.7188C27.3438 32.6233 26.6077 33.3594 25.7031 33.3594ZM27.3438 28.9844H9.84375V6.01562H27.3438V10.4185C27.1622 10.4054 26.9817 10.3906 26.7969 10.3906C26.612 10.3906 26.4316 10.4054 26.25 10.4185V7.10938H10.9375V27.8906H26.25V25.6752C26.4316 25.6884 26.612 25.7031 26.7969 25.7031C26.9817 25.7031 27.1622 25.6884 27.3438 25.6752V28.9844ZM26.7969 24.6094C24.8363 24.6094 23.0787 23.7404 21.875 22.3732V21.9423C21.875 21.1881 22.3863 20.5335 23.1175 20.3503L26.25 19.5677V17.9758L25.9782 17.8177C25.4636 17.518 25.1562 16.9903 25.1562 16.4062V15.4257C25.1562 14.5184 25.812 13.7512 26.6487 13.6784C27.1179 13.6407 27.5625 13.7884 27.9054 14.1028C28.2434 14.4129 28.4375 14.8537 28.4375 15.3125V16.4062C28.4375 16.9903 28.1302 17.518 27.6155 17.8177L27.3438 17.9758V19.5677L30.4762 20.3503C31.2074 20.5335 31.7188 21.1881 31.7188 21.9423V22.3732C30.5151 23.7404 28.7574 24.6094 26.7969 24.6094Z" fill="#3E3465"/>
<path d="M20.7812 2.73438H21.875V3.82812H20.7812V2.73438Z" fill="#3E3465"/>
<path d="M15.3125 2.73438H19.6875V3.82812H15.3125V2.73438Z" fill="#3E3465"/>
<path d="M16.4062 31.1719H20.7812V32.2656H16.4062V31.1719Z" fill="#3E3465"/>
<path d="M24.0625 31.1719H25.1562V32.2656H24.0625V31.1719Z" fill="#3E3465"/>
<path d="M12.0312 31.1719H13.125V32.2656H12.0312V31.1719Z" fill="#3E3465"/>
<path d="M13.125 18.0469H18.0469V19.1406H13.125V18.0469Z" fill="#3E3465"/>
<path d="M13.125 20.2344H18.0469V21.3281H13.125V20.2344Z" fill="#3E3465"/>
<path d="M13.125 22.4219H18.0469V23.5156H13.125V22.4219Z" fill="#3E3465"/>
<path d="M13.125 24.6094H18.0469V25.7031H13.125V24.6094Z" fill="#3E3465"/>
<path d="M31.1719 10.3906C32.0764 10.3906 32.8125 9.65453 32.8125 8.75C32.8125 8.03797 32.3537 7.43641 31.7188 7.21V2.73438H30.625V7.21C29.9901 7.43641 29.5312 8.03797 29.5312 8.75C29.5312 9.65453 30.2673 10.3906 31.1719 10.3906ZM31.1719 8.20312C31.4732 8.20312 31.7188 8.44812 31.7188 8.75C31.7188 9.05188 31.4732 9.29688 31.1719 9.29688C30.8705 9.29688 30.625 9.05188 30.625 8.75C30.625 8.44812 30.8705 8.20312 31.1719 8.20312Z" fill="#3E3465"/>
<path d="M30.625 0.546875H31.7188V1.64062H30.625V0.546875Z" fill="#3E3465"/>
<path d="M6.01562 24.6094C5.11109 24.6094 4.375 25.3455 4.375 26.25C4.375 26.962 4.83383 27.5636 5.46875 27.79V32.2656H6.5625V27.79C7.19742 27.5636 7.65625 26.962 7.65625 26.25C7.65625 25.3455 6.92016 24.6094 6.01562 24.6094ZM6.01562 26.7969C5.7143 26.7969 5.46875 26.5519 5.46875 26.25C5.46875 25.9481 5.7143 25.7031 6.01562 25.7031C6.31695 25.7031 6.5625 25.9481 6.5625 26.25C6.5625 26.5519 6.31695 26.7969 6.01562 26.7969Z" fill="#3E3465"/>
<path d="M5.46875 33.3594H6.5625V34.4531H5.46875V33.3594Z" fill="#3E3465"/>
</svg>
