<svg width="35" height="35" viewBox="0 0 35 35" fill="none" xmlns="http://www.w3.org/2000/svg">
<g clip-path="url(#clip0)">
<path d="M25.6668 0H9.33346C8.04479 0 7.00012 1.04467 7.00012 2.33333V32.6667C7.00012 33.9553 8.04479 35 9.33346 35H25.6668C26.9555 35 28.0001 33.9553 28.0001 32.6667V2.33333C28.0001 1.04467 26.9555 0 25.6668 0ZM21.986 1.16667L21.2393 1.96583C21.0254 2.19351 20.7291 2.3259 20.4168 2.33333H14.6418C14.3193 2.3338 14.011 2.20077 13.7901 1.96583L13.0143 1.16667H21.986ZM8.16679 2.33333C8.16679 1.689 8.68912 1.16667 9.33346 1.16667H11.416L12.9093 2.765C13.3511 3.23488 13.9677 3.50094 14.6126 3.5H20.4168C21.0617 3.50094 21.6783 3.23488 22.1201 2.765L23.5843 1.16667H25.6668C26.3111 1.16667 26.8335 1.689 26.8335 2.33333V29.75C26.8335 30.3943 26.3111 30.9167 25.6668 30.9167H9.33346C8.68912 30.9167 8.16679 30.3943 8.16679 29.75V2.33333ZM25.6668 33.8333H9.33346C8.68912 33.8333 8.16679 33.311 8.16679 32.6667V31.7567C8.51912 31.9687 8.92223 32.0816 9.33346 32.0833H25.6668C26.078 32.0816 26.4811 31.9687 26.8335 31.7567V32.6667C26.8335 33.311 26.3111 33.8333 25.6668 33.8333Z" fill="#3E3465"/>
<path d="M12.25 16.3333H15.75C16.3944 16.3333 16.9167 15.811 16.9167 15.1667V11.6667C16.9167 11.0223 16.3944 10.5 15.75 10.5H12.25C11.6057 10.5 11.0834 11.0223 11.0834 11.6667V15.1667C11.0834 15.811 11.6057 16.3333 12.25 16.3333ZM12.25 11.6667H15.75V15.1667H12.25V11.6667Z" fill="#3E3465"/>
<path d="M19.2502 16.3333H22.7502C23.3945 16.3333 23.9168 15.811 23.9168 15.1667V11.6667C23.9168 11.0223 23.3945 10.5 22.7502 10.5H19.2502C18.6058 10.5 18.0835 11.0223 18.0835 11.6667V15.1667C18.0835 15.811 18.6058 16.3333 19.2502 16.3333ZM19.2502 11.6667H22.7502V15.1667H19.2502V11.6667Z" fill="#3E3465"/>
<path d="M12.25 23.3333H15.75C16.3944 23.3333 16.9167 22.811 16.9167 22.1667V18.6667C16.9167 18.0223 16.3944 17.5 15.75 17.5H12.25C11.6057 17.5 11.0834 18.0223 11.0834 18.6667V22.1667C11.0834 22.811 11.6057 23.3333 12.25 23.3333ZM12.25 18.6667H15.75V22.1667H12.25V18.6667Z" fill="#3E3465"/>
<path d="M18.6668 21H20.4168V22.75C20.4168 23.0722 20.678 23.3333 21.0002 23.3333C21.3223 23.3333 21.5835 23.0722 21.5835 22.75V21H23.3335C23.6557 21 23.9168 20.7388 23.9168 20.4167C23.9168 20.0945 23.6557 19.8333 23.3335 19.8333H21.5835V18.0833C21.5835 17.7612 21.3223 17.5 21.0002 17.5C20.678 17.5 20.4168 17.7612 20.4168 18.0833V19.8333H18.6668C18.3447 19.8333 18.0835 20.0945 18.0835 20.4167C18.0835 20.7388 18.3447 21 18.6668 21Z" fill="#3E3465"/>
</g>
<defs>
<clipPath id="clip0">
<rect width="35" height="35" fill="white"/>
</clipPath>
</defs>
</svg>
