<svg width="34" height="34" viewBox="0 0 34 34" fill="none" xmlns="http://www.w3.org/2000/svg">
<path fill-rule="evenodd" clip-rule="evenodd" d="M30.3122 0.355281C29.7111 0.573785 29.2629 1.00667 29.0183 1.60527C28.9634 1.73959 28.9275 2.03957 28.9296 2.3465C28.9326 2.77965 28.9617 2.91752 29.1117 3.20802L29.2904 3.55389L29.1341 3.72366C29.0209 3.84671 24.9606 8.53056 24.6443 8.90298C24.6226 8.92857 24.4604 8.90466 24.284 8.84987C23.623 8.64484 22.8181 8.8647 22.3004 9.39182C21.6051 10.0997 21.4936 11.1547 22.0305 11.946L22.1957 12.1894L22.0481 12.433C21.9669 12.567 20.8426 14.3146 19.5496 16.3167L17.1988 19.9568L16.9714 19.8938C16.8464 19.8592 16.5652 19.8475 16.3467 19.8678C15.2839 19.9666 14.5016 20.7868 14.4922 21.8121C14.49 22.0602 14.5083 22.3358 14.5329 22.4244C14.5755 22.5776 14.482 22.6454 12.632 23.8C11.069 24.7756 10.6671 25.0003 10.589 24.9425C10.5356 24.9028 10.3323 24.7916 10.1373 24.6952C9.84703 24.5518 9.69504 24.52 9.29806 24.5197C8.87955 24.5193 8.75431 24.5482 8.38189 24.7316C7.74713 25.0441 7.33752 25.6122 7.25708 26.2917L7.22072 26.5984L5.69796 26.9C4.86043 27.0658 4.12776 27.2153 4.06969 27.2321C3.99679 27.2531 3.91164 27.1729 3.79401 26.9721C3.70036 26.8123 3.48965 26.5792 3.32568 26.454C2.30528 25.6749 0.796248 26.029 0.230908 27.1803C0.0754415 27.4969 0.050175 27.6255 0.0509484 28.0965C0.0517219 28.5675 0.0766017 28.6915 0.228201 28.9806C0.461079 29.4247 0.798955 29.7534 1.22082 29.9466L1.56475 30.1041V31.1628V32.2216H0.949523C0.382185 32.2216 0.321919 32.2339 0.176057 32.3799C-0.0332949 32.5892 -0.0332949 32.8854 0.176057 33.0947L0.33423 33.2529H16.5184H32.7026L32.8608 33.0947C32.9606 32.995 33.019 32.8628 33.019 32.7373C33.019 32.6117 32.9606 32.4796 32.8608 32.3799C32.7149 32.2339 32.6547 32.2216 32.0873 32.2216H31.4721L31.4731 18.2831L31.4741 4.34463L31.9082 4.11536C33.758 3.13828 33.1448 0.383125 31.0531 0.27368C30.7451 0.257502 30.51 0.283413 30.3122 0.355281ZM5.55854 0.654547C5.19605 0.837343 4.94525 1.20551 4.63122 2.01598C4.27987 2.92287 4.3181 2.89399 3.36757 2.96921C2.4309 3.04327 2.17991 3.0987 1.88065 3.29761C1.61032 3.47725 1.37138 3.93321 1.37138 4.26941C1.37138 4.40799 1.4593 4.89521 1.56675 5.35207C1.71377 5.97735 1.74548 6.21371 1.69495 6.30813C1.65802 6.3771 1.34103 6.68049 0.990516 6.98227C0.265521 7.60646 0.0743458 7.87176 0.0319985 8.31244C-0.0202104 8.85574 0.262491 9.25904 1.26355 10.0694C1.79814 10.5022 1.79737 10.4988 1.56952 11.4356C1.46053 11.8837 1.37138 12.3767 1.37138 12.5312C1.37138 13.2995 1.82612 13.6797 2.8944 13.8047L3.49842 13.8754L3.49938 17.9082C3.50009 21.0045 3.51904 21.978 3.58085 22.1002C3.68837 22.3126 3.95231 22.4541 4.14742 22.404C4.2336 22.3818 5.19663 21.6958 6.28741 20.8795L8.27077 19.3953L10.1888 20.8354C11.2436 21.6275 12.1694 22.3091 12.2458 22.35C12.4491 22.4588 12.6119 22.4415 12.8035 22.2908L12.9734 22.1572V18.0141V13.871L13.5051 13.8322C14.2256 13.7796 14.5987 13.6413 14.8675 13.3271C15.2302 12.9035 15.2461 12.6028 14.9656 11.4752C14.8131 10.8628 14.7817 10.6403 14.832 10.5298C14.8682 10.4503 15.1419 10.1815 15.4402 9.9324C16.3381 9.18233 16.5555 8.84614 16.5021 8.28982C16.4618 7.8715 16.2319 7.55812 15.531 6.96648C14.7049 6.2692 14.7342 6.35287 14.9682 5.35774C15.1952 4.39226 15.2078 4.12303 15.0427 3.75943C14.8068 3.24018 14.3944 3.06873 13.136 2.96695C12.222 2.89309 12.2546 2.91823 11.905 2.01598C11.5915 1.20693 11.3405 0.83831 10.9753 0.650358C10.4571 0.383705 10.1019 0.479938 8.91848 1.20758C8.62037 1.39082 8.32678 1.54081 8.26613 1.54081C8.20541 1.54081 7.85477 1.35827 7.48686 1.13526C6.38628 0.468013 6.07992 0.391633 5.55854 0.654547ZM31.3644 1.37091C32.0317 1.64974 32.187 2.50178 31.6655 3.02329C31.2416 3.44721 30.6905 3.45211 30.2529 3.03579C29.4316 2.25466 30.3146 0.932222 31.3644 1.37091ZM6.69161 1.8676C7.61177 2.45376 7.80334 2.53484 8.26812 2.53484C8.73736 2.53484 8.9859 2.42952 9.85405 1.86277C10.1253 1.68571 10.3863 1.54081 10.4342 1.54081C10.5606 1.54081 10.6924 1.77034 11.0015 2.52872C11.3337 3.34389 11.4855 3.54783 11.9257 3.76988C12.2072 3.91194 12.4004 3.95061 13.08 4.00076C13.5289 4.03389 13.9496 4.08958 14.0148 4.12451C14.173 4.20914 14.1667 4.29951 13.9375 5.22696C13.6466 6.40443 13.741 6.7949 14.467 7.41754C14.6871 7.60633 15.0139 7.89703 15.1933 8.06358C15.5083 8.35608 15.5161 8.37181 15.4227 8.52405C15.3695 8.61074 15.0592 8.90195 14.733 9.17112C13.7349 9.99493 13.6195 10.3747 13.9637 11.7042C14.1676 12.492 14.1721 12.602 14.0043 12.6918C13.9332 12.7299 13.5178 12.7863 13.0813 12.8172C11.7182 12.9139 11.4336 13.1306 10.9192 14.4641C10.6859 15.0689 10.5576 15.2704 10.4076 15.2683C10.3476 15.2674 10.0084 15.078 9.65392 14.8472C8.5119 14.104 8.09197 14.0853 7.06345 14.732C6.31983 15.1995 6.14741 15.2861 6.04151 15.2454C5.93193 15.2034 5.76306 14.8756 5.50137 14.1969C5.26443 13.5822 4.90851 13.1407 4.52674 12.988C4.38217 12.9302 3.89914 12.8532 3.45336 12.817C2.62163 12.7494 2.40267 12.6901 2.40267 12.5321C2.40267 12.4823 2.48969 12.0853 2.59604 11.6498C2.8081 10.7814 2.8264 10.5639 2.71509 10.2358C2.59565 9.88361 2.42381 9.68328 1.79892 9.16757C1.47516 8.90034 1.16674 8.61074 1.11356 8.52405C1.02017 8.37181 1.02803 8.35602 1.34173 8.06358C1.52041 7.89703 1.83173 7.62174 2.03354 7.45183C2.23535 7.28193 2.47892 7.00902 2.57483 6.84544C2.80249 6.4569 2.80191 5.9923 2.57258 5.10643C2.37038 4.32542 2.36458 4.20843 2.52391 4.12316C2.59056 4.08745 2.9314 4.04156 3.28127 4.02119C4.78669 3.93353 5.09575 3.71154 5.62474 2.3378C5.84073 1.77685 5.9806 1.54081 6.09688 1.54081C6.1418 1.54081 6.40942 1.6879 6.69161 1.8676ZM30.2755 4.24633L30.4408 4.30918V18.2654V32.2216H27.347H24.2531V22.5258V12.83L24.597 12.6725C25.3347 12.3349 25.767 11.6512 25.767 10.8224C25.767 10.4303 25.7336 10.2675 25.5903 9.96089L25.4136 9.58286L26.0419 8.85787C26.3875 8.45908 27.4388 7.24525 28.3782 6.16047C29.3177 5.07568 30.0917 4.18703 30.0982 4.18581C30.1048 4.18452 30.1845 4.21178 30.2755 4.24633ZM7.65883 4.31659C6.8084 4.44717 5.9835 4.86349 5.37497 5.46931C4.60241 6.23852 4.21909 7.09617 4.16005 8.18791C4.04216 10.3672 5.56757 12.2009 7.75564 12.5103C9.07943 12.6975 10.5574 12.1183 11.4293 11.0707C12.8911 9.31408 12.6526 6.63937 10.9084 5.22805C9.99341 4.48772 8.77326 4.14546 7.65883 4.31659ZM9.2599 5.48117C10.5205 5.90529 11.3635 7.07664 11.3612 8.40094C11.3598 9.24067 11.069 9.95393 10.4737 10.5781C9.32287 11.7847 7.41177 11.8273 6.16636 10.6743C4.93088 9.53052 4.83426 7.62 5.94798 6.35718C6.77649 5.41775 8.06142 5.07787 9.2599 5.48117ZM24.1454 9.87903C24.8127 10.1579 24.968 11.0099 24.4465 11.5314C24.0201 11.9578 23.4428 11.9609 23.0208 11.539C22.2238 10.7419 23.1033 9.44364 24.1454 9.87903ZM23.2218 22.528V32.2216H20.1279H17.0341V28.0755V23.9293L17.4667 23.7086C18.5789 23.1413 18.9135 21.7798 18.2021 20.7159L18.0726 20.5222L20.5664 16.6472C22.1311 14.2157 23.0902 12.7838 23.1409 12.8033C23.2053 12.828 23.2218 14.8134 23.2218 22.528ZM5.209 15.907C5.70628 16.4942 6.33594 16.4364 7.47281 15.6992C8.26278 15.1869 8.32085 15.1878 9.10792 15.7223C9.76369 16.1676 10.1581 16.3207 10.5629 16.2871C11.0613 16.2458 11.3242 16.0187 11.6675 15.3326L11.9408 14.7864L11.9414 17.7997C11.9418 19.457 11.9326 20.813 11.9211 20.813C11.9095 20.813 11.1199 20.2329 10.1663 19.5239C8.94923 18.6189 8.3824 18.2348 8.26406 18.2348C8.14527 18.2348 7.58921 18.6148 6.3779 19.5239C5.43318 20.2329 4.64534 20.813 4.62716 20.813C4.60898 20.813 4.59519 19.457 4.59648 17.7997L4.5988 14.7864L4.81144 15.2376C4.92843 15.4858 5.10729 15.787 5.209 15.907ZM16.9309 20.9673C17.0492 21.0168 17.2221 21.1569 17.3151 21.2788C17.6534 21.7224 17.6205 22.2247 17.2274 22.6178C16.8035 23.0417 16.2524 23.0466 15.8148 22.6303C14.9911 21.8467 15.877 20.5269 16.9309 20.9673ZM15.2879 23.5453C15.3288 23.5946 15.5064 23.6969 15.6825 23.7727L16.0028 23.9105V28.0661V32.2216H12.9089H9.81506L9.81602 30.4008L9.81706 28.5799L10.2511 28.3506C10.9917 27.9594 11.4182 27.2097 11.344 26.4295C11.3251 26.2297 11.2925 26.0226 11.2718 25.9694C11.2438 25.8976 11.7351 25.5616 13.18 24.6642C14.2502 23.9996 15.1456 23.4557 15.1697 23.4557C15.1938 23.4557 15.247 23.496 15.2879 23.5453ZM9.70735 25.6062C10.3747 25.885 10.5299 26.7371 10.0084 27.2586C9.58205 27.6849 9.00472 27.688 8.5828 27.2662C7.78574 26.469 8.66523 25.1708 9.70735 25.6062ZM2.48833 27.1531C3.15055 27.4298 3.31201 28.298 2.79701 28.8131C2.07285 29.5373 0.886163 28.8886 1.07669 27.8728C1.19059 27.266 1.89676 26.9059 2.48833 27.1531ZM7.55911 27.6375C7.55911 27.7693 8.11362 28.2503 8.43539 28.3976L8.78377 28.5571V30.3894V32.2216H5.6899H2.59604V31.1659V30.1103L2.80552 30.0263C3.423 29.7791 3.88238 29.2701 4.07542 28.6193L4.18274 28.2576L5.79033 27.9254C7.58309 27.5549 7.55911 27.5588 7.55911 27.6375Z" fill="#3E3465"/>
</svg>
