<svg xmlns="http://www.w3.org/2000/svg" width="36" height="37" fill="none" xmlns:v="https://vecta.io/nano"><g clip-path="url(#A)" fill="#3e3465"><path d="M6.332 28.497a2.94 2.94 0 0 0-1.418.361c-2.264-2.895-3.507-6.492-3.507-10.176C1.406 9.556 8.85 2.131 18 2.131a16.76 16.76 0 0 1 3.305.328c.38.077.752-.169.828-.548a.7.7 0 0 0-.55-.827A18.18 18.18 0 0 0 18 .728 17.91 17.91 0 0 0 5.272 5.986 17.81 17.81 0 0 0 0 18.682a17.96 17.96 0 0 0 3.874 11.127 2.92 2.92 0 0 0 .37 3.716 2.94 2.94 0 0 0 2.088.863 2.94 2.94 0 0 0 2.088-.863 2.92 2.92 0 0 0 0-4.165 2.94 2.94 0 0 0-2.088-.863zm1.094 4.036a1.54 1.54 0 0 1-1.094.452 1.54 1.54 0 0 1-1.094-.452 1.53 1.53 0 0 1 0-2.182 1.54 1.54 0 0 1 1.094-.452 1.54 1.54 0 0 1 1.094.452 1.53 1.53 0 0 1 0 2.182zm24.7-24.978c.764-1.144.642-2.707-.369-3.716a2.94 2.94 0 0 0-4.176 0 2.92 2.92 0 0 0-.865 2.083 2.92 2.92 0 0 0 .865 2.083 2.94 2.94 0 0 0 3.506.502c2.264 2.895 3.507 6.492 3.507 10.176 0 9.126-7.444 16.551-16.594 16.551a16.73 16.73 0 0 1-3.273-.322c-.381-.076-.751.17-.828.55a.7.7 0 0 0 .552.825 18.19 18.19 0 0 0 3.549.349c4.808 0 9.328-1.868 12.728-5.259A17.81 17.81 0 0 0 36 18.682a17.96 17.96 0 0 0-3.874-11.127zm-3.551-.542a1.53 1.53 0 0 1-.453-1.091 1.53 1.53 0 0 1 .453-1.091 1.54 1.54 0 0 1 2.188 0c.603.602.603 1.58 0 2.182a1.54 1.54 0 0 1-2.188 0zM15.099 30.745c0 .387.315.701.703.701h4.397a.7.7 0 0 0 .703-.701v-1.36c.925-.248 1.808-.614 2.639-1.091l.962.96c.132.131.311.205.497.205s.365-.074.497-.206l3.108-3.102a.7.7 0 0 0 0-.992l-.961-.959c.479-.828.845-1.71 1.094-2.632h1.358c.388 0 .703-.314.703-.701v-4.385c0-.387-.315-.701-.703-.701h-1.358a10.97 10.97 0 0 0-1.093-2.632l.956-.954a.7.7 0 0 0 0-.992l-3.11-3.099c-.274-.274-.72-.274-.994 0l-.955.953c-.831-.477-1.714-.843-2.639-1.091V6.619a.7.7 0 0 0-.703-.701h-4.396c-.388 0-.703.314-.703.701v1.347c-.924.248-1.808.613-2.639 1.091l-.955-.953c-.274-.274-.72-.274-.994 0l-3.11 3.1a.7.7 0 0 0 0 .992l.956.954c-.478.828-.845 1.71-1.094 2.632H5.908a.7.7 0 0 0-.703.701l-.002 4.385a.7.7 0 0 0 .206.496c.132.131.311.205.497.205h1.358c.249.922.615 1.804 1.094 2.632l-.961.959a.7.7 0 0 0 0 .992l3.107 3.102c.132.131.311.206.497.206h0c.187 0 .365-.074.497-.205l.962-.96c.831.477 1.715.843 2.639 1.091v1.36zm-2.363-3.925c-.278-.179-.644-.141-.879.093l-.856.854-2.113-2.11.855-.853a.7.7 0 0 0 .093-.876c-.637-.984-1.086-2.063-1.332-3.206-.07-.323-.356-.554-.687-.554H6.609l.002-2.982h1.206a.7.7 0 0 0 .687-.554c.246-1.143.694-2.222 1.332-3.206a.7.7 0 0 0-.093-.876l-.85-.848 2.115-2.108.849.847c.235.234.6.272.879.093a9.62 9.62 0 0 1 3.214-1.328.7.7 0 0 0 .555-.686V7.321h2.99v1.197a.7.7 0 0 0 .555.686 9.64 9.64 0 0 1 3.214 1.328c.278.18.644.141.879-.093l.849-.847 2.115 2.108-.85.848a.7.7 0 0 0-.093.877 9.59 9.59 0 0 1 1.332 3.206c.07.323.356.554.688.554h1.208v2.982h-1.208c-.331 0-.618.231-.687.554-.246 1.143-.694 2.222-1.332 3.206a.7.7 0 0 0 .093.877l.855.853L25 27.767l-.856-.854c-.235-.234-.601-.273-.879-.093a9.63 9.63 0 0 1-3.214 1.328.7.7 0 0 0-.555.686v1.21h-2.99v-1.21c0-.33-.232-.616-.555-.686a9.62 9.62 0 0 1-3.214-1.328zm11.074-8.138a5.81 5.81 0 0 0-11.62 0 5.81 5.81 0 0 0 11.62 0zm-10.213 0c0-2.422 1.975-4.392 4.404-4.392s4.404 1.971 4.404 4.392-1.975 4.392-4.404 4.392-4.404-1.97-4.404-4.392zM24.474 3.381a.71.71 0 0 0 .497-.205.71.71 0 0 0 .206-.497.71.71 0 0 0-.206-.496.71.71 0 0 0-.994 0c-.131.131-.206.311-.206.496a.71.71 0 0 0 .206.497.7.7 0 0 0 .497.205zM11.557 33.996a.71.71 0 0 0-.497.205c-.131.13-.206.312-.206.496s.075.365.206.496a.71.71 0 0 0 .497.206.71.71 0 0 0 .497-.206c.131-.13.206-.311.206-.496s-.075-.365-.206-.496a.71.71 0 0 0-.497-.205z"/></g><defs><clipPath id="A"><path fill="#fff" transform="translate(0 .728)" d="M0 0h36v35.907H0z"/></clipPath></defs></svg>